<svg width="251" height="14" viewBox="0 0 251 14" fill="none" xmlns="http://www.w3.org/2000/svg">
<path d="M249.854 11.0684C249.612 11.0684 249.402 10.9818 249.225 10.8086C249.051 10.6309 248.965 10.4212 248.965 10.1797C248.965 9.93359 249.051 9.72396 249.225 9.55078C249.402 9.3776 249.612 9.29102 249.854 9.29102C250.1 9.29102 250.309 9.3776 250.482 9.55078C250.656 9.72396 250.742 9.93359 250.742 10.1797C250.742 10.4212 250.656 10.6309 250.482 10.8086C250.309 10.9818 250.1 11.0684 249.854 11.0684Z" fill="#F8F8F8"/>
<path d="M243.004 11.1299C242.384 11.1299 241.842 10.9727 241.377 10.6582C240.912 10.3438 240.552 9.90169 240.297 9.33203C240.042 8.75781 239.914 8.08789 239.914 7.32227V7.30859C239.914 6.53841 240.042 5.86849 240.297 5.29883C240.552 4.72917 240.91 4.28711 241.37 3.97266C241.835 3.6582 242.38 3.50098 243.004 3.50098C243.341 3.50098 243.658 3.55566 243.954 3.66504C244.255 3.76986 244.521 3.91797 244.754 4.10938C244.986 4.30078 245.169 4.52865 245.301 4.79297H245.41V0.705078H246.6V11H245.41V9.82422H245.301C245.15 10.0977 244.961 10.3324 244.733 10.5283C244.506 10.7197 244.246 10.8678 243.954 10.9727C243.662 11.0775 243.346 11.1299 243.004 11.1299ZM243.277 10.0771C243.724 10.0771 244.109 9.96549 244.433 9.74219C244.756 9.51888 245.005 9.20215 245.178 8.79199C245.351 8.37728 245.438 7.88737 245.438 7.32227V7.30859C245.438 6.73893 245.351 6.24902 245.178 5.83887C245.005 5.42871 244.756 5.11198 244.433 4.88867C244.109 4.66536 243.724 4.55371 243.277 4.55371C242.831 4.55371 242.446 4.66536 242.122 4.88867C241.803 5.10742 241.557 5.42188 241.384 5.83203C241.215 6.24219 241.131 6.73438 241.131 7.30859V7.32227C241.131 7.89193 241.215 8.38411 241.384 8.79883C241.557 9.20898 241.803 9.52572 242.122 9.74902C242.446 9.96777 242.831 10.0771 243.277 10.0771Z" fill="#F8F8F8"/>
<path d="M235.291 11.1289C234.589 11.1289 233.985 10.974 233.479 10.6641C232.978 10.3542 232.591 9.91667 232.317 9.35156C232.049 8.7819 231.914 8.11198 231.914 7.3418V7.33496C231.914 6.57389 232.049 5.90625 232.317 5.33203C232.591 4.75781 232.976 4.30892 233.473 3.98535C233.969 3.66178 234.55 3.5 235.216 3.5C235.886 3.5 236.46 3.65495 236.938 3.96484C237.422 4.27474 237.791 4.70768 238.046 5.26367C238.306 5.8151 238.436 6.45768 238.436 7.19141V7.65625H232.529V6.70605H237.827L237.239 7.57422V7.10254C237.239 6.52376 237.153 6.04753 236.979 5.67383C236.806 5.30013 236.567 5.02214 236.262 4.83984C235.956 4.65299 235.605 4.55957 235.209 4.55957C234.812 4.55957 234.457 4.65755 234.143 4.85352C233.833 5.04492 233.587 5.32975 233.404 5.70801C233.222 6.08626 233.131 6.55111 233.131 7.10254V7.57422C233.131 8.09831 233.22 8.5472 233.397 8.9209C233.575 9.29004 233.828 9.57487 234.156 9.77539C234.484 9.97135 234.872 10.0693 235.318 10.0693C235.651 10.0693 235.94 10.0238 236.187 9.93262C236.433 9.84147 236.635 9.72526 236.795 9.58398C236.954 9.44271 237.066 9.29915 237.13 9.15332L237.157 9.0918H238.347L238.333 9.14648C238.269 9.39714 238.155 9.64095 237.991 9.87793C237.832 10.1104 237.624 10.3223 237.369 10.5137C237.114 10.7005 236.811 10.8509 236.46 10.9648C236.114 11.0742 235.724 11.1289 235.291 11.1289Z" fill="#F8F8F8"/>
<path d="M227.056 11L224.328 3.63086H225.586L227.603 9.70117H227.712L229.729 3.63086H230.986L228.259 11H227.056Z" fill="#F8F8F8"/>
<path d="M219.57 10.999V3.62988H220.76V4.72363H220.869C221.01 4.33626 221.25 4.03548 221.587 3.82129C221.924 3.6071 222.341 3.5 222.838 3.5C222.952 3.5 223.063 3.50684 223.173 3.52051C223.287 3.52962 223.373 3.53874 223.433 3.54785V4.70312C223.31 4.68034 223.189 4.66439 223.07 4.65527C222.956 4.6416 222.833 4.63477 222.701 4.63477C222.323 4.63477 221.988 4.70996 221.696 4.86035C221.405 5.01074 221.174 5.22038 221.006 5.48926C220.842 5.75814 220.76 6.07259 220.76 6.43262V10.999H219.57Z" fill="#F8F8F8"/>
<path d="M214.58 11.1289C213.878 11.1289 213.274 10.974 212.769 10.6641C212.267 10.3542 211.88 9.91667 211.606 9.35156C211.338 8.7819 211.203 8.11198 211.203 7.3418V7.33496C211.203 6.57389 211.338 5.90625 211.606 5.33203C211.88 4.75781 212.265 4.30892 212.762 3.98535C213.258 3.66178 213.84 3.5 214.505 3.5C215.175 3.5 215.749 3.65495 216.228 3.96484C216.711 4.27474 217.08 4.70768 217.335 5.26367C217.595 5.8151 217.725 6.45768 217.725 7.19141V7.65625H211.818V6.70605H217.116L216.528 7.57422V7.10254C216.528 6.52376 216.442 6.04753 216.269 5.67383C216.095 5.30013 215.856 5.02214 215.551 4.83984C215.245 4.65299 214.895 4.55957 214.498 4.55957C214.102 4.55957 213.746 4.65755 213.432 4.85352C213.122 5.04492 212.876 5.32975 212.693 5.70801C212.511 6.08626 212.42 6.55111 212.42 7.10254V7.57422C212.42 8.09831 212.509 8.5472 212.687 8.9209C212.864 9.29004 213.117 9.57487 213.445 9.77539C213.773 9.97135 214.161 10.0693 214.607 10.0693C214.94 10.0693 215.229 10.0238 215.476 9.93262C215.722 9.84147 215.924 9.72526 216.084 9.58398C216.243 9.44271 216.355 9.29915 216.419 9.15332L216.446 9.0918H217.636L217.622 9.14648C217.558 9.39714 217.444 9.64095 217.28 9.87793C217.121 10.1104 216.913 10.3223 216.658 10.5137C216.403 10.7005 216.1 10.8509 215.749 10.9648C215.403 11.0742 215.013 11.1289 214.58 11.1289Z" fill="#F8F8F8"/>
<path d="M206.772 11.1289C206.226 11.1289 205.743 11.0469 205.323 10.8828C204.904 10.7142 204.567 10.4795 204.312 10.1787C204.061 9.87793 203.913 9.52474 203.867 9.11914H205.084C205.184 9.42448 205.38 9.67057 205.672 9.85742C205.964 10.0443 206.344 10.1377 206.813 10.1377C207.146 10.1377 207.438 10.0898 207.688 9.99414C207.944 9.89388 208.144 9.75944 208.29 9.59082C208.436 9.41764 208.509 9.2194 208.509 8.99609V8.98242C208.509 8.73177 208.409 8.51986 208.208 8.34668C208.007 8.16895 207.679 8.02539 207.224 7.91602L206.082 7.64258C205.622 7.5332 205.243 7.39193 204.947 7.21875C204.651 7.04102 204.432 6.82454 204.291 6.56934C204.15 6.30957 204.079 6.00423 204.079 5.65332V5.64648C204.079 5.23633 204.198 4.86947 204.435 4.5459C204.676 4.22233 205.004 3.96712 205.419 3.78027C205.834 3.59342 206.301 3.5 206.82 3.5C207.335 3.5 207.791 3.58203 208.188 3.74609C208.589 3.9056 208.91 4.13346 209.151 4.42969C209.397 4.72591 209.548 5.07454 209.603 5.47559H208.434C208.356 5.18392 208.178 4.94694 207.9 4.76465C207.622 4.58236 207.26 4.49121 206.813 4.49121C206.522 4.49121 206.262 4.53906 206.034 4.63477C205.806 4.72591 205.626 4.85352 205.494 5.01758C205.362 5.18164 205.296 5.37305 205.296 5.5918V5.60547C205.296 5.76953 205.339 5.91536 205.426 6.04297C205.512 6.17057 205.647 6.28223 205.829 6.37793C206.011 6.47363 206.246 6.55794 206.533 6.63086L207.668 6.9043C208.361 7.07292 208.876 7.31445 209.213 7.62891C209.555 7.94336 209.726 8.36491 209.726 8.89355V8.90723C209.726 9.34473 209.596 9.7321 209.336 10.0693C209.076 10.402 208.723 10.6618 208.276 10.8486C207.834 11.0355 207.333 11.1289 206.772 11.1289Z" fill="#F8F8F8"/>
<path d="M199.252 11.1289C198.55 11.1289 197.946 10.974 197.44 10.6641C196.939 10.3542 196.552 9.91667 196.278 9.35156C196.009 8.7819 195.875 8.11198 195.875 7.3418V7.33496C195.875 6.57389 196.009 5.90625 196.278 5.33203C196.552 4.75781 196.937 4.30892 197.434 3.98535C197.93 3.66178 198.511 3.5 199.177 3.5C199.847 3.5 200.421 3.65495 200.899 3.96484C201.382 4.27474 201.752 4.70768 202.007 5.26367C202.267 5.8151 202.396 6.45768 202.396 7.19141V7.65625H196.49V6.70605H201.788L201.2 7.57422V7.10254C201.2 6.52376 201.114 6.04753 200.94 5.67383C200.767 5.30013 200.528 5.02214 200.223 4.83984C199.917 4.65299 199.566 4.55957 199.17 4.55957C198.773 4.55957 198.418 4.65755 198.104 4.85352C197.794 5.04492 197.548 5.32975 197.365 5.70801C197.183 6.08626 197.092 6.55111 197.092 7.10254V7.57422C197.092 8.09831 197.181 8.5472 197.358 8.9209C197.536 9.29004 197.789 9.57487 198.117 9.77539C198.445 9.97135 198.833 10.0693 199.279 10.0693C199.612 10.0693 199.901 10.0238 200.147 9.93262C200.394 9.84147 200.596 9.72526 200.756 9.58398C200.915 9.44271 201.027 9.29915 201.091 9.15332L201.118 9.0918H202.308L202.294 9.14648C202.23 9.39714 202.116 9.64095 201.952 9.87793C201.793 10.1104 201.585 10.3223 201.33 10.5137C201.075 10.7005 200.772 10.8509 200.421 10.9648C200.075 11.0742 199.685 11.1289 199.252 11.1289Z" fill="#F8F8F8"/>
<path d="M191.117 10.999V3.62988H192.307V4.72363H192.416C192.557 4.33626 192.797 4.03548 193.134 3.82129C193.471 3.6071 193.888 3.5 194.385 3.5C194.499 3.5 194.61 3.50684 194.72 3.52051C194.834 3.52962 194.92 3.53874 194.979 3.54785V4.70312C194.856 4.68034 194.736 4.66439 194.617 4.65527C194.503 4.6416 194.38 4.63477 194.248 4.63477C193.87 4.63477 193.535 4.70996 193.243 4.86035C192.951 5.01074 192.721 5.22038 192.553 5.48926C192.389 5.75814 192.307 6.07259 192.307 6.43262V10.999H191.117Z" fill="#F8F8F8"/>
<path d="M182.382 11.1289C181.835 11.1289 181.352 11.0469 180.933 10.8828C180.513 10.7142 180.176 10.4795 179.921 10.1787C179.67 9.87793 179.522 9.52474 179.477 9.11914H180.693C180.794 9.42448 180.99 9.67057 181.281 9.85742C181.573 10.0443 181.953 10.1377 182.423 10.1377C182.756 10.1377 183.047 10.0898 183.298 9.99414C183.553 9.89388 183.754 9.75944 183.899 9.59082C184.045 9.41764 184.118 9.2194 184.118 8.99609V8.98242C184.118 8.73177 184.018 8.51986 183.817 8.34668C183.617 8.16895 183.289 8.02539 182.833 7.91602L181.691 7.64258C181.231 7.5332 180.853 7.39193 180.557 7.21875C180.26 7.04102 180.042 6.82454 179.9 6.56934C179.759 6.30957 179.688 6.00423 179.688 5.65332V5.64648C179.688 5.23633 179.807 4.86947 180.044 4.5459C180.285 4.22233 180.614 3.96712 181.028 3.78027C181.443 3.59342 181.91 3.5 182.43 3.5C182.945 3.5 183.4 3.58203 183.797 3.74609C184.198 3.9056 184.519 4.13346 184.761 4.42969C185.007 4.72591 185.157 5.07454 185.212 5.47559H184.043C183.965 5.18392 183.788 4.94694 183.51 4.76465C183.232 4.58236 182.869 4.49121 182.423 4.49121C182.131 4.49121 181.871 4.53906 181.644 4.63477C181.416 4.72591 181.236 4.85352 181.104 5.01758C180.971 5.18164 180.905 5.37305 180.905 5.5918V5.60547C180.905 5.76953 180.949 5.91536 181.035 6.04297C181.122 6.17057 181.256 6.28223 181.438 6.37793C181.621 6.47363 181.855 6.55794 182.143 6.63086L183.277 6.9043C183.97 7.07292 184.485 7.31445 184.822 7.62891C185.164 7.94336 185.335 8.36491 185.335 8.89355V8.90723C185.335 9.34473 185.205 9.7321 184.945 10.0693C184.686 10.402 184.332 10.6618 183.886 10.8486C183.444 11.0355 182.942 11.1289 182.382 11.1289Z" fill="#F8F8F8"/>
<path d="M177.522 11.0537C176.766 11.0537 176.217 10.901 175.875 10.5957C175.538 10.2904 175.369 9.78678 175.369 9.08496V4.61426H174.207V3.62988H175.369V1.72266H176.6V3.62988H178.213V4.61426H176.6V8.78418C176.6 9.21712 176.682 9.5293 176.846 9.7207C177.01 9.90755 177.283 10.001 177.666 10.001C177.771 10.001 177.86 9.9987 177.933 9.99414C178.01 9.98958 178.104 9.98275 178.213 9.97363V10.9854C178.099 11.0036 177.985 11.0195 177.871 11.0332C177.757 11.0469 177.641 11.0537 177.522 11.0537Z" fill="#F8F8F8"/>
<path d="M166.727 11V0.705078H167.916V4.73828H168.025C168.212 4.34635 168.481 4.04329 168.832 3.8291C169.183 3.61035 169.63 3.50098 170.172 3.50098C170.723 3.50098 171.19 3.60807 171.573 3.82227C171.956 4.0319 172.248 4.33952 172.448 4.74512C172.649 5.15072 172.749 5.64518 172.749 6.22852V11H171.56V6.51562C171.56 5.85026 171.418 5.35807 171.136 5.03906C170.858 4.71549 170.425 4.55371 169.837 4.55371C169.445 4.55371 169.105 4.63802 168.818 4.80664C168.531 4.97526 168.308 5.21452 168.148 5.52441C167.993 5.83431 167.916 6.20573 167.916 6.63867V11H166.727Z" fill="#F8F8F8"/>
<path d="M161.162 13.5967C160.57 13.5967 160.052 13.5124 159.61 13.3438C159.168 13.1797 158.815 12.945 158.551 12.6396C158.291 12.3389 158.129 11.988 158.065 11.5869L158.079 11.5801H159.31L159.316 11.5869C159.38 11.8649 159.572 12.0928 159.891 12.2705C160.21 12.4528 160.633 12.5439 161.162 12.5439C161.823 12.5439 162.338 12.3936 162.707 12.0928C163.081 11.7965 163.268 11.3773 163.268 10.835V9.34473H163.158C163.003 9.61361 162.81 9.84375 162.577 10.0352C162.345 10.2266 162.083 10.3724 161.791 10.4727C161.499 10.5684 161.185 10.6162 160.848 10.6162C160.214 10.6162 159.665 10.4658 159.2 10.165C158.74 9.8597 158.384 9.44043 158.134 8.90723C157.883 8.37402 157.758 7.76335 157.758 7.0752V7.06152C157.758 6.37337 157.883 5.7627 158.134 5.22949C158.389 4.69173 158.749 4.27018 159.214 3.96484C159.679 3.65495 160.232 3.5 160.875 3.5C161.221 3.5 161.54 3.55469 161.832 3.66406C162.124 3.77344 162.381 3.92839 162.604 4.12891C162.832 4.32943 163.021 4.56868 163.172 4.84668H163.254V3.62988H164.443V10.8965C164.443 11.4434 164.309 11.9196 164.04 12.3252C163.776 12.7308 163.397 13.043 162.905 13.2617C162.413 13.485 161.832 13.5967 161.162 13.5967ZM161.107 9.56348C161.563 9.56348 161.953 9.45866 162.276 9.24902C162.604 9.03483 162.855 8.74089 163.028 8.36719C163.206 7.99349 163.295 7.56283 163.295 7.0752V7.06152C163.295 6.57389 163.206 6.14095 163.028 5.7627C162.855 5.38444 162.604 5.08822 162.276 4.87402C161.953 4.65983 161.563 4.55273 161.107 4.55273C160.652 4.55273 160.264 4.65983 159.945 4.87402C159.631 5.08822 159.389 5.38444 159.221 5.7627C159.057 6.14095 158.975 6.57389 158.975 7.06152V7.0752C158.975 7.56283 159.057 7.99349 159.221 8.36719C159.389 8.74089 159.631 9.03483 159.945 9.24902C160.264 9.45866 160.652 9.56348 161.107 9.56348Z" fill="#F8F8F8"/>
<path d="M154.695 11V3.63086H155.885V11H154.695ZM155.297 2.20898C155.074 2.20898 154.88 2.12923 154.716 1.96973C154.556 1.80566 154.477 1.61198 154.477 1.38867C154.477 1.16081 154.556 0.967122 154.716 0.807617C154.88 0.648112 155.074 0.568359 155.297 0.568359C155.525 0.568359 155.718 0.648112 155.878 0.807617C156.037 0.967122 156.117 1.16081 156.117 1.38867C156.117 1.61198 156.037 1.80566 155.878 1.96973C155.718 2.12923 155.525 2.20898 155.297 2.20898Z" fill="#F8F8F8"/>
<path d="M149.336 10.999V3.62988H150.525V4.72363H150.635C150.776 4.33626 151.015 4.03548 151.353 3.82129C151.69 3.6071 152.107 3.5 152.604 3.5C152.717 3.5 152.829 3.50684 152.938 3.52051C153.052 3.52962 153.139 3.53874 153.198 3.54785V4.70312C153.075 4.68034 152.954 4.66439 152.836 4.65527C152.722 4.6416 152.599 4.63477 152.467 4.63477C152.089 4.63477 151.754 4.70996 151.462 4.86035C151.17 5.01074 150.94 5.22038 150.771 5.48926C150.607 5.75814 150.525 6.07259 150.525 6.43262V10.999H149.336Z" fill="#F8F8F8"/>
<path d="M141.93 11V0.705078H143.119V11H141.93Z" fill="#F8F8F8"/>
<path d="M138.387 11V0.705078H139.576V11H138.387Z" fill="#F8F8F8"/>
<path d="M128.25 11.001L131.887 1.13672H132.83V2.72949H132.44L129.542 11.001H128.25ZM129.897 8.17773L130.28 7.13184H134.737L135.12 8.17773H129.897ZM135.448 11.001L132.55 2.72949V1.13672H133.104L136.74 11.001H135.448Z" fill="#F8F8F8"/>
<path d="M121.764 11.0684C121.522 11.0684 121.312 10.9818 121.135 10.8086C120.962 10.6309 120.875 10.4212 120.875 10.1797C120.875 9.93359 120.962 9.72396 121.135 9.55078C121.312 9.3776 121.522 9.29102 121.764 9.29102C122.01 9.29102 122.219 9.3776 122.393 9.55078C122.566 9.72396 122.652 9.93359 122.652 10.1797C122.652 10.4212 122.566 10.6309 122.393 10.8086C122.219 10.9818 122.01 11.0684 121.764 11.0684Z" fill="#F8F8F8"/>
<path d="M115.97 11.1289C115.282 11.1289 114.685 10.9717 114.179 10.6572C113.673 10.3428 113.281 9.89844 113.003 9.32422C112.725 8.75 112.586 8.07324 112.586 7.29395V7.28027C112.586 6.51465 112.723 5.84928 112.996 5.28418C113.274 4.71908 113.666 4.28158 114.172 3.97168C114.678 3.65723 115.275 3.5 115.963 3.5C116.56 3.5 117.075 3.60482 117.508 3.81445C117.941 4.02409 118.287 4.30664 118.547 4.66211C118.807 5.01302 118.973 5.40723 119.046 5.84473L119.053 5.88574H117.87L117.863 5.86523C117.772 5.50065 117.565 5.19076 117.241 4.93555C116.918 4.68034 116.492 4.55273 115.963 4.55273C115.521 4.55273 115.138 4.66439 114.814 4.8877C114.491 5.111 114.24 5.42773 114.062 5.83789C113.889 6.24349 113.803 6.72428 113.803 7.28027V7.29395C113.803 7.85905 113.892 8.35124 114.069 8.77051C114.247 9.18522 114.498 9.50651 114.821 9.73438C115.145 9.96224 115.525 10.0762 115.963 10.0762C116.46 10.0762 116.865 9.96908 117.18 9.75488C117.494 9.54069 117.72 9.22852 117.856 8.81836L117.87 8.77734L119.046 8.77051L119.032 8.8457C118.932 9.28776 118.754 9.68197 118.499 10.0283C118.244 10.3701 117.907 10.639 117.487 10.835C117.068 11.0309 116.562 11.1289 115.97 11.1289Z" fill="#F8F8F8"/>
<path d="M104.781 10.999V3.62988H105.971V4.7373H106.08C106.267 4.34538 106.536 4.04232 106.887 3.82812C107.238 3.60938 107.684 3.5 108.227 3.5C109.056 3.5 109.692 3.73698 110.134 4.21094C110.58 4.68034 110.804 5.35254 110.804 6.22754V10.999H109.614V6.51465C109.614 5.84928 109.473 5.3571 109.19 5.03809C108.912 4.71452 108.479 4.55273 107.892 4.55273C107.5 4.55273 107.16 4.63704 106.873 4.80566C106.586 4.97428 106.363 5.21354 106.203 5.52344C106.048 5.83333 105.971 6.20475 105.971 6.6377V10.999H104.781Z" fill="#F8F8F8"/>
<path d="M101.188 11.001V1.13672H102.418V11.001H101.188Z" fill="#F8F8F8"/>
<path d="M91.8545 11.1289C91.1572 11.1289 90.5534 10.9762 90.043 10.6709C89.5371 10.361 89.1452 9.92122 88.8672 9.35156C88.5938 8.7819 88.457 8.10514 88.457 7.32129V7.30762C88.457 6.51921 88.5938 5.84017 88.8672 5.27051C89.1452 4.70085 89.5371 4.26335 90.043 3.95801C90.5534 3.65267 91.1572 3.5 91.8545 3.5C92.5563 3.5 93.1602 3.65267 93.666 3.95801C94.1719 4.26335 94.5615 4.70085 94.835 5.27051C95.113 5.84017 95.252 6.51921 95.252 7.30762V7.32129C95.252 8.10514 95.113 8.7819 94.835 9.35156C94.5615 9.92122 94.1719 10.361 93.666 10.6709C93.1602 10.9762 92.5563 11.1289 91.8545 11.1289ZM91.8545 10.0762C92.3193 10.0762 92.7135 9.9668 93.0371 9.74805C93.3607 9.5293 93.6068 9.21484 93.7754 8.80469C93.9486 8.39453 94.0352 7.90007 94.0352 7.32129V7.30762C94.0352 6.72428 93.9486 6.22754 93.7754 5.81738C93.6068 5.40723 93.3607 5.09505 93.0371 4.88086C92.7135 4.66211 92.3193 4.55273 91.8545 4.55273C91.3896 4.55273 90.9954 4.66211 90.6719 4.88086C90.3483 5.09505 90.0999 5.40723 89.9268 5.81738C89.7581 6.22754 89.6738 6.72428 89.6738 7.30762V7.32129C89.6738 7.90007 89.7581 8.39453 89.9268 8.80469C90.0999 9.21484 90.3483 9.5293 90.6719 9.74805C90.9954 9.9668 91.3896 10.0762 91.8545 10.0762Z" fill="#F8F8F8"/>
<path d="M83.6992 10.999V3.62988H84.8887V4.72363H84.998C85.1393 4.33626 85.3786 4.03548 85.7158 3.82129C86.0531 3.6071 86.4701 3.5 86.9668 3.5C87.0807 3.5 87.1924 3.50684 87.3018 3.52051C87.4157 3.52962 87.5023 3.53874 87.5615 3.54785V4.70312C87.4385 4.68034 87.3177 4.66439 87.1992 4.65527C87.0853 4.6416 86.9622 4.63477 86.8301 4.63477C86.4518 4.63477 86.1169 4.70996 85.8252 4.86035C85.5335 5.01074 85.3034 5.22038 85.1348 5.48926C84.9707 5.75814 84.8887 6.07259 84.8887 6.43262V10.999H83.6992Z" fill="#F8F8F8"/>
<path d="M75.5645 7.48047V6.38672H78.3535C79.0599 6.38672 79.6068 6.20443 79.9941 5.83984C80.3815 5.4707 80.5752 4.96257 80.5752 4.31543V4.30176C80.5752 3.65007 80.3815 3.14193 79.9941 2.77734C79.6068 2.41276 79.0599 2.23047 78.3535 2.23047H75.5645V1.13672H78.668C79.2878 1.13672 79.8346 1.26888 80.3086 1.5332C80.7826 1.79753 81.154 2.16667 81.4229 2.64062C81.6963 3.11458 81.833 3.66374 81.833 4.28809V4.30176C81.833 4.92611 81.6963 5.47754 81.4229 5.95605C81.154 6.43457 80.7826 6.80827 80.3086 7.07715C79.8346 7.34603 79.2878 7.48047 78.668 7.48047H75.5645ZM74.9492 11.001V1.13672H76.1797V11.001H74.9492Z" fill="#F8F8F8"/>
<path d="M69.5537 11.1289C68.8564 11.1289 68.2526 10.9762 67.7422 10.6709C67.2363 10.361 66.8444 9.92122 66.5664 9.35156C66.293 8.7819 66.1562 8.10514 66.1562 7.32129V7.30762C66.1562 6.51921 66.293 5.84017 66.5664 5.27051C66.8444 4.70085 67.2363 4.26335 67.7422 3.95801C68.2526 3.65267 68.8564 3.5 69.5537 3.5C70.2555 3.5 70.8594 3.65267 71.3652 3.95801C71.8711 4.26335 72.2607 4.70085 72.5342 5.27051C72.8122 5.84017 72.9512 6.51921 72.9512 7.30762V7.32129C72.9512 8.10514 72.8122 8.7819 72.5342 9.35156C72.2607 9.92122 71.8711 10.361 71.3652 10.6709C70.8594 10.9762 70.2555 11.1289 69.5537 11.1289ZM69.5537 10.0762C70.0186 10.0762 70.4128 9.9668 70.7363 9.74805C71.0599 9.5293 71.306 9.21484 71.4746 8.80469C71.6478 8.39453 71.7344 7.90007 71.7344 7.32129V7.30762C71.7344 6.72428 71.6478 6.22754 71.4746 5.81738C71.306 5.40723 71.0599 5.09505 70.7363 4.88086C70.4128 4.66211 70.0186 4.55273 69.5537 4.55273C69.0889 4.55273 68.6947 4.66211 68.3711 4.88086C68.0475 5.09505 67.7992 5.40723 67.626 5.81738C67.4574 6.22754 67.373 6.72428 67.373 7.30762V7.32129C67.373 7.90007 67.4574 8.39453 67.626 8.80469C67.7992 9.21484 68.0475 9.5293 68.3711 9.74805C68.6947 9.9668 69.0889 10.0762 69.5537 10.0762Z" fill="#F8F8F8"/>
<path d="M60.3066 11.2314C59.623 11.2314 59.0055 11.1107 58.4541 10.8691C57.9072 10.6276 57.4378 10.2812 57.0459 9.83008C56.6585 9.37891 56.36 8.83659 56.1504 8.20312C55.9408 7.56966 55.8359 6.85872 55.8359 6.07031V6.05664C55.8359 5.01758 56.0205 4.11296 56.3896 3.34277C56.7588 2.56803 57.2783 1.96875 57.9482 1.54492C58.6227 1.11654 59.4089 0.902344 60.3066 0.902344C61.0358 0.902344 61.6852 1.03223 62.2549 1.29199C62.8291 1.5472 63.3008 1.90723 63.6699 2.37207C64.0436 2.83691 64.2943 3.38151 64.4219 4.00586L64.4355 4.07422H63.1914L63.1709 4.00586C62.9704 3.36784 62.6263 2.88021 62.1387 2.54297C61.651 2.20573 61.0404 2.03711 60.3066 2.03711C59.6549 2.03711 59.0876 2.20345 58.6045 2.53613C58.126 2.86426 57.7546 3.3291 57.4902 3.93066C57.2259 4.53223 57.0938 5.24089 57.0938 6.05664V6.07031C57.0938 6.6901 57.1667 7.24837 57.3125 7.74512C57.4629 8.24186 57.6771 8.66569 57.9551 9.0166C58.2376 9.36296 58.5771 9.62956 58.9736 9.81641C59.3701 10.0033 59.8167 10.0967 60.3135 10.0967C60.9014 10.0967 61.4163 9.98047 61.8584 9.74805C62.305 9.51107 62.6514 9.18294 62.8975 8.76367C63.1436 8.3444 63.2666 7.85677 63.2666 7.30078V7.06152H60.498V5.98145H64.4971V7.18457C64.4971 7.79069 64.3968 8.34212 64.1963 8.83887C64.0003 9.33561 63.7178 9.764 63.3486 10.124C62.9795 10.4795 62.5374 10.7529 62.0225 10.9443C61.5075 11.1357 60.9355 11.2314 60.3066 11.2314Z" fill="#F8F8F8"/>
<path d="M46.7041 11.165C46.0251 11.165 45.4326 11.0488 44.9268 10.8164C44.4209 10.584 44.0199 10.265 43.7236 9.85938C43.432 9.45378 43.2633 8.99121 43.2178 8.47168L43.2109 8.38965H44.3936L44.4004 8.45801C44.4323 8.78158 44.5462 9.06641 44.7422 9.3125C44.9427 9.55859 45.2093 9.75228 45.542 9.89355C45.8792 10.0303 46.2666 10.0986 46.7041 10.0986C47.137 10.0986 47.5153 10.0234 47.8389 9.87305C48.167 9.72266 48.4222 9.5153 48.6045 9.25098C48.7868 8.9821 48.8779 8.67448 48.8779 8.32812V8.31445C48.8779 7.70833 48.6751 7.24349 48.2695 6.91992C47.8685 6.5918 47.3216 6.42773 46.6289 6.42773H45.3916V5.38867H46.5742C46.9661 5.38867 47.3125 5.31576 47.6133 5.16992C47.9141 5.01953 48.1488 4.81673 48.3174 4.56152C48.486 4.30176 48.5703 4.00781 48.5703 3.67969V3.66602C48.5703 3.31966 48.4974 3.02572 48.3516 2.78418C48.2057 2.54264 47.9915 2.35807 47.709 2.23047C47.431 2.10286 47.0915 2.03906 46.6904 2.03906C46.3031 2.03906 45.9567 2.10514 45.6514 2.2373C45.3506 2.36491 45.109 2.54948 44.9268 2.79102C44.7445 3.03255 44.6351 3.31966 44.5986 3.65234L44.5918 3.7207H43.4092L43.416 3.65234C43.4707 3.11458 43.6393 2.64518 43.9219 2.24414C44.209 1.8431 44.5872 1.53092 45.0566 1.30762C45.5306 1.08431 46.0752 0.972656 46.6904 0.972656C47.3193 0.972656 47.8662 1.08203 48.3311 1.30078C48.8005 1.51497 49.1628 1.81348 49.418 2.19629C49.6777 2.57454 49.8076 3.01432 49.8076 3.51562V3.5293C49.8076 3.9349 49.7188 4.29492 49.541 4.60938C49.3633 4.92383 49.1172 5.18587 48.8027 5.39551C48.4883 5.60514 48.126 5.75326 47.7158 5.83984V5.86719C48.4359 5.92643 49.0169 6.17025 49.459 6.59863C49.9056 7.02246 50.1289 7.58529 50.1289 8.28711V8.30078C50.1289 8.84766 49.9808 9.33757 49.6846 9.77051C49.3883 10.2035 48.9827 10.5452 48.4678 10.7959C47.9528 11.042 47.3649 11.165 46.7041 11.165Z" fill="#F8F8F8"/>
<path d="M34.8965 10.999V10.1514L38.2324 6.54199C38.6517 6.08626 38.9798 5.71029 39.2168 5.41406C39.4538 5.11328 39.6201 4.84212 39.7158 4.60059C39.8115 4.35905 39.8594 4.09473 39.8594 3.80762V3.79395C39.8594 3.44759 39.7842 3.1377 39.6338 2.86426C39.4834 2.59082 39.2692 2.37435 38.9912 2.21484C38.7132 2.05534 38.3805 1.97559 37.9932 1.97559C37.6012 1.97559 37.2572 2.05762 36.9609 2.22168C36.6647 2.38118 36.4346 2.60677 36.2705 2.89844C36.1064 3.18555 36.0244 3.52279 36.0244 3.91016L36.0176 3.92383L34.8418 3.91699L34.8281 3.91016C34.8327 3.32682 34.974 2.80957 35.252 2.3584C35.5299 1.90267 35.9128 1.5472 36.4004 1.29199C36.888 1.03223 37.4463 0.902344 38.0752 0.902344C38.6494 0.902344 39.1667 1.02311 39.627 1.26465C40.0872 1.50163 40.4495 1.82747 40.7139 2.24219C40.9827 2.6569 41.1172 3.13086 41.1172 3.66406V3.67773C41.1172 4.05143 41.0511 4.41146 40.9189 4.75781C40.7913 5.10417 40.5635 5.48926 40.2354 5.91309C39.9072 6.33236 39.4447 6.84961 38.8477 7.46484L36.2979 10.0967L36.6055 9.5293V10.0967L36.3047 9.8916H41.2812V10.999H34.8965Z" fill="#F8F8F8"/>
<path d="M29.3818 11.2314C28.6527 11.2314 28.0283 11.0218 27.5088 10.6025C26.9938 10.1833 26.5973 9.58854 26.3193 8.81836C26.0413 8.04362 25.9023 7.1276 25.9023 6.07031V6.05664C25.9023 4.99935 26.0413 4.08561 26.3193 3.31543C26.5973 2.54525 26.9938 1.95052 27.5088 1.53125C28.0283 1.11198 28.6527 0.902344 29.3818 0.902344C30.111 0.902344 30.7354 1.11198 31.2549 1.53125C31.7744 1.95052 32.1732 2.54525 32.4512 3.31543C32.7337 4.08561 32.875 4.99935 32.875 6.05664V6.07031C32.875 7.1276 32.7337 8.04362 32.4512 8.81836C32.1732 9.58854 31.7744 10.1833 31.2549 10.6025C30.7354 11.0218 30.111 11.2314 29.3818 11.2314ZM29.3818 10.1582C29.8558 10.1582 30.2591 9.99186 30.5918 9.65918C30.929 9.3265 31.1865 8.85482 31.3643 8.24414C31.5465 7.63346 31.6377 6.90885 31.6377 6.07031V6.05664C31.6377 5.2181 31.5465 4.49577 31.3643 3.88965C31.1865 3.27897 30.929 2.80957 30.5918 2.48145C30.2591 2.14876 29.8558 1.98242 29.3818 1.98242C28.9124 1.98242 28.5091 2.14876 28.1719 2.48145C27.8392 2.80957 27.584 3.27897 27.4062 3.88965C27.2285 4.49577 27.1396 5.2181 27.1396 6.05664V6.07031C27.1396 6.90885 27.2285 7.63346 27.4062 8.24414C27.584 8.85482 27.8392 9.3265 28.1719 9.65918C28.5091 9.99186 28.9124 10.1582 29.3818 10.1582Z" fill="#F8F8F8"/>
<path d="M17.6309 10.999V10.1514L20.9668 6.54199C21.3861 6.08626 21.7142 5.71029 21.9512 5.41406C22.1882 5.11328 22.3545 4.84212 22.4502 4.60059C22.5459 4.35905 22.5938 4.09473 22.5938 3.80762V3.79395C22.5938 3.44759 22.5186 3.1377 22.3682 2.86426C22.2178 2.59082 22.0036 2.37435 21.7256 2.21484C21.4476 2.05534 21.1149 1.97559 20.7275 1.97559C20.3356 1.97559 19.9915 2.05762 19.6953 2.22168C19.3991 2.38118 19.1689 2.60677 19.0049 2.89844C18.8408 3.18555 18.7588 3.52279 18.7588 3.91016L18.752 3.92383L17.5762 3.91699L17.5625 3.91016C17.5671 3.32682 17.7083 2.80957 17.9863 2.3584C18.2643 1.90267 18.6471 1.5472 19.1348 1.29199C19.6224 1.03223 20.1807 0.902344 20.8096 0.902344C21.3838 0.902344 21.901 1.02311 22.3613 1.26465C22.8216 1.50163 23.1839 1.82747 23.4482 2.24219C23.7171 2.6569 23.8516 3.13086 23.8516 3.66406V3.67773C23.8516 4.05143 23.7855 4.41146 23.6533 4.75781C23.5257 5.10417 23.2979 5.48926 22.9697 5.91309C22.6416 6.33236 22.179 6.84961 21.582 7.46484L19.0322 10.0967L19.3398 9.5293V10.0967L19.0391 9.8916H24.0156V10.999H17.6309Z" fill="#F8F8F8"/>
<path d="M6.4209 8.59277C5.70085 8.59277 5.13118 8.36719 4.71191 7.91602C4.2972 7.46484 4.08984 6.84961 4.08984 6.07031V6.06348C4.08984 5.28418 4.2972 4.66895 4.71191 4.21777C5.13118 3.7666 5.69857 3.54102 6.41406 3.54102C6.80143 3.54102 7.15007 3.61621 7.45996 3.7666C7.76986 3.91699 8.02279 4.12435 8.21875 4.38867C8.41471 4.64844 8.53092 4.94922 8.56738 5.29102V5.33203H7.64453V5.31152C7.58529 5.04264 7.44401 4.82617 7.2207 4.66211C6.9974 4.49349 6.72852 4.40918 6.41406 4.40918C5.99479 4.40918 5.66211 4.55729 5.41602 4.85352C5.17448 5.14518 5.05371 5.5485 5.05371 6.06348V6.07031C5.05371 6.58073 5.17448 6.98405 5.41602 7.28027C5.66211 7.5765 5.99707 7.72461 6.4209 7.72461C6.73535 7.72461 7.00195 7.64714 7.2207 7.49219C7.43945 7.33724 7.57845 7.13216 7.6377 6.87695L7.64453 6.84961H8.56738V6.89062C8.52637 7.22786 8.41016 7.52409 8.21875 7.7793C8.02734 8.03451 7.77669 8.23503 7.4668 8.38086C7.16146 8.52214 6.81283 8.59277 6.4209 8.59277ZM10.8096 6.04297C10.8096 5.41862 10.6956 4.83757 10.4678 4.2998C10.2399 3.75749 9.92318 3.28353 9.51758 2.87793C9.11198 2.47233 8.63802 2.1556 8.0957 1.92773C7.55794 1.69987 6.97689 1.58594 6.35254 1.58594H6.30469C5.68034 1.58594 5.09701 1.69987 4.55469 1.92773C4.01693 2.1556 3.54525 2.47233 3.13965 2.87793C2.73405 3.28353 2.41732 3.75749 2.18945 4.2998C1.96159 4.83757 1.84766 5.41862 1.84766 6.04297V6.09082C1.84766 6.71517 1.96159 7.2985 2.18945 7.84082C2.41732 8.37858 2.73405 8.85026 3.13965 9.25586C3.54525 9.66146 4.01693 9.97819 4.55469 10.2061C5.09701 10.4339 5.68034 10.5479 6.30469 10.5479H6.35254C6.97689 10.5479 7.55794 10.4339 8.0957 10.2061C8.63802 9.97819 9.11198 9.66146 9.51758 9.25586C9.92318 8.85026 10.2399 8.37858 10.4678 7.84082C10.6956 7.2985 10.8096 6.71517 10.8096 6.09082V6.04297ZM11.7119 6.04297V6.09082C11.7119 6.84277 11.5752 7.54232 11.3018 8.18945C11.0283 8.83659 10.6455 9.40625 10.1533 9.89844C9.66569 10.3861 9.09831 10.7666 8.45117 11.04C7.80404 11.3135 7.10449 11.4502 6.35254 11.4502H6.30469C5.55273 11.4502 4.85319 11.3135 4.20605 11.04C3.55892 10.7666 2.98926 10.3861 2.49707 9.89844C2.00944 9.40625 1.62891 8.83659 1.35547 8.18945C1.08203 7.54232 0.945312 6.84277 0.945312 6.09082V6.04297C0.945312 5.29102 1.08203 4.59147 1.35547 3.94434C1.62891 3.2972 2.00944 2.72982 2.49707 2.24219C2.98926 1.75 3.55892 1.36719 4.20605 1.09375C4.85319 0.820312 5.55273 0.683594 6.30469 0.683594H6.35254C7.10449 0.683594 7.80404 0.820312 8.45117 1.09375C9.09831 1.36719 9.66569 1.75 10.1533 2.24219C10.6455 2.72982 11.0283 3.2972 11.3018 3.94434C11.5752 4.59147 11.7119 5.29102 11.7119 6.04297Z" fill="#F8F8F8"/>
</svg>
