<svg width="1840" height="881" viewBox="0 0 1840 881" fill="none" xmlns="http://www.w3.org/2000/svg">
<path d="M1790.94 879.176C1790.18 879.176 1789.49 879.072 1788.87 878.865C1788.25 878.658 1787.72 878.361 1787.28 877.975C1786.84 877.584 1786.5 877.117 1786.26 876.574C1786.02 876.027 1785.91 875.42 1785.91 874.752V874.74C1785.91 873.861 1786.11 873.094 1786.53 872.438C1786.95 871.781 1787.53 871.273 1788.29 870.914C1789.04 870.551 1789.93 870.369 1790.94 870.369C1791.75 870.369 1792.48 870.484 1793.13 870.715C1793.78 870.941 1794.33 871.264 1794.76 871.682C1795.19 872.096 1795.49 872.584 1795.65 873.146L1795.67 873.211H1794.39L1794.37 873.158C1794.13 872.623 1793.71 872.207 1793.11 871.91C1792.52 871.609 1791.8 871.459 1790.95 871.459C1790.18 871.459 1789.51 871.594 1788.95 871.863C1788.38 872.129 1787.95 872.508 1787.63 873C1787.33 873.488 1787.17 874.068 1787.17 874.74V874.752C1787.17 875.26 1787.26 875.721 1787.44 876.135C1787.61 876.545 1787.87 876.896 1788.2 877.189C1788.53 877.479 1788.93 877.701 1789.39 877.857C1789.86 878.014 1790.38 878.092 1790.96 878.092C1791.62 878.092 1792.21 877.998 1792.71 877.811C1793.21 877.623 1793.62 877.354 1793.92 877.002C1794.22 876.646 1794.41 876.225 1794.48 875.736V875.643H1790.99V874.658H1795.72V875.309C1795.72 875.887 1795.61 876.414 1795.38 876.891C1795.16 877.363 1794.84 877.771 1794.41 878.115C1793.99 878.459 1793.49 878.723 1792.9 878.906C1792.32 879.086 1791.66 879.176 1790.94 879.176ZM1802.4 879.176C1801.37 879.176 1800.48 878.996 1799.72 878.637C1798.96 878.277 1798.38 877.768 1797.96 877.107C1797.55 876.447 1797.34 875.67 1797.34 874.775V874.764C1797.34 873.869 1797.55 873.094 1797.96 872.438C1798.38 871.777 1798.97 871.268 1799.73 870.908C1800.49 870.549 1801.38 870.369 1802.4 870.369C1803.42 870.369 1804.31 870.549 1805.07 870.908C1805.83 871.268 1806.42 871.777 1806.83 872.438C1807.25 873.094 1807.46 873.869 1807.46 874.764V874.775C1807.46 875.67 1807.25 876.447 1806.83 877.107C1806.42 877.768 1805.83 878.277 1805.07 878.637C1804.31 878.996 1803.42 879.176 1802.4 879.176ZM1802.4 878.086C1803.17 878.086 1803.83 877.951 1804.4 877.682C1804.97 877.408 1805.41 877.023 1805.72 876.527C1806.04 876.027 1806.19 875.443 1806.19 874.775V874.764C1806.19 874.092 1806.04 873.508 1805.72 873.012C1805.41 872.516 1804.97 872.133 1804.4 871.863C1803.83 871.594 1803.17 871.459 1802.4 871.459C1801.63 871.459 1800.97 871.594 1800.4 871.863C1799.83 872.133 1799.39 872.516 1799.08 873.012C1798.77 873.508 1798.61 874.092 1798.61 874.764V874.775C1798.61 875.443 1798.76 876.027 1799.07 876.527C1799.38 877.023 1799.82 877.408 1800.39 877.682C1800.96 877.951 1801.63 878.086 1802.4 878.086ZM1810.01 876.053V875.016H1814.12C1814.76 875.016 1815.25 874.867 1815.6 874.57C1815.94 874.27 1816.11 873.848 1816.11 873.305V873.293C1816.11 872.754 1815.94 872.336 1815.6 872.039C1815.25 871.738 1814.76 871.588 1814.12 871.588H1810.01V870.545H1814.31C1814.93 870.545 1815.47 870.658 1815.93 870.885C1816.39 871.111 1816.74 871.43 1816.99 871.84C1817.24 872.246 1817.37 872.727 1817.37 873.281V873.293C1817.37 873.844 1817.24 874.328 1816.99 874.746C1816.74 875.16 1816.38 875.482 1815.92 875.713C1815.47 875.939 1814.93 876.053 1814.31 876.053H1810.01ZM1809.39 879V870.545H1810.63V879H1809.39ZM1819.21 879V870.545H1824.45C1825.05 870.545 1825.57 870.65 1826 870.861C1826.44 871.068 1826.78 871.361 1827.02 871.74C1827.25 872.119 1827.37 872.568 1827.37 873.088V873.1C1827.37 873.713 1827.21 874.232 1826.89 874.658C1826.56 875.08 1826.1 875.379 1825.5 875.555L1827.64 879H1826.18L1824.19 875.719C1824.18 875.719 1824.17 875.719 1824.16 875.719C1824.14 875.719 1824.13 875.719 1824.12 875.719H1820.45V879H1819.21ZM1820.45 874.705H1824.37C1824.92 874.705 1825.35 874.57 1825.65 874.301C1825.95 874.027 1826.1 873.641 1826.1 873.141V873.129C1826.1 872.648 1825.94 872.271 1825.63 871.998C1825.31 871.725 1824.88 871.588 1824.33 871.588H1820.45V874.705ZM1834.15 879.176C1833.12 879.176 1832.23 878.996 1831.47 878.637C1830.71 878.277 1830.12 877.768 1829.71 877.107C1829.3 876.447 1829.09 875.67 1829.09 874.775V874.764C1829.09 873.869 1829.3 873.094 1829.71 872.438C1830.13 871.777 1830.72 871.268 1831.47 870.908C1832.23 870.549 1833.12 870.369 1834.15 870.369C1835.17 870.369 1836.05 870.549 1836.81 870.908C1837.57 871.268 1838.16 871.777 1838.58 872.438C1838.99 873.094 1839.2 873.869 1839.2 874.764V874.775C1839.2 875.67 1838.99 876.447 1838.58 877.107C1838.16 877.768 1837.58 878.277 1836.82 878.637C1836.06 878.996 1835.17 879.176 1834.15 879.176ZM1834.15 878.086C1834.91 878.086 1835.58 877.951 1836.14 877.682C1836.71 877.408 1837.16 877.023 1837.47 876.527C1837.78 876.027 1837.94 875.443 1837.94 874.775V874.764C1837.94 874.092 1837.78 873.508 1837.47 873.012C1837.16 872.516 1836.71 872.133 1836.14 871.863C1835.58 871.594 1834.91 871.459 1834.15 871.459C1833.38 871.459 1832.71 871.594 1832.14 871.863C1831.58 872.133 1831.14 872.516 1830.82 873.012C1830.51 873.508 1830.36 874.092 1830.36 874.764V874.775C1830.36 875.443 1830.51 876.027 1830.82 876.527C1831.13 877.023 1831.57 877.408 1832.14 877.682C1832.71 877.951 1833.38 878.086 1834.15 878.086Z" fill="#F8F8F8"/>
<path d="M5.68359 879.188C4.69141 879.188 3.82812 879.006 3.09375 878.643C2.36328 878.279 1.79688 877.768 1.39453 877.107C0.992188 876.447 0.791016 875.668 0.791016 874.77V874.758C0.791016 873.855 0.992188 873.074 1.39453 872.414C1.79688 871.754 2.36328 871.242 3.09375 870.879C3.82812 870.516 4.69141 870.334 5.68359 870.334C6.67188 870.334 7.5293 870.516 8.25586 870.879C8.98633 871.242 9.55078 871.756 9.94922 872.42C10.3516 873.08 10.5527 873.859 10.5527 874.758V874.77C10.5527 875.668 10.3516 876.447 9.94922 877.107C9.55078 877.768 8.98633 878.279 8.25586 878.643C7.5293 879.006 6.67188 879.188 5.68359 879.188ZM5.68359 877.113C6.07031 877.113 6.40625 877.02 6.69141 876.832C6.97656 876.645 7.19531 876.375 7.34766 876.023C7.50391 875.672 7.58203 875.252 7.58203 874.764V874.752C7.58203 874.268 7.50391 873.85 7.34766 873.498C7.19531 873.146 6.97656 872.877 6.69141 872.689C6.40625 872.502 6.07031 872.408 5.68359 872.408C5.29297 872.408 4.95312 872.502 4.66406 872.689C4.37891 872.877 4.1582 873.146 4.00195 873.498C3.8457 873.85 3.76758 874.268 3.76758 874.752V874.764C3.76758 875.252 3.8457 875.672 4.00195 876.023C4.1582 876.375 4.37891 876.645 4.66406 876.832C4.95312 877.02 5.29297 877.113 5.68359 877.113ZM16.7285 879.211C15.7793 879.211 14.959 879.105 14.2676 878.895C13.5801 878.684 13.041 878.371 12.6504 877.957C12.2637 877.543 12.0488 877.029 12.0059 876.416L12 876.322H14.8125L14.8242 876.375C14.8555 876.559 14.9434 876.715 15.0879 876.844C15.2324 876.969 15.4336 877.064 15.6914 877.131C15.9531 877.197 16.2734 877.23 16.6523 877.23C17.0273 877.23 17.3418 877.195 17.5957 877.125C17.8535 877.055 18.0488 876.955 18.1816 876.826C18.3184 876.693 18.3867 876.533 18.3867 876.346V876.334C18.3867 876.064 18.2617 875.863 18.0117 875.73C17.7617 875.594 17.3828 875.525 16.875 875.525H15.0469V873.867H16.8223C17.1387 873.867 17.4023 873.838 17.6133 873.779C17.8281 873.717 17.9883 873.629 18.0938 873.516C18.2031 873.398 18.2578 873.256 18.2578 873.088V873.076C18.2578 872.904 18.1973 872.758 18.0762 872.637C17.9551 872.516 17.7754 872.426 17.5371 872.367C17.2988 872.305 17 872.273 16.6406 872.273C16.2578 872.273 15.9395 872.309 15.6855 872.379C15.4316 872.445 15.2383 872.547 15.1055 872.684C14.9766 872.816 14.9043 872.982 14.8887 873.182V873.223H12.2168L12.2285 873.117C12.2598 872.539 12.457 872.043 12.8203 871.629C13.1875 871.211 13.6973 870.891 14.3496 870.668C15.0059 870.445 15.7871 870.334 16.6934 870.334C17.6074 870.334 18.3828 870.43 19.0195 870.621C19.6562 870.809 20.1387 871.08 20.4668 871.436C20.7988 871.787 20.9648 872.215 20.9648 872.719V872.73C20.9648 873.059 20.8828 873.35 20.7188 873.604C20.5586 873.857 20.332 874.066 20.0391 874.23C19.7461 874.395 19.4102 874.512 19.0312 874.582V874.623C19.75 874.689 20.3145 874.891 20.7246 875.227C21.1348 875.562 21.3398 876.002 21.3398 876.545V876.557C21.3398 877.107 21.1562 877.582 20.7891 877.98C20.4258 878.379 19.9004 878.684 19.2129 878.895C18.5254 879.105 17.6973 879.211 16.7285 879.211ZM26.6367 879V870.545H27.873V877.934H33.4746V879H26.6367ZM35.2734 879V870.545H42.627V871.6H36.5098V874.172H42.2168V875.191H36.5098V877.945H42.627V879H35.2734ZM44.6602 879V870.545H45.8262L52.9219 877.934L51.6504 877.242H52.2305V870.545H53.4434V879H52.2773L45.1816 871.605L46.4531 872.297H45.8789V879H44.6602ZM59.748 879.176C58.8613 879.176 58.1016 879.08 57.4688 878.889C56.8359 878.697 56.3379 878.42 55.9746 878.057C55.6113 877.689 55.3945 877.252 55.3242 876.744L55.3125 876.674H56.5605L56.5723 876.738C56.6465 877.035 56.8164 877.287 57.082 877.494C57.3477 877.697 57.709 877.852 58.166 877.957C58.627 878.062 59.1816 878.115 59.8301 878.115C60.3848 878.115 60.8613 878.057 61.2598 877.939C61.6621 877.822 61.9707 877.654 62.1855 877.436C62.4004 877.213 62.5078 876.951 62.5078 876.65V876.645C62.5078 876.262 62.3555 875.971 62.0508 875.771C61.7461 875.568 61.2188 875.426 60.4688 875.344L58.4766 875.162C57.4688 875.053 56.7246 874.809 56.2441 874.43C55.7676 874.051 55.5293 873.529 55.5293 872.865V872.854C55.5293 872.35 55.6875 871.912 56.0039 871.541C56.3203 871.17 56.7676 870.883 57.3457 870.68C57.9238 870.473 58.6074 870.369 59.3965 870.369C60.2285 870.369 60.9434 870.467 61.541 870.662C62.1426 870.857 62.6172 871.139 62.9648 871.506C63.3164 871.869 63.5273 872.305 63.5977 872.812L63.6094 872.871H62.3672L62.3496 872.812C62.2559 872.508 62.0879 872.254 61.8457 872.051C61.6074 871.848 61.2852 871.693 60.8789 871.588C60.4727 871.482 59.9727 871.43 59.3789 871.43C58.8359 871.43 58.3711 871.484 57.9844 871.594C57.5977 871.703 57.3008 871.861 57.0938 872.068C56.8906 872.271 56.7891 872.52 56.7891 872.812V872.818C56.7891 873.178 56.9395 873.457 57.2402 873.656C57.5449 873.855 58.0449 873.992 58.7402 874.066L60.7441 874.248C61.4512 874.326 62.0254 874.459 62.4668 874.646C62.9121 874.834 63.2402 875.086 63.4512 875.402C63.6621 875.715 63.7676 876.1 63.7676 876.557V876.562C63.7676 877.113 63.6094 877.584 63.293 877.975C62.9766 878.365 62.5176 878.664 61.916 878.871C61.3184 879.074 60.5957 879.176 59.748 879.176ZM69.0352 879V870.545H70.5059L74.2852 877.57H74.3496L78.123 870.545H79.5996V879H78.4277V872.426H77.8887L79.1133 870.973L74.8125 879H73.8223L69.5215 870.973L70.7461 872.426H70.207V879H69.0352ZM81.1992 879L85.4297 870.545H86.4492V871.799H86.0742L82.5176 879H81.1992ZM83.0156 876.65L83.4961 875.666H88.7168L89.1855 876.65H83.0156ZM89.6895 879L86.127 871.799V870.545H86.7715L91.0078 879H89.6895ZM91.9043 879L96.0762 874.424L95.748 875.168V874.77L91.9395 870.545H93.5098L96.6035 874.008H97.0664L96.3281 874.371L99.7559 870.545H101.279L97.418 874.781V875.18L97.084 874.436L101.227 879H99.6621L96.5918 875.613H96.1289L96.8789 875.256L93.4219 879H91.9043ZM106.418 879V870.545H107.889L111.668 877.57H111.732L115.506 870.545H116.982V879H115.811V872.426H115.271L116.496 870.973L112.195 879H111.205L106.904 870.973L108.129 872.426H107.59V879H106.418ZM123.967 879.176C122.939 879.176 122.047 878.996 121.289 878.637C120.531 878.277 119.945 877.768 119.531 877.107C119.117 876.447 118.91 875.67 118.91 874.775V874.764C118.91 873.869 119.117 873.094 119.531 872.438C119.949 871.777 120.537 871.268 121.295 870.908C122.053 870.549 122.943 870.369 123.967 870.369C124.986 870.369 125.875 870.549 126.633 870.908C127.395 871.268 127.982 871.777 128.396 872.438C128.814 873.094 129.023 873.869 129.023 874.764V874.775C129.023 875.67 128.814 876.447 128.396 877.107C127.982 877.768 127.396 878.277 126.639 878.637C125.881 878.996 124.99 879.176 123.967 879.176ZM123.967 878.086C124.732 878.086 125.398 877.951 125.965 877.682C126.535 877.408 126.977 877.023 127.289 876.527C127.602 876.027 127.758 875.443 127.758 874.775V874.764C127.758 874.092 127.602 873.508 127.289 873.012C126.977 872.516 126.535 872.133 125.965 871.863C125.398 871.594 124.732 871.459 123.967 871.459C123.201 871.459 122.533 871.594 121.963 871.863C121.396 872.133 120.957 872.516 120.645 873.012C120.332 873.508 120.176 874.092 120.176 874.764V874.775C120.176 875.443 120.33 876.027 120.639 876.527C120.951 877.023 121.391 877.408 121.957 877.682C122.527 877.951 123.197 878.086 123.967 878.086ZM130.957 879V870.545H135.434C136.41 870.545 137.24 870.711 137.924 871.043C138.607 871.375 139.127 871.855 139.482 872.484C139.842 873.113 140.021 873.871 140.021 874.758V874.77C140.021 875.656 139.844 876.416 139.488 877.049C139.133 877.682 138.613 878.166 137.93 878.502C137.246 878.834 136.414 879 135.434 879H130.957ZM132.193 877.934H135.357C136.092 877.934 136.711 877.812 137.215 877.57C137.719 877.324 138.102 876.967 138.363 876.498C138.625 876.029 138.756 875.457 138.756 874.781V874.77C138.756 874.098 138.625 873.527 138.363 873.059C138.105 872.586 137.723 872.227 137.215 871.98C136.711 871.734 136.092 871.611 135.357 871.611H132.193V877.934ZM145.178 879V878.174L149.672 875.145C150.113 874.832 150.461 874.561 150.715 874.33C150.969 874.1 151.148 873.883 151.254 873.68C151.363 873.473 151.418 873.25 151.418 873.012V873C151.418 872.672 151.324 872.389 151.137 872.15C150.949 871.908 150.68 871.721 150.328 871.588C149.977 871.455 149.553 871.389 149.057 871.389C148.541 871.389 148.094 871.461 147.715 871.605C147.336 871.746 147.033 871.951 146.807 872.221C146.584 872.486 146.449 872.811 146.402 873.193L146.385 873.258L145.207 873.252L145.201 873.217C145.248 872.631 145.436 872.125 145.764 871.699C146.092 871.27 146.537 870.939 147.1 870.709C147.666 870.479 148.328 870.363 149.086 870.363C149.82 870.363 150.455 870.469 150.99 870.68C151.525 870.891 151.936 871.189 152.221 871.576C152.51 871.959 152.654 872.418 152.654 872.953V872.965C152.654 873.309 152.584 873.631 152.443 873.932C152.303 874.229 152.066 874.535 151.734 874.852C151.402 875.164 150.949 875.521 150.375 875.924L146.994 878.162L147.369 877.482V878.379L146.936 877.957H152.9V879H145.178ZM155.625 879.076C155.41 879.076 155.227 879.002 155.074 878.854C154.926 878.705 154.852 878.525 154.852 878.314C154.852 878.1 154.926 877.92 155.074 877.775C155.227 877.627 155.412 877.553 155.631 877.553C155.846 877.553 156.027 877.627 156.176 877.775C156.328 877.92 156.404 878.1 156.404 878.314C156.404 878.525 156.328 878.705 156.176 878.854C156.027 879.002 155.844 879.076 155.625 879.076ZM162.539 879.176C161.648 879.176 160.877 878.994 160.225 878.631C159.572 878.268 159.068 877.756 158.713 877.096C158.357 876.436 158.18 875.662 158.18 874.775V874.764C158.18 873.877 158.357 873.105 158.713 872.449C159.068 871.789 159.572 871.277 160.225 870.914C160.877 870.547 161.648 870.363 162.539 870.363C163.41 870.363 164.166 870.547 164.807 870.914C165.451 871.277 165.949 871.789 166.301 872.449C166.652 873.109 166.828 873.881 166.828 874.764V874.775C166.828 875.658 166.652 876.43 166.301 877.09C165.949 877.75 165.451 878.264 164.807 878.631C164.166 878.994 163.41 879.176 162.539 879.176ZM162.539 878.145C163.16 878.145 163.697 878.004 164.15 877.723C164.607 877.441 164.959 877.049 165.205 876.545C165.455 876.041 165.58 875.449 165.58 874.77V874.758C165.58 874.082 165.455 873.492 165.205 872.988C164.959 872.484 164.607 872.094 164.15 871.816C163.697 871.539 163.16 871.4 162.539 871.4C161.898 871.4 161.346 871.539 160.881 871.816C160.416 872.094 160.059 872.484 159.809 872.988C159.559 873.488 159.434 874.078 159.434 874.758V874.77C159.434 875.453 159.559 876.047 159.809 876.551C160.059 877.055 160.416 877.447 160.881 877.729C161.346 878.006 161.898 878.145 162.539 878.145Z" fill="#F8F8F8"/>
<path fill-rule="evenodd" clip-rule="evenodd" d="M0 850H40V848.5H1.5V810H0V850Z" fill="#636366"/>
<path fill-rule="evenodd" clip-rule="evenodd" d="M1840 850H1800V848.5H1838.5V810H1840V850Z" fill="#636366"/>
<path fill-rule="evenodd" clip-rule="evenodd" d="M0 0H40V1.5H1.5V40H0V0Z" fill="#636366"/>
<path fill-rule="evenodd" clip-rule="evenodd" d="M1840 0H1800V1.5H1838.5V40H1840V0Z" fill="#636366"/>
<mask id="path-7-inside-1_883_13940" fill="white">
<path fill-rule="evenodd" clip-rule="evenodd" d="M1816 18H1780V42H1816V39H1820V22H1816V18Z"/>
</mask>
<path d="M1780 18V16.5H1778.5V18H1780ZM1816 18H1817.5V16.5H1816V18ZM1780 42H1778.5V43.5H1780V42ZM1816 42V43.5H1817.5V42H1816ZM1816 39V37.5H1814.5V39H1816ZM1820 39V40.5H1821.5V39H1820ZM1820 22H1821.5V20.5H1820V22ZM1816 22H1814.5V23.5H1816V22ZM1780 19.5H1816V16.5H1780V19.5ZM1781.5 42V18H1778.5V42H1781.5ZM1816 40.5H1780V43.5H1816V40.5ZM1814.5 39V42H1817.5V39H1814.5ZM1820 37.5H1816V40.5H1820V37.5ZM1818.5 22V39H1821.5V22H1818.5ZM1816 23.5H1820V20.5H1816V23.5ZM1814.5 18V22H1817.5V18H1814.5Z" fill="#F8F8F8" mask="url(#path-7-inside-1_883_13940)"/>
<rect x="1784" y="22" width="28" height="16" fill="#E0FF05"/>
<g filter="url(#filter0_f_883_13940)">
<circle cx="28" cy="28" r="10" fill="#800E0F"/>
</g>
<circle cx="28" cy="28" r="9.5" fill="#E6191B" stroke="#800E0F"/>
<defs>
<filter id="filter0_f_883_13940" x="8" y="8" width="40" height="40" filterUnits="userSpaceOnUse" color-interpolation-filters="sRGB">
<feFlood flood-opacity="0" result="BackgroundImageFix"/>
<feBlend mode="normal" in="SourceGraphic" in2="BackgroundImageFix" result="shape"/>
<feGaussianBlur stdDeviation="5" result="effect1_foregroundBlur_883_13940"/>
</filter>
</defs>
</svg>
