<svg width="1840" height="881" viewBox="0 0 1840 881" fill="none" xmlns="http://www.w3.org/2000/svg">
<path d="M1790.94 879.176C1790.18 879.176 1789.49 879.072 1788.87 878.865C1788.25 878.658 1787.72 878.361 1787.28 877.975C1786.84 877.584 1786.5 877.117 1786.26 876.574C1786.02 876.027 1785.91 875.42 1785.91 874.752V874.74C1785.91 873.861 1786.11 873.094 1786.53 872.438C1786.95 871.781 1787.53 871.273 1788.29 870.914C1789.04 870.551 1789.93 870.369 1790.94 870.369C1791.75 870.369 1792.48 870.484 1793.13 870.715C1793.78 870.941 1794.33 871.264 1794.76 871.682C1795.19 872.096 1795.49 872.584 1795.65 873.146L1795.67 873.211H1794.39L1794.37 873.158C1794.13 872.623 1793.71 872.207 1793.11 871.91C1792.52 871.609 1791.8 871.459 1790.95 871.459C1790.18 871.459 1789.51 871.594 1788.95 871.863C1788.38 872.129 1787.95 872.508 1787.63 873C1787.33 873.488 1787.17 874.068 1787.17 874.74V874.752C1787.17 875.26 1787.26 875.721 1787.44 876.135C1787.61 876.545 1787.87 876.896 1788.2 877.189C1788.53 877.479 1788.93 877.701 1789.39 877.857C1789.86 878.014 1790.38 878.092 1790.96 878.092C1791.62 878.092 1792.21 877.998 1792.71 877.811C1793.21 877.623 1793.62 877.354 1793.92 877.002C1794.22 876.646 1794.41 876.225 1794.48 875.736V875.643H1790.99V874.658H1795.72V875.309C1795.72 875.887 1795.61 876.414 1795.38 876.891C1795.16 877.363 1794.84 877.771 1794.41 878.115C1793.99 878.459 1793.49 878.723 1792.9 878.906C1792.32 879.086 1791.66 879.176 1790.94 879.176ZM1802.4 879.176C1801.37 879.176 1800.48 878.996 1799.72 878.637C1798.96 878.277 1798.38 877.768 1797.96 877.107C1797.55 876.447 1797.34 875.67 1797.34 874.775V874.764C1797.34 873.869 1797.55 873.094 1797.96 872.438C1798.38 871.777 1798.97 871.268 1799.73 870.908C1800.49 870.549 1801.38 870.369 1802.4 870.369C1803.42 870.369 1804.31 870.549 1805.07 870.908C1805.83 871.268 1806.42 871.777 1806.83 872.438C1807.25 873.094 1807.46 873.869 1807.46 874.764V874.775C1807.46 875.67 1807.25 876.447 1806.83 877.107C1806.42 877.768 1805.83 878.277 1805.07 878.637C1804.31 878.996 1803.42 879.176 1802.4 879.176ZM1802.4 878.086C1803.17 878.086 1803.83 877.951 1804.4 877.682C1804.97 877.408 1805.41 877.023 1805.72 876.527C1806.04 876.027 1806.19 875.443 1806.19 874.775V874.764C1806.19 874.092 1806.04 873.508 1805.72 873.012C1805.41 872.516 1804.97 872.133 1804.4 871.863C1803.83 871.594 1803.17 871.459 1802.4 871.459C1801.63 871.459 1800.97 871.594 1800.4 871.863C1799.83 872.133 1799.39 872.516 1799.08 873.012C1798.77 873.508 1798.61 874.092 1798.61 874.764V874.775C1798.61 875.443 1798.76 876.027 1799.07 876.527C1799.38 877.023 1799.82 877.408 1800.39 877.682C1800.96 877.951 1801.63 878.086 1802.4 878.086ZM1810.01 876.053V875.016H1814.12C1814.76 875.016 1815.25 874.867 1815.6 874.57C1815.94 874.27 1816.11 873.848 1816.11 873.305V873.293C1816.11 872.754 1815.94 872.336 1815.6 872.039C1815.25 871.738 1814.76 871.588 1814.12 871.588H1810.01V870.545H1814.31C1814.93 870.545 1815.47 870.658 1815.93 870.885C1816.39 871.111 1816.74 871.43 1816.99 871.84C1817.24 872.246 1817.37 872.727 1817.37 873.281V873.293C1817.37 873.844 1817.24 874.328 1816.99 874.746C1816.74 875.16 1816.38 875.482 1815.92 875.713C1815.47 875.939 1814.93 876.053 1814.31 876.053H1810.01ZM1809.39 879V870.545H1810.63V879H1809.39ZM1819.21 879V870.545H1824.45C1825.05 870.545 1825.57 870.65 1826 870.861C1826.44 871.068 1826.78 871.361 1827.02 871.74C1827.25 872.119 1827.37 872.568 1827.37 873.088V873.1C1827.37 873.713 1827.21 874.232 1826.89 874.658C1826.56 875.08 1826.1 875.379 1825.5 875.555L1827.64 879H1826.18L1824.19 875.719C1824.18 875.719 1824.17 875.719 1824.16 875.719C1824.14 875.719 1824.13 875.719 1824.12 875.719H1820.45V879H1819.21ZM1820.45 874.705H1824.37C1824.92 874.705 1825.35 874.57 1825.65 874.301C1825.95 874.027 1826.1 873.641 1826.1 873.141V873.129C1826.1 872.648 1825.94 872.271 1825.63 871.998C1825.31 871.725 1824.88 871.588 1824.33 871.588H1820.45V874.705ZM1834.15 879.176C1833.12 879.176 1832.23 878.996 1831.47 878.637C1830.71 878.277 1830.12 877.768 1829.71 877.107C1829.3 876.447 1829.09 875.67 1829.09 874.775V874.764C1829.09 873.869 1829.3 873.094 1829.71 872.438C1830.13 871.777 1830.72 871.268 1831.47 870.908C1832.23 870.549 1833.12 870.369 1834.15 870.369C1835.17 870.369 1836.05 870.549 1836.81 870.908C1837.57 871.268 1838.16 871.777 1838.58 872.438C1838.99 873.094 1839.2 873.869 1839.2 874.764V874.775C1839.2 875.67 1838.99 876.447 1838.58 877.107C1838.16 877.768 1837.58 878.277 1836.82 878.637C1836.06 878.996 1835.17 879.176 1834.15 879.176ZM1834.15 878.086C1834.91 878.086 1835.58 877.951 1836.14 877.682C1836.71 877.408 1837.16 877.023 1837.47 876.527C1837.78 876.027 1837.94 875.443 1837.94 874.775V874.764C1837.94 874.092 1837.78 873.508 1837.47 873.012C1837.16 872.516 1836.71 872.133 1836.14 871.863C1835.58 871.594 1834.91 871.459 1834.15 871.459C1833.38 871.459 1832.71 871.594 1832.14 871.863C1831.58 872.133 1831.14 872.516 1830.82 873.012C1830.51 873.508 1830.36 874.092 1830.36 874.764V874.775C1830.36 875.443 1830.51 876.027 1830.82 876.527C1831.13 877.023 1831.57 877.408 1832.14 877.682C1832.71 877.951 1833.38 878.086 1834.15 878.086Z" fill="#F8F8F8"/>
<path d="M1.75781 879V877.975H6.33984C6.95312 877.975 7.42578 877.855 7.75781 877.617C8.08984 877.379 8.25586 877.031 8.25586 876.574V876.562C8.25586 876.25 8.17578 875.992 8.01562 875.789C7.85547 875.582 7.62305 875.428 7.31836 875.326C7.01367 875.221 6.64062 875.168 6.19922 875.168H1.75781V874.189H5.91211C6.5332 874.189 7.00977 874.078 7.3418 873.855C7.67773 873.629 7.8457 873.303 7.8457 872.877V872.865C7.8457 872.439 7.70117 872.117 7.41211 871.898C7.12695 871.68 6.73438 871.57 6.23438 871.57H1.75781V870.545H6.5332C7.04883 870.545 7.49805 870.633 7.88086 870.809C8.26758 870.98 8.56641 871.225 8.77734 871.541C8.98828 871.857 9.09375 872.229 9.09375 872.654V872.666C9.09375 872.971 9.02734 873.252 8.89453 873.51C8.76172 873.768 8.57617 873.986 8.33789 874.166C8.10352 874.346 7.83203 874.467 7.52344 874.529V874.576C7.93359 874.627 8.28711 874.744 8.58398 874.928C8.88477 875.111 9.11523 875.35 9.27539 875.643C9.43945 875.936 9.52148 876.268 9.52148 876.639V876.65C9.52148 877.143 9.40234 877.564 9.16406 877.916C8.92969 878.264 8.58984 878.531 8.14453 878.719C7.70312 878.906 7.17383 879 6.55664 879H1.75781ZM1.13672 879V870.545H2.37305V879H1.13672ZM11.3672 879V870.545H18.7207V871.6H12.6035V874.172H18.3105V875.191H12.6035V877.945H18.7207V879H11.3672ZM23.4844 879L27.7148 870.545H28.7344V871.799H28.3594L24.8027 879H23.4844ZM25.3008 876.65L25.7812 875.666H31.002L31.4707 876.65H25.3008ZM31.9746 879L28.4121 871.799V870.545H29.0566L33.293 879H31.9746ZM38.2969 879V870.545H39.5332V874.148H45.8789V870.545H47.1211V879H45.8789V875.215H39.5332V879H38.2969ZM49.3945 879V870.545H56.748V871.6H50.6309V874.172H56.3379V875.191H50.6309V877.945H56.748V879H49.3945ZM58.7812 879V870.545H64.0195C64.6211 870.545 65.1387 870.65 65.5723 870.861C66.0098 871.068 66.3477 871.361 66.5859 871.74C66.8242 872.119 66.9434 872.568 66.9434 873.088V873.1C66.9434 873.713 66.7812 874.232 66.457 874.658C66.1328 875.08 65.6699 875.379 65.0684 875.555L67.2129 879H65.7539L63.7617 875.719C63.75 875.719 63.7383 875.719 63.7266 875.719C63.7148 875.719 63.7031 875.719 63.6914 875.719H60.0176V879H58.7812ZM60.0176 874.705H63.9375C64.4922 874.705 64.9199 874.57 65.2207 874.301C65.5215 874.027 65.6719 873.641 65.6719 873.141V873.129C65.6719 872.648 65.5137 872.271 65.1973 871.998C64.8848 871.725 64.4512 871.588 63.8965 871.588H60.0176V874.705ZM73.7168 879.176C72.6895 879.176 71.7969 878.996 71.0391 878.637C70.2812 878.277 69.6953 877.768 69.2812 877.107C68.8672 876.447 68.6602 875.67 68.6602 874.775V874.764C68.6602 873.869 68.8672 873.094 69.2812 872.438C69.6992 871.777 70.2871 871.268 71.0449 870.908C71.8027 870.549 72.6934 870.369 73.7168 870.369C74.7363 870.369 75.625 870.549 76.3828 870.908C77.1445 871.268 77.7324 871.777 78.1465 872.438C78.5645 873.094 78.7734 873.869 78.7734 874.764V874.775C78.7734 875.67 78.5645 876.447 78.1465 877.107C77.7324 877.768 77.1465 878.277 76.3887 878.637C75.6309 878.996 74.7402 879.176 73.7168 879.176ZM73.7168 878.086C74.4824 878.086 75.1484 877.951 75.7148 877.682C76.2852 877.408 76.7266 877.023 77.0391 876.527C77.3516 876.027 77.5078 875.443 77.5078 874.775V874.764C77.5078 874.092 77.3516 873.508 77.0391 873.012C76.7266 872.516 76.2852 872.133 75.7148 871.863C75.1484 871.594 74.4824 871.459 73.7168 871.459C72.9512 871.459 72.2832 871.594 71.7129 871.863C71.1465 872.133 70.707 872.516 70.3945 873.012C70.082 873.508 69.9258 874.092 69.9258 874.764V874.775C69.9258 875.443 70.0801 876.027 70.3887 876.527C70.7012 877.023 71.1406 877.408 71.707 877.682C72.2773 877.951 72.9473 878.086 73.7168 878.086Z" fill="#F8F8F8"/>
<path fill-rule="evenodd" clip-rule="evenodd" d="M0 850H40V848.5H1.5V810H0V850Z" fill="#636366"/>
<path fill-rule="evenodd" clip-rule="evenodd" d="M1840 850H1800V848.5H1838.5V810H1840V850Z" fill="#636366"/>
<path fill-rule="evenodd" clip-rule="evenodd" d="M0 0H40V1.5H1.5V40H0V0Z" fill="#636366"/>
<path fill-rule="evenodd" clip-rule="evenodd" d="M1840 0H1800V1.5H1838.5V40H1840V0Z" fill="#636366"/>
<mask id="path-7-inside-1_947_14190" fill="white">
<path fill-rule="evenodd" clip-rule="evenodd" d="M1816 18H1780V42H1816V39H1820V22H1816V18Z"/>
</mask>
<path d="M1780 18V16.5H1778.5V18H1780ZM1816 18H1817.5V16.5H1816V18ZM1780 42H1778.5V43.5H1780V42ZM1816 42V43.5H1817.5V42H1816ZM1816 39V37.5H1814.5V39H1816ZM1820 39V40.5H1821.5V39H1820ZM1820 22H1821.5V20.5H1820V22ZM1816 22H1814.5V23.5H1816V22ZM1780 19.5H1816V16.5H1780V19.5ZM1781.5 42V18H1778.5V42H1781.5ZM1816 40.5H1780V43.5H1816V40.5ZM1814.5 39V42H1817.5V39H1814.5ZM1820 37.5H1816V40.5H1820V37.5ZM1818.5 22V39H1821.5V22H1818.5ZM1816 23.5H1820V20.5H1816V23.5ZM1814.5 18V22H1817.5V18H1814.5Z" fill="#F8F8F8" mask="url(#path-7-inside-1_947_14190)"/>
<rect x="1784" y="22" width="28" height="16" fill="#E0FF05"/>
<g filter="url(#filter0_f_947_14190)">
<circle cx="28" cy="28" r="10" fill="#800E0F"/>
</g>
<circle cx="28" cy="28" r="9.5" fill="#E6191B" stroke="#800E0F"/>
<defs>
<filter id="filter0_f_947_14190" x="8" y="8" width="40" height="40" filterUnits="userSpaceOnUse" color-interpolation-filters="sRGB">
<feFlood flood-opacity="0" result="BackgroundImageFix"/>
<feBlend mode="normal" in="SourceGraphic" in2="BackgroundImageFix" result="shape"/>
<feGaussianBlur stdDeviation="5" result="effect1_foregroundBlur_947_14190"/>
</filter>
</defs>
</svg>
