<svg width="1840" height="881" viewBox="0 0 1840 881" fill="none" xmlns="http://www.w3.org/2000/svg">
<path d="M1790.94 879.176C1790.18 879.176 1789.49 879.072 1788.87 878.865C1788.25 878.658 1787.72 878.361 1787.28 877.975C1786.84 877.584 1786.5 877.117 1786.26 876.574C1786.02 876.027 1785.91 875.42 1785.91 874.752V874.74C1785.91 873.861 1786.11 873.094 1786.53 872.438C1786.95 871.781 1787.53 871.273 1788.29 870.914C1789.04 870.551 1789.93 870.369 1790.94 870.369C1791.75 870.369 1792.48 870.484 1793.13 870.715C1793.78 870.941 1794.33 871.264 1794.76 871.682C1795.19 872.096 1795.49 872.584 1795.65 873.146L1795.67 873.211H1794.39L1794.37 873.158C1794.13 872.623 1793.71 872.207 1793.11 871.91C1792.52 871.609 1791.8 871.459 1790.95 871.459C1790.18 871.459 1789.51 871.594 1788.95 871.863C1788.38 872.129 1787.95 872.508 1787.63 873C1787.33 873.488 1787.17 874.068 1787.17 874.74V874.752C1787.17 875.26 1787.26 875.721 1787.44 876.135C1787.61 876.545 1787.87 876.896 1788.2 877.189C1788.53 877.479 1788.93 877.701 1789.39 877.857C1789.86 878.014 1790.38 878.092 1790.96 878.092C1791.62 878.092 1792.21 877.998 1792.71 877.811C1793.21 877.623 1793.62 877.354 1793.92 877.002C1794.22 876.646 1794.41 876.225 1794.48 875.736V875.643H1790.99V874.658H1795.72V875.309C1795.72 875.887 1795.61 876.414 1795.38 876.891C1795.16 877.363 1794.84 877.771 1794.41 878.115C1793.99 878.459 1793.49 878.723 1792.9 878.906C1792.32 879.086 1791.66 879.176 1790.94 879.176ZM1802.4 879.176C1801.37 879.176 1800.48 878.996 1799.72 878.637C1798.96 878.277 1798.38 877.768 1797.96 877.107C1797.55 876.447 1797.34 875.67 1797.34 874.775V874.764C1797.34 873.869 1797.55 873.094 1797.96 872.438C1798.38 871.777 1798.97 871.268 1799.73 870.908C1800.49 870.549 1801.38 870.369 1802.4 870.369C1803.42 870.369 1804.31 870.549 1805.07 870.908C1805.83 871.268 1806.42 871.777 1806.83 872.438C1807.25 873.094 1807.46 873.869 1807.46 874.764V874.775C1807.46 875.67 1807.25 876.447 1806.83 877.107C1806.42 877.768 1805.83 878.277 1805.07 878.637C1804.31 878.996 1803.42 879.176 1802.4 879.176ZM1802.4 878.086C1803.17 878.086 1803.83 877.951 1804.4 877.682C1804.97 877.408 1805.41 877.023 1805.72 876.527C1806.04 876.027 1806.19 875.443 1806.19 874.775V874.764C1806.19 874.092 1806.04 873.508 1805.72 873.012C1805.41 872.516 1804.97 872.133 1804.4 871.863C1803.83 871.594 1803.17 871.459 1802.4 871.459C1801.63 871.459 1800.97 871.594 1800.4 871.863C1799.83 872.133 1799.39 872.516 1799.08 873.012C1798.77 873.508 1798.61 874.092 1798.61 874.764V874.775C1798.61 875.443 1798.76 876.027 1799.07 876.527C1799.38 877.023 1799.82 877.408 1800.39 877.682C1800.96 877.951 1801.63 878.086 1802.4 878.086ZM1810.01 876.053V875.016H1814.12C1814.76 875.016 1815.25 874.867 1815.6 874.57C1815.94 874.27 1816.11 873.848 1816.11 873.305V873.293C1816.11 872.754 1815.94 872.336 1815.6 872.039C1815.25 871.738 1814.76 871.588 1814.12 871.588H1810.01V870.545H1814.31C1814.93 870.545 1815.47 870.658 1815.93 870.885C1816.39 871.111 1816.74 871.43 1816.99 871.84C1817.24 872.246 1817.37 872.727 1817.37 873.281V873.293C1817.37 873.844 1817.24 874.328 1816.99 874.746C1816.74 875.16 1816.38 875.482 1815.92 875.713C1815.47 875.939 1814.93 876.053 1814.31 876.053H1810.01ZM1809.39 879V870.545H1810.63V879H1809.39ZM1819.21 879V870.545H1824.45C1825.05 870.545 1825.57 870.65 1826 870.861C1826.44 871.068 1826.78 871.361 1827.02 871.74C1827.25 872.119 1827.37 872.568 1827.37 873.088V873.1C1827.37 873.713 1827.21 874.232 1826.89 874.658C1826.56 875.08 1826.1 875.379 1825.5 875.555L1827.64 879H1826.18L1824.19 875.719C1824.18 875.719 1824.17 875.719 1824.16 875.719C1824.14 875.719 1824.13 875.719 1824.12 875.719H1820.45V879H1819.21ZM1820.45 874.705H1824.37C1824.92 874.705 1825.35 874.57 1825.65 874.301C1825.95 874.027 1826.1 873.641 1826.1 873.141V873.129C1826.1 872.648 1825.94 872.271 1825.63 871.998C1825.31 871.725 1824.88 871.588 1824.33 871.588H1820.45V874.705ZM1834.15 879.176C1833.12 879.176 1832.23 878.996 1831.47 878.637C1830.71 878.277 1830.12 877.768 1829.71 877.107C1829.3 876.447 1829.09 875.67 1829.09 874.775V874.764C1829.09 873.869 1829.3 873.094 1829.71 872.438C1830.13 871.777 1830.72 871.268 1831.47 870.908C1832.23 870.549 1833.12 870.369 1834.15 870.369C1835.17 870.369 1836.05 870.549 1836.81 870.908C1837.57 871.268 1838.16 871.777 1838.58 872.438C1838.99 873.094 1839.2 873.869 1839.2 874.764V874.775C1839.2 875.67 1838.99 876.447 1838.58 877.107C1838.16 877.768 1837.58 878.277 1836.82 878.637C1836.06 878.996 1835.17 879.176 1834.15 879.176ZM1834.15 878.086C1834.91 878.086 1835.58 877.951 1836.14 877.682C1836.71 877.408 1837.16 877.023 1837.47 876.527C1837.78 876.027 1837.94 875.443 1837.94 874.775V874.764C1837.94 874.092 1837.78 873.508 1837.47 873.012C1837.16 872.516 1836.71 872.133 1836.14 871.863C1835.58 871.594 1834.91 871.459 1834.15 871.459C1833.38 871.459 1832.71 871.594 1832.14 871.863C1831.58 872.133 1831.14 872.516 1830.82 873.012C1830.51 873.508 1830.36 874.092 1830.36 874.764V874.775C1830.36 875.443 1830.51 876.027 1830.82 876.527C1831.13 877.023 1831.57 877.408 1832.14 877.682C1832.71 877.951 1833.38 878.086 1834.15 878.086Z" fill="#F8F8F8"/>
<path d="M890.393 879V870.545H891.629V874.148H897.975V870.545H899.217V879H897.975V875.215H891.629V879H890.393ZM901.49 879V870.545H908.844V871.6H902.727V874.172H908.434V875.191H902.727V877.945H908.844V879H901.49ZM910.877 879V870.545H916.115C916.717 870.545 917.234 870.65 917.668 870.861C918.105 871.068 918.443 871.361 918.682 871.74C918.92 872.119 919.039 872.568 919.039 873.088V873.1C919.039 873.713 918.877 874.232 918.553 874.658C918.229 875.08 917.766 875.379 917.164 875.555L919.309 879H917.85L915.857 875.719C915.846 875.719 915.834 875.719 915.822 875.719C915.811 875.719 915.799 875.719 915.787 875.719H912.113V879H910.877ZM912.113 874.705H916.033C916.588 874.705 917.016 874.57 917.316 874.301C917.617 874.027 917.768 873.641 917.768 873.141V873.129C917.768 872.648 917.609 872.271 917.293 871.998C916.98 871.725 916.547 871.588 915.992 871.588H912.113V874.705ZM925.812 879.176C924.785 879.176 923.893 878.996 923.135 878.637C922.377 878.277 921.791 877.768 921.377 877.107C920.963 876.447 920.756 875.67 920.756 874.775V874.764C920.756 873.869 920.963 873.094 921.377 872.438C921.795 871.777 922.383 871.268 923.141 870.908C923.898 870.549 924.789 870.369 925.812 870.369C926.832 870.369 927.721 870.549 928.479 870.908C929.24 871.268 929.828 871.777 930.242 872.438C930.66 873.094 930.869 873.869 930.869 874.764V874.775C930.869 875.67 930.66 876.447 930.242 877.107C929.828 877.768 929.242 878.277 928.484 878.637C927.727 878.996 926.836 879.176 925.812 879.176ZM925.812 878.086C926.578 878.086 927.244 877.951 927.811 877.682C928.381 877.408 928.822 877.023 929.135 876.527C929.447 876.027 929.604 875.443 929.604 874.775V874.764C929.604 874.092 929.447 873.508 929.135 873.012C928.822 872.516 928.381 872.133 927.811 871.863C927.244 871.594 926.578 871.459 925.812 871.459C925.047 871.459 924.379 871.594 923.809 871.863C923.242 872.133 922.803 872.516 922.49 873.012C922.178 873.508 922.021 874.092 922.021 874.764V874.775C922.021 875.443 922.176 876.027 922.484 876.527C922.797 877.023 923.236 877.408 923.803 877.682C924.373 877.951 925.043 878.086 925.812 878.086ZM938.434 879V871.764H938.381L935.873 873.234V872.068L938.428 870.545H939.652V879H938.434ZM942.137 879V878.174L946.631 875.145C947.072 874.832 947.42 874.561 947.674 874.33C947.928 874.1 948.107 873.883 948.213 873.68C948.322 873.473 948.377 873.25 948.377 873.012V873C948.377 872.672 948.283 872.389 948.096 872.15C947.908 871.908 947.639 871.721 947.287 871.588C946.936 871.455 946.512 871.389 946.016 871.389C945.5 871.389 945.053 871.461 944.674 871.605C944.295 871.746 943.992 871.951 943.766 872.221C943.543 872.486 943.408 872.811 943.361 873.193L943.344 873.258L942.166 873.252L942.16 873.217C942.207 872.631 942.395 872.125 942.723 871.699C943.051 871.27 943.496 870.939 944.059 870.709C944.625 870.479 945.287 870.363 946.045 870.363C946.779 870.363 947.414 870.469 947.949 870.68C948.484 870.891 948.895 871.189 949.18 871.576C949.469 871.959 949.613 872.418 949.613 872.953V872.965C949.613 873.309 949.543 873.631 949.402 873.932C949.262 874.229 949.025 874.535 948.693 874.852C948.361 875.164 947.908 875.521 947.334 875.924L943.953 878.162L944.328 877.482V878.379L943.895 877.957H949.859V879H942.137Z" fill="#F8F8F8"/>
<path d="M5.68359 879.188C4.69141 879.188 3.82812 879.006 3.09375 878.643C2.36328 878.279 1.79688 877.768 1.39453 877.107C0.992188 876.447 0.791016 875.668 0.791016 874.77V874.758C0.791016 873.855 0.992188 873.074 1.39453 872.414C1.79688 871.754 2.36328 871.242 3.09375 870.879C3.82812 870.516 4.69141 870.334 5.68359 870.334C6.67188 870.334 7.5293 870.516 8.25586 870.879C8.98633 871.242 9.55078 871.756 9.94922 872.42C10.3516 873.08 10.5527 873.859 10.5527 874.758V874.77C10.5527 875.668 10.3516 876.447 9.94922 877.107C9.55078 877.768 8.98633 878.279 8.25586 878.643C7.5293 879.006 6.67188 879.188 5.68359 879.188ZM5.68359 877.113C6.07031 877.113 6.40625 877.02 6.69141 876.832C6.97656 876.645 7.19531 876.375 7.34766 876.023C7.50391 875.672 7.58203 875.252 7.58203 874.764V874.752C7.58203 874.268 7.50391 873.85 7.34766 873.498C7.19531 873.146 6.97656 872.877 6.69141 872.689C6.40625 872.502 6.07031 872.408 5.68359 872.408C5.29297 872.408 4.95312 872.502 4.66406 872.689C4.37891 872.877 4.1582 873.146 4.00195 873.498C3.8457 873.85 3.76758 874.268 3.76758 874.752V874.764C3.76758 875.252 3.8457 875.672 4.00195 876.023C4.1582 876.375 4.37891 876.645 4.66406 876.832C4.95312 877.02 5.29297 877.113 5.68359 877.113ZM14.6426 879V872.83H14.5605L12.1055 874.254V872.004L14.6426 870.545H17.5723V879H14.6426ZM23.5781 879V870.545H24.8145V874.148H31.1602V870.545H32.4023V879H31.1602V875.215H24.8145V879H23.5781ZM34.6758 879V870.545H42.0293V871.6H35.9121V874.172H41.6191V875.191H35.9121V877.945H42.0293V879H34.6758ZM44.0625 879V870.545H49.3008C49.9023 870.545 50.4199 870.65 50.8535 870.861C51.291 871.068 51.6289 871.361 51.8672 871.74C52.1055 872.119 52.2246 872.568 52.2246 873.088V873.1C52.2246 873.713 52.0625 874.232 51.7383 874.658C51.4141 875.08 50.9512 875.379 50.3496 875.555L52.4941 879H51.0352L49.043 875.719C49.0312 875.719 49.0195 875.719 49.0078 875.719C48.9961 875.719 48.9844 875.719 48.9727 875.719H45.2988V879H44.0625ZM45.2988 874.705H49.2188C49.7734 874.705 50.2012 874.57 50.502 874.301C50.8027 874.027 50.9531 873.641 50.9531 873.141V873.129C50.9531 872.648 50.7949 872.271 50.4785 871.998C50.166 871.725 49.7324 871.588 49.1777 871.588H45.2988V874.705ZM58.998 879.176C57.9707 879.176 57.0781 878.996 56.3203 878.637C55.5625 878.277 54.9766 877.768 54.5625 877.107C54.1484 876.447 53.9414 875.67 53.9414 874.775V874.764C53.9414 873.869 54.1484 873.094 54.5625 872.438C54.9805 871.777 55.5684 871.268 56.3262 870.908C57.084 870.549 57.9746 870.369 58.998 870.369C60.0176 870.369 60.9062 870.549 61.6641 870.908C62.4258 871.268 63.0137 871.777 63.4277 872.438C63.8457 873.094 64.0547 873.869 64.0547 874.764V874.775C64.0547 875.67 63.8457 876.447 63.4277 877.107C63.0137 877.768 62.4277 878.277 61.6699 878.637C60.9121 878.996 60.0215 879.176 58.998 879.176ZM58.998 878.086C59.7637 878.086 60.4297 877.951 60.9961 877.682C61.5664 877.408 62.0078 877.023 62.3203 876.527C62.6328 876.027 62.7891 875.443 62.7891 874.775V874.764C62.7891 874.092 62.6328 873.508 62.3203 873.012C62.0078 872.516 61.5664 872.133 60.9961 871.863C60.4297 871.594 59.7637 871.459 58.998 871.459C58.2324 871.459 57.5645 871.594 56.9941 871.863C56.4277 872.133 55.9883 872.516 55.6758 873.012C55.3633 873.508 55.207 874.092 55.207 874.764V874.775C55.207 875.443 55.3613 876.027 55.6699 876.527C55.9824 877.023 56.4219 877.408 56.9883 877.682C57.5586 877.951 58.2285 878.086 58.998 878.086ZM68.2207 879V871.764H68.168L65.6602 873.234V872.068L68.2148 870.545H69.4395V879H68.2207ZM71.9238 879V878.174L76.418 875.145C76.8594 874.832 77.207 874.561 77.4609 874.33C77.7148 874.1 77.8945 873.883 78 873.68C78.1094 873.473 78.1641 873.25 78.1641 873.012V873C78.1641 872.672 78.0703 872.389 77.8828 872.15C77.6953 871.908 77.4258 871.721 77.0742 871.588C76.7227 871.455 76.2988 871.389 75.8027 871.389C75.2871 871.389 74.8398 871.461 74.4609 871.605C74.082 871.746 73.7793 871.951 73.5527 872.221C73.3301 872.486 73.1953 872.811 73.1484 873.193L73.1309 873.258L71.9531 873.252L71.9473 873.217C71.9941 872.631 72.1816 872.125 72.5098 871.699C72.8379 871.27 73.2832 870.939 73.8457 870.709C74.4121 870.479 75.0742 870.363 75.832 870.363C76.5664 870.363 77.2012 870.469 77.7363 870.68C78.2715 870.891 78.6816 871.189 78.9668 871.576C79.2559 871.959 79.4004 872.418 79.4004 872.953V872.965C79.4004 873.309 79.3301 873.631 79.1895 873.932C79.0488 874.229 78.8125 874.535 78.4805 874.852C78.1484 875.164 77.6953 875.521 77.1211 875.924L73.7402 878.162L74.1152 877.482V878.379L73.6816 877.957H79.6465V879H71.9238ZM85.6875 879V877.975H90.2695C90.8828 877.975 91.3555 877.855 91.6875 877.617C92.0195 877.379 92.1855 877.031 92.1855 876.574V876.562C92.1855 876.25 92.1055 875.992 91.9453 875.789C91.7852 875.582 91.5527 875.428 91.248 875.326C90.9434 875.221 90.5703 875.168 90.1289 875.168H85.6875V874.189H89.8418C90.4629 874.189 90.9395 874.078 91.2715 873.855C91.6074 873.629 91.7754 873.303 91.7754 872.877V872.865C91.7754 872.439 91.6309 872.117 91.3418 871.898C91.0566 871.68 90.6641 871.57 90.1641 871.57H85.6875V870.545H90.4629C90.9785 870.545 91.4277 870.633 91.8105 870.809C92.1973 870.98 92.4961 871.225 92.707 871.541C92.918 871.857 93.0234 872.229 93.0234 872.654V872.666C93.0234 872.971 92.957 873.252 92.8242 873.51C92.6914 873.768 92.5059 873.986 92.2676 874.166C92.0332 874.346 91.7617 874.467 91.4531 874.529V874.576C91.8633 874.627 92.2168 874.744 92.5137 874.928C92.8145 875.111 93.0449 875.35 93.2051 875.643C93.3691 875.936 93.4512 876.268 93.4512 876.639V876.65C93.4512 877.143 93.332 877.564 93.0938 877.916C92.8594 878.264 92.5195 878.531 92.0742 878.719C91.6328 878.906 91.1035 879 90.4863 879H85.6875ZM85.0664 879V870.545H86.3027V879H85.0664ZM95.2969 879V870.545H96.5332V877.934H102.135V879H95.2969ZM103.266 879L107.496 870.545H108.516V871.799H108.141L104.584 879H103.266ZM105.082 876.65L105.562 875.666H110.783L111.252 876.65H105.082ZM111.756 879L108.193 871.799V870.545H108.838L113.074 879H111.756ZM118.91 879.176C117.887 879.176 117.004 878.996 116.262 878.637C115.523 878.277 114.953 877.768 114.551 877.107C114.152 876.447 113.953 875.67 113.953 874.775V874.764C113.953 873.869 114.152 873.094 114.551 872.438C114.953 871.777 115.523 871.268 116.262 870.908C117.004 870.549 117.887 870.369 118.91 870.369C119.754 870.369 120.506 870.498 121.166 870.756C121.83 871.014 122.371 871.379 122.789 871.852C123.207 872.32 123.475 872.873 123.592 873.51L123.598 873.557H122.344L122.332 873.521C122.195 873.084 121.973 872.711 121.664 872.402C121.359 872.094 120.975 871.859 120.51 871.699C120.049 871.539 119.516 871.459 118.91 871.459C118.152 871.459 117.496 871.596 116.941 871.869C116.391 872.139 115.965 872.521 115.664 873.018C115.367 873.514 115.219 874.096 115.219 874.764V874.775C115.219 875.443 115.367 876.025 115.664 876.521C115.965 877.018 116.391 877.402 116.941 877.676C117.496 877.949 118.154 878.086 118.916 878.086C119.514 878.086 120.043 878.006 120.504 877.846C120.969 877.686 121.355 877.455 121.664 877.154C121.973 876.85 122.195 876.482 122.332 876.053L122.344 876.023H123.598L123.592 876.07C123.471 876.703 123.201 877.252 122.783 877.717C122.365 878.182 121.826 878.541 121.166 878.795C120.506 879.049 119.754 879.176 118.91 879.176ZM126.439 876.111L126.422 874.57H126.762L131.959 870.545H133.717L128.701 874.365L128.473 874.523L126.439 876.111ZM125.473 879V870.545H126.709V879H125.473ZM132.305 879L127.91 874.67L128.83 873.896L133.992 879H132.305Z" fill="#F8F8F8"/>
<path fill-rule="evenodd" clip-rule="evenodd" d="M0 850H40V848.5H1.5V810H0V850Z" fill="#636366"/>
<path fill-rule="evenodd" clip-rule="evenodd" d="M1840 850H1800V848.5H1838.5V810H1840V850Z" fill="#636366"/>
<path d="M918.5 850V830H920V850H918.5Z" fill="#636366"/>
<path fill-rule="evenodd" clip-rule="evenodd" d="M0 0H40V1.5H1.5V40H0V0Z" fill="#636366"/>
<path fill-rule="evenodd" clip-rule="evenodd" d="M1840 0H1800V1.5H1838.5V40H1840V0Z" fill="#636366"/>
<path d="M918.5 0V20H920V0H918.5Z" fill="#636366"/>
<mask id="path-10-inside-1_747_10830" fill="white">
<path fill-rule="evenodd" clip-rule="evenodd" d="M1816 18H1780V42H1816V39H1820V22H1816V18Z"/>
</mask>
<path d="M1780 18V16.5H1778.5V18H1780ZM1816 18H1817.5V16.5H1816V18ZM1780 42H1778.5V43.5H1780V42ZM1816 42V43.5H1817.5V42H1816ZM1816 39V37.5H1814.5V39H1816ZM1820 39V40.5H1821.5V39H1820ZM1820 22H1821.5V20.5H1820V22ZM1816 22H1814.5V23.5H1816V22ZM1780 19.5H1816V16.5H1780V19.5ZM1781.5 42V18H1778.5V42H1781.5ZM1816 40.5H1780V43.5H1816V40.5ZM1814.5 39V42H1817.5V39H1814.5ZM1820 37.5H1816V40.5H1820V37.5ZM1818.5 22V39H1821.5V22H1818.5ZM1816 23.5H1820V20.5H1816V23.5ZM1814.5 18V22H1817.5V18H1814.5Z" fill="#F8F8F8" mask="url(#path-10-inside-1_747_10830)"/>
<rect x="1784" y="22" width="28" height="16" fill="#E0FF05"/>
<g filter="url(#filter0_f_747_10830)">
<circle cx="28" cy="28" r="10" fill="#800E0F"/>
</g>
<circle cx="28" cy="28" r="9.5" fill="#E6191B" stroke="#800E0F"/>
<defs>
<filter id="filter0_f_747_10830" x="8" y="8" width="40" height="40" filterUnits="userSpaceOnUse" color-interpolation-filters="sRGB">
<feFlood flood-opacity="0" result="BackgroundImageFix"/>
<feBlend mode="normal" in="SourceGraphic" in2="BackgroundImageFix" result="shape"/>
<feGaussianBlur stdDeviation="5" result="effect1_foregroundBlur_747_10830"/>
</filter>
</defs>
</svg>
