<?xml version="1.0" encoding="utf-8"?>
<!-- Generator: Adobe Illustrator 28.0.0, SVG Export Plug-In . SVG Version: 6.00 Build 0)  -->
<svg version="1.1" id="Layer_1" xmlns="http://www.w3.org/2000/svg" xmlns:xlink="http://www.w3.org/1999/xlink" x="0px" y="0px"
	 viewBox="0 0 1840 881" style="enable-background:new 0 0 1840 881;" xml:space="preserve">
<style type="text/css">
	.st0{fill:#F8F8F8;}
	.st1{fill-rule:evenodd;clip-rule:evenodd;fill:#636366;}
	.st2{fill-rule:evenodd;clip-rule:evenodd;fill:#FFFFFF;filter:url(#Adobe_OpacityMaskFilter);}
	.st3{mask:url(#path-10-inside-1_599_80114_00000089545067218429973000000012592882391248585915_);fill:#F8F8F8;}
	.st4{fill:#E0FF05;}
	.st5{fill:#800E0F;}
	.st6{fill:#E6191B;stroke:#800E0F;}
</style>
<path class="st0" d="M1790.9,879.2c-0.8,0-1.4-0.1-2.1-0.3c-0.6-0.2-1.2-0.5-1.6-0.9c-0.4-0.4-0.8-0.9-1-1.4
	c-0.2-0.5-0.3-1.2-0.3-1.8v0c0-0.9,0.2-1.6,0.6-2.3c0.4-0.7,1-1.2,1.8-1.5c0.8-0.4,1.6-0.5,2.6-0.5c0.8,0,1.5,0.1,2.2,0.3
	c0.7,0.2,1.2,0.5,1.6,1c0.4,0.4,0.7,0.9,0.9,1.5l0,0.1h-1.3l0-0.1c-0.2-0.5-0.7-1-1.3-1.2c-0.6-0.3-1.3-0.5-2.2-0.5
	c-0.8,0-1.4,0.1-2,0.4c-0.6,0.3-1,0.6-1.3,1.1c-0.3,0.5-0.5,1.1-0.5,1.7v0c0,0.5,0.1,1,0.3,1.4c0.2,0.4,0.4,0.8,0.8,1.1
	c0.3,0.3,0.7,0.5,1.2,0.7c0.5,0.2,1,0.2,1.6,0.2c0.7,0,1.2-0.1,1.8-0.3c0.5-0.2,0.9-0.5,1.2-0.8c0.3-0.4,0.5-0.8,0.6-1.3v-0.1h-3.5
	v-1h4.7v0.7c0,0.6-0.1,1.1-0.3,1.6c-0.2,0.5-0.5,0.9-1,1.2c-0.4,0.3-0.9,0.6-1.5,0.8C1792.3,879.1,1791.7,879.2,1790.9,879.2z
	 M1802.4,879.2c-1,0-1.9-0.2-2.7-0.5c-0.8-0.4-1.3-0.9-1.8-1.5c-0.4-0.7-0.6-1.4-0.6-2.3v0c0-0.9,0.2-1.7,0.6-2.3
	c0.4-0.7,1-1.2,1.8-1.5c0.8-0.4,1.7-0.5,2.7-0.5s1.9,0.2,2.7,0.5c0.8,0.4,1.4,0.9,1.8,1.5c0.4,0.7,0.6,1.4,0.6,2.3v0
	c0,0.9-0.2,1.7-0.6,2.3c-0.4,0.7-1,1.2-1.8,1.5C1804.3,879,1803.4,879.2,1802.4,879.2z M1802.4,878.1c0.8,0,1.4-0.1,2-0.4
	c0.6-0.3,1-0.7,1.3-1.2c0.3-0.5,0.5-1.1,0.5-1.8v0c0-0.7-0.1-1.3-0.5-1.8c-0.3-0.5-0.8-0.9-1.3-1.1c-0.6-0.3-1.2-0.4-2-0.4
	s-1.4,0.1-2,0.4c-0.6,0.3-1,0.7-1.3,1.1c-0.3,0.5-0.5,1.1-0.5,1.8v0c0,0.7,0.2,1.3,0.5,1.8c0.3,0.5,0.8,0.9,1.3,1.2
	C1801,878,1801.6,878.1,1802.4,878.1z M1810,876.1v-1h4.1c0.6,0,1.1-0.1,1.5-0.4c0.3-0.3,0.5-0.7,0.5-1.3v0c0-0.5-0.2-1-0.5-1.3
	c-0.3-0.3-0.8-0.5-1.5-0.5h-4.1v-1h4.3c0.6,0,1.2,0.1,1.6,0.3c0.5,0.2,0.8,0.5,1.1,1c0.2,0.4,0.4,0.9,0.4,1.4v0c0,0.6-0.1,1-0.4,1.5
	c-0.2,0.4-0.6,0.7-1.1,1c-0.5,0.2-1,0.3-1.6,0.3H1810z M1809.4,879v-8.5h1.2v8.5H1809.4z M1819.2,879v-8.5h5.2
	c0.6,0,1.1,0.1,1.6,0.3c0.4,0.2,0.8,0.5,1,0.9c0.2,0.4,0.3,0.8,0.3,1.3v0c0,0.6-0.2,1.1-0.5,1.6c-0.3,0.4-0.8,0.7-1.4,0.9l2.1,3.4
	h-1.5l-2-3.3c0,0,0,0,0,0c0,0,0,0,0,0h-3.7v3.3H1819.2z M1820.4,874.7h3.9c0.6,0,1-0.1,1.3-0.4c0.3-0.3,0.4-0.7,0.4-1.2v0
	c0-0.5-0.2-0.9-0.5-1.1c-0.3-0.3-0.8-0.4-1.3-0.4h-3.9V874.7z M1834.2,879.2c-1,0-1.9-0.2-2.7-0.5c-0.8-0.4-1.3-0.9-1.8-1.5
	c-0.4-0.7-0.6-1.4-0.6-2.3v0c0-0.9,0.2-1.7,0.6-2.3c0.4-0.7,1-1.2,1.8-1.5c0.8-0.4,1.7-0.5,2.7-0.5c1,0,1.9,0.2,2.7,0.5
	c0.8,0.4,1.3,0.9,1.8,1.5c0.4,0.7,0.6,1.4,0.6,2.3v0c0,0.9-0.2,1.7-0.6,2.3c-0.4,0.7-1,1.2-1.8,1.5
	C1836.1,879,1835.2,879.2,1834.2,879.2z M1834.2,878.1c0.8,0,1.4-0.1,2-0.4c0.6-0.3,1-0.7,1.3-1.2c0.3-0.5,0.5-1.1,0.5-1.8v0
	c0-0.7-0.2-1.3-0.5-1.8c-0.3-0.5-0.8-0.9-1.3-1.1c-0.6-0.3-1.2-0.4-2-0.4c-0.8,0-1.4,0.1-2,0.4c-0.6,0.3-1,0.7-1.3,1.1
	c-0.3,0.5-0.5,1.1-0.5,1.8v0c0,0.7,0.2,1.3,0.5,1.8c0.3,0.5,0.8,0.9,1.3,1.2C1832.7,878,1833.4,878.1,1834.2,878.1z"/>
<path class="st0" d="M5.7,879.2c-1,0-1.9-0.2-2.6-0.5c-0.7-0.4-1.3-0.9-1.7-1.5c-0.4-0.7-0.6-1.4-0.6-2.3v0c0-0.9,0.2-1.7,0.6-2.3
	c0.4-0.7,1-1.2,1.7-1.5c0.7-0.4,1.6-0.5,2.6-0.5c1,0,1.8,0.2,2.6,0.5c0.7,0.4,1.3,0.9,1.7,1.5c0.4,0.7,0.6,1.4,0.6,2.3v0
	c0,0.9-0.2,1.7-0.6,2.3c-0.4,0.7-1,1.2-1.7,1.5C7.5,879,6.7,879.2,5.7,879.2z M5.7,877.1c0.4,0,0.7-0.1,1-0.3
	c0.3-0.2,0.5-0.5,0.7-0.8c0.2-0.4,0.2-0.8,0.2-1.3v0c0-0.5-0.1-0.9-0.2-1.3c-0.2-0.4-0.4-0.6-0.7-0.8c-0.3-0.2-0.6-0.3-1-0.3
	c-0.4,0-0.7,0.1-1,0.3c-0.3,0.2-0.5,0.5-0.7,0.8c-0.2,0.4-0.2,0.8-0.2,1.3v0c0,0.5,0.1,0.9,0.2,1.3c0.2,0.4,0.4,0.6,0.7,0.8
	C5,877,5.3,877.1,5.7,877.1z M14.6,879v-6.2h-0.1l-2.5,1.4V872l2.5-1.5h2.9v8.5H14.6z M28.3,879.2c-0.8,0-1.5-0.1-2.1-0.3
	c-0.6-0.2-1.1-0.5-1.6-0.9c-0.4-0.4-0.8-0.9-1-1.4c-0.2-0.5-0.4-1.2-0.4-1.8v0c0-0.9,0.2-1.6,0.6-2.3c0.4-0.7,1-1.2,1.8-1.5
	c0.8-0.4,1.6-0.5,2.7-0.5c0.8,0,1.5,0.1,2.2,0.3c0.7,0.2,1.2,0.5,1.6,1c0.4,0.4,0.7,0.9,0.9,1.5l0,0.1h-1.3l0-0.1
	c-0.2-0.5-0.7-1-1.3-1.2c-0.6-0.3-1.3-0.5-2.2-0.5c-0.8,0-1.4,0.1-2,0.4c-0.6,0.3-1,0.6-1.3,1.1c-0.3,0.5-0.5,1.1-0.5,1.7v0
	c0,0.5,0.1,1,0.3,1.4c0.2,0.4,0.4,0.8,0.8,1.1c0.3,0.3,0.7,0.5,1.2,0.7c0.5,0.2,1,0.2,1.6,0.2c0.7,0,1.3-0.1,1.8-0.3
	c0.5-0.2,0.9-0.5,1.2-0.8c0.3-0.4,0.5-0.8,0.6-1.3v-0.1h-3.5v-1h4.7v0.7c0,0.6-0.1,1.1-0.3,1.6c-0.2,0.5-0.5,0.9-1,1.2
	s-0.9,0.6-1.5,0.8C29.6,879.1,29,879.2,28.3,879.2z M39.7,879.2c-1,0-1.9-0.2-2.7-0.5c-0.8-0.4-1.3-0.9-1.8-1.5
	c-0.4-0.7-0.6-1.4-0.6-2.3v0c0-0.9,0.2-1.7,0.6-2.3c0.4-0.7,1-1.2,1.8-1.5c0.8-0.4,1.6-0.5,2.7-0.5c1,0,1.9,0.2,2.7,0.5
	c0.8,0.4,1.3,0.9,1.8,1.5c0.4,0.7,0.6,1.4,0.6,2.3v0c0,0.9-0.2,1.7-0.6,2.3c-0.4,0.7-1,1.2-1.8,1.5C41.6,879,40.8,879.2,39.7,879.2z
	 M39.7,878.1c0.8,0,1.4-0.1,2-0.4c0.6-0.3,1-0.7,1.3-1.2c0.3-0.5,0.5-1.1,0.5-1.8v0c0-0.7-0.2-1.3-0.5-1.8c-0.3-0.5-0.8-0.9-1.3-1.1
	c-0.6-0.3-1.2-0.4-2-0.4c-0.8,0-1.4,0.1-2,0.4c-0.6,0.3-1,0.7-1.3,1.1c-0.3,0.5-0.5,1.1-0.5,1.8v0c0,0.7,0.2,1.3,0.5,1.8
	c0.3,0.5,0.8,0.9,1.3,1.2C38.3,878,39,878.1,39.7,878.1z M47.3,876.1v-1h4.1c0.6,0,1.1-0.1,1.5-0.4c0.3-0.3,0.5-0.7,0.5-1.3v0
	c0-0.5-0.2-1-0.5-1.3c-0.3-0.3-0.8-0.5-1.5-0.5h-4.1v-1h4.3c0.6,0,1.2,0.1,1.6,0.3c0.5,0.2,0.8,0.5,1.1,1c0.3,0.4,0.4,0.9,0.4,1.4v0
	c0,0.6-0.1,1-0.4,1.5c-0.2,0.4-0.6,0.7-1.1,1c-0.5,0.2-1,0.3-1.6,0.3H47.3z M46.7,879v-8.5H48v8.5H46.7z M56.5,879v-8.5h5.2
	c0.6,0,1.1,0.1,1.6,0.3c0.4,0.2,0.8,0.5,1,0.9c0.2,0.4,0.4,0.8,0.4,1.3v0c0,0.6-0.2,1.1-0.5,1.6c-0.3,0.4-0.8,0.7-1.4,0.9L65,879
	h-1.5l-2-3.3c0,0,0,0,0,0s0,0,0,0h-3.7v3.3H56.5z M57.8,874.7h3.9c0.6,0,1-0.1,1.3-0.4c0.3-0.3,0.5-0.7,0.5-1.2v0
	c0-0.5-0.2-0.9-0.5-1.1c-0.3-0.3-0.7-0.4-1.3-0.4h-3.9V874.7z M71.5,879.2c-1,0-1.9-0.2-2.7-0.5c-0.8-0.4-1.3-0.9-1.8-1.5
	c-0.4-0.7-0.6-1.4-0.6-2.3v0c0-0.9,0.2-1.7,0.6-2.3c0.4-0.7,1-1.2,1.8-1.5c0.8-0.4,1.6-0.5,2.7-0.5c1,0,1.9,0.2,2.7,0.5
	c0.8,0.4,1.3,0.9,1.8,1.5c0.4,0.7,0.6,1.4,0.6,2.3v0c0,0.9-0.2,1.7-0.6,2.3c-0.4,0.7-1,1.2-1.8,1.5C73.4,879,72.5,879.2,71.5,879.2z
	 M71.5,878.1c0.8,0,1.4-0.1,2-0.4c0.6-0.3,1-0.7,1.3-1.2c0.3-0.5,0.5-1.1,0.5-1.8v0c0-0.7-0.2-1.3-0.5-1.8c-0.3-0.5-0.8-0.9-1.3-1.1
	c-0.6-0.3-1.2-0.4-2-0.4s-1.4,0.1-2,0.4c-0.6,0.3-1,0.7-1.3,1.1c-0.3,0.5-0.5,1.1-0.5,1.8v0c0,0.7,0.2,1.3,0.5,1.8
	c0.3,0.5,0.8,0.9,1.3,1.2C70,878,70.7,878.1,71.5,878.1z M85.9,879.2c-0.9,0-1.6-0.1-2.3-0.3c-0.6-0.2-1.1-0.5-1.5-0.8
	c-0.4-0.4-0.6-0.8-0.7-1.3l0-0.1h1.2l0,0.1c0.1,0.3,0.2,0.5,0.5,0.8c0.3,0.2,0.6,0.4,1.1,0.5c0.5,0.1,1,0.2,1.7,0.2
	c0.6,0,1-0.1,1.4-0.2c0.4-0.1,0.7-0.3,0.9-0.5c0.2-0.2,0.3-0.5,0.3-0.8v0c0-0.4-0.2-0.7-0.5-0.9c-0.3-0.2-0.8-0.3-1.6-0.4l-2-0.2
	c-1-0.1-1.8-0.4-2.2-0.7c-0.5-0.4-0.7-0.9-0.7-1.6v0c0-0.5,0.2-0.9,0.5-1.3c0.3-0.4,0.8-0.7,1.3-0.9c0.6-0.2,1.3-0.3,2.1-0.3
	c0.8,0,1.5,0.1,2.1,0.3c0.6,0.2,1.1,0.5,1.4,0.8c0.4,0.4,0.6,0.8,0.6,1.3l0,0.1h-1.2l0-0.1c-0.1-0.3-0.3-0.6-0.5-0.8
	c-0.2-0.2-0.6-0.4-1-0.5c-0.4-0.1-0.9-0.2-1.5-0.2c-0.5,0-1,0.1-1.4,0.2c-0.4,0.1-0.7,0.3-0.9,0.5c-0.2,0.2-0.3,0.5-0.3,0.7v0
	c0,0.4,0.2,0.6,0.5,0.8c0.3,0.2,0.8,0.3,1.5,0.4l2,0.2c0.7,0.1,1.3,0.2,1.7,0.4c0.4,0.2,0.8,0.4,1,0.8c0.2,0.3,0.3,0.7,0.3,1.2v0
	c0,0.6-0.2,1-0.5,1.4c-0.3,0.4-0.8,0.7-1.4,0.9C87.5,879.1,86.7,879.2,85.9,879.2z M94.7,879v-7.4H91v-1.1h8.6v1.1h-3.7v7.4H94.7z
	 M105.5,879.2c-1,0-1.9-0.2-2.7-0.5c-0.8-0.4-1.3-0.9-1.8-1.5c-0.4-0.7-0.6-1.4-0.6-2.3v0c0-0.9,0.2-1.7,0.6-2.3
	c0.4-0.7,1-1.2,1.8-1.5c0.8-0.4,1.6-0.5,2.7-0.5c1,0,1.9,0.2,2.7,0.5c0.8,0.4,1.3,0.9,1.8,1.5c0.4,0.7,0.6,1.4,0.6,2.3v0
	c0,0.9-0.2,1.7-0.6,2.3c-0.4,0.7-1,1.2-1.8,1.5C107.4,879,106.5,879.2,105.5,879.2z M105.5,878.1c0.8,0,1.4-0.1,2-0.4
	c0.6-0.3,1-0.7,1.3-1.2c0.3-0.5,0.5-1.1,0.5-1.8v0c0-0.7-0.2-1.3-0.5-1.8c-0.3-0.5-0.8-0.9-1.3-1.1c-0.6-0.3-1.2-0.4-2-0.4
	c-0.8,0-1.4,0.1-2,0.4c-0.6,0.3-1,0.7-1.3,1.1c-0.3,0.5-0.5,1.1-0.5,1.8v0c0,0.7,0.2,1.3,0.5,1.8c0.3,0.5,0.8,0.9,1.3,1.2
	C104,878,104.7,878.1,105.5,878.1z M112.5,879v-8.5h5.2c0.6,0,1.1,0.1,1.6,0.3c0.4,0.2,0.8,0.5,1,0.9c0.2,0.4,0.4,0.8,0.4,1.3v0
	c0,0.6-0.2,1.1-0.5,1.6c-0.3,0.4-0.8,0.7-1.4,0.9l2.1,3.4h-1.5l-2-3.3c0,0,0,0,0,0c0,0,0,0,0,0h-3.7v3.3H112.5z M113.7,874.7h3.9
	c0.6,0,1-0.1,1.3-0.4c0.3-0.3,0.5-0.7,0.5-1.2v0c0-0.5-0.2-0.9-0.5-1.1c-0.3-0.3-0.7-0.4-1.3-0.4h-3.9V874.7z M125.7,879v-3.4
	l-4-5.1h1.5l3.1,4h0.1l3.1-4h1.5l-4,5.1v3.4H125.7z"/>
<path class="st1" d="M0,850h40v-1.5H1.5V810H0V850z"/>
<path class="st1" d="M1840,850h-40v-1.5h38.5V810h1.5V850z"/>
<path class="st1" d="M0,0h40v1.5H1.5V40H0V0z"/>
<path class="st1" d="M1840,0h-40v1.5h38.5V40h1.5V0z"/>
<defs>
	<filter id="Adobe_OpacityMaskFilter" filterUnits="userSpaceOnUse" x="1778.5" y="16.5" width="43" height="27">
		<feColorMatrix  type="matrix" values="1 0 0 0 0  0 1 0 0 0  0 0 1 0 0  0 0 0 1 0"/>
	</filter>
</defs>
<mask maskUnits="userSpaceOnUse" x="1778.5" y="16.5" width="43" height="27" id="path-10-inside-1_599_80114_00000089545067218429973000000012592882391248585915_">
	<path class="st2" d="M1816,18h-36v24h36v-3h4V22h-4V18z"/>
</mask>
<path class="st3" d="M1780,18v-1.5h-1.5V18H1780z M1816,18h1.5v-1.5h-1.5V18z M1780,42h-1.5v1.5h1.5V42z M1816,42v1.5h1.5V42H1816z
	 M1816,39v-1.5h-1.5V39H1816z M1820,39v1.5h1.5V39H1820z M1820,22h1.5v-1.5h-1.5V22z M1816,22h-1.5v1.5h1.5V22z M1780,19.5h36v-3
	h-36V19.5z M1781.5,42V18h-3v24H1781.5z M1816,40.5h-36v3h36V40.5z M1814.5,39v3h3v-3H1814.5z M1820,37.5h-4v3h4V37.5z M1818.5,22
	v17h3V22H1818.5z M1816,23.5h4v-3h-4V23.5z M1814.5,18v4h3v-4H1814.5z"/>
<rect x="1784" y="22" class="st4" width="28" height="16"/>
<g>
	<circle class="st5" cx="28" cy="28" r="10"/>
</g>
<circle class="st6" cx="28" cy="28" r="9.5"/>
</svg>
