<svg width="1840" height="881" viewBox="0 0 1840 881" fill="none" xmlns="http://www.w3.org/2000/svg">
<path d="M1790.94 879.176C1790.18 879.176 1789.49 879.072 1788.87 878.865C1788.25 878.658 1787.72 878.361 1787.28 877.975C1786.84 877.584 1786.5 877.117 1786.26 876.574C1786.02 876.027 1785.91 875.42 1785.91 874.752V874.74C1785.91 873.861 1786.11 873.094 1786.53 872.438C1786.95 871.781 1787.53 871.273 1788.29 870.914C1789.04 870.551 1789.93 870.369 1790.94 870.369C1791.75 870.369 1792.48 870.484 1793.13 870.715C1793.78 870.941 1794.33 871.264 1794.76 871.682C1795.19 872.096 1795.49 872.584 1795.65 873.146L1795.67 873.211H1794.39L1794.37 873.158C1794.13 872.623 1793.71 872.207 1793.11 871.91C1792.52 871.609 1791.8 871.459 1790.95 871.459C1790.18 871.459 1789.51 871.594 1788.95 871.863C1788.38 872.129 1787.95 872.508 1787.63 873C1787.33 873.488 1787.17 874.068 1787.17 874.74V874.752C1787.17 875.26 1787.26 875.721 1787.44 876.135C1787.61 876.545 1787.87 876.896 1788.2 877.189C1788.53 877.479 1788.93 877.701 1789.39 877.857C1789.86 878.014 1790.38 878.092 1790.96 878.092C1791.62 878.092 1792.21 877.998 1792.71 877.811C1793.21 877.623 1793.62 877.354 1793.92 877.002C1794.22 876.646 1794.41 876.225 1794.48 875.736V875.643H1790.99V874.658H1795.72V875.309C1795.72 875.887 1795.61 876.414 1795.38 876.891C1795.16 877.363 1794.84 877.771 1794.41 878.115C1793.99 878.459 1793.49 878.723 1792.9 878.906C1792.32 879.086 1791.66 879.176 1790.94 879.176ZM1802.4 879.176C1801.37 879.176 1800.48 878.996 1799.72 878.637C1798.96 878.277 1798.38 877.768 1797.96 877.107C1797.55 876.447 1797.34 875.67 1797.34 874.775V874.764C1797.34 873.869 1797.55 873.094 1797.96 872.438C1798.38 871.777 1798.97 871.268 1799.73 870.908C1800.49 870.549 1801.38 870.369 1802.4 870.369C1803.42 870.369 1804.31 870.549 1805.07 870.908C1805.83 871.268 1806.42 871.777 1806.83 872.438C1807.25 873.094 1807.46 873.869 1807.46 874.764V874.775C1807.46 875.67 1807.25 876.447 1806.83 877.107C1806.42 877.768 1805.83 878.277 1805.07 878.637C1804.31 878.996 1803.42 879.176 1802.4 879.176ZM1802.4 878.086C1803.17 878.086 1803.83 877.951 1804.4 877.682C1804.97 877.408 1805.41 877.023 1805.72 876.527C1806.04 876.027 1806.19 875.443 1806.19 874.775V874.764C1806.19 874.092 1806.04 873.508 1805.72 873.012C1805.41 872.516 1804.97 872.133 1804.4 871.863C1803.83 871.594 1803.17 871.459 1802.4 871.459C1801.63 871.459 1800.97 871.594 1800.4 871.863C1799.83 872.133 1799.39 872.516 1799.08 873.012C1798.77 873.508 1798.61 874.092 1798.61 874.764V874.775C1798.61 875.443 1798.76 876.027 1799.07 876.527C1799.38 877.023 1799.82 877.408 1800.39 877.682C1800.96 877.951 1801.63 878.086 1802.4 878.086ZM1810.01 876.053V875.016H1814.12C1814.76 875.016 1815.25 874.867 1815.6 874.57C1815.94 874.27 1816.11 873.848 1816.11 873.305V873.293C1816.11 872.754 1815.94 872.336 1815.6 872.039C1815.25 871.738 1814.76 871.588 1814.12 871.588H1810.01V870.545H1814.31C1814.93 870.545 1815.47 870.658 1815.93 870.885C1816.39 871.111 1816.74 871.43 1816.99 871.84C1817.24 872.246 1817.37 872.727 1817.37 873.281V873.293C1817.37 873.844 1817.24 874.328 1816.99 874.746C1816.74 875.16 1816.38 875.482 1815.92 875.713C1815.47 875.939 1814.93 876.053 1814.31 876.053H1810.01ZM1809.39 879V870.545H1810.63V879H1809.39ZM1819.21 879V870.545H1824.45C1825.05 870.545 1825.57 870.65 1826 870.861C1826.44 871.068 1826.78 871.361 1827.02 871.74C1827.25 872.119 1827.37 872.568 1827.37 873.088V873.1C1827.37 873.713 1827.21 874.232 1826.89 874.658C1826.56 875.08 1826.1 875.379 1825.5 875.555L1827.64 879H1826.18L1824.19 875.719C1824.18 875.719 1824.17 875.719 1824.16 875.719C1824.14 875.719 1824.13 875.719 1824.12 875.719H1820.45V879H1819.21ZM1820.45 874.705H1824.37C1824.92 874.705 1825.35 874.57 1825.65 874.301C1825.95 874.027 1826.1 873.641 1826.1 873.141V873.129C1826.1 872.648 1825.94 872.271 1825.63 871.998C1825.31 871.725 1824.88 871.588 1824.33 871.588H1820.45V874.705ZM1834.15 879.176C1833.12 879.176 1832.23 878.996 1831.47 878.637C1830.71 878.277 1830.12 877.768 1829.71 877.107C1829.3 876.447 1829.09 875.67 1829.09 874.775V874.764C1829.09 873.869 1829.3 873.094 1829.71 872.438C1830.13 871.777 1830.72 871.268 1831.47 870.908C1832.23 870.549 1833.12 870.369 1834.15 870.369C1835.17 870.369 1836.05 870.549 1836.81 870.908C1837.57 871.268 1838.16 871.777 1838.58 872.438C1838.99 873.094 1839.2 873.869 1839.2 874.764V874.775C1839.2 875.67 1838.99 876.447 1838.58 877.107C1838.16 877.768 1837.58 878.277 1836.82 878.637C1836.06 878.996 1835.17 879.176 1834.15 879.176ZM1834.15 878.086C1834.91 878.086 1835.58 877.951 1836.14 877.682C1836.71 877.408 1837.16 877.023 1837.47 876.527C1837.78 876.027 1837.94 875.443 1837.94 874.775V874.764C1837.94 874.092 1837.78 873.508 1837.47 873.012C1837.16 872.516 1836.71 872.133 1836.14 871.863C1835.58 871.594 1834.91 871.459 1834.15 871.459C1833.38 871.459 1832.71 871.594 1832.14 871.863C1831.58 872.133 1831.14 872.516 1830.82 873.012C1830.51 873.508 1830.36 874.092 1830.36 874.764V874.775C1830.36 875.443 1830.51 876.027 1830.82 876.527C1831.13 877.023 1831.57 877.408 1832.14 877.682C1832.71 877.951 1833.38 878.086 1834.15 878.086Z" fill="#F8F8F8"/>
<path d="M890.393 879V870.545H891.629V874.148H897.975V870.545H899.217V879H897.975V875.215H891.629V879H890.393ZM901.49 879V870.545H908.844V871.6H902.727V874.172H908.434V875.191H902.727V877.945H908.844V879H901.49ZM910.877 879V870.545H916.115C916.717 870.545 917.234 870.65 917.668 870.861C918.105 871.068 918.443 871.361 918.682 871.74C918.92 872.119 919.039 872.568 919.039 873.088V873.1C919.039 873.713 918.877 874.232 918.553 874.658C918.229 875.08 917.766 875.379 917.164 875.555L919.309 879H917.85L915.857 875.719C915.846 875.719 915.834 875.719 915.822 875.719C915.811 875.719 915.799 875.719 915.787 875.719H912.113V879H910.877ZM912.113 874.705H916.033C916.588 874.705 917.016 874.57 917.316 874.301C917.617 874.027 917.768 873.641 917.768 873.141V873.129C917.768 872.648 917.609 872.271 917.293 871.998C916.98 871.725 916.547 871.588 915.992 871.588H912.113V874.705ZM925.812 879.176C924.785 879.176 923.893 878.996 923.135 878.637C922.377 878.277 921.791 877.768 921.377 877.107C920.963 876.447 920.756 875.67 920.756 874.775V874.764C920.756 873.869 920.963 873.094 921.377 872.438C921.795 871.777 922.383 871.268 923.141 870.908C923.898 870.549 924.789 870.369 925.812 870.369C926.832 870.369 927.721 870.549 928.479 870.908C929.24 871.268 929.828 871.777 930.242 872.438C930.66 873.094 930.869 873.869 930.869 874.764V874.775C930.869 875.67 930.66 876.447 930.242 877.107C929.828 877.768 929.242 878.277 928.484 878.637C927.727 878.996 926.836 879.176 925.812 879.176ZM925.812 878.086C926.578 878.086 927.244 877.951 927.811 877.682C928.381 877.408 928.822 877.023 929.135 876.527C929.447 876.027 929.604 875.443 929.604 874.775V874.764C929.604 874.092 929.447 873.508 929.135 873.012C928.822 872.516 928.381 872.133 927.811 871.863C927.244 871.594 926.578 871.459 925.812 871.459C925.047 871.459 924.379 871.594 923.809 871.863C923.242 872.133 922.803 872.516 922.49 873.012C922.178 873.508 922.021 874.092 922.021 874.764V874.775C922.021 875.443 922.176 876.027 922.484 876.527C922.797 877.023 923.236 877.408 923.803 877.682C924.373 877.951 925.043 878.086 925.812 878.086ZM938.434 879V871.764H938.381L935.873 873.234V872.068L938.428 870.545H939.652V879H938.434ZM942.137 879V878.174L946.631 875.145C947.072 874.832 947.42 874.561 947.674 874.33C947.928 874.1 948.107 873.883 948.213 873.68C948.322 873.473 948.377 873.25 948.377 873.012V873C948.377 872.672 948.283 872.389 948.096 872.15C947.908 871.908 947.639 871.721 947.287 871.588C946.936 871.455 946.512 871.389 946.016 871.389C945.5 871.389 945.053 871.461 944.674 871.605C944.295 871.746 943.992 871.951 943.766 872.221C943.543 872.486 943.408 872.811 943.361 873.193L943.344 873.258L942.166 873.252L942.16 873.217C942.207 872.631 942.395 872.125 942.723 871.699C943.051 871.27 943.496 870.939 944.059 870.709C944.625 870.479 945.287 870.363 946.045 870.363C946.779 870.363 947.414 870.469 947.949 870.68C948.484 870.891 948.895 871.189 949.18 871.576C949.469 871.959 949.613 872.418 949.613 872.953V872.965C949.613 873.309 949.543 873.631 949.402 873.932C949.262 874.229 949.025 874.535 948.693 874.852C948.361 875.164 947.908 875.521 947.334 875.924L943.953 878.162L944.328 877.482V878.379L943.895 877.957H949.859V879H942.137Z" fill="#F8F8F8"/>
<path d="M5.68359 879.188C4.69141 879.188 3.82812 879.006 3.09375 878.643C2.36328 878.279 1.79688 877.768 1.39453 877.107C0.992188 876.447 0.791016 875.668 0.791016 874.77V874.758C0.791016 873.855 0.992188 873.074 1.39453 872.414C1.79688 871.754 2.36328 871.242 3.09375 870.879C3.82812 870.516 4.69141 870.334 5.68359 870.334C6.67188 870.334 7.5293 870.516 8.25586 870.879C8.98633 871.242 9.55078 871.756 9.94922 872.42C10.3516 873.08 10.5527 873.859 10.5527 874.758V874.77C10.5527 875.668 10.3516 876.447 9.94922 877.107C9.55078 877.768 8.98633 878.279 8.25586 878.643C7.5293 879.006 6.67188 879.188 5.68359 879.188ZM5.68359 877.113C6.07031 877.113 6.40625 877.02 6.69141 876.832C6.97656 876.645 7.19531 876.375 7.34766 876.023C7.50391 875.672 7.58203 875.252 7.58203 874.764V874.752C7.58203 874.268 7.50391 873.85 7.34766 873.498C7.19531 873.146 6.97656 872.877 6.69141 872.689C6.40625 872.502 6.07031 872.408 5.68359 872.408C5.29297 872.408 4.95312 872.502 4.66406 872.689C4.37891 872.877 4.1582 873.146 4.00195 873.498C3.8457 873.85 3.76758 874.268 3.76758 874.752V874.764C3.76758 875.252 3.8457 875.672 4.00195 876.023C4.1582 876.375 4.37891 876.645 4.66406 876.832C4.95312 877.02 5.29297 877.113 5.68359 877.113ZM12.2109 879V877.23L16.1016 874.975C16.5742 874.686 16.9375 874.445 17.1914 874.254C17.4492 874.059 17.627 873.887 17.7246 873.738C17.8262 873.586 17.877 873.426 17.877 873.258V873.24C17.877 873.049 17.8203 872.885 17.707 872.748C17.5938 872.611 17.4297 872.508 17.2148 872.438C17 872.367 16.7422 872.332 16.4414 872.332C16.1094 872.332 15.8203 872.379 15.5742 872.473C15.332 872.566 15.1387 872.701 14.9941 872.877C14.8535 873.049 14.7715 873.256 14.748 873.498V873.562H12.0586V873.504C12.1094 872.844 12.3203 872.277 12.6914 871.805C13.0625 871.332 13.5762 870.969 14.2324 870.715C14.8887 870.461 15.6641 870.334 16.5586 870.334C17.4258 870.334 18.168 870.443 18.7852 870.662C19.4062 870.877 19.8809 871.186 20.209 871.588C20.541 871.986 20.707 872.465 20.707 873.023V873.047C20.707 873.402 20.6289 873.734 20.4727 874.043C20.3164 874.352 20.0625 874.658 19.7109 874.963C19.3594 875.264 18.8887 875.584 18.2988 875.924L15.8438 877.342L16.5586 876.094V877.828L15.7676 876.996H20.8594V879H12.2109ZM26.1797 879V870.545H27.6504L31.4297 877.57H31.4941L35.2676 870.545H36.7441V879H35.5723V872.426H35.0332L36.2578 870.973L31.957 879H30.9668L26.666 870.973L27.8906 872.426H27.3516V879H26.1797ZM38.3438 879L42.5742 870.545H43.5938V871.799H43.2188L39.6621 879H38.3438ZM40.1602 876.65L40.6406 875.666H45.8613L46.3301 876.65H40.1602ZM46.834 879L43.2715 871.799V870.545H43.916L48.1523 879H46.834ZM49.0488 879L53.2207 874.424L52.8926 875.168V874.77L49.084 870.545H50.6543L53.748 874.008H54.2109L53.4727 874.371L56.9004 870.545H58.4238L54.5625 874.781V875.18L54.2285 874.436L58.3711 879H56.8066L53.7363 875.613H53.2734L54.0234 875.256L50.5664 879H49.0488ZM63.5625 879V870.545H64.7988V877.934H70.4004V879H63.5625ZM72.1992 879V870.545H79.5527V871.6H73.4355V874.172H79.1426V875.191H73.4355V877.945H79.5527V879H72.1992ZM81.5859 879V870.545H82.752L89.8477 877.934L88.5762 877.242H89.1562V870.545H90.3691V879H89.2031L82.1074 871.605L83.3789 872.297H82.8047V879H81.5859ZM96.6738 879.176C95.7871 879.176 95.0273 879.08 94.3945 878.889C93.7617 878.697 93.2637 878.42 92.9004 878.057C92.5371 877.689 92.3203 877.252 92.25 876.744L92.2383 876.674H93.4863L93.498 876.738C93.5723 877.035 93.7422 877.287 94.0078 877.494C94.2734 877.697 94.6348 877.852 95.0918 877.957C95.5527 878.062 96.1074 878.115 96.7559 878.115C97.3105 878.115 97.7871 878.057 98.1855 877.939C98.5879 877.822 98.8965 877.654 99.1113 877.436C99.3262 877.213 99.4336 876.951 99.4336 876.65V876.645C99.4336 876.262 99.2812 875.971 98.9766 875.771C98.6719 875.568 98.1445 875.426 97.3945 875.344L95.4023 875.162C94.3945 875.053 93.6504 874.809 93.1699 874.43C92.6934 874.051 92.4551 873.529 92.4551 872.865V872.854C92.4551 872.35 92.6133 871.912 92.9297 871.541C93.2461 871.17 93.6934 870.883 94.2715 870.68C94.8496 870.473 95.5332 870.369 96.3223 870.369C97.1543 870.369 97.8691 870.467 98.4668 870.662C99.0684 870.857 99.543 871.139 99.8906 871.506C100.242 871.869 100.453 872.305 100.523 872.812L100.535 872.871H99.293L99.2754 872.812C99.1816 872.508 99.0137 872.254 98.7715 872.051C98.5332 871.848 98.2109 871.693 97.8047 871.588C97.3984 871.482 96.8984 871.43 96.3047 871.43C95.7617 871.43 95.2969 871.484 94.9102 871.594C94.5234 871.703 94.2266 871.861 94.0195 872.068C93.8164 872.271 93.7148 872.52 93.7148 872.812V872.818C93.7148 873.178 93.8652 873.457 94.166 873.656C94.4707 873.855 94.9707 873.992 95.666 874.066L97.6699 874.248C98.377 874.326 98.9512 874.459 99.3926 874.646C99.8379 874.834 100.166 875.086 100.377 875.402C100.588 875.715 100.693 876.1 100.693 876.557V876.562C100.693 877.113 100.535 877.584 100.219 877.975C99.9023 878.365 99.4434 878.664 98.8418 878.871C98.2441 879.074 97.5215 879.176 96.6738 879.176ZM105.961 879V870.545H107.432L111.211 877.57H111.275L115.049 870.545H116.525V879H115.354V872.426H114.814L116.039 870.973L111.738 879H110.748L106.447 870.973L107.672 872.426H107.133V879H105.961ZM123.51 879.176C122.482 879.176 121.59 878.996 120.832 878.637C120.074 878.277 119.488 877.768 119.074 877.107C118.66 876.447 118.453 875.67 118.453 874.775V874.764C118.453 873.869 118.66 873.094 119.074 872.438C119.492 871.777 120.08 871.268 120.838 870.908C121.596 870.549 122.486 870.369 123.51 870.369C124.529 870.369 125.418 870.549 126.176 870.908C126.938 871.268 127.525 871.777 127.939 872.438C128.357 873.094 128.566 873.869 128.566 874.764V874.775C128.566 875.67 128.357 876.447 127.939 877.107C127.525 877.768 126.939 878.277 126.182 878.637C125.424 878.996 124.533 879.176 123.51 879.176ZM123.51 878.086C124.275 878.086 124.941 877.951 125.508 877.682C126.078 877.408 126.52 877.023 126.832 876.527C127.145 876.027 127.301 875.443 127.301 874.775V874.764C127.301 874.092 127.145 873.508 126.832 873.012C126.52 872.516 126.078 872.133 125.508 871.863C124.941 871.594 124.275 871.459 123.51 871.459C122.744 871.459 122.076 871.594 121.506 871.863C120.939 872.133 120.5 872.516 120.188 873.012C119.875 873.508 119.719 874.092 119.719 874.764V874.775C119.719 875.443 119.873 876.027 120.182 876.527C120.494 877.023 120.934 877.408 121.5 877.682C122.07 877.951 122.74 878.086 123.51 878.086ZM130.5 879V870.545H134.977C135.953 870.545 136.783 870.711 137.467 871.043C138.15 871.375 138.67 871.855 139.025 872.484C139.385 873.113 139.564 873.871 139.564 874.758V874.77C139.564 875.656 139.387 876.416 139.031 877.049C138.676 877.682 138.156 878.166 137.473 878.502C136.789 878.834 135.957 879 134.977 879H130.5ZM131.736 877.934H134.9C135.635 877.934 136.254 877.812 136.758 877.57C137.262 877.324 137.645 876.967 137.906 876.498C138.168 876.029 138.299 875.457 138.299 874.781V874.77C138.299 874.098 138.168 873.527 137.906 873.059C137.648 872.586 137.266 872.227 136.758 871.98C136.254 871.734 135.635 871.611 134.9 871.611H131.736V877.934ZM144.721 879V878.174L149.215 875.145C149.656 874.832 150.004 874.561 150.258 874.33C150.512 874.1 150.691 873.883 150.797 873.68C150.906 873.473 150.961 873.25 150.961 873.012V873C150.961 872.672 150.867 872.389 150.68 872.15C150.492 871.908 150.223 871.721 149.871 871.588C149.52 871.455 149.096 871.389 148.6 871.389C148.084 871.389 147.637 871.461 147.258 871.605C146.879 871.746 146.576 871.951 146.35 872.221C146.127 872.486 145.992 872.811 145.945 873.193L145.928 873.258L144.75 873.252L144.744 873.217C144.791 872.631 144.979 872.125 145.307 871.699C145.635 871.27 146.08 870.939 146.643 870.709C147.209 870.479 147.871 870.363 148.629 870.363C149.363 870.363 149.998 870.469 150.533 870.68C151.068 870.891 151.479 871.189 151.764 871.576C152.053 871.959 152.197 872.418 152.197 872.953V872.965C152.197 873.309 152.127 873.631 151.986 873.932C151.846 874.229 151.609 874.535 151.277 874.852C150.945 875.164 150.492 875.521 149.918 875.924L146.537 878.162L146.912 877.482V878.379L146.479 877.957H152.443V879H144.721ZM155.168 879.076C154.953 879.076 154.77 879.002 154.617 878.854C154.469 878.705 154.395 878.525 154.395 878.314C154.395 878.1 154.469 877.92 154.617 877.775C154.77 877.627 154.955 877.553 155.174 877.553C155.389 877.553 155.57 877.627 155.719 877.775C155.871 877.92 155.947 878.1 155.947 878.314C155.947 878.525 155.871 878.705 155.719 878.854C155.57 879.002 155.387 879.076 155.168 879.076ZM162.082 879.176C161.191 879.176 160.42 878.994 159.768 878.631C159.115 878.268 158.611 877.756 158.256 877.096C157.9 876.436 157.723 875.662 157.723 874.775V874.764C157.723 873.877 157.9 873.105 158.256 872.449C158.611 871.789 159.115 871.277 159.768 870.914C160.42 870.547 161.191 870.363 162.082 870.363C162.953 870.363 163.709 870.547 164.35 870.914C164.994 871.277 165.492 871.789 165.844 872.449C166.195 873.109 166.371 873.881 166.371 874.764V874.775C166.371 875.658 166.195 876.43 165.844 877.09C165.492 877.75 164.994 878.264 164.35 878.631C163.709 878.994 162.953 879.176 162.082 879.176ZM162.082 878.145C162.703 878.145 163.24 878.004 163.693 877.723C164.15 877.441 164.502 877.049 164.748 876.545C164.998 876.041 165.123 875.449 165.123 874.77V874.758C165.123 874.082 164.998 873.492 164.748 872.988C164.502 872.484 164.15 872.094 163.693 871.816C163.24 871.539 162.703 871.4 162.082 871.4C161.441 871.4 160.889 871.539 160.424 871.816C159.959 872.094 159.602 872.484 159.352 872.988C159.102 873.488 158.977 874.078 158.977 874.758V874.77C158.977 875.453 159.102 876.047 159.352 876.551C159.602 877.055 159.959 877.447 160.424 877.729C160.889 878.006 161.441 878.145 162.082 878.145Z" fill="#F8F8F8"/>
<path fill-rule="evenodd" clip-rule="evenodd" d="M0 850H40V848.5H1.5V810H0V850Z" fill="#636366"/>
<path fill-rule="evenodd" clip-rule="evenodd" d="M1840 850H1800V848.5H1838.5V810H1840V850Z" fill="#636366"/>
<path d="M918.5 850V830H920V850H918.5Z" fill="#636366"/>
<path fill-rule="evenodd" clip-rule="evenodd" d="M0 0H40V1.5H1.5V40H0V0Z" fill="#636366"/>
<path fill-rule="evenodd" clip-rule="evenodd" d="M1840 0H1800V1.5H1838.5V40H1840V0Z" fill="#636366"/>
<path d="M918.5 0V20H920V0H918.5Z" fill="#636366"/>
<mask id="path-10-inside-1_747_10847" fill="white">
<path fill-rule="evenodd" clip-rule="evenodd" d="M1816 18H1780V42H1816V39H1820V22H1816V18Z"/>
</mask>
<path d="M1780 18V16.5H1778.5V18H1780ZM1816 18H1817.5V16.5H1816V18ZM1780 42H1778.5V43.5H1780V42ZM1816 42V43.5H1817.5V42H1816ZM1816 39V37.5H1814.5V39H1816ZM1820 39V40.5H1821.5V39H1820ZM1820 22H1821.5V20.5H1820V22ZM1816 22H1814.5V23.5H1816V22ZM1780 19.5H1816V16.5H1780V19.5ZM1781.5 42V18H1778.5V42H1781.5ZM1816 40.5H1780V43.5H1816V40.5ZM1814.5 39V42H1817.5V39H1814.5ZM1820 37.5H1816V40.5H1820V37.5ZM1818.5 22V39H1821.5V22H1818.5ZM1816 23.5H1820V20.5H1816V23.5ZM1814.5 18V22H1817.5V18H1814.5Z" fill="#F8F8F8" mask="url(#path-10-inside-1_747_10847)"/>
<rect x="1784" y="22" width="28" height="16" fill="#E0FF05"/>
<g filter="url(#filter0_f_747_10847)">
<circle cx="28" cy="28" r="10" fill="#800E0F"/>
</g>
<circle cx="28" cy="28" r="9.5" fill="#E6191B" stroke="#800E0F"/>
<defs>
<filter id="filter0_f_747_10847" x="8" y="8" width="40" height="40" filterUnits="userSpaceOnUse" color-interpolation-filters="sRGB">
<feFlood flood-opacity="0" result="BackgroundImageFix"/>
<feBlend mode="normal" in="SourceGraphic" in2="BackgroundImageFix" result="shape"/>
<feGaussianBlur stdDeviation="5" result="effect1_foregroundBlur_747_10847"/>
</filter>
</defs>
</svg>
