<svg width="1840" height="881" viewBox="0 0 1840 881" fill="none" xmlns="http://www.w3.org/2000/svg">
<path d="M1790.94 879.176C1790.18 879.176 1789.49 879.072 1788.87 878.865C1788.25 878.658 1787.72 878.361 1787.28 877.975C1786.84 877.584 1786.5 877.117 1786.26 876.574C1786.02 876.027 1785.91 875.42 1785.91 874.752V874.74C1785.91 873.861 1786.11 873.094 1786.53 872.438C1786.95 871.781 1787.53 871.273 1788.29 870.914C1789.04 870.551 1789.93 870.369 1790.94 870.369C1791.75 870.369 1792.48 870.484 1793.13 870.715C1793.78 870.941 1794.33 871.264 1794.76 871.682C1795.19 872.096 1795.49 872.584 1795.65 873.146L1795.67 873.211H1794.39L1794.37 873.158C1794.13 872.623 1793.71 872.207 1793.11 871.91C1792.52 871.609 1791.8 871.459 1790.95 871.459C1790.18 871.459 1789.51 871.594 1788.95 871.863C1788.38 872.129 1787.95 872.508 1787.63 873C1787.33 873.488 1787.17 874.068 1787.17 874.74V874.752C1787.17 875.26 1787.26 875.721 1787.44 876.135C1787.61 876.545 1787.87 876.896 1788.2 877.189C1788.53 877.479 1788.93 877.701 1789.39 877.857C1789.86 878.014 1790.38 878.092 1790.96 878.092C1791.62 878.092 1792.21 877.998 1792.71 877.811C1793.21 877.623 1793.62 877.354 1793.92 877.002C1794.22 876.646 1794.41 876.225 1794.48 875.736V875.643H1790.99V874.658H1795.72V875.309C1795.72 875.887 1795.61 876.414 1795.38 876.891C1795.16 877.363 1794.84 877.771 1794.41 878.115C1793.99 878.459 1793.49 878.723 1792.9 878.906C1792.32 879.086 1791.66 879.176 1790.94 879.176ZM1802.4 879.176C1801.37 879.176 1800.48 878.996 1799.72 878.637C1798.96 878.277 1798.38 877.768 1797.96 877.107C1797.55 876.447 1797.34 875.67 1797.34 874.775V874.764C1797.34 873.869 1797.55 873.094 1797.96 872.438C1798.38 871.777 1798.97 871.268 1799.73 870.908C1800.49 870.549 1801.38 870.369 1802.4 870.369C1803.42 870.369 1804.31 870.549 1805.07 870.908C1805.83 871.268 1806.42 871.777 1806.83 872.438C1807.25 873.094 1807.46 873.869 1807.46 874.764V874.775C1807.46 875.67 1807.25 876.447 1806.83 877.107C1806.42 877.768 1805.83 878.277 1805.07 878.637C1804.31 878.996 1803.42 879.176 1802.4 879.176ZM1802.4 878.086C1803.17 878.086 1803.83 877.951 1804.4 877.682C1804.97 877.408 1805.41 877.023 1805.72 876.527C1806.04 876.027 1806.19 875.443 1806.19 874.775V874.764C1806.19 874.092 1806.04 873.508 1805.72 873.012C1805.41 872.516 1804.97 872.133 1804.4 871.863C1803.83 871.594 1803.17 871.459 1802.4 871.459C1801.63 871.459 1800.97 871.594 1800.4 871.863C1799.83 872.133 1799.39 872.516 1799.08 873.012C1798.77 873.508 1798.61 874.092 1798.61 874.764V874.775C1798.61 875.443 1798.76 876.027 1799.07 876.527C1799.38 877.023 1799.82 877.408 1800.39 877.682C1800.96 877.951 1801.63 878.086 1802.4 878.086ZM1810.01 876.053V875.016H1814.12C1814.76 875.016 1815.25 874.867 1815.6 874.57C1815.94 874.27 1816.11 873.848 1816.11 873.305V873.293C1816.11 872.754 1815.94 872.336 1815.6 872.039C1815.25 871.738 1814.76 871.588 1814.12 871.588H1810.01V870.545H1814.31C1814.93 870.545 1815.47 870.658 1815.93 870.885C1816.39 871.111 1816.74 871.43 1816.99 871.84C1817.24 872.246 1817.37 872.727 1817.37 873.281V873.293C1817.37 873.844 1817.24 874.328 1816.99 874.746C1816.74 875.16 1816.38 875.482 1815.92 875.713C1815.47 875.939 1814.93 876.053 1814.31 876.053H1810.01ZM1809.39 879V870.545H1810.63V879H1809.39ZM1819.21 879V870.545H1824.45C1825.05 870.545 1825.57 870.65 1826 870.861C1826.44 871.068 1826.78 871.361 1827.02 871.74C1827.25 872.119 1827.37 872.568 1827.37 873.088V873.1C1827.37 873.713 1827.21 874.232 1826.89 874.658C1826.56 875.08 1826.1 875.379 1825.5 875.555L1827.64 879H1826.18L1824.19 875.719C1824.18 875.719 1824.17 875.719 1824.16 875.719C1824.14 875.719 1824.13 875.719 1824.12 875.719H1820.45V879H1819.21ZM1820.45 874.705H1824.37C1824.92 874.705 1825.35 874.57 1825.65 874.301C1825.95 874.027 1826.1 873.641 1826.1 873.141V873.129C1826.1 872.648 1825.94 872.271 1825.63 871.998C1825.31 871.725 1824.88 871.588 1824.33 871.588H1820.45V874.705ZM1834.15 879.176C1833.12 879.176 1832.23 878.996 1831.47 878.637C1830.71 878.277 1830.12 877.768 1829.71 877.107C1829.3 876.447 1829.09 875.67 1829.09 874.775V874.764C1829.09 873.869 1829.3 873.094 1829.71 872.438C1830.13 871.777 1830.72 871.268 1831.47 870.908C1832.23 870.549 1833.12 870.369 1834.15 870.369C1835.17 870.369 1836.05 870.549 1836.81 870.908C1837.57 871.268 1838.16 871.777 1838.58 872.438C1838.99 873.094 1839.2 873.869 1839.2 874.764V874.775C1839.2 875.67 1838.99 876.447 1838.58 877.107C1838.16 877.768 1837.58 878.277 1836.82 878.637C1836.06 878.996 1835.17 879.176 1834.15 879.176ZM1834.15 878.086C1834.91 878.086 1835.58 877.951 1836.14 877.682C1836.71 877.408 1837.16 877.023 1837.47 876.527C1837.78 876.027 1837.94 875.443 1837.94 874.775V874.764C1837.94 874.092 1837.78 873.508 1837.47 873.012C1837.16 872.516 1836.71 872.133 1836.14 871.863C1835.58 871.594 1834.91 871.459 1834.15 871.459C1833.38 871.459 1832.71 871.594 1832.14 871.863C1831.58 872.133 1831.14 872.516 1830.82 873.012C1830.51 873.508 1830.36 874.092 1830.36 874.764V874.775C1830.36 875.443 1830.51 876.027 1830.82 876.527C1831.13 877.023 1831.57 877.408 1832.14 877.682C1832.71 877.951 1833.38 878.086 1834.15 878.086Z" fill="#F8F8F8"/>
<path d="M5.68359 879.188C4.69141 879.188 3.82812 879.006 3.09375 878.643C2.36328 878.279 1.79688 877.768 1.39453 877.107C0.992188 876.447 0.791016 875.668 0.791016 874.77V874.758C0.791016 873.855 0.992188 873.074 1.39453 872.414C1.79688 871.754 2.36328 871.242 3.09375 870.879C3.82812 870.516 4.69141 870.334 5.68359 870.334C6.67188 870.334 7.5293 870.516 8.25586 870.879C8.98633 871.242 9.55078 871.756 9.94922 872.42C10.3516 873.08 10.5527 873.859 10.5527 874.758V874.77C10.5527 875.668 10.3516 876.447 9.94922 877.107C9.55078 877.768 8.98633 878.279 8.25586 878.643C7.5293 879.006 6.67188 879.188 5.68359 879.188ZM5.68359 877.113C6.07031 877.113 6.40625 877.02 6.69141 876.832C6.97656 876.645 7.19531 876.375 7.34766 876.023C7.50391 875.672 7.58203 875.252 7.58203 874.764V874.752C7.58203 874.268 7.50391 873.85 7.34766 873.498C7.19531 873.146 6.97656 872.877 6.69141 872.689C6.40625 872.502 6.07031 872.408 5.68359 872.408C5.29297 872.408 4.95312 872.502 4.66406 872.689C4.37891 872.877 4.1582 873.146 4.00195 873.498C3.8457 873.85 3.76758 874.268 3.76758 874.752V874.764C3.76758 875.252 3.8457 875.672 4.00195 876.023C4.1582 876.375 4.37891 876.645 4.66406 876.832C4.95312 877.02 5.29297 877.113 5.68359 877.113ZM12.2109 879V877.23L16.1016 874.975C16.5742 874.686 16.9375 874.445 17.1914 874.254C17.4492 874.059 17.627 873.887 17.7246 873.738C17.8262 873.586 17.877 873.426 17.877 873.258V873.24C17.877 873.049 17.8203 872.885 17.707 872.748C17.5938 872.611 17.4297 872.508 17.2148 872.438C17 872.367 16.7422 872.332 16.4414 872.332C16.1094 872.332 15.8203 872.379 15.5742 872.473C15.332 872.566 15.1387 872.701 14.9941 872.877C14.8535 873.049 14.7715 873.256 14.748 873.498V873.562H12.0586V873.504C12.1094 872.844 12.3203 872.277 12.6914 871.805C13.0625 871.332 13.5762 870.969 14.2324 870.715C14.8887 870.461 15.6641 870.334 16.5586 870.334C17.4258 870.334 18.168 870.443 18.7852 870.662C19.4062 870.877 19.8809 871.186 20.209 871.588C20.541 871.986 20.707 872.465 20.707 873.023V873.047C20.707 873.402 20.6289 873.734 20.4727 874.043C20.3164 874.352 20.0625 874.658 19.7109 874.963C19.3594 875.264 18.8887 875.584 18.2988 875.924L15.8438 877.342L16.5586 876.094V877.828L15.7676 876.996H20.8594V879H12.2109ZM26.1797 879V870.545H27.416V874.148H33.7617V870.545H35.0039V879H33.7617V875.215H27.416V879H26.1797ZM37.2773 879V870.545H44.6309V871.6H38.5137V874.172H44.2207V875.191H38.5137V877.945H44.6309V879H37.2773ZM46.6641 879V870.545H51.9023C52.5039 870.545 53.0215 870.65 53.4551 870.861C53.8926 871.068 54.2305 871.361 54.4688 871.74C54.707 872.119 54.8262 872.568 54.8262 873.088V873.1C54.8262 873.713 54.6641 874.232 54.3398 874.658C54.0156 875.08 53.5527 875.379 52.9512 875.555L55.0957 879H53.6367L51.6445 875.719C51.6328 875.719 51.6211 875.719 51.6094 875.719C51.5977 875.719 51.5859 875.719 51.5742 875.719H47.9004V879H46.6641ZM47.9004 874.705H51.8203C52.375 874.705 52.8027 874.57 53.1035 874.301C53.4043 874.027 53.5547 873.641 53.5547 873.141V873.129C53.5547 872.648 53.3965 872.271 53.0801 871.998C52.7676 871.725 52.334 871.588 51.7793 871.588H47.9004V874.705ZM61.5996 879.176C60.5723 879.176 59.6797 878.996 58.9219 878.637C58.1641 878.277 57.5781 877.768 57.1641 877.107C56.75 876.447 56.543 875.67 56.543 874.775V874.764C56.543 873.869 56.75 873.094 57.1641 872.438C57.582 871.777 58.1699 871.268 58.9277 870.908C59.6855 870.549 60.5762 870.369 61.5996 870.369C62.6191 870.369 63.5078 870.549 64.2656 870.908C65.0273 871.268 65.6152 871.777 66.0293 872.438C66.4473 873.094 66.6562 873.869 66.6562 874.764V874.775C66.6562 875.67 66.4473 876.447 66.0293 877.107C65.6152 877.768 65.0293 878.277 64.2715 878.637C63.5137 878.996 62.623 879.176 61.5996 879.176ZM61.5996 878.086C62.3652 878.086 63.0312 877.951 63.5977 877.682C64.168 877.408 64.6094 877.023 64.9219 876.527C65.2344 876.027 65.3906 875.443 65.3906 874.775V874.764C65.3906 874.092 65.2344 873.508 64.9219 873.012C64.6094 872.516 64.168 872.133 63.5977 871.863C63.0312 871.594 62.3652 871.459 61.5996 871.459C60.834 871.459 60.166 871.594 59.5957 871.863C59.0293 872.133 58.5898 872.516 58.2773 873.012C57.9648 873.508 57.8086 874.092 57.8086 874.764V874.775C57.8086 875.443 57.9629 876.027 58.2715 876.527C58.584 877.023 59.0234 877.408 59.5898 877.682C60.1602 877.951 60.8301 878.086 61.5996 878.086ZM70.8223 879V871.764H70.7695L68.2617 873.234V872.068L70.8164 870.545H72.041V879H70.8223ZM74.5254 879V878.174L79.0195 875.145C79.4609 874.832 79.8086 874.561 80.0625 874.33C80.3164 874.1 80.4961 873.883 80.6016 873.68C80.7109 873.473 80.7656 873.25 80.7656 873.012V873C80.7656 872.672 80.6719 872.389 80.4844 872.15C80.2969 871.908 80.0273 871.721 79.6758 871.588C79.3242 871.455 78.9004 871.389 78.4043 871.389C77.8887 871.389 77.4414 871.461 77.0625 871.605C76.6836 871.746 76.3809 871.951 76.1543 872.221C75.9316 872.486 75.7969 872.811 75.75 873.193L75.7324 873.258L74.5547 873.252L74.5488 873.217C74.5957 872.631 74.7832 872.125 75.1113 871.699C75.4395 871.27 75.8848 870.939 76.4473 870.709C77.0137 870.479 77.6758 870.363 78.4336 870.363C79.168 870.363 79.8027 870.469 80.3379 870.68C80.873 870.891 81.2832 871.189 81.5684 871.576C81.8574 871.959 82.002 872.418 82.002 872.953V872.965C82.002 873.309 81.9316 873.631 81.791 873.932C81.6504 874.229 81.4141 874.535 81.082 874.852C80.75 875.164 80.2969 875.521 79.7227 875.924L76.3418 878.162L76.7168 877.482V878.379L76.2832 877.957H82.248V879H74.5254ZM88.2891 879V877.975H92.8711C93.4844 877.975 93.957 877.855 94.2891 877.617C94.6211 877.379 94.7871 877.031 94.7871 876.574V876.562C94.7871 876.25 94.707 875.992 94.5469 875.789C94.3867 875.582 94.1543 875.428 93.8496 875.326C93.5449 875.221 93.1719 875.168 92.7305 875.168H88.2891V874.189H92.4434C93.0645 874.189 93.541 874.078 93.873 873.855C94.209 873.629 94.377 873.303 94.377 872.877V872.865C94.377 872.439 94.2324 872.117 93.9434 871.898C93.6582 871.68 93.2656 871.57 92.7656 871.57H88.2891V870.545H93.0645C93.5801 870.545 94.0293 870.633 94.4121 870.809C94.7988 870.98 95.0977 871.225 95.3086 871.541C95.5195 871.857 95.625 872.229 95.625 872.654V872.666C95.625 872.971 95.5586 873.252 95.4258 873.51C95.293 873.768 95.1074 873.986 94.8691 874.166C94.6348 874.346 94.3633 874.467 94.0547 874.529V874.576C94.4648 874.627 94.8184 874.744 95.1152 874.928C95.416 875.111 95.6465 875.35 95.8066 875.643C95.9707 875.936 96.0527 876.268 96.0527 876.639V876.65C96.0527 877.143 95.9336 877.564 95.6953 877.916C95.4609 878.264 95.1211 878.531 94.6758 878.719C94.2344 878.906 93.7051 879 93.0879 879H88.2891ZM87.668 879V870.545H88.9043V879H87.668ZM97.8984 879V870.545H99.1348V877.934H104.736V879H97.8984ZM105.867 879L110.098 870.545H111.117V871.799H110.742L107.186 879H105.867ZM107.684 876.65L108.164 875.666H113.385L113.854 876.65H107.684ZM114.357 879L110.795 871.799V870.545H111.439L115.676 879H114.357ZM121.512 879.176C120.488 879.176 119.605 878.996 118.863 878.637C118.125 878.277 117.555 877.768 117.152 877.107C116.754 876.447 116.555 875.67 116.555 874.775V874.764C116.555 873.869 116.754 873.094 117.152 872.438C117.555 871.777 118.125 871.268 118.863 870.908C119.605 870.549 120.488 870.369 121.512 870.369C122.355 870.369 123.107 870.498 123.768 870.756C124.432 871.014 124.973 871.379 125.391 871.852C125.809 872.32 126.076 872.873 126.193 873.51L126.199 873.557H124.945L124.934 873.521C124.797 873.084 124.574 872.711 124.266 872.402C123.961 872.094 123.576 871.859 123.111 871.699C122.65 871.539 122.117 871.459 121.512 871.459C120.754 871.459 120.098 871.596 119.543 871.869C118.992 872.139 118.566 872.521 118.266 873.018C117.969 873.514 117.82 874.096 117.82 874.764V874.775C117.82 875.443 117.969 876.025 118.266 876.521C118.566 877.018 118.992 877.402 119.543 877.676C120.098 877.949 120.756 878.086 121.518 878.086C122.115 878.086 122.645 878.006 123.105 877.846C123.57 877.686 123.957 877.455 124.266 877.154C124.574 876.85 124.797 876.482 124.934 876.053L124.945 876.023H126.199L126.193 876.07C126.072 876.703 125.803 877.252 125.385 877.717C124.967 878.182 124.428 878.541 123.768 878.795C123.107 879.049 122.355 879.176 121.512 879.176ZM129.041 876.111L129.023 874.57H129.363L134.561 870.545H136.318L131.303 874.365L131.074 874.523L129.041 876.111ZM128.074 879V870.545H129.311V879H128.074ZM134.906 879L130.512 874.67L131.432 873.896L136.594 879H134.906Z" fill="#F8F8F8"/>
<path fill-rule="evenodd" clip-rule="evenodd" d="M0 850H40V848.5H1.5V810H0V850Z" fill="#636366"/>
<path fill-rule="evenodd" clip-rule="evenodd" d="M1840 850H1800V848.5H1838.5V810H1840V850Z" fill="#636366"/>
<path fill-rule="evenodd" clip-rule="evenodd" d="M0 0H40V1.5H1.5V40H0V0Z" fill="#636366"/>
<path fill-rule="evenodd" clip-rule="evenodd" d="M1840 0H1800V1.5H1838.5V40H1840V0Z" fill="#636366"/>
<mask id="path-7-inside-1_883_13940" fill="white">
<path fill-rule="evenodd" clip-rule="evenodd" d="M1816 18H1780V42H1816V39H1820V22H1816V18Z"/>
</mask>
<path d="M1780 18V16.5H1778.5V18H1780ZM1816 18H1817.5V16.5H1816V18ZM1780 42H1778.5V43.5H1780V42ZM1816 42V43.5H1817.5V42H1816ZM1816 39V37.5H1814.5V39H1816ZM1820 39V40.5H1821.5V39H1820ZM1820 22H1821.5V20.5H1820V22ZM1816 22H1814.5V23.5H1816V22ZM1780 19.5H1816V16.5H1780V19.5ZM1781.5 42V18H1778.5V42H1781.5ZM1816 40.5H1780V43.5H1816V40.5ZM1814.5 39V42H1817.5V39H1814.5ZM1820 37.5H1816V40.5H1820V37.5ZM1818.5 22V39H1821.5V22H1818.5ZM1816 23.5H1820V20.5H1816V23.5ZM1814.5 18V22H1817.5V18H1814.5Z" fill="#F8F8F8" mask="url(#path-7-inside-1_883_13940)"/>
<rect x="1784" y="22" width="28" height="16" fill="#E0FF05"/>
<g filter="url(#filter0_f_883_13940)">
<circle cx="28" cy="28" r="10" fill="#800E0F"/>
</g>
<circle cx="28" cy="28" r="9.5" fill="#E6191B" stroke="#800E0F"/>
<defs>
<filter id="filter0_f_883_13940" x="8" y="8" width="40" height="40" filterUnits="userSpaceOnUse" color-interpolation-filters="sRGB">
<feFlood flood-opacity="0" result="BackgroundImageFix"/>
<feBlend mode="normal" in="SourceGraphic" in2="BackgroundImageFix" result="shape"/>
<feGaussianBlur stdDeviation="5" result="effect1_foregroundBlur_883_13940"/>
</filter>
</defs>
</svg>
