<svg width="1840" height="881" viewBox="0 0 1840 881" fill="none" xmlns="http://www.w3.org/2000/svg">
<path d="M1790.94 879.176C1790.18 879.176 1789.49 879.072 1788.87 878.865C1788.25 878.658 1787.72 878.361 1787.28 877.975C1786.84 877.584 1786.5 877.117 1786.26 876.574C1786.02 876.027 1785.91 875.42 1785.91 874.752V874.74C1785.91 873.861 1786.11 873.094 1786.53 872.438C1786.95 871.781 1787.53 871.273 1788.29 870.914C1789.04 870.551 1789.93 870.369 1790.94 870.369C1791.75 870.369 1792.48 870.484 1793.13 870.715C1793.78 870.941 1794.33 871.264 1794.76 871.682C1795.19 872.096 1795.49 872.584 1795.65 873.146L1795.67 873.211H1794.39L1794.37 873.158C1794.13 872.623 1793.71 872.207 1793.11 871.91C1792.52 871.609 1791.8 871.459 1790.95 871.459C1790.18 871.459 1789.51 871.594 1788.95 871.863C1788.38 872.129 1787.95 872.508 1787.63 873C1787.33 873.488 1787.17 874.068 1787.17 874.74V874.752C1787.17 875.26 1787.26 875.721 1787.44 876.135C1787.61 876.545 1787.87 876.896 1788.2 877.189C1788.53 877.479 1788.93 877.701 1789.39 877.857C1789.86 878.014 1790.38 878.092 1790.96 878.092C1791.62 878.092 1792.21 877.998 1792.71 877.811C1793.21 877.623 1793.62 877.354 1793.92 877.002C1794.22 876.646 1794.41 876.225 1794.48 875.736V875.643H1790.99V874.658H1795.72V875.309C1795.72 875.887 1795.61 876.414 1795.38 876.891C1795.16 877.363 1794.84 877.771 1794.41 878.115C1793.99 878.459 1793.49 878.723 1792.9 878.906C1792.32 879.086 1791.66 879.176 1790.94 879.176ZM1802.4 879.176C1801.37 879.176 1800.48 878.996 1799.72 878.637C1798.96 878.277 1798.38 877.768 1797.96 877.107C1797.55 876.447 1797.34 875.67 1797.34 874.775V874.764C1797.34 873.869 1797.55 873.094 1797.96 872.438C1798.38 871.777 1798.97 871.268 1799.73 870.908C1800.49 870.549 1801.38 870.369 1802.4 870.369C1803.42 870.369 1804.31 870.549 1805.07 870.908C1805.83 871.268 1806.42 871.777 1806.83 872.438C1807.25 873.094 1807.46 873.869 1807.46 874.764V874.775C1807.46 875.67 1807.25 876.447 1806.83 877.107C1806.42 877.768 1805.83 878.277 1805.07 878.637C1804.31 878.996 1803.42 879.176 1802.4 879.176ZM1802.4 878.086C1803.17 878.086 1803.83 877.951 1804.4 877.682C1804.97 877.408 1805.41 877.023 1805.72 876.527C1806.04 876.027 1806.19 875.443 1806.19 874.775V874.764C1806.19 874.092 1806.04 873.508 1805.72 873.012C1805.41 872.516 1804.97 872.133 1804.4 871.863C1803.83 871.594 1803.17 871.459 1802.4 871.459C1801.63 871.459 1800.97 871.594 1800.4 871.863C1799.83 872.133 1799.39 872.516 1799.08 873.012C1798.77 873.508 1798.61 874.092 1798.61 874.764V874.775C1798.61 875.443 1798.76 876.027 1799.07 876.527C1799.38 877.023 1799.82 877.408 1800.39 877.682C1800.96 877.951 1801.63 878.086 1802.4 878.086ZM1810.01 876.053V875.016H1814.12C1814.76 875.016 1815.25 874.867 1815.6 874.57C1815.94 874.27 1816.11 873.848 1816.11 873.305V873.293C1816.11 872.754 1815.94 872.336 1815.6 872.039C1815.25 871.738 1814.76 871.588 1814.12 871.588H1810.01V870.545H1814.31C1814.93 870.545 1815.47 870.658 1815.93 870.885C1816.39 871.111 1816.74 871.43 1816.99 871.84C1817.24 872.246 1817.37 872.727 1817.37 873.281V873.293C1817.37 873.844 1817.24 874.328 1816.99 874.746C1816.74 875.16 1816.38 875.482 1815.92 875.713C1815.47 875.939 1814.93 876.053 1814.31 876.053H1810.01ZM1809.39 879V870.545H1810.63V879H1809.39ZM1819.21 879V870.545H1824.45C1825.05 870.545 1825.57 870.65 1826 870.861C1826.44 871.068 1826.78 871.361 1827.02 871.74C1827.25 872.119 1827.37 872.568 1827.37 873.088V873.1C1827.37 873.713 1827.21 874.232 1826.89 874.658C1826.56 875.08 1826.1 875.379 1825.5 875.555L1827.64 879H1826.18L1824.19 875.719C1824.18 875.719 1824.17 875.719 1824.16 875.719C1824.14 875.719 1824.13 875.719 1824.12 875.719H1820.45V879H1819.21ZM1820.45 874.705H1824.37C1824.92 874.705 1825.35 874.57 1825.65 874.301C1825.95 874.027 1826.1 873.641 1826.1 873.141V873.129C1826.1 872.648 1825.94 872.271 1825.63 871.998C1825.31 871.725 1824.88 871.588 1824.33 871.588H1820.45V874.705ZM1834.15 879.176C1833.12 879.176 1832.23 878.996 1831.47 878.637C1830.71 878.277 1830.12 877.768 1829.71 877.107C1829.3 876.447 1829.09 875.67 1829.09 874.775V874.764C1829.09 873.869 1829.3 873.094 1829.71 872.438C1830.13 871.777 1830.72 871.268 1831.47 870.908C1832.23 870.549 1833.12 870.369 1834.15 870.369C1835.17 870.369 1836.05 870.549 1836.81 870.908C1837.57 871.268 1838.16 871.777 1838.58 872.438C1838.99 873.094 1839.2 873.869 1839.2 874.764V874.775C1839.2 875.67 1838.99 876.447 1838.58 877.107C1838.16 877.768 1837.58 878.277 1836.82 878.637C1836.06 878.996 1835.17 879.176 1834.15 879.176ZM1834.15 878.086C1834.91 878.086 1835.58 877.951 1836.14 877.682C1836.71 877.408 1837.16 877.023 1837.47 876.527C1837.78 876.027 1837.94 875.443 1837.94 874.775V874.764C1837.94 874.092 1837.78 873.508 1837.47 873.012C1837.16 872.516 1836.71 872.133 1836.14 871.863C1835.58 871.594 1834.91 871.459 1834.15 871.459C1833.38 871.459 1832.71 871.594 1832.14 871.863C1831.58 872.133 1831.14 872.516 1830.82 873.012C1830.51 873.508 1830.36 874.092 1830.36 874.764V874.775C1830.36 875.443 1830.51 876.027 1830.82 876.527C1831.13 877.023 1831.57 877.408 1832.14 877.682C1832.71 877.951 1833.38 878.086 1834.15 878.086Z" fill="#F8F8F8"/>
<path d="M890.393 879V870.545H891.629V874.148H897.975V870.545H899.217V879H897.975V875.215H891.629V879H890.393ZM901.49 879V870.545H908.844V871.6H902.727V874.172H908.434V875.191H902.727V877.945H908.844V879H901.49ZM910.877 879V870.545H916.115C916.717 870.545 917.234 870.65 917.668 870.861C918.105 871.068 918.443 871.361 918.682 871.74C918.92 872.119 919.039 872.568 919.039 873.088V873.1C919.039 873.713 918.877 874.232 918.553 874.658C918.229 875.08 917.766 875.379 917.164 875.555L919.309 879H917.85L915.857 875.719C915.846 875.719 915.834 875.719 915.822 875.719C915.811 875.719 915.799 875.719 915.787 875.719H912.113V879H910.877ZM912.113 874.705H916.033C916.588 874.705 917.016 874.57 917.316 874.301C917.617 874.027 917.768 873.641 917.768 873.141V873.129C917.768 872.648 917.609 872.271 917.293 871.998C916.98 871.725 916.547 871.588 915.992 871.588H912.113V874.705ZM925.812 879.176C924.785 879.176 923.893 878.996 923.135 878.637C922.377 878.277 921.791 877.768 921.377 877.107C920.963 876.447 920.756 875.67 920.756 874.775V874.764C920.756 873.869 920.963 873.094 921.377 872.438C921.795 871.777 922.383 871.268 923.141 870.908C923.898 870.549 924.789 870.369 925.812 870.369C926.832 870.369 927.721 870.549 928.479 870.908C929.24 871.268 929.828 871.777 930.242 872.438C930.66 873.094 930.869 873.869 930.869 874.764V874.775C930.869 875.67 930.66 876.447 930.242 877.107C929.828 877.768 929.242 878.277 928.484 878.637C927.727 878.996 926.836 879.176 925.812 879.176ZM925.812 878.086C926.578 878.086 927.244 877.951 927.811 877.682C928.381 877.408 928.822 877.023 929.135 876.527C929.447 876.027 929.604 875.443 929.604 874.775V874.764C929.604 874.092 929.447 873.508 929.135 873.012C928.822 872.516 928.381 872.133 927.811 871.863C927.244 871.594 926.578 871.459 925.812 871.459C925.047 871.459 924.379 871.594 923.809 871.863C923.242 872.133 922.803 872.516 922.49 873.012C922.178 873.508 922.021 874.092 922.021 874.764V874.775C922.021 875.443 922.176 876.027 922.484 876.527C922.797 877.023 923.236 877.408 923.803 877.682C924.373 877.951 925.043 878.086 925.812 878.086ZM938.434 879V871.764H938.381L935.873 873.234V872.068L938.428 870.545H939.652V879H938.434ZM942.137 879V878.174L946.631 875.145C947.072 874.832 947.42 874.561 947.674 874.33C947.928 874.1 948.107 873.883 948.213 873.68C948.322 873.473 948.377 873.25 948.377 873.012V873C948.377 872.672 948.283 872.389 948.096 872.15C947.908 871.908 947.639 871.721 947.287 871.588C946.936 871.455 946.512 871.389 946.016 871.389C945.5 871.389 945.053 871.461 944.674 871.605C944.295 871.746 943.992 871.951 943.766 872.221C943.543 872.486 943.408 872.811 943.361 873.193L943.344 873.258L942.166 873.252L942.16 873.217C942.207 872.631 942.395 872.125 942.723 871.699C943.051 871.27 943.496 870.939 944.059 870.709C944.625 870.479 945.287 870.363 946.045 870.363C946.779 870.363 947.414 870.469 947.949 870.68C948.484 870.891 948.895 871.189 949.18 871.576C949.469 871.959 949.613 872.418 949.613 872.953V872.965C949.613 873.309 949.543 873.631 949.402 873.932C949.262 874.229 949.025 874.535 948.693 874.852C948.361 875.164 947.908 875.521 947.334 875.924L943.953 878.162L944.328 877.482V878.379L943.895 877.957H949.859V879H942.137Z" fill="#F8F8F8"/>
<path d="M5.6836 879.188C4.69141 879.188 3.82813 879.006 3.09376 878.643C2.36329 878.279 1.79688 877.768 1.39454 877.107C0.992195 876.447 0.791023 875.668 0.791023 874.77V874.758C0.791023 873.855 0.992195 873.074 1.39454 872.414C1.79688 871.754 2.36329 871.242 3.09376 870.879C3.82813 870.516 4.69141 870.334 5.6836 870.334C6.67188 870.334 7.5293 870.516 8.25587 870.879C8.98634 871.242 9.55079 871.756 9.94923 872.42C10.3516 873.08 10.5527 873.859 10.5527 874.758V874.77C10.5527 875.668 10.3516 876.447 9.94923 877.107C9.55079 877.768 8.98634 878.279 8.25587 878.643C7.5293 879.006 6.67188 879.188 5.6836 879.188ZM5.6836 877.113C6.07032 877.113 6.40626 877.02 6.69141 876.832C6.97657 876.645 7.19532 876.375 7.34766 876.023C7.50391 875.672 7.58204 875.252 7.58204 874.764V874.752C7.58204 874.268 7.50391 873.85 7.34766 873.498C7.19532 873.146 6.97657 872.877 6.69141 872.689C6.40626 872.502 6.07032 872.408 5.6836 872.408C5.29298 872.408 4.95313 872.502 4.66407 872.689C4.37891 872.877 4.15821 873.146 4.00196 873.498C3.84571 873.85 3.76759 874.268 3.76759 874.752V874.764C3.76759 875.252 3.84571 875.672 4.00196 876.023C4.15821 876.375 4.37891 876.645 4.66407 876.832C4.95313 877.02 5.29298 877.113 5.6836 877.113ZM14.6426 879V872.83H14.5606L12.1055 874.254V872.004L14.6426 870.545H17.5723V879H14.6426ZM28.2715 879.176C27.5098 879.176 26.8203 879.072 26.2031 878.865C25.5859 878.658 25.0547 878.361 24.6094 877.975C24.168 877.584 23.8281 877.117 23.5899 876.574C23.3555 876.027 23.2383 875.42 23.2383 874.752V874.74C23.2383 873.861 23.4453 873.094 23.8594 872.438C24.2774 871.781 24.8633 871.273 25.6172 870.914C26.375 870.551 27.2598 870.369 28.2715 870.369C29.084 870.369 29.8145 870.484 30.4629 870.715C31.1152 870.941 31.6582 871.264 32.0918 871.682C32.5254 872.096 32.8223 872.584 32.9824 873.146L33 873.211H31.7227L31.7051 873.158C31.4629 872.623 31.043 872.207 30.4453 871.91C29.8516 871.609 29.1309 871.459 28.2832 871.459C27.5137 871.459 26.8457 871.594 26.2793 871.863C25.7168 872.129 25.2793 872.508 24.9668 873C24.6582 873.488 24.5039 874.068 24.5039 874.74V874.752C24.5039 875.26 24.5918 875.721 24.7676 876.135C24.9434 876.545 25.1973 876.896 25.5293 877.189C25.8613 877.479 26.2598 877.701 26.7246 877.857C27.1895 878.014 27.7109 878.092 28.2891 878.092C28.957 878.092 29.541 877.998 30.041 877.811C30.5449 877.623 30.9473 877.354 31.2481 877.002C31.5527 876.646 31.7402 876.225 31.8106 875.736V875.643H28.3242V874.658H33.0527V875.309C33.0527 875.887 32.9395 876.414 32.7129 876.891C32.4902 877.363 32.168 877.771 31.7461 878.115C31.3242 878.459 30.8203 878.723 30.2344 878.906C29.6484 879.086 28.9941 879.176 28.2715 879.176ZM39.7324 879.176C38.7051 879.176 37.8125 878.996 37.0547 878.637C36.2969 878.277 35.7109 877.768 35.2969 877.107C34.8828 876.447 34.6758 875.67 34.6758 874.775V874.764C34.6758 873.869 34.8828 873.094 35.2969 872.438C35.7149 871.777 36.3027 871.268 37.0606 870.908C37.8184 870.549 38.709 870.369 39.7324 870.369C40.752 870.369 41.6406 870.549 42.3984 870.908C43.1602 871.268 43.7481 871.777 44.1621 872.438C44.5801 873.094 44.7891 873.869 44.7891 874.764V874.775C44.7891 875.67 44.5801 876.447 44.1621 877.107C43.7481 877.768 43.1621 878.277 42.4043 878.637C41.6465 878.996 40.7559 879.176 39.7324 879.176ZM39.7324 878.086C40.4981 878.086 41.1641 877.951 41.7305 877.682C42.3008 877.408 42.7422 877.023 43.0547 876.527C43.3672 876.027 43.5234 875.443 43.5234 874.775V874.764C43.5234 874.092 43.3672 873.508 43.0547 873.012C42.7422 872.516 42.3008 872.133 41.7305 871.863C41.1641 871.594 40.4981 871.459 39.7324 871.459C38.9668 871.459 38.2988 871.594 37.7285 871.863C37.1621 872.133 36.7227 872.516 36.4102 873.012C36.0977 873.508 35.9414 874.092 35.9414 874.764V874.775C35.9414 875.443 36.0957 876.027 36.4043 876.527C36.7168 877.023 37.1563 877.408 37.7227 877.682C38.293 877.951 38.9629 878.086 39.7324 878.086ZM47.3379 876.053V875.016H51.457C52.0938 875.016 52.584 874.867 52.9277 874.57C53.2715 874.27 53.4434 873.848 53.4434 873.305V873.293C53.4434 872.754 53.2715 872.336 52.9277 872.039C52.584 871.738 52.0938 871.588 51.457 871.588H47.3379V870.545H51.6445C52.2656 870.545 52.8047 870.658 53.2617 870.885C53.7188 871.111 54.0723 871.43 54.3223 871.84C54.5762 872.246 54.7031 872.727 54.7031 873.281V873.293C54.7031 873.844 54.5762 874.328 54.3223 874.746C54.0723 875.16 53.7168 875.482 53.2559 875.713C52.7988 875.939 52.2617 876.053 51.6445 876.053H47.3379ZM46.7227 879V870.545H47.959V879H46.7227ZM56.543 879V870.545H61.7813C62.3828 870.545 62.9004 870.65 63.334 870.861C63.7715 871.068 64.1094 871.361 64.3477 871.74C64.5859 872.119 64.7051 872.568 64.7051 873.088V873.1C64.7051 873.713 64.543 874.232 64.2188 874.658C63.8945 875.08 63.4316 875.379 62.8301 875.555L64.9746 879H63.5156L61.5234 875.719C61.5117 875.719 61.5 875.719 61.4883 875.719C61.4766 875.719 61.4649 875.719 61.4531 875.719H57.7793V879H56.543ZM57.7793 874.705H61.6992C62.2539 874.705 62.6816 874.57 62.9824 874.301C63.2832 874.027 63.4336 873.641 63.4336 873.141V873.129C63.4336 872.648 63.2754 872.271 62.959 871.998C62.6465 871.725 62.2129 871.588 61.6582 871.588H57.7793V874.705ZM71.4785 879.176C70.4512 879.176 69.5586 878.996 68.8008 878.637C68.043 878.277 67.457 877.768 67.043 877.107C66.6289 876.447 66.4219 875.67 66.4219 874.775V874.764C66.4219 873.869 66.6289 873.094 67.043 872.438C67.4609 871.777 68.0488 871.268 68.8066 870.908C69.5645 870.549 70.4551 870.369 71.4785 870.369C72.4981 870.369 73.3867 870.549 74.1445 870.908C74.9063 871.268 75.4941 871.777 75.9082 872.438C76.3262 873.094 76.5352 873.869 76.5352 874.764V874.775C76.5352 875.67 76.3262 876.447 75.9082 877.107C75.4941 877.768 74.9082 878.277 74.1504 878.637C73.3926 878.996 72.502 879.176 71.4785 879.176ZM71.4785 878.086C72.2441 878.086 72.9102 877.951 73.4766 877.682C74.0469 877.408 74.4883 877.023 74.8008 876.527C75.1133 876.027 75.2695 875.443 75.2695 874.775V874.764C75.2695 874.092 75.1133 873.508 74.8008 873.012C74.4883 872.516 74.0469 872.133 73.4766 871.863C72.9102 871.594 72.2441 871.459 71.4785 871.459C70.7129 871.459 70.0449 871.594 69.4746 871.863C68.9082 872.133 68.4688 872.516 68.1563 873.012C67.8438 873.508 67.6875 874.092 67.6875 874.764V874.775C67.6875 875.443 67.8418 876.027 68.1504 876.527C68.4629 877.023 68.9024 877.408 69.4688 877.682C70.0391 877.951 70.709 878.086 71.4785 878.086ZM85.8926 879.176C85.0059 879.176 84.2461 879.08 83.6133 878.889C82.9805 878.697 82.4824 878.42 82.1191 878.057C81.7559 877.689 81.5391 877.252 81.4688 876.744L81.457 876.674H82.7051L82.7168 876.738C82.791 877.035 82.9609 877.287 83.2266 877.494C83.4922 877.697 83.8535 877.852 84.3106 877.957C84.7715 878.062 85.3262 878.115 85.9746 878.115C86.5293 878.115 87.0059 878.057 87.4043 877.939C87.8066 877.822 88.1152 877.654 88.3301 877.436C88.5449 877.213 88.6524 876.951 88.6524 876.65V876.645C88.6524 876.262 88.5 875.971 88.1953 875.771C87.8906 875.568 87.3633 875.426 86.6133 875.344L84.6211 875.162C83.6133 875.053 82.8691 874.809 82.3887 874.43C81.9121 874.051 81.6738 873.529 81.6738 872.865V872.854C81.6738 872.35 81.832 871.912 82.1484 871.541C82.4649 871.17 82.9121 870.883 83.4902 870.68C84.0684 870.473 84.752 870.369 85.541 870.369C86.3731 870.369 87.0879 870.467 87.6856 870.662C88.2871 870.857 88.7617 871.139 89.1094 871.506C89.4609 871.869 89.6719 872.305 89.7422 872.812L89.7539 872.871H88.5117L88.4941 872.812C88.4004 872.508 88.2324 872.254 87.9902 872.051C87.752 871.848 87.4297 871.693 87.0234 871.588C86.6172 871.482 86.1172 871.43 85.5234 871.43C84.9805 871.43 84.5156 871.484 84.1289 871.594C83.7422 871.703 83.4453 871.861 83.2383 872.068C83.0352 872.271 82.9336 872.52 82.9336 872.812V872.818C82.9336 873.178 83.084 873.457 83.3848 873.656C83.6895 873.855 84.1895 873.992 84.8848 874.066L86.8887 874.248C87.5957 874.326 88.1699 874.459 88.6113 874.646C89.0566 874.834 89.3848 875.086 89.5957 875.402C89.8066 875.715 89.9121 876.1 89.9121 876.557V876.562C89.9121 877.113 89.7539 877.584 89.4375 877.975C89.1211 878.365 88.6621 878.664 88.0606 878.871C87.4629 879.074 86.7402 879.176 85.8926 879.176ZM94.6992 879V871.611H91.043V870.545H99.5977V871.611H95.9414V879H94.6992ZM105.475 879.176C104.447 879.176 103.555 878.996 102.797 878.637C102.039 878.277 101.453 877.768 101.039 877.107C100.625 876.447 100.418 875.67 100.418 874.775V874.764C100.418 873.869 100.625 873.094 101.039 872.438C101.457 871.777 102.045 871.268 102.803 870.908C103.561 870.549 104.451 870.369 105.475 870.369C106.494 870.369 107.383 870.549 108.141 870.908C108.902 871.268 109.49 871.777 109.904 872.438C110.322 873.094 110.531 873.869 110.531 874.764V874.775C110.531 875.67 110.322 876.447 109.904 877.107C109.49 877.768 108.904 878.277 108.146 878.637C107.389 878.996 106.498 879.176 105.475 879.176ZM105.475 878.086C106.24 878.086 106.906 877.951 107.473 877.682C108.043 877.408 108.484 877.023 108.797 876.527C109.109 876.027 109.266 875.443 109.266 874.775V874.764C109.266 874.092 109.109 873.508 108.797 873.012C108.484 872.516 108.043 872.133 107.473 871.863C106.906 871.594 106.24 871.459 105.475 871.459C104.709 871.459 104.041 871.594 103.471 871.863C102.904 872.133 102.465 872.516 102.152 873.012C101.84 873.508 101.684 874.092 101.684 874.764V874.775C101.684 875.443 101.838 876.027 102.146 876.527C102.459 877.023 102.898 877.408 103.465 877.682C104.035 877.951 104.705 878.086 105.475 878.086ZM112.465 879V870.545H117.703C118.305 870.545 118.822 870.65 119.256 870.861C119.693 871.068 120.031 871.361 120.27 871.74C120.508 872.119 120.627 872.568 120.627 873.088V873.1C120.627 873.713 120.465 874.232 120.141 874.658C119.816 875.08 119.354 875.379 118.752 875.555L120.896 879H119.438L117.445 875.719C117.434 875.719 117.422 875.719 117.41 875.719C117.398 875.719 117.387 875.719 117.375 875.719H113.701V879H112.465ZM113.701 874.705H117.621C118.176 874.705 118.604 874.57 118.904 874.301C119.205 874.027 119.355 873.641 119.355 873.141V873.129C119.355 872.648 119.197 872.271 118.881 871.998C118.568 871.725 118.135 871.588 117.58 871.588H113.701V874.705ZM125.684 879V875.607L121.688 870.545H123.141L126.275 874.523H126.334L129.457 870.545H130.922L126.926 875.607V879H125.684Z" fill="#F8F8F8"/>
<path fill-rule="evenodd" clip-rule="evenodd" d="M7.62939e-06 850H40V848.5H1.50001V810H7.62939e-06V850Z" fill="#636366"/>
<path fill-rule="evenodd" clip-rule="evenodd" d="M1840 850H1800V848.5H1838.5V810H1840V850Z" fill="#636366"/>
<path d="M918.5 850V830H920V850H918.5Z" fill="#636366"/>
<path fill-rule="evenodd" clip-rule="evenodd" d="M7.62939e-06 0H40V1.5H1.50001V40H7.62939e-06V0Z" fill="#636366"/>
<path fill-rule="evenodd" clip-rule="evenodd" d="M1840 0H1800V1.5H1838.5V40H1840V0Z" fill="#636366"/>
<path d="M918.5 0V20H920V0H918.5Z" fill="#636366"/>
<mask id="path-10-inside-1_599_80114" fill="white">
<path fill-rule="evenodd" clip-rule="evenodd" d="M1816 18H1780V42H1816V39H1820V22H1816V18Z"/>
</mask>
<path d="M1780 18V16.5H1778.5V18H1780ZM1816 18H1817.5V16.5H1816V18ZM1780 42H1778.5V43.5H1780V42ZM1816 42V43.5H1817.5V42H1816ZM1816 39V37.5H1814.5V39H1816ZM1820 39V40.5H1821.5V39H1820ZM1820 22H1821.5V20.5H1820V22ZM1816 22H1814.5V23.5H1816V22ZM1780 19.5H1816V16.5H1780V19.5ZM1781.5 42V18H1778.5V42H1781.5ZM1816 40.5H1780V43.5H1816V40.5ZM1814.5 39V42H1817.5V39H1814.5ZM1820 37.5H1816V40.5H1820V37.5ZM1818.5 22V39H1821.5V22H1818.5ZM1816 23.5H1820V20.5H1816V23.5ZM1814.5 18V22H1817.5V18H1814.5Z" fill="#F8F8F8" mask="url(#path-10-inside-1_599_80114)"/>
<rect x="1784" y="22" width="28" height="16" fill="#E0FF05"/>
<g filter="url(#filter0_f_599_80114)">
<circle cx="28" cy="28" r="10" fill="#800E0F"/>
</g>
<circle cx="28" cy="28" r="9.5" fill="#E6191B" stroke="#800E0F"/>
<defs>
<filter id="filter0_f_599_80114" x="8.00001" y="8" width="40" height="40" filterUnits="userSpaceOnUse" color-interpolation-filters="sRGB">
<feFlood flood-opacity="0" result="BackgroundImageFix"/>
<feBlend mode="normal" in="SourceGraphic" in2="BackgroundImageFix" result="shape"/>
<feGaussianBlur stdDeviation="5" result="effect1_foregroundBlur_599_80114"/>
</filter>
</defs>
</svg>
