<?xml version="1.0" encoding="utf-8"?>
<!-- Generator: Adobe Illustrator 28.0.0, SVG Export Plug-In . SVG Version: 6.00 Build 0)  -->
<svg version="1.1" id="Layer_1" xmlns="http://www.w3.org/2000/svg" xmlns:xlink="http://www.w3.org/1999/xlink" x="0px" y="0px"
	 viewBox="0 0 1920 1152.5" style="enable-background:new 0 0 1920 1152.5;" xml:space="preserve">
<style type="text/css">
	.st0{clip-path:url(#SVGID_00000050634248616986349310000001639946648531164806_);}
	.st1{fill:none;stroke:#0e0e0e;stroke-width:1;stroke-miterlimit:10;}
</style>
<g>
	<g>
		<g>
			<g>
				<defs>
					<rect id="SVGID_00000108308869801928424590000013365047975668560267_" y="-0.5" width="1920.5" height="1152.5"/>
				</defs>
				<clipPath id="SVGID_00000164504967695729257540000013974189408003551121_">
					<use xlink:href="#SVGID_00000108308869801928424590000013365047975668560267_"  style="overflow:visible;"/>
				</clipPath>
				<g style="clip-path:url(#SVGID_00000164504967695729257540000013974189408003551121_);">
					<path class="st1" d="M128.2-0.2H0.2v128h128V-0.2z"/>
					<path class="st1" d="M256.2-0.2h-128v128h128V-0.2z"/>
					<path class="st1" d="M384.2-0.2h-128v128h128V-0.2z"/>
					<path class="st1" d="M512.2-0.2h-128v128h128V-0.2z"/>
					<path class="st1" d="M640.2-0.2h-128v128h128V-0.2z"/>
					<path class="st1" d="M768.2-0.2h-128v128h128V-0.2z"/>
					<path class="st1" d="M896.2-0.2h-128v128h128V-0.2z"/>
					<path class="st1" d="M1024.2-0.2h-128v128h128V-0.2z"/>
					<path class="st1" d="M1152.2-0.2h-128v128h128V-0.2z"/>
					<path class="st1" d="M1280.2-0.2h-128v128h128V-0.2z"/>
					<path class="st1" d="M1408.2-0.2h-128v128h128V-0.2z"/>
					<path class="st1" d="M1536.2-0.2h-128v128h128V-0.2z"/>
					<path class="st1" d="M1664.2-0.2h-128v128h128V-0.2z"/>
					<path class="st1" d="M1792.2-0.2h-128v128h128V-0.2z"/>
					<path class="st1" d="M1920.2-0.2h-128v128h128V-0.2z"/>
					<path class="st1" d="M128.2,127.8H0.2v128h128V127.8z"/>
					<path class="st1" d="M256.2,127.8h-128v128h128V127.8z"/>
					<path class="st1" d="M384.2,127.8h-128v128h128V127.8z"/>
					<path class="st1" d="M512.2,127.8h-128v128h128V127.8z"/>
					<path class="st1" d="M640.2,127.8h-128v128h128V127.8z"/>
					<path class="st1" d="M768.2,127.8h-128v128h128V127.8z"/>
					<path class="st1" d="M896.2,127.8h-128v128h128V127.8z"/>
					<path class="st1" d="M1024.2,127.8h-128v128h128V127.8z"/>
					<path class="st1" d="M1152.2,127.8h-128v128h128V127.8z"/>
					<path class="st1" d="M1280.2,127.8h-128v128h128V127.8z"/>
					<path class="st1" d="M1408.2,127.8h-128v128h128V127.8z"/>
					<path class="st1" d="M1536.2,127.8h-128v128h128V127.8z"/>
					<path class="st1" d="M1664.2,127.8h-128v128h128V127.8z"/>
					<path class="st1" d="M1792.2,127.8h-128v128h128V127.8z"/>
					<path class="st1" d="M1920.2,127.8h-128v128h128V127.8z"/>
					<path class="st1" d="M128.2,255.8H0.2v128h128V255.8z"/>
					<path class="st1" d="M256.2,255.8h-128v128h128V255.8z"/>
					<path class="st1" d="M384.2,255.8h-128v128h128V255.8z"/>
					<path class="st1" d="M512.2,255.8h-128v128h128V255.8z"/>
					<path class="st1" d="M640.2,255.8h-128v128h128V255.8z"/>
					<path class="st1" d="M768.2,255.8h-128v128h128V255.8z"/>
					<path class="st1" d="M896.2,255.8h-128v128h128V255.8z"/>
					<path class="st1" d="M1024.2,255.8h-128v128h128V255.8z"/>
					<path class="st1" d="M1152.2,255.8h-128v128h128V255.8z"/>
					<path class="st1" d="M1280.2,255.8h-128v128h128V255.8z"/>
					<path class="st1" d="M1408.2,255.8h-128v128h128V255.8z"/>
					<path class="st1" d="M1536.2,255.8h-128v128h128V255.8z"/>
					<path class="st1" d="M1664.2,255.8h-128v128h128V255.8z"/>
					<path class="st1" d="M1792.2,255.8h-128v128h128V255.8z"/>
					<path class="st1" d="M1920.2,255.8h-128v128h128V255.8z"/>
					<path class="st1" d="M128.2,383.8H0.2v128h128V383.8z"/>
					<path class="st1" d="M256.2,383.8h-128v128h128V383.8z"/>
					<path class="st1" d="M384.2,383.8h-128v128h128V383.8z"/>
					<path class="st1" d="M512.2,383.8h-128v128h128V383.8z"/>
					<path class="st1" d="M640.2,383.8h-128v128h128V383.8z"/>
					<path class="st1" d="M768.2,383.8h-128v128h128V383.8z"/>
					<path class="st1" d="M896.2,383.8h-128v128h128V383.8z"/>
					<path class="st1" d="M1024.2,383.8h-128v128h128V383.8z"/>
					<path class="st1" d="M1152.2,383.8h-128v128h128V383.8z"/>
					<path class="st1" d="M1280.2,383.8h-128v128h128V383.8z"/>
					<path class="st1" d="M1408.2,383.8h-128v128h128V383.8z"/>
					<path class="st1" d="M1536.2,383.8h-128v128h128V383.8z"/>
					<path class="st1" d="M1664.2,383.8h-128v128h128V383.8z"/>
					<path class="st1" d="M1792.2,383.8h-128v128h128V383.8z"/>
					<path class="st1" d="M1920.2,383.8h-128v128h128V383.8z"/>
					<path class="st1" d="M128.2,511.8H0.2v128h128V511.8z"/>
					<path class="st1" d="M256.2,511.8h-128v128h128V511.8z"/>
					<path class="st1" d="M384.2,511.8h-128v128h128V511.8z"/>
					<path class="st1" d="M512.2,511.8h-128v128h128V511.8z"/>
					<path class="st1" d="M640.2,511.8h-128v128h128V511.8z"/>
					<path class="st1" d="M768.2,511.8h-128v128h128V511.8z"/>
					<path class="st1" d="M896.2,511.8h-128v128h128V511.8z"/>
					<path class="st1" d="M1024.2,511.8h-128v128h128V511.8z"/>
					<path class="st1" d="M1152.2,511.8h-128v128h128V511.8z"/>
					<path class="st1" d="M1280.2,511.8h-128v128h128V511.8z"/>
					<path class="st1" d="M1408.2,511.8h-128v128h128V511.8z"/>
					<path class="st1" d="M1536.2,511.8h-128v128h128V511.8z"/>
					<path class="st1" d="M1664.2,511.8h-128v128h128V511.8z"/>
					<path class="st1" d="M1792.2,511.8h-128v128h128V511.8z"/>
					<path class="st1" d="M1920.2,511.8h-128v128h128V511.8z"/>
					<path class="st1" d="M128.2,639.8H0.2v128h128V639.8z"/>
					<path class="st1" d="M256.2,639.8h-128v128h128V639.8z"/>
					<path class="st1" d="M384.2,639.8h-128v128h128V639.8z"/>
					<path class="st1" d="M512.2,639.8h-128v128h128V639.8z"/>
					<path class="st1" d="M640.2,639.8h-128v128h128V639.8z"/>
					<path class="st1" d="M768.2,639.8h-128v128h128V639.8z"/>
					<path class="st1" d="M896.2,639.8h-128v128h128V639.8z"/>
					<path class="st1" d="M1024.2,639.8h-128v128h128V639.8z"/>
					<path class="st1" d="M1152.2,639.8h-128v128h128V639.8z"/>
					<path class="st1" d="M1280.2,639.8h-128v128h128V639.8z"/>
					<path class="st1" d="M1408.2,639.8h-128v128h128V639.8z"/>
					<path class="st1" d="M1536.2,639.8h-128v128h128V639.8z"/>
					<path class="st1" d="M1664.2,639.8h-128v128h128V639.8z"/>
					<path class="st1" d="M1792.2,639.8h-128v128h128V639.8z"/>
					<path class="st1" d="M1920.2,639.8h-128v128h128V639.8z"/>
					<path class="st1" d="M128.2,767.8H0.2v128h128V767.8z"/>
					<path class="st1" d="M256.2,767.8h-128v128h128V767.8z"/>
					<path class="st1" d="M384.2,767.8h-128v128h128V767.8z"/>
					<path class="st1" d="M512.2,767.8h-128v128h128V767.8z"/>
					<path class="st1" d="M640.2,767.8h-128v128h128V767.8z"/>
					<path class="st1" d="M768.2,767.8h-128v128h128V767.8z"/>
					<path class="st1" d="M896.2,767.8h-128v128h128V767.8z"/>
					<path class="st1" d="M1024.2,767.8h-128v128h128V767.8z"/>
					<path class="st1" d="M1152.2,767.8h-128v128h128V767.8z"/>
					<path class="st1" d="M1280.2,767.8h-128v128h128V767.8z"/>
					<path class="st1" d="M1408.2,767.8h-128v128h128V767.8z"/>
					<path class="st1" d="M1536.2,767.8h-128v128h128V767.8z"/>
					<path class="st1" d="M1664.2,767.8h-128v128h128V767.8z"/>
					<path class="st1" d="M1792.2,767.8h-128v128h128V767.8z"/>
					<path class="st1" d="M1920.2,767.8h-128v128h128V767.8z"/>
					<path class="st1" d="M128.2,895.8H0.2v128h128V895.8z"/>
					<path class="st1" d="M256.2,895.8h-128v128h128V895.8z"/>
					<path class="st1" d="M384.2,895.8h-128v128h128V895.8z"/>
					<path class="st1" d="M512.2,895.8h-128v128h128V895.8z"/>
					<path class="st1" d="M640.2,895.8h-128v128h128V895.8z"/>
					<path class="st1" d="M768.2,895.8h-128v128h128V895.8z"/>
					<path class="st1" d="M896.2,895.8h-128v128h128V895.8z"/>
					<path class="st1" d="M1024.2,895.8h-128v128h128V895.8z"/>
					<path class="st1" d="M1152.2,895.8h-128v128h128V895.8z"/>
					<path class="st1" d="M1280.2,895.8h-128v128h128V895.8z"/>
					<path class="st1" d="M1408.2,895.8h-128v128h128V895.8z"/>
					<path class="st1" d="M1536.2,895.8h-128v128h128V895.8z"/>
					<path class="st1" d="M1664.2,895.8h-128v128h128V895.8z"/>
					<path class="st1" d="M1792.2,895.8h-128v128h128V895.8z"/>
					<path class="st1" d="M1920.2,895.8h-128v128h128V895.8z"/>
					<path class="st1" d="M128.2,1023.8H0.2v128h128V1023.8z"/>
					<path class="st1" d="M256.2,1023.8h-128v128h128V1023.8z"/>
					<path class="st1" d="M384.2,1023.8h-128v128h128V1023.8z"/>
					<path class="st1" d="M512.2,1023.8h-128v128h128V1023.8z"/>
					<path class="st1" d="M640.2,1023.8h-128v128h128V1023.8z"/>
					<path class="st1" d="M768.2,1023.8h-128v128h128V1023.8z"/>
					<path class="st1" d="M896.2,1023.8h-128v128h128V1023.8z"/>
					<path class="st1" d="M1024.2,1023.8h-128v128h128V1023.8z"/>
					<path class="st1" d="M1152.2,1023.8h-128v128h128V1023.8z"/>
					<path class="st1" d="M1280.2,1023.8h-128v128h128V1023.8z"/>
					<path class="st1" d="M1408.2,1023.8h-128v128h128V1023.8z"/>
					<path class="st1" d="M1536.2,1023.8h-128v128h128V1023.8z"/>
					<path class="st1" d="M1664.2,1023.8h-128v128h128V1023.8z"/>
					<path class="st1" d="M1792.2,1023.8h-128v128h128V1023.8z"/>
					<path class="st1" d="M1920.2,1023.8h-128v128h128V1023.8z"/>
				</g>
				
					<use xlink:href="#SVGID_00000108308869801928424590000013365047975668560267_"  style="overflow:visible;fill:none;stroke:#0e0e0e;stroke-miterlimit:10;"/>
			</g>
			<g>
				<rect id="SVGID_00000042014831527555808560000007758195214678341797_" y="-0.5" class="st1" width="1920.5" height="1152.5"/>
			</g>
		</g>
		<g>
			<rect id="SVGID_1_" y="-0.5" class="st1" width="1920.5" height="1152.5"/>
		</g>
	</g>
</g>
</svg>
