<svg width="1920" height="1083" viewBox="0 0 1920 1083" fill="none" xmlns="http://www.w3.org/2000/svg">
<g clip-path="url(#clip0_747_10797)">
<path d="M128.25 -69.75H0.25V58.25H128.25V-69.75Z" stroke="#1C1C1E" stroke-width="0.5" stroke-miterlimit="10"/>
<path d="M256.25 -69.75H128.25V58.25H256.25V-69.75Z" stroke="#1C1C1E" stroke-width="0.5" stroke-miterlimit="10"/>
<path d="M384.25 -69.75H256.25V58.25H384.25V-69.75Z" stroke="#1C1C1E" stroke-width="0.5" stroke-miterlimit="10"/>
<path d="M512.25 -69.75H384.25V58.25H512.25V-69.75Z" stroke="#1C1C1E" stroke-width="0.5" stroke-miterlimit="10"/>
<path d="M640.25 -69.75H512.25V58.25H640.25V-69.75Z" stroke="#1C1C1E" stroke-width="0.5" stroke-miterlimit="10"/>
<path d="M768.25 -69.75H640.25V58.25H768.25V-69.75Z" stroke="#1C1C1E" stroke-width="0.5" stroke-miterlimit="10"/>
<path d="M896.25 -69.75H768.25V58.25H896.25V-69.75Z" stroke="#1C1C1E" stroke-width="0.5" stroke-miterlimit="10"/>
<path d="M1024.25 -69.75H896.25V58.25H1024.25V-69.75Z" stroke="#1C1C1E" stroke-width="0.5" stroke-miterlimit="10"/>
<path d="M1152.25 -69.75H1024.25V58.25H1152.25V-69.75Z" stroke="#1C1C1E" stroke-width="0.5" stroke-miterlimit="10"/>
<path d="M1280.25 -69.75H1152.25V58.25H1280.25V-69.75Z" stroke="#1C1C1E" stroke-width="0.5" stroke-miterlimit="10"/>
<path d="M1408.25 -69.75H1280.25V58.25H1408.25V-69.75Z" stroke="#1C1C1E" stroke-width="0.5" stroke-miterlimit="10"/>
<path d="M1536.25 -69.75H1408.25V58.25H1536.25V-69.75Z" stroke="#1C1C1E" stroke-width="0.5" stroke-miterlimit="10"/>
<path d="M1664.25 -69.75H1536.25V58.25H1664.25V-69.75Z" stroke="#1C1C1E" stroke-width="0.5" stroke-miterlimit="10"/>
<path d="M1792.25 -69.75H1664.25V58.25H1792.25V-69.75Z" stroke="#1C1C1E" stroke-width="0.5" stroke-miterlimit="10"/>
<path d="M1920.25 -69.75H1792.25V58.25H1920.25V-69.75Z" stroke="#1C1C1E" stroke-width="0.5" stroke-miterlimit="10"/>
<path d="M128.25 58.25H0.25V186.25H128.25V58.25Z" stroke="#1C1C1E" stroke-width="0.5" stroke-miterlimit="10"/>
<path d="M256.25 58.25H128.25V186.25H256.25V58.25Z" stroke="#1C1C1E" stroke-width="0.5" stroke-miterlimit="10"/>
<path d="M384.25 58.25H256.25V186.25H384.25V58.25Z" stroke="#1C1C1E" stroke-width="0.5" stroke-miterlimit="10"/>
<path d="M512.25 58.25H384.25V186.25H512.25V58.25Z" stroke="#1C1C1E" stroke-width="0.5" stroke-miterlimit="10"/>
<path d="M640.25 58.25H512.25V186.25H640.25V58.25Z" stroke="#1C1C1E" stroke-width="0.5" stroke-miterlimit="10"/>
<path d="M768.25 58.25H640.25V186.25H768.25V58.25Z" stroke="#1C1C1E" stroke-width="0.5" stroke-miterlimit="10"/>
<path d="M896.25 58.25H768.25V186.25H896.25V58.25Z" stroke="#1C1C1E" stroke-width="0.5" stroke-miterlimit="10"/>
<path d="M1024.25 58.25H896.25V186.25H1024.25V58.25Z" stroke="#1C1C1E" stroke-width="0.5" stroke-miterlimit="10"/>
<path d="M1152.25 58.25H1024.25V186.25H1152.25V58.25Z" stroke="#1C1C1E" stroke-width="0.5" stroke-miterlimit="10"/>
<path d="M1280.25 58.25H1152.25V186.25H1280.25V58.25Z" stroke="#1C1C1E" stroke-width="0.5" stroke-miterlimit="10"/>
<path d="M1408.25 58.25H1280.25V186.25H1408.25V58.25Z" stroke="#1C1C1E" stroke-width="0.5" stroke-miterlimit="10"/>
<path d="M1536.25 58.25H1408.25V186.25H1536.25V58.25Z" stroke="#1C1C1E" stroke-width="0.5" stroke-miterlimit="10"/>
<path d="M1664.25 58.25H1536.25V186.25H1664.25V58.25Z" stroke="#1C1C1E" stroke-width="0.5" stroke-miterlimit="10"/>
<path d="M1792.25 58.25H1664.25V186.25H1792.25V58.25Z" stroke="#1C1C1E" stroke-width="0.5" stroke-miterlimit="10"/>
<path d="M1920.25 58.25H1792.25V186.25H1920.25V58.25Z" stroke="#1C1C1E" stroke-width="0.5" stroke-miterlimit="10"/>
<path d="M128.25 186.25H0.25V314.25H128.25V186.25Z" stroke="#1C1C1E" stroke-width="0.5" stroke-miterlimit="10"/>
<path d="M256.25 186.25H128.25V314.25H256.25V186.25Z" stroke="#1C1C1E" stroke-width="0.5" stroke-miterlimit="10"/>
<path d="M384.25 186.25H256.25V314.25H384.25V186.25Z" stroke="#1C1C1E" stroke-width="0.5" stroke-miterlimit="10"/>
<path d="M512.25 186.25H384.25V314.25H512.25V186.25Z" stroke="#1C1C1E" stroke-width="0.5" stroke-miterlimit="10"/>
<path d="M640.25 186.25H512.25V314.25H640.25V186.25Z" stroke="#1C1C1E" stroke-width="0.5" stroke-miterlimit="10"/>
<path d="M768.25 186.25H640.25V314.25H768.25V186.25Z" stroke="#1C1C1E" stroke-width="0.5" stroke-miterlimit="10"/>
<path d="M896.25 186.25H768.25V314.25H896.25V186.25Z" stroke="#1C1C1E" stroke-width="0.5" stroke-miterlimit="10"/>
<path d="M1024.25 186.25H896.25V314.25H1024.25V186.25Z" stroke="#1C1C1E" stroke-width="0.5" stroke-miterlimit="10"/>
<path d="M1152.25 186.25H1024.25V314.25H1152.25V186.25Z" stroke="#1C1C1E" stroke-width="0.5" stroke-miterlimit="10"/>
<path d="M1280.25 186.25H1152.25V314.25H1280.25V186.25Z" stroke="#1C1C1E" stroke-width="0.5" stroke-miterlimit="10"/>
<path d="M1408.25 186.25H1280.25V314.25H1408.25V186.25Z" stroke="#1C1C1E" stroke-width="0.5" stroke-miterlimit="10"/>
<path d="M1536.25 186.25H1408.25V314.25H1536.25V186.25Z" stroke="#1C1C1E" stroke-width="0.5" stroke-miterlimit="10"/>
<path d="M1664.25 186.25H1536.25V314.25H1664.25V186.25Z" stroke="#1C1C1E" stroke-width="0.5" stroke-miterlimit="10"/>
<path d="M1792.25 186.25H1664.25V314.25H1792.25V186.25Z" stroke="#1C1C1E" stroke-width="0.5" stroke-miterlimit="10"/>
<path d="M1920.25 186.25H1792.25V314.25H1920.25V186.25Z" stroke="#1C1C1E" stroke-width="0.5" stroke-miterlimit="10"/>
<path d="M128.25 314.25H0.25V442.25H128.25V314.25Z" stroke="#1C1C1E" stroke-width="0.5" stroke-miterlimit="10"/>
<path d="M256.25 314.25H128.25V442.25H256.25V314.25Z" stroke="#1C1C1E" stroke-width="0.5" stroke-miterlimit="10"/>
<path d="M384.25 314.25H256.25V442.25H384.25V314.25Z" stroke="#1C1C1E" stroke-width="0.5" stroke-miterlimit="10"/>
<path d="M512.25 314.25H384.25V442.25H512.25V314.25Z" stroke="#1C1C1E" stroke-width="0.5" stroke-miterlimit="10"/>
<path d="M640.25 314.25H512.25V442.25H640.25V314.25Z" stroke="#1C1C1E" stroke-width="0.5" stroke-miterlimit="10"/>
<path d="M768.25 314.25H640.25V442.25H768.25V314.25Z" stroke="#1C1C1E" stroke-width="0.5" stroke-miterlimit="10"/>
<path d="M896.25 314.25H768.25V442.25H896.25V314.25Z" stroke="#1C1C1E" stroke-width="0.5" stroke-miterlimit="10"/>
<path d="M1024.25 314.25H896.25V442.25H1024.25V314.25Z" stroke="#1C1C1E" stroke-width="0.5" stroke-miterlimit="10"/>
<path d="M1152.25 314.25H1024.25V442.25H1152.25V314.25Z" stroke="#1C1C1E" stroke-width="0.5" stroke-miterlimit="10"/>
<path d="M1280.25 314.25H1152.25V442.25H1280.25V314.25Z" stroke="#1C1C1E" stroke-width="0.5" stroke-miterlimit="10"/>
<path d="M1408.25 314.25H1280.25V442.25H1408.25V314.25Z" stroke="#1C1C1E" stroke-width="0.5" stroke-miterlimit="10"/>
<path d="M1536.25 314.25H1408.25V442.25H1536.25V314.25Z" stroke="#1C1C1E" stroke-width="0.5" stroke-miterlimit="10"/>
<path d="M1664.25 314.25H1536.25V442.25H1664.25V314.25Z" stroke="#1C1C1E" stroke-width="0.5" stroke-miterlimit="10"/>
<path d="M1792.25 314.25H1664.25V442.25H1792.25V314.25Z" stroke="#1C1C1E" stroke-width="0.5" stroke-miterlimit="10"/>
<path d="M1920.25 314.25H1792.25V442.25H1920.25V314.25Z" stroke="#1C1C1E" stroke-width="0.5" stroke-miterlimit="10"/>
<path d="M128.25 442.25H0.25V570.25H128.25V442.25Z" stroke="#1C1C1E" stroke-width="0.5" stroke-miterlimit="10"/>
<path d="M256.25 442.25H128.25V570.25H256.25V442.25Z" stroke="#1C1C1E" stroke-width="0.5" stroke-miterlimit="10"/>
<path d="M384.25 442.25H256.25V570.25H384.25V442.25Z" stroke="#1C1C1E" stroke-width="0.5" stroke-miterlimit="10"/>
<path d="M512.25 442.25H384.25V570.25H512.25V442.25Z" stroke="#1C1C1E" stroke-width="0.5" stroke-miterlimit="10"/>
<path d="M640.25 442.25H512.25V570.25H640.25V442.25Z" stroke="#1C1C1E" stroke-width="0.5" stroke-miterlimit="10"/>
<path d="M768.25 442.25H640.25V570.25H768.25V442.25Z" stroke="#1C1C1E" stroke-width="0.5" stroke-miterlimit="10"/>
<path d="M896.25 442.25H768.25V570.25H896.25V442.25Z" stroke="#1C1C1E" stroke-width="0.5" stroke-miterlimit="10"/>
<path d="M1024.25 442.25H896.25V570.25H1024.25V442.25Z" stroke="#1C1C1E" stroke-width="0.5" stroke-miterlimit="10"/>
<path d="M1152.25 442.25H1024.25V570.25H1152.25V442.25Z" stroke="#1C1C1E" stroke-width="0.5" stroke-miterlimit="10"/>
<path d="M1280.25 442.25H1152.25V570.25H1280.25V442.25Z" stroke="#1C1C1E" stroke-width="0.5" stroke-miterlimit="10"/>
<path d="M1408.25 442.25H1280.25V570.25H1408.25V442.25Z" stroke="#1C1C1E" stroke-width="0.5" stroke-miterlimit="10"/>
<path d="M1536.25 442.25H1408.25V570.25H1536.25V442.25Z" stroke="#1C1C1E" stroke-width="0.5" stroke-miterlimit="10"/>
<path d="M1664.25 442.25H1536.25V570.25H1664.25V442.25Z" stroke="#1C1C1E" stroke-width="0.5" stroke-miterlimit="10"/>
<path d="M1792.25 442.25H1664.25V570.25H1792.25V442.25Z" stroke="#1C1C1E" stroke-width="0.5" stroke-miterlimit="10"/>
<path d="M1920.25 442.25H1792.25V570.25H1920.25V442.25Z" stroke="#1C1C1E" stroke-width="0.5" stroke-miterlimit="10"/>
<path d="M128.25 570.25H0.25V698.25H128.25V570.25Z" stroke="#1C1C1E" stroke-width="0.5" stroke-miterlimit="10"/>
<path d="M256.25 570.25H128.25V698.25H256.25V570.25Z" stroke="#1C1C1E" stroke-width="0.5" stroke-miterlimit="10"/>
<path d="M384.25 570.25H256.25V698.25H384.25V570.25Z" stroke="#1C1C1E" stroke-width="0.5" stroke-miterlimit="10"/>
<path d="M512.25 570.25H384.25V698.25H512.25V570.25Z" stroke="#1C1C1E" stroke-width="0.5" stroke-miterlimit="10"/>
<path d="M640.25 570.25H512.25V698.25H640.25V570.25Z" stroke="#1C1C1E" stroke-width="0.5" stroke-miterlimit="10"/>
<path d="M768.25 570.25H640.25V698.25H768.25V570.25Z" stroke="#1C1C1E" stroke-width="0.5" stroke-miterlimit="10"/>
<path d="M896.25 570.25H768.25V698.25H896.25V570.25Z" stroke="#1C1C1E" stroke-width="0.5" stroke-miterlimit="10"/>
<path d="M1024.25 570.25H896.25V698.25H1024.25V570.25Z" stroke="#1C1C1E" stroke-width="0.5" stroke-miterlimit="10"/>
<path d="M1152.25 570.25H1024.25V698.25H1152.25V570.25Z" stroke="#1C1C1E" stroke-width="0.5" stroke-miterlimit="10"/>
<path d="M1280.25 570.25H1152.25V698.25H1280.25V570.25Z" stroke="#1C1C1E" stroke-width="0.5" stroke-miterlimit="10"/>
<path d="M1408.25 570.25H1280.25V698.25H1408.25V570.25Z" stroke="#1C1C1E" stroke-width="0.5" stroke-miterlimit="10"/>
<path d="M1536.25 570.25H1408.25V698.25H1536.25V570.25Z" stroke="#1C1C1E" stroke-width="0.5" stroke-miterlimit="10"/>
<path d="M1664.25 570.25H1536.25V698.25H1664.25V570.25Z" stroke="#1C1C1E" stroke-width="0.5" stroke-miterlimit="10"/>
<path d="M1792.25 570.25H1664.25V698.25H1792.25V570.25Z" stroke="#1C1C1E" stroke-width="0.5" stroke-miterlimit="10"/>
<path d="M1920.25 570.25H1792.25V698.25H1920.25V570.25Z" stroke="#1C1C1E" stroke-width="0.5" stroke-miterlimit="10"/>
<path d="M128.25 698.25H0.25V826.25H128.25V698.25Z" stroke="#1C1C1E" stroke-width="0.5" stroke-miterlimit="10"/>
<path d="M256.25 698.25H128.25V826.25H256.25V698.25Z" stroke="#1C1C1E" stroke-width="0.5" stroke-miterlimit="10"/>
<path d="M384.25 698.25H256.25V826.25H384.25V698.25Z" stroke="#1C1C1E" stroke-width="0.5" stroke-miterlimit="10"/>
<path d="M512.25 698.25H384.25V826.25H512.25V698.25Z" stroke="#1C1C1E" stroke-width="0.5" stroke-miterlimit="10"/>
<path d="M640.25 698.25H512.25V826.25H640.25V698.25Z" stroke="#1C1C1E" stroke-width="0.5" stroke-miterlimit="10"/>
<path d="M768.25 698.25H640.25V826.25H768.25V698.25Z" stroke="#1C1C1E" stroke-width="0.5" stroke-miterlimit="10"/>
<path d="M896.25 698.25H768.25V826.25H896.25V698.25Z" stroke="#1C1C1E" stroke-width="0.5" stroke-miterlimit="10"/>
<path d="M1024.25 698.25H896.25V826.25H1024.25V698.25Z" stroke="#1C1C1E" stroke-width="0.5" stroke-miterlimit="10"/>
<path d="M1152.25 698.25H1024.25V826.25H1152.25V698.25Z" stroke="#1C1C1E" stroke-width="0.5" stroke-miterlimit="10"/>
<path d="M1280.25 698.25H1152.25V826.25H1280.25V698.25Z" stroke="#1C1C1E" stroke-width="0.5" stroke-miterlimit="10"/>
<path d="M1408.25 698.25H1280.25V826.25H1408.25V698.25Z" stroke="#1C1C1E" stroke-width="0.5" stroke-miterlimit="10"/>
<path d="M1536.25 698.25H1408.25V826.25H1536.25V698.25Z" stroke="#1C1C1E" stroke-width="0.5" stroke-miterlimit="10"/>
<path d="M1664.25 698.25H1536.25V826.25H1664.25V698.25Z" stroke="#1C1C1E" stroke-width="0.5" stroke-miterlimit="10"/>
<path d="M1792.25 698.25H1664.25V826.25H1792.25V698.25Z" stroke="#1C1C1E" stroke-width="0.5" stroke-miterlimit="10"/>
<path d="M1920.25 698.25H1792.25V826.25H1920.25V698.25Z" stroke="#1C1C1E" stroke-width="0.5" stroke-miterlimit="10"/>
<path d="M128.25 826.25H0.25V954.25H128.25V826.25Z" stroke="#1C1C1E" stroke-width="0.5" stroke-miterlimit="10"/>
<path d="M256.25 826.25H128.25V954.25H256.25V826.25Z" stroke="#1C1C1E" stroke-width="0.5" stroke-miterlimit="10"/>
<path d="M384.25 826.25H256.25V954.25H384.25V826.25Z" stroke="#1C1C1E" stroke-width="0.5" stroke-miterlimit="10"/>
<path d="M512.25 826.25H384.25V954.25H512.25V826.25Z" stroke="#1C1C1E" stroke-width="0.5" stroke-miterlimit="10"/>
<path d="M640.25 826.25H512.25V954.25H640.25V826.25Z" stroke="#1C1C1E" stroke-width="0.5" stroke-miterlimit="10"/>
<path d="M768.25 826.25H640.25V954.25H768.25V826.25Z" stroke="#1C1C1E" stroke-width="0.5" stroke-miterlimit="10"/>
<path d="M896.25 826.25H768.25V954.25H896.25V826.25Z" stroke="#1C1C1E" stroke-width="0.5" stroke-miterlimit="10"/>
<path d="M1024.25 826.25H896.25V954.25H1024.25V826.25Z" stroke="#1C1C1E" stroke-width="0.5" stroke-miterlimit="10"/>
<path d="M1152.25 826.25H1024.25V954.25H1152.25V826.25Z" stroke="#1C1C1E" stroke-width="0.5" stroke-miterlimit="10"/>
<path d="M1280.25 826.25H1152.25V954.25H1280.25V826.25Z" stroke="#1C1C1E" stroke-width="0.5" stroke-miterlimit="10"/>
<path d="M1408.25 826.25H1280.25V954.25H1408.25V826.25Z" stroke="#1C1C1E" stroke-width="0.5" stroke-miterlimit="10"/>
<path d="M1536.25 826.25H1408.25V954.25H1536.25V826.25Z" stroke="#1C1C1E" stroke-width="0.5" stroke-miterlimit="10"/>
<path d="M1664.25 826.25H1536.25V954.25H1664.25V826.25Z" stroke="#1C1C1E" stroke-width="0.5" stroke-miterlimit="10"/>
<path d="M1792.25 826.25H1664.25V954.25H1792.25V826.25Z" stroke="#1C1C1E" stroke-width="0.5" stroke-miterlimit="10"/>
<path d="M1920.25 826.25H1792.25V954.25H1920.25V826.25Z" stroke="#1C1C1E" stroke-width="0.5" stroke-miterlimit="10"/>
<path d="M128.25 954.25H0.25V1082.25H128.25V954.25Z" stroke="#1C1C1E" stroke-width="0.5" stroke-miterlimit="10"/>
<path d="M256.25 954.25H128.25V1082.25H256.25V954.25Z" stroke="#1C1C1E" stroke-width="0.5" stroke-miterlimit="10"/>
<path d="M384.25 954.25H256.25V1082.25H384.25V954.25Z" stroke="#1C1C1E" stroke-width="0.5" stroke-miterlimit="10"/>
<path d="M512.25 954.25H384.25V1082.25H512.25V954.25Z" stroke="#1C1C1E" stroke-width="0.5" stroke-miterlimit="10"/>
<path d="M640.25 954.25H512.25V1082.25H640.25V954.25Z" stroke="#1C1C1E" stroke-width="0.5" stroke-miterlimit="10"/>
<path d="M768.25 954.25H640.25V1082.25H768.25V954.25Z" stroke="#1C1C1E" stroke-width="0.5" stroke-miterlimit="10"/>
<path d="M896.25 954.25H768.25V1082.25H896.25V954.25Z" stroke="#1C1C1E" stroke-width="0.5" stroke-miterlimit="10"/>
<path d="M1024.25 954.25H896.25V1082.25H1024.25V954.25Z" stroke="#1C1C1E" stroke-width="0.5" stroke-miterlimit="10"/>
<path d="M1152.25 954.25H1024.25V1082.25H1152.25V954.25Z" stroke="#1C1C1E" stroke-width="0.5" stroke-miterlimit="10"/>
<path d="M1280.25 954.25H1152.25V1082.25H1280.25V954.25Z" stroke="#1C1C1E" stroke-width="0.5" stroke-miterlimit="10"/>
<path d="M1408.25 954.25H1280.25V1082.25H1408.25V954.25Z" stroke="#1C1C1E" stroke-width="0.5" stroke-miterlimit="10"/>
<path d="M1536.25 954.25H1408.25V1082.25H1536.25V954.25Z" stroke="#1C1C1E" stroke-width="0.5" stroke-miterlimit="10"/>
<path d="M1664.25 954.25H1536.25V1082.25H1664.25V954.25Z" stroke="#1C1C1E" stroke-width="0.5" stroke-miterlimit="10"/>
<path d="M1792.25 954.25H1664.25V1082.25H1792.25V954.25Z" stroke="#1C1C1E" stroke-width="0.5" stroke-miterlimit="10"/>
<path d="M1920.25 954.25H1792.25V1082.25H1920.25V954.25Z" stroke="#1C1C1E" stroke-width="0.5" stroke-miterlimit="10"/>
</g>
<defs>
<clipPath id="clip0_747_10797">
<rect width="1920.5" height="1152.5" fill="white" transform="translate(0 -70)"/>
</clipPath>
</defs>
</svg>
