<svg width="72" height="25" viewBox="0 0 72 25" fill="none" xmlns="http://www.w3.org/2000/svg">
<g id="gopro-logo">
<path id="Vector" fill-rule="evenodd" clip-rule="evenodd" d="M26.1825 9.64021C27.9655 9.64021 28.8113 9.33689 28.8113 8.71956V5.65378C28.8113 5.0367 27.9655 4.73338 26.1825 4.73338H22.3529C20.5701 4.73338 19.7247 5.0367 19.7247 5.65378V8.71956C19.7247 9.33689 20.5701 9.64021 22.3529 9.64021H26.1825ZM26.1825 11.0918H22.3529C19.1644 11.0918 17.5708 10.2751 17.5708 8.60486V5.76899C17.5708 4.09846 19.1644 3.28027 22.3529 3.28027H26.1825C29.3711 3.28027 30.9652 4.09846 30.9652 5.76899V8.60486C30.9652 10.2751 29.3711 11.0918 26.1825 11.0918Z" fill="white"/>
<path id="Vector_2" fill-rule="evenodd" clip-rule="evenodd" d="M67.1989 9.6402H63.3696C61.587 9.6402 60.7413 9.33688 60.7413 8.71954V5.65376C60.7413 5.03693 61.587 4.73362 63.3696 4.73362H67.1989C68.9819 4.73362 69.8277 5.03693 69.8277 5.65376V8.71954C69.8277 9.33688 68.9819 9.6402 67.1989 9.6402ZM67.1989 11.0918C70.3875 11.0918 71.9815 10.2751 71.9815 8.60509V5.76897C71.9815 4.09869 70.3875 3.28076 67.1989 3.28076H63.3696C60.1813 3.28076 58.5874 4.09869 58.5874 5.76897V8.60509C58.5874 10.2751 60.1813 11.0918 63.3696 11.0918H67.1989Z" fill="white"/>
<path id="Vector_3" fill-rule="evenodd" clip-rule="evenodd" d="M15.3635 8.56857V6.60746C15.3635 6.18256 15.0995 5.98911 14.5674 5.98911H9.8987C9.477 5.98911 9.13269 6.34697 9.13269 6.78333C9.13269 7.22097 9.477 7.57833 9.8987 7.57833H13.0921V8.63279C13.0921 8.94911 12.6774 9.25497 11.9819 9.44078C11.4295 9.58811 10.9687 9.60239 10.4796 9.60239H5.34369C3.29683 9.60239 2.27134 9.2667 2.27134 8.59304V3.61228C2.27134 2.94066 3.49534 2.62893 5.93897 2.62893H7.38309C7.93517 2.62893 8.21237 2.3822 8.21237 1.89053C8.21237 1.4014 7.93517 1.15747 7.38309 1.15747H5.33392C4.09731 1.15747 2.95894 1.29205 1.94374 1.63793C0.788657 2.03122 0 2.72298 0 3.61637V8.60297C0 9.53126 0.636686 10.206 1.90517 10.6275C2.82806 10.9367 3.96334 11.0917 5.31617 11.0917H10.476C11.7352 11.0917 12.8014 10.9199 13.6761 10.5771C14.8019 10.1389 15.3635 9.46959 15.3635 8.56857Z" fill="white"/>
<path id="Vector_4" fill-rule="evenodd" clip-rule="evenodd" d="M46.4971 5.02921C46.4971 5.83057 45.4882 6.06277 43.5125 6.06277H35.4835V2.62893H43.5125C45.4882 2.62893 46.4971 2.86138 46.4971 3.6625V5.02921ZM46.7918 1.57523C45.8893 1.30785 44.7954 1.15747 43.5125 1.15747H33.8606C33.503 1.15747 33.2126 1.44473 33.2126 1.79953V10.4407C33.2126 10.8755 33.4855 11.0917 34.0103 11.0917H34.6856C35.2107 11.0917 35.4835 10.8755 35.4835 10.4407V7.53448H43.5125C44.879 7.53448 45.9296 7.38588 46.8968 7.06906C48.138 6.61715 48.7685 5.89862 48.7685 4.91425V3.36174C48.7685 2.57592 48.1169 1.9754 46.7918 1.57523Z" fill="white"/>
<path id="Vector_5" fill-rule="evenodd" clip-rule="evenodd" d="M56.2849 3.28088C54.3043 3.28088 53.466 3.24519 52.2929 3.72209C51.1896 4.17095 50.7195 4.95982 50.7195 5.68574V10.472C50.7195 10.8859 50.9795 11.0919 51.4796 11.0919H52.1225C52.6224 11.0919 52.882 10.8859 52.882 10.472V5.68574C52.882 5.01717 53.718 4.73374 55.3745 4.73374H56.3003C56.8411 4.73374 57.0977 4.48879 57.0977 4.00705C57.0977 3.52761 56.8259 3.28088 56.2849 3.28088Z" fill="white"/>
<g id="Mask group">
<mask id="mask0_725_2986" style="mask-type:alpha" maskUnits="userSpaceOnUse" x="0" y="1" width="72" height="23">
<g id="Group">
<path id="Vector_6" d="M0 23.6739H71.9818V1.15747H0V23.6739Z" fill="white"/>
</g>
</mask>
<g mask="url(#mask0_725_2986)">
<g id="Group_2">
<path id="Vector_7" fill-rule="evenodd" clip-rule="evenodd" d="M0 23.674H15.6186V13.5388H0V23.674Z" fill="white"/>
<path id="Vector_8" fill-rule="evenodd" clip-rule="evenodd" d="M18.7876 23.674H34.4062V13.5388H18.7876V23.674Z" fill="white"/>
<path id="Vector_9" fill-rule="evenodd" clip-rule="evenodd" d="M37.575 23.674H53.1935V13.5388H37.575V23.674Z" fill="white"/>
<path id="Vector_10" fill-rule="evenodd" clip-rule="evenodd" d="M56.3625 23.674H71.9809V13.5388H56.3625V23.674Z" fill="white"/>
</g>
</g>
</g>
</g>
</svg>
