<svg width="34" height="34" viewBox="0 0 34 34" fill="none" xmlns="http://www.w3.org/2000/svg">
<g clip-path="url(#clip0_828_20141)">
<mask id="mask0_828_20141" style="mask-type:alpha" maskUnits="userSpaceOnUse" x="0" y="0" width="34" height="34">
<path d="M34 0H0V34H34V0Z" fill="#C4C4C4"/>
</mask>
<g mask="url(#mask0_828_20141)">
<path fill-rule="evenodd" clip-rule="evenodd" d="M25.2047 14.4428C25.2142 15.9277 24.0184 17.1386 22.5334 17.1481C21.0484 17.1575 19.8367 15.9599 19.8282 14.4768C19.8187 12.9918 21.0144 11.781 22.4994 11.7715C23.9844 11.762 25.1952 12.9578 25.2047 14.4428Z" stroke="#F8F8F8" stroke-width="1.7" stroke-linecap="round"/>
<path fill-rule="evenodd" clip-rule="evenodd" d="M25.5339 8.64179L13.3913 8.71744C13.2844 8.67956 13.1483 8.59074 13.0964 8.5L9.09134 8.5246C9.04124 8.61719 8.90609 8.70602 8.79931 8.74576L7.82856 8.7524C6.31142 8.76185 5.08826 10.0001 5.09771 11.5172L5.17144 23.3337C5.179 24.5067 6.13557 25.4511 7.30772 25.4425L25.6379 25.3282C27.156 25.3197 28.3782 24.0814 28.3687 22.5643L28.2987 11.3726C28.2893 9.85548 27.051 8.63233 25.5339 8.64179Z" stroke="#F8F8F8" stroke-width="1.7" stroke-linecap="round"/>
<path fill-rule="evenodd" clip-rule="evenodd" d="M16.7341 17.5969C16.7436 19.0885 17.9601 20.2908 19.4517 20.2804L25.6506 20.2426C27.1422 20.2332 28.3436 19.0157 28.3342 17.5241L28.2954 11.3261C28.2869 9.83454 27.0704 8.63317 25.5778 8.64066L19.3798 8.67944C17.8883 8.6898 16.6859 9.90541 16.6954 11.397L16.7341 17.5969Z" stroke="#F8F8F8" stroke-width="1.7" stroke-linecap="round"/>
<path fill-rule="evenodd" clip-rule="evenodd" d="M13.9227 17.9201L7.83225 17.9451C7.69789 17.9458 7.58649 17.8572 7.58649 17.7476L7.55469 11.5579C7.5538 11.4492 7.66341 11.3598 7.79781 11.359L13.8882 11.334C14.0235 11.3333 14.134 11.422 14.1349 11.5307L14.1658 17.7212C14.1667 17.8299 14.0571 17.9194 13.9227 17.9201Z" stroke="#F8F8F8" stroke-width="1.41667" stroke-linecap="round"/>
</g>
</g>
<defs>
<clipPath id="clip0_828_20141">
<rect width="34" height="34" fill="white"/>
</clipPath>
</defs>
</svg>
