<svg width="120" height="40" viewBox="0 0 120 40" fill="none" xmlns="http://www.w3.org/2000/svg">
<g id="gopro-logo" clip-path="url(#clip0_599_81521)">
<path id="Vector" fill-rule="evenodd" clip-rule="evenodd" d="M43.636 15.2337C46.6077 15.2337 48.0173 14.7282 48.0173 13.6993V8.58963C48.0173 7.56116 46.6077 7.05564 43.636 7.05564H37.2533C34.2821 7.05564 32.873 7.56116 32.873 8.58963V13.6993C32.873 14.7282 34.2821 15.2337 37.2533 15.2337H43.636ZM43.636 17.653H37.2533C31.9391 17.653 29.2832 16.2919 29.2832 13.5081V8.78165C29.2832 5.99743 31.9391 4.63379 37.2533 4.63379H43.636C48.9504 4.63379 51.6071 5.99743 51.6071 8.78165V13.5081C51.6071 16.2919 48.9504 17.653 43.636 17.653Z" fill="white"/>
<path id="Vector_2" fill-rule="evenodd" clip-rule="evenodd" d="M111.997 15.2338H105.615C102.644 15.2338 101.234 14.7283 101.234 13.6994V8.58977C101.234 7.56171 102.644 7.0562 105.615 7.0562H111.997C114.969 7.0562 116.378 7.56171 116.378 8.58977V13.6994C116.378 14.7283 114.969 15.2338 111.997 15.2338ZM111.997 17.6531C117.311 17.6531 119.968 16.292 119.968 13.5087V8.78179C119.968 5.99798 117.311 4.63477 111.997 4.63477H105.615C100.301 4.63477 97.6445 5.99798 97.6445 8.78179V13.5087C97.6445 16.292 100.301 17.6531 105.615 17.6531H111.997Z" fill="white"/>
<path id="Vector_3" fill-rule="evenodd" clip-rule="evenodd" d="M25.6058 13.4478V10.1793C25.6058 9.4711 25.1658 9.14868 24.2789 9.14868H16.4978C15.795 9.14868 15.2211 9.74511 15.2211 10.4724C15.2211 11.2018 15.795 11.7974 16.4978 11.7974H21.8202V13.5548C21.8202 14.082 21.129 14.5918 19.9698 14.9015C19.0492 15.147 18.2812 15.1708 17.466 15.1708H8.90615C5.49471 15.1708 3.78557 14.6113 3.78557 13.4886V5.1873C3.78557 4.06793 5.82557 3.54838 9.89829 3.54838H12.3051C13.2253 3.54838 13.6873 3.13716 13.6873 2.3177C13.6873 1.50249 13.2253 1.09595 12.3051 1.09595H8.88986C6.82885 1.09595 4.93157 1.32025 3.23957 1.89672C1.31443 2.5522 0 3.70514 0 5.19411V13.5051C0 15.0523 1.06114 16.1768 3.17528 16.8794C4.71343 17.3947 6.60557 17.653 8.86029 17.653H17.46C19.5586 17.653 21.3356 17.3666 22.7936 16.7953C24.6698 16.065 25.6058 14.9495 25.6058 13.4478Z" fill="white"/>
<path id="Vector_4" fill-rule="evenodd" clip-rule="evenodd" d="M77.4943 7.54884C77.4943 8.88444 75.8127 9.27145 72.5199 9.27145H59.1383V3.54838H72.5199C75.8127 3.54838 77.4943 3.9358 77.4943 5.27099V7.54884ZM77.9855 1.79221C76.4812 1.34659 74.6581 1.09595 72.5199 1.09595H56.4335C55.8375 1.09595 55.3535 1.57471 55.3535 2.16605V16.568C55.3535 17.2927 55.8082 17.6529 56.6829 17.6529H57.8084C58.6836 17.6529 59.1383 17.2927 59.1383 16.568V11.7243H72.5199C74.7975 11.7243 76.5485 11.4766 78.1604 10.9486C80.2292 10.1954 81.2799 8.99786 81.2799 7.35725V4.76972C81.2799 3.46003 80.194 2.45917 77.9855 1.79221Z" fill="white"/>
<path id="Vector_5" fill-rule="evenodd" clip-rule="evenodd" d="M93.8088 4.6348C90.5078 4.6348 89.1107 4.57532 87.1555 5.37015C85.3165 6.11824 84.5331 7.43303 84.5331 8.6429V16.62C84.5331 17.3099 84.9664 17.6531 85.8 17.6531H86.8714C87.7045 17.6531 88.1374 17.3099 88.1374 16.62V8.6429C88.1374 7.52862 89.5307 7.05623 92.2915 7.05623H93.8344C94.7357 7.05623 95.1634 6.64799 95.1634 5.84509C95.1634 5.04602 94.7104 4.6348 93.8088 4.6348Z" fill="white"/>
<g id="Mask group">
<mask id="mask0_599_81521" style="mask-type:alpha" maskUnits="userSpaceOnUse" x="0" y="1" width="120" height="38">
<g id="Group">
<path id="Vector_6" d="M0 38.6234H119.97V1.09595H0V38.6234Z" fill="white"/>
</g>
</mask>
<g mask="url(#mask0_599_81521)">
<g id="Group_2">
<path id="Vector_7" fill-rule="evenodd" clip-rule="evenodd" d="M0 38.6233H26.031V21.7314H0V38.6233Z" fill="white"/>
<path id="Vector_8" fill-rule="evenodd" clip-rule="evenodd" d="M31.3145 38.6233H57.3454V21.7314H31.3145V38.6233Z" fill="white"/>
<path id="Vector_9" fill-rule="evenodd" clip-rule="evenodd" d="M62.625 38.6233H88.656V21.7314H62.625V38.6233Z" fill="white"/>
<path id="Vector_10" fill-rule="evenodd" clip-rule="evenodd" d="M93.9375 38.6233H119.968V21.7314H93.9375V38.6233Z" fill="white"/>
</g>
</g>
</g>
</g>
<defs>
<clipPath id="clip0_599_81521">
<rect width="120" height="40" fill="white"/>
</clipPath>
</defs>
</svg>
