<svg width="870" height="75" viewBox="0 0 870 75" fill="none" xmlns="http://www.w3.org/2000/svg">
<path d="M779.687 1.57617H803.975L840.455 47.4642L847.655 1.57617H869.159L857.831 73.0002H836.423L797.447 24.8082L789.863 73.0002H768.359L779.687 1.57617Z" fill="#F8F8F8"/>
<path d="M707.943 74.2481C669.063 74.2481 661.191 55.3361 661.191 42.5681C661.191 40.3601 661.191 37.9601 661.671 34.5041C663.399 22.7921 669.351 0.328125 713.319 0.328125H717.447C756.039 0.328125 764.295 18.6641 764.295 31.5281C764.295 34.0241 764.199 36.6161 763.815 39.3041C761.991 51.5921 756.135 74.2481 712.071 74.2481H707.943ZM741.255 33.8321C741.255 25.9601 735.879 17.6081 714.663 17.6081C690.951 17.6081 685.287 28.1681 684.615 36.3281C684.519 37.5761 684.519 38.5361 684.519 39.5921C684.519 47.3681 689.223 56.8721 710.823 56.8721C734.151 56.8721 739.815 46.3121 740.967 37.6721C741.159 36.2321 741.255 35.1761 741.255 33.8321Z" fill="#F8F8F8"/>
<path d="M598.316 73.0002L606.956 18.4722H577.484L580.076 1.57617H661.196L658.508 18.4722H629.036L620.396 73.0002H598.316Z" fill="#F8F8F8"/>
<path d="M510.219 73.0002L518.859 18.4722H489.387L491.979 1.57617H573.099L570.411 18.4722H540.939L532.299 73.0002H510.219Z" fill="#F8F8F8"/>
<path d="M432.489 74.0562H429.225C392.361 74.0562 386.313 49.8642 388.617 35.4642L393.993 1.57617H415.881L410.697 34.3122C409.161 44.0082 412.425 55.5282 431.241 55.5282C449.097 55.5282 454.185 43.9122 455.625 34.8882L460.905 1.57617H482.793L477.321 36.0402C474.921 51.2082 467.049 74.0562 432.489 74.0562Z" fill="#F8F8F8"/>
<path d="M285.961 73.0002L297.289 1.57617H355.849C374.281 1.57617 379.753 8.48817 379.753 17.5122C379.753 27.4962 370.729 31.6242 365.833 32.9682C370.153 34.2162 378.505 38.5362 378.505 49.2882C378.505 62.5362 370.729 73.0002 347.113 73.0002H285.961ZM348.841 28.2642C355.369 28.2642 357.385 24.8082 357.385 21.8322C357.385 19.0482 356.137 16.6482 350.473 16.6482H316.681L314.857 28.2642H348.841ZM346.057 57.4482C354.025 57.4482 355.849 52.6482 355.849 49.5762C355.849 46.5042 354.601 43.4322 347.977 43.4322H312.457L310.249 57.4482H346.057Z" fill="#F8F8F8"/>
<path d="M67.7697 43.3162L57.9777 16.5322L41.3697 43.3162H67.7697ZM78.5217 72.5002L73.7217 59.4442H31.3857L23.3217 72.5002H0.761719L45.8817 1.07617H74.0097L101.178 72.5002H78.5217Z" fill="#F8F8F8"/>
</svg>
