<svg width="359" height="74" viewBox="0 0 359 74" fill="none" xmlns="http://www.w3.org/2000/svg">
<path fill-rule="evenodd" clip-rule="evenodd" d="M185.035 8.77667H187.096C186.065 7.92396 185.712 6.78947 185.712 5.68067C185.712 5.39822 185.733 5.17361 185.77 4.91525L185.77 4.91118C185.925 3.85908 186.421 2.77165 187.722 2.00044C188.944 1.2763 190.783 0.888672 193.496 0.888672H194.52C197.345 0.888672 199.264 1.38108 200.45 2.32964C201.72 3.34483 201.964 4.71863 201.816 5.92973L201.709 6.80867H200.251C200.624 7.11612 200.924 7.48325 201.141 7.91213C201.437 8.49872 201.552 9.14383 201.552 9.80867C201.552 10.148 201.516 10.5834 201.452 10.9008L201.452 10.9043C201.246 11.9145 200.804 13.0864 199.461 13.9466C198.191 14.7606 196.244 15.2087 193.256 15.2087H192.216C189.085 15.2087 187.128 14.5036 186.009 13.3135C184.874 12.1052 184.824 10.6361 184.934 9.66418L185.035 8.77667ZM197.954 6.80867C197.686 6.73974 197.395 6.68121 197.08 6.63297C196.79 6.5886 196.479 6.55293 196.147 6.52587C195.734 6.49229 195.289 6.47196 194.808 6.46467L192.888 6.43267C190.728 6.40067 190.504 5.88867 190.504 5.44067C190.504 4.96067 190.68 4.36867 193.656 4.36867H193.88C196.543 4.36867 196.96 5.11307 197.054 5.61862C197.067 5.68718 197.074 5.75135 197.08 5.80867H200.824C200.863 5.48406 200.868 5.15988 200.824 4.84483C200.822 4.83276 200.82 4.82071 200.819 4.80867C200.577 3.22932 199.081 1.88867 194.52 1.88867H193.496C188.2 1.88867 187 3.42467 186.76 5.05667C186.728 5.28067 186.712 5.45667 186.712 5.68067C186.712 7.00982 187.324 8.19453 189.259 8.77667C189.395 8.81767 189.538 8.85569 189.688 8.89055C189.988 8.96048 190.316 9.01774 190.673 9.06103C191.079 9.11026 191.523 9.14144 192.008 9.15267L193.992 9.20067C196.312 9.26467 196.664 9.61667 196.664 10.2567C196.664 10.8487 196.44 11.6647 193.112 11.6647H192.92C190.107 11.6647 189.74 10.6604 189.693 9.91533C189.69 9.86796 189.689 9.82163 189.688 9.77667H185.928C185.736 11.4727 186.184 14.2087 192.216 14.2087H193.256C199.096 14.2087 200.12 12.4327 200.472 10.7047C200.52 10.4647 200.552 10.0967 200.552 9.80867C200.552 8.27465 199.818 7.28895 197.954 6.80867ZM190.728 10.0737C190.753 10.1504 190.792 10.2021 190.846 10.2501C191.005 10.3888 191.509 10.6647 192.92 10.6647H193.112C194.624 10.6647 195.297 10.4851 195.57 10.3524C195.307 10.2886 194.823 10.2241 193.966 10.2003C193.965 10.2003 193.965 10.2003 193.964 10.2003L191.985 10.1524C191.984 10.1524 191.985 10.1524 191.985 10.1524C191.985 10.1524 191.984 10.1524 191.984 10.1524C191.541 10.1421 191.122 10.1159 190.728 10.0737ZM195.307 5.4767C194.979 5.41514 194.52 5.36867 193.88 5.36867H193.656C193.146 5.36867 192.743 5.38724 192.427 5.41545C192.567 5.42405 192.725 5.43016 192.903 5.43278L192.904 5.43281L194.823 5.46479C194.823 5.46479 194.823 5.46478 194.823 5.46479C194.987 5.46727 195.148 5.47123 195.307 5.4767Z" fill="#1845B3"/>
<path fill-rule="evenodd" clip-rule="evenodd" d="M168.658 1.09766H174.316L172.892 10.0417H180.857L180.08 15.0017H166.453L168.658 1.09766ZM171.72 11.0417L173.144 2.09766H169.512L167.624 14.0017H179.224L179.688 11.0417H171.72Z" fill="#1845B3"/>
<path fill-rule="evenodd" clip-rule="evenodd" d="M163.401 1.09766L161.196 15.0017H155.539L157.744 1.09766H163.401ZM162.23 2.09766H158.598L156.71 14.0017H160.342L162.23 2.09766Z" fill="#1845B3"/>
<path fill-rule="evenodd" clip-rule="evenodd" d="M133.928 14.0017L141.448 2.09766H146.136L150.664 14.0017H146.888L146.088 11.8257H139.032L137.688 14.0017H133.928ZM139.59 12.8257L138.246 15.0017H132.113L140.897 1.09766H146.825L152.114 15.0017H146.19L145.39 12.8257H139.59ZM143.464 4.67366L140.696 9.13766H145.096L143.464 4.67366ZM143.23 6.94764L142.493 8.13766H143.665L143.23 6.94764Z" fill="#1845B3"/>
<path fill-rule="evenodd" clip-rule="evenodd" d="M115.399 2.09766H124.839C128.327 2.09766 129.319 3.42566 129.319 4.97766C129.319 6.15871 128.673 6.92446 127.931 7.40185C127.517 7.6682 127.073 7.84479 126.695 7.95366C127.129 8.08759 127.539 8.28764 127.862 8.5771C128.347 9.01377 128.631 9.65395 128.487 10.5777L128.167 12.5777C128.143 12.7373 128.127 12.8777 128.117 13.0017C128.079 13.4686 128.128 13.7029 128.167 13.8586C128.17 13.8699 128.173 13.8809 128.175 13.8914C128.178 13.9018 128.181 13.9119 128.183 13.9217L128.167 14.0017H124.471C124.407 13.8737 124.359 13.6977 124.439 13.2017L124.647 11.8897C124.871 10.4817 124.343 9.77766 122.503 9.77766H117.815L117.143 14.0017H113.511L115.399 2.09766ZM118.668 10.7777L117.996 15.0017H112.34L114.545 1.09766H124.839C126.681 1.09766 128.061 1.4432 128.997 2.16295C129.984 2.92222 130.319 3.97121 130.319 4.97766C130.319 6.45307 129.587 7.42622 128.748 8.04906C128.788 8.09321 128.828 8.13885 128.866 8.18603C129.406 8.85196 129.634 9.71694 129.475 10.732L129.474 10.7356L129.156 12.7269C129.156 12.7283 129.155 12.7298 129.155 12.7312C129.1 13.1 129.099 13.3119 129.107 13.4279C129.113 13.5205 129.124 13.5642 129.144 13.6447C129.147 13.6555 129.15 13.6669 129.153 13.6791L129.208 13.8973L128.987 15.0017H123.853L123.577 14.4489C123.38 14.0558 123.356 13.6392 123.451 13.0451M123.452 13.0424L123.659 11.7331C123.755 11.1326 123.633 11.0039 123.624 10.9941C123.585 10.953 123.355 10.7777 122.503 10.7777H118.668M119.393 6.13766H123.751C124.171 6.13766 124.321 6.0255 124.357 5.99273C124.391 5.96148 124.415 5.91798 124.415 5.84166C124.415 5.83951 124.415 5.83743 124.415 5.8354C124.359 5.82003 124.257 5.80166 124.087 5.80166H119.448L119.393 6.13766ZM123.751 7.13766C124.951 7.13766 125.415 6.48166 125.415 5.84166C125.415 5.23366 125.063 4.80166 124.087 4.80166H118.599L118.215 7.13766H123.751Z" fill="#1845B3"/>
<path fill-rule="evenodd" clip-rule="evenodd" d="M96.9701 15.0017L98.4101 5.91366H93.5039L94.2427 1.09766H109.793L109.026 5.91366H104.115L102.675 15.0017H96.9701ZM103.261 4.91366H108.173L108.621 2.09766H95.101L94.669 4.91366H99.581L98.141 14.0017H101.821L103.261 4.91366Z" fill="#1845B3"/>
<path fill-rule="evenodd" clip-rule="evenodd" d="M63.9107 2.09766H73.3507C76.8387 2.09766 77.8307 3.42566 77.8307 4.97766C77.8307 6.15871 77.1846 6.92446 76.4427 7.40185C76.0287 7.6682 75.5848 7.84479 75.2067 7.95366C75.6404 8.08759 76.0512 8.28764 76.3733 8.5771C76.8591 9.01377 77.143 9.65395 76.9987 10.5777L76.6787 12.5777C76.6546 12.7373 76.6384 12.8777 76.6284 13.0017C76.5906 13.4686 76.6397 13.7028 76.6787 13.8585C76.6815 13.8699 76.6843 13.8809 76.687 13.8915C76.6897 13.9019 76.6922 13.9119 76.6947 13.9217L76.6787 14.0017H72.9827C72.9187 13.8737 72.8707 13.6977 72.9507 13.2017L73.1587 11.8897C73.3827 10.4817 72.8547 9.77766 71.0147 9.77766H66.3267L65.6547 14.0017H62.0227L63.9107 2.09766ZM67.1801 10.7777L66.5082 15.0017H60.8516L63.0568 1.09766H73.3507C75.1925 1.09766 76.5723 1.4432 77.5083 2.16295C78.4956 2.92222 78.8307 3.97121 78.8307 4.97766C78.8307 6.45307 78.099 7.42622 77.2596 8.04906C77.3 8.09321 77.3393 8.13885 77.3776 8.18603C77.9172 8.85196 78.1453 9.71694 77.9867 10.732L77.9861 10.7356L77.6675 12.7269C77.6672 12.7283 77.667 12.7298 77.6668 12.7312C77.6114 13.1 77.6105 13.3119 77.6184 13.4279C77.6247 13.5205 77.6357 13.5642 77.6561 13.6447C77.6589 13.6555 77.6617 13.6669 77.6648 13.6791L77.7193 13.8973L77.4985 15.0017H72.3646L72.0882 14.4489C71.8914 14.0552 71.8674 13.6379 71.9634 13.0424L72.171 11.7331C72.2665 11.1326 72.1447 11.0039 72.1354 10.9941C72.0964 10.953 71.8671 10.7777 71.0147 10.7777H67.1801ZM67.9045 6.13766H72.2627C72.6824 6.13766 72.833 6.0255 72.8687 5.99273C72.9028 5.96148 72.9267 5.91798 72.9267 5.84166C72.9267 5.83951 72.9266 5.83743 72.9266 5.8354C72.8711 5.82003 72.7691 5.80166 72.5987 5.80166H67.9597L67.9045 6.13766ZM72.2627 7.13766C73.4627 7.13766 73.9267 6.48166 73.9267 5.84166C73.9267 5.23366 73.5747 4.80166 72.5987 4.80166H67.1107L66.7267 7.13766H72.2627Z" fill="#1845B3"/>
<path fill-rule="evenodd" clip-rule="evenodd" d="M39.2403 14.0017L46.7603 2.09766H51.4483L55.9763 14.0017H52.2003L51.4003 11.8257H44.3443L43.0003 14.0017H39.2403ZM44.902 12.8257L43.558 15.0017H37.4258L46.2092 1.09766H52.1379L57.4266 15.0017H51.5025L50.7025 12.8257H44.902ZM48.7763 4.67366L46.0083 9.13766H50.4083L48.7763 4.67366ZM48.5429 6.94764L47.805 8.13766H48.978L48.5429 6.94764Z" fill="#1845B3"/>
<path fill-rule="evenodd" clip-rule="evenodd" d="M25.6615 15.0017L27.1015 5.91366H22.1953L22.9341 1.09766H38.4841L37.7179 5.91366H32.8064L31.3664 15.0017H25.6615ZM31.9524 4.91366H36.8644L37.3124 2.09766H23.7924L23.3604 4.91366H28.2724L26.8324 14.0017H30.5124L31.9524 4.91366Z" fill="#1845B3"/>
<path fill-rule="evenodd" clip-rule="evenodd" d="M1.33152 8.77667H3.3924C2.36172 7.92396 2.0087 6.78947 2.0087 5.68067C2.0087 5.39822 2.02985 5.17361 2.06675 4.91525L2.06734 4.91118C2.22206 3.85908 2.71771 2.77165 4.01881 2.00044C5.24047 1.2763 7.07981 0.888672 9.7927 0.888672H10.8167C13.6422 0.888672 15.5608 1.38108 16.7472 2.32964C18.0169 3.34483 18.261 4.71863 18.1133 5.92973L18.0062 6.80867H16.5474C16.9211 7.11612 17.2204 7.48325 17.4375 7.91213C17.7343 8.49872 17.8487 9.14383 17.8487 9.80867C17.8487 10.148 17.8128 10.5834 17.7493 10.9008L17.7486 10.9043C17.5428 11.9145 17.1007 13.0864 15.7582 13.9466C14.488 14.7606 12.5409 15.2087 9.5527 15.2087H8.5127C5.38157 15.2087 3.4244 14.5036 2.30598 13.3135C1.17051 12.1052 1.12102 10.6361 1.23105 9.66418L1.33152 8.77667ZM14.2506 6.80867C13.983 6.73974 13.6921 6.68121 13.3767 6.63297C13.0866 6.5886 12.7758 6.55294 12.4434 6.52587C12.031 6.49229 11.5854 6.47196 11.1047 6.46467L9.1847 6.43267C7.0247 6.40067 6.8007 5.88867 6.8007 5.44067C6.8007 4.96067 6.9767 4.36867 9.9527 4.36867H10.1767C12.8396 4.36867 13.2568 5.11307 13.3513 5.61862C13.3641 5.68718 13.371 5.75135 13.3767 5.80867H17.1207C17.1603 5.48407 17.1651 5.1599 17.1207 4.84485C17.119 4.83278 17.1172 4.82072 17.1154 4.80867C16.8735 3.22932 15.3781 1.88867 10.8167 1.88867H9.7927C4.4967 1.88867 3.2967 3.42467 3.0567 5.05667C3.0247 5.28067 3.0087 5.45667 3.0087 5.68067C3.0087 7.00982 3.62041 8.19453 5.5558 8.77667C5.69212 8.81768 5.835 8.85569 5.9847 8.89055C6.28495 8.96048 6.61262 9.01774 6.9697 9.06103C7.37569 9.11026 7.8197 9.14144 8.3047 9.15267L10.2887 9.20067C12.6087 9.26467 12.9607 9.61667 12.9607 10.2567C12.9607 10.8487 12.7367 11.6647 9.4087 11.6647H9.2167C6.40357 11.6647 6.03738 10.6604 5.99035 9.91534C5.98736 9.86796 5.98566 9.82163 5.9847 9.77667H2.2247C2.0327 11.4727 2.4807 14.2087 8.5127 14.2087H9.5527C15.3927 14.2087 16.4167 12.4327 16.7687 10.7047C16.8167 10.4647 16.8487 10.0967 16.8487 9.80867C16.8487 8.27465 16.115 7.28895 14.2506 6.80867ZM7.02473 10.0737C7.05005 10.1504 7.08838 10.2021 7.14321 10.2501C7.30172 10.3888 7.80537 10.6647 9.2167 10.6647H9.4087C10.9205 10.6647 11.5942 10.4851 11.8664 10.3524C11.6034 10.2886 11.1202 10.2241 10.2628 10.2003C10.2622 10.2003 10.2617 10.2003 10.2611 10.2003L8.28154 10.1524C8.2812 10.1524 8.28086 10.1524 8.28052 10.1524C7.83747 10.1421 7.41905 10.1159 7.02473 10.0737ZM11.6034 5.4767C11.2761 5.41514 10.8164 5.36867 10.1767 5.36867H9.9527C9.44309 5.36867 9.04033 5.38724 8.72361 5.41545C8.86427 5.42405 9.02228 5.43016 9.19952 5.43278L9.20137 5.43281L11.1199 5.46479C11.1202 5.46479 11.1195 5.46478 11.1199 5.46479C11.2835 5.46727 11.4454 5.47123 11.6034 5.4767Z" fill="#1845B3"/>
<path fill-rule="evenodd" clip-rule="evenodd" d="M246.183 41.9174C245.305 42.5432 243.838 43.2087 241.568 43.2087H241.248C235.584 43.2087 234.016 40.1207 234.016 37.7047C234.016 37.3207 234.032 36.9847 234.096 36.5527C234.432 34.2327 235.92 30.8887 242.576 30.8887H243.072C248.37 30.8887 249.996 32.8256 250.363 34.4167C250.41 34.6193 250.437 34.8163 250.448 35.003C250.454 35.1157 250.455 35.2246 250.452 35.3287C250.451 35.3584 250.449 35.3877 250.448 35.4167H246.608C246.604 35.3939 246.599 35.3642 246.591 35.3287C246.501 34.915 246.036 33.7207 242.736 33.7207C239.232 33.7207 238.112 35.2727 237.904 36.7927C237.872 37.0327 237.856 37.1927 237.856 37.4167C237.856 38.9687 238.944 40.3127 241.872 40.3127C243.557 40.3127 244.707 39.9731 245.444 39.5847C246.155 39.2096 246.48 38.789 246.528 38.5847H241.952L242.304 36.3287H250.448L249.392 43.0007H247.216C247.22 42.8651 247.221 42.6855 247.216 42.4868C247.215 42.4519 247.214 42.4165 247.212 42.3805C247.197 41.945 247.154 41.4425 247.072 41.1127C246.899 41.3171 246.611 41.6125 246.183 41.9174ZM246.212 43.0857C245.173 43.6866 243.665 44.2087 241.568 44.2087H241.248C238.236 44.2087 236.147 43.3843 234.809 42.0782C233.476 40.777 233.016 39.1205 233.016 37.7047C233.016 37.2852 233.033 36.8991 233.106 36.4083C233.294 35.1144 233.816 33.4455 235.295 32.1087C236.779 30.7682 239.083 29.8887 242.576 29.8887H243.072C246.448 29.8887 248.598 30.6427 249.897 31.8C251.158 32.9233 251.479 34.3013 251.452 35.3287H251.618L250.246 44.0007H246.179L246.212 43.0857ZM245.478 35.3287C245.455 35.3063 245.427 35.283 245.395 35.2588C245.125 35.0549 244.419 34.7207 242.736 34.7207C241.121 34.7207 240.209 35.0789 239.697 35.4764C239.203 35.8606 238.972 36.3671 238.895 36.9248C238.866 37.1434 238.856 37.2548 238.856 37.4167C238.856 37.9463 239.032 38.3677 239.405 38.6775C239.683 38.909 240.134 39.1289 240.837 39.2391L241.448 35.3287H245.478Z" fill="#1845B3"/>
<path fill-rule="evenodd" clip-rule="evenodd" d="M212.471 30.0977H217.855L222.818 36.3402L223.797 30.0977H229.408L227.203 44.0017H222.303L216.923 37.3486L215.876 44.0017H210.266L212.471 30.0977ZM216.285 34.9697L222.781 43.0017H226.349L228.237 31.0977H224.653L223.453 38.7457L217.373 31.0977H213.325L211.437 43.0017H215.021L216.285 34.9697Z" fill="#1845B3"/>
<path fill-rule="evenodd" clip-rule="evenodd" d="M207.218 30.0977L205.012 44.0017H199.355L201.561 30.0977H207.218ZM206.047 31.0977H202.415L200.527 43.0017H204.159L206.047 31.0977Z" fill="#1845B3"/>
<path fill-rule="evenodd" clip-rule="evenodd" d="M183.982 44.0017L185.422 34.9137H180.516L181.254 30.0977H196.804L196.038 34.9137H191.127L189.687 44.0017H183.982ZM190.273 33.9137H195.185L195.633 31.0977H182.113L181.681 33.9137H186.593L185.153 43.0017H188.833L190.273 33.9137Z" fill="#1845B3"/>
<path fill-rule="evenodd" clip-rule="evenodd" d="M159.561 30.0977H164.945L169.908 36.3402L170.887 30.0977H176.498L174.292 44.0017H169.393L164.013 37.3486L162.966 44.0017H157.355L159.561 30.0977ZM163.375 34.9697L169.871 43.0017H173.439L175.327 31.0977H171.743L170.543 38.7457L164.463 31.0977H160.415L158.527 43.0017H162.111L163.375 34.9697Z" fill="#1845B3"/>
<path fill-rule="evenodd" clip-rule="evenodd" d="M154.308 30.0977L152.102 44.0017H146.445L148.651 30.0977H154.308ZM153.136 31.0977H149.504L147.616 43.0017H151.248L153.136 31.0977Z" fill="#1845B3"/>
<path fill-rule="evenodd" clip-rule="evenodd" d="M124.83 43.0017L132.35 31.0977H137.038L141.566 43.0017H137.79L136.99 40.8257H129.934L128.59 43.0017H124.83ZM130.492 41.8257L129.148 44.0017H123.016L131.799 30.0977H137.728L143.016 44.0017H137.092L136.292 41.8257H130.492ZM134.366 33.6737L131.598 38.1377H135.998L134.366 33.6737ZM134.133 35.9476L133.395 37.1377H134.568L134.133 35.9476Z" fill="#1845B3"/>
<path fill-rule="evenodd" clip-rule="evenodd" d="M111.198 44.0017H105.543L107.748 30.0977H117.002C119.049 30.0977 120.606 30.478 121.666 31.3056C122.777 32.1735 123.17 33.3942 123.17 34.6497C123.17 35.756 122.903 37.1483 121.82 38.2595C120.733 39.3753 118.994 40.0337 116.426 40.0337H111.838L111.198 44.0017ZM110.986 39.0337H116.426C121.242 39.0337 122.17 36.5697 122.17 34.6497C122.17 32.5697 120.906 31.0977 117.002 31.0977H108.602L106.714 43.0017H110.346L110.986 39.0337ZM112.562 35.3617H116.41C116.949 35.3617 117.154 35.2379 117.211 35.1892C117.242 35.1625 117.298 35.1065 117.298 34.9057C117.298 34.8905 117.298 34.8779 117.297 34.8676C117.279 34.8605 117.254 34.8518 117.219 34.843C117.128 34.8204 116.991 34.8017 116.794 34.8017H112.653L112.562 35.3617ZM116.41 36.3617C117.754 36.3617 118.298 35.7537 118.298 34.9057C118.298 34.1857 117.818 33.8017 116.794 33.8017H111.802L111.386 36.3617H116.41Z" fill="#1845B3"/>
<path fill-rule="evenodd" clip-rule="evenodd" d="M79.8685 44.0017L81.3085 34.9137H76.4023L77.1412 30.0977H92.6911L91.9249 34.9137H87.0135L85.5735 44.0017H79.8685ZM86.1594 33.9137H91.0714L91.5194 31.0977H77.9995L77.5675 33.9137H82.4794L81.0395 43.0017H84.7195L86.1594 33.9137Z" fill="#1845B3"/>
<path fill-rule="evenodd" clip-rule="evenodd" d="M53.2266 44.0017L55.4318 30.0977H61.0888L60.4008 34.4337H66.0398L66.7278 30.0977H72.3848L70.1796 44.0017H64.5244L65.2604 39.3137H59.6209L58.8849 44.0017H53.2266ZM58.7657 38.3137H66.4297L65.6937 43.0017H69.3257L71.2137 31.0977H67.5817L66.8937 35.4337H59.2297L59.9177 31.0977H56.2857L54.3977 43.0017H58.0297L58.7657 38.3137Z" fill="#1845B3"/>
<path fill-rule="evenodd" clip-rule="evenodd" d="M44.0187 41.9174C43.1406 42.5432 41.6736 43.2087 39.4036 43.2087H39.0836C33.4196 43.2087 31.8516 40.1207 31.8516 37.7047C31.8516 37.3207 31.8676 36.9847 31.9316 36.5527C32.2676 34.2327 33.7556 30.8887 40.4116 30.8887H40.9076C46.2055 30.8887 47.8318 32.8256 48.1994 34.4167C48.2462 34.6193 48.2726 34.8163 48.2836 35.003C48.2902 35.1157 48.2912 35.2246 48.2877 35.3287C48.2867 35.3584 48.2853 35.3877 48.2836 35.4167H44.4436C44.4398 35.3939 44.4348 35.3642 44.427 35.3287C44.3368 34.915 43.8724 33.7207 40.5716 33.7207C37.0676 33.7207 35.9476 35.2727 35.7396 36.7927C35.7076 37.0327 35.6916 37.1927 35.6916 37.4167C35.6916 38.9687 36.7796 40.3127 39.7076 40.3127C41.3925 40.3127 42.5433 39.9731 43.2799 39.5847C43.9912 39.2096 44.3164 38.789 44.3636 38.5847H39.7876L40.1396 36.3287H48.2836L47.2276 43.0007H45.0516C45.0564 42.865 45.0568 42.6854 45.0516 42.4866C45.0506 42.4518 45.0495 42.4164 45.0482 42.3805C45.0326 41.945 44.99 41.4425 44.9076 41.1127C44.7346 41.3171 44.4466 41.6125 44.0187 41.9174ZM44.0479 43.0857C43.0087 43.6866 41.5009 44.2087 39.4036 44.2087H39.0836C36.0715 44.2087 33.9827 43.3843 32.645 42.0782C31.3123 40.777 30.8516 39.1205 30.8516 37.7047C30.8516 37.285 30.8695 36.8988 30.9421 36.4077C31.1297 35.1139 31.6521 33.4453 33.1311 32.1087C34.6145 30.7682 36.9191 29.8887 40.4116 29.8887H40.9076C44.2835 29.8887 46.4336 30.6427 47.7327 31.8C48.9937 32.9233 49.3146 34.3013 49.2881 35.3287H49.4543L48.0817 44.0007H44.0152L44.0479 43.0857ZM43.3139 35.3287C43.2905 35.3063 43.2631 35.283 43.2311 35.2588C42.9609 35.0549 42.2547 34.7207 40.5716 34.7207C38.9568 34.7207 38.0446 35.0789 37.5331 35.4764C37.038 35.8609 36.8073 36.3681 36.7306 36.9266C36.7016 37.144 36.6916 37.2553 36.6916 37.4167C36.6916 37.9463 36.8677 38.3677 37.2406 38.6775C37.5193 38.909 37.9698 39.1289 38.6734 39.2391L39.2835 35.3287H43.3139Z" fill="#1845B3"/>
<path fill-rule="evenodd" clip-rule="evenodd" d="M27.2489 30.0977L25.0437 44.0017H19.3867L21.5919 30.0977H27.2489ZM26.0778 31.0977H22.4458L20.5578 43.0017H24.1898L26.0778 31.0977Z" fill="#1845B3"/>
<path fill-rule="evenodd" clip-rule="evenodd" d="M3.19349 30.0977H8.85119L7.42719 39.0417H15.3924L14.6148 44.0017H0.988281L3.19349 30.0977ZM6.25538 40.0417L7.67938 31.0977H4.04738L2.15938 43.0017H13.7594L14.2234 40.0417H6.25538Z" fill="#1845B3"/>
<path fill-rule="evenodd" clip-rule="evenodd" d="M342.152 66.7767H344.213C343.182 65.924 342.829 64.7895 342.829 63.6807C342.829 63.3982 342.85 63.1736 342.887 62.9153L342.888 62.9112C343.042 61.8591 343.538 60.7717 344.839 60.0004C346.061 59.2763 347.9 58.8887 350.613 58.8887H351.637C354.463 58.8887 356.381 59.3811 357.568 60.3296C358.837 61.3448 359.081 62.7186 358.934 63.9297L358.826 64.8087H357.368C357.741 65.1161 358.041 65.4832 358.258 65.9121C358.555 66.4987 358.669 67.1438 358.669 67.8087C358.669 68.148 358.633 68.5834 358.57 68.9008L358.569 68.9043C358.363 69.9145 357.921 71.0864 356.579 71.9466C355.308 72.7606 353.361 73.2087 350.373 73.2087H349.333C346.202 73.2087 344.245 72.5036 343.126 71.3135C341.991 70.1052 341.941 68.6361 342.051 67.6642L342.152 66.7767ZM355.071 64.8087C354.803 64.7397 354.512 64.6812 354.197 64.633C353.907 64.5886 353.596 64.5529 353.264 64.5259C352.851 64.4923 352.406 64.472 351.925 64.4647L350.005 64.4327C347.845 64.4007 347.621 63.8887 347.621 63.4407C347.621 62.9607 347.797 62.3687 350.773 62.3687H350.997C353.66 62.3687 354.077 63.1131 354.172 63.6186C354.184 63.6872 354.191 63.7514 354.197 63.8087H357.941C357.981 63.484 357.985 63.1599 357.941 62.8448C357.939 62.8327 357.938 62.8207 357.936 62.8087C357.694 61.2293 356.198 59.8887 351.637 59.8887H350.613C345.317 59.8887 344.117 61.4247 343.877 63.0567C343.845 63.2807 343.829 63.4567 343.829 63.6807C343.829 65.0098 344.441 66.1945 346.376 66.7767C346.512 66.8177 346.655 66.8557 346.805 66.8906C347.105 66.9605 347.433 67.0177 347.79 67.061C348.196 67.1103 348.64 67.1414 349.125 67.1527L351.109 67.2007C353.429 67.2647 353.781 67.6167 353.781 68.2567C353.781 68.8487 353.557 69.6647 350.229 69.6647H350.037C347.224 69.6647 346.858 68.6604 346.811 67.9153C346.808 67.868 346.806 67.8216 346.805 67.7767H343.045C342.853 69.4727 343.301 72.2087 349.333 72.2087H350.373C356.213 72.2087 357.237 70.4327 357.589 68.7047C357.637 68.4647 357.669 68.0967 357.669 67.8087C357.669 66.2746 356.935 65.289 355.071 64.8087ZM347.845 68.0737C347.87 68.1504 347.909 68.2021 347.964 68.2501C348.122 68.3888 348.626 68.6647 350.037 68.6647H350.229C351.741 68.6647 352.414 68.4851 352.687 68.3524C352.424 68.2886 351.94 68.2241 351.083 68.2003C351.083 68.2003 351.082 68.2003 351.081 68.2003L349.102 68.1524M347.845 68.0737C348.239 68.1159 348.658 68.1421 349.101 68.1524ZM352.424 63.4767C352.096 63.4151 351.637 63.3687 350.997 63.3687H350.773C350.263 63.3687 349.861 63.3872 349.544 63.4154C349.685 63.424 349.843 63.4302 350.02 63.4328L350.022 63.4328L351.94 63.4648C351.941 63.4648 351.941 63.4648 351.941 63.4648C352.105 63.4673 352.266 63.4712 352.424 63.4767Z" fill="#1845B3"/>
<path fill-rule="evenodd" clip-rule="evenodd" d="M325.776 59.0977H331.433L330.009 68.0417H337.974L337.197 73.0017H323.57L325.776 59.0977ZM328.837 69.0417L330.261 60.0977H326.629L324.741 72.0017H336.341L336.805 69.0417H328.837Z" fill="#1845B3"/>
<path fill-rule="evenodd" clip-rule="evenodd" d="M320.518 59.0977L318.313 73.0017H312.656L314.861 59.0977H320.518ZM319.347 60.0977H315.715L313.827 72.0017H317.459L319.347 60.0977Z" fill="#1845B3"/>
<path fill-rule="evenodd" clip-rule="evenodd" d="M291.045 72.0017L298.565 60.0977H303.253L307.781 72.0017H304.005L303.205 69.8257H296.149L294.805 72.0017H291.045ZM296.707 70.8257L295.363 73.0017H289.23L298.014 59.0977H303.943L309.231 73.0017H303.307L302.507 70.8257H296.707ZM300.581 62.6737L297.813 67.1377H302.213L300.581 62.6737ZM300.348 64.9476L299.61 66.1377H300.783L300.348 64.9476Z" fill="#1845B3"/>
<path fill-rule="evenodd" clip-rule="evenodd" d="M272.516 60.0977H281.956C285.444 60.0977 286.436 61.4257 286.436 62.9777C286.436 64.1587 285.79 64.9245 285.048 65.4018C284.634 65.6682 284.19 65.8448 283.812 65.9537C284.246 66.0876 284.657 66.2876 284.979 66.5771C285.465 67.0138 285.748 67.6539 285.604 68.5777L285.284 70.5777C285.26 70.7373 285.244 70.8777 285.234 71.0017C285.196 71.4686 285.245 71.7029 285.284 71.8586C285.287 71.87 285.29 71.8809 285.292 71.8915L285.3 71.9217L285.284 72.0017H281.588C281.524 71.8737 281.476 71.6977 281.556 71.2017L281.588 71.0017L281.764 69.8897C281.988 68.4817 281.46 67.7777 279.62 67.7777H274.932L274.26 72.0017H270.628L272.516 60.0977ZM275.786 68.7777L275.114 73.0017H269.457L271.662 59.0977H281.956C283.798 59.0977 285.178 59.4432 286.114 60.1629C287.101 60.9222 287.436 61.9712 287.436 62.9777C287.436 64.4531 286.704 65.4262 285.865 66.0491C285.905 66.0932 285.945 66.1389 285.983 66.186C286.523 66.852 286.751 67.7169 286.592 68.732L286.273 70.7269C286.273 70.7278 286.273 70.7287 286.273 70.7296C286.217 71.0994 286.216 71.3118 286.224 71.4279C286.23 71.5206 286.241 71.5643 286.262 71.6451L286.27 71.6791L286.325 71.8973L286.104 73.0017H280.97L280.694 72.4489C280.497 72.0558 280.473 71.6392 280.568 71.0451M280.569 71.0424L280.776 69.7331C280.873 69.1292 280.749 69.0025 280.741 68.994C280.702 68.9529 280.473 68.7777 279.62 68.7777H275.786M276.51 64.1377H280.868C281.288 64.1377 281.438 64.0255 281.474 63.9927C281.508 63.9615 281.532 63.918 281.532 63.8417C281.532 63.8395 281.532 63.8374 281.532 63.8354C281.477 63.82 281.375 63.8017 281.204 63.8017H276.565L276.51 64.1377ZM280.868 65.1377C282.068 65.1377 282.532 64.4817 282.532 63.8417C282.532 63.2337 282.18 62.8017 281.204 62.8017H275.716L275.332 65.1377H280.868Z" fill="#1845B3"/>
<path fill-rule="evenodd" clip-rule="evenodd" d="M254.087 73.0017L255.527 63.9137H250.621L251.36 59.0977H266.91L266.144 63.9137H261.232L259.792 73.0017H254.087ZM260.378 62.9137H265.29L265.738 60.0977H252.218L251.786 62.9137H256.698L255.258 72.0017H258.938L260.378 62.9137Z" fill="#1845B3"/>
<path fill-rule="evenodd" clip-rule="evenodd" d="M223.978 73.0017L225.418 63.9137H220.512L221.251 59.0977H236.8L236.034 63.9137H231.123L229.683 73.0017H223.978ZM230.269 62.9137H235.181L235.629 60.0977H222.109L221.677 62.9137H226.589L225.149 72.0017H228.829L230.269 62.9137Z" fill="#1845B3"/>
<path fill-rule="evenodd" clip-rule="evenodd" d="M197.336 73.0017L199.541 59.0977H205.198L204.51 63.4337H210.149L210.837 59.0977H216.494L214.289 73.0017H208.634L209.37 68.3137H203.73L202.994 73.0017H197.336ZM202.875 67.3137H210.539L209.803 72.0017H213.435L215.323 60.0977H211.691L211.003 64.4337H203.339L204.027 60.0977H200.395L198.507 72.0017H202.139L202.875 67.3137Z" fill="#1845B3"/>
<path fill-rule="evenodd" clip-rule="evenodd" d="M188.132 70.9174C187.254 71.5432 185.787 72.2087 183.517 72.2087H183.197C177.533 72.2087 175.965 69.1207 175.965 66.7047C175.965 66.3207 175.981 65.9847 176.045 65.5527C176.381 63.2327 177.869 59.8887 184.525 59.8887H185.021C190.319 59.8887 191.945 61.8256 192.313 63.4167C192.359 63.6193 192.386 63.8163 192.397 64.003C192.403 64.1156 192.404 64.2246 192.401 64.3287C192.4 64.3584 192.399 64.3877 192.397 64.4167H188.557C188.553 64.3939 188.548 64.3642 188.54 64.3287C188.45 63.915 187.986 62.7207 184.685 62.7207C181.181 62.7207 180.061 64.2727 179.853 65.7927C179.821 66.0327 179.805 66.1927 179.805 66.4167C179.805 67.9687 180.893 69.3127 183.821 69.3127C185.506 69.3127 186.657 68.9731 187.393 68.5847C188.105 68.2096 188.43 67.789 188.477 67.5847H183.901L184.253 65.3287H192.397L191.341 72.0007H189.165C189.17 71.8651 189.17 71.6855 189.165 71.4868C189.164 71.4519 189.163 71.4165 189.162 71.3805C189.146 70.945 189.103 70.4425 189.021 70.1127C188.848 70.3171 188.56 70.6125 188.132 70.9174ZM188.161 72.0857C187.122 72.6866 185.614 73.2087 183.517 73.2087H183.197C180.185 73.2087 178.096 72.3843 176.758 71.0782C175.426 69.777 174.965 68.1205 174.965 66.7047C174.965 66.2852 174.983 65.8991 175.055 65.4083C175.243 64.1144 175.765 62.4455 177.244 61.1087C178.728 59.7682 181.032 58.8887 184.525 58.8887H185.021C188.397 58.8887 190.547 59.6427 191.846 60.8C193.107 61.9233 193.428 63.3013 193.401 64.3287H193.568L192.195 73.0007H188.128L188.161 72.0857ZM187.427 64.3287C187.404 64.3063 187.376 64.283 187.344 64.2588C187.074 64.0549 186.368 63.7207 184.685 63.7207C183.07 63.7207 182.158 64.0789 181.646 64.4764C181.152 64.8606 180.921 65.3671 180.844 65.9248C180.815 66.1434 180.805 66.2548 180.805 66.4167C180.805 66.9463 180.981 67.3677 181.354 67.6775C181.633 67.909 182.083 68.1289 182.787 68.2391L183.397 64.3287H187.427Z" fill="#1845B3"/>
<path fill-rule="evenodd" clip-rule="evenodd" d="M171.358 59.0977L169.153 73.0017H163.496L165.701 59.0977H171.358ZM170.187 60.0977H166.555L164.667 72.0017H168.299L170.187 60.0977Z" fill="#1845B3"/>
<path fill-rule="evenodd" clip-rule="evenodd" d="M147.307 59.0977H152.964L151.54 68.0417H159.506L158.728 73.0017H145.102L147.307 59.0977ZM150.369 69.0417L151.793 60.0977H148.161L146.273 72.0017H157.873L158.337 69.0417H150.369Z" fill="#1845B3"/>
<path fill-rule="evenodd" clip-rule="evenodd" d="M117.635 59.0977H131.853L131.102 63.8017H130.918L130.214 68.2337H130.537L129.793 73.0017H115.43L117.635 59.0977ZM120.937 67.2817H129.353L129.785 64.5617H121.369L121.641 62.8017H130.249L130.681 60.0977H118.489L116.601 72.0017H128.937L129.369 69.2337H120.617L120.937 67.2817Z" fill="#1845B3"/>
<path fill-rule="evenodd" clip-rule="evenodd" d="M99.2404 59.0977H104.898L103.474 68.0417H111.439L110.662 73.0017H97.0352L99.2404 59.0977ZM102.302 69.0417L103.726 60.0977H100.094L98.2063 72.0017H109.806L110.27 69.0417H102.302Z" fill="#1845B3"/>
<path fill-rule="evenodd" clip-rule="evenodd" d="M92.0178 68.2007C91.4512 69.9497 89.5971 72.2087 84.1133 72.2087H83.4733C77.5373 72.2087 76.1133 69.0087 76.1133 66.6887C76.1133 66.3047 76.1293 65.9527 76.2093 65.3767C76.4813 63.3607 77.9693 59.8887 84.5613 59.8887H85.1853C92.0813 59.8887 92.8333 63.1207 92.5933 64.7527H88.7373C88.6893 64.4007 88.3693 62.7687 84.6733 62.7687C81.2653 62.7687 80.2573 64.3687 80.0653 65.5847C80.0173 65.8887 80.0013 66.1447 80.0013 66.4327C80.0013 67.8567 80.8973 69.3127 83.9373 69.3127C87.5553 69.3127 88.2061 67.6234 88.3528 67.2428C88.3592 67.2262 88.3646 67.2121 88.3693 67.2007H92.2253C92.1977 67.4954 92.1356 67.837 92.0178 68.2007ZM75.2186 65.2404C75.1321 65.8636 75.1133 66.2614 75.1133 66.6887C75.1133 68.0421 75.5294 69.7048 76.8628 71.0284C78.202 72.3579 80.3286 73.2087 83.4733 73.2087H84.1133C87.5867 73.2087 89.838 72.3429 91.2538 71.0975C92.6698 69.8519 93.1234 68.3379 93.2209 67.2937L93.3231 66.2007H87.6996L87.4446 66.8199C87.4386 66.8345 87.4323 66.8508 87.4254 66.8686C87.3654 67.0238 87.2615 67.2928 86.9054 67.5756C86.5035 67.8948 85.6616 68.3127 83.9373 68.3127C82.5636 68.3127 81.8547 67.9833 81.4972 67.6624C81.1533 67.3539 81.0013 66.9336 81.0013 66.4327C81.0013 66.1886 81.0144 65.9855 81.053 65.7406C81.1171 65.3347 81.3122 64.8757 81.7814 64.5068C82.2575 64.1324 83.1209 63.7687 84.6733 63.7687C86.3886 63.7687 87.1322 64.1488 87.437 64.4001C87.7121 64.627 87.74 64.8391 87.746 64.8846L87.7465 64.8878L87.8644 65.7527H93.457L93.5826 64.8982C93.7358 63.8564 93.5718 62.2907 92.2696 60.9988C90.9853 59.7246 88.7641 58.8887 85.1853 58.8887H84.5613C81.0883 58.8887 78.8033 59.8067 77.342 61.1373C75.8894 62.46 75.3761 64.0766 75.2186 65.2404Z" fill="#1845B3"/>
<path fill-rule="evenodd" clip-rule="evenodd" d="M71.5263 59.0977L69.3211 73.0017H63.6641L65.8693 59.0977H71.5263ZM70.3552 60.0977H66.7232L64.8352 72.0017H68.4672L70.3552 60.0977Z" fill="#1845B3"/>
<path fill-rule="evenodd" clip-rule="evenodd" d="M41.4531 73.0017L43.6583 59.0977H49.3154L48.6274 63.4337H54.2664L54.9544 59.0977H60.6113L58.4061 73.0017H52.751L53.487 68.3137H47.8475L47.1115 73.0017H41.4531ZM46.9922 67.3137H54.6562L53.9202 72.0017H57.5522L59.4402 60.0977H55.8082L55.1202 64.4337H47.4562L48.1442 60.0977H44.5122L42.6242 72.0017H46.2562L46.9922 67.3137Z" fill="#1845B3"/>
<path fill-rule="evenodd" clip-rule="evenodd" d="M24.2911 59.0977H38.5095L37.758 63.8017H37.5743L36.8704 68.2337H37.1932L36.4491 73.0017H22.0859L24.2911 59.0977ZM27.593 67.2817H36.009L36.441 64.5617H28.025L28.297 62.8017H36.905L37.337 60.0977H25.145L23.257 72.0017H35.593L36.025 69.2337H27.273L27.593 67.2817Z" fill="#1845B3"/>
<path fill-rule="evenodd" clip-rule="evenodd" d="M6.48468 73.0017L1.38281 59.0977H7.51068L10.098 66.5616L14.5682 59.0977H20.7726L12.2882 73.0017H6.48468ZM9.85494 68.9137L6.79894 60.0977H2.81494L7.18294 72.0017H11.7269L18.9909 60.0977H15.1349L9.85494 68.9137Z" fill="#1845B3"/>
</svg>
