<svg width="1249" height="75" viewBox="0 0 1249 75" fill="none" xmlns="http://www.w3.org/2000/svg">
<path d="M1176.76 2.07617H1248.57L1245.98 18.3002H1195.87L1194.23 28.8602H1243.1L1240.51 45.1802H1191.64L1187.13 73.5002H1165.43L1176.76 2.07617Z" fill="#F8F8F8"/>
<path d="M1105.02 74.7481C1066.14 74.7481 1058.27 55.8361 1058.27 43.0681C1058.27 40.8601 1058.27 38.4601 1058.75 35.0041C1060.47 23.2921 1066.43 0.828125 1110.39 0.828125H1114.52C1153.11 0.828125 1161.37 19.1641 1161.37 32.0281C1161.37 34.5241 1161.27 37.1161 1160.89 39.8041C1159.07 52.0921 1153.21 74.7481 1109.15 74.7481H1105.02ZM1138.33 34.3321C1138.33 26.4601 1132.95 18.1081 1111.74 18.1081C1088.03 18.1081 1082.36 28.6681 1081.69 36.8281C1081.59 38.0761 1081.59 39.0361 1081.59 40.0921C1081.59 47.8681 1086.3 57.3721 1107.9 57.3721C1131.23 57.3721 1136.89 46.8121 1138.04 38.1721C1138.23 36.7321 1138.33 35.6761 1138.33 34.3321Z" fill="#F8F8F8"/>
<path d="M791.648 73.5002L802.976 2.07617H824.768L820.64 28.0922H866.624L870.752 2.07617H892.544L881.216 73.5002H859.424L863.84 45.3722H817.856L813.44 73.5002H791.648Z" fill="#F8F8F8"/>
<path d="M735.664 74.7481C699.472 74.7481 696.784 58.3321 697.936 48.1561H720.496C720.592 52.6681 721.936 59.4841 739.888 59.4841H741.04C761.008 59.4841 762.352 54.5881 762.352 51.0361C762.352 47.1961 760.24 45.0841 746.32 44.7001L734.416 44.4121C709.552 43.8361 702.64 34.5241 702.64 23.5801C702.64 22.2361 702.736 21.1801 702.928 19.8361C704.368 10.0441 711.568 0.828125 743.344 0.828125H749.488C782.512 0.828125 788.752 12.5401 787.312 24.3481H764.848C764.56 21.4681 763.792 15.7081 745.648 15.7081H744.304C726.448 15.7081 725.392 19.2601 725.392 22.1401C725.392 24.8281 726.736 27.9001 739.696 28.0921L751.216 28.2841C776.56 28.6681 785.68 35.1001 785.68 48.3481C785.68 50.0761 785.488 52.2841 785.2 53.7241C783.088 64.0921 776.944 74.7481 741.904 74.7481H735.664Z" fill="#F8F8F8"/>
<path d="M646.411 74.5562H643.147C606.283 74.5562 600.235 50.3642 602.539 35.9642L607.915 2.07617H629.803L624.619 34.8122C623.083 44.5082 626.347 56.0282 645.163 56.0282C663.019 56.0282 668.107 44.4122 669.547 35.3882L674.827 2.07617H696.715L691.243 36.5402C688.843 51.7082 680.971 74.5562 646.411 74.5562Z" fill="#F8F8F8"/>
<path d="M524.96 73.5002H503.168L514.496 2.07617H564.896C588.32 2.07617 595.904 10.9082 595.904 23.3882C595.904 34.9082 590.336 49.6922 561.44 49.6922H528.8L524.96 73.5002ZM531.2 33.6602H561.344C569.408 33.6602 572.672 30.0122 572.672 24.9242C572.672 20.6042 569.792 18.3002 563.648 18.3002H533.696L531.2 33.6602Z" fill="#F8F8F8"/>
<path d="M397.922 2.07617H471.074L468.482 18.3002H416.834L415.202 28.8602H465.698L463.106 45.1802H412.61L410.69 56.8922H463.202L460.61 73.5002H386.594L397.922 2.07617Z" fill="#F8F8F8"/>
<path d="M284.059 73.5002L295.387 2.07617H317.179L313.051 28.0922H359.035L363.163 2.07617H384.955L373.627 73.5002H351.835L356.251 45.3722H310.267L305.851 73.5002H284.059Z" fill="#F8F8F8"/>
<path d="M222.551 73.5002L231.191 18.9722H201.719L204.311 2.07617H285.431L282.743 18.9722H253.271L244.631 73.5002H222.551Z" fill="#F8F8F8"/>
<path d="M118.434 73.5002L127.074 18.9722H97.6016L100.194 2.07617H181.314L178.626 18.9722H149.154L140.514 73.5002H118.434Z" fill="#F8F8F8"/>
<path d="M67.7697 44.3162L57.9777 17.5322L41.3697 44.3162H67.7697ZM78.5217 73.5002L73.7217 60.4442H31.3857L23.3217 73.5002H0.761719L45.8817 2.07617H74.0097L101.178 73.5002H78.5217Z" fill="#F8F8F8"/>
</svg>
