<svg width="1238" height="77" viewBox="0 0 1238 77" fill="none" xmlns="http://www.w3.org/2000/svg">
<path d="M374.137 75.0002L382.777 20.4722H353.305L355.897 3.57617H437.017L434.329 20.4722H404.857L396.217 75.0002H374.137Z" fill="#F8F8F8"/>
<path d="M245.008 75.0002L256.336 3.57617H278.128L274 29.5922H319.984L324.112 3.57617H345.904L334.576 75.0002H312.784L317.2 46.8722H271.216L266.8 75.0002H245.008Z" fill="#F8F8F8"/>
<path d="M185.773 76.2481H183.853C149.869 76.2481 140.461 57.7201 140.461 43.2241C140.461 40.9201 140.557 38.9041 140.941 36.3121C142.957 22.3921 151.885 2.32812 191.821 2.32812H194.797C233.773 2.32812 239.629 19.8001 239.053 29.4961H216.013C215.725 27.7681 214.285 19.3201 192.781 19.3201C171.757 19.3201 165.037 28.6321 163.789 37.7521C163.597 39.1921 163.501 40.1521 163.501 41.4961C163.501 50.8081 170.029 58.8721 187.597 58.8721C207.469 58.8721 214.957 51.0001 215.533 48.5041H188.077L190.189 34.9681H239.053L232.717 75.0001H219.661C219.757 72.3121 219.565 66.7441 218.797 63.6721C215.629 67.4161 206.029 76.2481 185.773 76.2481Z" fill="#F8F8F8"/>
<path d="M136.522 3.57617L125.194 75.0002H103.402L114.73 3.57617H136.522Z" fill="#F8F8F8"/>
<path d="M12.2889 3.57617H36.5769L73.0569 49.4642L80.2569 3.57617H101.761L90.4329 75.0002H69.0249L30.0489 26.8082L22.4649 75.0002H0.960938L12.2889 3.57617Z" fill="#F8F8F8"/>
<path d="M1185.6 74.2481C1149.41 74.2481 1146.72 57.8321 1147.87 47.6561H1170.43C1170.53 52.1681 1171.87 58.9841 1189.83 58.9841H1190.98C1210.95 58.9841 1212.29 54.0881 1212.29 50.5361C1212.29 46.6961 1210.18 44.5841 1196.26 44.2001L1184.35 43.9121C1159.49 43.3361 1152.58 34.0241 1152.58 23.0801C1152.58 21.7361 1152.67 20.6801 1152.87 19.3361C1154.31 9.54413 1161.51 0.328125 1193.28 0.328125H1199.43C1232.45 0.328125 1238.69 12.0401 1237.25 23.8481H1214.79C1214.5 20.9681 1213.73 15.2081 1195.59 15.2081H1194.24C1176.39 15.2081 1175.33 18.7601 1175.33 21.6401C1175.33 24.3281 1176.67 27.4001 1189.63 27.5921L1201.15 27.7841C1226.5 28.1681 1235.62 34.6001 1235.62 47.8481C1235.62 49.5761 1235.43 51.7841 1235.14 53.2241C1233.03 63.5921 1226.88 74.2481 1191.84 74.2481H1185.6Z" fill="#F8F8F8"/>
<path d="M1085.98 73.0002L1094.62 18.4722H1065.15L1067.74 1.57617H1148.86L1146.18 18.4722H1116.7L1108.06 73.0002H1085.98Z" fill="#F8F8F8"/>
<path d="M1008.28 74.2481H1004.44C968.825 74.2481 960.281 55.0481 960.281 41.1281C960.281 38.8241 960.377 36.7121 960.857 33.2561C962.489 21.1601 971.417 0.328125 1010.97 0.328125H1014.71C1056.09 0.328125 1060.6 19.7201 1059.16 29.5121H1036.03C1035.74 27.4001 1033.82 17.6081 1011.64 17.6081C991.193 17.6081 985.145 27.2081 983.993 34.5041C983.705 36.3281 983.609 37.8641 983.609 39.5921C983.609 48.1361 988.985 56.8721 1007.23 56.8721C1029.88 56.8721 1033.15 45.8321 1033.82 44.2001H1056.95C1055.99 54.4721 1048.03 74.2481 1008.28 74.2481Z" fill="#F8F8F8"/>
<path d="M884.398 1.57617H957.55L954.958 17.8002H903.31L901.678 28.3602H952.174L949.582 44.6802H899.086L897.166 56.3922H949.678L947.086 73.0002H873.07L884.398 1.57617Z" fill="#F8F8F8"/>
<path d="M801.082 1.57617H872.89L870.298 17.8002H820.186L818.554 28.3602H867.418L864.826 44.6802H815.962L811.45 73.0002H789.754L801.082 1.57617Z" fill="#F8F8F8"/>
<path d="M717.762 1.57617H789.57L786.978 17.8002H736.866L735.234 28.3602H784.098L781.506 44.6802H732.642L728.13 73.0002H706.434L717.762 1.57617Z" fill="#F8F8F8"/>
<path d="M632.289 1.57617H705.441L702.849 17.8002H651.201L649.569 28.3602H700.065L697.473 44.6802H646.977L645.057 56.3922H697.569L694.977 73.0002H620.961L632.289 1.57617Z" fill="#F8F8F8"/>
</svg>
