<svg width="80" height="68" viewBox="0 0 80 68" fill="none" xmlns="http://www.w3.org/2000/svg">
<path d="M55.0813 27.7597C55.2253 27.7597 55.2973 27.5197 55.2973 27.0397L55.2253 26.9677L55.0813 27.1117C54.9853 27.1597 54.9373 27.2557 54.9373 27.3997C54.9373 27.4477 54.9373 27.5197 54.9373 27.6157C54.9853 27.7117 55.0333 27.7597 55.0813 27.7597ZM65.5933 32.0077L65.1613 31.0717C64.8733 30.4957 64.6333 30.2077 64.4413 30.2077C64.3453 30.2077 64.2253 30.2317 64.0813 30.2797C63.9373 30.3277 63.8173 30.3517 63.7213 30.3517H63.6493C63.6493 30.4957 63.9133 30.8077 64.4413 31.2877C64.9693 31.7677 65.3533 32.0077 65.5933 32.0077ZM68.6173 36.1117L68.6894 36.0397L68.0413 35.1037H67.9693C67.9693 35.1997 68.0413 35.3917 68.1853 35.6797C68.3773 35.9677 68.4973 36.1117 68.5453 36.1117H68.6173ZM72.4333 36.8317C72.9613 36.8317 73.4413 36.8077 73.8733 36.7597C74.3053 36.6637 74.5933 36.5917 74.7373 36.5437L74.8813 36.4717C74.8813 36.3757 74.2813 36.3277 73.0813 36.3277C71.8813 36.3277 71.0653 36.2557 70.6333 36.1117L70.2733 36.0397C70.2733 36.5677 70.9933 36.8317 72.4333 36.8317ZM73.8733 39.7117C73.6813 39.6157 73.4653 39.5437 73.2253 39.4957C73.0333 39.3997 72.8173 39.3277 72.5773 39.2797C72.3373 39.1837 71.9534 39.1357 71.4254 39.1357C71.9534 39.4237 72.3373 39.5917 72.5773 39.6397C72.8653 39.6877 73.2973 39.7117 73.8733 39.7117ZM54.5773 41.5117L54.7933 41.3677C54.8893 41.2717 54.9853 41.1277 55.0813 40.9357C55.2253 40.7437 55.2973 40.5997 55.2973 40.5037C55.2973 40.4077 55.2493 40.3597 55.1533 40.3597C55.1053 40.3597 54.9853 40.4317 54.7933 40.5757C54.6493 40.7197 54.5773 41.0077 54.5773 41.4397V41.5117ZM48.3853 60.5197C48.3373 60.5197 48.2413 60.4477 48.0973 60.3037C47.7133 60.1117 47.3293 59.8237 46.9453 59.4397C46.8013 59.3437 46.7053 59.2957 46.6573 59.2957C46.5613 59.2957 46.1053 59.0317 45.2893 58.5037C44.4253 58.0237 43.9213 57.5917 43.7773 57.2077C43.7773 55.6237 44.1853 53.2717 45.0013 50.1517C45.8173 47.0317 46.9213 43.5517 48.3133 39.7117C50.5693 33.2797 52.4173 29.2957 53.8573 27.7597C54.4813 27.0397 54.9613 26.6797 55.2973 26.6797C55.4893 26.6797 55.5853 26.8237 55.5853 27.1117C55.5853 27.5917 55.6813 27.9757 55.8733 28.2637C56.1133 28.7437 56.4253 28.9837 56.8093 28.9837C56.9053 28.9837 57.0013 28.9597 57.0973 28.9117C57.1933 28.8157 57.3133 28.7677 57.4573 28.7677C57.6013 28.7677 58.1533 29.1517 59.1133 29.9197L58.7533 31.2877C58.5133 32.0077 58.3213 32.3677 58.1773 32.3677C58.0333 32.3677 57.8173 32.6797 57.5293 33.3037C56.9533 34.5997 56.4013 36.1357 55.8733 37.9117L55.6573 39.1357H55.7293C56.0653 39.1357 57.0493 37.9837 58.6813 35.6797C61.5613 31.6477 63.4813 29.6317 64.4413 29.6317C64.8253 29.7757 65.1613 30.1357 65.4493 30.7117C65.6893 31.0957 66.2413 31.5997 67.1053 32.2237C67.7773 32.6077 68.4254 33.2317 69.0494 34.0957C69.3373 34.6237 69.6253 34.9837 69.9133 35.1757C70.5853 35.6077 71.5213 35.8237 72.7213 35.8237C74.3533 35.8237 75.6733 35.6797 76.6813 35.3917C76.6813 35.4397 76.5133 35.5837 76.1773 35.8237C75.8413 36.0157 75.6734 36.1597 75.6734 36.2557C75.6734 36.4477 75.9133 36.5437 76.3933 36.5437C76.9213 36.5437 77.3534 36.7117 77.6894 37.0477C77.8813 37.3837 78.1453 37.5517 78.4813 37.5517C78.5293 37.5037 78.6013 37.4797 78.6973 37.4797C78.7933 37.4797 78.9133 37.5277 79.0573 37.6237C79.2493 37.7197 79.4173 37.8877 79.5613 38.1277C79.7533 38.3197 79.8733 38.4877 79.9213 38.6317C79.9213 38.7757 79.7773 38.9197 79.4893 39.0637C78.7693 39.4957 77.9293 39.7597 76.9693 39.8557C76.2013 39.8557 75.8173 39.9277 75.8173 40.0717C75.8173 40.2157 75.4573 40.2877 74.7373 40.2877C73.8733 40.2877 73.1533 40.2637 72.5773 40.2157C72.0493 40.1197 71.6653 40.0237 71.4254 39.9277C71.1854 39.7837 70.7774 39.4957 70.2014 39.0637C69.6253 38.5837 69.0253 38.0557 68.4013 37.4797C67.7773 36.8557 67.2493 36.3997 66.8173 36.1117C66.4333 35.8237 66.1693 35.6797 66.0253 35.6797C65.5933 35.6797 63.6493 38.2957 60.1933 43.5277C57.4093 47.7517 54.5053 52.3357 51.4813 57.2797C51.0013 58.0957 50.4253 58.8397 49.7533 59.5117C49.0813 60.1837 48.6253 60.5197 48.3853 60.5197Z" fill="#999999"/>
<path d="M37.1133 46.3358C37.1133 46.2398 36.9933 45.9998 36.7533 45.6158C35.9853 44.3678 35.5533 43.7438 35.4573 43.7438V43.8158C35.4573 44.0078 35.5533 44.3198 35.7453 44.7518C35.9853 45.1358 36.2493 45.4958 36.5373 45.8318C36.8253 46.1678 37.0173 46.3358 37.1133 46.3358ZM37.9053 44.9678C38.0493 44.9678 38.3853 44.4638 38.9133 43.4558C41.2173 39.0398 42.4653 35.3198 42.6573 32.2958L42.7293 30.7118C42.7293 30.2798 42.7053 30.0638 42.6573 30.0638C42.0333 30.0638 41.2173 30.6398 40.2093 31.7918C39.2013 32.9438 38.3613 34.2398 37.6893 35.6798C37.0173 37.1198 36.6813 38.7278 36.6813 40.5038C36.6813 41.7038 36.8493 42.7598 37.1853 43.6718C37.5693 44.5358 37.8093 44.9678 37.9053 44.9678ZM43.5933 27.3278L43.3773 26.8238C42.8493 25.9118 42.0573 25.4558 41.0013 25.4558H40.5693C39.9453 25.5518 39.6333 25.6478 39.6333 25.7438C39.6333 25.8398 39.9693 25.9118 40.6413 25.9598C41.3613 26.0078 41.7213 26.1038 41.7213 26.2478V26.3918C41.7213 26.4878 41.8173 26.5838 42.0093 26.6798C42.2013 26.7758 42.3933 26.8718 42.5853 26.9678C42.7773 27.0158 42.9693 27.0878 43.1613 27.1838C43.3533 27.2798 43.4733 27.3278 43.5213 27.3278H43.5933ZM43.3773 41.3678C43.5693 41.3678 43.9533 40.5518 44.5293 38.9198C44.9133 37.6238 45.1053 36.8798 45.1053 36.6878V36.5438C45.0573 36.5438 44.9613 36.6878 44.8173 36.9758C44.4813 37.7438 44.1453 38.7998 43.8093 40.1438L43.3773 41.3678ZM45.5373 31.8638C45.5853 31.8638 45.6333 31.7918 45.6813 31.6478C45.6813 31.4558 45.5853 31.0958 45.3933 30.5678C45.1053 29.7998 44.8893 29.4158 44.7453 29.4158C44.6013 29.4158 44.5293 29.4878 44.5293 29.6318C44.7693 30.1118 44.9853 30.6158 45.1773 31.1438C45.3693 31.6238 45.4893 31.8638 45.5373 31.8638ZM45.2493 35.6078C45.3453 35.6078 45.3933 35.4158 45.3933 35.0318C45.3933 34.5998 45.3453 34.3838 45.2493 34.3838C45.2013 34.3838 45.1773 34.5998 45.1773 35.0318C45.1773 35.4158 45.2013 35.6078 45.2493 35.6078ZM42.5133 43.3838C42.5613 43.3838 42.6813 43.1918 42.8733 42.8078C43.1613 42.5198 43.3053 42.2078 43.3053 41.8718V41.7998C43.2573 41.7998 43.1373 41.9438 42.9453 42.2318C42.8013 42.5198 42.6813 42.7598 42.5853 42.9518C42.5373 43.0958 42.5133 43.2158 42.5133 43.3118V43.3838ZM26.1693 55.4078C26.5533 55.4078 27.3693 55.0958 28.6173 54.4718C31.3053 53.0798 33.5373 51.2798 35.3133 49.0718L36.6093 47.4158L34.8093 45.5438C33.9933 44.6318 33.2013 43.5518 32.4333 42.3038C31.7133 41.0558 31.3533 40.1678 31.3533 39.6398C31.3533 39.5438 31.3293 39.4958 31.2813 39.4958C31.2333 39.5438 31.1133 39.6638 30.9213 39.8558C30.7773 39.9998 30.7053 40.2158 30.7053 40.5038L30.7773 40.7198C30.7773 40.8158 30.7053 40.8638 30.5613 40.8638C30.4173 40.8638 30.3453 40.9118 30.3453 41.0078L30.4173 41.2238C30.4173 41.4158 30.3213 41.6078 30.1293 41.7998C29.9373 41.9918 29.8413 42.1598 29.8413 42.3038V42.4478C29.8413 42.5438 29.7693 42.5918 29.6253 42.5918C29.4813 42.5918 29.4093 42.6398 29.4093 42.7358L29.3373 43.4558C29.1453 44.0798 28.9293 44.3918 28.6893 44.3918H28.4733C28.4733 44.4398 28.4973 44.4878 28.5453 44.5358C28.5933 44.5358 28.6173 44.5598 28.6173 44.6078C28.6173 44.8958 28.4973 45.2318 28.2573 45.6158L27.8973 46.4798H27.9693L27.8253 46.8398C27.3453 47.6078 27.1053 48.1598 27.1053 48.4958C27.1053 48.7838 27.0093 49.0238 26.8173 49.2158L26.5293 50.1518C26.2413 51.0158 26.0493 51.7838 25.9533 52.4558C25.8093 53.4638 25.7373 54.1598 25.7373 54.5438C25.7373 55.1198 25.8813 55.4078 26.1693 55.4078ZM27.6093 59.4398L27.6813 59.3678C27.6813 59.2718 27.4653 59.2238 27.0333 59.2238C26.6013 59.2238 26.3853 59.2718 26.3853 59.3678C26.3853 59.4158 26.7933 59.4398 27.6093 59.4398ZM26.3133 56.2718C26.5053 56.2718 26.6733 56.2478 26.8173 56.1998C26.9613 56.1518 27.0573 56.1038 27.1053 56.0558C27.2013 55.9598 27.2493 55.8878 27.2493 55.8398C27.2493 55.7918 27.2013 55.7678 27.1053 55.7678C26.9613 55.7678 26.6733 55.8638 26.2413 56.0558C26.0013 56.1518 25.8813 56.2238 25.8813 56.2718H26.3133ZM26.8173 60.3038C26.5293 60.3038 26.3133 60.2798 26.1693 60.2318C26.0733 60.1838 25.9533 60.1118 25.8093 60.0158C22.4973 58.0958 20.5053 56.5838 19.8333 55.4798C19.3533 54.6638 19.1133 53.4158 19.1133 51.7358C19.1133 48.5678 20.0733 45.0878 21.9933 41.2958C26.1213 33.2798 30.5613 27.8558 35.3133 25.0238C35.8413 24.7358 36.2253 24.5918 36.4653 24.5918C36.7533 24.5918 36.9453 24.6638 37.0413 24.8078C37.1853 24.9038 37.2813 24.9998 37.3293 25.0958C37.3773 25.1438 37.4253 25.4078 37.4733 25.8878C37.4253 25.8878 37.3773 25.7918 37.3293 25.5998C37.2813 25.2158 37.0653 25.0238 36.6813 25.0238C36.4893 25.0238 36.2253 25.0958 35.8893 25.2398C35.7453 25.2878 35.6733 25.3358 35.6733 25.3838C35.6733 25.5278 35.9613 25.6718 36.5373 25.8158C36.8733 25.9118 37.1373 25.9598 37.3293 25.9598C37.6653 25.9598 37.9773 25.8638 38.2653 25.6718C38.9373 25.1438 39.6573 24.8798 40.4253 24.8798C40.7133 24.8798 41.1693 24.9518 41.7933 25.0958C42.4173 25.1918 43.0653 25.7678 43.7373 26.8238C44.2173 27.5438 44.7213 28.1198 45.2493 28.5518C46.3533 29.7038 47.0493 31.0958 47.3373 32.7278C47.3853 32.9678 47.4093 33.2558 47.4093 33.5918C47.4093 34.8398 47.0973 36.5438 46.4733 38.7038C45.8493 40.8638 44.6733 43.6958 42.9453 47.1998C42.6573 47.6798 42.5133 48.0158 42.5133 48.2078C42.5133 48.3518 42.5853 48.4238 42.7293 48.4238C42.9213 48.4238 43.1373 48.4958 43.3773 48.6398C44.2893 49.1678 44.7453 49.6238 44.7453 50.0078C44.7453 50.1038 44.6973 50.1998 44.6013 50.2958C44.5053 50.3918 44.3373 50.4398 44.0973 50.4398C43.9533 50.4398 43.4013 50.3198 42.4413 50.0798C41.9613 49.9358 41.6253 49.8638 41.4333 49.8638C41.1453 49.8638 41.0013 49.9118 41.0013 50.0078C41.0013 50.0558 41.0733 50.1038 41.2173 50.1518C41.3613 50.1998 41.4813 50.2478 41.5773 50.2958C42.0093 50.4398 42.4413 50.5118 42.8733 50.5118L42.9453 50.6558C42.8013 50.7998 42.4173 50.8718 41.7933 50.8718L41.4333 50.7998C40.9533 50.7998 40.3773 51.2558 39.7053 52.1678C37.1613 55.2398 34.2093 57.6158 30.8493 59.2958C29.4093 59.9678 28.0653 60.3038 26.8173 60.3038Z" fill="#999999"/>
<path d="M23.2318 28.2646L23.3038 28.1926C23.3038 28.0966 23.1838 27.9526 22.9438 27.7606C22.7038 27.5206 22.5118 27.4006 22.3678 27.4006C22.2718 27.4006 22.1758 27.4486 22.0798 27.5446C22.0318 27.6406 21.9358 27.7366 21.7918 27.8326C21.6958 27.9286 21.5998 28.0006 21.5038 28.0486C21.4558 28.0966 21.4078 28.1206 21.3598 28.1206C21.3118 28.1206 21.2878 28.1446 21.2878 28.1926H22.2238L23.2318 28.2646ZM31.4398 2.27256C31.5358 2.27256 31.6318 2.22456 31.7278 2.12856C31.8238 2.03256 31.8718 1.93656 31.8718 1.84056C31.8718 1.64856 31.7758 1.55256 31.5838 1.55256C31.5358 1.55256 31.4638 1.60056 31.3678 1.69656C31.2718 1.74456 31.1758 1.81656 31.0798 1.91256C30.9838 1.96056 30.9358 2.00856 30.9358 2.05657C30.9358 2.20056 31.1038 2.27256 31.4398 2.27256ZM5.23184 67.3606H5.15984C5.11184 67.3126 5.08784 67.1926 5.08784 67.0006L5.15984 66.7126C5.15984 66.6646 5.13584 66.6406 5.08784 66.6406L5.01584 66.7126L4.36784 66.6406C3.45584 66.3046 2.85584 65.9926 2.56784 65.7046C2.23184 65.4646 2.06384 65.0326 2.06384 64.4086C2.06384 63.0166 2.66384 60.0886 3.86384 55.6246C5.06384 51.1606 6.50384 46.4326 8.18384 41.4406L9.83984 36.2566H9.76784C9.43184 36.2566 8.35184 36.6886 6.52784 37.5526C5.66384 37.9366 4.82384 38.1286 4.00784 38.1286C3.71984 38.1286 3.55184 38.0806 3.50384 37.9846C3.50384 37.8886 3.40784 37.7446 3.21584 37.5526C3.02384 37.3606 2.78384 37.1926 2.49584 37.0486C1.48784 36.4726 0.935844 36.0406 0.839844 35.7526C0.839844 35.3686 1.10384 34.9126 1.63184 34.3846C3.26384 32.8486 5.99984 31.5286 9.83984 30.4246L12.6478 29.6326C14.9038 24.2086 17.5438 18.8806 20.5678 13.6486C23.2558 8.99256 25.5358 5.68056 27.4078 3.71257C28.2238 2.84857 29.0638 2.15256 29.9278 1.62456C30.5998 1.19256 31.1998 0.976562 31.7278 0.976562C32.1118 1.36056 32.4718 1.84056 32.8078 2.41657C32.9518 2.80056 33.1198 3.11256 33.3118 3.35256C33.5518 3.59256 33.7198 3.71257 33.8158 3.71257C33.9598 3.71257 34.1518 3.85657 34.3918 4.14456C35.0158 5.00856 35.3278 5.70456 35.3278 6.23256C35.3278 7.14456 34.4878 9.30456 32.8078 12.7126C31.1758 16.0726 29.2078 19.6246 26.9038 23.3686C26.4718 24.0406 26.1118 24.6406 25.8238 25.1686C25.5358 25.6486 25.2718 26.0566 25.0318 26.3926C24.8398 26.7286 24.6718 27.0166 24.5278 27.2566C24.4318 27.4966 24.3358 27.6886 24.2398 27.8326C24.1918 27.9286 24.1678 28.0006 24.1678 28.0486V28.1206C24.2158 28.4086 24.4318 28.5526 24.8158 28.5526C25.1998 28.5526 25.5358 28.7446 25.8238 29.1286C26.1118 29.4646 26.2558 29.7046 26.2558 29.8486C26.2558 29.9926 26.1598 30.0646 25.9678 30.0646C25.9198 30.0646 25.8718 30.0406 25.8238 29.9926C25.8238 29.9446 25.8238 29.8966 25.8238 29.8486L25.8958 29.6326C25.8958 29.5366 25.7518 29.4166 25.4638 29.2726C25.1758 29.1286 24.7918 29.0086 24.3118 28.9126C23.8318 28.7686 23.3518 28.6726 22.8718 28.6246C21.7678 28.6246 21.2158 28.7686 21.2158 29.0566C21.2158 29.2966 21.7438 29.4166 22.7998 29.4166C23.3758 29.4166 24.0958 29.6326 24.9598 30.0646C25.8718 30.4486 26.4238 30.6406 26.6158 30.6406C27.2398 30.6406 27.9358 31.1446 28.7038 32.1526C28.9438 32.4406 29.0638 32.6566 29.0638 32.8006C29.0638 32.9926 28.9918 33.0886 28.8478 33.0886H28.4158C27.9358 32.8486 27.1198 32.7286 25.9678 32.7286C23.8078 32.7286 21.4558 33.0646 18.9118 33.7366C18.4318 33.9766 17.6158 35.3926 16.4638 37.9846C15.3118 40.5766 14.0878 43.6726 12.7918 47.2726C9.71984 55.5286 7.91984 61.4566 7.39184 65.0566C7.34384 65.6806 7.27184 66.0646 7.17584 66.2086C7.07984 66.4006 6.91184 66.4966 6.67184 66.4966L6.45584 66.4246C6.21584 66.4246 6.02384 66.5686 5.87984 66.8566C5.78384 67.1926 5.56784 67.3606 5.23184 67.3606Z" fill="#999999"/>
</svg>
