<svg width="579" height="79" viewBox="0 0 579 79" fill="none" xmlns="http://www.w3.org/2000/svg">
<path fill-rule="evenodd" clip-rule="evenodd" d="M577.583 42.0169L577.582 42.0244C576.507 48.326 574.333 57.4763 566.881 65.0179C559.39 72.5991 546.881 78.2481 525.786 78.2481H521.658C502.899 78.2481 491.102 73.4328 483.989 66.6427C476.877 59.8523 474.73 51.3548 474.73 44.5681V44.5627C474.73 42.4277 474.73 40.0138 475.229 36.421C476.071 30.1907 478.253 21.0889 485.793 13.5607C493.367 5.99994 506.037 0.328125 527.226 0.328125H531.258C549.77 0.328125 561.556 4.99487 568.726 11.6369C575.903 18.2856 578.186 26.6657 578.186 33.5281C578.186 36.168 578.089 38.9804 577.583 42.0169ZM477.21 36.6961C476.73 40.1521 476.73 42.4561 476.73 44.5681C476.73 57.3361 484.794 76.2481 521.658 76.2481H525.786C567.258 76.2481 573.498 54.0721 575.61 41.6881C576.09 38.8081 576.186 36.1201 576.186 33.5281C576.186 20.6641 567.642 2.32812 531.258 2.32812H527.226C485.562 2.32812 478.842 24.6001 477.21 36.6961ZM546.756 26.3163C543.49 23.645 537.868 21.6081 528.57 21.6081C517.824 21.6081 511.604 24.1073 507.944 27.2264C504.297 30.3341 502.903 34.3021 502.322 37.8738C502.058 39.5416 502.058 40.382 502.058 41.5826V41.5921C502.058 45.0829 503.106 48.8031 506.235 51.6746C509.385 54.5659 514.944 56.8721 524.538 56.8721C534.976 56.8721 541.218 54.3353 544.98 51.0531C548.74 47.7723 550.298 43.5065 550.879 39.4822C551.058 38.225 551.146 37.0727 551.146 35.8321C551.146 32.3825 549.967 28.9419 546.756 26.3163ZM500.346 37.5601C501.594 29.8801 506.49 19.6081 528.57 19.6081C547.674 19.6081 553.146 27.9601 553.146 35.8321C553.146 37.1761 553.05 38.4241 552.858 39.7681C551.61 48.4081 546.042 58.8721 524.538 58.8721C504.762 58.8721 500.058 49.3681 500.058 41.5921C500.058 40.3441 500.058 39.3841 500.346 37.5601Z" fill="#F8F8F8"/>
<path fill-rule="evenodd" clip-rule="evenodd" d="M472.908 58.1992H450.252L447.564 74.9992H470.22L472.908 58.1992ZM475.254 56.1992L471.926 76.9992H445.219L448.547 56.1992H475.254Z" fill="#F8F8F8"/>
<path fill-rule="evenodd" clip-rule="evenodd" d="M388.715 30.8241H362.009L362.327 27.6471L362.329 27.6292C362.884 22.935 364.528 15.9941 370.857 10.2653C377.173 4.54779 387.834 0.328125 405.787 0.328125H409.531C425.278 0.328125 435.349 2.85942 441.534 6.94771C447.877 11.1406 449.931 16.8342 449.931 22.3921C449.931 27.8631 448.783 33.5456 443.993 38.2543C440.144 42.0386 434.133 45.0014 425.027 46.8881H447.2L442.44 77.0001H353.438L355.043 66.6251C355.861 61.4266 357.067 54.1606 362.415 47.4497C367.789 40.706 377.111 34.7917 393.606 31.6592L393.612 31.658C399.265 30.6041 409.337 28.7813 413.505 28.1021C418.325 27.194 420.647 26.3375 421.753 25.6C422.252 25.2678 422.408 25.0199 422.474 24.8796C422.549 24.719 422.603 24.487 422.603 24.0241C422.603 23.6549 422.539 23.4532 422.425 23.2847C422.298 23.0981 421.959 22.7358 421.014 22.3426C419.042 21.5218 415.115 20.8401 407.515 20.8401C398.879 20.8401 394.43 22.4448 392.1 24.15C389.867 25.7848 389.323 27.6984 389.03 29.2059L388.715 30.8241ZM413.851 30.0721C409.723 30.7441 399.643 32.5681 393.979 33.6241C361.627 39.7681 358.651 56.5681 357.019 66.9361L355.771 75.0001H440.731L444.859 48.8881H423.547L422.107 58.1041H377.947C377.972 57.5964 378.132 56.9008 378.664 56.1041C380.143 53.8881 384.501 50.8907 396.859 48.9841C402.331 48.1201 412.315 46.7761 418.171 46.0081C443.611 42.6481 447.931 32.7601 447.931 22.3921C447.931 12.4081 440.731 2.32812 409.531 2.32812H405.787C371.789 2.32812 365.797 17.7088 364.453 26.8241C364.4 27.1808 364.355 27.5279 364.315 27.8641L364.219 28.8241H387.067C387.739 25.3681 389.851 18.8401 407.515 18.8401C422.779 18.8401 424.603 21.5281 424.603 24.0241C424.603 26.4241 423.547 28.2481 413.851 30.0721ZM381.368 56.1041H420.395L421.74 47.4995C420.675 47.6763 419.573 47.8403 418.433 47.9909L418.431 47.9911C412.571 48.7596 402.613 50.1004 397.171 50.9596L397.164 50.9607C388.884 52.2382 384.505 53.9798 382.236 55.4684C381.9 55.689 381.613 55.9016 381.368 56.1041Z" fill="#F8F8F8"/>
<path fill-rule="evenodd" clip-rule="evenodd" d="M225.523 77.0002L237.486 1.57617H282.298C301.001 1.57617 313.286 5.38194 320.927 11.4944C328.647 17.6701 331.338 25.9654 331.338 34.2002C331.338 37.4902 331.038 40.5801 330.541 43.468L330.54 43.4703C329.283 50.7098 325.963 59.1995 317.742 65.84C309.537 72.4682 296.702 77.0484 276.824 77.0002C276.823 77.0002 276.822 77.0002 276.821 77.0002L225.523 77.0002ZM276.826 75.0002C315.994 75.0962 326.17 56.9522 328.57 43.1282C329.05 40.3442 329.338 37.3682 329.338 34.2002C329.338 18.6482 319.258 3.57617 282.298 3.57617H239.194L227.866 75.0002H276.826ZM303.855 40.2497L303.856 40.2399C304.126 38.8905 304.298 37.3942 304.298 36.3122C304.298 33.0345 303.43 29.7381 300.374 27.193C297.233 24.5772 291.451 22.4722 280.954 22.4722H259.908L254.594 55.8162H275.002C286.96 55.8162 293.813 53.4102 297.81 50.3987C301.754 47.4274 303.19 43.6611 303.855 40.2497ZM252.25 57.8162L258.202 20.4722H280.954C302.362 20.4722 306.298 29.0162 306.298 36.3122C306.298 37.5602 306.106 39.1922 305.818 40.6322C304.378 48.0242 299.386 57.8162 275.002 57.8162H252.25Z" fill="#F8F8F8"/>
<path fill-rule="evenodd" clip-rule="evenodd" d="M122.074 36.2206L122.076 36.2122C122.96 30.2186 124.966 21.1406 132.636 13.5981C140.328 6.03394 153.387 0.328125 175.702 0.328125H179.83C199.416 0.328125 211.68 4.97987 219.063 11.6168C226.47 18.2752 228.678 26.6737 228.678 33.5281C228.678 36.073 228.581 38.7688 228.178 41.587L228.177 41.5978C227.247 47.8597 225.247 57.1318 217.58 64.7983C209.886 72.4926 196.82 78.2481 174.454 78.2481H170.326C150.586 78.2481 138.335 73.4471 131.011 66.6635C123.672 59.8655 121.574 51.3512 121.574 44.5681V44.5584C121.574 42.333 121.574 39.8219 122.073 36.229L122.074 36.2206ZM197.079 26.3537C193.579 23.6629 187.443 21.6081 177.046 21.6081C165.46 21.6081 158.632 24.1905 154.65 27.4547C150.707 30.6881 149.296 34.8053 148.992 38.4873C148.903 39.6482 148.902 40.5387 148.902 41.5921C148.902 45.0709 149.941 48.7661 153.262 51.6346C156.633 54.5465 162.658 56.8721 173.206 56.8721C184.591 56.8721 191.321 54.2944 195.316 50.974C199.288 47.6729 200.835 43.4058 201.368 39.4078C201.553 38.0208 201.638 37.0586 201.638 35.8321C201.638 32.3889 200.489 28.9752 197.079 26.3537ZM146.998 38.3281C147.67 30.1681 153.334 19.6081 177.046 19.6081C198.262 19.6081 203.638 27.9601 203.638 35.8321C203.638 37.1761 203.542 38.2321 203.35 39.6721C202.198 48.3121 196.534 58.8721 173.206 58.8721C151.606 58.8721 146.902 49.3681 146.902 41.5921C146.902 40.5361 146.902 39.5761 146.998 38.3281ZM123.574 44.5681C123.574 57.3361 131.446 76.2481 170.326 76.2481H174.454C218.518 76.2481 224.374 53.5921 226.198 41.3041C226.582 38.6161 226.678 36.0241 226.678 33.5281C226.678 20.6641 218.422 2.32812 179.83 2.32812H175.702C131.734 2.32812 125.782 24.7921 124.054 36.5041C123.574 39.9601 123.574 42.3601 123.574 44.5681Z" fill="#F8F8F8"/>
<path fill-rule="evenodd" clip-rule="evenodd" d="M0.617188 77.0002L12.5796 1.57617H45.9917L62.3918 43.7608L91.183 1.57617H124.822L112.859 77.0002H87.3997L94.2607 33.9102L64.3905 77.0002H50.3758L32.6944 33.0102L25.6901 77.0002H0.617188ZM31.8554 25.5602L51.7274 75.0002H63.3434L97.6154 25.5602L89.7434 75.0002H111.151L122.479 3.57617H92.2394L61.9034 48.0242L44.6234 3.57617H14.2874L2.95939 75.0002H23.9834L31.8554 25.5602Z" fill="#F8F8F8"/>
</svg>
