<svg width="915" height="99" viewBox="0 0 915 99" fill="none" xmlns="http://www.w3.org/2000/svg">
<path d="M845.221 98.6635C796.965 98.6635 793.381 76.7755 794.917 63.2075H824.997C825.125 69.2235 826.917 78.3115 850.853 78.3115H852.389C879.013 78.3115 880.805 71.7835 880.805 67.0475C880.805 61.9275 877.989 59.1115 859.429 58.5995L843.557 58.2155C810.405 57.4475 801.189 45.0315 801.189 30.4395C801.189 28.6475 801.317 27.2395 801.573 25.4475C803.493 12.3915 813.093 0.103516 855.461 0.103516H863.653C907.685 0.103516 916.005 15.7195 914.085 31.4635H884.133C883.749 27.6235 882.725 19.9435 858.533 19.9435H856.741C832.933 19.9435 831.525 24.6795 831.525 28.5195C831.525 32.1035 833.317 36.1995 850.597 36.4555L865.957 36.7115C899.749 37.2235 911.909 45.7995 911.909 63.4635C911.909 65.7675 911.653 68.7115 911.269 70.6315C908.453 84.4555 900.261 98.6635 853.541 98.6635H845.221Z" fill="#F8F8F8"/>
<path d="M676.76 1.76758H709.144L757.784 62.9516L767.384 1.76758H796.056L780.952 96.9996H752.408L700.44 32.7436L690.328 96.9996H661.656L676.76 1.76758Z" fill="#F8F8F8"/>
<path d="M566.635 1.76758H664.171L660.715 23.3996H591.851L589.675 37.4796H657.003L653.547 59.2396H586.219L583.659 74.8556H653.675L650.219 96.9996H551.531L566.635 1.76758Z" fill="#F8F8F8"/>
<path d="M464.26 1.76758H493.316L481.924 73.3196H545.668L541.956 96.9996H449.156L464.26 1.76758Z" fill="#F8F8F8"/>
<path d="M314.674 96.9996H278.066L331.826 48.6156L294.066 1.76758H331.57L353.586 30.0556L384.69 1.76758H421.298L369.458 48.6156L407.09 96.9996H371.25L347.442 67.3036L314.674 96.9996Z" fill="#F8F8F8"/>
<path d="M237.774 58.0876L224.718 22.3756L202.574 58.0876H237.774ZM252.11 96.9996L245.71 79.5916H189.262L178.51 96.9996H148.43L208.59 1.76758H246.094L282.318 96.9996H252.11Z" fill="#F8F8F8"/>
<path d="M0.28125 96.9996L15.3853 1.76758H55.8333L78.8733 61.0316L119.321 1.76758H159.641L144.537 96.9996H115.993L126.489 31.0796L80.7933 96.9996H65.3053L38.8093 31.0796L28.3133 96.9996H0.28125Z" fill="#F8F8F8"/>
</svg>
