<svg width="189" height="87" viewBox="0 0 189 87" fill="none" xmlns="http://www.w3.org/2000/svg">
<path d="M172.385 45.3208C172.529 45.3208 172.746 45.2488 173.034 45.1048C173.466 44.8168 175.002 43.4007 177.642 40.8568C179.082 39.4168 180.162 38.0968 180.882 36.8968C181.266 36.2248 181.458 35.8168 181.458 35.6728L181.385 35.6007H181.242C181.146 35.6007 181.098 35.5287 181.098 35.3848C181.098 35.0488 181.17 34.8328 181.314 34.7368C181.602 34.4488 181.842 33.9207 182.034 33.1527L182.25 32.5047C182.202 32.5047 182.153 32.5528 182.105 32.6488C182.057 32.7448 181.794 33.1527 181.314 33.8727C181.074 34.1607 180.857 34.4728 180.665 34.8088C179.945 35.9128 179.49 36.4647 179.298 36.4647C179.154 36.3687 179.081 36.2488 179.081 36.1048C179.081 35.8168 179.178 35.6728 179.37 35.6728C179.61 35.6728 179.73 35.5048 179.73 35.1688C179.73 34.8808 179.706 34.7368 179.658 34.7368C179.61 34.7368 179.466 34.9047 179.226 35.2407C178.794 35.7687 178.434 36.0327 178.146 36.0327C177.906 36.0327 177.041 37.0648 175.553 39.1287C174.113 41.1928 173.394 42.3687 173.394 42.6567C173.394 42.9447 173.322 43.0887 173.178 43.0887C173.082 43.0887 172.962 43.2087 172.818 43.4487C172.434 43.9287 172.242 44.3847 172.242 44.8167C172.242 44.9607 172.122 45.0327 171.882 45.0327V45.1048C171.882 45.1528 171.929 45.2007 172.025 45.2487C172.169 45.2967 172.289 45.3208 172.385 45.3208ZM169.146 62.1688C169.722 62.1688 170.273 62.0008 170.801 61.6648L171.09 61.5208L171.018 61.4488L170.73 61.5208C170.298 61.6648 169.793 61.7368 169.217 61.7368C168.641 61.7368 168.354 61.7608 168.354 61.8088C168.354 61.8568 168.401 61.9288 168.497 62.0248C168.641 62.1208 168.858 62.1688 169.146 62.1688ZM169.65 65.1928C170.082 65.1928 170.298 65.1448 170.298 65.0488L170.081 64.9768C169.985 64.9288 169.842 64.9048 169.65 64.9048C169.458 64.9048 169.313 64.9288 169.217 64.9768L169.002 65.0488C169.002 65.1448 169.218 65.1928 169.65 65.1928ZM186.642 51.6567V51.5848C186.69 51.5848 186.714 51.5367 186.714 51.4408V51.3688V51.2967L186.57 51.5128L186.642 51.6567ZM170.586 66.2728C170.202 66.2728 169.793 66.2008 169.361 66.0568C168.929 65.9608 168.186 65.5528 167.13 64.8328C166.122 64.1128 165.138 63.3208 164.178 62.4568C163.218 61.6408 162.545 60.9928 162.161 60.5128C161.345 59.2168 160.938 57.6088 160.938 55.6888C160.938 54.4408 161.273 52.4968 161.945 49.8568C162.569 47.1688 164.154 43.8328 166.698 39.8488C169.29 35.8648 172.41 32.5047 176.058 29.7687C177.642 28.5687 178.889 27.9688 179.801 27.9688C180.137 27.9688 180.402 28.0647 180.594 28.2568C180.834 28.4007 181.002 28.5687 181.098 28.7607C181.242 28.9047 181.314 29.0487 181.314 29.1927C181.314 29.3368 181.29 29.4088 181.242 29.4088C181.194 29.4088 181.121 29.3128 181.025 29.1208C180.833 28.6408 180.45 28.4008 179.874 28.4008C179.586 28.4008 179.321 28.4728 179.081 28.6168C178.841 28.7608 178.721 28.8568 178.721 28.9048C178.721 28.9528 178.89 28.9767 179.226 28.9767C179.61 28.9767 180.041 29.1927 180.521 29.6248C181.049 30.0088 181.53 30.2008 181.962 30.2008C182.442 30.2008 182.754 30.2968 182.898 30.4888C183.042 30.6328 183.162 30.7048 183.258 30.7048C183.402 30.7048 183.474 30.6088 183.474 30.4167L183.402 29.6968C183.45 29.6968 183.522 29.7688 183.618 29.9128C183.858 30.2007 183.978 30.5847 183.978 31.0648C183.978 31.4968 184.122 31.8088 184.41 32.0007C184.698 32.3367 184.842 32.9128 184.842 33.7288C184.842 34.5448 184.698 35.3847 184.41 36.2487C184.17 36.7767 184.049 37.1368 184.049 37.3288H184.122C184.314 37.3288 184.554 36.8488 184.842 35.8888C185.13 34.6408 185.273 33.7287 185.273 33.1527C185.273 32.1447 185.346 31.6407 185.49 31.6407C185.538 31.6407 185.634 31.7127 185.778 31.8568C186.498 32.5767 186.857 33.4168 186.857 34.3768C186.857 35.6248 186.186 37.4007 184.842 39.7048C183.546 41.9607 181.266 44.3368 178.002 46.8328C175.266 48.8008 173.058 49.7848 171.378 49.7848C170.898 49.7848 170.538 49.8088 170.298 49.8568C170.106 49.8568 169.962 49.9288 169.866 50.0728C169.434 50.6967 169.05 51.6568 168.714 52.9528L168.354 54.2488C167.874 56.2648 167.633 57.9447 167.633 59.2887C167.633 60.2487 167.73 60.7768 167.922 60.8728C168.162 61.0168 168.498 61.0888 168.93 61.0888C170.466 61.0888 172.626 60.1768 175.41 58.3528C176.61 57.5848 177.713 56.6968 178.721 55.6888C182.129 52.6648 183.978 50.9367 184.266 50.5047C184.794 49.9287 185.226 49.6408 185.562 49.6408C185.994 49.6408 186.522 49.9287 187.146 50.5047C187.818 51.0807 188.154 51.6567 188.154 52.2327C188.058 53.0008 187.242 54.2008 185.706 55.8328C179.322 62.7928 174.282 66.2728 170.586 66.2728Z" fill="#757575"/>
<path d="M139.372 57.344C140.14 56.816 140.86 56.312 141.532 55.832C142.252 55.352 143.14 54.656 144.196 53.744C146.836 51.488 149.284 48.968 151.54 46.184C152.788 44.648 154.012 42.872 155.212 40.856C154.876 41.192 154.516 41.552 154.132 41.936C153.748 42.32 153.46 42.536 153.268 42.584C153.124 42.632 153.004 42.656 152.908 42.656C152.764 42.656 152.596 42.608 152.404 42.512C152.212 42.416 152.02 42.368 151.828 42.368C151.54 42.368 151.348 42.392 151.252 42.44C151.204 42.488 151.156 42.512 151.108 42.512C150.964 42.512 150.772 42.464 150.532 42.368C150.34 42.272 150.148 42.152 149.956 42.008C149.812 41.816 149.74 41.648 149.74 41.504L149.812 41.288C149.812 41.24 149.788 41.192 149.74 41.144C149.74 41.048 149.692 41 149.596 41L149.668 40.568C149.716 40.376 150.148 39.632 150.964 38.336L152.548 35.6L151.612 36.464C150.652 37.424 149.524 38.744 148.228 40.424C146.932 42.056 146.284 42.992 146.284 43.232L146.356 43.304C146.356 43.4 146.164 43.544 145.78 43.736C145.444 43.928 145.156 44.408 144.916 45.176C144.82 45.464 144.508 45.944 143.98 46.616C143.836 46.76 143.74 46.88 143.692 46.976C143.692 47.024 143.668 47.144 143.62 47.336L143.692 47.552C143.692 47.648 143.644 47.696 143.548 47.696C143.452 47.696 143.308 47.816 143.116 48.056C142.972 48.296 142.828 48.584 142.684 48.92C142.588 49.208 142.54 49.4 142.54 49.496C142.54 49.592 142.516 49.664 142.468 49.712C142.468 49.712 142.42 49.736 142.324 49.784C142.228 49.784 142.18 49.808 142.18 49.856L142.252 50.144V50.216C142.204 50.264 142.132 50.288 142.036 50.288C141.988 50.288 141.916 50.312 141.82 50.36C141.772 50.408 141.748 50.528 141.748 50.72C141.748 50.864 141.724 51.032 141.676 51.224C141.532 51.8 141.34 52.088 141.1 52.088C141.052 52.088 141.028 52.112 141.028 52.16C141.028 52.16 141.028 52.184 141.028 52.232L141.1 52.52H141.028C141.028 52.568 140.956 52.592 140.812 52.592C140.668 52.592 140.596 52.688 140.596 52.88C140.644 52.88 140.668 52.904 140.668 52.952C140.668 53.048 140.548 53.312 140.308 53.744C140.212 53.936 140.164 54.128 140.164 54.32L140.236 54.464L139.948 54.608C139.756 54.752 139.564 55.664 139.372 57.344ZM139.372 62.168C139.372 62.12 139.324 62.072 139.228 62.024C139.132 61.976 138.988 61.952 138.796 61.952C138.604 61.952 138.46 61.976 138.364 62.024C138.268 62.072 138.22 62.12 138.22 62.168H139.372ZM152.62 42.44C152.716 42.44 152.884 42.296 153.124 42.008L153.412 41.576C153.364 41.576 153.196 41.696 152.908 41.936C152.668 42.176 152.548 42.32 152.548 42.368C152.548 42.416 152.572 42.44 152.62 42.44ZM153.052 29.192C153.628 29.096 154.012 28.952 154.204 28.76L153.412 28.616C153.22 28.616 152.932 28.664 152.548 28.76C152.212 28.856 152.044 28.952 152.044 29.048C152.044 29.144 152.212 29.192 152.548 29.192H153.052ZM155.788 71.312C155.548 71.312 155.428 71.192 155.428 70.952C155.428 70.712 155.404 70.568 155.356 70.52V70.448L155.212 70.52C154.828 70.52 154.42 70.376 153.988 70.088C153.556 69.848 153.244 69.656 153.052 69.512C152.86 69.368 152.74 69.152 152.692 68.864L152.548 67.712C152.548 66.656 152.716 64.904 153.052 62.456C153.388 60.008 153.844 57.464 154.42 54.824C154.9 53.096 155.14 51.992 155.14 51.512C155.044 51.512 154.42 52.136 153.268 53.384C152.26 54.488 150.844 55.832 149.02 57.416C145.996 60.008 143.548 61.712 141.676 62.528C140.716 62.96 139.948 63.176 139.372 63.176C138.988 63.176 138.652 63.152 138.364 63.104C138.076 63.056 136.924 62.408 134.908 61.16C134.572 60.92 134.188 60.68 133.756 60.44C132.7 59.768 132.172 58.64 132.172 57.056C132.172 55.088 132.964 52.472 134.548 49.208C137.668 42.872 141.556 37.376 146.212 32.72C149.284 29.6 151.636 28.04 153.268 28.04C154.132 28.04 154.804 28.472 155.284 29.336C155.812 29.96 156.268 30.344 156.652 30.488C157.036 30.584 157.516 30.944 158.092 31.568C158.716 32.144 159.028 32.816 159.028 33.584C159.028 34.64 158.548 35.96 157.588 37.544L157.012 38.552C157.3 38.552 158.02 37.4 159.172 35.096L164.716 23.72C165.868 21.272 167.236 18.68 168.82 15.944C170.404 13.208 171.892 10.832 173.284 8.81595C176.452 4.30395 178.42 1.90395 179.188 1.61595C179.716 1.47195 180.1 1.25595 180.34 0.96795C180.58 0.823952 180.796 0.751953 180.988 0.751953C181.18 0.799953 181.3 0.895951 181.348 1.03995V1.11195C181.348 1.25595 181.3 1.42395 181.204 1.61595C181.108 1.75995 181.06 1.85595 181.06 1.90395C181.06 1.95195 181.06 1.99995 181.06 2.04795C181.06 2.09595 181.156 2.11995 181.348 2.11995L181.564 2.04795C181.612 2.04795 181.66 2.09595 181.708 2.19195C181.804 2.23995 181.852 2.31195 181.852 2.40795C181.852 2.50395 181.924 2.64795 182.068 2.83995C182.212 3.03195 182.38 3.22395 182.572 3.41595C182.812 3.55995 183.052 3.77595 183.292 4.06395C183.532 4.35195 183.724 4.61595 183.868 4.85595C184.06 5.09595 184.228 5.33595 184.372 5.57595L181.78 9.67995C176.212 18.368 171.508 27.152 167.668 36.032C166.468 39.008 165.772 40.664 165.58 41L165.22 42.08C165.172 42.464 165.052 42.8 164.86 43.088C164.716 43.376 164.572 43.712 164.428 44.096C164.284 44.432 164.164 44.744 164.068 45.032C164.02 45.08 163.996 45.176 163.996 45.32C162.796 47.72 161.212 53.288 159.244 62.024C158.524 65.048 158.068 67.328 157.876 68.864C157.828 69.872 157.66 70.376 157.372 70.376C157.276 70.376 157.18 70.352 157.084 70.304C156.988 70.256 156.916 70.232 156.868 70.232C156.628 70.232 156.46 70.4 156.364 70.736C156.268 71.12 156.076 71.312 155.788 71.312Z" fill="#757575"/>
<path d="M131.19 36.1751C131.382 35.9831 131.574 35.4071 131.766 34.4471C132.006 33.4871 132.126 32.6711 132.126 31.9991C132.126 31.3751 132.006 31.0631 131.766 31.0631C131.526 31.0631 131.406 31.4711 131.406 32.2871V32.7191C131.406 33.1511 131.382 33.6311 131.334 34.1591C131.286 34.6871 131.238 35.0951 131.19 35.3831C131.142 35.6711 131.118 35.8871 131.118 36.0311C131.118 36.1271 131.142 36.1751 131.19 36.1751ZM129.966 54.0311C130.014 53.9831 130.038 53.9111 130.038 53.8151C130.038 53.7191 130.014 53.5991 129.966 53.4551L129.894 53.3111C129.846 53.4071 129.822 53.5751 129.822 53.8151C129.822 53.9591 129.846 54.0311 129.894 54.0311H129.966ZM129.678 55.1831L129.75 54.8951L129.606 54.4631C129.558 54.4631 129.534 54.5831 129.534 54.8231C129.534 55.0631 129.558 55.1831 129.606 55.1831H129.678ZM129.318 56.5511C129.414 56.5511 129.462 56.4311 129.462 56.1911C129.462 55.8551 129.414 55.6871 129.318 55.6871C129.27 55.6871 129.246 55.8311 129.246 56.1191C129.246 56.4071 129.27 56.5511 129.318 56.5511ZM112.614 56.9831C112.758 56.9831 113.238 56.6711 114.054 56.0471C114.918 55.3751 115.926 54.4871 117.078 53.3831C119.91 50.5511 122.934 47.0471 126.15 42.8711C126.246 42.7751 126.342 42.6311 126.438 42.4391L127.446 41.2151C129.126 39.1031 129.966 37.7831 129.966 37.2551C129.966 37.0151 129.822 36.8951 129.534 36.8951H129.39C129.15 36.8951 129.03 36.6791 129.03 36.2471C129.03 35.9591 129.102 35.5271 129.246 34.9511L129.318 34.3751C129.318 33.9431 129.27 33.7271 129.174 33.7271C128.982 33.5351 128.886 33.2711 128.886 32.9351C128.886 32.7911 128.838 32.7191 128.742 32.7191C128.55 32.7671 127.926 33.3191 126.87 34.3751C121.83 39.5591 117.558 45.8711 114.054 53.3111C113.046 55.4231 112.542 56.6231 112.542 56.9111C112.542 56.9591 112.566 56.9831 112.614 56.9831ZM111.75 61.6631C111.894 61.6631 112.11 61.6391 112.398 61.5911C112.686 61.5911 112.95 61.5431 113.19 61.4471C113.43 61.3511 113.55 61.2791 113.55 61.2311C113.55 61.1831 113.334 61.1351 112.902 61.0871H112.83C112.494 61.0871 112.206 61.1351 111.966 61.2311C111.678 61.3271 111.534 61.4231 111.534 61.5191C111.534 61.5671 111.606 61.6151 111.75 61.6631ZM129.678 29.8391C129.726 29.8391 129.75 29.7431 129.75 29.5511C129.75 28.8311 129.366 28.4711 128.598 28.4711C127.974 28.4711 127.254 28.7111 126.438 29.1911C125.958 29.4791 125.718 29.6471 125.718 29.6951C125.766 29.6951 125.838 29.6711 125.934 29.6231C126.078 29.5751 126.39 29.5271 126.87 29.4791L127.662 29.3351C128.622 29.3351 129.174 29.4311 129.318 29.6231C129.51 29.7671 129.63 29.8391 129.678 29.8391ZM128.166 62.7431L125.862 61.5191C125.91 60.7511 125.934 60.0071 125.934 59.2871C125.934 58.6151 126.03 57.7031 126.222 56.5511C126.414 55.3511 126.63 54.1991 126.87 53.0951C127.11 51.9431 127.302 51.0311 127.446 50.3591C127.59 49.6391 127.662 49.2071 127.662 49.0631V48.9911C127.566 48.9911 126.942 49.6631 125.79 51.0071C123.102 54.3671 120.606 56.9351 118.302 58.7111C117.63 59.1911 116.886 59.6711 116.07 60.1511C114.054 61.3511 112.806 61.9511 112.326 61.9511C112.23 61.9511 111.918 61.8551 111.39 61.6631C110.862 61.4711 110.31 61.2071 109.734 60.8711C108.486 60.2471 107.694 59.6471 107.358 59.0711C107.166 58.7831 107.07 58.3991 107.07 57.9191C107.07 57.5351 107.142 57.0791 107.286 56.5511C108.054 53.3351 109.83 49.3991 112.614 44.7431C115.398 40.0871 118.398 36.0551 121.614 32.6471C124.59 29.5751 126.87 28.0391 128.454 28.0391C129.078 28.0391 129.51 28.3271 129.75 28.9031C130.038 29.4311 130.278 29.6951 130.47 29.6951H130.686C130.926 29.6951 131.286 29.8151 131.766 30.0551C132.294 30.2471 132.726 30.5591 133.062 30.9911C133.398 31.3751 133.566 31.7591 133.566 32.1431C133.566 32.4791 133.446 33.4151 133.206 34.9511L133.062 35.6711C133.062 35.8631 133.182 36.1031 133.422 36.3911C133.71 36.6311 134.046 36.7511 134.43 36.7511C134.622 36.7511 134.766 36.7031 134.862 36.6071C135.006 36.4631 135.15 36.3911 135.294 36.3911C135.39 36.3911 135.678 36.5111 136.158 36.7511C136.686 37.1831 136.95 37.4711 136.95 37.6151C136.95 38.1911 136.254 40.4471 134.862 44.3831C133.662 47.7431 132.582 51.3911 131.622 55.3271C130.806 58.4951 130.398 60.6311 130.398 61.7351C130.398 62.2151 130.302 62.4551 130.11 62.4551L129.534 62.3111H129.102C129.006 62.3111 128.958 61.8071 128.958 60.7991V59.5751L129.102 57.5591C129.102 57.3671 129.078 57.2711 129.03 57.2711C128.934 57.2711 128.646 59.0951 128.166 62.7431Z" fill="#757575"/>
<path d="M99.3782 28.7597C99.5222 28.7597 99.5942 28.5197 99.5942 28.0397L99.5222 27.9677L99.3782 28.1117C99.2822 28.1597 99.2342 28.2557 99.2342 28.3997C99.2342 28.4477 99.2342 28.5197 99.2342 28.6157C99.2822 28.7117 99.3302 28.7597 99.3782 28.7597ZM109.89 33.0077L109.458 32.0717C109.17 31.4957 108.93 31.2077 108.738 31.2077C108.642 31.2077 108.522 31.2317 108.378 31.2797C108.234 31.3277 108.114 31.3517 108.018 31.3517H107.946C107.946 31.4957 108.21 31.8077 108.738 32.2877C109.266 32.7677 109.65 33.0077 109.89 33.0077ZM112.914 37.1117L112.986 37.0397L112.338 36.1037H112.266C112.266 36.1997 112.338 36.3917 112.482 36.6797C112.674 36.9677 112.794 37.1117 112.842 37.1117H112.914ZM116.73 37.8317C117.258 37.8317 117.738 37.8077 118.17 37.7597C118.602 37.6637 118.89 37.5917 119.034 37.5437L119.178 37.4717C119.178 37.3757 118.578 37.3277 117.378 37.3277C116.178 37.3277 115.362 37.2557 114.93 37.1117L114.57 37.0397C114.57 37.5677 115.29 37.8317 116.73 37.8317ZM118.17 40.7117C117.978 40.6157 117.762 40.5437 117.522 40.4957C117.33 40.3997 117.114 40.3277 116.874 40.2797C116.634 40.1837 116.25 40.1357 115.722 40.1357C116.25 40.4237 116.634 40.5917 116.874 40.6397C117.162 40.6877 117.594 40.7117 118.17 40.7117ZM98.8742 42.5117L99.0902 42.3677C99.1862 42.2717 99.2822 42.1277 99.3782 41.9357C99.5222 41.7437 99.5942 41.5997 99.5942 41.5037C99.5942 41.4077 99.5462 41.3597 99.4502 41.3597C99.4022 41.3597 99.2822 41.4317 99.0902 41.5757C98.9462 41.7197 98.8742 42.0077 98.8742 42.4397V42.5117ZM92.6822 61.5197C92.6342 61.5197 92.5382 61.4477 92.3942 61.3037C92.0102 61.1117 91.6262 60.8237 91.2422 60.4397C91.0982 60.3437 91.0022 60.2957 90.9542 60.2957C90.8582 60.2957 90.4022 60.0317 89.5862 59.5037C88.7222 59.0237 88.2182 58.5917 88.0742 58.2077C88.0742 56.6237 88.4822 54.2717 89.2982 51.1517C90.1142 48.0317 91.2182 44.5517 92.6102 40.7117C94.8662 34.2797 96.7142 30.2957 98.1542 28.7597C98.7782 28.0397 99.2582 27.6797 99.5942 27.6797C99.7862 27.6797 99.8822 27.8237 99.8822 28.1117C99.8822 28.5917 99.9782 28.9757 100.17 29.2637C100.41 29.7437 100.722 29.9837 101.106 29.9837C101.202 29.9837 101.298 29.9597 101.394 29.9117C101.49 29.8157 101.61 29.7677 101.754 29.7677C101.898 29.7677 102.45 30.1517 103.41 30.9197L103.05 32.2877C102.81 33.0077 102.618 33.3677 102.474 33.3677C102.33 33.3677 102.114 33.6797 101.826 34.3037C101.25 35.5997 100.698 37.1357 100.17 38.9117L99.9542 40.1357H100.026C100.362 40.1357 101.346 38.9837 102.978 36.6797C105.858 32.6477 107.778 30.6317 108.738 30.6317C109.122 30.7757 109.458 31.1357 109.746 31.7117C109.986 32.0957 110.538 32.5997 111.402 33.2237C112.074 33.6077 112.722 34.2317 113.346 35.0957C113.634 35.6237 113.922 35.9837 114.21 36.1757C114.882 36.6077 115.818 36.8237 117.018 36.8237C118.65 36.8237 119.97 36.6797 120.978 36.3917C120.978 36.4397 120.81 36.5837 120.474 36.8237C120.138 37.0157 119.97 37.1597 119.97 37.2557C119.97 37.4477 120.21 37.5437 120.69 37.5437C121.218 37.5437 121.65 37.7117 121.986 38.0477C122.178 38.3837 122.442 38.5517 122.778 38.5517C122.826 38.5037 122.898 38.4797 122.994 38.4797C123.09 38.4797 123.21 38.5277 123.354 38.6237C123.546 38.7197 123.714 38.8877 123.858 39.1277C124.05 39.3197 124.17 39.4877 124.218 39.6317C124.218 39.7757 124.074 39.9197 123.786 40.0637C123.066 40.4957 122.226 40.7597 121.266 40.8557C120.498 40.8557 120.114 40.9277 120.114 41.0717C120.114 41.2157 119.754 41.2877 119.034 41.2877C118.17 41.2877 117.45 41.2637 116.874 41.2157C116.346 41.1197 115.962 41.0237 115.722 40.9277C115.482 40.7837 115.074 40.4957 114.498 40.0637C113.922 39.5837 113.322 39.0557 112.698 38.4797C112.074 37.8557 111.546 37.3997 111.114 37.1117C110.73 36.8237 110.466 36.6797 110.322 36.6797C109.89 36.6797 107.946 39.2957 104.49 44.5277C101.706 48.7517 98.8022 53.3357 95.7782 58.2797C95.2982 59.0957 94.7222 59.8397 94.0502 60.5117C93.3782 61.1837 92.9222 61.5197 92.6822 61.5197Z" fill="#757575"/>
<path d="M89.8922 33.8722C89.9402 33.8722 89.9642 33.8242 89.9642 33.7282C89.9642 33.3442 89.9162 33.1522 89.8202 33.1522C89.7722 33.1522 89.7242 33.2722 89.6762 33.5122C89.6762 33.7522 89.7242 33.8722 89.8202 33.8722H89.8922ZM89.4602 36.0322C89.6042 35.9842 89.6762 35.7442 89.6762 35.3122C89.6762 34.6882 89.6282 34.3762 89.5322 34.3762C89.4842 34.3762 89.4362 34.6402 89.3882 35.1682L89.3162 35.8162C89.3162 35.9602 89.3402 36.0322 89.3882 36.0322H89.4602ZM89.0282 37.6882L89.1722 37.5442C89.3162 37.4002 89.3882 37.2082 89.3882 36.9682C89.3402 36.8242 89.2922 36.7522 89.2442 36.7522C89.1962 36.7522 89.1482 36.7762 89.1002 36.8242C89.1002 36.8722 89.0762 36.9922 89.0282 37.1842C88.9802 37.3282 88.9562 37.4482 88.9562 37.5442C88.9562 37.6402 88.9802 37.6882 89.0282 37.6882ZM85.5722 27.8242C85.7642 27.8242 85.8602 27.7762 85.8602 27.6802C85.8602 27.5362 85.7642 27.3442 85.5722 27.1042C85.3802 26.8162 85.0682 26.6722 84.6362 26.6722C84.0602 26.6722 83.1722 26.9842 81.9722 27.6082L82.9802 27.3202C83.2682 27.3202 83.5802 27.3682 83.9162 27.4642C84.3002 27.5122 84.6362 27.5842 84.9242 27.6802C85.2122 27.7762 85.4282 27.8242 85.5722 27.8242ZM61.5962 56.6962C61.6922 56.6962 62.0282 56.4562 62.6042 55.9762C63.9002 55.2082 65.8202 53.5762 68.3642 51.0802C71.5802 47.9602 74.4842 44.6722 77.0762 41.2162L82.4042 34.0882C83.1722 33.0802 83.5562 32.4082 83.5562 32.0722L83.4842 32.0002L83.2682 32.0722C81.2522 33.3202 78.7082 35.4802 75.6362 38.5522C71.3162 42.8722 67.4762 47.4802 64.1162 52.3762C62.3882 54.8722 61.5242 56.2882 61.5242 56.6242L61.5962 56.6962ZM59.7962 62.5282V62.4562C59.7962 62.4082 59.7482 62.3362 59.6522 62.2402C59.5562 62.1442 59.3642 62.0962 59.0762 62.0962L58.8602 62.1682C58.6202 62.2642 58.5002 62.3362 58.5002 62.3842C58.5002 62.4802 58.9322 62.5282 59.7962 62.5282ZM80.7482 62.4562C80.7962 62.4562 80.9162 62.2642 81.1082 61.8802C81.3482 61.5442 81.4682 61.2322 81.4682 60.9442V60.8722C81.4202 60.8722 81.2762 61.0882 81.0362 61.5202C80.7962 61.9522 80.6762 62.2402 80.6762 62.3842C80.6762 62.4322 80.7002 62.4562 80.7482 62.4562ZM78.1562 67.7842C78.2042 67.7842 78.3242 67.6162 78.5162 67.2802C78.7082 66.9442 78.9242 66.5122 79.1642 65.9842C79.4042 65.5042 79.5962 65.0962 79.7402 64.7602C79.8842 64.4722 79.9562 64.2802 79.9562 64.1842C79.9082 64.1842 79.7882 64.3282 79.5962 64.6162C79.4042 64.9522 79.1882 65.3842 78.9482 65.9122C78.7082 66.4402 78.5162 66.8482 78.3722 67.1362C78.2282 67.4722 78.1562 67.6882 78.1562 67.7842ZM63.9722 80.4562C64.7882 79.9282 65.5082 79.4242 66.1322 78.9442C69.2522 76.4002 72.3962 72.0562 75.5642 65.9122C76.5722 64.2322 77.0762 63.2242 77.0762 62.8882C77.0762 62.7922 77.0282 62.7442 76.9322 62.7442C76.6442 62.7442 75.4682 63.9442 73.4042 66.3442C68.7482 71.5762 65.7242 75.9682 64.3322 79.5202L63.9722 80.4562ZM64.4042 84.7042L64.4762 84.6322C64.4762 84.5842 64.3802 84.5122 64.1882 84.4162C64.0442 84.3202 63.8522 84.2482 63.6122 84.2002C63.3722 84.1522 63.1802 84.1282 63.0362 84.1282C62.6042 84.1762 62.3882 84.2722 62.3882 84.4162L62.4602 84.5602C62.5562 84.6562 63.2042 84.7042 64.4042 84.7042ZM63.6122 84.9922H62.9642C62.6282 84.9922 62.1482 84.6802 61.5242 84.0562C61.2842 83.8642 60.9962 83.6482 60.6602 83.4082C60.3722 83.1682 60.1082 82.9282 59.8682 82.6882C59.3402 82.3522 59.0042 81.9922 58.8602 81.6082C58.7162 81.2722 58.6442 80.8402 58.6442 80.3122C58.7882 77.5282 60.8042 73.4722 64.6922 68.1442C66.2282 66.1282 68.4362 63.6802 71.3162 60.8002C74.1962 57.9202 76.6442 55.7122 78.6602 54.1762L81.4682 52.0882L82.9082 47.5522C84.5882 42.6562 85.4282 39.8722 85.4282 39.2002C85.4282 39.1522 85.4042 39.1282 85.3562 39.1282C85.3082 39.1282 84.9722 39.5362 84.3482 40.3522C83.7722 41.1202 83.0762 42.0322 82.2602 43.0882C74.3402 53.1682 67.7402 59.5762 62.4602 62.3122C61.2122 63.0322 60.2522 63.3922 59.5802 63.3922C59.4842 63.3922 59.2682 63.3682 58.9322 63.3202C58.5482 63.2722 57.7322 62.6722 56.4842 61.5202L54.3242 59.5762L54.3962 57.9202C54.7322 55.0882 56.8202 51.1762 60.6602 46.1842C64.5002 41.1922 69.0122 36.4882 74.1962 32.0722C77.5082 29.2882 80.3402 27.4882 82.6922 26.6722C83.5082 26.3842 84.1562 26.2402 84.6362 26.2402C85.6442 26.2402 86.1482 26.7682 86.1482 27.8242C86.1482 28.2082 86.2922 28.4002 86.5802 28.4002L87.7322 28.2562C88.1642 28.2562 88.4282 28.4482 88.5242 28.8322C88.6202 29.1682 88.8122 29.4802 89.1002 29.7682C89.3882 30.0562 89.6282 30.2002 89.8202 30.2002H89.8922C90.0362 30.2002 90.3722 30.4882 90.9002 31.0642C91.4282 31.6402 91.6922 32.1682 91.6922 32.6482C91.6922 36.7282 90.1562 43.2082 87.0842 52.0882H87.8042C88.0442 52.0882 88.3082 52.1842 88.5962 52.3762C88.9322 52.5682 89.1002 52.7602 89.1002 52.9522C89.1002 53.0482 89.0522 53.1202 88.9562 53.1682C88.8602 53.1682 88.6682 53.2402 88.3802 53.3842C87.3722 53.9602 86.7002 54.4642 86.3642 54.8962C86.0282 55.2802 85.5002 56.3602 84.7802 58.1362C80.7482 67.8802 76.5242 75.1282 72.1082 79.8802C70.8602 81.2722 69.7802 82.3042 68.8682 82.9762C68.0042 83.6482 67.0682 84.1522 66.0602 84.4882C65.0522 84.8242 64.2362 84.9922 63.6122 84.9922Z" fill="#757575"/>
<path d="M45.22 41.6481C45.316 41.6481 46.492 40.5441 48.748 38.3361C49.996 37.1361 50.62 36.5121 50.62 36.4641L46.084 40.5681C45.508 41.1441 45.22 41.5041 45.22 41.6481ZM50.26 38.3361L50.908 37.4721H50.836C50.788 37.4721 50.668 37.5441 50.476 37.6881C50.332 37.8321 50.212 37.9521 50.116 38.0481C50.02 38.1441 49.972 38.2161 49.972 38.2641C49.972 38.3121 49.996 38.3361 50.044 38.3361H50.26ZM45.94 42.2241C45.988 42.2241 46.036 42.2001 46.084 42.1521C46.18 42.0561 46.324 41.9121 46.516 41.7201C46.708 41.4801 46.804 41.3361 46.804 41.2881H46.732L45.868 42.0081C45.868 42.1521 45.892 42.2241 45.94 42.2241ZM45.148 43.2321C45.244 43.2321 45.316 43.1361 45.364 42.9441C45.46 42.7521 45.508 42.6321 45.508 42.5841C45.508 42.5361 45.484 42.5121 45.436 42.5121C45.388 42.5121 45.292 42.5601 45.148 42.6561C45.052 42.7041 45.004 42.8241 45.004 43.0161C45.004 43.1601 45.028 43.2321 45.076 43.2321H45.148ZM37.588 56.4801C37.876 56.4801 38.5 56.1681 39.46 55.5441C40.852 54.7761 42.22 53.8401 43.564 52.7361C44.908 51.5841 46.756 49.8081 49.108 47.4081C54.244 42.2721 57.652 38.0961 59.332 34.8801L60.196 33.0081C60.196 32.9601 60.172 32.9361 60.124 32.9361C59.98 32.9361 59.644 33.0321 59.116 33.2241C56.716 34.2321 54.172 35.8161 51.484 37.9761C48.844 40.0881 46.156 42.7521 43.42 45.9681C41.884 47.7921 40.852 49.1841 40.324 50.1441L38.74 53.2401C37.828 54.9201 37.372 55.9281 37.372 56.2641C37.372 56.4081 37.444 56.4801 37.588 56.4801ZM51.484 36.0321C51.58 36.0321 51.748 35.9121 51.988 35.6721C52.228 35.3841 52.348 35.2161 52.348 35.1681C52.3 35.1681 52.18 35.2401 51.988 35.3841C51.844 35.5281 51.7 35.6481 51.556 35.7441C51.46 35.8401 51.412 35.9121 51.412 35.9601C51.412 36.0081 51.436 36.0321 51.484 36.0321ZM61.996 30.7041C62.14 30.7041 62.212 30.5601 62.212 30.2721C62.212 29.7441 61.972 29.3361 61.492 29.0481C61.06 28.7601 60.604 28.6161 60.124 28.6161C59.884 28.6161 59.38 28.7121 58.612 28.9041L59.692 29.1921C60.412 29.2401 60.94 29.5041 61.276 29.9841C61.612 30.4641 61.852 30.7041 61.996 30.7041ZM62.068 36.5361C62.164 36.5361 62.236 36.4401 62.284 36.2481C62.38 36.0561 62.428 35.9361 62.428 35.8881C62.428 35.8401 62.404 35.8161 62.356 35.8161C62.308 35.8161 62.212 35.8641 62.068 35.9601C61.972 36.0081 61.924 36.1281 61.924 36.3201C61.924 36.4641 61.948 36.5361 61.996 36.5361H62.068ZM58.972 41.5041L59.62 40.6401C59.572 40.6401 59.404 40.7601 59.116 41.0001C58.876 41.1921 58.756 41.3361 58.756 41.4321C58.756 41.4801 58.78 41.5041 58.828 41.5041H58.972ZM42.844 45.8961C42.892 45.8961 42.94 45.8001 42.988 45.6081C43.084 45.3681 43.132 45.2241 43.132 45.1761V45.1041C43.084 45.1041 43.012 45.1521 42.916 45.2481C42.868 45.2961 42.82 45.3681 42.772 45.4641C42.724 45.5121 42.7 45.5601 42.7 45.6081C42.7 45.8001 42.748 45.8961 42.844 45.8961ZM63.148 34.0161C63.34 34.0161 63.436 33.8241 63.436 33.4401C63.436 33.0561 63.34 32.7921 63.148 32.6481H63.076C62.932 32.6481 62.86 32.8401 62.86 33.2241C62.86 33.7521 62.956 34.0161 63.148 34.0161ZM24.196 82.6881L24.268 82.4001L24.124 81.9681C24.076 81.9681 24.052 82.1361 24.052 82.4721C24.052 82.5201 24.052 82.5681 24.052 82.6161C24.052 82.6641 24.076 82.6881 24.124 82.6881H24.196ZM23.908 83.9121C23.956 83.8161 23.98 83.6961 23.98 83.5521C23.98 83.2641 23.932 83.1201 23.836 83.1201C23.788 83.1201 23.764 83.2881 23.764 83.6241C23.764 83.8161 23.812 83.9121 23.908 83.9121ZM25.492 86.4321C25.348 86.4321 25.156 86.3361 24.916 86.1441C24.676 86.0001 24.436 85.9281 24.196 85.9281C24.052 85.9281 23.932 85.9761 23.836 86.0721C23.692 86.2161 23.524 86.2881 23.332 86.2881C23.044 86.2881 22.636 86.0961 22.108 85.7121C21.148 85.1841 20.668 84.6081 20.668 83.9841C20.668 83.6481 20.716 83.2161 20.812 82.6881C21.868 77.4081 24.244 70.3761 27.94 61.5921C31.588 52.8561 35.572 44.6001 39.892 36.8241C42.052 33.0801 44.044 29.9121 45.868 27.3201C47.74 24.6801 48.892 23.3601 49.324 23.3601H49.468C49.612 23.3601 49.78 23.2161 49.972 22.9281C50.164 22.6401 50.308 22.4961 50.404 22.4961C50.5 22.4961 50.596 22.5441 50.692 22.6401C50.788 22.6881 50.836 22.7841 50.836 22.9281C50.836 23.0241 50.764 23.1441 50.62 23.2881C50.524 23.4321 50.476 23.6001 50.476 23.7921C50.476 23.8881 50.524 24.0561 50.62 24.2961C50.716 24.5361 50.884 24.7761 51.124 25.0161C51.364 25.2081 51.58 25.3041 51.772 25.3041C51.82 25.3041 51.892 25.2801 51.988 25.2321C52.084 25.1361 52.18 25.0881 52.276 25.0881C52.42 25.0881 52.564 25.1601 52.708 25.3041C52.9 25.4001 53.044 25.5921 53.14 25.8801C53.284 26.1681 53.356 26.4321 53.356 26.6721C53.356 27.2961 52.42 29.0481 50.548 31.9281C50.452 32.1681 50.308 32.4321 50.116 32.7201C49.924 32.9601 49.756 33.2001 49.612 33.4401C49.516 33.6801 49.468 33.8481 49.468 33.9441C49.516 33.9441 49.684 33.8241 49.972 33.5841C50.26 33.2961 50.524 33.1521 50.764 33.1521L51.124 33.2961L51.052 33.1521C51.052 32.8161 51.94 32.0961 53.716 30.9921C56.548 29.2641 58.756 28.4001 60.34 28.4001C60.484 28.4001 60.868 28.4481 61.492 28.5441C62.164 28.5921 62.5 29.1921 62.5 30.3441C62.5 30.5361 62.548 30.7281 62.644 30.9201C62.74 31.0641 62.86 31.1361 63.004 31.1361C63.388 31.3761 63.748 31.8321 64.084 32.5041C64.42 33.1761 64.588 33.8241 64.588 34.4481C64.588 36.0801 63.748 38.1681 62.068 40.7121C59.38 44.6001 56.116 48.3441 52.276 51.9441C48.436 55.5441 44.932 58.1361 41.764 59.7201C40.468 60.2481 39.364 60.5121 38.452 60.5121C38.02 60.5121 37.756 60.4401 37.66 60.2961C37.564 60.2001 37.42 60.1281 37.228 60.0801C36.652 59.9361 36.196 59.8641 35.86 59.8641C35.764 59.8641 35.644 59.8881 35.5 59.9361C35.404 59.9841 35.26 60.2001 35.068 60.5841C34.492 61.7361 34.084 62.6001 33.844 63.1761C33.556 63.8001 33.244 64.4721 32.908 65.1921C32.572 65.9121 32.284 66.5601 32.044 67.1361C31.756 67.7601 31.516 68.2881 31.324 68.7201C31.132 69.1521 31.036 69.3921 31.036 69.4401C31.036 69.5361 30.964 69.7281 30.82 70.0161C30.676 70.3041 30.556 70.5681 30.46 70.8081C29.212 73.6401 28.156 76.4001 27.292 79.0881C26.428 81.7761 25.996 83.6721 25.996 84.7761C25.996 85.8801 25.828 86.4321 25.492 86.4321Z" fill="#757575"/>
<path d="M24.4564 39.5599C24.5044 39.5599 24.5524 39.5359 24.6004 39.4879C24.6484 39.3919 24.8644 39.0559 25.2484 38.4799C25.1524 38.4799 25.0324 38.5759 24.8884 38.7679C24.5524 39.1519 24.3844 39.3919 24.3844 39.4879C24.3844 39.5359 24.4084 39.5599 24.4564 39.5599ZM24.3844 66.4879C24.1924 66.4879 23.9044 66.2239 23.5204 65.6959C23.3764 65.5039 23.1364 65.2399 22.8004 64.9039C22.4644 64.5679 22.1284 64.2079 21.7924 63.8239C21.4564 63.4399 21.0964 63.0559 20.7124 62.6719C20.8564 60.7039 21.1204 58.6159 21.5044 56.4079C22.1764 52.3279 22.8484 48.9919 23.5204 46.3999C23.8084 45.2959 23.9524 44.6719 23.9524 44.5279V44.4559C23.9044 44.4559 22.7764 46.3039 20.5684 49.9999C14.8564 59.6959 10.7044 64.5439 8.11238 64.5439H6.16838L5.44838 64.6879C6.21638 65.2159 6.60038 65.5039 6.60038 65.5519C6.60038 65.5999 6.55238 65.6239 6.45638 65.6239C6.36038 65.6239 6.04838 65.4319 5.52038 65.0479C5.04038 64.7119 4.48838 64.2799 3.86438 63.7519C3.00038 63.0799 2.37638 62.5039 1.99238 62.0239C1.60837 61.5919 1.34437 61.0879 1.20037 60.5119C1.05637 59.9359 0.984375 59.2399 0.984375 58.4239C0.984375 54.1039 2.78437 46.8559 6.38438 36.6799L8.40038 31.4959C10.6084 25.9759 12.1684 22.2559 13.0804 20.3359C13.6564 19.2799 13.9444 18.6799 13.9444 18.5359C13.9444 18.3439 14.1844 17.7679 14.6644 16.8079C15.0964 16.1359 15.3124 15.6319 15.3124 15.2959L15.2404 15.1519C15.2404 14.7679 15.7204 13.8799 16.6804 12.4879C17.0644 11.9119 17.7124 11.1679 18.6244 10.2559L18.4084 11.5519C18.4084 11.9839 18.5524 12.4639 18.8404 12.9919C19.1764 13.5199 19.4164 13.7839 19.5604 13.7839C19.7044 13.7839 19.8484 13.6879 19.9924 13.4959C20.1364 13.3039 20.2564 13.2079 20.3524 13.2079C20.4964 13.2079 20.6884 13.4239 20.9284 13.8559C21.3124 14.3359 21.5044 14.8399 21.5044 15.3679C21.5044 15.7519 21.3844 16.1599 21.1444 16.5919C19.8964 19.0399 17.7364 24.0799 14.6644 31.7119C11.7844 38.7199 9.67238 44.7199 8.32837 49.7119C7.60838 52.3999 7.05638 54.7759 6.67238 56.8399C6.43238 58.1839 6.31238 59.0959 6.31238 59.5759C6.31238 59.8159 6.33638 59.9599 6.38438 60.0079C7.00838 60.0079 8.16038 58.9519 9.84038 56.8399C11.5204 54.7279 13.2724 52.1599 15.0964 49.1359C27.1444 28.6879 33.9844 16.9519 35.6164 13.9279C36.2884 12.7759 36.8404 11.8399 37.2724 11.1199C37.7524 10.3519 38.0404 9.96788 38.1364 9.96788H38.2084C38.3044 9.96788 38.5204 9.75188 38.8564 9.31988L38.9284 9.17588C39.1684 8.83988 39.3604 8.67188 39.5044 8.67188C39.5524 8.67188 39.5764 8.71988 39.5764 8.81588C39.5764 8.95988 39.4804 9.19988 39.2884 9.53588L39.2164 9.96788C39.2164 10.2559 39.3604 10.6399 39.6484 11.1199C39.9844 11.5519 40.1524 12.0079 40.1524 12.4879C40.1524 12.5359 40.1764 12.5599 40.2244 12.5599L40.5844 12.1279C40.6324 12.1279 40.6564 12.1039 40.6564 12.0559L41.0884 11.2639C41.2804 11.5999 41.4964 11.9839 41.7364 12.4159C41.9764 12.8479 42.0964 13.2079 42.0964 13.4959C42.0964 14.0239 40.4884 18.3439 37.2724 26.4559C34.1524 34.1839 32.1124 39.6319 31.1524 42.7999C30.9124 43.4239 30.7204 43.9999 30.5764 44.5279C30.4804 45.0559 30.3604 45.3919 30.2164 45.5359C29.7844 46.9279 29.2804 48.8239 28.7044 51.2239C27.1684 57.4159 26.3044 61.5199 26.1124 63.5359C26.0644 65.1199 25.8964 65.9119 25.6084 65.9119C25.5124 65.9119 25.4164 65.7919 25.3204 65.5519C25.2244 65.3119 25.1044 65.1919 24.9604 65.1919C24.7204 65.1919 24.6004 65.4079 24.6004 65.8399C24.6004 66.2719 24.5284 66.4879 24.3844 66.4879Z" fill="#757575"/>
</svg>
