<svg width="412" height="100" viewBox="0 0 412 100" fill="none" xmlns="http://www.w3.org/2000/svg">
<path d="M358.879 92.1008C358.412 92.1008 357.846 91.9341 357.179 91.6008C355.312 90.8675 354.379 88.9341 354.379 85.8008C354.379 80.6008 356.146 71.0675 359.679 57.2008C361.679 49.4008 363.812 42.0675 366.079 35.2008C368.012 29.4008 369.212 25.9008 369.679 24.7008C370.279 23.1674 370.712 22.3341 370.979 22.2008C371.246 22.0675 371.446 21.9008 371.579 21.7008C371.712 21.5008 371.779 21.3674 371.779 21.3008C371.779 21.1675 371.846 21.0008 371.979 20.8008C372.179 20.5341 372.346 20.4008 372.479 20.4008C372.612 20.4008 372.679 20.5008 372.679 20.7008L372.479 21.8008C372.479 22.0674 372.546 22.3008 372.679 22.5008C372.812 22.7008 373.079 22.9341 373.479 23.2008C373.879 23.4008 374.212 23.6341 374.479 23.9008C374.746 24.1008 374.879 24.2341 374.879 24.3008C374.879 24.3675 374.912 24.4008 374.979 24.4008C375.112 24.4008 375.446 23.8675 375.979 22.8008C376.379 23.1341 376.746 23.4674 377.079 23.8008C377.479 24.0674 377.779 24.3341 377.979 24.6008C378.246 24.8675 378.379 25.1008 378.379 25.3008C378.379 25.4341 378.179 26.1674 377.779 27.5008C377.379 28.7675 376.946 30.2341 376.479 31.9008C375.346 35.6341 374.512 38.1008 373.979 39.3008C373.112 41.2341 371.346 46.7008 368.679 55.7008C366.079 64.6341 364.779 69.5675 364.779 70.5008C364.912 70.5008 365.546 69.6675 366.679 68.0008C367.812 66.3341 369.212 64.1008 370.879 61.3008C381.146 44.7675 390.379 31.0675 398.579 20.2008C400.579 17.6008 402.346 15.4674 403.879 13.8008C405.412 12.1341 406.346 11.3008 406.679 11.3008C406.746 11.3675 406.779 11.4675 406.779 11.6008C406.712 11.8008 406.612 11.9675 406.479 12.1008C406.412 12.1674 406.379 12.2674 406.379 12.4008C406.379 12.7341 406.679 13.2675 407.279 14.0008C407.946 14.7341 408.412 15.1008 408.679 15.1008H408.779C408.979 14.7675 409.212 14.6008 409.479 14.6008C409.612 14.6008 409.779 14.6675 409.979 14.8008C410.179 14.8674 410.412 15.1008 410.679 15.5008C410.946 15.9008 411.079 16.2341 411.079 16.5008C411.079 16.9008 410.712 17.5341 409.979 18.4008C399.979 31.5341 390.746 44.6675 382.279 57.8008C381.212 59.4008 380.279 60.7675 379.479 61.9008C378.746 63.0341 378.279 63.7675 378.079 64.1008C377.946 64.3675 377.779 64.6341 377.579 64.9008C376.912 66.2341 376.312 67.2341 375.779 67.9008C373.846 70.9675 371.879 74.2008 369.879 77.6008C365.079 85.7341 362.679 90.1341 362.679 90.8008C362.679 91.4675 362.412 91.8008 361.879 91.8008C361.546 91.8008 361.212 91.7341 360.879 91.6008C360.612 91.5341 360.379 91.5008 360.179 91.5008C359.846 91.5008 359.579 91.6008 359.379 91.8008C359.246 92.0008 359.079 92.1008 358.879 92.1008Z" fill="#215FF6"/>
<path d="M320.127 85.6996C320.461 85.6329 321.427 85.2329 323.027 84.4996C325.827 82.8329 329.027 80.0329 332.627 76.0996C336.227 72.1663 339.227 68.1329 341.627 63.9996C345.627 56.8663 348.627 49.7996 350.627 42.7996C352.027 37.7996 352.727 33.4996 352.727 29.8996C352.727 28.4996 352.627 27.2329 352.427 26.0996C352.294 25.2329 352.094 24.6329 351.827 24.2996C351.627 23.9663 351.194 23.7663 350.527 23.6996C349.927 23.5663 349.161 23.4996 348.227 23.4996C345.761 23.6329 344.461 23.9663 344.327 24.4996C344.327 24.7663 343.961 25.4996 343.227 26.6996C342.494 27.8996 342.127 28.5996 342.127 28.7996C341.861 29.5329 341.627 29.8996 341.427 29.8996C341.361 29.8996 341.327 29.8663 341.327 29.7996C341.327 29.6663 341.327 29.5663 341.327 29.4996L341.527 28.0996C341.394 28.1663 340.727 29.0663 339.527 30.7996C339.994 29.0663 340.561 27.5663 341.227 26.2996C341.427 25.8996 341.561 25.5663 341.627 25.2996C341.627 25.1663 341.594 25.0996 341.527 25.0996C341.327 25.0996 340.861 25.9329 340.127 27.5996C339.394 29.2663 338.794 30.3663 338.327 30.8996L337.627 31.6996L337.727 31.0996C337.461 31.0996 336.627 32.4329 335.227 35.0996C334.694 36.0329 334.194 36.9329 333.727 37.7996C333.327 38.5996 333.027 39.1329 332.827 39.3996C330.627 43.4663 328.927 47.0329 327.727 50.0996C327.127 51.4996 326.827 52.3663 326.827 52.6996V52.7996C326.827 52.9329 326.794 53.0329 326.727 53.0996C326.727 53.1663 326.661 53.1996 326.527 53.1996C325.994 53.9996 325.427 55.1996 324.827 56.7996C324.294 58.3329 324.027 59.2663 324.027 59.5996C324.027 59.6663 324.027 59.6996 324.027 59.6996H324.127L324.027 59.7996C323.427 60.2663 323.127 60.8663 323.127 61.5996C322.994 62.2663 322.861 62.5996 322.727 62.5996C322.661 62.5996 322.561 62.7663 322.427 63.0996C322.161 63.8329 321.894 64.7996 321.627 65.9996L321.327 67.2996C321.261 67.4329 321.227 67.6663 321.227 67.9996C321.227 68.2663 321.127 68.3996 320.927 68.3996C320.727 68.3996 320.461 68.9329 320.127 69.9996C319.927 71.3996 319.727 72.4329 319.527 73.0996C319.127 74.8996 318.827 76.3329 318.627 77.3996C318.494 78.3996 318.427 79.5996 318.427 80.9996C318.427 82.9329 318.494 84.1996 318.627 84.7996C318.761 85.3996 319.027 85.6996 319.427 85.6996H320.127ZM333.427 20.4996C333.494 20.4996 333.627 20.4663 333.827 20.3996C334.094 20.2663 334.294 20.0996 334.427 19.8996C334.427 19.8329 334.394 19.7996 334.327 19.7996C334.261 19.7329 334.161 19.6996 334.027 19.6996C333.894 19.7663 333.727 19.8996 333.527 20.0996C333.394 20.2329 333.327 20.3329 333.327 20.3996V20.4996C333.327 20.4996 333.361 20.4996 333.427 20.4996ZM339.127 16.7996C339.261 16.7996 339.494 16.7663 339.827 16.6996C340.161 16.5663 340.327 16.4329 340.327 16.2996C340.327 16.1663 340.227 16.0663 340.027 15.9996C339.694 15.9996 339.427 16.1329 339.227 16.3996C339.094 16.5996 339.027 16.7329 339.027 16.7996H339.127ZM342.127 27.2996C342.461 27.0329 342.627 26.6996 342.627 26.2996C342.627 26.1663 342.594 26.0996 342.527 26.0996C342.527 26.0329 342.494 25.9996 342.427 25.9996L342.227 26.0996C341.894 26.3663 341.727 26.6996 341.727 27.0996C341.727 27.2329 341.861 27.2996 342.127 27.2996ZM350.227 22.5996C350.694 22.5996 350.927 22.5663 350.927 22.4996C350.927 22.4329 350.861 22.3663 350.727 22.2996C350.661 22.2329 350.527 22.1996 350.327 22.1996C350.127 22.1996 349.961 22.2329 349.827 22.2996C349.694 22.3663 349.627 22.4329 349.627 22.4996C349.627 22.5663 349.827 22.5996 350.227 22.5996ZM352.527 20.0996C352.661 20.0996 352.727 20.0329 352.727 19.8996L352.327 19.0996C351.194 17.4329 349.161 16.5996 346.227 16.5996C344.561 16.5996 343.261 16.6996 342.327 16.8996C341.394 17.0329 340.927 17.1996 340.927 17.3996C340.927 17.5996 341.727 17.6996 343.327 17.6996L344.527 17.5996C345.994 17.5996 347.527 18.0329 349.127 18.8996C350.394 19.3663 351.227 19.6996 351.627 19.8996C352.094 20.0329 352.394 20.0996 352.527 20.0996ZM357.027 29.9996L356.927 28.3996C356.861 27.8663 356.694 27.2329 356.427 26.4996C355.827 24.7663 355.327 23.8996 354.927 23.8996V23.9996C354.927 24.2663 355.227 25.3329 355.827 27.1996C356.494 29.0663 356.894 29.9996 357.027 29.9996ZM354.927 44.9996L355.227 43.9996C355.427 43.3329 355.627 42.4663 355.827 41.3996C356.094 40.3329 356.327 39.1663 356.527 37.8996C356.727 36.6329 356.894 35.4329 357.027 34.2996C357.161 33.1663 357.227 32.2663 357.227 31.5996C357.227 31.1329 357.194 30.8996 357.127 30.8996L357.027 30.9996C356.627 31.9996 356.427 33.2996 356.427 34.8996L356.127 37.9996C355.794 40.1329 355.427 41.8996 355.027 43.2996C354.894 43.8996 354.827 44.3663 354.827 44.6996C354.827 44.8996 354.861 44.9996 354.927 44.9996ZM320.227 87.2996C320.827 87.2996 322.127 86.6663 324.127 85.3996L325.927 84.1996C326.261 83.9329 326.494 83.6996 326.627 83.4996C326.227 83.4996 325.427 83.8663 324.227 84.5996C323.027 85.3996 321.827 85.9996 320.627 86.3996C319.894 86.5329 319.527 86.6996 319.527 86.8996L319.727 87.0996C319.794 87.2329 319.961 87.2996 320.227 87.2996ZM321.227 91.9996C321.427 91.9996 321.694 91.9663 322.027 91.8996C322.427 91.8329 322.827 91.7329 323.227 91.5996C323.627 91.5329 323.827 91.4996 323.827 91.4996C323.894 91.4996 323.927 91.4663 323.927 91.3996C323.927 91.3329 323.661 91.2996 323.127 91.2996C322.327 91.2996 321.761 91.3996 321.427 91.5996C321.161 91.7996 321.027 91.9329 321.027 91.9996H321.227ZM323.227 93.0996H322.527C320.661 93.0996 318.594 92.4329 316.327 91.0996C313.261 89.3663 311.227 87.5663 310.227 85.6996C309.427 84.0996 309.027 81.8663 309.027 78.9996C309.027 75.0663 309.627 70.9663 310.827 66.6996C312.561 60.2996 315.427 53.0329 319.427 44.8996C321.094 41.5663 323.161 37.6329 325.627 33.0996C325.161 32.6329 324.694 32.2329 324.227 31.8996C323.827 31.4996 323.494 31.1329 323.227 30.7996C323.027 30.3996 322.927 30.0663 322.927 29.7996C322.927 29.4663 323.161 28.9329 323.627 28.1996C325.027 25.9996 326.627 24.1663 328.427 22.6996C329.427 21.8329 330.861 20.8663 332.727 19.7996C336.194 17.5996 338.161 16.2663 338.627 15.7996C339.094 15.3329 339.494 15.0996 339.827 15.0996C340.027 15.0996 340.227 15.1996 340.427 15.3996C341.227 15.5996 342.794 15.6996 345.127 15.6996C346.794 15.6996 348.027 15.7996 348.827 15.9996C349.694 16.1996 350.561 16.7663 351.427 17.6996C352.361 18.5663 353.561 19.9663 355.027 21.8996C356.561 23.8329 357.594 25.2663 358.127 26.1996C358.994 27.7996 359.427 30.1663 359.427 33.2996C359.427 37.7663 358.327 43.5329 356.127 50.5996C353.927 57.5996 350.327 65.0329 345.327 72.8996C343.527 75.4996 341.061 78.5996 337.927 82.1996C334.794 85.7996 332.327 88.2996 330.527 89.6996C327.661 91.7663 325.227 92.8996 323.227 93.0996Z" fill="#215FF6"/>
<path d="M272.729 89.8004C272.862 89.6671 272.929 89.5337 272.929 89.4004C272.929 89.0671 272.862 88.9004 272.729 88.9004C272.596 88.9004 272.529 89.0337 272.529 89.3004C272.529 89.6337 272.562 89.8004 272.629 89.8004H272.729ZM322.329 23.4004L322.229 23.0004C321.096 20.4004 318.029 18.4337 313.029 17.1004C309.229 16.1004 304.962 15.6004 300.229 15.6004H297.829C293.896 15.8671 291.929 16.0337 291.929 16.1004C291.929 16.1671 292.896 16.2004 294.829 16.2004H297.229C302.429 16.2004 306.662 16.5671 309.929 17.3004C313.262 18.0337 316.362 19.4004 319.229 21.4004C321.229 22.7337 322.262 23.4004 322.329 23.4004ZM322.229 35.1004C322.362 35.1004 322.629 34.7004 323.029 33.9004C323.162 33.7004 323.262 33.4337 323.329 33.1004C323.462 32.7671 323.529 32.5337 323.529 32.4004L323.429 32.3004C323.296 32.3004 323.062 32.7337 322.729 33.6004C322.396 34.4004 322.229 34.8671 322.229 35.0004V35.1004ZM324.229 30.8004L324.429 29.1004C324.429 28.3671 324.262 27.7004 323.929 27.1004C323.662 26.4337 323.496 26.1004 323.429 26.1004C323.362 26.1004 323.329 26.2004 323.329 26.4004C323.329 26.8004 323.429 27.5671 323.629 28.7004L323.729 29.1004L324.229 30.8004ZM274.329 94.4004L273.329 93.9004C272.729 93.6337 272.429 93.1004 272.429 92.3004V90.1004C272.029 91.7671 271.829 92.7671 271.829 93.1004V93.9004L271.929 94.3004C271.929 94.3671 271.862 94.4004 271.729 94.4004L269.829 93.4004C268.696 92.9337 268.129 92.0004 268.129 90.6004C268.129 88.6004 269.162 84.3671 271.229 77.9004C271.696 76.2337 272.062 75.0671 272.329 74.4004L272.429 74.1004C272.429 73.9671 272.362 73.9004 272.229 73.9004H271.729C271.062 73.9004 270.229 73.4004 269.229 72.4004C268.696 72.0004 268.429 71.7004 268.429 71.5004C268.429 71.1004 268.762 70.8337 269.429 70.7004C270.029 70.5004 270.329 70.3337 270.329 70.2004C270.329 70.0671 270.462 69.9004 270.729 69.7004C270.996 69.5004 272.362 68.6671 274.829 67.2004L276.529 62.5004C279.662 53.8337 282.862 46.0671 286.129 39.2004C289.396 32.3337 292.029 27.7671 294.029 25.5004C294.762 24.7004 295.229 24.3004 295.429 24.3004C295.496 24.3004 295.529 24.3671 295.529 24.5004L295.329 25.7004C295.329 26.0337 295.662 26.5004 296.329 27.1004L297.329 27.6004C297.662 27.6004 297.896 27.5337 298.029 27.4004C298.162 27.2671 298.296 27.2004 298.429 27.2004C298.629 27.2004 298.862 27.3337 299.129 27.6004C299.462 27.8671 299.696 28.1004 299.829 28.3004C300.029 28.5004 300.129 28.6337 300.129 28.7004C300.129 29.0337 299.262 30.9337 297.529 34.4004C293.262 43.2671 291.129 47.8337 291.129 48.1004C291.129 48.3004 290.829 49.0004 290.229 50.2004C288.429 54.1337 287.229 56.9004 286.629 58.5004L286.429 59.4004C286.496 59.4004 287.696 58.7004 290.029 57.3004C310.429 43.2337 320.629 32.9337 320.629 26.4004C320.629 25.4671 320.462 24.8337 320.129 24.5004C319.796 24.1671 319.262 23.8004 318.529 23.4004C317.329 22.8004 316.362 22.5004 315.629 22.5004C314.896 22.5004 314.429 22.4004 314.229 22.2004C313.962 21.7337 310.262 21.4004 303.129 21.2004H300.829C296.096 21.2004 292.596 21.5671 290.329 22.3004L289.029 22.8004C289.562 23.0004 290.029 23.2337 290.429 23.5004C290.896 23.7671 291.262 24.0004 291.529 24.2004C291.796 24.4004 291.929 24.5671 291.929 24.7004C291.929 24.7671 291.996 24.8004 292.129 24.8004C292.262 24.8004 292.362 24.8004 292.429 24.8004L293.129 24.7004C293.129 25.0337 292.896 25.2004 292.429 25.2004C291.562 25.2004 290.396 25.0004 288.929 24.6004C285.929 24.0004 283.862 22.8337 282.729 21.1004C282.396 20.7004 282.229 20.4004 282.229 20.2004C282.229 19.7337 282.729 19.1337 283.729 18.4004C284.796 17.6004 285.962 16.9671 287.229 16.5004C290.296 15.4337 294.462 14.9004 299.729 14.9004C306.062 14.9004 311.596 15.8337 316.329 17.7004C318.796 18.7671 320.462 19.9004 321.329 21.1004C324.729 25.7671 326.429 29.0671 326.429 31.0004L326.329 31.8004C325.262 40.3337 311.362 52.9004 284.629 69.5004C283.629 70.1004 282.896 70.6004 282.429 71.0004C281.962 71.3337 281.596 71.7004 281.329 72.1004C280.462 73.5671 279.262 76.9337 277.729 82.2004C276.796 85.2004 275.662 89.2671 274.329 94.4004Z" fill="#215FF6"/>
<path d="M214.818 65.0004C215.018 65.0004 215.318 64.9004 215.718 64.7004C216.318 64.3004 218.451 62.3337 222.118 58.8004C224.118 56.8004 225.618 54.9671 226.618 53.3004C227.151 52.3671 227.418 51.8004 227.418 51.6004L227.318 51.5004H227.118C226.985 51.5004 226.918 51.4004 226.918 51.2004C226.918 50.7337 227.018 50.4337 227.218 50.3004C227.618 49.9004 227.951 49.1671 228.218 48.1004L228.518 47.2004C228.451 47.2004 228.385 47.2671 228.318 47.4004C228.251 47.5337 227.885 48.1004 227.218 49.1004C226.885 49.5004 226.585 49.9337 226.318 50.4004C225.318 51.9337 224.685 52.7004 224.418 52.7004C224.218 52.5671 224.118 52.4004 224.118 52.2004C224.118 51.8004 224.251 51.6004 224.518 51.6004C224.851 51.6004 225.018 51.3671 225.018 50.9004C225.018 50.5004 224.985 50.3004 224.918 50.3004C224.851 50.3004 224.651 50.5337 224.318 51.0004C223.718 51.7337 223.218 52.1004 222.818 52.1004C222.485 52.1004 221.285 53.5337 219.218 56.4004C217.218 59.2671 216.218 60.9004 216.218 61.3004C216.218 61.7004 216.118 61.9004 215.918 61.9004C215.785 61.9004 215.618 62.0671 215.418 62.4004C214.885 63.0671 214.618 63.7004 214.618 64.3004C214.618 64.5004 214.451 64.6004 214.118 64.6004V64.7004C214.118 64.7671 214.185 64.8337 214.318 64.9004C214.518 64.9671 214.685 65.0004 214.818 65.0004ZM210.318 88.4004C211.118 88.4004 211.885 88.1671 212.618 87.7004L213.018 87.5004L212.918 87.4004L212.518 87.5004C211.918 87.7004 211.218 87.8004 210.418 87.8004C209.618 87.8004 209.218 87.8337 209.218 87.9004C209.218 87.9671 209.285 88.0671 209.418 88.2004C209.618 88.3337 209.918 88.4004 210.318 88.4004ZM211.018 92.6004C211.618 92.6004 211.918 92.5337 211.918 92.4004L211.618 92.3004C211.485 92.2337 211.285 92.2004 211.018 92.2004C210.751 92.2004 210.551 92.2337 210.418 92.3004L210.118 92.4004C210.118 92.5337 210.418 92.6004 211.018 92.6004ZM234.618 73.8004V73.7004C234.685 73.7004 234.718 73.6337 234.718 73.5004V73.4004V73.3004L234.518 73.6004L234.618 73.8004ZM212.318 94.1004C211.785 94.1004 211.218 94.0004 210.618 93.8004C210.018 93.6671 208.985 93.1004 207.518 92.1004C206.118 91.1004 204.751 90.0004 203.418 88.8004C202.085 87.6671 201.151 86.7671 200.618 86.1004C199.485 84.3004 198.918 82.0671 198.918 79.4004C198.918 77.6671 199.385 74.9671 200.318 71.3004C201.185 67.5671 203.385 62.9337 206.918 57.4004C210.518 51.8671 214.851 47.2004 219.918 43.4004C222.118 41.7337 223.851 40.9004 225.118 40.9004C225.585 40.9004 225.951 41.0337 226.218 41.3004C226.551 41.5004 226.785 41.7337 226.918 42.0004C227.118 42.2004 227.218 42.4004 227.218 42.6004C227.218 42.8004 227.185 42.9004 227.118 42.9004C227.051 42.9004 226.951 42.7671 226.818 42.5004C226.551 41.8337 226.018 41.5004 225.218 41.5004C224.818 41.5004 224.451 41.6004 224.118 41.8004C223.785 42.0004 223.618 42.1337 223.618 42.2004C223.618 42.2671 223.851 42.3004 224.318 42.3004C224.851 42.3004 225.451 42.6004 226.118 43.2004C226.851 43.7337 227.518 44.0004 228.118 44.0004C228.785 44.0004 229.218 44.1337 229.418 44.4004C229.618 44.6004 229.785 44.7004 229.918 44.7004C230.118 44.7004 230.218 44.5671 230.218 44.3004L230.118 43.3004C230.185 43.3004 230.285 43.4004 230.418 43.6004C230.751 44.0004 230.918 44.5337 230.918 45.2004C230.918 45.8004 231.118 46.2337 231.518 46.5004C231.918 46.9671 232.118 47.7671 232.118 48.9004C232.118 50.0337 231.918 51.2004 231.518 52.4004C231.185 53.1337 231.018 53.6337 231.018 53.9004H231.118C231.385 53.9004 231.718 53.2337 232.118 51.9004C232.518 50.1671 232.718 48.9004 232.718 48.1004C232.718 46.7004 232.818 46.0004 233.018 46.0004C233.085 46.0004 233.218 46.1004 233.418 46.3004C234.418 47.3004 234.918 48.4671 234.918 49.8004C234.918 51.5337 233.985 54.0004 232.118 57.2004C230.318 60.3337 227.151 63.6337 222.618 67.1004C218.818 69.8337 215.751 71.2004 213.418 71.2004C212.751 71.2004 212.251 71.2337 211.918 71.3004C211.651 71.3004 211.451 71.4004 211.318 71.6004C210.718 72.4671 210.185 73.8004 209.718 75.6004L209.218 77.4004C208.551 80.2004 208.218 82.5337 208.218 84.4004C208.218 85.7337 208.351 86.4671 208.618 86.6004C208.951 86.8004 209.418 86.9004 210.018 86.9004C212.151 86.9004 215.151 85.6337 219.018 83.1004C220.685 82.0337 222.218 80.8004 223.618 79.4004C228.351 75.2004 230.918 72.8004 231.318 72.2004C232.051 71.4004 232.651 71.0004 233.118 71.0004C233.718 71.0004 234.451 71.4004 235.318 72.2004C236.251 73.0004 236.718 73.8004 236.718 74.6004C236.585 75.6671 235.451 77.3337 233.318 79.6004C224.451 89.2671 217.451 94.1004 212.318 94.1004Z" fill="#215FF6"/>
<path d="M191.977 93.7992C191.911 93.7992 191.677 93.6659 191.277 93.3992C190.944 93.1326 190.511 92.7326 189.977 92.1992C189.444 91.6659 188.911 91.1659 188.377 90.6992C187.844 90.2992 187.444 89.9659 187.177 89.6992C186.111 89.0326 185.577 87.4326 185.577 84.8992C185.577 82.1659 186.211 78.3659 187.477 73.4992C189.877 63.7659 195.044 51.6659 202.977 37.1992C201.777 37.1992 200.944 37.2326 200.477 37.2992C197.944 37.4326 196.477 37.4992 196.077 37.4992C195.744 37.4992 195.577 37.5659 195.577 37.6992V37.7992C195.577 37.8659 195.444 37.8992 195.177 37.8992C193.311 37.8992 191.877 37.9326 190.877 37.9992C186.411 38.5992 182.877 38.8992 180.277 38.8992C178.411 38.8992 177.411 38.7659 177.277 38.4992C177.277 38.1659 177.544 37.8659 178.077 37.5992C178.544 37.5326 178.777 37.4659 178.777 37.3992C178.777 37.3326 178.477 37.2659 177.877 37.1992C177.277 37.1326 176.744 36.5659 176.277 35.4992C176.011 35.0326 175.844 34.6659 175.777 34.3992C175.777 34.1326 175.811 33.9659 175.877 33.8992C176.077 33.4326 178.277 32.8659 182.477 32.1992C185.677 31.6659 188.844 31.2326 191.977 30.8992C196.644 30.4992 201.644 30.1992 206.977 29.9992C208.911 26.7326 210.611 23.9992 212.077 21.7992C213.611 19.5326 214.511 18.3992 214.777 18.3992C215.111 18.3992 215.344 18.1992 215.477 17.7992C215.677 17.3992 215.911 17.1992 216.177 17.1992C216.311 17.2659 216.377 17.5992 216.377 18.1992C216.311 18.3326 216.277 18.4992 216.277 18.6992C216.277 19.0326 216.377 19.3992 216.577 19.7992C216.777 20.1992 217.011 20.4992 217.277 20.6992C217.611 20.8992 217.844 20.9992 217.977 20.9992C218.177 20.9992 218.344 20.9326 218.477 20.7992C218.677 20.6659 218.844 20.5992 218.977 20.5992C219.177 20.5992 219.377 20.6992 219.577 20.8992C219.844 21.0992 220.044 21.3992 220.177 21.7992C220.311 22.1992 220.377 22.5992 220.377 22.9992C220.377 23.6659 219.411 25.9659 217.477 29.8992C222.477 29.8992 227.344 30.0326 232.077 30.2992C242.544 30.9659 247.777 31.6992 247.777 32.4992C247.777 32.6326 247.577 32.8326 247.177 33.0992C246.844 33.2992 246.677 33.5992 246.677 33.9992C246.677 34.5326 247.011 34.9326 247.677 35.1992C248.677 35.6659 249.177 36.4659 249.177 37.5992L244.177 37.4992C238.044 37.1659 233.377 36.9992 230.177 36.9992L218.977 36.8992L213.977 36.9992C213.911 37.0659 213.877 37.1659 213.877 37.2992C213.877 37.3659 213.844 37.4326 213.777 37.4992L209.277 46.5992L207.477 50.6992C207.477 50.7659 207.444 50.7992 207.377 50.7992C207.377 50.7992 207.311 50.8326 207.177 50.8992C207.044 50.8992 206.977 50.9326 206.977 50.9992L207.077 51.4992C207.011 51.6326 206.877 51.6992 206.677 51.6992C206.477 51.6992 206.377 51.7992 206.377 51.9992C206.377 52.1992 206.344 52.4659 206.277 52.7992C206.077 53.6659 205.811 54.0992 205.477 54.0992C205.411 54.0992 205.377 54.1326 205.377 54.1992C205.377 54.2659 205.377 54.3326 205.377 54.3992L205.477 54.6992L205.377 54.7992C205.311 54.8659 205.211 54.8992 205.077 54.8992C204.944 54.8992 204.877 54.9659 204.877 55.0992V55.2992C204.877 55.6992 204.644 56.2992 204.177 57.0992C203.577 58.2326 203.111 59.3326 202.777 60.3992C202.444 61.3992 202.144 61.8992 201.877 61.8992C201.677 61.8992 201.577 61.9659 201.577 62.0992C201.577 62.2326 201.544 62.4992 201.477 62.8992C201.077 64.0326 200.844 64.5992 200.777 64.5992C200.711 64.5992 200.644 64.6326 200.577 64.6992C200.511 64.7659 200.444 64.8326 200.377 64.8992C200.377 64.9659 200.377 65.0326 200.377 65.0992C200.377 65.6326 199.911 66.8326 198.977 68.6992C198.777 69.2992 198.411 70.1326 197.877 71.1992L197.677 71.9992C197.744 71.9992 197.777 72.0326 197.777 72.0992L197.677 72.1992C197.611 72.2659 197.577 72.3326 197.577 72.3992C197.377 72.6659 197.077 73.4326 196.677 74.6992C195.611 77.7659 194.777 80.5659 194.177 83.0992C194.044 83.8992 193.977 84.5326 193.977 84.9992C193.977 85.3326 194.077 85.5659 194.277 85.6992C194.477 85.8326 194.577 85.9326 194.577 85.9992C194.577 86.1326 194.377 86.1992 193.977 86.1992C193.577 86.1992 193.377 86.2659 193.377 86.3992C193.377 86.5326 193.777 86.5992 194.577 86.5992L195.177 86.4992C195.644 86.4992 195.877 86.5992 195.877 86.7992C195.877 86.9992 195.911 87.1326 195.977 87.1992L196.377 87.0992C196.844 87.0992 197.077 87.8326 197.077 89.2992C197.011 89.9659 196.877 90.5326 196.677 90.9992C196.477 91.1992 196.044 91.4992 195.377 91.8992C194.777 92.3659 194.111 92.7992 193.377 93.1992C192.711 93.5992 192.244 93.7992 191.977 93.7992ZM191.677 92.4992C191.877 92.4992 192.111 92.3992 192.377 92.1992C192.711 92.0659 192.877 91.9659 192.877 91.8992C192.877 91.8326 192.677 91.7992 192.277 91.7992C191.677 91.7992 191.377 91.9326 191.377 92.1992C191.377 92.3992 191.477 92.4992 191.677 92.4992ZM246.677 32.8992C246.811 32.8992 246.877 32.8326 246.877 32.6992L246.777 32.3992H246.877C246.677 32.2659 246.311 32.1659 245.777 32.0992C245.377 32.0992 245.177 32.1326 245.177 32.1992C245.177 32.2659 245.311 32.3992 245.577 32.5992C245.911 32.7992 246.211 32.8992 246.477 32.8992H246.677Z" fill="#215FF6"/>
<path d="M177.816 52.3C178.083 52.0333 178.35 51.2333 178.616 49.9C178.95 48.5667 179.116 47.4333 179.116 46.5C179.116 45.6333 178.95 45.2 178.616 45.2C178.283 45.2 178.116 45.7667 178.116 46.9V47.5C178.116 48.1 178.083 48.7667 178.016 49.5C177.95 50.2333 177.883 50.8 177.816 51.2C177.75 51.6 177.716 51.9 177.716 52.1C177.716 52.2333 177.75 52.3 177.816 52.3ZM176.116 77.1C176.183 77.0333 176.216 76.9333 176.216 76.8C176.216 76.6667 176.183 76.5 176.116 76.3L176.016 76.1C175.95 76.2333 175.916 76.4667 175.916 76.8C175.916 77 175.95 77.1 176.016 77.1H176.116ZM175.716 78.7L175.816 78.3L175.616 77.7C175.55 77.7 175.516 77.8667 175.516 78.2C175.516 78.5333 175.55 78.7 175.616 78.7H175.716ZM175.216 80.6C175.35 80.6 175.416 80.4333 175.416 80.1C175.416 79.6333 175.35 79.4 175.216 79.4C175.15 79.4 175.116 79.6 175.116 80C175.116 80.4 175.15 80.6 175.216 80.6ZM152.016 81.2C152.216 81.2 152.883 80.7667 154.016 79.9C155.216 78.9667 156.616 77.7333 158.216 76.2C162.15 72.2667 166.35 67.4 170.816 61.6C170.95 61.4667 171.083 61.2667 171.216 61L172.616 59.3C174.95 56.3667 176.116 54.5333 176.116 53.8C176.116 53.4667 175.916 53.3 175.516 53.3H175.316C174.983 53.3 174.816 53 174.816 52.4C174.816 52 174.916 51.4 175.116 50.6L175.216 49.8C175.216 49.2 175.15 48.9 175.016 48.9C174.75 48.6333 174.616 48.2667 174.616 47.8C174.616 47.6 174.55 47.5 174.416 47.5C174.15 47.5667 173.283 48.3333 171.816 49.8C164.816 57 158.883 65.7667 154.016 76.1C152.616 79.0333 151.916 80.7 151.916 81.1C151.916 81.1667 151.95 81.2 152.016 81.2ZM150.816 87.7C151.016 87.7 151.316 87.6667 151.716 87.6C152.116 87.6 152.483 87.5333 152.816 87.4C153.15 87.2667 153.316 87.1667 153.316 87.1C153.316 87.0333 153.016 86.9667 152.416 86.9H152.316C151.85 86.9 151.45 86.9667 151.116 87.1C150.716 87.2333 150.516 87.3667 150.516 87.5C150.516 87.5667 150.616 87.6333 150.816 87.7ZM175.716 43.5C175.783 43.5 175.816 43.3667 175.816 43.1C175.816 42.1 175.283 41.6 174.216 41.6C173.35 41.6 172.35 41.9333 171.216 42.6C170.55 43 170.216 43.2333 170.216 43.3C170.283 43.3 170.383 43.2667 170.516 43.2C170.716 43.1333 171.15 43.0667 171.816 43L172.916 42.8C174.25 42.8 175.016 42.9333 175.216 43.2C175.483 43.4 175.65 43.5 175.716 43.5ZM173.616 89.2L170.416 87.5C170.483 86.4333 170.516 85.4 170.516 84.4C170.516 83.4667 170.65 82.2 170.916 80.6C171.183 78.9333 171.483 77.3333 171.816 75.8C172.15 74.2 172.416 72.9333 172.616 72C172.816 71 172.916 70.4 172.916 70.2V70.1C172.783 70.1 171.916 71.0333 170.316 72.9C166.583 77.5667 163.116 81.1333 159.916 83.6C158.983 84.2667 157.95 84.9333 156.816 85.6C154.016 87.2667 152.283 88.1 151.616 88.1C151.483 88.1 151.05 87.9667 150.316 87.7C149.583 87.4333 148.816 87.0667 148.016 86.6C146.283 85.7333 145.183 84.9 144.716 84.1C144.45 83.7 144.316 83.1667 144.316 82.5C144.316 81.9667 144.416 81.3333 144.616 80.6C145.683 76.1333 148.15 70.6667 152.016 64.2C155.883 57.7333 160.05 52.1333 164.516 47.4C168.65 43.1333 171.816 41 174.016 41C174.883 41 175.483 41.4 175.816 42.2C176.216 42.9333 176.55 43.3 176.816 43.3H177.116C177.45 43.3 177.95 43.4667 178.616 43.8C179.35 44.0667 179.95 44.5 180.416 45.1C180.883 45.6333 181.116 46.1667 181.116 46.7C181.116 47.1667 180.95 48.4667 180.616 50.6L180.416 51.6C180.416 51.8667 180.583 52.2 180.916 52.6C181.316 52.9333 181.783 53.1 182.316 53.1C182.583 53.1 182.783 53.0333 182.916 52.9C183.116 52.7 183.316 52.6 183.516 52.6C183.65 52.6 184.05 52.7667 184.716 53.1C185.45 53.7 185.816 54.1 185.816 54.3C185.816 55.1 184.85 58.2333 182.916 63.7C181.25 68.3667 179.75 73.4333 178.416 78.9C177.283 83.3 176.716 86.2667 176.716 87.8C176.716 88.4667 176.583 88.8 176.316 88.8L175.516 88.6H174.916C174.783 88.6 174.716 87.9 174.716 86.5V84.8L174.916 82C174.916 81.7333 174.883 81.6 174.816 81.6C174.683 81.6 174.283 84.1333 173.616 89.2Z" fill="#215FF6"/>
<path d="M112.187 40.7008C112.52 40.7008 112.687 40.5008 112.687 40.1008C112.687 39.9674 112.653 39.9008 112.587 39.9008C112.587 39.8341 112.553 39.8008 112.487 39.8008L112.287 39.9008C111.887 40.1674 111.687 40.3674 111.687 40.5008C111.687 40.6341 111.787 40.7008 111.987 40.7008H112.187ZM134.387 36.6008C134.453 36.5341 134.487 36.3674 134.487 36.1008C134.487 35.7008 134.42 35.5008 134.287 35.5008C134.22 35.5008 134.12 35.5674 133.987 35.7008C133.92 35.7674 133.887 35.8341 133.887 35.9008C133.887 35.9674 133.887 36.0341 133.887 36.1008V36.2008C134.087 36.4674 134.22 36.6008 134.287 36.6008H134.387ZM141.387 60.7008L142.987 60.5008C144.387 60.0341 145.087 59.6674 145.087 59.4008C145.087 59.1341 144.953 59.0008 144.687 59.0008C144.62 59.0008 144.52 59.0341 144.387 59.1008C144.253 59.1674 144.053 59.2341 143.787 59.3008C143.587 59.3674 143.42 59.4008 143.287 59.4008C143.153 59.4008 142.92 59.4674 142.587 59.6008C142.32 59.7341 142.02 59.9341 141.687 60.2008C141.42 60.4008 141.287 60.5341 141.287 60.6008C141.287 60.6674 141.32 60.7008 141.387 60.7008ZM147.087 77.1008C147.287 77.1008 147.387 76.9674 147.387 76.7008C147.387 76.5674 147.32 76.3674 147.187 76.1008C147.12 75.7674 147.087 74.9341 147.087 73.6008C147.087 72.6674 147.02 72.2008 146.887 72.2008C146.82 72.2008 146.72 72.2674 146.587 72.4008C146.52 72.5341 146.487 72.8675 146.487 73.4008L146.587 74.8008C146.587 76.3341 146.753 77.1008 147.087 77.1008ZM146.887 69.8008C147.02 69.7341 147.087 69.6008 147.087 69.4008C147.087 69.0008 146.987 68.8008 146.787 68.8008C146.72 68.8008 146.687 68.9341 146.687 69.2008C146.687 69.4674 146.72 69.6341 146.787 69.7008V69.8008H146.887ZM97.8867 85.7008L97.7867 85.6008C97.6534 85.5341 97.5201 85.4675 97.3867 85.4008C97.2534 85.3341 97.0867 85.2341 96.8867 85.1008C96.6201 85.0341 96.4201 84.9008 96.2867 84.7008C96.0867 84.5674 95.9867 84.4341 95.9867 84.3008C95.9867 84.2341 95.9534 84.2008 95.8867 84.2008L95.3867 84.3008V84.2008C95.3867 84.1341 95.5201 83.9341 95.7867 83.6008C95.9867 83.2674 96.0867 83.0008 96.0867 82.8008C96.0867 82.5341 96.0201 82.3008 95.8867 82.1008C95.7534 81.8341 95.6867 81.2675 95.6867 80.4008L95.7867 77.0008C96.2534 71.5341 98.2201 64.6674 101.687 56.4008C103.887 51.0674 106.187 46.5341 108.587 42.8008C109.253 41.6674 109.853 40.8341 110.387 40.3008C110.987 39.4341 111.52 39.0008 111.987 39.0008C112.32 39.0008 112.687 39.2341 113.087 39.7008L114.087 40.5008C114.087 40.6341 114.053 40.7341 113.987 40.8008L113.587 41.2008C113.587 41.2674 113.72 41.3008 113.987 41.3008C115.387 41.3008 117.253 42.0341 119.587 43.5008C118.453 45.8341 117.653 47.1008 117.187 47.3008L117.087 47.5008C117.087 47.6341 117.087 47.7008 117.087 47.7008L117.187 47.8008C117.187 47.8674 117.153 47.9008 117.087 47.9008C116.353 48.3008 115.787 49.2674 115.387 50.8008C115.387 51.0008 115.287 51.1341 115.087 51.2008L114.887 51.3008L114.787 51.4008L114.987 51.8008C114.987 51.8674 114.953 51.9341 114.887 52.0008C114.887 52.0008 114.72 52.0341 114.387 52.1008L114.487 52.4008C114.487 52.6008 114.353 52.8341 114.087 53.1008C113.82 53.3674 113.687 53.7008 113.687 54.1008C113.687 54.4341 113.62 54.6008 113.487 54.6008C113.42 54.6008 113.02 55.2341 112.287 56.5008C111.62 57.7674 110.887 59.2341 110.087 60.9008C108.02 64.9008 106.987 67.0674 106.987 67.4008C107.12 67.4008 108.52 65.6674 111.187 62.2008C112.72 60.0675 114.287 58.0008 115.887 56.0008L116.987 54.5008C118.853 52.1674 120.853 49.8674 122.987 47.6008C124.72 45.8674 126.353 43.9674 127.887 41.9008C129.42 39.7674 131.02 37.9008 132.687 36.3008L132.987 36.1008C133.853 35.2341 134.42 34.8008 134.687 34.8008C134.753 34.8008 134.853 34.8674 134.987 35.0008C135.12 35.0674 135.187 35.4674 135.187 36.2008C135.253 36.8674 135.387 37.3341 135.587 37.6008C135.853 37.8674 136.12 38.0008 136.387 38.0008C136.52 38.0008 136.687 37.9341 136.887 37.8008C137.153 37.6674 137.387 37.6008 137.587 37.6008C137.787 37.6008 138.053 37.7008 138.387 37.9008C138.787 38.0341 139.187 38.3341 139.587 38.8008C139.987 39.2674 140.187 39.7341 140.187 40.2008C140.187 41.4674 138.553 46.2674 135.287 54.6008C130.687 66.2674 128.387 72.7674 128.387 74.1008V74.2008L128.587 74.3008C128.72 74.3008 128.82 74.2674 128.887 74.2008C128.887 73.6674 129.387 73.0341 130.387 72.3008C131.053 71.7675 131.387 71.4341 131.387 71.3008H131.187C131.187 71.1008 131.953 70.1341 133.487 68.4008C134.62 67.2008 135.82 65.8008 137.087 64.2008C139.353 61.4674 140.787 59.9008 141.387 59.5008C141.987 59.1008 142.853 58.8674 143.987 58.8008C144.52 58.8008 144.887 58.9008 145.087 59.1008C145.287 59.2341 145.42 59.5674 145.487 60.1008C145.553 60.5674 145.653 60.8674 145.787 61.0008C145.987 61.0674 146.387 61.1008 146.987 61.1008C147.987 61.1008 148.853 61.3674 149.587 61.9008C150.053 62.1674 150.353 62.5008 150.487 62.9008C150.62 63.2341 150.687 63.6341 150.687 64.1008C150.687 65.1008 150.487 66.5341 150.087 68.4008C149.687 71.0008 149.487 73.1008 149.487 74.7008C149.487 75.6341 149.487 76.3675 149.487 76.9008C149.553 77.3675 149.653 77.7341 149.787 78.0008C149.92 78.2008 150.12 78.4008 150.387 78.6008C150.72 78.7341 150.887 78.8341 150.887 78.9008C150.887 78.9675 150.82 79.0341 150.687 79.1008C150.62 79.1008 150.02 79.1008 148.887 79.1008C146.553 79.1008 144.92 78.5341 143.987 77.4008C143.12 76.2674 142.687 74.3008 142.687 71.5008L142.587 68.4008L138.387 72.7008C136.387 74.7008 133.987 77.3008 131.187 80.5008C129.92 81.9674 128.953 83.0341 128.287 83.7008C127.353 84.7008 126.587 85.2008 125.987 85.2008L124.787 85.0008C124.32 85.0008 123.987 85.0674 123.787 85.2008C123.587 85.4008 123.387 85.5008 123.187 85.5008C122.653 85.5008 121.953 85.3008 121.087 84.9008C119.953 84.4341 119.32 84.0341 119.187 83.7008C119.12 83.3008 119.087 82.8008 119.087 82.2008C119.087 78.4008 121.453 69.9341 126.187 56.8008L126.487 56.0008C127.687 52.8008 128.287 50.9674 128.287 50.5008L126.487 52.6008C121.02 59.6674 117.153 64.7341 114.887 67.8008C108.953 75.8008 105.087 80.9008 103.287 83.1008C101.953 84.7008 101.053 85.5008 100.587 85.5008C100.387 85.5008 100.187 85.4008 99.9867 85.2008C99.8534 85.0008 99.6867 84.9008 99.4867 84.9008L97.8867 85.7008Z" fill="#215FF6"/>
<path d="M105.832 27.6992C105.565 27.6992 105.099 27.6659 104.432 27.5992C103.765 27.5326 103.065 27.2326 102.332 26.6992C101.665 26.0992 101.332 25.5326 101.332 24.9992C101.332 24.1992 102.199 22.2325 103.932 19.0992C105.132 16.8326 106.065 15.6992 106.732 15.6992C106.932 15.6992 107.032 15.9326 107.032 16.3992C107.032 16.7992 106.932 16.9992 106.732 16.9992L106.232 16.7992C106.165 16.7992 106.132 16.8326 106.132 16.8992C106.132 17.1659 106.565 17.6659 107.432 18.3992C107.965 18.8659 108.399 19.0992 108.732 19.0992C108.865 19.0992 109.032 19.0326 109.232 18.8992C109.432 18.7659 109.665 18.6992 109.932 18.6992C110.132 18.7659 110.499 18.9659 111.032 19.2992C111.565 19.5659 111.832 19.9326 111.832 20.3992C111.832 20.7992 111.532 21.2992 110.932 21.8992C110.399 22.4326 109.765 23.3659 109.032 24.6992C108.699 25.2992 108.332 25.8659 107.932 26.3992C107.599 26.8659 107.365 27.1992 107.232 27.3992C106.899 27.5992 106.432 27.6992 105.832 27.6992ZM85.432 94.4992C84.6987 94.2326 84.332 94.0992 84.332 94.0992L79.332 91.5992V88.5992C79.3987 86.4659 80.0654 83.0326 81.332 78.2992C82.532 73.4992 84.132 68.1326 86.132 62.1992C86.8654 60.2659 87.232 59.1326 87.232 58.7992C87.232 58.7326 87.1987 58.6992 87.132 58.6992L86.832 58.7992C86.5654 58.7992 86.432 58.6992 86.432 58.4992C86.432 57.6992 87.0987 56.1326 88.432 53.7992C88.832 53.1992 89.2654 52.4326 89.732 51.4992L92.232 46.5992C94.3654 42.5326 95.8654 40.4992 96.732 40.4992C97.0654 40.4992 97.232 40.6326 97.232 40.8992C97.232 41.0326 97.1654 41.2326 97.032 41.4992C96.8987 41.7659 96.832 41.9659 96.832 42.0992L96.932 42.4992H97.332C97.3987 42.4326 97.4654 42.2992 97.532 42.0992C97.5987 41.8326 97.7654 41.6992 98.032 41.6992L98.832 42.3992C99.2987 42.8659 99.732 43.0992 100.132 43.0992C100.599 43.0992 101.232 43.5659 102.032 44.4992C102.765 45.1659 103.132 45.7326 103.132 46.1992C103.132 46.3992 103.099 46.6326 103.032 46.8992C102.965 47.1659 102.932 47.3992 102.932 47.5992C102.932 47.7326 102.932 47.8326 102.932 47.8992L103.032 48.1992C103.032 48.3326 102.932 48.3992 102.732 48.3992C102.532 48.3992 102.399 48.4326 102.332 48.4992L102.432 48.9992C102.432 49.1326 102.332 49.2992 102.132 49.4992C101.999 49.6326 101.932 49.7659 101.932 49.8992C101.932 49.9659 101.965 49.9992 102.032 49.9992C102.099 49.9992 102.132 50.0326 102.132 50.0992L102.032 50.2992C101.765 50.8326 101.565 51.2992 101.432 51.6992V51.9992C101.365 52.2659 101.199 52.3992 100.932 52.3992C100.732 52.3992 100.632 52.4659 100.632 52.5992L100.732 52.6992C100.732 53.0326 100.665 53.3992 100.532 53.7992C100.399 53.9326 100.299 54.0992 100.232 54.2992C100.165 54.4326 100.132 54.6326 100.132 54.8992C100.132 55.1659 100.032 55.2992 99.832 55.2992C99.6987 55.2992 99.632 55.3326 99.632 55.3992C99.632 55.4659 99.632 55.5326 99.632 55.5992L99.732 55.8992V55.9992C99.6654 56.0659 99.532 56.0992 99.332 56.0992C99.1987 56.0992 99.132 56.1992 99.132 56.3992L99.232 56.7992C99.1654 56.9326 99.0654 57.0659 98.932 57.1992C98.7987 57.2659 98.732 57.3326 98.732 57.3992C98.732 57.5326 98.7654 57.6326 98.832 57.6992C98.8987 57.7659 98.932 57.8326 98.932 57.8992V57.9992C98.8654 58.0659 98.6654 58.1326 98.332 58.1992L98.432 58.4992L98.332 58.8992C97.8654 59.8326 97.632 60.4326 97.632 60.6992C97.6987 60.6992 97.732 60.7326 97.732 60.7992L97.632 60.8992C97.5654 60.9659 97.432 60.9992 97.232 60.9992C97.0987 60.9992 97.032 61.0992 97.032 61.2992C97.032 61.4992 96.6654 62.3992 95.932 63.9992C93.2654 69.8659 90.8654 76.7326 88.732 84.5992C87.732 88.0659 87.232 90.3992 87.232 91.5992C87.232 92.2659 87.1987 92.6326 87.132 92.6992C87.0654 92.8326 86.832 92.8992 86.432 92.8992L86.032 92.7992C85.7654 92.7992 85.632 93.0659 85.632 93.5992C85.632 94.1326 85.5654 94.4326 85.432 94.4992Z" fill="#215FF6"/>
<path d="M70.6883 93.7992C70.6216 93.7992 70.3883 93.6659 69.9883 93.3992C69.6549 93.1326 69.2216 92.7326 68.6883 92.1992C68.155 91.6659 67.6216 91.1659 67.0883 90.6992C66.5549 90.2992 66.1549 89.9659 65.8883 89.6992C64.8216 89.0326 64.2883 87.4326 64.2883 84.8992C64.2883 82.1659 64.9216 78.3659 66.1883 73.4992C68.5883 63.7659 73.755 51.6659 81.6883 37.1992C80.4883 37.1992 79.655 37.2326 79.1883 37.2992C76.655 37.4326 75.1883 37.4992 74.7883 37.4992C74.455 37.4992 74.2883 37.5659 74.2883 37.6992V37.7992C74.2883 37.8659 74.1549 37.8992 73.8883 37.8992C72.0216 37.8992 70.5883 37.9326 69.5883 37.9992C65.1216 38.5992 61.5883 38.8992 58.9883 38.8992C57.1216 38.8992 56.1216 38.7659 55.9883 38.4992C55.9883 38.1659 56.2549 37.8659 56.7883 37.5992C57.2549 37.5326 57.4883 37.4659 57.4883 37.3992C57.4883 37.3326 57.1883 37.2659 56.5883 37.1992C55.9883 37.1326 55.4549 36.5659 54.9883 35.4992C54.7216 35.0326 54.5549 34.6659 54.4883 34.3992C54.4883 34.1326 54.5216 33.9659 54.5883 33.8992C54.7883 33.4326 56.9883 32.8659 61.1883 32.1992C64.3883 31.6659 67.555 31.2326 70.6883 30.8992C75.355 30.4992 80.355 30.1992 85.6883 29.9992C87.6216 26.7326 89.3216 23.9992 90.7883 21.7992C92.3216 19.5326 93.2216 18.3992 93.4883 18.3992C93.8216 18.3992 94.055 18.1992 94.1883 17.7992C94.3883 17.3992 94.6216 17.1992 94.8883 17.1992C95.0216 17.2659 95.0883 17.5992 95.0883 18.1992C95.0216 18.3326 94.9883 18.4992 94.9883 18.6992C94.9883 19.0326 95.0883 19.3992 95.2883 19.7992C95.4883 20.1992 95.7216 20.4992 95.9883 20.6992C96.3216 20.8992 96.555 20.9992 96.6883 20.9992C96.8883 20.9992 97.055 20.9326 97.1883 20.7992C97.3883 20.6659 97.555 20.5992 97.6883 20.5992C97.8883 20.5992 98.0883 20.6992 98.2883 20.8992C98.555 21.0992 98.7549 21.3992 98.8883 21.7992C99.0216 22.1992 99.0883 22.5992 99.0883 22.9992C99.0883 23.6659 98.1216 25.9659 96.1883 29.8992C101.188 29.8992 106.055 30.0326 110.788 30.2992C121.255 30.9659 126.488 31.6992 126.488 32.4992C126.488 32.6326 126.288 32.8326 125.888 33.0992C125.555 33.2992 125.388 33.5992 125.388 33.9992C125.388 34.5326 125.722 34.9326 126.388 35.1992C127.388 35.6659 127.888 36.4659 127.888 37.5992L122.888 37.4992C116.755 37.1659 112.088 36.9992 108.888 36.9992L97.6883 36.8992L92.6883 36.9992C92.6216 37.0659 92.5883 37.1659 92.5883 37.2992C92.5883 37.3659 92.5549 37.4326 92.4883 37.4992L87.9883 46.5992L86.1883 50.6992C86.1883 50.7659 86.1549 50.7992 86.0883 50.7992C86.0883 50.7992 86.0216 50.8326 85.8883 50.8992C85.755 50.8992 85.6883 50.9326 85.6883 50.9992L85.7883 51.4992C85.7216 51.6326 85.5883 51.6992 85.3883 51.6992C85.1883 51.6992 85.0883 51.7992 85.0883 51.9992C85.0883 52.1992 85.0549 52.4659 84.9883 52.7992C84.7883 53.6659 84.5216 54.0992 84.1883 54.0992C84.1216 54.0992 84.0883 54.1326 84.0883 54.1992C84.0883 54.2659 84.0883 54.3326 84.0883 54.3992L84.1883 54.6992L84.0883 54.7992C84.0216 54.8659 83.9216 54.8992 83.7883 54.8992C83.655 54.8992 83.5883 54.9659 83.5883 55.0992V55.2992C83.5883 55.6992 83.3549 56.2992 82.8883 57.0992C82.2883 58.2326 81.8216 59.3326 81.4883 60.3992C81.1549 61.3992 80.8549 61.8992 80.5883 61.8992C80.3883 61.8992 80.2883 61.9659 80.2883 62.0992C80.2883 62.2326 80.255 62.4992 80.1883 62.8992C79.7883 64.0326 79.5549 64.5992 79.4883 64.5992C79.4216 64.5992 79.355 64.6326 79.2883 64.6992C79.2216 64.7659 79.1549 64.8326 79.0883 64.8992C79.0883 64.9659 79.0883 65.0326 79.0883 65.0992C79.0883 65.6326 78.6216 66.8326 77.6883 68.6992C77.4883 69.2992 77.1216 70.1326 76.5883 71.1992L76.3883 71.9992C76.4549 71.9992 76.4883 72.0326 76.4883 72.0992L76.3883 72.1992C76.3216 72.2659 76.2883 72.3326 76.2883 72.3992C76.0883 72.6659 75.7883 73.4326 75.3883 74.6992C74.3216 77.7659 73.4883 80.5659 72.8883 83.0992C72.7549 83.8992 72.6883 84.5326 72.6883 84.9992C72.6883 85.3326 72.7883 85.5659 72.9883 85.6992C73.1883 85.8326 73.2883 85.9326 73.2883 85.9992C73.2883 86.1326 73.0883 86.1992 72.6883 86.1992C72.2883 86.1992 72.0883 86.2659 72.0883 86.3992C72.0883 86.5326 72.4883 86.5992 73.2883 86.5992L73.8883 86.4992C74.3549 86.4992 74.5883 86.5992 74.5883 86.7992C74.5883 86.9992 74.6216 87.1326 74.6883 87.1992L75.0883 87.0992C75.5549 87.0992 75.7883 87.8326 75.7883 89.2992C75.7216 89.9659 75.5883 90.5326 75.3883 90.9992C75.1883 91.1992 74.7549 91.4992 74.0883 91.8992C73.4883 92.3659 72.8216 92.7992 72.0883 93.1992C71.4216 93.5992 70.955 93.7992 70.6883 93.7992ZM70.3883 92.4992C70.5883 92.4992 70.8216 92.3992 71.0883 92.1992C71.4216 92.0659 71.5883 91.9659 71.5883 91.8992C71.5883 91.8326 71.3883 91.7992 70.9883 91.7992C70.3883 91.7992 70.0883 91.9326 70.0883 92.1992C70.0883 92.3992 70.1883 92.4992 70.3883 92.4992ZM125.388 32.8992C125.522 32.8992 125.588 32.8326 125.588 32.6992L125.488 32.3992H125.588C125.388 32.2659 125.022 32.1659 124.488 32.0992C124.088 32.0992 123.888 32.1326 123.888 32.1992C123.888 32.2659 124.022 32.3992 124.288 32.5992C124.622 32.7992 124.922 32.8992 125.188 32.8992H125.388Z" fill="#215FF6"/>
<path d="M54.3367 99.1C54.4701 99.1 54.6034 98.9667 54.7367 98.7C54.9367 98.5 55.0367 98.2667 55.0367 98L54.9367 97.9C54.8701 97.9 54.7701 97.9333 54.6367 98C54.5034 98.0667 54.3701 98.1667 54.2367 98.3C54.1034 98.5 54.0367 98.7 54.0367 98.9C54.0367 99.0333 54.1367 99.1 54.3367 99.1ZM54.5367 99.8C53.9367 99.8 53.0701 99.6333 51.9367 99.3L48.8367 98.3C48.0367 98.1667 47.4367 97.8333 47.0367 97.3C46.6367 96.8333 46.3701 95.9667 46.2367 94.7C46.1701 93.8333 46.1367 91.9333 46.1367 89C46.1367 82.2 47.2701 75.2 49.5367 68C51.8701 60.2667 55.4701 50.8 60.3367 39.6C65.2701 28.3333 69.8367 19.1667 74.0367 12.1C75.9034 8.83334 76.9367 6.9 77.1367 6.3C77.4034 5.83333 77.8701 5.13333 78.5367 4.2C80.4034 1.73333 81.57 0.5 82.0367 0.5C82.1701 0.5 82.3034 0.600001 82.4367 0.800002C82.7701 1.73334 83.1034 2.2 83.4367 2.2C83.7701 2.2 84.1034 2.5 84.4367 3.1C84.7701 3.63333 85.0367 3.9 85.2367 3.9C85.4367 3.9 85.7367 4.03333 86.1367 4.3C86.5367 4.56667 87.3034 5.3 88.4367 6.5C87.3034 8.16667 86.1701 9.83333 85.0367 11.5C83.9701 13.1667 82.8701 15.0333 81.7367 17.1C78.8034 22.1667 77.3367 25.1333 77.3367 26C77.3367 26.2667 77.2701 26.4333 77.1367 26.5C77.0034 26.5 76.7701 26.8 76.4367 27.4C76.4367 27.6 76.4034 27.7333 76.3367 27.8V28.3C76.3367 28.5 76.1034 28.9 75.6367 29.5C74.6367 31.1 74.1367 32.3333 74.1367 33.2H73.7367C73.5367 33.2 73.4367 33.6667 73.4367 34.6H73.5367V34.7C73.4701 34.7667 73.4034 34.8 73.3367 34.8C72.6701 35.4 72.1701 36.2667 71.8367 37.4C71.7034 37.7333 71.6367 38.0667 71.6367 38.4C71.7034 38.4 71.7367 38.4333 71.7367 38.5V38.6C71.6701 38.6667 71.5367 38.7 71.3367 38.7C71.2034 38.7 71.1367 38.7667 71.1367 38.9L71.3367 39.3C71.2701 39.3667 71.1701 39.4 71.0367 39.4C70.9034 39.4 70.7367 39.6 70.5367 40C70.4034 40.3333 70.3034 40.7333 70.2367 41.2C70.1701 41.6 70.1367 41.9333 70.1367 42.2C70.2034 42.2 70.2367 42.2333 70.2367 42.3L69.9367 42.2C69.8034 42.2 69.6701 42.3333 69.5367 42.6C69.0701 43.2 68.7034 43.9333 68.4367 44.8V45.5L68.5367 45.7C68.5367 45.9 68.4367 46 68.2367 46C68.1034 46 68.0034 46.0333 67.9367 46.1V46.3C67.9367 46.5667 67.8701 46.7333 67.7367 46.8C67.6701 46.8667 67.5701 47 67.4367 47.2C67.3701 47.4 67.3034 47.7 67.2367 48.1C67.2367 48.5 67.1367 48.7 66.9367 48.7C66.8034 48.7 66.7367 48.7333 66.7367 48.8C66.7367 48.8667 66.7367 48.9333 66.7367 49L66.8367 49.5C66.8367 49.6333 66.7367 49.7 66.5367 49.7C66.4034 49.7 66.3367 49.7667 66.3367 49.9C66.3367 49.9667 66.3367 50.0333 66.3367 50.1L66.4367 50.5C66.4367 50.7667 66.2367 50.9 65.8367 50.9L65.9367 51.2C65.9367 51.4 65.7701 51.7 65.4367 52.1C65.1034 52.4333 64.9367 53.2 64.9367 54.4C65.0034 54.4 65.0367 54.4333 65.0367 54.5L64.8367 54.6C64.5034 54.9333 64.3034 55.1333 64.2367 55.2C64.2367 55.2667 64.1701 55.6 64.0367 56.2C63.9034 56.7333 63.7701 57 63.6367 57C63.5034 57 63.4367 57.0667 63.4367 57.2L63.5367 57.6C63.5367 57.6667 63.4701 57.7 63.3367 57.7C63.1367 57.9 62.9701 58.3333 62.8367 59C62.7034 59.6 62.5701 59.9667 62.4367 60.1C62.3034 60.2333 62.2034 60.4 62.1367 60.6C61.9367 61.2 61.8367 61.7333 61.8367 62.2C61.7701 62.4 61.7034 62.5333 61.6367 62.6C61.6367 62.6667 61.5701 62.7667 61.4367 62.9C61.4367 63.3 61.3701 63.5667 61.2367 63.7V64.3C61.2367 64.5 61.1367 64.6 60.9367 64.6C60.7367 64.6 60.6367 64.6667 60.6367 64.8C60.6367 64.8667 60.6367 64.9333 60.6367 65L60.7367 65.4C60.7367 65.6667 60.6367 65.9 60.4367 66.1C60.2367 66.3 60.1367 66.4333 60.1367 66.5C60.1367 66.5667 60.1701 66.6 60.2367 66.6C60.3701 66.6 60.4367 66.6333 60.4367 66.7L60.1367 67.1C59.8701 67.2333 59.6701 67.6667 59.5367 68.4C59.5367 69.1333 59.4367 69.5 59.2367 69.5C59.0367 69.5 58.9367 69.7667 58.9367 70.3L59.0367 70.7C59.0367 71.0333 59.0034 71.2 58.9367 71.2C58.6034 71.4 58.2701 72.2667 57.9367 73.8C57.6034 75 57.4367 75.8667 57.4367 76.4V76.9C57.4367 77.0333 57.3701 77.1 57.2367 77.1C57.1034 77.1 57.0034 77.2 56.9367 77.4V78L57.0367 78.3C57.0367 78.4333 57.0034 78.5667 56.9367 78.7C56.9367 78.8333 56.8701 78.9333 56.7367 79C56.6701 79 56.5367 79.3 56.3367 79.9C56.2034 80.4333 56.0701 81.1 55.9367 81.9C55.8701 82.7 55.8367 83.4 55.8367 84C55.8367 84.6 55.7701 84.9 55.6367 84.9C55.5034 84.9 55.3701 85.0667 55.2367 85.4C55.2367 86.8 55.1367 88.4667 54.9367 90.4L54.6367 95L55.9367 95.4C56.8701 95.8 57.3367 96.2667 57.3367 96.8C57.3367 97.1333 57.1701 97.4333 56.8367 97.7C56.5701 98.0333 56.2367 98.5667 55.8367 99.3C55.6367 99.6333 55.2034 99.8 54.5367 99.8Z" fill="#215FF6"/>
<path d="M32.7992 56.9996C32.8659 56.9996 32.9326 56.9663 32.9992 56.8996C33.0659 56.7663 33.3659 56.2996 33.8992 55.4996C33.7659 55.4996 33.5992 55.6329 33.3992 55.8996C32.9326 56.4329 32.6992 56.7663 32.6992 56.8996C32.6992 56.9663 32.7326 56.9996 32.7992 56.9996ZM32.6992 94.3996C32.4326 94.3996 32.0326 94.033 31.4992 93.2996C31.2992 93.033 30.9659 92.6663 30.4992 92.1996C30.0326 91.7329 29.5659 91.2329 29.0992 90.6996C28.6326 90.1663 28.1326 89.633 27.5992 89.0996C27.7992 86.3663 28.1659 83.4663 28.6992 80.3996C29.6326 74.733 30.5659 70.0996 31.4992 66.4996C31.8992 64.9663 32.0992 64.0996 32.0992 63.8996V63.7996C32.0326 63.7996 30.4659 66.3663 27.3992 71.4996C19.4659 84.9663 13.6992 91.6996 10.0992 91.6996H7.39922L6.39922 91.8996C7.46589 92.633 7.99922 93.033 7.99922 93.0996C7.99922 93.1663 7.93255 93.1996 7.79922 93.1996C7.66589 93.1996 7.23255 92.933 6.49922 92.3996C5.83255 91.933 5.06589 91.333 4.19922 90.5996C2.99922 89.6663 2.13255 88.8663 1.59922 88.1996C1.06589 87.5996 0.699219 86.8996 0.499219 86.0996C0.299219 85.2996 0.199219 84.3329 0.199219 83.1996C0.199219 77.1996 2.69922 67.1329 7.69922 52.9996L10.4992 45.7996C13.5659 38.1329 15.7326 32.9663 16.9992 30.2996C17.7992 28.8329 18.1992 27.9996 18.1992 27.7996C18.1992 27.5329 18.5326 26.7329 19.1992 25.3996C19.7992 24.4663 20.0992 23.7663 20.0992 23.2996L19.9992 23.0996C19.9992 22.5663 20.6659 21.3329 21.9992 19.3996C22.5326 18.5996 23.4326 17.5663 24.6992 16.2996L24.3992 18.0996C24.3992 18.6996 24.5992 19.3663 24.9992 20.0996C25.4659 20.8329 25.7992 21.1996 25.9992 21.1996C26.1992 21.1996 26.3992 21.0663 26.5992 20.7996C26.7992 20.5329 26.9659 20.3996 27.0992 20.3996C27.2992 20.3996 27.5659 20.6996 27.8992 21.2996C28.4326 21.9663 28.6992 22.6663 28.6992 23.3996C28.6992 23.9329 28.5326 24.4996 28.1992 25.0996C26.4659 28.4996 23.4659 35.4996 19.1992 46.0996C15.1992 55.8329 12.2659 64.1663 10.3992 71.0996C9.39922 74.8329 8.63255 78.133 8.09922 80.9996C7.76589 82.8663 7.59922 84.133 7.59922 84.7996C7.59922 85.133 7.63255 85.333 7.69922 85.3996C8.56589 85.3996 10.1659 83.933 12.4992 80.9996C14.8326 78.0663 17.2659 74.4996 19.7992 70.2996C36.5326 41.8996 46.0326 25.5996 48.2992 21.3996C49.2326 19.7996 49.9992 18.4996 50.5992 17.4996C51.2659 16.4329 51.6659 15.8996 51.7992 15.8996H51.8992C52.0326 15.8996 52.3326 15.5996 52.7992 14.9996L52.8992 14.7996C53.2326 14.3329 53.4992 14.0996 53.6992 14.0996C53.7659 14.0996 53.7992 14.1663 53.7992 14.2996C53.7992 14.4996 53.6659 14.8329 53.3992 15.2996L53.2992 15.8996C53.2992 16.2996 53.4992 16.8329 53.8992 17.4996C54.3659 18.0996 54.5992 18.7329 54.5992 19.3996C54.5992 19.4663 54.6326 19.4996 54.6992 19.4996L55.1992 18.8996C55.2659 18.8996 55.2992 18.8663 55.2992 18.7996L55.8992 17.6996C56.1659 18.1663 56.4659 18.6996 56.7992 19.2996C57.1326 19.8996 57.2992 20.3996 57.2992 20.7996C57.2992 21.5329 55.0659 27.5329 50.5992 38.7996C46.2659 49.5329 43.4326 57.0996 42.0992 61.4996C41.7659 62.3663 41.4992 63.1663 41.2992 63.8996C41.1659 64.6329 40.9992 65.0996 40.7992 65.2996C40.1992 67.2329 39.4992 69.8663 38.6992 73.1996C36.5659 81.7996 35.3659 87.4996 35.0992 90.2996C35.0326 92.4996 34.7992 93.5996 34.3992 93.5996C34.2659 93.5996 34.1326 93.433 33.9992 93.0996C33.8659 92.7663 33.6992 92.5996 33.4992 92.5996C33.1659 92.5996 32.9992 92.8996 32.9992 93.4996C32.9992 94.0996 32.8992 94.3996 32.6992 94.3996Z" fill="#215FF6"/>
</svg>
