<svg width="60" height="65" viewBox="0 0 60 65" fill="none" xmlns="http://www.w3.org/2000/svg">
<path d="M53.0611 46.8795C52.9544 46.8795 52.9011 46.8528 52.9011 46.7995C52.9011 46.7461 52.9811 46.6395 53.1411 46.4795C53.3011 46.3195 53.4611 46.2395 53.6211 46.2395L53.7011 46.3195C53.7011 46.3728 53.6478 46.4795 53.5411 46.6395C53.4878 46.7995 53.3278 46.8795 53.0611 46.8795ZM22.1011 57.5995C22.2078 57.4928 22.2611 57.3861 22.2611 57.2795C22.2611 57.0128 22.2078 56.8795 22.1011 56.8795C21.9944 56.8795 21.9411 56.9861 21.9411 57.1995C21.9411 57.4661 21.9678 57.5995 22.0211 57.5995H22.1011ZM51.4611 20.7995C51.5678 20.6928 51.6744 20.4528 51.7811 20.0795C51.7811 19.9728 51.7278 19.8928 51.6211 19.8395C51.5144 19.8395 51.3011 19.9195 50.9811 20.0795C50.7144 20.2395 50.5811 20.3728 50.5811 20.4795C50.5811 20.6928 50.8211 20.7995 51.3011 20.7995H51.4611ZM24.1011 59.2795C23.9944 59.2795 23.5678 59.0395 22.8211 58.5595V58.7195C22.4478 58.5061 22.1811 58.3195 22.0211 58.1595C21.8078 57.9995 21.7011 57.7595 21.7011 57.4395C21.6478 57.1195 21.6211 56.6395 21.6211 55.9995C21.8344 51.4128 23.7278 44.4795 27.3011 35.1995C29.5944 29.2795 31.4078 25.4395 32.7411 23.6795C33.4344 22.8795 34.0478 22.4795 34.5811 22.4795C35.0078 22.4795 35.4878 22.6128 36.0211 22.8795C37.0878 23.4661 38.2078 23.8928 39.3811 24.1595L40.5811 24.4795L40.1811 25.1195C39.9144 25.7061 39.5944 26.3195 39.2211 26.9595C38.9011 27.5995 38.6878 28.0528 38.5811 28.3195C38.5278 28.5861 38.3944 29.0128 38.1811 29.5995C37.9678 30.1328 37.7278 30.7195 37.4611 31.3595C37.0344 32.3728 36.6344 33.3061 36.2611 34.1595C35.9411 34.9595 35.7811 35.4928 35.7811 35.7595L35.8611 35.8395C35.8611 35.9461 35.7544 35.9995 35.5411 35.9995C35.3811 35.9995 35.3011 36.0528 35.3011 36.1595V36.2395L34.8211 37.5995C34.5011 38.2395 34.3411 38.6128 34.3411 38.7195C34.5011 38.7195 35.3278 37.6528 36.8211 35.5195C37.2478 34.9861 37.6478 34.4261 38.0211 33.8395C38.1811 33.6795 38.3144 33.4928 38.4211 33.2795C40.2344 30.8261 42.1278 28.6395 44.1011 26.7195C46.2878 24.5328 47.7011 23.0128 48.3411 22.1595C49.5678 20.3461 50.6078 19.4395 51.4611 19.4395C51.9944 19.4395 52.2611 19.8661 52.2611 20.7195L52.3411 21.1995C52.3944 21.6261 52.7678 21.8395 53.4611 21.8395L53.7011 21.7595C54.1278 21.7595 54.6078 22.0528 55.1411 22.6395C55.6744 23.1728 55.9411 23.6528 55.9411 24.0795C55.9411 25.4661 55.2211 28.9061 53.7811 34.3995C53.5678 35.0928 53.0611 37.1461 52.2611 40.5595C51.7811 42.6928 51.5144 44.5595 51.4611 46.1595C51.4611 47.2795 51.5944 47.8395 51.8611 47.8395C52.0211 47.8395 52.2078 47.7861 52.4211 47.6795C52.6344 47.5728 52.8478 47.4928 53.0611 47.4395C53.5944 47.3328 53.9411 47.1195 54.1011 46.7995C54.1011 46.7461 54.2078 46.6661 54.4211 46.5595C55.1678 46.3461 55.9144 46.0795 56.6611 45.7595C56.9811 45.5995 57.2211 45.5195 57.3811 45.5195C57.5411 45.5728 57.7544 45.7328 58.0211 45.9995C58.2878 46.2661 58.5278 46.4528 58.7411 46.5595C58.9544 46.6128 59.1411 46.6395 59.3011 46.6395C59.5144 46.6395 59.6744 46.6661 59.7811 46.7195C59.6211 46.9861 59.3278 47.2795 58.9011 47.5995C59.2744 47.5995 59.4611 47.7061 59.4611 47.9195C59.4611 48.0261 59.3811 48.1328 59.2211 48.2395C58.7411 48.5061 58.3144 48.7728 57.9411 49.0395C56.9811 49.6795 56.1011 50.1595 55.3011 50.4795C54.5011 50.7995 53.5411 50.9595 52.4211 50.9595C51.0878 50.9595 49.8611 50.6661 48.7411 50.0795C47.6211 49.4395 46.8744 48.7195 46.5011 47.9195C46.1278 47.1195 45.9411 45.9995 45.9411 44.5595C45.9411 41.9995 46.4744 38.3728 47.5411 33.6795C47.5944 33.4128 47.6744 32.9861 47.7811 32.3995C47.9411 31.8128 48.0744 31.2261 48.1811 30.6395C48.3411 30.0528 48.4211 29.6795 48.4211 29.5195C47.9411 29.5195 46.0211 31.8128 42.6611 36.3995C39.5678 40.6661 37.5678 43.5461 36.6611 45.0395C31.4878 52.8795 28.5011 57.2528 27.7011 58.1595C27.1678 58.7461 26.7944 59.0395 26.5811 59.0395C26.4211 59.0395 26.2878 58.9861 26.1811 58.8795C26.0744 58.8261 25.9411 58.7995 25.7811 58.7995C25.5678 58.7995 25.3278 58.8528 25.0611 58.9595C24.7411 59.0661 24.5011 59.1461 24.3411 59.1995L24.1011 59.2795ZM54.3411 46.0795H54.1811L54.9811 45.5195V45.6795C54.9811 45.7328 54.8744 45.8128 54.6611 45.9195L54.3411 46.0795Z" fill="#999999"/>
<path d="M3.99828 64.2402C3.78495 64.2402 3.67828 64.1602 3.67828 64.0002C3.67828 63.8935 3.73161 63.7602 3.83828 63.6002C3.94495 63.4402 4.10495 63.3068 4.31828 63.2002C4.47828 63.1468 4.55828 63.0935 4.55828 63.0402C4.55828 62.9868 4.29161 62.9602 3.75828 62.9602L3.35828 63.0402C3.14495 63.0402 2.87828 62.9602 2.55828 62.8002C2.23828 62.6935 1.46495 62.1068 0.238281 61.0402L1.19828 60.1602C2.21161 59.2002 4.39828 58.0535 7.75828 56.7202C8.93162 56.2935 9.57162 56.0002 9.67828 55.8402C9.78495 55.6268 9.83828 55.3868 9.83828 55.1202C9.83828 53.7868 10.6649 50.3468 12.3183 44.8002C16.0516 32.0535 19.9449 21.6802 23.9983 13.6802C25.3316 10.9602 25.9983 9.44016 25.9983 9.12016C25.9983 9.06682 25.9716 9.04016 25.9183 9.04016L25.7583 9.12016C25.5983 9.22682 25.3583 9.30682 25.0383 9.36016C24.7716 9.41349 24.5316 9.46682 24.3183 9.52015C23.8383 9.62682 23.5983 9.76015 23.5983 9.92016V10.0002C23.5983 10.1068 23.3316 10.2135 22.7983 10.3202C21.9983 10.4802 21.0383 10.5602 19.9183 10.5602C19.8116 10.5602 19.7316 10.5335 19.6783 10.4802V10.4002L19.9983 9.84016C20.2649 9.62682 20.3983 9.46682 20.3983 9.36016C20.3983 9.30682 20.1849 9.28015 19.7583 9.28015C19.3316 9.28015 18.9583 9.01349 18.6383 8.48015C18.2116 8.05349 17.8916 7.57349 17.6783 7.04015C17.5716 6.88016 17.5183 6.69349 17.5183 6.48016C17.5183 6.26682 18.1049 5.92016 19.2783 5.44016C19.8649 5.12016 20.5583 4.80016 21.3583 4.48015C23.4383 3.57349 26.905 2.66682 31.7583 1.76015C37.8916 0.693489 42.2383 0.160156 44.7983 0.160156C45.705 0.160156 46.345 0.213489 46.7183 0.320154L47.2783 0.560156C47.2783 0.613489 47.1183 0.640155 46.7983 0.640155H44.6383L43.0383 0.720154C42.345 0.773486 41.9983 0.826821 41.9983 0.880157C41.9983 0.933489 42.505 0.986822 43.5183 1.04015C44.585 1.09349 45.4116 1.25349 45.9983 1.52015C46.585 1.73349 47.0916 2.10682 47.5183 2.64015C48.1049 3.22682 48.4783 3.57349 48.6383 3.68015C49.1183 4.16015 49.3583 4.45349 49.3583 4.56016C49.3583 4.66682 48.9849 4.80016 48.2383 4.96016C47.4916 5.06682 46.5316 5.17349 45.3583 5.28016C44.1849 5.38682 42.6383 5.57349 40.7183 5.84015C36.2383 6.58682 33.2516 7.14682 31.7583 7.52016C31.4383 7.62682 31.2783 7.78682 31.2783 8.00016C31.2783 8.16016 31.3849 8.24016 31.5983 8.24016C31.8649 8.24016 32.1316 8.40016 32.3983 8.72015C32.6649 9.04015 32.905 9.38682 33.1183 9.76016C33.3849 10.1335 33.5183 10.4268 33.5183 10.6402C33.5183 10.8002 33.2516 11.5202 32.7183 12.8002C31.4916 15.9468 30.2383 18.8802 28.9583 21.6002L28.2383 23.1202C27.3316 25.1468 26.7183 26.6135 26.3983 27.5202C26.0783 28.4268 25.8116 28.8802 25.5983 28.8802H25.5183L25.5983 29.2002C25.5983 29.2535 25.5716 29.3602 25.5183 29.5202C25.4649 29.6802 25.3849 29.8668 25.2783 30.0802C25.1716 30.2402 25.0649 30.4002 24.9583 30.5602C24.9049 30.6668 24.8783 30.7468 24.8783 30.8002C24.9316 30.8002 24.9583 30.8268 24.9583 30.8802C24.9583 31.0935 24.7716 31.4935 24.3983 32.0802C24.1849 32.3468 24.0249 32.6135 23.9183 32.8802V33.2002C23.9716 33.2002 23.9983 33.2268 23.9983 33.2802L23.5983 34.0002C22.8516 35.4935 21.9716 37.7602 20.9583 40.8002L20.4783 41.7602C20.3183 42.1335 19.9716 43.1468 19.4383 44.8002L16.7983 53.2802L16.7183 54.0002C16.7716 54.0535 16.8516 54.0802 16.9583 54.0802C17.0649 54.0802 17.2249 54.0535 17.4383 54.0002C17.6516 53.8935 18.0783 53.8135 18.7183 53.7602C19.8383 53.6002 20.5316 53.5202 20.7983 53.5202C20.9583 53.5202 21.0383 53.5468 21.0383 53.6002C21.0383 53.6535 20.5316 53.7868 19.5183 54.0002C19.3583 54.0002 19.2249 54.0268 19.1183 54.0802C17.1983 54.5602 16.2383 54.8802 16.2383 55.0402L17.2783 54.9602C17.8649 54.8535 19.3316 54.7468 21.6783 54.6402C22.5849 54.5335 23.2783 54.4802 23.7583 54.4802C24.6649 54.4802 25.2249 54.6402 25.4383 54.9602C25.6516 55.2802 26.0516 55.4402 26.6383 55.4402C27.2783 55.4402 27.7316 55.6535 27.9983 56.0802L28.1583 56.6402C28.1049 56.6935 27.8116 56.7202 27.2783 56.7202C26.7983 56.7202 25.6516 56.9335 23.8383 57.3602C19.0383 58.5868 16.2649 59.4668 15.5183 60.0002C15.2516 60.2668 14.9049 60.4002 14.4783 60.4002C14.1049 60.4002 13.8383 60.5068 13.6783 60.7202C13.5716 60.9335 13.4649 61.0668 13.3583 61.1202H12.9583C12.4783 61.1202 9.83828 62.0802 5.03828 64.0002C4.61161 64.1602 4.26495 64.2402 3.99828 64.2402Z" fill="#999999"/>
</svg>
