<svg width="338" height="60" viewBox="0 0 338 60" fill="none" xmlns="http://www.w3.org/2000/svg">
<path d="M276.268 0.480469H337.228L335.068 14.0005H292.028L290.668 22.8005H332.748L330.588 36.4005H288.508L286.908 46.1605H330.668L328.508 60.0005H266.828L276.268 0.480469Z" fill="#F8F8F8"/>
<path d="M165.438 60.0005L174.878 0.480469H210.798C241.598 0.480469 249.997 13.0405 249.997 26.0005C249.997 28.6405 249.757 31.1205 249.357 33.4405C247.358 44.9605 238.878 60.0805 206.238 60.0005H165.438ZM190.717 14.5605L185.757 45.6805H204.717C225.037 45.6805 229.198 37.5205 230.398 31.3605C230.638 30.1605 230.798 28.8005 230.798 27.7605C230.798 21.6805 227.518 14.5605 209.678 14.5605H190.717Z" fill="#F8F8F8"/>
<path d="M150.475 0.480469L141.035 60.0005H122.875L132.315 0.480469H150.475Z" fill="#F8F8F8"/>
<path d="M36.2386 60.0005H16.0786L0.558594 0.480469H19.7586L29.5986 41.4405L47.9186 0.480469H67.1986L75.1986 40.2405L95.1986 0.480469H113.519L81.7586 60.0005H63.3586L54.7186 20.0805L36.2386 60.0005Z" fill="#F8F8F8"/>
</svg>
