<svg width="550" height="67" viewBox="0 0 550 67" fill="none" xmlns="http://www.w3.org/2000/svg">
<path fill-rule="evenodd" clip-rule="evenodd" d="M470.678 39.8795H493.186C487.713 38.9189 483.603 37.2176 480.625 34.8971C475.998 31.2918 474.384 26.4203 474.384 21.3995C474.384 20.1626 474.475 19.1853 474.644 17.9966L474.646 17.9885C475.315 13.4363 477.386 8.88541 482.964 5.57898C488.384 2.36671 496.934 0.439453 510.304 0.439453H515.424C529.331 0.439453 538.077 2.88827 543.203 6.98738C548.497 11.2198 549.585 16.9074 548.93 22.2816L548.715 24.0395H527.526C532.842 24.7606 537.03 26.0334 540.183 27.9505C542.739 29.5041 544.624 31.4854 545.851 33.9114C547.07 36.3206 547.584 39.0538 547.584 42.0395C547.584 43.5821 547.416 45.5568 547.145 46.9117L547.144 46.9187C546.204 51.5311 544.288 56.5029 538.513 60.2034C532.883 63.8113 523.841 66.0395 509.104 66.0395H503.904C488.594 66.0395 479.82 62.5774 475.057 57.5091C470.26 52.4045 469.969 46.1423 470.477 41.6545L470.678 39.8795ZM526.4 23.8969L526.234 22.2385C526.129 21.1914 525.993 20.1417 524.634 19.1616C523.076 18.038 519.663 16.8395 512.224 16.8395H511.104C503.689 16.8395 500.166 17.5948 498.539 18.4083C497.794 18.7804 497.576 19.1024 497.494 19.2612C497.396 19.4528 497.344 19.7063 497.344 20.1995C497.344 20.6005 497.397 20.839 497.483 21.0154C497.558 21.1673 497.732 21.426 498.253 21.7269C499.414 22.3965 501.952 23.0805 507.294 23.1597L507.298 23.1597L516.895 23.3197C516.895 23.3197 516.896 23.3197 516.896 23.3197C520.382 23.3726 523.545 23.5606 526.4 23.8969ZM493.222 39.8857L493.264 41.8369C493.3 43.5443 493.568 45.1801 495.081 46.5043C496.694 47.9157 500.114 49.3195 507.424 49.3195H508.384C516.646 49.3195 520.62 48.2874 522.489 47.1861C523.36 46.6736 523.715 46.1797 523.89 45.797C524.081 45.3798 524.144 44.9043 524.144 44.2795C524.144 43.6438 524.053 43.3229 523.942 43.1246C523.848 42.9562 523.632 42.6807 522.97 42.3726C521.499 41.6874 518.547 41.1594 512.733 40.9988C512.731 40.9988 512.73 40.9987 512.729 40.9987L502.818 40.7589C502.818 40.7589 502.818 40.7589 502.818 40.7589C499.236 40.6759 496.047 40.3793 493.222 39.8857ZM502.864 38.7595L512.784 38.9995C524.384 39.3195 526.144 41.0795 526.144 44.2795C526.144 47.2395 525.024 51.3195 508.384 51.3195H507.424C492.464 51.3195 491.344 45.6395 491.264 41.8795H472.464C471.504 50.3595 473.744 64.0395 503.904 64.0395H509.104C538.304 64.0395 543.424 55.1595 545.184 46.5195C545.424 45.3195 545.584 43.4795 545.584 42.0395C545.584 30.9995 537.984 25.6395 516.864 25.3195L507.264 25.1595C496.464 24.9995 495.344 22.4395 495.344 20.1995C495.344 17.7995 496.224 14.8395 511.104 14.8395H512.224C527.344 14.8395 527.984 19.6395 528.224 22.0395H546.944C548.144 12.1995 542.944 2.43945 515.424 2.43945H510.304C483.824 2.43945 477.824 10.1195 476.624 18.2795C476.464 19.3995 476.384 20.2795 476.384 21.3995C476.384 30.5195 482.144 38.2795 502.864 38.7595Z" fill="#F8F8F8"/>
<path fill-rule="evenodd" clip-rule="evenodd" d="M395.047 1.47852H460.06L457.261 18.9985H414.23L413.488 23.7985H455.578L452.782 41.3985H410.694L409.749 47.1585H453.491L450.707 64.9985H384.973L395.047 1.47852ZM407.395 49.1585L408.995 39.3985H451.075L453.235 25.7985H411.155L412.515 16.9985H455.555L457.715 3.47852H396.755L387.315 62.9985H448.995L451.155 49.1585H407.395Z" fill="#F8F8F8"/>
<path fill-rule="evenodd" clip-rule="evenodd" d="M315.063 1.47852H337.274L330.154 46.1985H369.988L367.041 64.9985H304.988L315.063 1.47852ZM327.81 48.1985L334.93 3.47852H316.77L307.33 62.9985H365.33L367.65 48.1985H327.81Z" fill="#F8F8F8"/>
<path fill-rule="evenodd" clip-rule="evenodd" d="M272.626 60.9995C272.601 59.489 272.507 57.6764 272.318 56.0588C272.21 55.1301 272.07 54.2656 271.893 53.5595C271.472 54.0578 270.913 54.6642 270.204 55.3316C266.471 58.8427 258.557 64.0395 244.373 64.0395H242.773C214.453 64.0395 206.613 48.5995 206.613 36.5195C206.613 34.5995 206.693 32.9195 207.013 30.7595C208.693 19.1595 216.133 2.43945 249.413 2.43945H251.893C284.373 2.43945 289.253 16.9995 288.773 25.0795H269.573C269.333 23.6395 268.133 16.5995 250.213 16.5995C232.693 16.5995 227.093 24.3595 226.053 31.9595C225.893 33.1595 225.813 33.9595 225.813 35.0795C225.813 42.8395 231.253 49.5595 245.893 49.5595C258.663 49.5595 265.296 45.6588 267.884 42.9195C268.652 42.1063 269.063 41.3955 269.173 40.9195H246.293L248.053 29.6395H288.773L283.493 62.9995H272.613C272.633 62.4537 272.638 61.7654 272.626 60.9995ZM264.829 42.9195H243.957L246.341 27.6395H291.115L285.202 64.9995H270.541L270.615 62.9281C270.659 61.6704 270.623 59.6718 270.474 57.7666C266.087 61.464 257.915 66.0395 244.373 66.0395H242.773C228.253 66.0395 218.651 62.0746 212.676 56.2405C206.711 50.4161 204.613 42.9752 204.613 36.5195C204.613 34.5272 204.697 32.746 205.035 30.4664C205.914 24.3993 208.328 16.8156 215.022 10.7656C221.727 4.7065 232.444 0.439453 249.413 0.439453H251.893C268.389 0.439453 278.293 4.1316 284.024 9.23606C289.8 14.3819 291.037 20.694 290.77 25.1981L290.658 27.0795H267.879L267.595 25.3766C267.51 24.8612 267.263 23.3637 265.318 21.8957C263.236 20.3238 258.956 18.5995 250.213 18.5995C241.728 18.5995 236.435 20.48 233.18 23.0088C229.958 25.5124 228.5 28.8315 228.035 32.2291C227.881 33.3831 227.813 34.0853 227.813 35.0795C227.813 38.4666 228.982 41.4816 231.641 43.691C234.349 45.94 238.849 47.5595 245.893 47.5595C253.911 47.5595 259.287 45.9719 262.648 44.2413C263.503 43.8007 264.226 43.352 264.829 42.9195Z" fill="#F8F8F8"/>
<path fill-rule="evenodd" clip-rule="evenodd" d="M113.453 1.47852H136.366L164.531 36.9076L170.09 1.47852H192.063L181.989 64.9985H161.486L131.237 27.5965L125.351 64.9985H103.379L113.453 1.47852ZM129.961 22.8385L162.441 62.9985H180.281L189.721 3.47852H171.801L165.801 41.7185L135.401 3.47852H115.161L105.721 62.9985H123.641L129.961 22.8385Z" fill="#F8F8F8"/>
<path fill-rule="evenodd" clip-rule="evenodd" d="M67.2054 64.9985L63.2054 54.1185H30.4364L23.7164 64.9985H0.171875L40.2988 1.47852H66.22L90.3815 64.9985H67.2054ZM29.321 52.1185H64.601L68.601 62.9985H87.481L64.841 3.47852H41.401L3.80096 62.9985H22.601L29.321 52.1185ZM51.481 16.3585L37.641 38.6785H59.641L51.481 16.3585ZM51.0142 20.9065L41.2344 36.6785H56.7803L51.0142 20.9065Z" fill="#F8F8F8"/>
</svg>
