<svg width="120" height="80" viewBox="0 0 120 80" fill="none" xmlns="http://www.w3.org/2000/svg">
<path d="M112.933 41.6396C113.146 41.4263 113.359 40.7863 113.573 39.7196C113.839 38.6529 113.973 37.7463 113.973 36.9996C113.973 36.3063 113.839 35.9596 113.573 35.9596C113.306 35.9596 113.173 36.4129 113.173 37.3196V37.7996C113.173 38.2796 113.146 38.8129 113.093 39.3996C113.039 39.9863 112.986 40.4396 112.933 40.7596C112.879 41.0796 112.853 41.3196 112.853 41.4796C112.853 41.5863 112.879 41.6396 112.933 41.6396ZM111.573 61.4796C111.626 61.4263 111.653 61.3463 111.653 61.2396C111.653 61.1329 111.626 60.9996 111.573 60.8396L111.493 60.6796C111.439 60.7863 111.413 60.9729 111.413 61.2396C111.413 61.3996 111.439 61.4796 111.493 61.4796H111.573ZM111.253 62.7596L111.333 62.4396L111.173 61.9596C111.119 61.9596 111.093 62.0929 111.093 62.3596C111.093 62.6263 111.119 62.7596 111.173 62.7596H111.253ZM110.853 64.2796C110.959 64.2796 111.013 64.1463 111.013 63.8796C111.013 63.5063 110.959 63.3196 110.853 63.3196C110.799 63.3196 110.773 63.4796 110.773 63.7996C110.773 64.1196 110.799 64.2796 110.853 64.2796ZM92.2928 64.7596C92.4528 64.7596 92.9861 64.4129 93.8928 63.7196C94.8528 62.9729 95.9728 61.9863 97.2528 60.7596C100.399 57.6129 103.759 53.7196 107.333 49.0796C107.439 48.9729 107.546 48.8129 107.653 48.5996L108.773 47.2396C110.639 44.8929 111.573 43.4263 111.573 42.8396C111.573 42.5729 111.413 42.4396 111.093 42.4396H110.933C110.666 42.4396 110.533 42.1996 110.533 41.7196C110.533 41.3996 110.613 40.9196 110.773 40.2796L110.853 39.6396C110.853 39.1596 110.799 38.9196 110.693 38.9196C110.479 38.7063 110.373 38.4129 110.373 38.0396C110.373 37.8796 110.319 37.7996 110.213 37.7996C109.999 37.8529 109.306 38.4663 108.133 39.6396C102.533 45.3996 97.7861 52.4129 93.8928 60.6796C92.7728 63.0263 92.2128 64.3596 92.2128 64.6796C92.2128 64.7329 92.2395 64.7596 92.2928 64.7596ZM91.3328 69.9596C91.4928 69.9596 91.7328 69.9329 92.0528 69.8796C92.3728 69.8796 92.6661 69.8263 92.9328 69.7196C93.1995 69.6129 93.3328 69.5329 93.3328 69.4796C93.3328 69.4263 93.0928 69.3729 92.6128 69.3196H92.5328C92.1595 69.3196 91.8395 69.3729 91.5728 69.4796C91.2528 69.5863 91.0928 69.6929 91.0928 69.7996C91.0928 69.8529 91.1728 69.9063 91.3328 69.9596ZM111.253 34.5996C111.306 34.5996 111.333 34.4929 111.333 34.2796C111.333 33.4796 110.906 33.0796 110.053 33.0796C109.359 33.0796 108.559 33.3463 107.653 33.8796C107.119 34.1996 106.853 34.3863 106.853 34.4396C106.906 34.4396 106.986 34.4129 107.093 34.3596C107.253 34.3063 107.599 34.2529 108.133 34.1996L109.013 34.0396C110.079 34.0396 110.693 34.1463 110.853 34.3596C111.066 34.5196 111.199 34.5996 111.253 34.5996ZM109.573 71.1596L107.013 69.7996C107.066 68.9463 107.093 68.1196 107.093 67.3196C107.093 66.5729 107.199 65.5596 107.413 64.2796C107.626 62.9463 107.866 61.6663 108.133 60.4396C108.399 59.1596 108.613 58.1463 108.773 57.3996C108.933 56.5996 109.013 56.1196 109.013 55.9596V55.8796C108.906 55.8796 108.213 56.6263 106.933 58.1196C103.946 61.8529 101.173 64.7063 98.6128 66.6796C97.8661 67.2129 97.0395 67.7463 96.1328 68.2796C93.8928 69.6129 92.5061 70.2796 91.9728 70.2796C91.8661 70.2796 91.5195 70.1729 90.9328 69.9596C90.3461 69.7463 89.7328 69.4529 89.0928 69.0796C87.7061 68.3863 86.8261 67.7196 86.4528 67.0796C86.2395 66.7596 86.1328 66.3329 86.1328 65.7996C86.1328 65.3729 86.2128 64.8663 86.3728 64.2796C87.2261 60.7063 89.1995 56.3329 92.2928 51.1596C95.3861 45.9863 98.7195 41.5063 102.293 37.7196C105.599 34.3063 108.133 32.5996 109.893 32.5996C110.586 32.5996 111.066 32.9196 111.333 33.5596C111.653 34.1463 111.919 34.4396 112.133 34.4396H112.373C112.639 34.4396 113.039 34.5729 113.573 34.8396C114.159 35.0529 114.639 35.3996 115.013 35.8796C115.386 36.3063 115.573 36.7329 115.573 37.1596C115.573 37.5329 115.439 38.5729 115.173 40.2796L115.013 41.0796C115.013 41.2929 115.146 41.5596 115.413 41.8796C115.733 42.1463 116.106 42.2796 116.533 42.2796C116.746 42.2796 116.906 42.2263 117.013 42.1196C117.173 41.9596 117.333 41.8796 117.493 41.8796C117.599 41.8796 117.919 42.0129 118.453 42.2796C119.039 42.7596 119.333 43.0796 119.333 43.2396C119.333 43.8796 118.559 46.3863 117.013 50.7596C115.679 54.4929 114.479 58.5463 113.413 62.9196C112.506 66.4396 112.053 68.8129 112.053 70.0396C112.053 70.5729 111.946 70.8396 111.733 70.8396L111.093 70.6796H110.613C110.506 70.6796 110.453 70.1196 110.453 68.9996V67.6396L110.613 65.3996C110.613 65.1863 110.586 65.0796 110.533 65.0796C110.426 65.0796 110.106 67.1063 109.573 71.1596Z" fill="#E0FF05"/>
<path d="M77.5873 33.3992C77.7473 33.3992 77.8273 33.1326 77.8273 32.5992L77.7473 32.5192L77.5873 32.6792C77.4807 32.7326 77.4273 32.8392 77.4273 32.9992C77.4273 33.0526 77.4273 33.1326 77.4273 33.2392C77.4807 33.3459 77.534 33.3992 77.5873 33.3992ZM89.2673 38.1192L88.7873 37.0792C88.4673 36.4392 88.2007 36.1192 87.9873 36.1192C87.8807 36.1192 87.7473 36.1459 87.5873 36.1992C87.4273 36.2526 87.294 36.2792 87.1873 36.2792H87.1073C87.1073 36.4392 87.4007 36.7859 87.9873 37.3192C88.574 37.8526 89.0007 38.1192 89.2673 38.1192ZM92.6273 42.6792L92.7073 42.5992L91.9873 41.5592H91.9073C91.9073 41.6659 91.9873 41.8792 92.1473 42.1992C92.3607 42.5192 92.494 42.6792 92.5473 42.6792H92.6273ZM96.8673 43.4792C97.454 43.4792 97.9873 43.4526 98.4673 43.3992C98.9473 43.2926 99.2673 43.2126 99.4273 43.1592L99.5873 43.0792C99.5873 42.9726 98.9207 42.9192 97.5873 42.9192C96.254 42.9192 95.3473 42.8392 94.8673 42.6792L94.4673 42.5992C94.4673 43.1859 95.2673 43.4792 96.8673 43.4792ZM98.4673 46.6792C98.254 46.5726 98.014 46.4926 97.7473 46.4392C97.534 46.3326 97.294 46.2526 97.0273 46.1992C96.7607 46.0926 96.334 46.0392 95.7473 46.0392C96.334 46.3592 96.7607 46.5459 97.0273 46.5992C97.3473 46.6526 97.8273 46.6792 98.4673 46.6792ZM77.0273 48.6792L77.2673 48.5192C77.374 48.4126 77.4807 48.2526 77.5873 48.0392C77.7473 47.8259 77.8273 47.6659 77.8273 47.5592C77.8273 47.4526 77.774 47.3992 77.6673 47.3992C77.614 47.3992 77.4807 47.4792 77.2673 47.6392C77.1073 47.7992 77.0273 48.1192 77.0273 48.5992V48.6792ZM70.1473 69.7992C70.094 69.7992 69.9873 69.7192 69.8273 69.5592C69.4007 69.3459 68.974 69.0259 68.5473 68.5992C68.3873 68.4926 68.2807 68.4392 68.2273 68.4392C68.1207 68.4392 67.614 68.1459 66.7073 67.5592C65.7473 67.0259 65.1873 66.5459 65.0273 66.1192C65.0273 64.3592 65.4807 61.7459 66.3873 58.2792C67.294 54.8126 68.5207 50.9459 70.0673 46.6792C72.574 39.5326 74.6273 35.1059 76.2273 33.3992C76.9207 32.5992 77.454 32.1992 77.8273 32.1992C78.0407 32.1992 78.1473 32.3592 78.1473 32.6792C78.1473 33.2126 78.254 33.6392 78.4673 33.9592C78.734 34.4926 79.0807 34.7592 79.5073 34.7592C79.614 34.7592 79.7207 34.7326 79.8273 34.6792C79.934 34.5726 80.0673 34.5192 80.2273 34.5192C80.3873 34.5192 81.0007 34.9459 82.0673 35.7992L81.6673 37.3192C81.4007 38.1192 81.1873 38.5192 81.0273 38.5192C80.8673 38.5192 80.6273 38.8659 80.3073 39.5592C79.6673 40.9992 79.054 42.7059 78.4673 44.6792L78.2273 46.0392H78.3073C78.6807 46.0392 79.774 44.7592 81.5873 42.1992C84.7873 37.7192 86.9207 35.4792 87.9873 35.4792C88.414 35.6392 88.7873 36.0392 89.1073 36.6792C89.374 37.1059 89.9873 37.6659 90.9473 38.3592C91.694 38.7859 92.414 39.4792 93.1073 40.4392C93.4273 41.0259 93.7473 41.4259 94.0673 41.6392C94.814 42.1192 95.854 42.3592 97.1873 42.3592C99.0007 42.3592 100.467 42.1992 101.587 41.8792C101.587 41.9326 101.401 42.0926 101.027 42.3592C100.654 42.5726 100.467 42.7326 100.467 42.8392C100.467 43.0526 100.734 43.1592 101.267 43.1592C101.854 43.1592 102.334 43.3459 102.707 43.7192C102.921 44.0926 103.214 44.2792 103.587 44.2792C103.641 44.2259 103.721 44.1992 103.827 44.1992C103.934 44.1992 104.067 44.2526 104.227 44.3592C104.441 44.4659 104.627 44.6526 104.787 44.9192C105.001 45.1326 105.134 45.3192 105.187 45.4792C105.187 45.6392 105.027 45.7992 104.707 45.9592C103.907 46.4392 102.974 46.7326 101.907 46.8392C101.054 46.8392 100.627 46.9192 100.627 47.0792C100.627 47.2392 100.227 47.3192 99.4273 47.3192C98.4673 47.3192 97.6673 47.2926 97.0273 47.2392C96.4407 47.1326 96.014 47.0259 95.7473 46.9192C95.4807 46.7592 95.0273 46.4392 94.3873 45.9592C93.7473 45.4259 93.0807 44.8392 92.3873 44.1992C91.694 43.5059 91.1073 42.9992 90.6273 42.6792C90.2007 42.3592 89.9073 42.1992 89.7473 42.1992C89.2673 42.1992 87.1073 45.1059 83.2673 50.9192C80.174 55.6126 76.9473 60.7059 73.5873 66.1992C73.054 67.1059 72.414 67.9326 71.6673 68.6792C70.9207 69.4259 70.414 69.7992 70.1473 69.7992Z" fill="#E0FF05"/>
<path d="M57.1553 74.8386C57.102 74.8386 56.9153 74.7319 56.5953 74.5186C56.3286 74.3053 55.982 73.9853 55.5553 73.5586C55.1286 73.1319 54.702 72.7319 54.2753 72.3586C53.8486 72.0386 53.5286 71.7719 53.3153 71.5586C52.462 71.0253 52.0353 69.7453 52.0353 67.7186C52.0353 65.5319 52.542 62.4919 53.5553 58.5986C55.4753 50.8119 59.6086 41.1319 65.9553 29.5586C64.9953 29.5586 64.3286 29.5853 63.9553 29.6386C61.9286 29.7453 60.7553 29.7986 60.4353 29.7986C60.1686 29.7986 60.0353 29.8519 60.0353 29.9586V30.0386C60.0353 30.0919 59.9286 30.1186 59.7153 30.1186C58.222 30.1186 57.0753 30.1453 56.2753 30.1986C52.702 30.6786 49.8753 30.9186 47.7953 30.9186C46.302 30.9186 45.502 30.8119 45.3953 30.5986C45.3953 30.3319 45.6086 30.0919 46.0353 29.8786C46.4086 29.8253 46.5953 29.7719 46.5953 29.7186C46.5953 29.6653 46.3553 29.6119 45.8753 29.5586C45.3953 29.5053 44.9686 29.0519 44.5953 28.1986C44.382 27.8253 44.2486 27.5319 44.1953 27.3186C44.1953 27.1053 44.222 26.9719 44.2753 26.9186C44.4353 26.5453 46.1953 26.0919 49.5553 25.5586C52.1153 25.1319 54.6486 24.7853 57.1553 24.5186C60.8886 24.1986 64.8886 23.9586 69.1553 23.7986C70.702 21.1853 72.062 18.9986 73.2353 17.2386C74.462 15.4253 75.182 14.5186 75.3953 14.5186C75.662 14.5186 75.8486 14.3586 75.9553 14.0386C76.1153 13.7186 76.302 13.5586 76.5153 13.5586C76.622 13.6119 76.6753 13.8786 76.6753 14.3586C76.622 14.4653 76.5953 14.5986 76.5953 14.7586C76.5953 15.0253 76.6753 15.3186 76.8353 15.6386C76.9953 15.9586 77.182 16.1986 77.3953 16.3586C77.662 16.5186 77.8486 16.5986 77.9553 16.5986C78.1153 16.5986 78.2486 16.5453 78.3553 16.4386C78.5153 16.3319 78.6486 16.2786 78.7553 16.2786C78.9153 16.2786 79.0753 16.3586 79.2353 16.5186C79.4486 16.6786 79.6086 16.9186 79.7153 17.2386C79.822 17.5586 79.8753 17.8786 79.8753 18.1986C79.8753 18.7319 79.102 20.5719 77.5553 23.7186C81.5553 23.7186 85.4487 23.8253 89.2353 24.0386C97.6086 24.5719 101.795 25.1586 101.795 25.7986C101.795 25.9053 101.635 26.0653 101.315 26.2786C101.049 26.4386 100.915 26.6786 100.915 26.9986C100.915 27.4253 101.182 27.7453 101.715 27.9586C102.515 28.3319 102.915 28.9719 102.915 29.8786L98.9153 29.7986C94.0086 29.5319 90.2753 29.3986 87.7153 29.3986L78.7553 29.3186L74.7553 29.3986C74.702 29.4519 74.6753 29.5319 74.6753 29.6386C74.6753 29.6919 74.6486 29.7453 74.5953 29.7986L70.9953 37.0786L69.5553 40.3586C69.5553 40.4119 69.5286 40.4386 69.4753 40.4386C69.4753 40.4386 69.422 40.4653 69.3153 40.5186C69.2086 40.5186 69.1553 40.5453 69.1553 40.5986L69.2353 40.9986C69.182 41.1053 69.0753 41.1586 68.9153 41.1586C68.7553 41.1586 68.6753 41.2386 68.6753 41.3986C68.6753 41.5586 68.6486 41.7719 68.5953 42.0386C68.4353 42.7319 68.222 43.0786 67.9553 43.0786C67.902 43.0786 67.8753 43.1053 67.8753 43.1586C67.8753 43.2119 67.8753 43.2653 67.8753 43.3186L67.9553 43.5586L67.8753 43.6386C67.822 43.6919 67.742 43.7186 67.6353 43.7186C67.5286 43.7186 67.4753 43.7719 67.4753 43.8786V44.0386C67.4753 44.3586 67.2886 44.8386 66.9153 45.4786C66.4353 46.3853 66.062 47.2653 65.7953 48.1186C65.5286 48.9186 65.2886 49.3186 65.0753 49.3186C64.9153 49.3186 64.8353 49.3719 64.8353 49.4786C64.8353 49.5853 64.8086 49.7986 64.7553 50.1186C64.4353 51.0253 64.2486 51.4786 64.1953 51.4786C64.142 51.4786 64.0886 51.5053 64.0353 51.5586C63.982 51.6119 63.9286 51.6653 63.8753 51.7186C63.8753 51.7719 63.8753 51.8253 63.8753 51.8786C63.8753 52.3053 63.502 53.2653 62.7553 54.7586C62.5953 55.2386 62.302 55.9053 61.8753 56.7586L61.7153 57.3986C61.7686 57.3986 61.7953 57.4253 61.7953 57.4786L61.7153 57.5586C61.662 57.6119 61.6353 57.6653 61.6353 57.7186C61.4753 57.9319 61.2353 58.5453 60.9153 59.5586C60.062 62.0119 59.3953 64.2519 58.9153 66.2786C58.8086 66.9186 58.7553 67.4253 58.7553 67.7986C58.7553 68.0653 58.8353 68.2519 58.9953 68.3586C59.1553 68.4653 59.2353 68.5453 59.2353 68.5986C59.2353 68.7053 59.0753 68.7586 58.7553 68.7586C58.4353 68.7586 58.2753 68.8119 58.2753 68.9186C58.2753 69.0253 58.5953 69.0786 59.2353 69.0786L59.7153 68.9986C60.0886 68.9986 60.2753 69.0786 60.2753 69.2386C60.2753 69.3986 60.302 69.5053 60.3553 69.5586L60.6753 69.4786C61.0486 69.4786 61.2353 70.0653 61.2353 71.2386C61.182 71.7719 61.0753 72.2253 60.9153 72.5986C60.7553 72.7586 60.4086 72.9986 59.8753 73.3186C59.3953 73.6919 58.862 74.0386 58.2753 74.3586C57.742 74.6786 57.3686 74.8386 57.1553 74.8386ZM56.9153 73.7986C57.0753 73.7986 57.262 73.7186 57.4753 73.5586C57.742 73.4519 57.8753 73.3719 57.8753 73.3186C57.8753 73.2653 57.7153 73.2386 57.3953 73.2386C56.9153 73.2386 56.6753 73.3453 56.6753 73.5586C56.6753 73.7186 56.7553 73.7986 56.9153 73.7986ZM100.915 26.1186C101.022 26.1186 101.075 26.0653 101.075 25.9586L100.995 25.7186H101.075C100.915 25.6119 100.622 25.5319 100.195 25.4786C99.8753 25.4786 99.7153 25.5053 99.7153 25.5586C99.7153 25.6119 99.822 25.7186 100.035 25.8786C100.302 26.0386 100.542 26.1186 100.755 26.1186H100.915Z" fill="#E0FF05"/>
<path d="M44.0717 79.0792C44.1784 79.0792 44.285 78.9726 44.3917 78.7592C44.5517 78.5992 44.6317 78.4126 44.6317 78.1992L44.5517 78.1192C44.4984 78.1192 44.4184 78.1459 44.3117 78.1992C44.2051 78.2526 44.0984 78.3326 43.9917 78.4392C43.8851 78.5992 43.8317 78.7592 43.8317 78.9192C43.8317 79.0259 43.9117 79.0792 44.0717 79.0792ZM44.2317 79.6392C43.7517 79.6392 43.0584 79.5059 42.1517 79.2392L39.6717 78.4392C39.0317 78.3326 38.5517 78.0659 38.2317 77.6392C37.9117 77.2659 37.6984 76.5726 37.5917 75.5592C37.5384 74.8659 37.5117 73.3459 37.5117 70.9992C37.5117 65.5592 38.4184 59.9592 40.2317 54.1992C42.0984 48.0126 44.9784 40.4392 48.8717 31.4792C52.8184 22.4659 56.4717 15.1326 59.8317 9.47922C61.3251 6.86589 62.1517 5.31922 62.3117 4.83922C62.5251 4.46589 62.8984 3.90589 63.4317 3.15922C64.9251 1.18589 65.8584 0.199219 66.2317 0.199219C66.3384 0.199219 66.4451 0.279219 66.5517 0.43922C66.8184 1.18589 67.0851 1.55922 67.3517 1.55922C67.6184 1.55922 67.8851 1.79922 68.1517 2.27922C68.4184 2.70588 68.6317 2.91922 68.7917 2.91922C68.9517 2.91922 69.1917 3.02588 69.5117 3.23922C69.8317 3.45255 70.4451 4.03922 71.3517 4.99922C70.4451 6.33255 69.5384 7.66588 68.6317 8.99922C67.7784 10.3326 66.8984 11.8259 65.9917 13.4792C63.6451 17.5326 62.4717 19.9059 62.4717 20.5992C62.4717 20.8126 62.4184 20.9459 62.3117 20.9992C62.2051 20.9992 62.0184 21.2392 61.7517 21.7192C61.7517 21.8792 61.7251 21.9859 61.6717 22.0392V22.4392C61.6717 22.5992 61.4851 22.9192 61.1117 23.3992C60.3117 24.6792 59.9117 25.6659 59.9117 26.3592H59.5917C59.4317 26.3592 59.3517 26.7326 59.3517 27.4792H59.4317V27.5592C59.3784 27.6126 59.3251 27.6392 59.2717 27.6392C58.7384 28.1192 58.3384 28.8126 58.0717 29.7192C57.9651 29.9859 57.9117 30.2526 57.9117 30.5192C57.9651 30.5192 57.9917 30.5459 57.9917 30.5992V30.6792C57.9384 30.7326 57.8317 30.7592 57.6717 30.7592C57.5651 30.7592 57.5117 30.8126 57.5117 30.9192L57.6717 31.2392C57.6184 31.2926 57.5384 31.3192 57.4317 31.3192C57.3251 31.3192 57.1917 31.4792 57.0317 31.7992C56.9251 32.0659 56.8451 32.3859 56.7917 32.7592C56.7384 33.0792 56.7117 33.3459 56.7117 33.5592C56.7651 33.5592 56.7917 33.5859 56.7917 33.6392L56.5517 33.5592C56.4451 33.5592 56.3384 33.6659 56.2317 33.8792C55.8584 34.3592 55.5651 34.9459 55.3517 35.6392V36.1992L55.4317 36.3592C55.4317 36.5192 55.3517 36.5992 55.1917 36.5992C55.0851 36.5992 55.0051 36.6259 54.9517 36.6792V36.8392C54.9517 37.0526 54.8984 37.1859 54.7917 37.2392C54.7384 37.2926 54.6584 37.3992 54.5517 37.5592C54.4984 37.7192 54.4451 37.9592 54.3917 38.2792C54.3917 38.5992 54.3117 38.7592 54.1517 38.7592C54.0451 38.7592 53.9917 38.7859 53.9917 38.8392C53.9917 38.8926 53.9917 38.9459 53.9917 38.9992L54.0717 39.3992C54.0717 39.5059 53.9917 39.5592 53.8317 39.5592C53.7251 39.5592 53.6717 39.6126 53.6717 39.7192C53.6717 39.7726 53.6717 39.8259 53.6717 39.8792L53.7517 40.1992C53.7517 40.4126 53.5917 40.5192 53.2717 40.5192L53.3517 40.7592C53.3517 40.9192 53.2184 41.1592 52.9517 41.4792C52.6851 41.7459 52.5517 42.3592 52.5517 43.3192C52.6051 43.3192 52.6317 43.3459 52.6317 43.3992L52.4717 43.4792C52.2051 43.7459 52.0451 43.9059 51.9917 43.9592C51.9917 44.0126 51.9384 44.2792 51.8317 44.7592C51.7251 45.1859 51.6184 45.3992 51.5117 45.3992C51.4051 45.3992 51.3517 45.4526 51.3517 45.5592L51.4317 45.8792C51.4317 45.9326 51.3784 45.9592 51.2717 45.9592C51.1117 46.1192 50.9784 46.4659 50.8717 46.9992C50.7651 47.4792 50.6584 47.7726 50.5517 47.8792C50.4451 47.9859 50.3651 48.1192 50.3117 48.2792C50.1517 48.7592 50.0717 49.1859 50.0717 49.5592C50.0184 49.7192 49.9651 49.8259 49.9117 49.8792C49.9117 49.9326 49.8584 50.0126 49.7517 50.1192C49.7517 50.4392 49.6984 50.6526 49.5917 50.7592V51.2392C49.5917 51.3992 49.5117 51.4792 49.3517 51.4792C49.1917 51.4792 49.1117 51.5326 49.1117 51.6392C49.1117 51.6926 49.1117 51.7459 49.1117 51.7992L49.1917 52.1192C49.1917 52.3326 49.1117 52.5192 48.9517 52.6792C48.7917 52.8392 48.7117 52.9459 48.7117 52.9992C48.7117 53.0526 48.7384 53.0792 48.7917 53.0792C48.8984 53.0792 48.9517 53.1059 48.9517 53.1592L48.7117 53.4792C48.4984 53.5859 48.3384 53.9326 48.2317 54.5192C48.2317 55.1059 48.1517 55.3992 47.9917 55.3992C47.8317 55.3992 47.7517 55.6126 47.7517 56.0392L47.8317 56.3592C47.8317 56.6259 47.8051 56.7592 47.7517 56.7592C47.4851 56.9192 47.2184 57.6126 46.9517 58.8392C46.6851 59.7992 46.5517 60.4926 46.5517 60.9192V61.3192C46.5517 61.4259 46.4984 61.4792 46.3917 61.4792C46.2851 61.4792 46.2051 61.5592 46.1517 61.7192V62.1992L46.2317 62.4392C46.2317 62.5459 46.2051 62.6526 46.1517 62.7592C46.1517 62.8659 46.0984 62.9459 45.9917 62.9992C45.9384 62.9992 45.8317 63.2392 45.6717 63.7192C45.5651 64.1459 45.4584 64.6792 45.3517 65.3192C45.2984 65.9592 45.2717 66.5192 45.2717 66.9992C45.2717 67.4792 45.2184 67.7192 45.1117 67.7192C45.0051 67.7192 44.8984 67.8526 44.7917 68.1192C44.7917 69.2392 44.7117 70.5726 44.5517 72.1192L44.3117 75.7992L45.3517 76.1192C46.0984 76.4392 46.4717 76.8126 46.4717 77.2392C46.4717 77.5059 46.3384 77.7459 46.0717 77.9592C45.8584 78.2259 45.5917 78.6526 45.2717 79.2392C45.1117 79.5059 44.7651 79.6392 44.2317 79.6392Z" fill="#E0FF05"/>
<path d="M26.8417 45.4001C26.8951 45.4001 26.9484 45.3734 27.0017 45.3201C27.0551 45.2134 27.2951 44.8401 27.7217 44.2001C27.6151 44.2001 27.4817 44.3067 27.3217 44.5201C26.9484 44.9467 26.7617 45.2134 26.7617 45.3201C26.7617 45.3734 26.7884 45.4001 26.8417 45.4001ZM26.7617 75.3201C26.5484 75.3201 26.2284 75.0268 25.8017 74.4401C25.6417 74.2268 25.3751 73.9334 25.0017 73.5601C24.6284 73.1867 24.2551 72.7868 23.8817 72.3601C23.5084 71.9334 23.1084 71.5068 22.6817 71.0801C22.8417 68.8934 23.1351 66.5734 23.5617 64.1201C24.3084 59.5867 25.0551 55.8801 25.8017 53.0001C26.1217 51.7734 26.2817 51.0801 26.2817 50.9201V50.8401C26.2284 50.8401 24.9751 52.8934 22.5217 57.0001C16.1751 67.7734 11.5617 73.1601 8.68172 73.1601H6.52172L5.72172 73.3201C6.57505 73.9068 7.00172 74.2267 7.00172 74.2801C7.00172 74.3334 6.94839 74.3601 6.84172 74.3601C6.73505 74.3601 6.38839 74.1468 5.80172 73.7201C5.26839 73.3468 4.65505 72.8667 3.96172 72.2801C3.00172 71.5334 2.30839 70.8934 1.88172 70.3601C1.45505 69.8801 1.16172 69.3201 1.00172 68.6801C0.841719 68.0401 0.761719 67.2668 0.761719 66.3601C0.761719 61.5601 2.76172 53.5068 6.76172 42.2001L9.00172 36.4401C11.4551 30.3068 13.1884 26.1734 14.2017 24.0401C14.8417 22.8667 15.1617 22.2001 15.1617 22.0401C15.1617 21.8267 15.4284 21.1867 15.9617 20.1201C16.4417 19.3734 16.6817 18.8134 16.6817 18.4401L16.6017 18.2801C16.6017 17.8534 17.1351 16.8667 18.2017 15.3201C18.6284 14.6801 19.3484 13.8534 20.3617 12.8401L20.1217 14.2801C20.1217 14.7601 20.2817 15.2934 20.6017 15.8801C20.9751 16.4667 21.2417 16.7601 21.4017 16.7601C21.5617 16.7601 21.7217 16.6534 21.8817 16.4401C22.0417 16.2267 22.1751 16.1201 22.2817 16.1201C22.4417 16.1201 22.6551 16.3601 22.9217 16.8401C23.3484 17.3734 23.5617 17.9334 23.5617 18.5201C23.5617 18.9467 23.4284 19.4001 23.1617 19.8801C21.7751 22.6001 19.3751 28.2001 15.9617 36.6801C12.7617 44.4668 10.4151 51.1334 8.92172 56.6801C8.12172 59.6668 7.50839 62.3067 7.08172 64.6001C6.81505 66.0934 6.68172 67.1067 6.68172 67.6401C6.68172 67.9067 6.70839 68.0668 6.76172 68.1201C7.45505 68.1201 8.73505 66.9467 10.6017 64.6001C12.4684 62.2534 14.4151 59.4001 16.4417 56.0401C29.8284 33.3201 37.4284 20.2801 39.2417 16.9201C39.9884 15.6401 40.6017 14.6001 41.0817 13.8001C41.6151 12.9467 41.9351 12.5201 42.0417 12.5201H42.1217C42.2284 12.5201 42.4684 12.2801 42.8417 11.8001L42.9217 11.6401C43.1884 11.2667 43.4017 11.0801 43.5617 11.0801C43.6151 11.0801 43.6417 11.1334 43.6417 11.2401C43.6417 11.4001 43.5351 11.6667 43.3217 12.0401L43.2417 12.5201C43.2417 12.8401 43.4017 13.2667 43.7217 13.8001C44.0951 14.2801 44.2817 14.7867 44.2817 15.3201C44.2817 15.3734 44.3084 15.4001 44.3617 15.4001L44.7617 14.9201C44.8151 14.9201 44.8417 14.8934 44.8417 14.8401L45.3217 13.9601C45.5351 14.3334 45.7751 14.7601 46.0417 15.2401C46.3084 15.7201 46.4417 16.1201 46.4417 16.4401C46.4417 17.0267 44.6551 21.8267 41.0817 30.8401C37.6151 39.4267 35.3484 45.4801 34.2817 49.0001C34.0151 49.6934 33.8017 50.3334 33.6417 50.9201C33.5351 51.5067 33.4017 51.8801 33.2417 52.0401C32.7617 53.5868 32.2017 55.6934 31.5617 58.3601C29.8551 65.2401 28.8951 69.8001 28.6817 72.0401C28.6284 73.8001 28.4417 74.6801 28.1217 74.6801C28.0151 74.6801 27.9084 74.5467 27.8017 74.2801C27.6951 74.0134 27.5617 73.8801 27.4017 73.8801C27.1351 73.8801 27.0017 74.1201 27.0017 74.6001C27.0017 75.0801 26.9217 75.3201 26.7617 75.3201Z" fill="#E0FF05"/>
</svg>
