<svg width="435" height="20" viewBox="0 0 435 20" fill="none" xmlns="http://www.w3.org/2000/svg">
<path fill-rule="evenodd" clip-rule="evenodd" d="M416.674 20.0005H409.203L412.352 0.144531H425.806C428.829 0.144531 431.032 0.708848 432.494 1.85045C434.007 3.0324 434.558 4.69711 434.558 6.47253C434.558 8.05884 434.175 9.9992 432.675 11.5384C431.171 13.0821 428.714 14.0485 424.942 14.0485H417.634L416.674 20.0005ZM416.782 13.0485H424.942C432.166 13.0485 433.558 9.35253 433.558 6.47253C433.558 3.35253 431.662 1.14453 425.806 1.14453H413.206L410.374 19.0005H415.822L416.782 13.0485ZM418.558 8.04053H424.918C425.793 8.04053 426.234 7.84073 426.443 7.6631C426.627 7.5074 426.75 7.26935 426.75 6.85653C426.75 6.56052 426.667 6.47491 426.598 6.42353C426.476 6.33158 426.166 6.20053 425.494 6.20053H418.857L418.558 8.04053ZM424.918 9.04053C426.934 9.04053 427.75 8.12853 427.75 6.85653C427.75 5.77653 427.03 5.20053 425.494 5.20053H418.006L417.382 9.04053H424.918Z" fill="#F8F8F8"/>
<path fill-rule="evenodd" clip-rule="evenodd" d="M367.142 19.0005C367.046 18.8085 366.974 18.5445 367.094 17.8005L367.406 15.8325C367.742 13.7205 366.95 12.6645 364.19 12.6645H357.158L356.15 19.0005H350.702L353.534 1.14453H367.694C372.926 1.14453 374.414 3.13653 374.414 5.46453C374.414 7.50171 373.133 8.71514 371.825 9.39436C371.361 9.63536 370.893 9.80911 370.478 9.92853C370.941 10.0714 371.386 10.2645 371.779 10.5202C372.771 11.1666 373.424 12.2137 373.166 13.8645L372.686 16.8645C372.613 17.3501 372.589 17.7167 372.591 18.0005C372.593 18.3839 372.644 18.6161 372.686 18.7859C372.691 18.8029 372.695 18.8194 372.699 18.8352L372.71 18.8805L372.686 19.0005H367.142ZM372.765 10.0064C374.125 9.16736 375.414 7.75118 375.414 5.46453C375.414 4.07009 374.955 2.6611 373.626 1.63882C372.348 0.656078 370.408 0.144531 367.694 0.144531H352.68L349.531 20.0005H357.004L358.012 13.6645H364.19C365.503 13.6645 366.028 13.9278 366.234 14.1448C366.409 14.3294 366.571 14.7196 366.419 15.6754L366.107 17.6413C365.971 18.4848 366.019 18.9901 366.248 19.4477L366.524 20.0005H373.506L373.735 18.8561L373.68 18.638L373.668 18.5888C373.636 18.4614 373.61 18.3586 373.597 18.1737C373.582 17.9551 373.587 17.5997 373.674 17.0197C373.675 17.0177 373.675 17.0158 373.675 17.0138L374.154 14.0189C374.373 12.6198 374.057 11.4688 373.346 10.5919C373.17 10.3741 372.974 10.1797 372.765 10.0064ZM358.936 7.70453H366.062C366.782 7.70453 367.141 7.51038 367.309 7.35561C367.476 7.20236 367.558 6.99686 367.558 6.76053C367.558 6.49917 367.489 6.42282 367.452 6.39066C367.391 6.33709 367.172 6.20053 366.566 6.20053H359.183L358.936 7.70453ZM366.062 8.70453C367.862 8.70453 368.558 7.72053 368.558 6.76053C368.558 5.84853 368.03 5.20053 366.566 5.20053H358.334L357.758 8.70453H366.062Z" fill="#F8F8F8"/>
<path fill-rule="evenodd" clip-rule="evenodd" d="M307.666 20.0005L306.466 16.7365H297.138L295.122 20.0005H287.109L299.653 0.144531H307.925L315.478 20.0005H307.666ZM296.58 15.7365H307.164L308.364 19.0005H314.028L307.236 1.14453H300.204L288.924 19.0005H294.564L296.58 15.7365ZM303.228 5.00853L299.076 11.7045H305.676L303.228 5.00853ZM302.995 7.28249L300.873 10.7045H304.246L302.995 7.28249Z" fill="#F8F8F8"/>
<path fill-rule="evenodd" clip-rule="evenodd" d="M236.211 20.0005H228.752L223.574 0.144531H231.417L233.867 10.3432L238.428 0.144531H245.679L247.669 10.0345L252.644 0.144531H260.423L249.828 20.0005H242.902L240.77 10.1526L236.211 20.0005ZM235.572 19.0005H229.524L224.868 1.14453H230.628L233.58 13.4325L239.076 1.14453H244.86L247.26 13.0725L253.26 1.14453H258.756L249.228 19.0005H243.708L241.116 7.02453L235.572 19.0005Z" fill="#F8F8F8"/>
<path fill-rule="evenodd" clip-rule="evenodd" d="M169.071 0.144531H189.385L188.418 6.20053H175.51L175.411 6.84053H188.04L187.075 12.9205H174.446L174.294 13.8485H187.413L186.453 20.0005H165.922L169.071 0.144531ZM173.117 14.8485L173.597 11.9205H186.221L186.869 7.84053H174.245L174.653 5.20053H187.565L188.213 1.14453H169.925L167.093 19.0005H185.597L186.245 14.8485H173.117Z" fill="#F8F8F8"/>
<path fill-rule="evenodd" clip-rule="evenodd" d="M100.344 20.0005L103.493 0.144531H112.615L116.495 10.1248L123.307 0.144531H132.566L129.417 20.0005H122.039L123.501 10.8155L117.134 20.0005H113.031L109.158 10.3656L107.624 20.0005H100.344ZM108.739 6.64053L113.707 19.0005H116.611L125.179 6.64053L123.211 19.0005H128.563L131.395 1.14453H123.835L116.251 12.2565L111.931 1.14453H104.347L101.515 19.0005H106.771L108.739 6.64053Z" fill="#F8F8F8"/>
<path fill-rule="evenodd" clip-rule="evenodd" d="M66.9972 0.144531L63.848 20.0005H56.375L59.5242 0.144531H66.9972ZM65.8261 1.14453H60.3781L57.5461 19.0005H62.9941L65.8261 1.14453Z" fill="#F8F8F8"/>
<path fill-rule="evenodd" clip-rule="evenodd" d="M5.71781 20.0005L7.87781 6.36853H0.515625L1.47044 0.144531H23.7804L22.7902 6.36853H15.4228L13.2628 20.0005H5.71781ZM14.5687 5.36853H21.9367L22.6087 1.14453H2.32873L1.68073 5.36853H9.04873L6.88873 19.0005H12.4087L14.5687 5.36853Z" fill="#F8F8F8"/>
</svg>
