<svg width="203" height="20" viewBox="0 0 203 20" fill="none" xmlns="http://www.w3.org/2000/svg">
<path d="M183.741 19.0005H178.293L181.125 1.14453H186.573L185.397 8.56053L195.237 1.14453H202.413L191.085 9.56853L200.061 19.0005H193.125L185.085 10.5765L183.741 19.0005Z" fill="#F8F8F8"/>
<path d="M129.555 19.312H128.595C119.691 19.312 117.555 14.512 117.555 11.032C117.555 10.456 117.579 9.92803 117.699 9.06403C118.107 6.04003 120.339 0.832031 130.227 0.832031H131.163C141.507 0.832031 142.635 5.68003 142.275 8.12803H136.491C136.419 7.60003 135.939 5.15203 130.395 5.15203C125.283 5.15203 123.771 7.55203 123.483 9.37603C123.411 9.83203 123.387 10.216 123.387 10.648C123.387 12.784 124.731 14.968 129.291 14.968C134.955 14.968 135.771 12.208 135.939 11.8H141.723C141.483 14.368 139.491 19.312 129.555 19.312Z" fill="#F8F8F8"/>
<path d="M66.6177 19.312C56.8977 19.312 54.9297 14.584 54.9297 11.392C54.9297 10.84 54.9297 10.24 55.0497 9.37603C55.4817 6.44803 56.9697 0.832031 67.9617 0.832031H68.9937C78.6417 0.832031 80.7057 5.41603 80.7057 8.63203C80.7057 9.25603 80.6817 9.90403 80.5857 10.576C80.1297 13.648 78.6657 19.312 67.6497 19.312H66.6177ZM74.9457 9.20803C74.9457 7.24003 73.6017 5.15203 68.2977 5.15203C62.3697 5.15203 60.9537 7.79203 60.7857 9.83203C60.7617 10.144 60.7617 10.384 60.7617 10.648C60.7617 12.592 61.9377 14.968 67.3377 14.968C73.1697 14.968 74.5857 12.328 74.8737 10.168C74.9217 9.80803 74.9457 9.54403 74.9457 9.20803Z" fill="#F8F8F8"/>
<path d="M3.07028 1.14453H8.51828L6.38228 14.5605H18.3343L17.6383 19.0005H0.238281L3.07028 1.14453Z" fill="#F8F8F8"/>
</svg>
