<svg width="871" height="575" viewBox="0 0 871 575" fill="none" xmlns="http://www.w3.org/2000/svg">
<path d="M806.771 36.9786L870.123 0.402588L867.878 17.9226L823.15 43.7466L821.736 55.1226L865.467 29.8746L863.222 47.4906L819.491 72.7386L817.829 85.4106L863.305 59.1546L861.061 77.0586L796.961 114.067L806.771 36.9786Z" fill="#F8F8F8"/>
<path d="M740.275 75.3692L759.148 64.4732L751.748 122.409L793.151 98.5052L790.74 117.657L730.465 152.457L740.275 75.3692Z" fill="#F8F8F8"/>
<path d="M648.059 200.035L657.869 122.947L708.583 93.6673C724.546 84.4513 729.285 88.6273 729.285 97.6513C729.285 107.635 721.47 116.275 717.23 120.067C720.971 119.155 728.204 119.299 728.204 130.051C728.204 143.299 721.47 157.651 701.018 169.459L648.059 200.035ZM702.514 123.859C708.168 120.595 709.914 116.131 709.914 113.155C709.914 110.371 708.833 108.595 703.928 111.427L674.663 128.323L673.083 140.851L702.514 123.859ZM700.103 154.435C707.004 150.451 708.583 144.739 708.583 141.667C708.583 138.595 707.503 136.147 701.766 139.459L671.005 157.219L669.093 172.339L700.103 154.435Z" fill="#F8F8F8"/>
<path d="M616.796 188.9L608.316 167.012L593.933 202.1L616.796 188.9ZM626.108 212.708L621.951 202.052L585.287 223.22L578.303 240.308L558.766 251.588L597.841 157.604L622.2 143.54L645.728 201.38L626.108 212.708Z" fill="#F8F8F8"/>
<path d="M505.119 282.561L486.246 293.457L496.056 216.369L514.929 205.473L510.855 237.489L544.942 188.145L569.8 173.793L530.559 230.145L561.653 249.921L537.626 263.793L509.774 246.177L505.119 282.561Z" fill="#F8F8F8"/>
<path d="M454.984 282.322L446.504 260.434L432.121 295.522L454.984 282.322ZM464.295 306.13L460.138 295.474L423.474 316.642L416.491 333.73L396.953 345.01L436.028 251.026L460.388 236.962L483.916 294.802L464.295 306.13Z" fill="#F8F8F8"/>
<path d="M341.47 305.619L404.822 269.043L402.577 286.563L357.849 312.387L356.435 323.763L400.166 298.515L397.922 316.131L354.191 341.379L352.528 354.051L398.005 327.795L395.76 345.699L331.66 382.707L341.47 305.619Z" fill="#F8F8F8"/>
<path d="M274.103 374.755L302.869 358.147C309.104 354.547 311.515 349.219 311.515 345.379C311.515 341.731 309.686 340.195 304.615 343.123L276.098 359.587L274.103 374.755ZM272.024 391.795L268.533 419.155L249.66 430.051L259.47 352.963L308.522 324.643C326.646 314.179 331.801 319.171 331.801 328.483C331.801 339.523 323.653 349.219 318.166 354.211C323.82 352.963 328.725 354.643 327.478 364.579L325.815 377.539C325.15 383.011 325.649 384.547 325.898 385.555L325.815 386.083L306.61 397.171C306.277 396.595 306.028 395.683 306.444 392.467L307.525 383.971C308.688 374.851 305.945 372.211 296.384 377.731L272.024 391.795Z" fill="#F8F8F8"/>
<path d="M167.25 477.629L177.06 400.541L227.775 371.261C243.737 362.045 248.476 366.221 248.476 375.245C248.476 385.229 240.661 393.869 236.421 397.661C240.162 396.749 247.395 396.893 247.395 407.645C247.395 420.893 240.661 435.245 220.209 447.053L167.25 477.629ZM221.706 401.453C227.359 398.189 229.105 393.725 229.105 390.749C229.105 387.965 228.024 386.189 223.119 389.021L193.854 405.917L192.275 418.445L221.706 401.453ZM219.295 432.029C226.195 428.045 227.775 422.333 227.775 419.261C227.775 416.189 226.694 413.741 220.957 417.053L190.196 434.813L188.284 449.933L219.295 432.029Z" fill="#F8F8F8"/>
<path d="M90.8377 450.322L111.872 438.178L143.464 465.826L149.7 416.338L168.323 405.586L158.512 482.674L139.972 493.378L106.218 464.674L99.6504 516.658L81.0273 527.41L90.8377 450.322Z" fill="#F8F8F8"/>
<path d="M39.2337 552.595L36.407 554.227C4.48185 572.659 -0.75587 551.491 1.23945 535.939L5.8952 499.363L24.8508 488.419L20.3613 523.747C19.0311 534.211 21.8578 544.099 38.1529 534.691C53.6167 525.763 58.023 511.603 59.2701 501.859L63.8427 465.907L82.7983 454.963L78.0594 492.163C75.9809 508.531 69.1636 535.315 39.2337 552.595Z" fill="#F8F8F8"/>
</svg>
