<svg width="53" height="434" viewBox="0 0 53 434" fill="none" xmlns="http://www.w3.org/2000/svg">
<path fill-rule="evenodd" clip-rule="evenodd" d="M0.882812 51.9019L0.88281 0.0943909L14.6988 2.30167L14.6988 36.7271L18.7388 37.3514L18.7388 3.68002L32.6188 5.88449L32.6188 39.5549L37.4268 40.3431L37.4268 5.34878L51.4988 7.54498L51.4988 59.9297L0.882812 51.9019ZM38.9268 42.109L31.1188 40.829L31.1188 7.16504L20.2388 5.43704L20.2388 39.101L13.1988 38.0131L13.1988 3.58105L2.38281 1.85306L2.38281 50.6211L49.9988 58.173L49.9988 8.82904L38.9268 7.10104L38.9268 42.109Z" fill="#F8F8F8"/>
<path fill-rule="evenodd" clip-rule="evenodd" d="M49.9988 77.458C49.4868 77.714 48.7828 77.906 46.7988 77.5861L41.5508 76.7541C35.9188 75.858 33.1028 77.97 33.1028 85.33L33.1028 104.082L49.9988 106.77L49.9988 121.298L2.38281 113.746L2.38281 75.9861C2.38281 62.0341 7.69481 58.066 13.9028 58.066C20.0506 58.066 23.3852 62.4421 25.0255 66.3454C25.349 67.1151 25.6065 67.8663 25.8068 68.562C26.0382 67.8128 26.3189 67.0807 26.6564 66.3868C28.2794 63.0503 31.2165 60.5993 36.3028 61.394L44.3028 62.674C46.3929 62.9895 47.6568 62.9648 48.4988 62.8545C48.8831 62.8041 49.1795 62.7359 49.4264 62.674C49.4719 62.6627 49.5157 62.6515 49.5581 62.6407C49.5996 62.6301 49.6398 62.6198 49.6788 62.61L49.9988 62.674L49.9988 77.458ZM25.8947 64.6474C23.961 60.733 20.3128 56.566 13.9028 56.566C10.4531 56.566 7.07966 57.6886 4.62574 60.8796C2.23113 63.9936 0.88281 68.8632 0.88281 75.9861L0.882812 115.027L51.4988 123.055L51.4988 105.49L34.6028 102.802L34.6028 85.33C34.6028 81.7514 35.3056 79.9276 36.2473 79.0341C37.1401 78.187 38.6494 77.8113 41.3151 78.2354L46.56 79.0669C48.6932 79.411 49.7592 79.2549 50.6696 78.7997L51.4988 78.3851L51.4988 61.4443L49.6422 61.073L49.315 61.1548C49.2729 61.1654 49.231 61.176 49.189 61.1867C48.836 61.2765 48.4741 61.3687 47.8731 61.4095C47.1848 61.4563 46.1478 61.4351 44.5357 61.1922C44.5327 61.1918 44.5297 61.1913 44.5267 61.1909L36.5398 59.9129L36.5344 59.912C33.0917 59.3741 30.3643 60.1562 28.3104 61.8207C27.3262 62.6183 26.5327 63.5891 25.8947 64.6474ZM21.0428 100.715L21.0428 80.338C21.0428 78.2085 20.4646 76.9426 19.8054 76.224C19.1485 75.5079 18.2733 75.182 17.3588 75.182C16.4348 75.182 15.8652 75.44 15.495 75.8626C15.0927 76.3218 14.6988 77.232 14.6988 78.994L14.6988 99.6725L21.0428 100.715ZM22.5428 80.338C22.5428 75.5381 19.9188 73.682 17.3588 73.682C14.9268 73.682 13.1988 75.0901 13.1988 78.994L13.1988 100.946L22.5428 102.482L22.5428 80.338Z" fill="#F8F8F8"/>
<path fill-rule="evenodd" clip-rule="evenodd" d="M25.3588 123.582C35.4708 125.182 50.7028 130.43 50.7028 153.47L50.7028 155.646C50.7028 180.222 34.5748 184.254 24.9748 182.718L2.38281 179.134L2.38281 164.542L24.2068 167.998C30.6708 169.022 38.3508 166.846 38.3508 154.302C38.3508 142.398 30.6068 139.006 24.5908 138.046L2.38281 134.526L2.38281 119.934L25.3588 123.582ZM24.3544 139.527L0.88281 135.807L0.88281 118.177L25.5932 122.1C25.5935 122.1 25.593 122.1 25.5932 122.1C30.7543 122.917 37.42 124.689 42.8047 129.352C48.2526 134.069 52.2028 141.581 52.2028 153.47L52.2028 155.646C52.2028 168.28 48.0389 175.938 42.3335 180.178C36.6933 184.369 29.8212 185.012 24.7398 184.199M24.7378 184.199L0.882812 180.415L0.882812 162.786L24.4414 166.516C27.4675 166.996 30.5409 166.683 32.8206 165.025C35.0378 163.412 36.8508 160.269 36.8508 154.302C36.8508 148.709 35.0492 145.31 32.715 143.177C30.3305 140.998 27.2169 139.984 24.3544 139.527" fill="#F8F8F8"/>
<path fill-rule="evenodd" clip-rule="evenodd" d="M51.4988 226.951L15.1468 221.191L15.1468 240.83L0.882812 238.642L0.88281 181.517L15.1468 183.786L15.1468 203.433L51.4988 209.193L51.4988 226.951ZM13.6468 204.714L13.6468 185.066L2.38281 183.274L2.38281 237.354L13.6468 239.082L13.6468 219.434L49.9988 225.194L49.9988 210.474L13.6468 204.714Z" fill="#F8F8F8"/>
<path fill-rule="evenodd" clip-rule="evenodd" d="M51.4988 287.43L51.4988 304.992L0.882812 296.964L0.882811 262.084C0.88281 254.133 2.37328 248.567 5.18468 244.968C8.05661 241.291 12.1077 239.912 16.5908 239.912C20.6503 239.912 25.4788 240.892 29.2856 244.601C33.0992 248.317 35.6268 254.516 35.6268 264.388L35.6268 284.87L51.4988 287.43ZM34.1268 286.148L34.1268 264.388C34.1268 245.124 24.2708 241.412 16.5908 241.412C8.27081 241.412 2.38281 246.468 2.38281 262.084L2.38281 295.684L49.9988 303.236L49.9988 288.708L34.1268 286.148ZM21.9388 282.784L21.9388 264.452C21.9388 261.963 21.3731 260.476 20.6552 259.63C19.9701 258.823 18.976 258.4 17.6148 258.4C16.5408 258.4 15.9294 258.735 15.5268 259.272C15.0634 259.889 14.6988 261.012 14.6988 262.916L14.6988 281.608L21.9388 282.784ZM23.4388 264.452C23.4388 259.076 21.0068 256.9 17.6148 256.9C14.7348 256.9 13.1988 258.82 13.1988 262.916L13.1988 282.884L23.4388 284.548L23.4388 264.452Z" fill="#F8F8F8"/>
<path fill-rule="evenodd" clip-rule="evenodd" d="M51.4988 321.178L42.7948 324.378L42.7948 350.719L51.4988 356.095L51.4988 374.693L0.882811 342.718L0.88281 322.105L51.4988 302.852L51.4988 321.178ZM41.2948 351.556L41.2948 323.332L49.9988 320.132L49.9988 305.028L2.38281 323.14L2.38281 341.892L49.9988 371.972L49.9988 356.932L41.2948 351.556ZM12.6868 333.828L30.5428 344.9L30.5428 327.3L12.6868 333.828ZM16.0978 334.178L29.0428 342.204L29.0428 329.445L16.0978 334.178Z" fill="#F8F8F8"/>
<path fill-rule="evenodd" clip-rule="evenodd" d="M32.2988 367.645C39.4017 368.914 50.8308 375.219 50.8308 399.889L50.8308 402.449C50.8308 426.193 38.0308 431.889 28.7508 431.889C27.2148 431.889 25.8068 431.825 23.5028 431.505C15.4388 430.417 1.55078 424.465 1.55078 398.097L1.55078 395.601C1.55078 368.017 14.4788 365.009 21.0068 365.969L21.0068 381.393C19.5988 381.585 13.0708 382.865 13.0708 397.649C13.0708 411.281 19.4708 415.313 24.3348 416.081C25.5508 416.273 26.5748 416.337 27.7268 416.337C33.4228 416.337 39.2468 412.753 39.2468 400.593C39.2468 386.121 32.4899 383.517 30.9673 382.931C30.9008 382.905 30.8443 382.883 30.7988 382.865L30.7988 367.441C31.2708 367.485 31.7729 367.551 32.2988 367.645ZM23.2993 432.991C25.6735 433.32 27.15 433.389 28.7508 433.389C33.681 433.389 39.6249 431.874 44.3353 427.129C49.0546 422.376 52.3308 414.586 52.3308 402.449L52.3308 399.889C52.3308 386.399 48.9722 378.052 44.509 372.978C40.0456 367.904 34.6446 366.294 30.9384 365.947L29.2988 365.794L29.2988 383.869L30.2277 384.252C30.2771 384.272 30.3363 384.295 30.4042 384.321C31.0966 384.588 32.7009 385.207 34.2562 387.166C35.97 389.323 37.7468 393.286 37.7468 400.593C37.7468 406.453 36.3427 409.976 34.5064 412.023C32.6886 414.049 30.2582 414.837 27.7268 414.837C26.6407 414.837 25.696 414.777 24.5687 414.599C22.4398 414.263 19.9913 413.22 18.0579 410.761C16.1163 408.292 14.5708 404.237 14.5708 397.649C14.5708 390.456 16.1609 386.83 17.6679 385.003C19.1471 383.21 20.7128 382.947 21.2094 382.879L22.5068 382.702L22.5068 364.673L21.225 364.485C17.6223 363.955 12.2339 364.521 7.76595 369.024C3.32464 373.501 0.050779 381.612 0.0507796 395.601L0.0507797 398.097C0.0507803 411.546 3.59783 420.024 8.39369 425.291C13.1781 430.545 19.0336 432.415 23.2993 432.991Z" fill="#F8F8F8"/>
</svg>
