<svg width="215" height="57" viewBox="0 0 215 57" fill="none" xmlns="http://www.w3.org/2000/svg">
<path d="M210.517 29.2488C210.629 29.1368 210.853 28.6328 211.021 27.9608C211.301 26.3928 211.301 25.2728 210.965 25.2728C210.741 25.2728 210.685 25.6648 210.685 26.5608C210.685 27.2328 210.573 28.1848 210.517 28.6328C210.405 29.0808 210.405 29.3048 210.517 29.2488ZM209.453 42.8008C209.397 43.0808 209.509 43.2488 209.565 43.1368C209.621 43.0808 209.621 42.9128 209.565 42.7448C209.509 42.4648 209.453 42.5768 209.453 42.8008ZM209.229 43.7528C209.173 44.0328 209.285 44.0888 209.341 44.0328C209.397 43.9208 209.397 43.7528 209.341 43.5848C209.285 43.4168 209.229 43.4728 209.229 43.7528ZM209.005 44.7608C209.005 45.0968 209.061 45.2088 209.117 45.0408C209.173 44.9288 209.173 44.7048 209.117 44.5368C209.061 44.3688 209.005 44.4248 209.005 44.7608ZM206.597 34.4568C206.989 33.9528 207.829 32.8888 208.445 32.0488C209.565 30.5928 209.901 29.7528 209.229 29.8088C208.837 29.9208 208.725 29.4168 209.005 28.2968C209.117 27.7928 209.117 27.3448 208.949 27.3448C208.837 27.2328 208.725 27.0088 208.725 26.7288C208.725 26.3928 208.445 26.5608 207.157 27.8488C204.133 30.8728 200.549 35.9128 198.197 40.5048C197.189 42.4088 196.013 45.0968 196.013 45.3768C196.013 45.7128 197.805 44.2568 199.541 42.6328C201.333 40.8408 204.413 37.2568 206.597 34.4568ZM195.229 48.9048C195.061 49.1288 195.957 49.1288 196.573 48.9048C196.965 48.7368 196.909 48.7368 196.237 48.6248C195.733 48.6248 195.285 48.7368 195.229 48.9048ZM209.397 24.0968C209.397 23.0888 208.109 22.9768 206.821 23.8168C206.317 24.0968 206.093 24.2648 206.373 24.2088C206.597 24.0968 207.269 24.0408 207.773 23.9288C208.333 23.9288 208.893 23.9288 209.061 24.0968C209.341 24.3768 209.397 24.3768 209.397 24.0968ZM212.029 25.2168C212.365 25.6648 212.421 25.8888 212.309 26.8968C212.253 27.5128 212.085 28.2968 212.029 28.6328C211.805 29.2488 212.869 29.9768 213.429 29.5848C213.653 29.3048 213.877 29.4168 214.325 29.6408C214.661 29.9208 214.941 30.1448 214.997 30.3128C215.053 30.5368 214.829 31.4328 214.437 32.5528C214.101 33.5608 213.373 35.6328 212.869 37.0888C211.413 41.2888 209.901 47.4488 209.901 49.1288C209.901 49.6328 209.789 49.8008 209.509 49.6328C209.341 49.6328 209.061 49.5768 208.893 49.5768C208.781 49.5768 208.725 48.9048 208.781 47.4488C208.949 44.9288 208.837 45.0968 208.445 47.8408L208.165 49.9128L207.269 49.4088L206.373 48.9608L206.429 47.1688C206.429 46.2168 206.765 44.0328 207.157 42.4088C207.549 40.6728 207.829 39.2168 207.773 39.2168C207.717 39.1608 207.101 39.8328 206.317 40.7848C204.357 43.2488 202.005 45.6568 200.493 46.7768C199.037 47.8408 196.461 49.2968 195.845 49.2968C195.677 49.2968 194.725 48.9608 193.829 48.4568C191.869 47.4488 191.533 46.8888 191.925 45.0968C192.933 40.4488 198.309 31.4328 203.069 26.5048C206.205 23.2568 208.781 22.0248 209.453 23.6488C209.621 24.0408 209.845 24.2648 210.013 24.2088C210.349 24.0968 211.469 24.6008 212.029 25.2168Z" fill="#E0FF05"/>
<path d="M200.352 9.14325C200.352 9.42325 200.24 9.59125 200.072 9.47925C199.568 9.14325 199.96 9.75925 200.576 10.2632C201.08 10.7113 201.304 10.7672 201.584 10.5432C201.808 10.3752 202.032 10.3752 202.48 10.7113C203.152 11.1032 203.208 11.5512 202.592 12.1672C202.368 12.3912 201.808 13.1192 201.472 13.7912C201.08 14.4632 200.632 15.1352 200.464 15.3032C199.96 15.6392 198.448 15.4712 197.776 14.9112C197.44 14.6312 197.16 14.1832 197.16 13.9592C197.16 13.3432 198.84 10.0392 199.456 9.31125C200.128 8.58325 200.352 8.58325 200.352 9.14325ZM184.84 51.2553V49.5753C184.896 47.3353 186.464 41.2873 188.648 34.7913C189.32 32.9993 189.376 32.6633 189.04 32.8873C188.536 33.1673 188.984 31.7672 189.936 30.0872C190.496 29.1353 191.448 27.2313 192.064 26.0553C193.296 23.6472 194.304 22.3592 194.696 22.6392C194.864 22.7512 194.864 22.9193 194.696 23.2552C194.584 23.4792 194.584 23.6472 194.696 23.7592C194.808 23.8152 194.976 23.7592 195.032 23.4792C195.144 23.1432 195.256 23.2552 195.704 23.6472C195.984 23.9272 196.376 24.0952 196.544 24.0952C196.712 24.0952 197.16 24.4312 197.552 24.8792C198.168 25.4392 198.28 25.6632 198.112 26.1672C198 26.5032 198 26.8392 198.056 26.8952C198.112 27.0072 198.056 27.0632 197.888 27.0632C197.72 27.0632 197.664 27.1752 197.72 27.2312C197.832 27.3432 197.776 27.5112 197.608 27.6792C197.496 27.8472 197.44 27.9592 197.552 27.9592C197.608 27.9592 197.552 28.1832 197.384 28.4632C197.216 28.7992 197.104 29.0792 197.16 29.1353C197.16 29.2473 197.104 29.3032 196.936 29.3032C196.768 29.3032 196.768 29.4152 196.824 29.4712C196.88 29.5832 196.824 29.8073 196.712 30.0872C196.544 30.3113 196.432 30.7032 196.488 30.7592C196.488 30.8712 196.432 30.9272 196.264 30.9272C196.152 30.9272 196.096 31.0392 196.208 31.2073C196.264 31.2632 196.208 31.3752 196.096 31.3752C195.928 31.3752 195.872 31.4312 195.928 31.5993C196.04 31.7113 195.984 31.8793 195.816 31.9352C195.704 32.0472 195.648 32.2153 195.76 32.2712C195.816 32.3832 195.76 32.5512 195.592 32.5512C195.424 32.5512 195.368 32.5512 195.48 32.6632C195.536 32.7192 195.48 32.9992 195.312 33.3352C195.2 33.5592 195.088 33.8392 195.088 33.9513C195.144 34.0073 195.088 34.1192 194.92 34.1192C194.808 34.1192 194.752 34.1752 194.752 34.2872C194.752 34.3432 194.528 35.0152 194.136 35.7992C192.176 40.0552 189.264 49.2393 189.264 51.2553C189.264 51.9833 189.208 52.0393 188.816 51.9833C188.424 51.8713 188.368 51.9833 188.368 52.3753C188.368 52.7113 188.256 52.9913 188.2 52.8793C188.088 52.8793 187.304 52.5433 186.408 52.0393L184.84 51.2553Z" fill="#E0FF05"/>
<path d="M173.72 40.8408C176.016 38.5448 178.536 35.4648 179.6 33.5608L179.992 32.8888L179.208 33.6728C178.48 34.3448 178.312 34.3448 177.808 34.1768C177.528 34.0088 177.136 34.0088 176.968 34.1208C176.576 34.3448 175.568 33.6728 175.736 33.3368C175.792 33.1688 175.736 33.0008 175.624 33.0008C175.512 33.0008 175.68 32.5528 176.016 32.0488C176.352 31.4328 176.912 30.4808 177.304 29.9208L177.92 28.8008L177.192 29.4728C175.904 30.7048 172.712 34.7928 173.104 34.7928C173.16 34.7928 172.992 34.9608 172.768 35.1288C172.488 35.2968 172.152 35.8008 171.984 36.2488C171.816 36.5848 171.48 37.0888 171.256 37.3688C171.032 37.5928 170.92 37.8728 170.976 37.9288C171.032 38.0968 171.032 38.2088 170.92 38.2088C170.696 38.2088 170.08 39.3288 170.136 39.6648C170.136 39.7208 170.08 39.8328 169.912 39.8328C169.8 39.8328 169.744 39.8888 169.856 40.0008C169.912 40.1688 169.856 40.2248 169.744 40.2248C169.632 40.2248 169.52 40.3368 169.52 40.4488C169.632 40.7848 169.24 41.6248 169.016 41.6248C168.904 41.6248 168.848 41.6808 168.96 41.9048C169.016 41.9608 168.96 42.0168 168.848 42.0168C168.68 42.0168 168.624 42.1288 168.624 42.2408C168.68 42.2968 168.568 42.6328 168.4 42.9128C168.232 43.1368 168.176 43.4168 168.288 43.4168C168.4 43.4168 168.344 43.4728 168.232 43.5848C168.064 43.6408 167.896 44.2008 167.784 44.7608L167.672 45.7128L169.408 44.5368C170.36 43.8648 172.32 42.2408 173.72 40.8408ZM166.832 49.4088C166.608 49.4648 166.776 49.4648 167.224 49.4648C167.672 49.4648 167.84 49.4648 167.616 49.4088C167.392 49.2968 167.056 49.2968 166.832 49.4088ZM178.312 33.6728C177.92 33.9528 177.808 34.1208 177.976 34.1208C178.032 34.1208 178.2 33.9528 178.368 33.7288C178.648 33.3368 178.648 33.3368 178.312 33.6728ZM179.04 23.4248C178.424 23.3128 177.808 23.4808 177.584 23.6488C177.304 23.9288 178.312 23.9288 178.928 23.6488C179.264 23.4808 179.264 23.4808 179.04 23.4248ZM181.112 24.7688C181.448 24.9368 182.008 25.3848 182.344 25.7208C183.296 26.7288 183.128 28.1288 181.84 30.3128C181.28 31.2088 181.28 31.2648 181.784 30.7048C182.232 30.1448 182.904 28.8568 187.384 19.5608C189.12 15.8648 191.976 10.9368 194.048 7.96875C196.064 5.05675 198.136 2.53675 198.64 2.36875C198.92 2.31275 199.312 2.14475 199.536 1.86475C200.04 1.47275 200.6 1.86475 200.152 2.36875C199.984 2.64875 199.984 2.76075 200.32 2.76075C200.544 2.64875 200.712 2.81675 200.712 2.98475C200.712 3.15275 200.992 3.48875 201.328 3.76875C201.608 3.99276 202.056 4.49675 202.28 4.88875L202.672 5.44875L200.656 8.64075C196.624 14.8008 192.368 22.8088 189.68 29.1368C188.952 30.9288 188.224 32.6648 188.056 33.0008C187.944 33.3368 187.776 33.6728 187.776 33.8408C187.72 34.1208 187.608 34.4568 187.44 34.6808C187.272 35.0168 186.992 35.6888 186.88 36.1368C186.824 36.2488 186.712 36.5848 186.544 36.9208C185.2 40.3368 182.4 51.4248 182.064 54.6728C181.952 55.7928 181.84 55.9608 181.448 55.7928C181.168 55.7368 181 55.7928 180.888 56.1288C180.776 56.6888 180.16 56.7448 180.16 56.2408C180.16 55.9608 180.104 55.9048 180.048 55.9608C179.992 56.0728 179.488 55.9048 178.984 55.5688C178.032 55.1208 178.032 55.0088 177.92 53.7768C177.864 52.3208 178.536 47.6728 179.376 43.7528C179.712 42.4088 179.936 41.2888 179.936 41.1768C179.936 41.1208 179.264 41.7928 178.48 42.6328C177.08 44.2008 173.328 47.4488 171.648 48.5128C170.192 49.5768 168.568 50.2488 167.672 50.2488C166.832 50.3608 166.496 50.0808 163.304 48.1208C161.512 46.8888 161.68 44.0328 163.92 39.3848C166.104 34.8488 169.632 29.8088 172.992 26.5608C176.8 22.8088 178.816 22.0248 180.048 23.9288C180.328 24.2648 180.776 24.7128 181.112 24.7688Z" fill="#E0FF05"/>
<path d="M161.153 28.4646C161.153 28.0166 161.153 28.0166 160.761 28.5206C160.481 28.8566 160.201 29.1366 160.033 29.1366C159.585 29.1366 156.225 33.6726 156.225 34.2886C156.225 34.4566 156.113 34.6246 156.057 34.6246C155.833 34.6246 155.273 35.6886 155.329 35.9686C155.329 36.0806 155.217 36.1366 155.049 36.1366C154.937 36.1366 154.993 36.2486 155.217 36.3046C155.721 36.5846 156.393 35.9686 159.529 32.8886C160.537 31.8806 161.657 30.5366 162.049 29.8086C162.385 29.1366 162.553 28.6326 162.441 28.8006C162.105 28.9686 162.105 28.3526 162.385 28.1286C162.497 27.9606 162.777 27.4566 162.945 26.8966C163.169 26.5046 163.169 26.2246 163.001 26.5046C162.889 26.7286 162.329 27.5126 161.881 28.1846C161.377 28.9686 160.929 29.4726 160.817 29.4726C160.481 29.2486 160.537 28.8566 160.873 28.8566C161.041 28.8566 161.153 28.6886 161.153 28.4646ZM154.153 48.9606C153.929 49.0726 153.369 49.1286 152.921 49.1286C152.305 49.1286 152.137 49.1286 152.417 49.2966C152.753 49.5766 153.649 49.4086 154.209 49.0726C154.489 48.9046 154.489 48.9046 154.153 48.9606ZM152.921 51.7046C152.697 51.7046 152.865 51.8166 153.313 51.8166C153.761 51.8166 153.929 51.7046 153.705 51.7046C153.481 51.5926 153.145 51.5926 152.921 51.7046ZM166.585 41.0086C166.361 41.2886 166.585 41.4006 166.585 41.1206C166.585 41.0646 166.641 41.0646 166.585 41.0086ZM162.161 23.7606C161.937 23.1446 161.209 23.0886 160.593 23.4246C160.313 23.5926 160.313 23.6486 160.705 23.6486C160.985 23.6486 161.433 23.8166 161.769 24.0966C162.105 24.3766 162.609 24.6006 162.945 24.6006C163.225 24.6006 163.561 24.7126 163.617 24.7686C163.897 25.2166 164.177 25.0486 164.065 24.5446C163.953 24.0966 164.009 24.0966 164.177 24.3766C164.345 24.5446 164.457 24.8806 164.457 25.2166C164.457 25.4966 164.569 25.8326 164.793 26.0006C165.241 26.3366 165.241 28.1846 164.793 29.3046C164.569 29.7526 164.457 30.1446 164.513 30.1446C164.793 30.4246 165.465 27.9606 165.465 26.8966C165.465 26.2246 165.521 25.7206 165.633 25.7206C165.689 25.7206 165.969 26.0006 166.249 26.3366C167.929 28.3526 164.737 33.8406 159.809 37.5366C157.681 39.0486 155.945 39.8886 154.657 39.8326C153.537 39.8326 153.481 39.8326 153.145 40.6726C152.921 41.1206 152.753 41.6246 152.753 41.6806C152.697 41.9046 152.529 42.5766 152.305 43.3046C151.857 45.0966 151.633 47.2806 151.801 48.0086C151.969 48.5126 152.081 48.6246 152.753 48.6246C153.929 48.6246 155.833 47.8406 157.793 46.4966C158.745 45.8806 159.585 45.2086 160.369 44.4246C161.713 43.2486 163.057 42.0166 164.345 40.7846C165.241 39.8886 165.521 39.2166 166.641 40.1686C167.089 40.6166 167.761 41.1206 167.705 41.7366C167.649 42.7446 164.905 45.4886 164.121 46.3286C159.361 51.0886 155.721 53.1606 153.145 52.5446C152.137 52.3206 148.217 49.2406 147.489 48.1766C144.185 43.2486 149.953 30.4246 158.297 24.2646C160.033 22.9766 161.153 22.6406 161.881 23.0886C162.161 23.3126 162.385 23.5926 162.385 23.8166C162.385 24.0966 162.329 24.0966 162.161 23.7606Z" fill="#E0FF05"/>
<path d="M116.243 48.512C116.131 48.008 116.131 48.064 116.019 48.68C115.963 49.128 115.963 49.352 116.075 49.184C116.187 49.128 116.243 48.792 116.243 48.512ZM127.947 47.224C128.003 47.056 127.835 46.944 127.555 47.056C127.275 47.112 127.163 47.28 127.219 47.392C127.387 47.672 127.835 47.56 127.947 47.224ZM116.243 50.864C116.243 51.088 115.515 51.088 114.563 50.696C113.779 50.304 113.723 50.248 113.723 49.352C113.723 46.944 115.963 39.496 119.267 31.04C123.187 20.904 126.603 13.512 128.003 12.112C128.787 11.272 129.011 11.272 128.843 12.056C128.731 12.728 129.347 13.176 130.355 13.064C131.083 13.064 131.923 14.072 131.755 14.632C131.699 14.912 131.811 15.192 132.035 15.36C132.203 15.528 132.371 16.032 132.371 16.48C132.371 17.152 131.363 21.856 130.635 24.768C130.131 26.784 128.843 32.552 128.507 34.456C127.835 37.872 127.779 38.208 127.611 40.784C127.499 42.464 127.555 43.08 127.723 42.856C128.115 42.632 130.019 39.664 133.547 33.896C135.171 31.096 136.795 28.52 137.075 28.072C137.355 27.568 138.363 26 139.259 24.432C144.915 15.192 148.219 10.152 149.115 9.19995C150.123 8.30395 150.739 8.07995 150.067 8.86395C149.843 9.08795 149.843 9.25595 150.067 9.42395C150.291 9.70395 150.571 9.53595 151.299 8.69595C151.859 8.07995 152.363 7.51995 152.475 7.51995C152.587 7.51995 152.811 7.35195 152.979 7.18395C153.147 6.95995 153.371 6.84795 153.651 6.95995C153.987 7.01595 154.043 7.29595 153.931 7.96795C153.763 8.86395 153.763 8.86395 154.099 8.24795C154.267 7.91195 154.435 7.79995 154.435 7.96795C154.435 8.13595 154.827 8.69595 155.275 9.08795C155.723 9.53595 156.171 10.152 156.339 10.488C156.563 10.992 156.339 12.56 155.723 14.632C155.219 16.368 152.979 22.808 152.531 23.76C152.195 24.432 151.915 25.272 151.915 25.496C151.915 25.552 151.635 26.168 151.355 26.84C151.019 27.568 150.795 28.184 150.795 28.352C150.795 28.408 150.571 29.024 150.291 29.528C150.011 30.144 149.787 30.816 149.731 31.096C149.675 31.376 149.563 31.6 149.451 31.824C149.283 31.992 148.387 34.568 148.387 34.904C148.387 35.016 148.275 35.184 148.219 35.24C148.107 35.52 147.771 36.752 147.771 36.976C147.771 37.088 147.659 37.256 147.547 37.368C147.435 37.592 146.483 40.392 144.971 45.376C144.635 46.44 144.299 47.616 144.243 48.064C143.963 49.8 143.403 52.488 143.291 52.656C143.235 52.768 142.899 53.104 142.563 53.272C141.947 53.72 141.891 53.72 141.107 53.384C140.603 53.104 139.987 52.6 139.651 52.152C139.035 51.48 138.979 51.256 139.147 49.632C139.315 47.448 140.099 43.752 141.387 39.272C142.451 35.52 146.147 24.264 147.547 20.736C148.443 18.272 148.667 17.488 147.939 18.888C147.715 19.336 147.323 20.008 146.987 20.512C146.707 21.072 146.035 22.192 145.475 23.032C144.971 23.984 144.355 24.936 144.131 25.328C143.963 25.664 143.347 26.616 142.843 27.456C142.339 28.352 141.779 29.304 141.555 29.528C141.387 29.808 140.827 30.76 140.323 31.6C139.819 32.496 139.259 33.336 139.035 33.672C138.867 33.952 138.307 34.848 137.859 35.688C136.795 37.368 136.683 37.592 135.563 39.328C135.059 40.112 134.667 40.784 134.667 40.784C134.667 40.952 133.099 43.136 131.979 44.592C130.747 46.272 128.955 47.728 128.115 48.008C127.667 48.064 127.331 48.008 126.883 47.672C126.547 47.392 125.707 46.944 125.091 46.496C123.971 45.992 123.803 45.712 123.523 44.76C122.907 42.688 123.187 37.592 124.195 32.16C124.419 31.208 124.531 30.424 124.531 30.312C124.531 29.976 121.619 36.808 120.051 40.896C118.203 45.824 117.027 50.136 117.699 49.744C117.811 49.632 117.867 49.8 117.811 50.136C117.755 50.584 117.643 50.696 117.027 50.696C116.579 50.696 116.243 50.752 116.243 50.864Z" fill="#E0FF05"/>
<path d="M90.023 55.1202C90.135 54.8402 90.079 54.7842 89.911 54.8402C89.575 54.9522 89.351 55.4562 89.687 55.4562C89.799 55.4562 89.967 55.2882 90.023 55.1202ZM106.487 1.64023C106.599 1.86423 106.879 2.14423 107.047 2.14423C107.215 2.14423 107.663 2.48024 108.055 2.81623L108.783 3.60023L106.879 6.40024C105.143 9.03223 102.567 13.8482 102.567 14.5202C102.567 14.6882 102.511 14.8002 102.399 14.8002C102.287 14.8002 102.175 15.0242 102.063 15.3042C102.007 15.6402 101.951 15.8082 102.007 15.8082C102.063 15.8082 101.895 16.1442 101.615 16.4802C101.111 17.2642 100.719 18.2162 100.775 18.5522C100.831 18.6082 100.719 18.6082 100.607 18.5522C100.439 18.4402 100.327 18.7202 100.383 19.3362C100.439 19.3362 100.327 19.5042 100.215 19.5602C99.879 19.8402 99.263 21.1842 99.375 21.4642C99.431 21.5202 99.375 21.6322 99.263 21.6322C99.095 21.6322 99.039 21.6882 99.151 21.8562C99.207 21.9682 99.207 22.0242 99.039 22.0242C98.815 22.0242 98.479 23.1442 98.535 23.5922C98.591 23.6482 98.535 23.6482 98.423 23.5922C98.255 23.4242 97.359 25.2162 97.583 25.4402C97.639 25.6082 97.583 25.7202 97.415 25.7202C97.303 25.7202 97.247 25.8322 97.303 25.8882C97.359 26.0562 97.303 26.1682 97.191 26.2242C97.079 26.2242 96.967 26.5042 96.911 26.8402C96.911 27.0642 96.799 27.2322 96.687 27.2322C96.575 27.2322 96.575 27.4002 96.631 27.5122C96.743 27.6802 96.687 27.7922 96.519 27.7922C96.351 27.7922 96.295 27.9602 96.407 28.1282C96.463 28.2962 96.407 28.4642 96.239 28.4642C96.127 28.4642 96.071 28.4642 96.127 28.5202C96.239 28.6322 96.127 28.8562 95.959 29.0242C95.679 29.3042 95.567 29.8082 95.623 30.4242C95.679 30.4802 95.567 30.5922 95.399 30.7042C95.231 30.7602 95.119 31.0962 95.119 31.3762C95.063 31.6002 95.007 31.8802 94.895 31.8802C94.783 31.8802 94.727 31.9362 94.783 32.0482C94.895 32.1602 94.839 32.2722 94.727 32.2722C94.615 32.3842 94.503 32.6642 94.447 33.0002C94.391 33.3362 94.279 33.5602 94.223 33.6722C94.111 33.7282 93.999 34.0082 93.943 34.3442C93.887 34.6802 93.831 34.9602 93.775 34.9602C93.775 35.0162 93.719 35.1282 93.663 35.1842C93.663 35.3522 93.607 35.5762 93.551 35.6322C93.551 35.6882 93.551 35.9122 93.551 35.9682C93.551 36.0802 93.439 36.1362 93.327 36.1362C93.159 36.1362 93.103 36.3042 93.215 36.4722C93.271 36.6402 93.215 36.9202 93.047 37.0322C92.935 37.1442 92.879 37.2562 92.991 37.2562C93.159 37.2562 93.103 37.3122 92.935 37.5362C92.823 37.5922 92.655 37.9282 92.599 38.2642C92.599 38.6002 92.487 38.8802 92.375 38.8802C92.263 38.8802 92.207 39.0482 92.263 39.3282C92.319 39.5522 92.319 39.8322 92.263 39.8322C91.983 39.8882 91.255 42.7442 91.423 42.9682C91.479 43.0802 91.423 43.1362 91.311 43.1362C91.143 43.1362 91.087 43.4162 91.143 43.6402C91.199 43.9202 91.143 44.0882 91.087 44.2002C90.863 44.2002 90.527 45.9922 90.527 47.0002C90.527 47.2802 90.471 47.5042 90.359 47.5042C90.303 47.5042 90.247 47.6162 90.191 47.7842C90.191 47.9522 90.135 49.2402 90.023 50.5842L89.855 53.1602L90.583 53.3842C91.423 53.7762 91.647 54.1682 91.087 54.7842C90.863 54.9522 90.639 55.2882 90.527 55.5682C90.359 55.9602 89.519 55.9602 88.343 55.5682C87.895 55.4002 87.111 55.1202 86.607 55.0082C85.207 54.6722 85.039 54.1122 85.095 49.8002C85.095 45.9922 85.599 42.8002 86.999 38.0402C89.295 30.0882 96.351 13.9042 100.719 6.73623C101.503 5.39223 102.343 3.93623 102.455 3.48824C102.791 2.76024 104.807 0.240234 105.199 0.240234C105.311 0.240234 105.479 0.520234 105.535 0.744235C105.591 1.02423 105.759 1.19224 105.927 1.19224C106.039 1.19224 106.319 1.36023 106.487 1.64023Z" fill="#E0FF05"/>
<path d="M80.6892 29.2488C80.8012 29.1368 81.0253 28.6328 81.1933 27.9608C81.4733 26.3928 81.4732 25.2728 81.1373 25.2728C80.9133 25.2728 80.8573 25.6648 80.8573 26.5608C80.8573 27.2328 80.7452 28.1848 80.6892 28.6328C80.5772 29.0808 80.5772 29.3048 80.6892 29.2488ZM79.6252 42.8008C79.5692 43.0808 79.6812 43.2488 79.7372 43.1368C79.7932 43.0808 79.7932 42.9128 79.7372 42.7448C79.6812 42.4648 79.6252 42.5768 79.6252 42.8008ZM79.4013 43.7528C79.3453 44.0328 79.4573 44.0888 79.5133 44.0328C79.5693 43.9208 79.5693 43.7528 79.5133 43.5848C79.4573 43.4168 79.4013 43.4728 79.4013 43.7528ZM79.1772 44.7608C79.1772 45.0968 79.2333 45.2088 79.2893 45.0408C79.3453 44.9288 79.3453 44.7048 79.2893 44.5368C79.2333 44.3688 79.1772 44.4248 79.1772 44.7608ZM76.7692 34.4568C77.1612 33.9528 78.0012 32.8888 78.6172 32.0488C79.7372 30.5928 80.0733 29.7528 79.4013 29.8088C79.0093 29.9208 78.8972 29.4168 79.1772 28.2968C79.2892 27.7928 79.2892 27.3448 79.1212 27.3448C79.0092 27.2328 78.8972 27.0088 78.8972 26.7288C78.8972 26.3928 78.6172 26.5608 77.3292 27.8488C74.3052 30.8728 70.7212 35.9128 68.3692 40.5048C67.3612 42.4088 66.1852 45.0968 66.1852 45.3768C66.1852 45.7128 67.9772 44.2568 69.7132 42.6328C71.5052 40.8408 74.5852 37.2568 76.7692 34.4568ZM65.4013 48.9048C65.2333 49.1288 66.1292 49.1288 66.7452 48.9048C67.1372 48.7368 67.0812 48.7368 66.4092 48.6248C65.9052 48.6248 65.4573 48.7368 65.4013 48.9048ZM79.5693 24.0968C79.5693 23.0888 78.2812 22.9768 76.9932 23.8168C76.4892 24.0968 76.2652 24.2648 76.5452 24.2088C76.7692 24.0968 77.4412 24.0408 77.9452 23.9288C78.5052 23.9288 79.0653 23.9288 79.2333 24.0968C79.5133 24.3768 79.5693 24.3768 79.5693 24.0968ZM82.2012 25.2168C82.5372 25.6648 82.5932 25.8888 82.4812 26.8968C82.4252 27.5128 82.2572 28.2968 82.2012 28.6328C81.9772 29.2488 83.0412 29.9768 83.6012 29.5848C83.8252 29.3048 84.0493 29.4168 84.4973 29.6408C84.8333 29.9208 85.1132 30.1448 85.1692 30.3128C85.2252 30.5368 85.0013 31.4328 84.6093 32.5528C84.2733 33.5608 83.5452 35.6328 83.0413 37.0888C81.5852 41.2888 80.0732 47.4488 80.0732 49.1288C80.0732 49.6328 79.9612 49.8008 79.6812 49.6328C79.5132 49.6328 79.2332 49.5768 79.0652 49.5768C78.9532 49.5768 78.8972 48.9048 78.9532 47.4488C79.1212 44.9288 79.0092 45.0968 78.6172 47.8408L78.3372 49.9128L77.4412 49.4088L76.5452 48.9608L76.6012 47.1688C76.6012 46.2168 76.9372 44.0328 77.3292 42.4088C77.7212 40.6728 78.0012 39.2168 77.9452 39.2168C77.8892 39.1608 77.2732 39.8328 76.4892 40.7848C74.5292 43.2488 72.1772 45.6568 70.6652 46.7768C69.2092 47.8408 66.6332 49.2968 66.0172 49.2968C65.8492 49.2968 64.8972 48.9608 64.0012 48.4568C62.0412 47.4488 61.7052 46.8888 62.0972 45.0968C63.1052 40.4488 68.4812 31.4328 73.2412 26.5048C76.3772 23.2568 78.9533 22.0248 79.6252 23.6488C79.7933 24.0408 80.0172 24.2648 80.1852 24.2088C80.5212 24.0968 81.6412 24.6008 82.2012 25.2168Z" fill="#E0FF05"/>
<path d="M70.5237 9.14325C70.5237 9.42325 70.4117 9.59125 70.2437 9.47925C69.7397 9.14325 70.1317 9.75925 70.7477 10.2632C71.2517 10.7113 71.4757 10.7672 71.7557 10.5432C71.9797 10.3752 72.2037 10.3752 72.6517 10.7113C73.3237 11.1032 73.3797 11.5512 72.7637 12.1672C72.5397 12.3912 71.9797 13.1192 71.6437 13.7912C71.2517 14.4632 70.8037 15.1352 70.6357 15.3032C70.1317 15.6392 68.6197 15.4712 67.9477 14.9112C67.6117 14.6312 67.3317 14.1832 67.3317 13.9592C67.3317 13.3432 69.0117 10.0392 69.6277 9.31125C70.2997 8.58325 70.5237 8.58325 70.5237 9.14325ZM55.0117 51.2553V49.5753C55.0677 47.3353 56.6357 41.2873 58.8197 34.7913C59.4917 32.9993 59.5477 32.6633 59.2117 32.8873C58.7077 33.1673 59.1557 31.7672 60.1077 30.0872C60.6677 29.1353 61.6197 27.2313 62.2357 26.0553C63.4677 23.6472 64.4757 22.3592 64.8677 22.6392C65.0357 22.7512 65.0357 22.9193 64.8677 23.2552C64.7557 23.4792 64.7557 23.6472 64.8677 23.7592C64.9797 23.8152 65.1477 23.7592 65.2037 23.4792C65.3157 23.1432 65.4277 23.2552 65.8757 23.6472C66.1557 23.9272 66.5477 24.0952 66.7157 24.0952C66.8837 24.0952 67.3317 24.4312 67.7237 24.8792C68.3397 25.4392 68.4517 25.6632 68.2837 26.1672C68.1717 26.5032 68.1717 26.8392 68.2277 26.8952C68.2837 27.0072 68.2277 27.0632 68.0597 27.0632C67.8917 27.0632 67.8357 27.1752 67.8917 27.2312C68.0037 27.3432 67.9477 27.5112 67.7797 27.6792C67.6677 27.8472 67.6117 27.9592 67.7237 27.9592C67.7797 27.9592 67.7237 28.1832 67.5557 28.4632C67.3877 28.7992 67.2757 29.0792 67.3317 29.1353C67.3317 29.2473 67.2757 29.3032 67.1077 29.3032C66.9397 29.3032 66.9397 29.4152 66.9957 29.4712C67.0517 29.5832 66.9957 29.8073 66.8837 30.0872C66.7157 30.3113 66.6037 30.7032 66.6597 30.7592C66.6597 30.8712 66.6037 30.9272 66.4357 30.9272C66.3237 30.9272 66.2677 31.0392 66.3797 31.2073C66.4357 31.2632 66.3797 31.3752 66.2677 31.3752C66.0997 31.3752 66.0437 31.4312 66.0997 31.5993C66.2117 31.7113 66.1557 31.8793 65.9877 31.9352C65.8757 32.0472 65.8197 32.2153 65.9317 32.2712C65.9877 32.3832 65.9317 32.5512 65.7637 32.5512C65.5957 32.5512 65.5397 32.5512 65.6517 32.6632C65.7077 32.7192 65.6517 32.9992 65.4837 33.3352C65.3717 33.5592 65.2597 33.8392 65.2597 33.9513C65.3157 34.0073 65.2597 34.1192 65.0917 34.1192C64.9797 34.1192 64.9237 34.1752 64.9237 34.2872C64.9237 34.3432 64.6997 35.0152 64.3077 35.7992C62.3477 40.0552 59.4357 49.2393 59.4357 51.2553C59.4357 51.9833 59.3797 52.0393 58.9877 51.9833C58.5957 51.8713 58.5397 51.9833 58.5397 52.3753C58.5397 52.7113 58.4277 52.9913 58.3717 52.8793C58.2597 52.8793 57.4757 52.5433 56.5797 52.0393L55.0117 51.2553Z" fill="#E0FF05"/>
<path d="M54.0366 23.2569C54.0366 23.4809 54.4846 23.4809 54.9326 23.2569C55.1006 23.0889 55.2126 22.9769 55.1006 22.9209C54.9326 22.6409 54.0366 22.9769 54.0366 23.2569ZM45.1886 48.3449C45.6366 48.3449 45.8046 48.2889 45.5806 48.2889C45.3566 48.1769 45.0206 48.1769 44.7966 48.2889C44.5726 48.2889 44.7406 48.3449 45.1886 48.3449ZM58.4606 25.4969L57.9566 26.5049C56.7806 28.6329 56.3886 29.1369 56.6686 28.1289C56.7806 27.6809 56.7806 27.5129 56.5566 27.6249C56.4446 27.6809 56.3326 27.9609 56.3326 28.1289C56.3326 28.2969 56.2206 28.4649 56.0526 28.4649C55.9406 28.4649 56.0526 27.9609 56.2766 27.2329C56.5006 26.6729 56.6686 26.1689 56.6686 26.1689C56.6126 26.1689 56.2206 26.7289 55.8286 27.5129C55.1006 28.8009 54.5406 29.1369 54.8206 28.1849C54.9326 27.8489 54.7086 28.0169 54.1486 28.6329C53.7006 29.1369 53.3646 29.5849 53.3646 29.7529C53.3646 29.8089 53.1406 30.0889 52.9166 30.1449C52.6366 30.3129 52.4686 30.5929 52.4686 30.8729C52.4686 31.0409 52.3566 31.2089 52.1886 31.2089C52.0766 31.2089 51.9086 31.4329 51.7406 31.7129C51.6286 32.0489 51.4606 32.2729 51.2926 32.2729C51.1806 32.2729 51.0686 32.4969 51.0686 32.6649C51.0686 32.8329 50.9566 33.0009 50.8446 33.0009C50.7326 33.0009 50.6206 33.1689 50.6206 33.3369C50.6206 33.5049 50.5086 33.6729 50.3966 33.6729C50.2846 33.6729 50.1726 33.8409 50.1726 34.0089C50.1726 34.1769 50.0606 34.3449 49.9486 34.3449C49.7806 34.3449 49.7806 34.4569 49.8366 34.6249C49.8926 34.6809 49.8366 34.8489 49.6126 34.9609C49.4446 35.0169 49.3326 35.1289 49.3886 35.2969C49.4446 35.4089 49.3886 35.5769 49.1646 35.6329C48.9966 35.6889 48.8846 35.8009 48.9406 35.9689C48.9966 36.0809 48.9406 36.1369 48.8286 36.1369C48.7166 36.1369 48.6046 36.2489 48.6606 36.3049C48.6606 36.4169 48.2686 37.3689 47.7646 38.2649C46.8126 40.1689 45.5806 43.0809 45.3006 44.2009C45.1326 45.0409 45.4126 44.9289 48.4926 43.4169C52.1886 41.6249 55.1006 39.6649 59.5806 35.9689C59.9726 35.6329 60.0286 35.6329 59.8606 35.9689C59.8046 36.2489 59.8046 36.3049 59.9166 36.2489C60.0846 36.2489 60.4766 36.3049 60.8126 36.6409C61.3726 37.0329 61.5966 37.0889 61.8206 36.8089C62.1006 36.6409 62.2126 36.7529 62.5486 37.0329C63.0526 37.5929 62.8286 37.9289 61.2046 39.3289C60.5886 39.8329 59.7486 40.5049 59.3566 40.8409C54.8766 44.9289 48.9966 48.6249 46.0846 49.2409C45.5246 49.2969 45.0206 49.2409 44.4606 48.9049C43.9566 48.6249 43.3406 48.2889 43.0606 48.0089C42.7806 47.7849 42.1086 47.1689 41.6046 46.8329C40.2606 45.8809 39.8686 44.8729 40.0366 42.9689C40.4846 37.7049 44.9086 30.0889 50.4526 25.0489C52.6366 23.0889 53.6446 22.4729 54.4846 22.5849C54.9326 22.6409 55.3246 22.8089 55.4926 23.0889C55.8286 23.6489 56.3326 24.0969 56.7806 24.0969C56.9486 24.0969 57.3966 24.4329 57.7886 24.7689L58.4606 25.4969Z" fill="#E0FF05"/>
<path d="M35.0234 37.9289C35.0794 37.9289 34.9674 37.7049 34.7434 37.3689C33.9594 36.1369 33.7354 35.8009 33.7354 35.9689C33.7354 36.4169 34.7434 37.9289 35.0234 37.9289ZM39.3354 25.2729C38.3834 25.2729 36.4794 27.4569 35.4154 29.6409C34.5194 31.6009 34.4074 34.1769 35.1354 35.9129C35.5834 37.0329 35.6394 37.0889 35.9194 36.5849C36.1434 36.3049 36.6474 35.2969 37.1514 34.2889C38.4954 31.4329 39.2234 28.9689 39.3354 27.0089C39.4474 26.0569 39.3914 25.2729 39.3354 25.2729ZM39.8954 22.7529C39.4474 21.9689 38.6074 21.5209 37.7114 21.6889C36.7034 21.8569 36.7594 22.0249 37.8794 22.1369C38.3274 22.1369 38.6634 22.1929 38.6074 22.3609C38.5514 22.4729 38.6634 22.5849 38.8874 22.6409C39.1114 22.7529 39.4474 22.9209 39.6714 22.9769C40.1194 23.2569 40.1194 23.2569 39.8954 22.7529ZM41.2394 30.4249C41.2394 30.1449 40.9594 30.7049 40.6794 31.6009C40.3994 32.5529 40.0634 33.5049 40.0074 33.7289C39.8394 34.1769 39.8394 34.1769 40.1194 33.8409C40.2314 33.5609 40.5674 32.8329 40.7914 32.1609C41.0154 31.4329 41.2394 30.7049 41.2394 30.4249ZM41.4634 25.6649C41.2954 25.1049 41.0714 24.7689 40.9594 24.7689C40.8474 24.7689 40.7914 24.8809 40.7914 24.9369C40.8474 25.0489 41.0714 25.5529 41.2394 26.0009C41.6314 27.0649 41.8554 26.7289 41.4634 25.6649ZM41.2954 29.1369C41.2954 29.5849 41.3514 29.7529 41.4074 29.4729C41.4634 29.3049 41.4634 28.9689 41.4074 28.6889C41.3514 28.5209 41.2954 28.6889 41.2954 29.1369ZM39.2234 35.5769C39.2234 35.6889 39.3354 35.5769 39.5034 35.1849C39.7274 34.9609 39.8394 34.6249 39.8394 34.4569C39.8394 34.3449 39.7274 34.4569 39.5034 34.7929C39.3354 35.1289 39.2234 35.4649 39.2234 35.5769ZM28.4154 44.2569C30.3754 43.3049 32.3354 41.6809 33.6234 40.0569L34.6314 38.7689L33.2314 37.3129C31.9994 35.9689 30.5434 33.5609 30.5434 32.7209C30.5434 32.5529 30.4874 32.5529 30.2634 32.8889C30.0394 33.0569 29.9834 33.3929 30.0394 33.5049C30.0954 33.5609 30.0394 33.6729 29.8714 33.6729C29.7594 33.6729 29.7034 33.7289 29.7594 33.8409C29.8154 34.0089 29.7594 34.1769 29.5354 34.4569C29.3674 34.6249 29.3114 34.7929 29.3674 34.8489C29.4234 34.9609 29.3674 35.0169 29.2554 35.0169C29.0874 35.0169 28.9754 35.1289 29.0314 35.1849C29.0874 35.5769 28.6954 36.4169 28.4714 36.4169C28.3034 36.4169 28.3034 36.4169 28.3594 36.4729C28.4154 36.5849 28.3594 37.0329 28.1354 37.3689C27.9674 37.7049 27.8554 38.0409 27.8554 38.0409C27.9114 38.0409 27.7994 38.3769 27.5754 38.6009C27.4074 38.9929 27.2394 39.3849 27.2394 39.4969C27.2394 39.6649 27.1274 40.0009 27.0154 40.1689C26.8474 40.6729 26.8474 40.6169 26.5114 41.6809C26.3994 42.2409 26.2314 43.1369 26.1754 43.8649C26.0634 45.3209 26.2314 45.3209 28.4154 44.2569ZM26.7354 48.0089C26.5674 48.1209 26.7354 48.1209 27.1834 48.1209C27.5754 48.1209 27.7994 48.1209 27.5754 48.0089C27.3514 47.9529 26.9594 47.9529 26.7354 48.0089ZM27.2954 45.4889C27.4634 45.2089 27.2394 45.2089 26.5674 45.4889C26.1754 45.6569 26.1754 45.6569 26.6234 45.6569C26.9034 45.6569 27.1834 45.5449 27.2954 45.4889ZM35.1914 21.8009C35.0794 21.3529 34.7434 21.2969 34.0714 21.5209C33.7914 21.6329 33.9034 21.8009 34.5754 21.9689C35.3034 22.1929 35.4714 22.1929 35.9194 21.8569C37.3194 20.7369 39.1674 21.1289 40.1754 22.7529C40.4554 23.1449 41.0154 23.8169 41.3514 24.0969C42.1354 24.8809 42.8074 26.1689 42.9754 27.3449C43.2554 29.4169 42.0794 33.5049 40.1754 37.3689C39.0554 39.4969 39.0554 39.5529 39.5034 39.5529C39.6714 39.5529 40.1194 39.8329 40.4554 40.0569C40.9594 40.5049 41.0714 40.7849 40.8474 40.9529C40.6234 41.1769 40.3994 41.1769 39.6714 40.9529C39.1674 40.8409 38.6074 40.6729 38.3834 40.6729C37.9914 40.6729 37.9914 40.7849 38.2714 40.9529C38.4954 41.0089 38.8874 41.1209 39.1674 41.1769C39.5034 41.1769 39.6714 41.1769 39.5594 41.2889C39.5034 41.3449 39.0554 41.4569 38.6634 41.4569C37.9914 41.3449 37.7674 41.5129 37.0394 42.4649C35.1914 44.7049 32.6154 46.8329 30.1514 48.0089C28.9754 48.6249 27.1274 48.9609 26.4554 48.7369C26.2874 48.6249 25.1674 47.9529 24.0474 47.1689C21.4154 45.4889 21.0234 44.7609 21.0234 42.1289C21.0234 39.6649 21.6954 37.2569 23.2634 34.0089C26.1194 28.1849 30.2634 23.1449 33.6234 21.3529C34.4634 20.9049 34.6874 20.9049 34.9674 21.1849C35.1914 21.2969 35.3034 21.6329 35.3034 21.8009C35.3034 22.1369 35.2474 22.1369 35.1914 21.8009Z" fill="#E0FF05"/>
<path d="M2.84752 50.528C2.79152 50.304 2.51152 50.192 2.23152 50.192C2.00752 50.192 1.83952 50.304 1.95152 50.528C2.00752 50.64 2.28752 50.752 2.51152 50.752C2.79152 50.752 2.90352 50.64 2.84752 50.528ZM11.0235 35.072C12.4235 35.856 14.2715 37.312 15.1115 37.984C16.9595 39.608 17.3515 39.44 15.7275 37.592C14.4955 36.304 9.67952 33.168 9.28752 33.448C9.11952 33.56 9.06352 33.56 9.17552 33.448C9.23152 33.224 8.83952 32.72 8.22352 32.328C7.43952 31.712 7.10352 31.656 7.10352 31.936C7.10352 32.44 8.16752 33.224 11.0235 35.072ZM11.3595 37.704C12.8155 38.6 14.1595 39.496 14.4395 39.72C14.9995 40.112 15.1675 40.112 14.7755 39.72V39.608C14.5515 39.44 13.4315 38.712 12.1435 37.872C10.9115 37.088 9.39952 36.192 8.83952 35.8C8.27952 35.464 8.05552 35.352 8.27952 35.576C8.55952 35.856 9.90352 36.808 11.3595 37.704ZM17.2955 41.512C17.0715 41.344 17.0715 41.344 17.1835 41.736C17.2395 42.016 17.3515 42.128 17.4635 42.016C17.5195 41.96 17.4635 41.736 17.2955 41.512ZM28.6075 9.81604C28.6075 9.14404 28.2715 8.69605 27.4315 8.52804L26.7595 8.30404L27.4875 9.14404C27.8795 9.59204 28.1595 10.152 28.1595 10.432C28.1595 10.656 28.2715 10.712 28.3835 10.656C28.4955 10.544 28.6075 10.208 28.6075 9.81604ZM27.3755 15.808C28.0475 14.968 28.7195 13.848 28.8315 13.456C29.1675 12.224 28.7195 12.56 28.1595 13.848C27.8795 14.576 26.7595 16.2 25.5835 17.6C24.0155 19.448 23.8475 19.728 24.8555 18.72C25.5835 17.992 26.7035 16.704 27.3755 15.808ZM21.5515 21.744C21.5515 21.744 21.9995 21.464 22.5035 21.016C23.0075 20.512 23.3995 20.12 23.3995 20.008C23.3995 19.896 23.0075 20.232 22.5035 20.736C21.9995 21.24 21.5515 21.632 21.5515 21.744ZM20.6555 22.472C20.6555 22.752 20.8795 22.528 21.1595 22.136C21.4395 21.744 21.4395 21.744 21.0475 22.024C20.8235 22.248 20.6555 22.472 20.6555 22.472ZM1.95152 51.144C1.78352 50.92 1.61552 50.64 1.61552 50.528C1.61552 50.304 1.27952 49.688 0.943516 49.016C0.551516 48.288 0.327516 47.672 0.383515 47.504C0.439515 47.392 0.831516 47.392 1.33552 47.504C2.06352 47.616 2.11952 47.616 1.72752 47.224C1.39152 46.888 1.44752 46.888 2.56752 46.776C4.02352 46.776 9.73552 45.152 11.8075 44.144C13.3755 43.472 15.1115 42.128 15.3355 41.512C15.4475 41.008 15.2795 40.84 11.5835 38.488C7.83152 36.192 6.59952 35.184 5.92752 33.84C3.74352 29.696 3.57552 29.136 3.46352 27.624C3.35152 26.28 3.46352 25.888 4.13552 24.264C5.53552 21.016 9.51152 16.872 14.8875 13.288C20.9355 9.14404 26.5355 7.12805 28.3275 8.52804C28.7755 8.92005 28.8875 9.14404 28.8315 10.04C28.7755 10.712 28.8315 11.048 29.1115 11.328C29.7275 11.72 29.8955 13.848 29.3915 15.192C28.7755 16.816 25.9195 20.008 21.8875 23.536C19.9835 25.272 18.2475 26.896 18.0795 27.176L17.7435 27.68L17.5195 27.176C17.1275 26.28 17.1835 26.112 18.4715 24.656C19.5355 23.48 19.5355 23.48 18.6955 24.152C18.1915 24.656 17.4635 25.384 17.1275 25.888C16.5675 26.672 16.5115 26.672 16.2315 26.168C16.0635 26 15.8955 25.496 15.8955 25.16C15.8955 24.992 15.7835 24.768 15.6715 24.88C15.3915 25.048 15.3915 24.544 15.6715 23.872C15.8395 23.648 17.6315 21.744 19.7035 19.84C23.9035 15.864 26.4235 13.064 25.4715 13.344C24.8555 13.568 20.7115 15.864 19.8715 16.48C17.5195 18.216 13.5435 21.464 12.7035 22.36C12.0875 23.032 11.1915 23.984 10.6875 24.376C9.56752 25.496 7.83152 28.184 7.38352 29.64C7.04752 30.536 7.04752 30.704 7.38352 31.152C7.55152 31.32 9.34352 32.664 11.3035 33.84C15.2235 36.416 16.9035 37.984 17.1835 39.328C17.2395 39.832 17.5755 40.504 17.8555 40.952C18.5275 41.848 18.9755 43.528 18.7515 44.48C18.2475 46.888 14.2155 49.24 7.49552 50.808C3.74352 51.648 2.51152 51.76 1.95152 51.144Z" fill="#E0FF05"/>
</svg>
