<svg width="574" height="383" viewBox="0 0 574 383" fill="none" xmlns="http://www.w3.org/2000/svg">
<path fill-rule="evenodd" clip-rule="evenodd" d="M517.867 32.0474L534.204 22.615L553.331 39.3533L557.106 9.39285L573.031 0.198425L565.941 55.9076L551.276 64.3749L530.705 46.8816L526.702 78.5626L510.777 87.7566L517.867 32.0474ZM529.6 42.7615L552.103 61.8975L564.462 54.7615L571.003 3.36951L558.587 10.5375L554.43 43.5295L533.369 25.0975L519.346 33.1935L512.806 84.5855L525.221 77.4175L529.6 42.7615Z" fill="#F8F8F8"/>
<path fill-rule="evenodd" clip-rule="evenodd" d="M451.158 94.2327L451.159 94.2237C451.675 89.884 452.858 82.9711 457.422 75.1535C462.006 67.3031 469.712 59.02 482.691 51.5264L485.075 50.1504C496.466 43.5735 503.707 42.517 508.112 44.5465C512.538 46.5855 513.854 51.6239 513.854 56.3344C513.854 58.0472 513.798 59.9118 513.56 61.9712L513.559 61.9828C513.017 66.5096 511.839 73.5496 507.278 81.4495C502.693 89.3908 494.98 97.7113 481.971 105.222L479.588 106.598C468.104 113.228 460.869 114.181 456.497 112.029C452.111 109.871 450.863 104.717 450.863 100.062V100.053C450.863 98.5632 450.863 96.8522 451.157 94.2417L451.158 94.2327ZM494.682 63.1495C492.804 62.5667 489.409 63.1681 483.467 66.5984C476.856 70.4156 473.062 74.3081 470.903 77.599C468.776 80.8402 468.012 83.8387 467.846 86.2567C467.796 87.0302 467.796 87.601 467.796 88.3023C467.796 90.4852 468.356 92.4171 470.113 93.1551C471.913 93.9115 475.233 93.5282 481.25 90.0544C487.742 86.3062 491.479 82.4514 493.646 79.1194C495.794 75.8184 496.642 72.6618 496.937 69.9332C497.042 68.9658 497.088 68.3288 497.088 67.5504C497.088 65.4191 496.481 63.7079 494.682 63.1495ZM466.119 87.0944C466.507 81.4304 469.777 72.5024 483.467 64.5984C495.716 57.5263 498.82 61.3024 498.82 66.5504C498.82 67.4464 498.765 68.1824 498.654 69.2064C497.989 75.3504 494.719 84.2784 481.25 92.0544C468.78 99.2544 466.064 94.4863 466.064 89.3023C466.064 88.5983 466.064 87.9583 466.119 87.0944ZM452.595 99.0623C452.595 107.574 457.14 117.558 479.588 104.598L481.971 103.222C507.411 88.5344 510.792 71.4784 511.845 62.6784C512.067 60.7583 512.122 58.9984 512.122 57.3344C512.122 48.7584 507.356 39.2863 485.075 52.1504L482.691 53.5264C457.307 68.1823 453.87 85.1424 452.872 93.5264C452.595 95.9903 452.595 97.5903 452.595 99.0623Z" fill="#F8F8F8"/>
<path fill-rule="evenodd" clip-rule="evenodd" d="M454.011 68.9147L446.921 124.624L430.832 133.913L437.922 78.2037L454.011 68.9147ZM451.982 72.0858L439.401 79.3498L432.86 130.742L445.442 123.478L451.982 72.0858Z" fill="#F8F8F8"/>
<path fill-rule="evenodd" clip-rule="evenodd" d="M396.986 153.455L401.974 114.223L384.969 124.041L386.997 107.607L437.347 78.5366L435.244 95.0147L418.23 104.838L413.241 144.07L396.986 153.455ZM416.75 103.692L433.766 93.8682L435.318 81.7082L388.483 108.748L386.987 120.876L404.002 111.052L399.014 150.284L411.762 142.924L416.75 103.692Z" fill="#F8F8F8"/>
<path fill-rule="evenodd" clip-rule="evenodd" d="M376.427 165.327L373.655 158.223L351.387 171.08L346.732 182.472L329.598 192.364L330.692 189.732L332.201 188.861L332.708 184.882L357.836 124.445L376.225 113.828L393.228 155.627L376.427 165.327ZM350.421 169.637L374.864 155.525L377.635 162.63L390.716 155.078L375.03 116.518L358.791 125.893L332.741 188.55L345.766 181.029L350.421 169.637ZM365.774 132.165L356.186 155.558L371.428 146.758L365.774 132.165ZM365.37 136.947L359.298 151.761L368.95 146.188L365.37 136.947Z" fill="#F8F8F8"/>
<path fill-rule="evenodd" clip-rule="evenodd" d="M291.974 162.467L340.385 134.517L338.732 147.276L311.174 187.734L335.78 173.528L334.361 184.645L332.738 188.548L333.952 187.847L333.677 190.006L284.438 218.434L286.09 205.687L313.396 165.107L289.934 178.653L291.974 162.467ZM318.397 160.22L287.692 205.852L286.472 215.26L332.198 188.86L333.75 176.7L306.093 192.668L337.131 147.1L338.351 137.692L293.456 163.612L291.959 175.484L318.397 160.22Z" fill="#F8F8F8"/>
<path fill-rule="evenodd" clip-rule="evenodd" d="M290.55 163.29L283.46 218.999L267.371 228.288L274.461 172.579L290.55 163.29ZM288.521 166.461L275.94 173.725L269.4 225.117L281.981 217.853L288.521 166.461Z" fill="#F8F8F8"/>
<path fill-rule="evenodd" clip-rule="evenodd" d="M230.133 198.172L246.223 188.883L241.29 227.507L268.887 211.574L266.737 228.655L223.043 253.882L230.133 198.172ZM239.26 230.679L244.193 192.055L231.612 199.319L225.071 250.711L265.255 227.511L266.862 214.743L239.26 230.679Z" fill="#F8F8F8"/>
<path fill-rule="evenodd" clip-rule="evenodd" d="M227.819 199.508L220.73 255.218L204.641 264.507L211.73 208.797L227.819 199.508ZM225.791 202.68L213.209 209.944L206.669 261.336L219.251 254.072L225.791 202.68Z" fill="#F8F8F8"/>
<path fill-rule="evenodd" clip-rule="evenodd" d="M149.974 294.067L149.699 296.225L187.034 274.67C194.071 270.607 199.082 265.919 202.348 260.744C205.655 255.501 206.89 250.211 206.89 245.398C206.89 239.935 204.503 237.97 202.058 237.442C202.733 236.605 203.409 235.684 204.045 234.69C206.008 231.622 207.611 227.821 207.611 223.798C207.611 220.359 206.687 217.569 204.032 216.718C201.469 215.896 197.561 216.977 192.077 220.142L156.789 240.516L150.033 293.603L150.174 293.951L149.974 294.067ZM200.23 239.529C199.358 239.465 198.515 239.578 197.842 239.742C198.547 239.112 199.4 238.28 200.284 237.283C202.944 234.285 205.878 229.794 205.878 224.798C205.878 218.782 202.719 215.998 192.077 222.142L158.268 241.662L151.728 293.054L187.034 272.67C200.668 264.798 205.158 255.23 205.158 246.398C205.158 241.166 202.588 239.702 200.23 239.529ZM190.727 237.854C191.077 237.274 191.232 236.681 191.232 236.134C191.232 235.476 191.105 235.344 191.016 235.3C190.89 235.238 190.415 235.15 188.974 235.982L170.945 246.391L170.436 250.429L188.031 240.27C189.617 239.355 190.376 238.436 190.727 237.854ZM168.411 253.598L169.464 245.246L188.974 233.982C192.244 232.094 192.964 233.278 192.964 235.134C192.964 237.118 191.8 240.094 188.031 242.27L168.411 253.598ZM189.699 257.556C190.17 256.692 190.345 255.811 190.345 255.142C190.345 254.347 190.201 254.041 190.008 253.928C189.81 253.811 189.217 253.698 187.533 254.67L168.506 265.655L167.777 271.42L186.424 260.654C188.362 259.535 189.264 258.356 189.699 257.556ZM165.75 274.59L167.025 264.51L187.533 252.67C191.357 250.462 192.077 252.094 192.077 254.142C192.077 256.19 191.024 259.998 186.424 262.654L165.75 274.59Z" fill="#F8F8F8"/>
<path fill-rule="evenodd" clip-rule="evenodd" d="M135.888 304.202L133.116 297.098L110.848 309.955L106.192 321.347L89.0586 331.239L117.297 263.32L135.686 252.703L151.818 292.362L151.73 293.056L152.03 292.883L152.689 294.502L135.888 304.202ZM109.882 308.513L134.325 294.4L137.096 301.505L150.177 293.953L134.491 255.393L118.252 264.769L92.2015 327.425L105.226 319.905L109.882 308.513ZM125.235 271.041L115.647 294.433L130.889 285.633L125.235 271.041ZM124.831 275.822L118.759 290.636L128.411 285.063L124.831 275.822Z" fill="#F8F8F8"/>
<path fill-rule="evenodd" clip-rule="evenodd" d="M66.5954 344.205L71.5837 304.973L54.5781 314.791L56.606 298.357L106.957 269.287L104.854 285.765L87.8389 295.588L82.8506 334.82L66.5954 344.205ZM86.3597 294.442L103.375 284.618L104.927 272.458L58.0926 299.498L56.5962 311.626L73.6118 301.802L68.6235 341.034L81.3714 333.674L86.3597 294.442Z" fill="#F8F8F8"/>
<path fill-rule="evenodd" clip-rule="evenodd" d="M1.23056 361.05L14.0668 353.639C11.675 354.222 9.7436 354.237 8.21863 353.745C4.90934 352.679 3.7614 349.314 3.7614 345.205C3.7614 344.192 3.82574 343.354 3.94509 342.32L3.9461 342.311C4.42192 338.3 5.90396 333.686 9.87572 328.674C13.7099 323.836 19.7086 318.83 28.9939 313.469L32.5412 311.421C42.2017 305.843 48.3585 304.25 52.0033 305.51C55.7925 306.821 56.5618 311.085 56.0982 315.742L55.9125 317.608L44.6514 324.109C46.6978 323.516 48.4344 323.301 49.8746 323.481C51.6946 323.707 53.048 324.564 53.9307 326.069C54.806 327.56 55.1687 329.603 55.1687 332.037C55.1687 333.292 55.051 334.966 54.8579 336.193L54.8567 336.2C54.1954 340.33 52.8339 345.212 48.7246 350.625C44.7405 355.874 38.3958 361.321 28.1625 367.229L24.5599 369.309C13.9127 375.456 7.71689 376.255 4.32133 374.043C0.89626 371.812 0.699688 366.772 1.05654 362.926L1.23056 361.05ZM39.758 325.967L39.6858 325.175C39.6159 324.408 39.5362 323.765 38.7195 323.556C37.7304 323.303 35.4571 323.657 30.3241 326.621L29.5482 327.069C24.4151 330.033 22.0462 332.008 20.9974 333.219C20.5333 333.755 20.4433 334.009 20.4273 334.055C20.3969 334.141 20.3614 334.288 20.3614 334.661C20.3614 334.95 20.3946 335.053 20.4222 335.102C20.4394 335.133 20.5072 335.245 20.8179 335.273C21.5411 335.337 23.2228 334.914 26.9134 332.846L26.9166 332.845L33.5651 329.134C33.5652 329.134 33.5649 329.134 33.5651 329.134C35.8141 327.875 37.8769 326.817 39.758 325.967ZM33.5388 331.149L26.8877 334.861C19.4053 339.053 18.6293 337.453 18.6293 335.661C18.6293 333.741 19.239 331.021 29.5482 325.069L30.3241 324.621C40.7996 318.573 41.243 322.157 41.4093 323.981L54.3789 316.493C55.2102 308.141 51.6076 302.413 32.5412 313.421L28.9939 315.469C10.648 326.061 6.49111 334.605 5.65973 341.613C5.54888 342.573 5.49345 343.309 5.49345 344.205C5.49345 351.501 9.4841 355.405 23.8393 347.501L30.7121 343.725C38.7488 339.341 39.9682 340.045 39.9682 342.605C39.9682 344.973 39.1922 348.685 27.6637 355.341L26.9986 355.725C16.634 361.709 15.858 357.613 15.8026 354.637L2.7776 362.157C2.11249 369.325 3.66441 379.373 24.5599 367.309L28.1625 365.229C48.3929 353.549 51.9401 344.397 53.1595 336.781C53.3258 335.725 53.4366 334.189 53.4366 333.037C53.4366 324.205 48.1712 322.957 33.5388 331.149ZM30.6673 345.75C30.6663 345.751 30.6653 345.751 30.6643 345.752L23.7992 349.524C21.4781 350.802 19.3885 351.797 17.5144 352.528L17.5343 353.595C17.5588 354.912 17.7387 355.972 18.6752 356.377C19.698 356.82 21.9629 356.632 26.9986 353.725L27.6637 353.341C33.3776 350.042 36.0497 347.671 37.2601 346.149C37.8094 345.458 38.0032 345.01 38.0915 344.736C38.1933 344.42 38.2361 344.082 38.2361 343.605C38.2361 343.129 38.1758 342.985 38.1399 342.932C38.1184 342.9 38.0323 342.78 37.6228 342.796C36.6758 342.834 34.6983 343.551 30.6673 345.75Z" fill="#F8F8F8"/>
</svg>
