<svg width="57" height="39" viewBox="0 0 57 39" fill="none" xmlns="http://www.w3.org/2000/svg">
<path d="M39.9429 13.6951C39.9909 13.9831 40.0869 13.8871 40.1829 13.5511C40.1829 13.3591 40.1829 13.3111 40.0869 13.3591C39.9909 13.4551 39.8949 13.5511 39.9429 13.6951ZM46.7589 16.0471C46.5189 15.5671 46.3269 15.4231 46.1349 15.5191C45.9909 15.5671 45.8469 15.5671 45.7509 15.5671C45.7029 15.5671 45.9429 15.8551 46.3269 16.1911C46.6629 16.4791 46.999 16.6711 47.0469 16.6711C47.0469 16.6231 46.9029 16.3831 46.7589 16.0471ZM49.0629 19.4071C49.1109 19.4071 49.015 19.1671 48.871 18.9271C48.583 18.5911 48.5349 18.7351 48.8229 19.1671C48.9189 19.4071 49.0149 19.4551 49.0629 19.4071ZM52.1349 19.5511C51.3669 19.5511 50.5509 19.4551 50.4069 19.4071C50.167 19.3111 50.0709 19.3111 50.2149 19.5511C50.3589 19.8391 50.6949 19.8871 51.607 19.8871C52.279 19.8871 52.9509 19.7431 53.1429 19.6951C53.3829 19.5511 53.0949 19.5511 52.1349 19.5511ZM51.3669 21.6631C51.5589 21.7591 51.9429 21.8071 52.1349 21.8071H52.5669L52.1349 21.6631C51.8949 21.5191 51.5109 21.4231 51.3189 21.4231H50.9349L51.3669 21.6631ZM39.7029 23.0071C39.7029 23.0071 39.895 22.8631 40.0389 22.6231C40.1829 22.3831 40.2309 22.2391 40.0869 22.2391C39.9909 22.2391 39.7989 22.3831 39.7509 22.6231C39.6549 22.8631 39.6549 23.0071 39.7029 23.0071ZM38.1189 15.4231C38.6469 14.3191 39.7509 13.1191 40.1829 13.1191C40.3269 13.1191 40.3749 13.2631 40.3749 13.5511C40.3269 14.1751 41.0469 14.9431 41.3829 14.6071C41.5749 14.4151 41.7669 14.5111 42.1989 14.8471L42.7269 15.2791L42.4869 16.1911C42.3429 16.6231 42.1509 16.9111 42.0549 16.9111C41.8149 16.7671 40.2309 21.2311 40.4229 21.4231C40.5669 21.6151 41.3349 20.6551 42.4389 19.1191C44.3109 16.3831 45.7989 14.9431 46.2789 15.0871C46.4709 15.1351 46.7589 15.4231 46.9509 15.8071C47.1429 16.0951 47.623 16.5271 48.0549 16.8151C48.4869 17.0551 49.0629 17.6311 49.3509 18.0631C49.7829 18.7831 50.0229 18.9271 50.6949 19.1191C51.4629 19.3111 52.8549 19.2631 54.1029 19.0231C54.5349 18.8791 54.5349 18.9271 54.0549 19.1671C53.5269 19.4551 53.6709 19.6951 54.3429 19.6951C54.5829 19.6951 54.9189 19.8391 55.1109 20.0311C55.2549 20.2711 55.4949 20.4151 55.6389 20.3671C55.8789 20.1751 56.5509 20.7991 56.5989 21.0871C56.6469 21.3751 55.4949 21.8071 54.6309 21.9031C54.1989 21.9031 53.8629 22.0471 53.8629 22.0951C53.9109 22.3351 51.5589 22.2391 50.9349 21.9511C50.6469 21.8071 49.7349 21.0871 48.9189 20.2711C47.6229 19.1191 47.3829 18.9751 47.191 19.1671C46.0869 20.1751 41.4789 27.1831 37.6389 33.5191C37.0629 34.5751 35.9109 35.6791 35.5749 35.6791C35.4789 35.6791 35.2389 35.4871 34.9989 35.2951C34.7109 35.0551 34.4709 34.8631 34.4229 34.8631C34.3749 34.8631 33.9429 34.6231 33.4629 34.3351C32.8869 34.0471 32.5509 33.6631 32.5029 33.4711C32.1669 31.5511 35.6709 20.1751 38.1189 15.4231Z" fill="#999999"/>
<path d="M27.6797 26.2242C27.7277 26.2242 27.6317 26.0322 27.4397 25.7442C26.7677 24.6882 26.5757 24.4002 26.5757 24.5442C26.5757 24.9282 27.4397 26.2242 27.6797 26.2242ZM31.3757 15.3762C30.5597 15.3762 28.9277 17.2482 28.0157 19.1202C27.2477 20.8002 27.1517 23.0082 27.7757 24.4962C28.1597 25.4562 28.2077 25.5042 28.4477 25.0722C28.6397 24.8322 29.0717 23.9682 29.5037 23.1042C30.6557 20.6562 31.2797 18.5442 31.3757 16.8642C31.4717 16.0482 31.4237 15.3762 31.3757 15.3762ZM31.8557 13.2162C31.4717 12.5442 30.7517 12.1602 29.9837 12.3042C29.1197 12.4482 29.1677 12.5922 30.1277 12.6882C30.5117 12.6882 30.7997 12.7362 30.7517 12.8802C30.7037 12.9762 30.7997 13.0722 30.9917 13.1202C31.1837 13.2162 31.4717 13.3602 31.6637 13.4082C32.0477 13.6482 32.0477 13.6482 31.8557 13.2162ZM33.0077 19.7922C33.0077 19.5522 32.7677 20.0322 32.5277 20.8002C32.2877 21.6162 31.9997 22.4322 31.9517 22.6242C31.8077 23.0082 31.8077 23.0082 32.0477 22.7202C32.1437 22.4802 32.4317 21.8562 32.6237 21.2802C32.8157 20.6562 33.0077 20.0322 33.0077 19.7922ZM33.1997 15.7122C33.0557 15.2322 32.8637 14.9442 32.7677 14.9442C32.6717 14.9442 32.6237 15.0402 32.6237 15.0882C32.6717 15.1842 32.8637 15.6162 33.0077 16.0002C33.3437 16.9122 33.5357 16.6242 33.1997 15.7122ZM33.0557 18.6882C33.0557 19.0722 33.1037 19.2162 33.1517 18.9762C33.1997 18.8322 33.1997 18.5442 33.1517 18.3042C33.1037 18.1602 33.0557 18.3042 33.0557 18.6882ZM31.2797 24.2082C31.2797 24.3042 31.3757 24.2082 31.5197 23.8722C31.7117 23.6802 31.8077 23.3922 31.8077 23.2482C31.8077 23.1522 31.7117 23.2482 31.5197 23.5362C31.3757 23.8242 31.2797 24.1122 31.2797 24.2082ZM22.0157 31.6482C23.6957 30.8322 25.3757 29.4402 26.4797 28.0482L27.3437 26.9442L26.1437 25.6962C25.0877 24.5442 23.8397 22.4802 23.8397 21.7602C23.8397 21.6162 23.7917 21.6162 23.5997 21.9042C23.4077 22.0482 23.3597 22.3362 23.4077 22.4322C23.4557 22.4802 23.4077 22.5762 23.2637 22.5762C23.1677 22.5762 23.1197 22.6242 23.1677 22.7202C23.2157 22.8642 23.1677 23.0082 22.9757 23.2482C22.8317 23.3922 22.7837 23.5362 22.8317 23.5842C22.8797 23.6802 22.8317 23.7282 22.7357 23.7282C22.5917 23.7282 22.4957 23.8242 22.5437 23.8722C22.5917 24.2082 22.2557 24.9282 22.0637 24.9282C21.9197 24.9282 21.9197 24.9282 21.9677 24.9762C22.0157 25.0722 21.9677 25.4562 21.7757 25.7442C21.6317 26.0322 21.5357 26.3202 21.5357 26.3202C21.5837 26.3202 21.4877 26.6082 21.2957 26.8002C21.1517 27.1362 21.0077 27.4722 21.0077 27.5682C21.0077 27.7122 20.9117 28.0002 20.8157 28.1442C20.6717 28.5762 20.6717 28.5282 20.3837 29.4402C20.2877 29.9202 20.1437 30.6882 20.0957 31.3122C19.9997 32.5602 20.1437 32.5602 22.0157 31.6482ZM20.5757 34.8642C20.4317 34.9602 20.5757 34.9602 20.9597 34.9602C21.2957 34.9602 21.4877 34.9602 21.2957 34.8642C21.1037 34.8162 20.7677 34.8162 20.5757 34.8642ZM21.0557 32.7042C21.1997 32.4642 21.0077 32.4642 20.4317 32.7042C20.0957 32.8482 20.0957 32.8482 20.4797 32.8482C20.7197 32.8482 20.9597 32.7522 21.0557 32.7042ZM27.8237 12.4002C27.7277 12.0162 27.4397 11.9682 26.8637 12.1602C26.6237 12.2562 26.7197 12.4002 27.2957 12.5442C27.9197 12.7362 28.0637 12.7362 28.4477 12.4482C29.6477 11.4882 31.2317 11.8242 32.0957 13.2162C32.3357 13.5522 32.8157 14.1282 33.1037 14.3682C33.7757 15.0402 34.3517 16.1442 34.4957 17.1522C34.7357 18.9282 33.7277 22.4322 32.0957 25.7442C31.1357 27.5682 31.1357 27.6162 31.5197 27.6162C31.6637 27.6162 32.0477 27.8562 32.3357 28.0482C32.7677 28.4322 32.8637 28.6722 32.6717 28.8162C32.4797 29.0082 32.2877 29.0082 31.6637 28.8162C31.2317 28.7202 30.7517 28.5762 30.5597 28.5762C30.2237 28.5762 30.2237 28.6722 30.4637 28.8162C30.6557 28.8642 30.9917 28.9602 31.2317 29.0082C31.5197 29.0082 31.6637 29.0082 31.5677 29.1042C31.5197 29.1522 31.1357 29.2482 30.7997 29.2482C30.2237 29.1522 30.0317 29.2962 29.4077 30.1122C27.8237 32.0322 25.6157 33.8562 23.5037 34.8642C22.4957 35.3922 20.9117 35.6802 20.3357 35.4882C20.1917 35.3922 19.2317 34.8162 18.2717 34.1442C16.0157 32.7042 15.6797 32.0802 15.6797 29.8242C15.6797 27.7122 16.2557 25.6482 17.5997 22.8642C20.0477 17.8722 23.5997 13.5522 26.4797 12.0162C27.1997 11.6322 27.3917 11.6322 27.6317 11.8722C27.8237 11.9682 27.9197 12.2562 27.9197 12.4002C27.9197 12.6882 27.8717 12.6882 27.8237 12.4002Z" fill="#999999"/>
<path d="M20.6071 1.64748C20.4631 1.64748 20.2231 1.55148 20.0311 1.64748C19.8391 1.69548 19.9351 1.79148 20.2711 1.79148C20.6071 1.79148 20.7511 1.69548 20.6071 1.64748ZM15.0391 11.7275C14.9911 11.6315 14.8471 11.6315 14.7031 11.7275C14.5111 11.7755 14.5591 11.7755 14.7991 11.7755C14.9911 11.7755 15.1351 11.7755 15.0391 11.7275ZM3.08707 37.4555C2.99107 37.7435 3.18307 38.2715 3.42307 38.2715C3.51907 38.2715 3.47107 38.0315 3.37507 37.7435C3.23107 37.4555 3.13507 37.4075 3.08707 37.4555ZM6.59107 16.9115C6.63907 16.7675 6.49507 16.6715 6.30307 16.6715C6.11107 16.7675 5.63107 16.4795 5.24707 16.0955C4.57507 15.4235 4.52707 15.3755 4.86307 15.1355C5.05507 14.9915 5.39107 14.7515 5.58307 14.5595C5.82307 14.4155 6.63907 13.9355 7.50307 13.6475L8.99107 12.9755L10.5751 9.80748C11.5351 7.83948 12.0631 6.59148 11.9191 6.59148C11.7271 6.68748 11.6791 6.83148 11.7271 6.87948C11.7751 7.02348 11.5351 7.11948 11.2471 7.11948C10.9111 7.11948 10.6231 7.02348 10.6231 6.97548C10.6231 6.83148 10.3831 6.73548 10.0951 6.73548C9.75907 6.73548 9.32707 6.54348 8.89507 6.15948L8.22307 5.58348L8.84707 4.91148C9.18307 4.52748 9.56707 4.38348 9.66307 4.43148C9.80707 4.52748 9.85507 4.52748 9.80707 4.38348C9.56707 3.99948 13.8391 2.51148 16.8631 1.93548C20.7031 1.11948 26.5591 0.59148 28.0471 0.975481C28.6711 1.02348 28.4311 1.11948 26.8951 1.11948C24.8791 1.11948 21.3271 1.35948 21.1831 1.50348C21.1351 1.55148 22.2871 1.55148 23.7751 1.50348C27.7111 1.26348 28.7671 1.55148 30.6871 3.42348C31.3111 3.99948 31.5031 4.91148 30.9751 4.91148C30.7831 4.91148 30.7351 4.81548 30.7831 4.76748C30.8311 4.62348 30.7351 4.52748 30.5911 4.52748C30.3031 4.52748 30.3031 4.43148 30.4951 4.23948C30.5911 4.09548 30.6391 3.95148 30.4951 3.85548C30.3991 3.80748 30.2551 3.95148 30.2071 4.14348C30.0151 4.81548 29.5351 4.81548 29.3911 4.14348C29.2951 3.56748 29.2471 3.56748 28.2391 3.56748C26.2231 3.56748 21.6631 4.14348 18.7351 4.76748C17.7751 4.95948 17.7271 4.95948 17.1031 6.30348C16.7671 6.97548 16.0471 8.46348 15.4711 9.42348C14.9431 10.4795 14.5111 11.2955 14.5591 11.3435C14.6071 11.3435 15.5671 11.1995 16.7191 10.9115C19.1671 10.3835 21.1351 10.0955 21.1351 10.2395C21.1351 10.2875 20.7031 10.4795 20.1271 10.5275C18.9751 10.6235 16.2391 11.2955 16.3351 11.3435C16.3831 11.4395 17.1511 11.2955 18.0631 11.1035C20.3671 10.7675 21.4711 10.7675 22.4311 11.2955C23.1991 11.7275 23.7271 12.2555 23.5831 12.4475C23.5351 12.5435 23.0551 12.6395 22.5751 12.6875C21.4231 12.8315 16.2871 14.1755 13.8391 14.8955L12.1111 15.5195L11.3911 16.8635C10.7191 18.2555 10.3831 19.0715 9.75907 20.6075C9.56707 21.0875 9.27907 21.7595 9.08707 22.1915C8.89507 22.6235 8.22307 24.3515 7.59907 25.9835C5.43907 31.7435 4.28707 35.8235 4.43107 37.4555C4.47907 37.8875 4.47907 38.2715 4.43107 38.2715C4.33507 38.2715 4.14307 38.2715 3.90307 38.3675C3.71107 38.3675 3.42307 38.4155 3.23107 38.5115C3.08707 38.5595 2.60707 38.4155 2.17507 38.2715C1.02307 37.8875 0.831069 37.5995 0.975069 35.9675C1.21507 33.3275 3.61507 25.3595 5.48707 21.2315C5.63107 20.8475 5.91907 20.1275 6.15907 19.5035C6.35107 18.9275 6.63907 18.2555 6.78307 17.9675C6.97507 17.6795 6.97507 17.4875 6.78307 17.3435C6.63907 17.2955 6.54307 17.0555 6.59107 16.9115Z" fill="#999999"/>
</svg>
