<svg width="144" height="156" viewBox="0 0 144 156" fill="none" xmlns="http://www.w3.org/2000/svg">
<path d="M110.705 39.8248C110.871 39.4408 110.788 39.2008 110.621 39.2968C110.455 39.3928 110.123 39.8728 109.956 40.2568C109.624 40.9288 109.624 41.1208 110.039 40.8808C110.289 40.7368 110.621 40.1608 110.705 39.8248ZM136.893 56.6728C136.81 57.0088 136.561 57.3448 136.311 57.4888C136.145 57.5848 136.062 57.4408 136.228 57.0568C136.311 56.8168 136.561 56.5768 136.727 56.4808C136.976 56.3368 136.976 56.4328 136.893 56.6728ZM96.571 90.7048C96.8204 90.5608 97.153 89.9848 97.3193 89.7928C97.4024 89.6488 97.153 89.4088 96.8204 89.6008C96.4047 89.8408 96.0722 90.4168 96.0722 90.5128C96.0722 90.6088 96.3216 90.8488 96.571 90.7048ZM132.071 28.1608L130.99 28.7848L132.071 28.8328C132.736 28.9288 133.318 29.1688 133.401 29.5048C133.568 29.8888 133.651 29.8408 133.983 29.0728C134.15 28.4968 134.066 28.1608 133.651 27.9208C133.318 27.7288 132.653 27.8248 132.071 28.1608ZM107.379 112.017C107.462 111.969 107.628 111.681 107.712 111.441C107.878 111.057 107.795 111.009 107.628 111.105C107.379 111.249 107.213 111.441 107.213 111.729C107.213 111.921 107.296 112.065 107.379 112.017ZM100.312 57.9208C103.804 49.8568 106.132 45.2488 108.46 41.6008C110.206 38.9608 111.203 38.2888 111.037 39.8248C110.871 41.2648 111.536 42.0328 112.284 41.0248C112.7 40.4968 113.032 40.4008 113.614 40.8328C114.529 41.4568 114.446 42.6568 113.282 44.7688L112.534 46.1608L112.783 45.0568L113.032 43.9528L112.201 45.3928C111.203 47.0248 107.046 56.6248 106.132 59.3608C105.966 59.7448 105.467 61.0888 105.051 62.1928C103.804 65.2168 99.2314 78.6088 99.0652 79.6648C98.7326 81.3928 101.642 76.6408 113.116 56.3848C123.674 37.8088 125.753 34.4008 129.161 30.2248C131.655 27.1528 132.819 26.4808 133.983 27.4408C134.482 27.7288 134.898 28.2568 134.898 28.5448C134.898 28.8328 135.397 29.4088 135.979 29.8408C136.644 30.1288 137.392 31.2328 137.725 32.0008C138.473 34.2568 138.39 39.9688 137.558 45.1528C137.226 47.1688 136.81 49.3288 136.311 51.4408C135.979 53.0728 135.314 55.0888 135.563 56.4808C135.896 58.2088 135.147 58.0648 135.147 58.9288C135.147 60.0808 137.059 56.8648 137.143 56.6248C137.891 55.6168 138.556 54.6568 139.387 53.7928C141.715 51.3928 142.131 53.6488 142.796 53.4568C143.295 53.3608 143.96 54.7048 143.295 55.6648C141.798 57.5848 140.385 59.5528 139.055 61.5688C136.976 64.5928 134.815 67.2808 132.653 70.2568C129.91 73.9528 128.746 75.2968 126.917 79.6168C121.097 93.3448 110.871 111.153 107.628 113.025C107.046 113.361 106.381 113.457 106.132 113.121C105.883 112.977 104.968 112.641 104.137 112.353C102.89 112.113 102.474 111.681 102.474 111.009C102.474 108.033 110.206 93.8728 117.522 83.4088C120.847 78.5128 121.762 77.0248 122.76 74.5288C128.662 59.7928 132.819 44.1448 132.819 36.6568C132.819 34.1608 132.819 33.8728 132.237 34.5928C130.99 36.0808 126.667 43.3768 120.847 53.7448C108.127 76.5448 104.968 81.8248 100.312 87.9688C97.4855 91.6168 96.8204 92.0008 94.742 91.1848C90.5019 89.3128 90.9176 89.9368 91.167 86.6248C91.5827 80.8168 94.742 70.7368 100.312 57.9208Z" fill="#E0FF05"/>
<path d="M86.1343 110.46C86.3006 109.884 86.2175 109.836 85.9681 110.076C85.4692 110.556 85.1367 111.612 85.6355 111.324C85.8018 111.228 86.0512 110.796 86.1343 110.46ZM110.577 4.66755C110.743 4.95555 111.159 5.19555 111.408 5.05155C111.658 4.90755 112.323 5.09955 112.905 5.33955L113.986 6.05955L111.159 12.4916C108.582 18.4916 104.757 28.9556 104.757 30.1075C104.757 30.3955 104.674 30.6355 104.508 30.7315C104.342 30.8275 104.175 31.3075 104.009 31.8835C103.926 32.5076 103.843 32.8435 103.926 32.7955C104.009 32.7475 103.76 33.4676 103.344 34.2836C102.596 36.0596 102.014 38.0276 102.097 38.5555C102.18 38.6035 102.014 38.6995 101.848 38.6996C101.598 38.6515 101.432 39.2276 101.515 40.2355C101.598 40.1876 101.432 40.5716 101.266 40.7636C100.767 41.5316 99.8522 44.3636 100.018 44.7476C100.102 44.7956 100.018 45.0356 99.8522 45.1316C99.6028 45.2756 99.5196 45.4196 99.6859 45.6115C99.769 45.7555 99.769 45.8516 99.5196 45.9956C99.1871 46.1876 98.6882 48.3955 98.7714 49.1156C98.8545 49.1636 98.7714 49.2116 98.6051 49.2116C98.3557 49.0675 97.0255 52.9075 97.358 53.0995C97.4412 53.3395 97.358 53.5795 97.1086 53.7235C96.9423 53.8195 96.8592 54.0596 96.9423 54.1076C97.0255 54.3476 96.9423 54.5876 96.7761 54.7796C96.6098 54.8756 96.4435 55.4516 96.3604 56.0756C96.3604 56.4596 96.1941 56.8436 96.0278 56.9396C95.8615 57.0356 95.8615 57.3236 95.9447 57.4676C96.111 57.6596 96.0278 57.8996 95.7784 58.0436C95.529 58.1876 95.4458 58.5236 95.6121 58.7156C95.6953 58.9556 95.6121 59.2916 95.3627 59.4356C95.1964 59.5316 95.1133 59.5796 95.1964 59.6276C95.3627 59.7236 95.1964 60.2036 94.947 60.6356C94.5313 61.3556 94.365 62.3156 94.4482 63.3236C94.5313 63.3716 94.365 63.6596 94.1156 63.9956C93.8662 64.2356 93.6999 64.9076 93.6999 65.3876C93.6168 65.8196 93.5337 66.3475 93.3674 66.4436C93.2011 66.5396 93.118 66.6835 93.2011 66.8275C93.3674 66.9235 93.2842 67.1636 93.118 67.2596C92.9517 67.5476 92.7854 68.1236 92.7023 68.7476C92.6191 69.3716 92.4529 69.8516 92.3697 70.0916C92.2035 70.2836 92.0372 70.8596 91.954 71.4836C91.8709 72.1076 91.7878 72.6356 91.7046 72.6836C91.7046 72.7796 91.6215 73.0196 91.5383 73.1636C91.5383 73.4516 91.4552 73.8836 91.3721 74.0276C91.3721 74.1236 91.3721 74.5075 91.3721 74.6035C91.3721 74.7955 91.2058 74.9876 91.0395 75.0836C90.7901 75.2276 90.707 75.5636 90.8732 75.7556C90.9564 75.9956 90.8732 76.5236 90.6238 76.8595C90.4575 77.1475 90.3744 77.3875 90.5407 77.2915C90.7901 77.1475 90.707 77.2916 90.4575 77.8195C90.2913 78.0115 90.0418 78.7316 89.9587 79.3556C89.9587 79.9316 89.7924 80.5076 89.6262 80.6036C89.4599 80.6996 89.3767 81.0356 89.4599 81.4676C89.543 81.8036 89.543 82.2836 89.4599 82.3316C89.0442 82.6676 87.9634 88.1876 88.2128 88.4276C88.2959 88.5716 88.2128 88.7156 88.0465 88.8116C87.7971 88.9556 87.714 89.4836 87.7971 89.8196C87.8802 90.2516 87.7971 90.5875 87.714 90.8275C87.3814 91.0195 86.8826 94.3796 86.8826 96.1076C86.8826 96.5876 86.7995 97.0196 86.6332 97.1156C86.55 97.1636 86.4669 97.4036 86.3838 97.7396C86.3838 98.0276 86.3006 100.284 86.1343 102.684L85.8849 107.244L86.9657 107.004C88.2128 106.956 88.5454 107.436 87.714 108.972C87.3814 109.452 87.0489 110.22 86.8826 110.796C86.6332 111.612 85.3861 112.332 83.6402 112.668C82.9751 112.764 81.8111 112.956 81.0629 113.196C78.9844 113.82 78.735 113.004 78.8182 105.564C78.8182 99.0356 79.5664 93.1316 81.6449 83.7716C85.0535 68.1716 95.529 34.3796 102.014 18.3476C103.178 15.3716 104.425 12.1555 104.591 11.2916C105.09 9.75555 108.083 3.70755 108.665 3.37155C108.831 3.27555 109.081 3.61155 109.164 3.94755C109.247 4.37955 109.496 4.52355 109.746 4.37955C109.912 4.28355 110.328 4.33155 110.577 4.66755Z" fill="#E0FF05"/>
<path d="M52.2799 118.581C52.5293 118.917 52.6125 118.869 53.2776 118.101C54.0258 117.285 53.6101 116.949 52.7787 117.717C52.4462 118.005 52.1968 118.437 52.2799 118.581ZM67.9931 111.525C67.9931 112.293 68.0762 112.533 68.1593 112.197C68.2425 111.861 68.2425 111.285 68.1593 111.045C68.0762 110.613 67.9931 110.949 67.9931 111.525ZM68.4919 108.453C68.575 108.117 68.575 107.733 68.4919 107.493C68.4088 107.253 68.3256 107.589 68.3256 108.165C68.3256 108.549 68.4088 108.789 68.4919 108.453ZM48.7049 119.013C47.541 119.013 47.1253 118.677 46.7928 117.621C45.3794 113.637 48.7049 97.6055 54.5246 80.2295C57.3513 71.8775 60.4275 65.6855 60.0949 69.0455C60.0118 70.4375 61.342 70.7255 62.0902 69.5255C62.5891 68.8535 64.2518 69.0455 64.2518 69.9095C64.2518 70.1015 63.5867 72.2135 62.7553 74.6135C60.8432 79.9415 56.9357 93.5255 55.356 99.9095C54.0258 105.669 53.0281 111.141 53.3607 111.237C53.6101 111.381 56.1043 106.677 59.0973 100.437C61.342 95.7815 64.7507 87.9575 74.2285 65.7815C76.6395 60.1655 79.965 54.1175 79.6324 56.0375C79.383 57.3335 80.7132 58.3895 81.6278 57.3815C82.2097 56.7575 83.4568 57.0935 83.4568 57.7655C83.4568 58.0535 81.8772 63.8615 79.8819 70.6775C75.7249 85.2695 74.4779 89.8295 72.5657 98.8055C70.5704 107.541 70.2378 109.845 70.4041 111.381C70.4872 112.773 70.3209 112.965 69.3233 112.965C68.9076 112.917 68.575 113.109 68.4919 113.445C68.1593 114.213 67.6605 114.405 65.9977 114.213L64.5013 114.021L64.6675 110.949C64.9169 108.021 66.6629 98.2775 67.7437 94.1015C67.9931 93.0935 68.2425 92.1815 68.1593 92.2295C68.0762 92.2775 67.5774 93.3335 67.0785 94.4855C63.171 103.461 59.5961 110.421 56.6862 114.597C53.6101 119.157 53.0281 119.589 51.5317 119.109C50.7834 119.157 49.5363 119.013 48.7049 119.013Z" fill="#E0FF05"/>
<path d="M34.2496 85.8848C34.3327 86.4128 34.499 86.1248 34.6653 85.3568C34.6653 84.9728 34.6653 84.8768 34.499 85.0688C34.3327 85.3568 34.1665 85.6448 34.2496 85.8848ZM46.0553 83.7728C45.6396 83.0528 45.307 82.9568 44.9745 83.3408C44.7251 83.5808 44.4756 83.7248 44.3094 83.8208C44.2262 83.8688 44.6419 84.2048 45.307 84.4928C45.889 84.7328 46.471 84.7808 46.5541 84.7328C46.5541 84.6368 46.3047 84.3008 46.0553 83.7728ZM50.0459 88.1888C50.1291 88.1408 49.9628 87.7568 49.7134 87.4208C49.2145 87.0368 49.1314 87.3728 49.6302 87.9488C49.7965 88.3328 49.9628 88.3328 50.0459 88.1888ZM55.3668 85.4048C54.0366 86.1728 52.6232 86.7968 52.3738 86.8448C51.9581 86.8928 51.7918 86.9888 52.0412 87.3248C52.2907 87.7568 52.8726 87.5168 54.4523 86.6048C55.6162 85.9328 56.7801 84.9728 57.1127 84.6848C57.5284 84.1568 57.0295 84.4448 55.3668 85.4048ZM54.0366 90.3968C54.3691 90.3968 55.0342 90.1088 55.3668 89.9168L56.115 89.4848L55.3668 89.6288C54.9511 89.5808 54.286 89.7728 53.9534 89.9648L53.2883 90.3488L54.0366 90.3968ZM33.8339 104.749C33.8339 104.749 34.1665 104.269 34.4159 103.645C34.6653 103.021 34.7484 102.685 34.499 102.829C34.3327 102.925 34.0002 103.405 33.9171 103.933C33.7508 104.509 33.7508 104.797 33.8339 104.749ZM31.0903 91.1648C32.0049 88.4288 33.9171 84.9248 34.6653 84.4928C34.9147 84.3488 34.9979 84.5888 34.9979 85.1648C34.9147 86.4608 36.1618 87.2768 36.7438 86.2688C37.0763 85.6928 37.4089 85.6928 38.1571 85.9328L39.0716 86.2688L38.6559 88.3328C38.4065 89.3408 38.074 90.1088 37.9077 90.2048C37.492 90.1568 34.7484 100.669 35.081 100.861C35.3304 101.101 36.6606 98.4128 38.5728 94.2368C41.8152 86.8928 44.3925 82.5248 45.2239 82.3328C45.5564 82.2368 46.0553 82.5248 46.3878 83.1008C46.7204 83.4848 47.5518 83.8688 48.3 84.0128C49.0483 84.0608 50.0459 84.6368 50.5447 85.2128C51.293 86.2208 51.7087 86.2688 52.8726 85.9808C54.2028 85.5968 56.6139 84.1088 58.7755 82.3808C59.5237 81.6608 59.5237 81.7568 58.6923 82.7168C57.7778 83.8208 58.0272 84.1568 59.1911 83.4848C59.6068 83.2448 60.1888 83.1968 60.5214 83.3888C60.7708 83.7248 61.1865 83.7728 61.4359 83.5328C61.8516 82.9088 63.0155 83.4848 63.0986 84.0128C63.1818 84.5408 61.1865 86.5568 59.69 87.6128C58.9417 88.0448 58.3598 88.6688 58.3598 88.7648C58.4429 89.1968 54.3691 91.3568 53.2883 91.4048C52.7895 91.4048 51.2099 90.8768 49.7965 90.0608C47.5518 89.0528 47.1361 89.0048 46.8035 89.5808C44.8913 92.7008 36.91 111.325 30.259 127.837C29.2613 130.525 27.266 133.885 26.684 134.221C26.5177 134.317 26.102 134.173 25.6863 134.029C25.1875 133.837 24.7718 133.693 24.6887 133.741C24.6056 133.789 23.8573 133.741 23.0259 133.645C22.0283 133.645 21.4463 133.213 21.3632 132.877C20.7812 129.373 26.8503 103.117 31.0903 91.1648Z" fill="#E0FF05"/>
<path d="M38.4017 59.2971C38.3186 59.1531 37.986 59.3451 37.7366 59.4891C37.4872 59.8251 37.5703 59.8731 37.986 59.6331C38.3186 59.4411 38.568 59.2011 38.4017 59.2971ZM4.73065 151.601C2.90161 152.273 2.07022 151.889 1.98708 150.785C1.48825 145.601 8.7213 114.161 16.2869 88.0011C17.6171 83.3931 18.6979 79.6011 18.6148 79.6491C18.3654 79.5051 11.8806 85.0731 7.88991 88.9131C4.56438 92.0811 4.06555 92.3691 3.56672 92.2731C3.06788 91.9851 3.06788 91.9851 3.56672 91.4091C4.31496 90.6891 4.23182 90.0651 3.40044 90.7371C2.65219 91.4571 0.241177 90.6411 0.158039 89.7291C0.0749003 88.8171 2.90161 85.1691 6.14401 81.9531C9.63582 78.4011 17.2014 72.2091 23.6862 67.7931C30.3373 62.9931 45.9673 53.8731 49.376 52.6731C51.4545 51.8571 53.2004 52.0011 52.7015 53.0571C52.6184 53.2011 52.5353 53.1531 52.4521 52.9131C52.369 51.8091 49.8748 52.7691 44.2214 55.9371L38.6511 58.9611L43.0575 56.7051C45.4685 55.4091 48.1289 54.2571 48.8772 54.1131C50.2074 53.7291 53.1172 53.9691 52.4521 54.5451C52.2858 54.6411 52.6184 54.5451 53.2004 54.4971C54.198 54.4971 55.6114 55.8891 55.1957 56.6091C54.8631 57.0891 52.5353 57.8571 51.9533 57.4251C51.4545 57.2331 50.5399 57.6651 46.8818 59.7771C40.397 63.5211 30.171 70.2891 29.3396 71.3451C29.1734 71.6331 29.0071 72.1131 29.0902 72.3531C29.0902 72.6411 28.9239 73.1211 28.7577 73.2171C28.5914 73.3131 28.5082 73.4571 28.6745 73.6491C28.7577 73.7931 28.6745 73.9371 28.5082 74.0331C28.2588 74.1771 28.2588 74.3691 28.342 74.6091C28.5082 74.6091 28.4251 74.9451 28.2588 75.0411C28.0094 75.1851 27.9263 75.4251 28.0926 75.4251C28.1757 75.5691 28.0094 76.2411 27.76 76.9611C27.4274 77.6331 27.0949 78.6891 27.0118 79.1211C26.9286 79.6491 26.6792 80.2731 26.5129 80.3691C26.3466 80.4651 26.2635 80.6091 26.4298 80.7051C26.5129 80.9451 26.4298 81.2811 26.2635 81.6651C26.0141 82.0971 25.6815 83.1531 25.5153 83.8251C25.2658 84.7371 25.0164 85.4571 24.8502 85.5531C24.6839 85.6491 24.6007 85.7931 24.6839 85.9371C24.8502 86.4171 24.3513 88.1451 24.0188 88.3371C23.8525 88.4331 23.7694 88.6731 23.9356 88.8651C24.1019 88.8651 24.0188 89.1051 23.8525 89.2011C23.6862 89.2971 23.4368 90.0171 23.1874 90.7371C22.7717 92.3211 22.7717 92.1291 22.6054 93.3771C22.4391 93.9531 22.2729 94.5291 22.1066 94.6251C21.9403 94.7211 21.8572 94.8651 22.0235 94.9611C22.1066 95.2011 22.1066 95.2971 21.8572 95.4411C21.6909 95.5371 21.6078 95.7771 21.6909 95.8251C21.8572 96.0171 21.774 96.2571 21.6078 96.3531C21.3583 96.4971 21.3583 96.5931 21.4415 96.9291C21.6078 96.9291 21.5246 97.1691 21.3583 97.2651C21.1089 97.4091 21.0258 97.7451 21.1921 97.7451C21.3583 97.9371 21.2752 98.1771 21.0258 98.3211C20.8595 98.4171 20.7764 98.5611 20.9426 98.6571C21.0258 98.8971 21.0258 98.9931 20.7764 99.1371C20.6101 99.2331 20.527 99.4731 20.6101 99.7131C20.7764 99.8091 20.6932 99.9531 20.527 100.049C20.2775 100.193 20.2775 100.481 20.3607 100.529C20.527 100.817 20.4438 100.961 20.1944 101.105C20.0281 101.201 19.945 101.441 20.1113 101.441C20.1944 101.585 20.0281 101.969 19.7787 102.209C19.4462 102.593 19.363 102.929 19.5293 103.217C19.6124 103.457 19.6124 103.841 19.363 103.985C19.1967 104.081 19.1136 104.225 19.2799 104.321C19.4462 104.513 19.363 104.657 19.1136 104.801C18.9473 104.897 18.8642 105.137 19.0305 105.329C19.1136 105.377 19.1136 105.569 18.9473 105.665C18.6148 105.857 18.1159 107.777 18.3654 107.921C18.3654 108.017 18.2822 108.257 18.1159 108.449C17.6171 109.217 16.37 113.873 16.6195 114.017C16.7026 114.257 16.7026 114.449 16.4532 114.593C16.2869 114.689 16.2038 114.833 16.2869 114.977C16.4532 115.169 16.37 115.313 16.2869 115.361C15.2892 116.513 9.38641 141.329 8.88757 146.897C8.80444 147.713 8.30561 148.961 7.88991 149.969C6.97539 151.649 6.80911 151.745 6.47656 151.553C6.31028 151.361 5.56204 151.505 4.73065 151.601Z" fill="#E0FF05"/>
</svg>
