<svg width="608" height="20" viewBox="0 0 608 20" fill="none" xmlns="http://www.w3.org/2000/svg">
<path d="M594.947 19.312C585.899 19.312 585.227 15.208 585.515 12.664H591.155C591.179 13.792 591.515 15.496 596.003 15.496H596.291C601.283 15.496 601.619 14.272 601.619 13.384C601.619 12.424 601.091 11.896 597.611 11.8L594.635 11.728C588.419 11.584 586.691 9.25603 586.691 6.52003C586.691 6.18403 586.715 5.92003 586.763 5.58403C587.123 3.13603 588.923 0.832031 596.867 0.832031H598.403C606.659 0.832031 608.219 3.76003 607.859 6.71203H602.243C602.171 5.99203 601.979 4.55203 597.443 4.55203H597.107C592.643 4.55203 592.379 5.44003 592.379 6.16003C592.379 6.83203 592.715 7.60003 595.955 7.64803L598.835 7.69603C605.171 7.79203 607.451 9.40003 607.451 12.712C607.451 13.144 607.403 13.696 607.331 14.056C606.803 16.648 605.267 19.312 596.507 19.312H594.947Z" fill="#F8F8F8"/>
<path d="M535.036 19.312C525.316 19.312 523.348 14.584 523.348 11.392C523.348 10.84 523.348 10.24 523.468 9.37603C523.9 6.44803 525.388 0.832031 536.38 0.832031H537.412C547.06 0.832031 549.124 5.41603 549.124 8.63203C549.124 9.25603 549.1 9.90403 549.004 10.576C548.548 13.648 547.084 19.312 536.068 19.312H535.036ZM543.364 9.20803C543.364 7.24003 542.02 5.15203 536.716 5.15203C530.788 5.15203 529.372 7.79203 529.204 9.83203C529.18 10.144 529.18 10.384 529.18 10.648C529.18 12.592 530.356 14.968 535.756 14.968C541.588 14.968 543.004 12.328 543.292 10.168C543.34 9.80803 543.364 9.54403 543.364 9.20803Z" fill="#F8F8F8"/>
<path d="M472.349 19.0005L474.509 5.36853H467.141L467.789 1.14453H488.069L487.397 5.36853H480.029L477.869 19.0005H472.349Z" fill="#F8F8F8"/>
<path d="M416.7 19.312C406.98 19.312 405.012 14.584 405.012 11.392C405.012 10.84 405.012 10.24 405.132 9.37603C405.564 6.44803 407.052 0.832031 418.044 0.832031H419.076C428.724 0.832031 430.788 5.41603 430.788 8.63203C430.788 9.25603 430.764 9.90403 430.668 10.576C430.212 13.648 428.748 19.312 417.732 19.312H416.7ZM425.028 9.20803C425.028 7.24003 423.684 5.15203 418.38 5.15203C412.452 5.15203 411.036 7.79203 410.868 9.83203C410.844 10.144 410.844 10.384 410.844 10.648C410.844 12.592 412.02 14.968 417.42 14.968C423.252 14.968 424.668 12.328 424.956 10.168C425.004 9.80803 425.028 9.54403 425.028 9.20803Z" fill="#F8F8F8"/>
<path d="M343.52 19.0005L346.352 1.14453H351.8L350.768 7.64853H362.264L363.296 1.14453H368.744L365.912 19.0005H360.464L361.568 11.9685H350.072L348.968 19.0005H343.52Z" fill="#F8F8F8"/>
<path d="M290.116 19.0005H284.668L287.5 1.14453H300.1C305.956 1.14453 307.852 3.35253 307.852 6.47253C307.852 9.35253 306.46 13.0485 299.236 13.0485H291.076L290.116 19.0005ZM291.676 9.04053H299.212C301.228 9.04053 302.044 8.12853 302.044 6.85653C302.044 5.77653 301.324 5.20053 299.788 5.20053H292.3L291.676 9.04053Z" fill="#F8F8F8"/>
<path d="M188.21 19.0005H182.762L185.594 1.14453H198.194C204.05 1.14453 205.946 3.35253 205.946 6.47253C205.946 9.35253 204.554 13.0485 197.33 13.0485H189.17L188.21 19.0005ZM189.77 9.04053H197.306C199.322 9.04053 200.138 8.12853 200.138 6.85653C200.138 5.77653 199.418 5.20053 197.882 5.20053H190.394L189.77 9.04053Z" fill="#F8F8F8"/>
<path d="M117.184 19.0005L120.016 1.14453H127.6L131.92 12.2565L139.504 1.14453H147.064L144.232 19.0005H138.88L140.848 6.64053L132.28 19.0005H129.376L124.408 6.64053L122.44 19.0005H117.184Z" fill="#F8F8F8"/>
<path d="M61.9037 1.14453H82.2077L81.6077 4.96053C80.9357 5.63253 78.5597 8.03253 76.9037 10.1445C74.4317 13.3125 73.7837 15.7125 73.4477 18.7845L73.4237 19.0005H66.9437L67.3037 16.7445C67.7597 13.8645 68.7437 12.2325 72.4637 8.75253C74.8637 6.49653 75.8477 5.58453 75.8717 5.17653H66.7517L66.1757 8.84853H60.6797L61.9037 1.14453Z" fill="#F8F8F8"/>
<path d="M8.36697 7.45603H2.65497L2.67897 7.21603C2.94297 4.98403 4.21497 0.832031 13.047 0.832031H13.983C21.783 0.832031 23.583 3.35203 23.583 5.84803C23.583 8.44003 22.503 10.912 16.143 11.752C14.679 11.944 12.183 12.28 10.815 12.496C6.61497 13.144 6.11097 14.296 6.08697 14.776H17.127L17.487 12.472H22.815L21.783 19H0.542969L0.854969 16.984C1.26297 14.392 2.00697 10.192 10.095 8.65603C11.511 8.39203 14.031 7.93603 15.063 7.76803C17.487 7.31203 17.751 6.85603 17.751 6.25603C17.751 5.63203 17.295 4.96003 13.479 4.96003C9.06297 4.96003 8.53497 6.59203 8.36697 7.45603Z" fill="#F8F8F8"/>
</svg>
