<svg width="50" height="434" viewBox="0 0 50 434" fill="none" xmlns="http://www.w3.org/2000/svg">
<path d="M1.38281 41.6824L1.38281 27.1544L37.1588 32.8504L37.1588 0.978392L48.9988 2.83438L48.9988 49.2344L1.38281 41.6824Z" fill="#F8F8F8"/>
<path d="M29.5428 73.3007L11.6868 79.8286L29.5428 90.9007L29.5428 73.3007ZM48.9988 66.1327L40.2948 69.3326L40.2948 97.5566L48.9988 102.933L48.9988 117.973L1.38281 87.8926L1.38281 69.1407L48.9988 51.0287L48.9988 66.1327Z" fill="#F8F8F8"/>
<path d="M49.8308 145.887L49.8308 148.447C49.8308 172.191 37.0308 177.887 27.7508 177.887C26.2148 177.887 24.8068 177.823 22.5028 177.503C14.4388 176.415 0.550781 170.463 0.55078 144.095L0.55078 141.599C0.550778 114.015 13.4788 111.007 20.0068 111.967L20.0068 127.391C18.5988 127.583 12.0708 128.863 12.0708 143.647C12.0708 157.279 18.4708 161.311 23.3348 162.079C24.5508 162.271 25.5748 162.335 26.7268 162.335C32.4228 162.335 38.2468 158.751 38.2468 146.591C38.2468 131.487 30.8868 129.311 29.7988 128.863L29.7988 113.439C36.6468 114.079 49.8308 119.391 49.8308 145.887Z" fill="#F8F8F8"/>
<path d="M1.38281 178.529L48.9988 186.081L48.9988 200.609L1.38281 193.057L1.38281 178.529Z" fill="#F8F8F8"/>
<path d="M48.9988 239.694L12.6468 233.934L12.6468 253.582L1.38281 251.854L1.38281 197.774L12.6468 199.566L12.6468 219.214L48.9988 224.974L48.9988 239.694Z" fill="#F8F8F8"/>
<path d="M21.5428 300.481L21.5428 278.337C21.5428 273.537 18.9188 271.681 16.3588 271.681C13.9268 271.681 12.1988 273.089 12.1988 276.993L12.1988 298.945L21.5428 300.481ZM32.1028 302.081L48.9988 304.769L48.9988 319.297L1.38281 311.745L1.38281 273.985C1.38281 260.033 6.69481 256.065 12.9028 256.065C20.2628 256.065 23.5908 262.337 24.8068 266.561C26.1508 262.209 29.1588 258.433 35.3028 259.393L43.3028 260.673C46.6948 261.185 47.9108 260.801 48.6788 260.609L48.9988 260.673L48.9988 275.457C48.4868 275.713 47.7828 275.905 45.7988 275.585L40.5508 274.753C34.9188 273.857 32.1028 275.969 32.1028 283.329L32.1028 302.081Z" fill="#F8F8F8"/>
<path d="M1.38281 366.807L1.38281 318.039L12.1988 319.767L12.1988 354.199L19.2388 355.287L19.2388 321.623L30.1188 323.351L30.1188 357.015L37.9268 358.295L37.9268 323.287L48.9988 325.015L48.9988 374.359L1.38281 366.807Z" fill="#F8F8F8"/>
<path d="M48.9988 416.264L1.38281 433.736L1.38281 417.8L36.6468 405.576L1.38281 384.456L1.38281 369.032L48.9988 398.088L48.9988 416.264Z" fill="#F8F8F8"/>
</svg>
