<svg width="375" height="22" viewBox="0 0 375 22" fill="none" xmlns="http://www.w3.org/2000/svg">
<path fill-rule="evenodd" clip-rule="evenodd" d="M349.977 1.14453H357.386L365.388 11.2111L366.968 1.14453H374.37L371.221 21.0005H364.538L355.909 10.3315L354.23 21.0005H346.828L349.977 1.14453ZM355.271 7.95253L365.015 20.0005H370.367L373.199 2.14453H367.823L366.023 13.6165L356.903 2.14453H350.831L347.999 20.0005H353.375L355.271 7.95253Z" fill="#F8F8F8"/>
<path fill-rule="evenodd" clip-rule="evenodd" d="M285.055 10.2385L285.056 10.2301C285.283 8.69727 285.805 6.29426 287.841 4.29301C289.887 2.28094 293.296 0.832031 298.958 0.832031H299.99C304.959 0.832031 308.163 2.0119 310.132 3.78235C312.114 5.56358 312.702 7.8128 312.702 9.63203C312.702 10.2805 312.677 10.9804 312.572 11.7175L312.571 11.7229C312.334 13.3178 311.814 15.7699 309.781 17.8031C307.734 19.8503 304.321 21.312 298.646 21.312H297.614C292.604 21.312 289.4 20.0935 287.445 18.2827C285.482 16.4647 284.926 14.1876 284.926 12.392V12.3873C284.926 11.8265 284.926 11.1709 285.055 10.2385ZM303.997 8.23483C303.246 7.65743 301.84 7.15203 299.294 7.15203C296.465 7.15203 294.886 7.78323 294.012 8.50034C293.156 9.20207 292.847 10.0907 292.779 10.9116C292.758 11.1801 292.758 11.3854 292.758 11.648C292.758 12.4154 292.983 13.183 293.674 13.7803C294.391 14.3992 295.76 14.968 298.334 14.968C301.11 14.968 302.663 14.3392 303.542 13.609C304.409 12.8884 304.756 11.9549 304.879 11.0359C304.923 10.7024 304.942 10.4853 304.942 10.208C304.942 9.4704 304.703 8.77758 303.997 8.23483ZM291.782 10.832C291.95 8.79203 293.366 6.15203 299.294 6.15203C304.598 6.15203 305.942 8.24003 305.942 10.208C305.942 10.544 305.918 10.808 305.87 11.168C305.582 13.328 304.166 15.968 298.334 15.968C292.934 15.968 291.758 13.592 291.758 11.648C291.758 11.384 291.758 11.144 291.782 10.832ZM285.926 12.392C285.926 15.584 287.894 20.312 297.614 20.312H298.646C309.662 20.312 311.126 14.648 311.582 11.576C311.678 10.904 311.702 10.256 311.702 9.63203C311.702 6.41603 309.638 1.83203 299.99 1.83203H298.958C287.966 1.83203 286.478 7.44803 286.046 10.376C285.926 11.24 285.926 11.84 285.926 12.392Z" fill="#F8F8F8"/>
<path fill-rule="evenodd" clip-rule="evenodd" d="M230.039 1.14453H251.509L250.73 5.9587L239.3 14.7765H249.514L248.524 21.0005H226.695L227.473 16.1919L238.806 7.27253H229.077L230.039 1.14453ZM241.694 6.27253L228.398 16.7365L227.87 20.0005H247.67L248.342 15.7765H236.366L249.806 5.40853L250.334 2.14453H230.894L230.246 6.27253H241.694Z" fill="#F8F8F8"/>
<path fill-rule="evenodd" clip-rule="evenodd" d="M193.927 1.14453L190.778 21.0005H183.305L186.454 1.14453H193.927ZM192.756 2.14453H187.308L184.476 20.0005H189.924L192.756 2.14453Z" fill="#F8F8F8"/>
<path fill-rule="evenodd" clip-rule="evenodd" d="M141.244 20.0005C141.148 19.8085 141.076 19.5445 141.196 18.8005L141.508 16.8325C141.844 14.7205 141.052 13.6645 138.292 13.6645H131.26L130.252 20.0005H124.804L127.636 2.14453H141.796C147.028 2.14453 148.516 4.13653 148.516 6.46453C148.516 8.50171 147.235 9.71514 145.926 10.3944C145.462 10.6354 144.995 10.8091 144.58 10.9285C145.043 11.0714 145.488 11.2645 145.88 11.5202C146.872 12.1667 147.526 13.2137 147.268 14.8645L146.788 17.8645C146.715 18.3501 146.69 18.7167 146.692 19.0005C146.695 19.3839 146.745 19.6161 146.788 19.7859C146.792 19.803 146.796 19.8194 146.8 19.8353C146.804 19.8508 146.808 19.8659 146.812 19.8805L146.788 20.0005H141.244ZM147.777 18.0138C147.776 18.0152 147.776 18.0167 147.776 18.0181C147.689 18.599 147.684 18.9549 147.699 19.1737C147.711 19.3587 147.737 19.4615 147.77 19.589C147.774 19.6049 147.778 19.6211 147.782 19.638L147.837 19.8561L147.608 21.0005H140.626L140.349 20.4477C140.121 19.9906 140.073 19.4859 140.208 18.644M140.209 18.6413L140.52 16.676C140.672 15.7201 140.511 15.3294 140.336 15.1448C140.13 14.9278 139.604 14.6645 138.292 14.6645H132.113L131.105 21.0005H123.633L126.782 1.14453H141.796C144.51 1.14453 146.45 1.65608 147.728 2.63882C149.057 3.6611 149.516 5.07009 149.516 6.46453C149.516 8.75118 148.226 10.1674 146.867 11.0064C147.076 11.1797 147.271 11.3741 147.448 11.5919C148.159 12.4688 148.475 13.6198 148.256 15.0189L148.255 15.0225L147.777 18.0138M133.038 8.70453H140.164C140.884 8.70453 141.242 8.51038 141.411 8.35561C141.578 8.20236 141.66 7.99686 141.66 7.76053C141.66 7.49917 141.591 7.42282 141.554 7.39066C141.493 7.33709 141.273 7.20053 140.668 7.20053H133.285L133.038 8.70453ZM140.164 9.70453C141.964 9.70453 142.66 8.72053 142.66 7.76053C142.66 6.84853 142.132 6.20053 140.668 6.20053H132.436L131.86 9.70453H140.164Z" fill="#F8F8F8"/>
<path fill-rule="evenodd" clip-rule="evenodd" d="M61.8611 10.2301L61.8612 10.2301C62.0873 8.69727 62.6101 6.29426 64.6453 4.29301C66.6915 2.28094 70.1008 0.832031 75.7625 0.832031H76.7945C81.7633 0.832031 84.9676 2.0119 86.937 3.78235C88.9184 5.56358 89.5065 7.8128 89.5065 9.63203C89.5065 10.2805 89.4817 10.9804 89.3764 11.7175L89.3756 11.7229C89.1389 13.3178 88.6189 15.7699 86.5856 17.8031C84.5385 19.8503 81.1255 21.312 75.4505 21.312H74.4185C69.4085 21.312 66.2051 20.0935 64.25 18.2827C62.2871 16.4647 61.7305 14.1876 61.7305 12.392V12.3873C61.7305 11.8264 61.7305 11.1709 61.86 10.2385L61.8611 10.2301ZM80.802 8.23483C80.0509 7.65743 78.6447 7.15203 76.0985 7.15203C73.2692 7.15203 71.6911 7.78323 70.8165 8.50034C69.9606 9.20206 69.6514 10.0907 69.5833 10.9116C69.5628 11.1801 69.5625 11.3854 69.5625 11.648C69.5625 12.4154 69.7877 13.183 70.4791 13.7803C71.1957 14.3992 72.5646 14.968 75.1385 14.968C77.9147 14.968 79.4677 14.3392 80.3463 13.609C81.2132 12.8884 81.5607 11.9549 81.6832 11.0359C81.7277 10.7024 81.7465 10.4853 81.7465 10.208C81.7465 9.4704 81.508 8.77758 80.802 8.23483ZM68.5865 10.832C68.7545 8.79203 70.1705 6.15203 76.0985 6.15203C81.4025 6.15203 82.7465 8.24003 82.7465 10.208C82.7465 10.544 82.7225 10.808 82.6745 11.168C82.3865 13.328 80.9705 15.968 75.1385 15.968C69.7385 15.968 68.5625 13.592 68.5625 11.648C68.5625 11.384 68.5625 11.144 68.5865 10.832ZM62.7305 12.392C62.7305 15.584 64.6985 20.312 74.4185 20.312H75.4505C86.4665 20.312 87.9305 14.648 88.3865 11.576C88.4825 10.904 88.5065 10.256 88.5065 9.63203C88.5065 6.41603 86.4425 1.83203 76.7945 1.83203H75.7625C64.7705 1.83203 63.2825 7.44803 62.8505 10.376C62.7305 11.24 62.7305 11.84 62.7305 12.392Z" fill="#F8F8F8"/>
<path fill-rule="evenodd" clip-rule="evenodd" d="M0.0703125 21.0005L3.21952 1.14453H10.6926L9.6606 7.64853H19.1316L20.1636 1.14453H27.6365L24.4873 21.0005H17.0162L18.1202 13.9685H8.64867L7.54467 21.0005H0.0703125ZM7.79341 12.9685H19.2894L18.1854 20.0005H23.6334L26.4654 2.14453H21.0174L19.9854 8.64853H8.48941L9.52141 2.14453H4.07341L1.24141 20.0005H6.68941L7.79341 12.9685Z" fill="#F8F8F8"/>
</svg>
