<svg width="612" height="57" viewBox="0 0 612 57" fill="none" xmlns="http://www.w3.org/2000/svg">
<mask id="path-1-outside-1_747_10636" maskUnits="userSpaceOnUse" x="-3" y="-1.58398" width="617" height="61" fill="black">
<rect fill="white" x="-3" y="-1.58398" width="617" height="61"/>
<path d="M12.696 22.224H0.528L2.184 12.144C11.4 11.352 15.72 7.53601 18.744 1.84801H32.136L23.64 55.416H7.44L12.696 22.224ZM38.454 1.84801H99.366L97.566 13.296C95.55 15.312 88.422 22.512 83.454 28.848C76.038 38.352 74.094 45.552 73.086 54.768L73.014 55.416H53.574L54.654 48.648C56.022 40.008 58.974 35.112 70.134 24.672C77.334 17.904 80.286 15.168 80.358 13.944H52.998L51.27 24.96H34.782L38.454 1.84801ZM103.282 1.84801H164.194L162.394 13.296C160.378 15.312 153.25 22.512 148.282 28.848C140.866 38.352 138.922 45.552 137.914 54.768L137.842 55.416H118.402L119.482 48.648C120.85 40.008 123.802 35.112 134.962 24.672C142.162 17.904 145.114 15.168 145.186 13.944H117.826L116.098 24.96H99.6101L103.282 1.84801ZM175.814 25.392C173.51 25.392 171.494 24.936 169.766 24.024C168.086 23.064 166.766 21.768 165.806 20.136C164.846 18.456 164.366 16.536 164.366 14.376C164.366 12.168 164.822 10.248 165.734 8.61601C166.694 6.93601 168.014 5.64001 169.694 4.72801C171.422 3.76801 173.462 3.28801 175.814 3.28801C178.07 3.28801 180.062 3.76801 181.79 4.72801C183.518 5.64001 184.862 6.93601 185.822 8.61601C186.782 10.248 187.262 12.168 187.262 14.376C187.262 16.536 186.782 18.456 185.822 20.136C184.862 21.768 183.518 23.064 181.79 24.024C180.062 24.936 178.07 25.392 175.814 25.392ZM175.886 21.144C177.422 21.144 178.67 20.856 179.63 20.28C180.638 19.704 181.382 18.912 181.862 17.904C182.342 16.896 182.582 15.72 182.582 14.376C182.582 12.264 182.006 10.584 180.854 9.33601C179.75 8.08801 178.094 7.46402 175.886 7.46402C173.534 7.46402 171.806 8.08801 170.702 9.33601C169.598 10.584 169.046 12.264 169.046 14.376C169.046 16.392 169.598 18.024 170.702 19.272C171.806 20.52 173.534 21.144 175.886 21.144ZM237.927 1.84801L229.431 55.416H213.087L221.583 1.84801H237.927ZM245.489 1.84801H263.705L291.065 36.264L296.465 1.84801H312.593L304.097 55.416H288.041L258.809 19.272L253.121 55.416H236.993L245.489 1.84801ZM333.333 34.176L374.661 1.63201H392.157L387.333 31.872H397.845L395.901 44.328H385.389L383.589 55.416H367.461L369.261 44.328H331.749L333.333 34.176ZM371.133 31.872L373.869 15.168L352.557 31.872H371.133ZM415.267 55.416H398.923L407.419 1.84801H423.763L420.235 24.096L449.755 1.84801H471.283L437.299 27.12L464.227 55.416H443.419L419.299 30.144L415.267 55.416ZM501.424 56.496H498.328C475.792 56.496 467.944 46.848 467.944 33.744C467.944 31.656 468.088 29.568 468.376 27.336C469.96 15.096 477.592 0.912014 502.648 0.912014H505.384C529.072 0.912014 533.968 10.416 533.968 17.976H517.12C516.832 17.184 515.608 13.296 503.8 13.296C488.68 13.296 485.8 22.08 485.296 26.112C486.88 24.96 491.2 20.928 506.752 20.928H507.544C527.848 20.928 533.176 27.984 533.176 36.192C533.176 37.056 533.176 37.992 532.96 39.36C531.952 46.272 527.56 56.496 501.424 56.496ZM485.44 38.496C485.44 41.016 487.96 44.328 499.84 44.328C514.96 44.328 515.968 39.72 515.968 37.416C515.968 35.256 514.456 32.16 501.64 32.16C487.096 32.16 485.44 36.12 485.44 38.496ZM611.298 24.312C611.298 26.256 611.226 28.272 610.866 30.432C609.282 39.72 604.602 56.352 573.498 56.352H570.402C542.754 56.352 536.706 42.168 536.706 32.592C536.706 31.008 536.706 29.28 537.066 26.688C538.29 17.616 543.33 0.912014 574.578 0.912014H577.602C604.89 0.912014 611.298 14.664 611.298 24.312ZM594.018 26.04C594.018 20.136 589.914 13.872 575.586 13.872C559.026 13.872 555.354 21.576 554.418 27.336C554.202 28.704 554.202 29.424 554.202 30.36C554.202 36.192 557.73 43.32 572.562 43.32C588.69 43.32 592.866 35.472 593.802 28.992C593.946 27.984 594.018 27.048 594.018 26.04Z"/>
</mask>
<path d="M12.696 22.224L15.0031 22.5893L15.4309 19.8881H12.696V22.224ZM0.528 22.224L-1.77697 21.8453L-2.22293 24.5599H0.528V22.224ZM2.184 12.144L1.984 9.81672L0.1736 9.97231L-0.12097 11.7653L2.184 12.144ZM18.744 1.84801V-0.487854H17.3404L16.6815 0.751493L18.744 1.84801ZM32.136 1.84801L34.443 2.21391L34.8715 -0.487854H32.136V1.84801ZM23.64 55.416V57.7519H25.6346L25.947 55.7819L23.64 55.416ZM7.44 55.416L5.13288 55.0507L4.70514 57.7519H7.44V55.416ZM12.696 19.8881H0.528V24.5599H12.696V19.8881ZM2.83297 22.6027L4.48897 12.5227L-0.12097 11.7653L-1.77697 21.8453L2.83297 22.6027ZM2.384 14.4713C7.28312 14.0503 11.0762 12.8069 14.094 10.7673C17.114 8.72622 19.1773 6.00908 20.8065 2.94454L16.6815 0.751493C15.2867 3.37495 13.678 5.4098 11.478 6.89671C9.27578 8.3851 6.30088 9.44574 1.984 9.81672L2.384 14.4713ZM18.744 4.18388H32.136V-0.487854H18.744V4.18388ZM29.829 1.48211L21.333 55.0501L25.947 55.7819L34.443 2.21391L29.829 1.48211ZM23.64 53.0801H7.44V57.7519H23.64V53.0801ZM9.74712 55.7814L15.0031 22.5893L10.3889 21.8587L5.13288 55.0507L9.74712 55.7814ZM38.454 1.84801V-0.487854H36.46L36.1471 1.48149L38.454 1.84801ZM99.366 1.84801L101.674 2.21083L102.098 -0.487854H99.366V1.84801ZM97.566 13.296L99.2177 14.9477L99.7554 14.41L99.8735 13.6588L97.566 13.296ZM83.454 28.848L81.6158 27.4067L81.6124 27.411L83.454 28.848ZM73.086 54.768L75.4076 55.026L75.408 55.022L73.086 54.768ZM73.014 55.416V57.7519H75.1047L75.3356 55.674L73.014 55.416ZM53.574 55.416L51.2673 55.0479L50.8358 57.7519H53.574V55.416ZM54.654 48.648L56.9607 49.0161L56.9611 49.0133L54.654 48.648ZM70.134 24.672L71.7298 26.3778L71.7339 26.374L70.134 24.672ZM80.358 13.944L82.6898 14.0812L82.8353 11.6081H80.358V13.944ZM52.998 13.944V11.6081H51L50.6904 13.582L52.998 13.944ZM51.27 24.96V27.2959H53.268L53.5777 25.322L51.27 24.96ZM34.782 24.96L32.4751 24.5935L32.0457 27.2959H34.782V24.96ZM38.454 4.18388H99.366V-0.487854H38.454V4.18388ZM97.0585 1.4852L95.2585 12.9332L99.8735 13.6588L101.674 2.21083L97.0585 1.4852ZM95.9143 11.6443C93.9013 13.6573 86.6808 20.947 81.6158 27.4067L85.2922 30.2893C90.1632 24.077 97.1988 16.9667 99.2177 14.9477L95.9143 11.6443ZM81.6124 27.411C73.8732 37.3293 71.8081 44.9679 70.764 54.514L75.408 55.022C76.3799 46.1361 78.2028 39.3747 85.2956 30.285L81.6124 27.411ZM70.7644 54.5101L70.6924 55.1581L75.3356 55.674L75.4076 55.026L70.7644 54.5101ZM73.014 53.0801H53.574V57.7519H73.014V53.0801ZM55.8807 55.7841L56.9607 49.0161L52.3473 48.2799L51.2673 55.0479L55.8807 55.7841ZM56.9611 49.0133C57.6085 44.9249 58.601 41.8655 60.6909 38.5919C62.8301 35.241 66.1787 31.5708 71.7298 26.3778L68.5382 22.9662C62.9293 28.2133 59.2219 32.2111 56.7531 36.0781C54.235 40.0225 53.0675 43.7311 52.3469 48.2827L56.9611 49.0133ZM71.7339 26.374C75.3114 23.0111 77.8978 20.5904 79.5885 18.8628C80.4307 18.0022 81.1191 17.245 81.6137 16.5833C82.0344 16.0203 82.6279 15.1342 82.6898 14.0812L78.0262 13.8068C78.0521 13.3659 78.2496 13.2807 77.8716 13.7865C77.5674 14.1935 77.0543 14.7729 76.2495 15.5953C74.6462 17.2337 72.1566 19.5649 68.5341 22.97L71.7339 26.374ZM80.358 11.6081H52.998V16.2799H80.358V11.6081ZM50.6904 13.582L48.9624 24.598L53.5777 25.322L55.3057 14.306L50.6904 13.582ZM51.27 22.6241H34.782V27.2959H51.27V22.6241ZM37.0889 25.3265L40.7609 2.21454L36.1471 1.48149L32.4751 24.5935L37.0889 25.3265ZM103.282 1.84801V-0.487854H101.288L100.975 1.48149L103.282 1.84801ZM164.194 1.84801L166.502 2.21083L166.926 -0.487854H164.194V1.84801ZM162.394 13.296L164.046 14.9477L164.584 14.41L164.702 13.6588L162.394 13.296ZM148.282 28.848L146.444 27.4067L146.441 27.411L148.282 28.848ZM137.914 54.768L140.236 55.026L140.236 55.022L137.914 54.768ZM137.842 55.416V57.7519H139.933L140.164 55.674L137.842 55.416ZM118.402 55.416L116.095 55.0479L115.664 57.7519H118.402V55.416ZM119.482 48.648L121.789 49.0161L121.789 49.0133L119.482 48.648ZM134.962 24.672L136.558 26.3778L136.562 26.374L134.962 24.672ZM145.186 13.944L147.518 14.0812L147.663 11.6081H145.186V13.944ZM117.826 13.944V11.6081H115.828L115.518 13.582L117.826 13.944ZM116.098 24.96V27.2959H118.096L118.406 25.322L116.098 24.96ZM99.6101 24.96L97.3032 24.5935L96.8738 27.2959H99.6101V24.96ZM103.282 4.18388H164.194V-0.487854H103.282V4.18388ZM161.887 1.4852L160.087 12.9332L164.702 13.6588L166.502 2.21083L161.887 1.4852ZM160.742 11.6443C158.729 13.6573 151.509 20.947 146.444 27.4067L150.12 30.2893C154.991 24.077 162.027 16.9667 164.046 14.9477L160.742 11.6443ZM146.441 27.411C138.701 37.3293 136.636 44.9679 135.592 54.514L140.236 55.022C141.208 46.1361 143.031 39.3747 150.124 30.285L146.441 27.411ZM135.593 54.5101L135.521 55.1581L140.164 55.674L140.236 55.026L135.593 54.5101ZM137.842 53.0801H118.402V57.7519H137.842V53.0801ZM120.709 55.7841L121.789 49.0161L117.175 48.2799L116.095 55.0479L120.709 55.7841ZM121.789 49.0133C122.437 44.9249 123.429 41.8655 125.519 38.5919C127.658 35.241 131.007 31.5708 136.558 26.3778L133.366 22.9662C127.757 28.2133 124.05 32.2111 121.581 36.0781C119.063 40.0225 117.896 43.7311 117.175 48.2827L121.789 49.0133ZM136.562 26.374C140.14 23.0111 142.726 20.5904 144.417 18.8628C145.259 18.0022 145.947 17.245 146.442 16.5833C146.863 16.0203 147.456 15.1342 147.518 14.0812L142.854 13.8068C142.88 13.3659 143.078 13.2807 142.7 13.7865C142.396 14.1935 141.882 14.7729 141.078 15.5953C139.474 17.2337 136.985 19.5649 133.362 22.97L136.562 26.374ZM145.186 11.6081H117.826V16.2799H145.186V11.6081ZM115.518 13.582L113.79 24.598L118.406 25.322L120.134 14.306L115.518 13.582ZM116.098 22.6241H99.6101V27.2959H116.098V22.6241ZM101.917 25.3265L105.589 2.21454L100.975 1.48149L97.3032 24.5935L101.917 25.3265ZM169.766 24.024L168.607 26.0521L168.641 26.0715L168.676 26.0898L169.766 24.024ZM165.806 20.136L163.778 21.2949L163.785 21.3077L163.793 21.3203L165.806 20.136ZM165.734 8.61601L163.706 7.4571L163.701 7.46679L163.695 7.47653L165.734 8.61601ZM169.694 4.72801L170.809 6.7809L170.819 6.77546L170.829 6.76993L169.694 4.72801ZM181.79 4.72801L180.656 6.76993L180.678 6.78211L180.7 6.79382L181.79 4.72801ZM185.822 8.61601L183.794 9.77493L183.801 9.78768L183.809 9.80035L185.822 8.61601ZM185.822 20.136L187.836 21.3203L187.843 21.3077L187.85 21.2949L185.822 20.136ZM181.79 24.024L182.881 26.0898L182.903 26.0781L182.925 26.0659L181.79 24.024ZM179.63 20.28L178.471 18.2519L178.45 18.2642L178.428 18.277L179.63 20.28ZM181.862 17.904L179.753 16.8997L179.753 16.8997L181.862 17.904ZM180.854 9.33601L179.105 10.8837L179.121 10.9022L179.138 10.9204L180.854 9.33601ZM170.702 9.33601L168.953 7.78833L168.953 7.78833L170.702 9.33601ZM170.702 19.272L172.452 17.7243L172.452 17.7243L170.702 19.272ZM175.814 23.0561C173.822 23.0561 172.193 22.6636 170.857 21.9582L168.676 26.0898C170.795 27.2084 173.198 27.7279 175.814 27.7279V23.0561ZM170.925 21.9959C169.591 21.2333 168.569 20.2248 167.82 18.9517L163.793 21.3203C164.964 23.3112 166.582 24.8948 168.607 26.0521L170.925 21.9959ZM167.834 18.9771C167.099 17.6898 166.702 16.1778 166.702 14.376H162.03C162.03 16.8942 162.594 19.2223 163.778 21.2949L167.834 18.9771ZM166.702 14.376C166.702 12.4945 167.088 10.981 167.773 9.7555L163.695 7.47653C162.556 9.51498 162.03 11.8415 162.03 14.376H166.702ZM167.762 9.77493C168.51 8.4672 169.515 7.483 170.809 6.7809L168.58 2.67513C166.513 3.79703 164.879 5.40482 163.706 7.4571L167.762 9.77493ZM170.829 6.76993C172.149 6.03628 173.784 5.62388 175.814 5.62388V0.952144C173.141 0.952144 170.695 1.49974 168.56 2.68609L170.829 6.76993ZM175.814 5.62388C177.73 5.62388 179.321 6.02854 180.656 6.76993L182.925 2.68609C180.803 1.50749 178.41 0.952144 175.814 0.952144V5.62388ZM180.7 6.79382C182.04 7.50087 183.057 8.48414 183.794 9.77493L187.85 7.4571C186.668 5.38788 184.997 3.77915 182.881 2.6622L180.7 6.79382ZM183.809 9.80035C184.525 11.0175 184.926 12.5145 184.926 14.376H189.598C189.598 11.8215 189.04 9.47852 187.836 7.43168L183.809 9.80035ZM184.926 14.376C184.926 16.1778 184.53 17.6898 183.794 18.9771L187.85 21.2949C189.035 19.2223 189.598 16.8942 189.598 14.376H184.926ZM183.809 18.9517C183.07 20.2084 182.036 21.2152 180.656 21.9821L182.925 26.0659C185 24.9129 186.655 23.3276 187.836 21.3203L183.809 18.9517ZM180.7 21.9582C179.357 22.6672 177.749 23.0561 175.814 23.0561V27.7279C178.391 27.7279 180.768 27.2048 182.881 26.0898L180.7 21.9582ZM175.886 23.4799C177.694 23.4799 179.398 23.1433 180.832 22.283L178.428 18.277C177.942 18.5687 177.15 18.8081 175.886 18.8081V23.4799ZM180.789 22.3081C182.193 21.5057 183.278 20.3643 183.971 18.9083L179.753 16.8997C179.487 17.4597 179.083 17.9023 178.471 18.2519L180.789 22.3081ZM183.971 18.9083C184.628 17.5291 184.918 15.9977 184.918 14.376H180.246C180.246 15.4423 180.057 16.2629 179.753 16.8997L183.971 18.9083ZM184.918 14.376C184.918 11.8263 184.212 9.52966 182.571 7.75164L179.138 10.9204C179.801 11.6384 180.246 12.7017 180.246 14.376H184.918ZM182.604 7.78833C180.924 5.8895 178.534 5.12815 175.886 5.12815V9.79988C177.655 9.79988 178.576 10.2865 179.105 10.8837L182.604 7.78833ZM175.886 5.12815C173.149 5.12815 170.659 5.85971 168.953 7.78833L172.452 10.8837C172.954 10.3163 173.919 9.79988 175.886 9.79988V5.12815ZM168.953 7.78833C167.378 9.56819 166.71 11.8513 166.71 14.376H171.382C171.382 12.6767 171.818 11.5998 172.452 10.8837L168.953 7.78833ZM166.71 14.376C166.71 16.8367 167.395 19.0592 168.953 20.8197L172.452 17.7243C171.801 16.9888 171.382 15.9473 171.382 14.376H166.71ZM168.953 20.8197C170.659 22.7483 173.149 23.4799 175.886 23.4799V18.8081C173.919 18.8081 172.954 18.2917 172.452 17.7243L168.953 20.8197ZM237.927 1.84801L240.234 2.21391L240.663 -0.487854H237.927V1.84801ZM229.431 55.416V57.7519H231.426L231.738 55.7819L229.431 55.416ZM213.087 55.416L210.78 55.0501L210.352 57.7519H213.087V55.416ZM221.583 1.84801V-0.487854H219.589L219.276 1.48211L221.583 1.84801ZM235.62 1.48211L227.124 55.0501L231.738 55.7819L240.234 2.21391L235.62 1.48211ZM229.431 53.0801H213.087V57.7519H229.431V53.0801ZM215.394 55.7819L223.89 2.21391L219.276 1.48211L210.78 55.0501L215.394 55.7819ZM221.583 4.18388H237.927V-0.487854H221.583V4.18388ZM245.489 1.84801V-0.487854H243.495L243.182 1.48211L245.489 1.84801ZM263.705 1.84801L265.534 0.394413L264.833 -0.487854H263.705V1.84801ZM291.065 36.264L289.237 37.7176L292.548 41.8829L293.373 36.6261L291.065 36.264ZM296.465 1.84801V-0.487854H294.467L294.158 1.48594L296.465 1.84801ZM312.593 1.84801L314.9 2.21391L315.329 -0.487854H312.593V1.84801ZM304.097 55.416V57.7519H306.092L306.404 55.7819L304.097 55.416ZM288.041 55.416L286.225 56.8849L286.926 57.7519H288.041V55.416ZM258.809 19.272L260.626 17.8031L257.319 13.715L256.502 18.9089L258.809 19.272ZM253.121 55.416V57.7519H255.118L255.429 55.7791L253.121 55.416ZM236.993 55.416L234.686 55.0501L234.258 57.7519H236.993V55.416ZM245.489 4.18388H263.705V-0.487854H245.489V4.18388ZM261.877 3.30162L289.237 37.7176L292.894 34.8104L265.534 0.394413L261.877 3.30162ZM293.373 36.6261L298.773 2.21009L294.158 1.48594L288.758 35.9019L293.373 36.6261ZM296.465 4.18388H312.593V-0.487854H296.465V4.18388ZM310.286 1.48211L301.79 55.0501L306.404 55.7819L314.9 2.21391L310.286 1.48211ZM304.097 53.0801H288.041V57.7519H304.097V53.0801ZM289.858 53.9471L260.626 17.8031L256.993 20.7409L286.225 56.8849L289.858 53.9471ZM256.502 18.9089L250.814 55.0529L255.429 55.7791L261.117 19.6351L256.502 18.9089ZM253.121 53.0801H236.993V57.7519H253.121V53.0801ZM239.3 55.7819L247.796 2.21391L243.182 1.48211L234.686 55.0501L239.3 55.7819ZM333.333 34.176L331.888 32.3408L331.167 32.9088L331.025 33.8159L333.333 34.176ZM374.661 1.63201V-0.703856H373.852L373.216 -0.203169L374.661 1.63201ZM392.157 1.63201L394.464 1.99999L394.895 -0.703856H392.157V1.63201ZM387.333 31.872L385.027 31.504L384.595 34.2079H387.333V31.872ZM397.845 31.872L400.153 32.2322L400.574 29.5361H397.845V31.872ZM395.901 44.328V46.6639H397.901L398.209 44.6882L395.901 44.328ZM385.389 44.328V41.9921H383.402L383.084 43.9537L385.389 44.328ZM383.589 55.416V57.7519H385.577L385.895 55.7903L383.589 55.416ZM367.461 55.416L365.156 55.0417L364.716 57.7519H367.461V55.416ZM369.261 44.328L371.567 44.7023L372.007 41.9921H369.261V44.328ZM331.749 44.328L329.441 43.9679L329.021 46.6639H331.749V44.328ZM371.133 31.872V34.2079H373.118L373.439 32.2496L371.133 31.872ZM373.869 15.168L376.175 15.5456L377.143 9.63457L372.428 13.3296L373.869 15.168ZM352.557 31.872L351.116 30.0336L345.791 34.2079H352.557V31.872ZM334.779 36.0112L376.107 3.4672L373.216 -0.203169L331.888 32.3408L334.779 36.0112ZM374.661 3.96788H392.157V-0.703856H374.661V3.96788ZM389.851 1.26404L385.027 31.504L389.64 32.24L394.464 1.99999L389.851 1.26404ZM387.333 34.2079H397.845V29.5361H387.333V34.2079ZM395.537 31.5118L393.593 43.9678L398.209 44.6882L400.153 32.2322L395.537 31.5118ZM395.901 41.9921H385.389V46.6639H395.901V41.9921ZM383.084 43.9537L381.284 55.0417L385.895 55.7903L387.695 44.7023L383.084 43.9537ZM383.589 53.0801H367.461V57.7519H383.589V53.0801ZM369.767 55.7903L371.567 44.7023L366.956 43.9537L365.156 55.0417L369.767 55.7903ZM369.261 41.9921H331.749V46.6639H369.261V41.9921ZM334.057 44.6881L335.641 34.5361L331.025 33.8159L329.441 43.9679L334.057 44.6881ZM373.439 32.2496L376.175 15.5456L371.564 14.7904L368.828 31.4944L373.439 32.2496ZM372.428 13.3296L351.116 30.0336L353.998 33.7105L375.31 17.0065L372.428 13.3296ZM352.557 34.2079H371.133V29.5361H352.557V34.2079ZM415.267 55.416V57.7519H417.26L417.574 55.784L415.267 55.416ZM398.923 55.416L396.616 55.0501L396.188 57.7519H398.923V55.416ZM407.419 1.84801V-0.487854H405.425L405.112 1.48211L407.419 1.84801ZM423.763 1.84801L426.07 2.21386L426.499 -0.487854H423.763V1.84801ZM420.235 24.096L417.928 23.7302L417.022 29.4424L421.641 25.9614L420.235 24.096ZM449.755 1.84801V-0.487854H448.973L448.349 -0.0173998L449.755 1.84801ZM471.283 1.84801L472.677 3.72241L478.339 -0.487854H471.283V1.84801ZM437.299 27.12L435.905 25.2456L433.789 26.8196L435.607 28.7303L437.299 27.12ZM464.227 55.416V57.7519H469.675L465.919 53.8057L464.227 55.416ZM443.419 55.416L441.729 57.0288L442.42 57.7519H443.419V55.416ZM419.299 30.144L420.989 28.5313L417.735 25.1219L416.992 29.776L419.299 30.144ZM415.267 53.0801H398.923V57.7519H415.267V53.0801ZM401.23 55.7819L409.726 2.21391L405.112 1.48211L396.616 55.0501L401.23 55.7819ZM407.419 4.18388H423.763V-0.487854H407.419V4.18388ZM421.456 1.48217L417.928 23.7302L422.542 24.4619L426.07 2.21386L421.456 1.48217ZM421.641 25.9614L451.161 3.71343L448.349 -0.0173998L418.829 22.2306L421.641 25.9614ZM449.755 4.18388H471.283V-0.487854H449.755V4.18388ZM469.889 -0.0263837L435.905 25.2456L438.693 28.9944L472.677 3.72241L469.889 -0.0263837ZM435.607 28.7303L462.535 57.0263L465.919 53.8057L438.991 25.5097L435.607 28.7303ZM464.227 53.0801H443.419V57.7519H464.227V53.0801ZM445.109 53.8033L420.989 28.5313L417.609 31.7568L441.729 57.0288L445.109 53.8033ZM416.992 29.776L412.96 55.048L417.574 55.784L421.606 30.512L416.992 29.776ZM468.376 27.336L466.059 27.0362L466.059 27.0371L468.376 27.336ZM533.968 17.976V20.3119H536.303V17.976H533.968ZM517.12 17.976L514.924 18.7743L515.483 20.3119H517.12V17.976ZM485.296 26.112L482.978 25.8223L482.309 31.1724L486.669 28.0011L485.296 26.112ZM532.96 39.36L530.652 38.9957L530.65 39.0093L530.648 39.0229L532.96 39.36ZM501.424 54.1601H498.328V58.8319H501.424V54.1601ZM498.328 54.1601C487.34 54.1601 480.382 51.8006 476.195 48.252C472.079 44.7642 470.279 39.8165 470.279 33.744H465.608C465.608 40.7755 467.732 47.2039 473.174 51.816C478.545 56.3674 486.779 58.8319 498.328 58.8319V54.1601ZM470.279 33.744C470.279 31.7667 470.416 29.779 470.692 27.6349L466.059 27.0371C465.76 29.357 465.608 31.5453 465.608 33.744H470.279ZM470.692 27.6358C471.441 21.8502 473.594 15.8055 478.335 11.2115C483.041 6.65124 490.577 3.24788 502.648 3.24788V-1.42386C489.662 -1.42386 480.854 2.26479 475.084 7.85657C469.349 13.4145 466.894 20.5819 466.059 27.0362L470.692 27.6358ZM502.648 3.24788H505.384V-1.42386H502.648V3.24788ZM505.384 3.24788C516.975 3.24788 523.508 5.58289 527.107 8.43877C530.608 11.2172 531.632 14.7319 531.632 17.976H536.303C536.303 13.6602 534.879 8.64281 530.011 4.77926C525.239 0.993139 517.48 -1.42386 505.384 -1.42386V3.24788ZM533.968 15.6401H517.12V20.3119H533.968V15.6401ZM519.315 17.1777C519.237 16.9629 519.018 16.3087 518.478 15.5534C517.941 14.8008 517.145 14.0212 515.965 13.3264C513.645 11.9595 509.915 10.9601 503.8 10.9601V15.6319C509.492 15.6319 512.278 16.5765 513.594 17.3516C514.233 17.7279 514.534 18.0687 514.676 18.2679C514.816 18.4643 514.858 18.5931 514.924 18.7743L519.315 17.1777ZM503.8 10.9601C495.765 10.9601 490.613 13.31 487.407 16.5486C484.246 19.7407 483.268 23.5038 482.978 25.8223L487.613 26.4017C487.828 24.6882 488.541 22.0433 490.727 19.8354C492.866 17.674 496.715 15.6319 503.8 15.6319V10.9601ZM486.669 28.0011C487.499 27.3978 488.715 26.3091 491.572 25.2875C494.482 24.2472 499.171 23.2639 506.752 23.2639V18.5921C498.78 18.5921 493.534 19.6248 489.999 20.8885C486.412 22.171 484.676 23.6743 483.922 24.2229L486.669 28.0011ZM506.752 23.2639H507.544V18.5921H506.752V23.2639ZM507.544 23.2639C517.504 23.2639 523.323 25.0092 526.608 27.3768C529.733 29.6298 530.84 32.6539 530.84 36.192H535.511C535.511 31.5221 533.954 26.9142 529.34 23.5872C524.884 20.3749 517.887 18.5921 507.544 18.5921V23.2639ZM530.84 36.192C530.84 37.0275 530.839 37.8146 530.652 38.9957L535.267 39.7243C535.512 38.1695 535.511 37.0845 535.511 36.192H530.84ZM530.648 39.0229C530.195 42.1274 529.033 45.7425 525.199 48.6616C521.281 51.6453 514.238 54.1601 501.424 54.1601V58.8319C514.745 58.8319 522.966 56.2347 528.03 52.3784C533.178 48.4575 534.716 43.5046 535.271 39.6971L530.648 39.0229ZM483.104 38.496C483.104 40.7123 484.295 42.91 487.074 44.412C489.693 45.8272 493.752 46.6639 499.84 46.6639V41.9921C494.047 41.9921 490.906 41.1728 489.295 40.302C487.844 39.518 487.775 38.7997 487.775 38.496H483.104ZM499.84 46.6639C507.535 46.6639 512.146 45.5105 514.877 43.6745C516.293 42.7222 517.194 41.5917 517.714 40.4043C518.223 39.2408 518.303 38.1638 518.303 37.416H513.632C513.632 37.8202 513.586 38.1832 513.434 38.5318C513.292 38.8563 512.996 39.3098 512.27 39.7975C510.717 40.8416 507.264 41.9921 499.84 41.9921V46.6639ZM518.303 37.416C518.303 36.5953 518.157 35.5633 517.555 34.518C516.952 33.4709 516.001 32.598 514.699 31.9118C512.198 30.593 508.14 29.8241 501.64 29.8241V34.4959C507.955 34.4959 511.061 35.275 512.52 36.0443C513.199 36.402 513.426 36.7082 513.507 36.849C513.589 36.9918 513.632 37.1568 513.632 37.416H518.303ZM501.64 29.8241C494.246 29.8241 489.692 30.8146 486.919 32.4134C485.486 33.2396 484.49 34.2512 483.872 35.3902C483.258 36.5229 483.104 37.6237 483.104 38.496H487.775C487.775 38.1804 487.828 37.8951 487.979 37.6171C488.126 37.3453 488.453 36.9214 489.252 36.4606C490.944 35.4854 494.489 34.4959 501.64 34.4959V29.8241ZM610.866 30.432L613.168 30.8247L613.17 30.816L610.866 30.432ZM537.066 26.688L539.379 27.0094L539.381 27.0003L537.066 26.688ZM554.418 27.336L552.112 26.9613L552.111 26.9717L554.418 27.336ZM593.802 28.992L596.114 29.326L596.114 29.3224L593.802 28.992ZM608.962 24.312C608.962 26.2001 608.891 28.0708 608.562 30.048L613.17 30.816C613.56 28.4733 613.634 26.3119 613.634 24.312H608.962ZM608.563 30.0393C607.793 34.5552 606.327 40.4392 601.59 45.2332C596.899 49.9808 588.631 54.0161 573.498 54.0161V58.6879C589.469 58.6879 599.093 54.4072 604.913 48.5169C610.688 42.6728 612.355 35.5968 613.168 30.8247L608.563 30.0393ZM573.498 54.0161H570.402V58.6879H573.498V54.0161ZM570.402 54.0161C556.96 54.0161 549.197 50.5721 544.799 46.3735C540.401 42.1752 539.042 36.9098 539.042 32.592H534.37C534.37 37.8503 536.034 44.4648 541.573 49.7525C547.111 55.0399 556.195 58.6879 570.402 58.6879V54.0161ZM539.042 32.592C539.042 31.0364 539.042 29.438 539.379 27.0094L534.752 26.3667C534.369 29.1221 534.37 30.9796 534.37 32.592H539.042ZM539.381 27.0003C539.964 22.6775 541.422 16.834 546.213 12.0511C550.97 7.30263 559.371 3.24788 574.578 3.24788V-1.42386C558.536 -1.42386 548.794 2.8734 542.913 8.74491C537.066 14.582 535.392 21.6265 534.751 26.3757L539.381 27.0003ZM574.578 3.24788H577.602V-1.42386H574.578V3.24788ZM577.602 3.24788C590.873 3.24788 598.65 6.58924 603.095 10.7076C607.533 14.8182 608.962 19.9907 608.962 24.312H613.634C613.634 18.9853 611.859 12.4578 606.27 7.28044C600.69 2.11078 591.619 -1.42386 577.602 -1.42386V3.24788ZM596.354 26.04C596.354 22.52 595.108 18.7592 591.654 15.9339C588.264 13.1619 583.047 11.5361 575.586 11.5361V16.2079C582.452 16.2079 586.451 17.7141 588.696 19.5501C590.876 21.3328 591.682 23.6561 591.682 26.04H596.354ZM575.586 11.5361C566.963 11.5361 561.293 13.5425 557.628 16.6661C553.95 19.8005 552.631 23.7701 552.112 26.9614L556.723 27.7107C557.141 25.1419 558.126 22.3795 560.658 20.2219C563.202 18.0535 567.648 16.2079 575.586 16.2079V11.5361ZM552.111 26.9717C551.867 28.5156 551.866 29.3751 551.866 30.36H556.538C556.538 29.4729 556.537 28.8924 556.725 27.7003L552.111 26.9717ZM551.866 30.36C551.866 33.74 552.898 37.6805 556.24 40.748C559.558 43.7924 564.803 45.6559 572.562 45.6559V40.9841C565.488 40.9841 561.554 39.2837 559.399 37.3061C557.27 35.3515 556.538 32.812 556.538 30.36H551.866ZM572.562 45.6559C580.993 45.6559 586.684 43.6014 590.415 40.3461C594.147 37.0892 595.596 32.9113 596.114 29.326L591.49 28.6581C591.072 31.5527 589.964 34.5389 587.343 36.8259C584.72 39.1146 580.259 40.9841 572.562 40.9841V45.6559ZM596.114 29.3224C596.272 28.2144 596.354 27.1677 596.354 26.04H591.682C591.682 26.9283 591.619 27.7537 591.489 28.6617L596.114 29.3224Z" fill="#F8F8F8" mask="url(#path-1-outside-1_747_10636)"/>
</svg>
