<svg width="612" height="57" viewBox="0 0 612 57" fill="none" xmlns="http://www.w3.org/2000/svg">
<path d="M12.696 21.808H0.528L2.184 11.728C11.4 10.936 15.72 7.12 18.744 1.432H32.136L23.64 55H7.44L12.696 21.808ZM38.454 1.432H99.366L97.566 12.88C95.55 14.896 88.422 22.096 83.454 28.432C76.038 37.936 74.094 45.136 73.086 54.352L73.014 55H53.574L54.654 48.232C56.022 39.592 58.974 34.696 70.134 24.256C77.334 17.488 80.286 14.752 80.358 13.528H52.998L51.27 24.544H34.782L38.454 1.432ZM103.282 1.432H164.194L162.394 12.88C160.378 14.896 153.25 22.096 148.282 28.432C140.866 37.936 138.922 45.136 137.914 54.352L137.842 55H118.402L119.482 48.232C120.85 39.592 123.802 34.696 134.962 24.256C142.162 17.488 145.114 14.752 145.186 13.528H117.826L116.098 24.544H99.6101L103.282 1.432ZM175.814 24.976C173.51 24.976 171.494 24.52 169.766 23.608C168.086 22.648 166.766 21.352 165.806 19.72C164.846 18.04 164.366 16.12 164.366 13.96C164.366 11.752 164.822 9.832 165.734 8.2C166.694 6.52 168.014 5.224 169.694 4.312C171.422 3.352 173.462 2.872 175.814 2.872C178.07 2.872 180.062 3.352 181.79 4.312C183.518 5.224 184.862 6.52 185.822 8.2C186.782 9.832 187.262 11.752 187.262 13.96C187.262 16.12 186.782 18.04 185.822 19.72C184.862 21.352 183.518 22.648 181.79 23.608C180.062 24.52 178.07 24.976 175.814 24.976ZM175.886 20.728C177.422 20.728 178.67 20.44 179.63 19.864C180.638 19.288 181.382 18.496 181.862 17.488C182.342 16.48 182.582 15.304 182.582 13.96C182.582 11.848 182.006 10.168 180.854 8.92C179.75 7.672 178.094 7.048 175.886 7.048C173.534 7.048 171.806 7.672 170.702 8.92C169.598 10.168 169.046 11.848 169.046 13.96C169.046 15.976 169.598 17.608 170.702 18.856C171.806 20.104 173.534 20.728 175.886 20.728ZM237.927 1.432L229.431 55H213.087L221.583 1.432H237.927ZM245.489 1.432H263.705L291.065 35.848L296.465 1.432H312.593L304.097 55H288.041L258.809 18.856L253.121 55H236.993L245.489 1.432ZM333.333 33.76L374.661 1.216H392.157L387.333 31.456H397.845L395.901 43.912H385.389L383.589 55H367.461L369.261 43.912H331.749L333.333 33.76ZM371.133 31.456L373.869 14.752L352.557 31.456H371.133ZM415.267 55H398.923L407.419 1.432H423.763L420.235 23.68L449.755 1.432H471.283L437.299 26.704L464.227 55H443.419L419.299 29.728L415.267 55ZM501.424 56.08H498.328C475.792 56.08 467.944 46.432 467.944 33.328C467.944 31.24 468.088 29.152 468.376 26.92C469.96 14.68 477.592 0.495998 502.648 0.495998H505.384C529.072 0.495998 533.968 10 533.968 17.56H517.12C516.832 16.768 515.608 12.88 503.8 12.88C488.68 12.88 485.8 21.664 485.296 25.696C486.88 24.544 491.2 20.512 506.752 20.512H507.544C527.848 20.512 533.176 27.568 533.176 35.776C533.176 36.64 533.176 37.576 532.96 38.944C531.952 45.856 527.56 56.08 501.424 56.08ZM485.44 38.08C485.44 40.6 487.96 43.912 499.84 43.912C514.96 43.912 515.968 39.304 515.968 37C515.968 34.84 514.456 31.744 501.64 31.744C487.096 31.744 485.44 35.704 485.44 38.08ZM611.298 23.896C611.298 25.84 611.226 27.856 610.866 30.016C609.282 39.304 604.602 55.936 573.498 55.936H570.402C542.754 55.936 536.706 41.752 536.706 32.176C536.706 30.592 536.706 28.864 537.066 26.272C538.29 17.2 543.33 0.495998 574.578 0.495998H577.602C604.89 0.495998 611.298 14.248 611.298 23.896ZM594.018 25.624C594.018 19.72 589.914 13.456 575.586 13.456C559.026 13.456 555.354 21.16 554.418 26.92C554.202 28.288 554.202 29.008 554.202 29.944C554.202 35.776 557.73 42.904 572.562 42.904C588.69 42.904 592.866 35.056 593.802 28.576C593.946 27.568 594.018 26.632 594.018 25.624Z" fill="#F8F8F8"/>
</svg>
