<svg width="576" height="75" viewBox="0 0 576 75" fill="none" xmlns="http://www.w3.org/2000/svg">
<g style="mix-blend-mode:exclusion">
<mask id="path-1-outside-1_747_10708" maskUnits="userSpaceOnUse" x="-1" y="-2" width="579" height="78" fill="black">
<rect fill="white" x="-1" y="-2" width="579" height="78"/>
<path d="M12.288 1.576H34.08L25.536 55.24H73.344L70.56 73H0.96L12.288 1.576ZM110.861 1.576L99.5333 73H77.7413L89.0693 1.576H110.861ZM157.232 74.248H155.312C121.328 74.248 111.92 55.72 111.92 41.224C111.92 38.92 112.016 36.904 112.4 34.312C114.416 20.392 123.344 0.327997 163.28 0.327997H166.256C205.232 0.327997 211.088 17.8 210.512 27.496H187.472C187.184 25.768 185.744 17.32 164.24 17.32C143.216 17.32 136.496 26.632 135.248 35.752C135.056 37.192 134.96 38.152 134.96 39.496C134.96 48.808 141.488 56.872 159.056 56.872C178.928 56.872 186.416 49 186.992 46.504H159.536L161.648 32.968H210.512L204.176 73H191.12C191.216 70.312 191.024 64.744 190.256 61.672C187.088 65.416 177.488 74.248 157.232 74.248ZM213.585 73L224.913 1.576H246.705L242.577 27.592H288.561L292.689 1.576H314.481L303.153 73H281.361L285.777 44.872H239.793L235.377 73H213.585ZM339.833 73L348.473 18.472H319.001L321.593 1.576H402.713L400.025 18.472H370.553L361.913 73H339.833ZM409.788 1.576H482.94L480.348 17.8H428.7L427.068 28.36H477.564L474.972 44.68H424.476L422.556 56.392H475.068L472.476 73H398.46L409.788 1.576ZM509.278 31.816H542.494C549.694 31.816 552.478 27.88 552.478 24.04C552.478 20.392 550.366 17.8 544.51 17.8H511.582L509.278 31.816ZM506.878 47.656L502.846 73H481.054L492.382 1.576H549.022C569.95 1.576 575.902 9.544 575.902 18.856C575.902 29.896 566.494 34.888 560.158 36.712C566.686 38.728 572.35 43.24 570.91 52.456L568.99 64.456C568.222 69.544 568.798 71.368 569.086 72.52L568.99 73H546.814C546.43 72.232 546.142 71.176 546.622 68.2L547.87 60.328C549.214 51.88 546.046 47.656 535.006 47.656H506.878Z"/>
</mask>
<path d="M12.288 1.576V0.0759983H11.0072L10.8065 1.34103L12.288 1.576ZM34.08 1.576L35.5613 1.81185L35.8377 0.0759983H34.08V1.576ZM25.536 55.24L24.0547 55.0042L23.7783 56.74H25.536V55.24ZM73.344 55.24L74.8259 55.4723L75.0975 53.74H73.344V55.24ZM70.56 73V74.5H71.8432L72.0419 73.2323L70.56 73ZM0.96 73L-0.521483 72.765L-0.796652 74.5H0.96V73ZM12.288 3.076H34.08V0.0759983H12.288V3.076ZM32.5987 1.34015L24.0547 55.0042L27.0173 55.4758L35.5613 1.81185L32.5987 1.34015ZM25.536 56.74H73.344V53.74H25.536V56.74ZM71.8621 55.0077L69.0781 72.7677L72.0419 73.2323L74.8259 55.4723L71.8621 55.0077ZM70.56 71.5H0.96V74.5H70.56V71.5ZM2.44148 73.235L13.7695 1.81096L10.8065 1.34103L-0.521483 72.765L2.44148 73.235ZM110.861 1.576L112.343 1.81096L112.618 0.0759983H110.861V1.576ZM99.5332 73V74.5H100.814L101.015 73.235L99.5332 73ZM77.7412 73L76.2598 72.765L75.9846 74.5H77.7412V73ZM89.0693 1.576V0.0759983H87.7884L87.5878 1.34103L89.0693 1.576ZM109.38 1.34103L98.0518 72.765L101.015 73.235L112.343 1.81096L109.38 1.34103ZM99.5332 71.5H77.7412V74.5H99.5332V71.5ZM79.2227 73.235L90.5507 1.81096L87.5878 1.34103L76.2598 72.765L79.2227 73.235ZM89.0693 3.076H110.861V0.0759983H89.0693V3.076ZM112.4 34.312L113.884 34.5318L113.885 34.527L112.4 34.312ZM210.512 27.496V28.996H211.926L212.01 27.5849L210.512 27.496ZM187.472 27.496L185.993 27.7426L186.202 28.996H187.472V27.496ZM135.248 35.752L133.762 35.5486L133.761 35.5538L135.248 35.752ZM186.992 46.504L188.454 46.8413L188.878 45.004H186.992V46.504ZM159.536 46.504L158.054 46.2728L157.784 48.004H159.536V46.504ZM161.648 32.968V31.468H160.364L160.166 32.7368L161.648 32.968ZM210.512 32.968L211.994 33.2025L212.268 31.468H210.512V32.968ZM204.176 73V74.5H205.458L205.658 73.2345L204.176 73ZM191.12 73L189.621 72.9465L189.566 74.5H191.12V73ZM190.256 61.672L191.711 61.3082L191.002 58.4689L189.111 60.7031L190.256 61.672ZM157.232 72.748H155.312V75.748H157.232V72.748ZM155.312 72.748C138.59 72.748 128.164 68.1946 121.92 62.0987C115.669 55.9955 113.42 48.1602 113.42 41.224H110.42C110.42 48.7838 112.875 57.4605 119.824 64.2453C126.781 71.0374 138.05 75.748 155.312 75.748V72.748ZM113.42 41.224C113.42 38.9742 113.513 37.0341 113.884 34.5318L110.916 34.0922C110.519 36.7739 110.42 38.8658 110.42 41.224H113.42ZM113.885 34.527C114.864 27.7681 117.5 19.6523 124.626 13.2129C131.746 6.77871 143.559 1.828 163.28 1.828V-1.172C143.066 -1.172 130.447 3.90928 122.615 10.9871C114.788 18.0597 111.953 26.9359 110.916 34.097L113.885 34.527ZM163.28 1.828H166.256V-1.172H163.28V1.828ZM166.256 1.828C185.552 1.828 196.337 6.15688 202.219 11.396C208.065 16.6042 209.282 22.9071 209.015 27.407L212.01 27.5849C212.318 22.3889 210.895 15.1078 204.214 9.15595C197.567 3.23511 185.936 -1.172 166.256 -1.172V1.828ZM210.512 25.996H187.472V28.996H210.512V25.996ZM188.952 27.2494C188.778 26.2077 188.238 23.2213 184.716 20.5628C181.266 17.9587 175.156 15.82 164.24 15.82V18.82C174.829 18.82 180.19 20.9053 182.909 22.9572C185.555 24.9547 185.878 27.0562 185.993 27.7426L188.952 27.2494ZM164.24 15.82C153.522 15.82 146.221 18.1926 141.408 21.9315C136.571 25.689 134.427 30.6873 133.762 35.5486L136.734 35.9554C137.317 31.6967 139.157 27.479 143.249 24.3005C147.364 21.1034 153.934 18.82 164.24 18.82V15.82ZM133.761 35.5538C133.565 37.0259 133.46 38.0588 133.46 39.496H136.46C136.46 38.2452 136.547 37.3581 136.735 35.9502L133.761 35.5538ZM133.46 39.496C133.46 44.5216 135.236 49.3194 139.462 52.8298C143.652 56.3106 150.065 58.372 159.056 58.372V55.372C150.479 55.372 144.845 53.4014 141.379 50.5222C137.949 47.6726 136.46 43.7824 136.46 39.496H133.46ZM159.056 58.372C169.189 58.372 176.272 56.3647 180.947 53.9576C183.281 52.7556 185.022 51.4502 186.237 50.2398C187.406 49.0755 188.216 47.8719 188.454 46.8413L185.531 46.1667C185.48 46.3841 185.138 47.1005 184.12 48.1142C183.149 49.0818 181.667 50.2124 179.574 51.2904C175.392 53.4433 168.795 55.372 159.056 55.372V58.372ZM186.992 45.004H159.536V48.004H186.992V45.004ZM161.018 46.7352L163.13 33.1992L160.166 32.7368L158.054 46.2728L161.018 46.7352ZM161.648 34.468H210.512V31.468H161.648V34.468ZM209.031 32.7335L202.695 72.7655L205.658 73.2345L211.994 33.2025L209.031 32.7335ZM204.176 71.5H191.12V74.5H204.176V71.5ZM192.619 73.0535C192.717 70.323 192.531 64.5869 191.711 61.3082L188.801 62.0358C189.517 64.9011 189.716 70.301 189.621 72.9465L192.619 73.0535ZM189.111 60.7031C186.182 64.1645 176.981 72.748 157.232 72.748V75.748C177.996 75.748 187.994 66.6675 191.401 62.6409L189.111 60.7031ZM213.585 73L212.104 72.765L211.828 74.5H213.585V73ZM224.913 1.576V0.0759983H223.632L223.432 1.34103L224.913 1.576ZM246.705 1.576L248.186 1.81107L248.462 0.0759983H246.705V1.576ZM242.577 27.592L241.096 27.3569L240.82 29.092H242.577V27.592ZM288.561 27.592V29.092H289.842L290.042 27.8271L288.561 27.592ZM292.689 1.576V0.0759983H291.408L291.208 1.34093L292.689 1.576ZM314.481 1.576L315.962 1.81096L316.238 0.0759983H314.481V1.576ZM303.153 73V74.5H304.434L304.634 73.235L303.153 73ZM281.361 73L279.879 72.7674L279.607 74.5H281.361V73ZM285.777 44.872L287.259 45.1046L287.531 43.372H285.777V44.872ZM239.793 44.872V43.372H238.51L238.311 44.6394L239.793 44.872ZM235.377 73V74.5H236.66L236.859 73.2326L235.377 73ZM215.066 73.235L226.394 1.81096L223.432 1.34103L212.104 72.765L215.066 73.235ZM224.913 3.076H246.705V0.0759983H224.913V3.076ZM245.224 1.34093L241.096 27.3569L244.058 27.8271L248.186 1.81107L245.224 1.34093ZM242.577 29.092H288.561V26.092H242.577V29.092ZM290.042 27.8271L294.17 1.81107L291.208 1.34093L287.08 27.3569L290.042 27.8271ZM292.689 3.076H314.481V0.0759983H292.689V3.076ZM313 1.34103L301.672 72.765L304.634 73.235L315.962 1.81096L313 1.34103ZM303.153 71.5H281.361V74.5H303.153V71.5ZM282.843 73.2326L287.259 45.1046L284.295 44.6394L279.879 72.7674L282.843 73.2326ZM285.777 43.372H239.793V46.372H285.777V43.372ZM238.311 44.6394L233.895 72.7674L236.859 73.2326L241.275 45.1046L238.311 44.6394ZM235.377 71.5H213.585V74.5H235.377V71.5ZM339.833 73L338.352 72.7653L338.077 74.5H339.833V73ZM348.473 18.472L349.955 18.7067L350.23 16.972H348.473V18.472ZM319.001 18.472L317.519 18.2445L317.254 19.972H319.001V18.472ZM321.593 1.576V0.0759983H320.306L320.111 1.34855L321.593 1.576ZM402.713 1.576L404.195 1.81167L404.471 0.0759983H402.713V1.576ZM400.025 18.472V19.972H401.305L401.507 18.7077L400.025 18.472ZM370.553 18.472V16.972H369.272L369.072 18.2373L370.553 18.472ZM361.913 73V74.5H363.194L363.395 73.2347L361.913 73ZM341.315 73.2347L349.955 18.7067L346.992 18.2373L338.352 72.7653L341.315 73.2347ZM348.473 16.972H319.001V19.972H348.473V16.972ZM320.484 18.6995L323.076 1.80345L320.111 1.34855L317.519 18.2445L320.484 18.6995ZM321.593 3.076H402.713V0.0759983H321.593V3.076ZM401.232 1.34033L398.544 18.2363L401.507 18.7077L404.195 1.81167L401.232 1.34033ZM400.025 16.972H370.553V19.972H400.025V16.972ZM369.072 18.2373L360.432 72.7653L363.395 73.2347L372.035 18.7067L369.072 18.2373ZM361.913 71.5H339.833V74.5H361.913V71.5ZM409.788 1.576V0.0759983H408.507L408.307 1.34103L409.788 1.576ZM482.94 1.576L484.421 1.81264L484.699 0.0759983H482.94V1.576ZM480.348 17.8V19.3H481.627L481.829 18.0366L480.348 17.8ZM428.7 17.8V16.3H427.414L427.218 17.5709L428.7 17.8ZM427.068 28.36L425.586 28.1309L425.318 29.86H427.068V28.36ZM477.564 28.36L479.045 28.5953L479.321 26.86H477.564V28.36ZM474.972 44.68V46.18H476.253L476.453 44.9153L474.972 44.68ZM424.476 44.68V43.18H423.202L422.996 44.4373L424.476 44.68ZM422.556 56.392L421.076 56.1493L420.79 57.892H422.556V56.392ZM475.068 56.392L476.55 56.6233L476.82 54.892H475.068V56.392ZM472.476 73V74.5H473.76L473.958 73.2313L472.476 73ZM398.46 73L396.979 72.765L396.703 74.5H398.46V73ZM409.788 3.076H482.94V0.0759983H409.788V3.076ZM481.459 1.33935L478.867 17.5634L481.829 18.0366L484.421 1.81264L481.459 1.33935ZM480.348 16.3H428.7V19.3H480.348V16.3ZM427.218 17.5709L425.586 28.1309L428.55 28.5891L430.182 18.0291L427.218 17.5709ZM427.068 29.86H477.564V26.86H427.068V29.86ZM476.083 28.1247L473.491 44.4447L476.453 44.9153L479.045 28.5953L476.083 28.1247ZM474.972 43.18H424.476V46.18H474.972V43.18ZM422.996 44.4373L421.076 56.1493L424.036 56.6347L425.956 44.9227L422.996 44.4373ZM422.556 57.892H475.068V54.892H422.556V57.892ZM473.586 56.1607L470.994 72.7687L473.958 73.2313L476.55 56.6233L473.586 56.1607ZM472.476 71.5H398.46V74.5H472.476V71.5ZM399.941 73.235L411.269 1.81096L408.307 1.34103L396.979 72.765L399.941 73.235ZM509.278 31.816L507.798 31.5727L507.511 33.316H509.278V31.816ZM511.582 17.8V16.3H510.308L510.102 17.5567L511.582 17.8ZM506.878 47.656V46.156H505.598L505.396 47.4203L506.878 47.656ZM502.846 73V74.5H504.126L504.327 73.2357L502.846 73ZM481.054 73L479.572 72.765L479.297 74.5H481.054V73ZM492.382 1.576V0.0759983H491.101L490.9 1.34103L492.382 1.576ZM560.158 36.712L559.743 35.2705L554.911 36.6615L559.715 38.1452L560.158 36.712ZM570.91 52.456L572.391 52.693L572.392 52.6876L570.91 52.456ZM568.99 64.456L567.509 64.219L567.507 64.2321L568.99 64.456ZM569.086 72.52L570.557 72.8142L570.623 72.4834L570.541 72.1562L569.086 72.52ZM568.99 73V74.5H570.219L570.461 73.2942L568.99 73ZM546.814 73L545.472 73.6708L545.887 74.5H546.814V73ZM546.622 68.2L548.103 68.4389L548.103 68.4349L546.622 68.2ZM547.87 60.328L546.388 60.0923L546.388 60.0931L547.87 60.328ZM509.278 33.316H542.494V30.316H509.278V33.316ZM542.494 33.316C546.364 33.316 549.258 32.2542 551.2 30.4734C553.144 28.6903 553.978 26.3255 553.978 24.04H550.978C550.978 25.5945 550.42 27.1177 549.172 28.2626C547.921 29.4098 545.823 30.316 542.494 30.316V33.316ZM553.978 24.04C553.978 21.924 553.356 19.8936 551.678 18.4238C550.037 16.9862 547.628 16.3 544.51 16.3V19.3C547.248 19.3 548.822 19.9098 549.701 20.6802C550.544 21.4184 550.978 22.508 550.978 24.04H553.978ZM544.51 16.3H511.582V19.3H544.51V16.3ZM510.102 17.5567L507.798 31.5727L510.758 32.0593L513.062 18.0433L510.102 17.5567ZM505.396 47.4203L501.364 72.7643L504.327 73.2357L508.359 47.8917L505.396 47.4203ZM502.846 71.5H481.054V74.5H502.846V71.5ZM482.535 73.235L493.863 1.81096L490.9 1.34103L479.572 72.765L482.535 73.235ZM492.382 3.076H549.022V0.0759983H492.382V3.076ZM549.022 3.076C559.339 3.076 565.669 5.04768 569.395 7.91306C573.044 10.7191 574.402 14.5457 574.402 18.856H577.402C577.402 13.8543 575.783 9.04085 571.224 5.53493C566.742 2.08832 559.633 0.0759983 549.022 0.0759983V3.076ZM574.402 18.856C574.402 28.8179 565.943 33.4858 559.743 35.2705L560.573 38.1535C567.045 36.2902 577.402 30.9741 577.402 18.856H574.402ZM559.715 38.1452C562.82 39.1039 565.56 40.6112 567.356 42.8284C569.112 44.9945 570.09 47.9871 569.428 52.2244L572.392 52.6876C573.17 47.7089 572.036 43.8374 569.687 40.9396C567.38 38.0928 564.024 36.3361 560.6 35.2788L559.715 38.1452ZM569.429 52.219L567.509 64.219L570.471 64.693L572.391 52.693L569.429 52.219ZM567.507 64.2321C567.111 66.8549 567.052 68.6953 567.145 70.0657C567.24 71.4532 567.49 72.32 567.631 72.8838L570.541 72.1562C570.394 71.568 570.212 70.9468 570.138 69.8623C570.063 68.7607 570.101 67.1451 570.473 64.6799L567.507 64.2321ZM567.615 72.2258L567.519 72.7058L570.461 73.2942L570.557 72.8142L567.615 72.2258ZM568.99 71.5H546.814V74.5H568.99V71.5ZM548.155 72.3292C547.971 71.9596 547.647 71.2656 548.103 68.4389L545.141 67.9612C544.637 71.0864 544.889 72.5044 545.472 73.6708L548.155 72.3292ZM548.103 68.4349L549.351 60.5629L546.388 60.0931L545.14 67.9651L548.103 68.4349ZM549.351 60.5637C550.047 56.1894 549.663 52.4187 547.17 49.7915C544.723 47.2132 540.627 46.156 535.006 46.156V49.156C540.424 49.156 543.432 50.2108 544.994 51.8565C546.509 53.4533 547.036 56.0186 546.388 60.0923L549.351 60.5637ZM535.006 46.156H506.878V49.156H535.006V46.156Z" fill="#F8F8F8" mask="url(#path-1-outside-1_747_10708)"/>
</g>
</svg>
