<svg width="638" height="75" viewBox="0 0 638 75" fill="none" xmlns="http://www.w3.org/2000/svg">
<g style="mix-blend-mode:exclusion">
<mask id="path-1-outside-1_747_10709" maskUnits="userSpaceOnUse" x="-1" y="-2" width="640" height="78" fill="black">
<rect fill="white" x="-1" y="-2" width="640" height="78"/>
<path d="M39.072 74.248C2.88 74.248 0.192 57.832 1.344 47.656H23.904C24 52.168 25.344 58.984 43.296 58.984H44.448C64.416 58.984 65.76 54.088 65.76 50.536C65.76 46.696 63.648 44.584 49.728 44.2L37.824 43.912C12.96 43.336 6.048 34.024 6.048 23.08C6.048 21.736 6.144 20.68 6.336 19.336C7.776 9.544 14.976 0.327997 46.752 0.327997H52.896C85.92 0.327997 92.16 12.04 90.72 23.848H68.256C67.968 20.968 67.2 15.208 49.056 15.208H47.712C29.856 15.208 28.8 18.76 28.8 21.64C28.8 24.328 30.144 27.4 43.104 27.592L54.624 27.784C79.968 28.168 89.088 34.6 89.088 47.848C89.088 49.576 88.896 51.784 88.608 53.224C86.496 63.592 80.352 74.248 45.312 74.248H39.072ZM92.1788 73L103.507 1.576H133.843L151.123 46.024L181.459 1.576H211.699L200.371 73H178.963L186.835 23.56L152.563 73H140.947L121.075 23.56L113.203 73H92.1788ZM270.299 43.816L260.507 17.032L243.899 43.816H270.299ZM281.051 73L276.251 59.944H233.915L225.851 73H203.291L248.411 1.576H276.539L303.707 73H281.051ZM317.726 1.576H339.518L330.974 55.24H378.782L375.998 73H306.398L317.726 1.576ZM394.507 1.576H416.299L407.755 55.24H455.563L452.779 73H383.179L394.507 1.576ZM471.288 1.576H544.44L541.848 17.8H490.2L488.568 28.36H539.064L536.472 44.68H485.976L484.056 56.392H536.568L533.976 73H459.96L471.288 1.576ZM570.778 31.816H603.994C611.194 31.816 613.978 27.88 613.978 24.04C613.978 20.392 611.866 17.8 606.01 17.8H573.082L570.778 31.816ZM568.378 47.656L564.346 73H542.554L553.882 1.576H610.522C631.45 1.576 637.402 9.544 637.402 18.856C637.402 29.896 627.994 34.888 621.658 36.712C628.186 38.728 633.85 43.24 632.41 52.456L630.49 64.456C629.722 69.544 630.298 71.368 630.586 72.52L630.49 73H608.314C607.93 72.232 607.642 71.176 608.122 68.2L609.37 60.328C610.714 51.88 607.546 47.656 596.506 47.656H568.378Z"/>
</mask>
<path d="M1.344 47.656V46.156H0.00423002L-0.146479 47.4873L1.344 47.656ZM23.904 47.656L25.4037 47.6241L25.3724 46.156H23.904V47.656ZM49.728 44.2L49.7694 42.7006L49.7643 42.7004L49.728 44.2ZM37.824 43.912L37.8603 42.4124L37.8587 42.4124L37.824 43.912ZM6.336 19.336L4.85195 19.1178L4.85108 19.1239L6.336 19.336ZM90.72 23.848V25.348H92.0482L92.209 24.0296L90.72 23.848ZM68.256 23.848L66.7634 23.9973L66.8985 25.348H68.256V23.848ZM43.104 27.592L43.129 26.0922L43.1262 26.0922L43.104 27.592ZM54.624 27.784L54.599 29.2838L54.6013 29.2838L54.624 27.784ZM88.608 53.224L90.0778 53.5234L90.0789 53.5182L88.608 53.224ZM39.072 72.748C21.1487 72.748 11.9345 68.6756 7.29709 63.7408C2.68529 58.8332 2.27952 52.7269 2.83448 47.8247L-0.146479 47.4873C-0.743522 52.7611 -0.381286 59.9508 5.11091 65.7952C10.5775 71.6124 20.8033 75.748 39.072 75.748V72.748ZM1.344 49.156H23.904V46.156H1.344V49.156ZM22.4043 47.6879C22.4551 50.0734 22.8393 53.4485 25.9162 56.1409C28.9185 58.7678 34.193 60.484 43.296 60.484V57.484C34.447 57.484 30.0735 55.7922 27.8918 53.8831C25.7847 52.0395 25.4489 49.7506 25.4037 47.6241L22.4043 47.6879ZM43.296 60.484H44.448V57.484H43.296V60.484ZM44.448 60.484C54.4756 60.484 60.1535 59.2691 63.3533 57.3845C65.0016 56.4136 66.0218 55.2484 66.6023 53.9779C67.1711 52.7333 67.26 51.5104 67.26 50.536H64.26C64.26 51.3376 64.1809 52.0587 63.8737 52.7311C63.5783 53.3776 63.0144 54.1023 61.8308 54.7995C59.3665 56.2509 54.3884 57.484 44.448 57.484V60.484ZM67.26 50.536C67.26 49.4527 67.1143 48.3089 66.5221 47.2486C65.9175 46.1659 64.9435 45.3391 63.5971 44.7122C61.0155 43.5101 56.7167 42.8922 49.7694 42.7006L49.6866 45.6994C56.6593 45.8918 60.3765 46.5219 62.3309 47.4318C63.2525 47.8609 63.6765 48.3061 63.9029 48.7114C64.1418 49.1391 64.26 49.6993 64.26 50.536H67.26ZM49.7643 42.7004L37.8603 42.4124L37.7877 45.4116L49.6917 45.6996L49.7643 42.7004ZM37.8587 42.4124C25.5667 42.1276 18.0023 39.6823 13.5339 36.2008C9.14586 32.7818 7.548 28.2063 7.548 23.08H4.548C4.548 28.8977 6.40614 34.4502 11.6901 38.5672C16.8937 42.6217 25.2173 45.1204 37.7893 45.4116L37.8587 42.4124ZM7.548 23.08C7.548 21.8237 7.63629 20.8406 7.82092 19.5481L4.85108 19.1239C4.65171 20.5194 4.548 21.6483 4.548 23.08H7.548ZM7.82004 19.5542C8.48796 15.0124 10.4445 10.7035 15.9328 7.45035C21.5403 4.12655 30.9613 1.828 46.752 1.828V-1.172C30.7667 -1.172 20.6997 1.13744 14.4032 4.86965C7.98751 8.67247 5.62404 13.8676 4.85196 19.1178L7.82004 19.5542ZM46.752 1.828H52.896V-1.172H46.752V1.828ZM52.896 1.828C69.2978 1.828 78.6898 4.74938 83.7953 8.83155C88.7757 12.8138 89.9095 18.1031 89.231 23.6664L92.209 24.0296C92.9705 17.7849 91.7043 11.3142 85.6687 6.48844C79.7582 1.76261 69.5182 -1.172 52.896 -1.172V1.828ZM90.72 22.348H68.256V25.348H90.72V22.348ZM69.7486 23.6987C69.5931 22.144 69.2661 19.4213 66.2294 17.2314C63.342 15.1491 58.2187 13.708 49.056 13.708V16.708C58.0373 16.708 62.37 18.1469 64.4746 19.6646C66.4299 21.0747 66.6309 22.672 66.7634 23.9973L69.7486 23.6987ZM49.056 13.708H47.712V16.708H49.056V13.708ZM47.712 13.708C38.7654 13.708 33.7249 14.5845 30.8892 16.0024C29.4193 16.7373 28.4622 17.6561 27.9089 18.7362C27.3683 19.7918 27.3 20.8398 27.3 21.64H30.3C30.3 21.0001 30.3637 20.5242 30.5791 20.1038C30.7818 19.7079 31.2047 19.1987 32.2308 18.6856C34.3871 17.6075 38.8026 16.708 47.712 16.708V13.708ZM27.3 21.64C27.3 22.4312 27.3972 23.3833 27.8661 24.3381C28.3439 25.3114 29.1448 26.1606 30.3426 26.8514C32.6504 28.1822 36.558 28.9952 43.0818 29.0918L43.1262 26.0922C36.69 25.9968 33.4456 25.1778 31.8414 24.2526C31.0832 23.8154 30.7381 23.3806 30.5589 23.0159C30.3708 22.6327 30.3 22.1928 30.3 21.64H27.3ZM43.079 29.0918L54.599 29.2838L54.649 26.2842L43.129 26.0922L43.079 29.0918ZM54.6013 29.2838C67.2167 29.475 75.491 31.1795 80.5808 34.2737C83.0906 35.7995 84.8165 37.6578 85.9286 39.8553C87.0471 42.0654 87.588 44.7053 87.588 47.848H90.588C90.588 44.3667 89.9889 41.2346 88.6054 38.5007C87.2155 35.7542 85.0774 33.4965 82.1392 31.7103C76.333 28.1805 67.3753 26.477 54.6467 26.2842L54.6013 29.2838ZM87.588 47.848C87.588 49.499 87.4019 51.606 87.1371 52.9298L90.0789 53.5182C90.3901 51.962 90.588 49.653 90.588 47.848H87.588ZM87.1382 52.9246C86.1269 57.8893 84.2099 62.7014 78.4987 66.361C72.6791 70.0901 62.7297 72.748 45.312 72.748V75.748C62.9343 75.748 73.5769 73.0779 80.1173 68.887C86.7661 64.6266 88.9771 58.9267 90.0778 53.5234L87.1382 52.9246ZM45.312 72.748H39.072V75.748H45.312V72.748ZM92.1787 73L90.6973 72.765L90.4221 74.5H92.1787V73ZM103.507 1.576V0.0759983H102.226L102.025 1.34103L103.507 1.576ZM133.843 1.576L135.241 1.03247L134.869 0.0759983H133.843V1.576ZM151.123 46.024L149.725 46.5675L150.756 49.2215L152.362 46.8696L151.123 46.024ZM181.459 1.576V0.0759983H180.666L180.22 0.730412L181.459 1.576ZM211.699 1.576L213.18 1.81096L213.455 0.0759983H211.699V1.576ZM200.371 73V74.5H201.652L201.852 73.235L200.371 73ZM178.963 73L177.481 72.7641L177.205 74.5H178.963V73ZM186.835 23.56L188.316 23.7959L185.602 22.7054L186.835 23.56ZM152.563 73V74.5H153.348L153.796 73.8546L152.563 73ZM140.947 73L139.555 73.5594L139.933 74.5H140.947V73ZM121.075 23.56L122.467 23.0006L120.446 17.9725L119.593 23.3241L121.075 23.56ZM113.203 73V74.5H114.483L114.684 73.2359L113.203 73ZM93.6602 73.235L104.988 1.81096L102.025 1.34103L90.6973 72.765L93.6602 73.235ZM103.507 3.076H133.843V0.0759983H103.507V3.076ZM132.445 2.11952L149.725 46.5675L152.521 45.4805L135.241 1.03247L132.445 2.11952ZM152.362 46.8696L182.698 2.42158L180.22 0.730412L149.884 45.1784L152.362 46.8696ZM181.459 3.076H211.699V0.0759983H181.459V3.076ZM210.217 1.34103L198.889 72.765L201.852 73.235L213.18 1.81096L210.217 1.34103ZM200.371 71.5H178.963V74.5H200.371V71.5ZM180.444 73.2359L188.316 23.7959L185.353 23.3241L177.481 72.7641L180.444 73.2359ZM185.602 22.7054L151.33 72.1454L153.796 73.8546L188.068 24.4146L185.602 22.7054ZM152.563 71.5H140.947V74.5H152.563V71.5ZM142.339 72.4406L122.467 23.0006L119.683 24.1194L139.555 73.5594L142.339 72.4406ZM119.593 23.3241L111.721 72.7641L114.684 73.2359L122.556 23.7959L119.593 23.3241ZM113.203 71.5H92.1787V74.5H113.203V71.5ZM270.299 43.816V45.316H272.445L271.708 43.301L270.299 43.816ZM260.507 17.032L261.916 16.517L260.857 13.621L259.232 16.2415L260.507 17.032ZM243.899 43.816L242.624 43.0255L241.204 45.316H243.899V43.816ZM281.051 73L279.643 73.5176L280.005 74.5H281.051V73ZM276.251 59.944L277.659 59.4264L277.298 58.444H276.251V59.944ZM233.915 59.944V58.444H233.079L232.639 59.1558L233.915 59.944ZM225.851 73V74.5H226.688L227.127 73.7882L225.851 73ZM203.291 73L202.023 72.1989L200.569 74.5H203.291V73ZM248.411 1.576V0.0759983H247.585L247.143 0.77488L248.411 1.576ZM276.539 1.576L277.941 1.04271L277.574 0.0759983H276.539V1.576ZM303.707 73V74.5H305.883L305.109 72.4667L303.707 73ZM271.708 43.301L261.916 16.517L259.098 17.547L268.89 44.331L271.708 43.301ZM259.232 16.2415L242.624 43.0255L245.174 44.6065L261.782 17.8225L259.232 16.2415ZM243.899 45.316H270.299V42.316H243.899V45.316ZM282.459 72.4824L277.659 59.4264L274.843 60.4616L279.643 73.5176L282.459 72.4824ZM276.251 58.444H233.915V61.444H276.251V58.444ZM232.639 59.1558L224.575 72.2118L227.127 73.7882L235.191 60.7322L232.639 59.1558ZM225.851 71.5H203.291V74.5H225.851V71.5ZM204.559 73.8011L249.679 2.37712L247.143 0.77488L202.023 72.1989L204.559 73.8011ZM248.411 3.076H276.539V0.0759983H248.411V3.076ZM275.137 2.10929L302.305 73.5333L305.109 72.4667L277.941 1.04271L275.137 2.10929ZM303.707 71.5H281.051V74.5H303.707V71.5ZM317.725 1.576V0.0759983H316.445L316.244 1.34103L317.725 1.576ZM339.518 1.576L340.999 1.81185L341.275 0.0759983H339.518V1.576ZM330.974 55.24L329.492 55.0042L329.216 56.74H330.974V55.24ZM378.781 55.24L380.263 55.4723L380.535 53.74H378.781V55.24ZM375.997 73V74.5H377.281L377.479 73.2323L375.997 73ZM306.397 73L304.916 72.765L304.641 74.5H306.397V73ZM317.725 3.076H339.518V0.0759983H317.725V3.076ZM338.036 1.34015L329.492 55.0042L332.455 55.4758L340.999 1.81185L338.036 1.34015ZM330.974 56.74H378.781V53.74H330.974V56.74ZM377.3 55.0077L374.516 72.7677L377.479 73.2323L380.263 55.4723L377.3 55.0077ZM375.997 71.5H306.397V74.5H375.997V71.5ZM307.879 73.235L319.207 1.81096L316.244 1.34103L304.916 72.765L307.879 73.235ZM394.507 1.576V0.0759983H393.226L393.025 1.34103L394.507 1.576ZM416.299 1.576L417.78 1.81185L418.056 0.0759983H416.299V1.576ZM407.755 55.24L406.273 55.0042L405.997 56.74H407.755V55.24ZM455.563 55.24L457.045 55.4723L457.316 53.74H455.563V55.24ZM452.779 73V74.5H454.062L454.261 73.2323L452.779 73ZM383.179 73L381.697 72.765L381.422 74.5H383.179V73ZM394.507 3.076H416.299V0.0759983H394.507V3.076ZM414.817 1.34015L406.273 55.0042L409.236 55.4758L417.78 1.81185L414.817 1.34015ZM407.755 56.74H455.563V53.74H407.755V56.74ZM454.081 55.0077L451.297 72.7677L454.261 73.2323L457.045 55.4723L454.081 55.0077ZM452.779 71.5H383.179V74.5H452.779V71.5ZM384.66 73.235L395.988 1.81096L393.025 1.34103L381.697 72.765L384.66 73.235ZM471.288 1.576V0.0759983H470.007L469.807 1.34103L471.288 1.576ZM544.44 1.576L545.921 1.81264L546.199 0.0759983H544.44V1.576ZM541.848 17.8V19.3H543.127L543.329 18.0366L541.848 17.8ZM490.2 17.8V16.3H488.914L488.718 17.5709L490.2 17.8ZM488.568 28.36L487.086 28.1309L486.818 29.86H488.568V28.36ZM539.064 28.36L540.545 28.5953L540.821 26.86H539.064V28.36ZM536.472 44.68V46.18H537.753L537.953 44.9153L536.472 44.68ZM485.976 44.68V43.18H484.702L484.496 44.4373L485.976 44.68ZM484.056 56.392L482.576 56.1493L482.29 57.892H484.056V56.392ZM536.568 56.392L538.05 56.6233L538.32 54.892H536.568V56.392ZM533.976 73V74.5H535.26L535.458 73.2313L533.976 73ZM459.96 73L458.479 72.765L458.203 74.5H459.96V73ZM471.288 3.076H544.44V0.0759983H471.288V3.076ZM542.959 1.33935L540.367 17.5634L543.329 18.0366L545.921 1.81264L542.959 1.33935ZM541.848 16.3H490.2V19.3H541.848V16.3ZM488.718 17.5709L487.086 28.1309L490.05 28.5891L491.682 18.0291L488.718 17.5709ZM488.568 29.86H539.064V26.86H488.568V29.86ZM537.583 28.1247L534.991 44.4447L537.953 44.9153L540.545 28.5953L537.583 28.1247ZM536.472 43.18H485.976V46.18H536.472V43.18ZM484.496 44.4373L482.576 56.1493L485.536 56.6347L487.456 44.9227L484.496 44.4373ZM484.056 57.892H536.568V54.892H484.056V57.892ZM535.086 56.1607L532.494 72.7687L535.458 73.2313L538.05 56.6233L535.086 56.1607ZM533.976 71.5H459.96V74.5H533.976V71.5ZM461.441 73.235L472.769 1.81096L469.807 1.34103L458.479 72.765L461.441 73.235ZM570.778 31.816L569.298 31.5727L569.011 33.316H570.778V31.816ZM573.082 17.8V16.3H571.808L571.602 17.5567L573.082 17.8ZM568.378 47.656V46.156H567.098L566.896 47.4203L568.378 47.656ZM564.346 73V74.5H565.626L565.827 73.2357L564.346 73ZM542.554 73L541.072 72.765L540.797 74.5H542.554V73ZM553.882 1.576V0.0759983H552.601L552.4 1.34103L553.882 1.576ZM621.658 36.712L621.243 35.2705L616.411 36.6615L621.215 38.1452L621.658 36.712ZM632.41 52.456L633.891 52.693L633.892 52.6876L632.41 52.456ZM630.49 64.456L629.009 64.219L629.007 64.2321L630.49 64.456ZM630.586 72.52L632.057 72.8142L632.123 72.4834L632.041 72.1562L630.586 72.52ZM630.49 73V74.5H631.719L631.961 73.2942L630.49 73ZM608.314 73L606.972 73.6708L607.387 74.5H608.314V73ZM608.122 68.2L609.603 68.4389L609.603 68.4349L608.122 68.2ZM609.37 60.328L607.888 60.0923L607.888 60.0931L609.37 60.328ZM570.778 33.316H603.994V30.316H570.778V33.316ZM603.994 33.316C607.864 33.316 610.758 32.2542 612.7 30.4734C614.644 28.6903 615.478 26.3255 615.478 24.04H612.478C612.478 25.5945 611.92 27.1177 610.672 28.2626C609.421 29.4098 607.323 30.316 603.994 30.316V33.316ZM615.478 24.04C615.478 21.924 614.856 19.8936 613.178 18.4238C611.537 16.9862 609.128 16.3 606.01 16.3V19.3C608.748 19.3 610.322 19.9098 611.201 20.6802C612.044 21.4184 612.478 22.508 612.478 24.04H615.478ZM606.01 16.3H573.082V19.3H606.01V16.3ZM571.602 17.5567L569.298 31.5727L572.258 32.0593L574.562 18.0433L571.602 17.5567ZM566.896 47.4203L562.864 72.7643L565.827 73.2357L569.859 47.8917L566.896 47.4203ZM564.346 71.5H542.554V74.5H564.346V71.5ZM544.035 73.235L555.363 1.81096L552.4 1.34103L541.072 72.765L544.035 73.235ZM553.882 3.076H610.522V0.0759983H553.882V3.076ZM610.522 3.076C620.839 3.076 627.169 5.04768 630.895 7.91306C634.544 10.7191 635.902 14.5457 635.902 18.856H638.902C638.902 13.8543 637.283 9.04085 632.724 5.53493C628.242 2.08832 621.133 0.0759983 610.522 0.0759983V3.076ZM635.902 18.856C635.902 28.8179 627.443 33.4858 621.243 35.2705L622.073 38.1535C628.545 36.2902 638.902 30.9741 638.902 18.856H635.902ZM621.215 38.1452C624.32 39.1039 627.06 40.6112 628.856 42.8284C630.612 44.9945 631.59 47.9871 630.928 52.2244L633.892 52.6876C634.67 47.7089 633.536 43.8374 631.187 40.9396C628.88 38.0928 625.524 36.3361 622.1 35.2788L621.215 38.1452ZM630.929 52.219L629.009 64.219L631.971 64.693L633.891 52.693L630.929 52.219ZM629.007 64.2321C628.611 66.8549 628.552 68.6953 628.645 70.0657C628.74 71.4532 628.99 72.32 629.131 72.8838L632.041 72.1562C631.894 71.568 631.712 70.9468 631.638 69.8623C631.563 68.7607 631.601 67.1451 631.973 64.6799L629.007 64.2321ZM629.115 72.2258L629.019 72.7058L631.961 73.2942L632.057 72.8142L629.115 72.2258ZM630.49 71.5H608.314V74.5H630.49V71.5ZM609.655 72.3292C609.471 71.9596 609.147 71.2656 609.603 68.4389L606.641 67.9612C606.137 71.0864 606.389 72.5044 606.972 73.6708L609.655 72.3292ZM609.603 68.4349L610.851 60.5629L607.888 60.0931L606.64 67.9651L609.603 68.4349ZM610.851 60.5637C611.547 56.1894 611.163 52.4187 608.67 49.7915C606.223 47.2132 602.127 46.156 596.506 46.156V49.156C601.924 49.156 604.932 50.2108 606.494 51.8565C608.009 53.4533 608.536 56.0186 607.888 60.0923L610.851 60.5637ZM596.506 46.156H568.378V49.156H596.506V46.156Z" fill="#F8F8F8" mask="url(#path-1-outside-1_747_10709)"/>
</g>
</svg>
