<svg width="664" height="75" viewBox="0 0 664 75" fill="none" xmlns="http://www.w3.org/2000/svg">
<g style="mix-blend-mode:exclusion">
<mask id="path-1-outside-1_747_10707" maskUnits="userSpaceOnUse" x="-2" y="-2" width="668" height="78" fill="black">
<rect fill="white" x="-2" y="-2" width="668" height="78"/>
<path d="M21.552 73L30.192 18.472H0.72L3.312 1.576H84.432L81.744 18.472H52.272L43.632 73H21.552ZM128.297 74.248C89.4173 74.248 81.5453 55.336 81.5453 42.568C81.5453 40.36 81.5453 37.96 82.0253 34.504C83.7533 22.792 89.7053 0.327997 133.673 0.327997H137.801C176.393 0.327997 184.649 18.664 184.649 31.528C184.649 34.024 184.553 36.616 184.169 39.304C182.345 51.592 176.489 74.248 132.425 74.248H128.297ZM161.609 33.832C161.609 25.96 156.233 17.608 135.017 17.608C111.305 17.608 105.641 28.168 104.969 36.328C104.873 37.576 104.873 38.536 104.873 39.592C104.873 47.368 109.577 56.872 131.177 56.872C154.505 56.872 160.169 46.312 161.321 37.672C161.513 36.232 161.609 35.176 161.609 33.832ZM234.326 74.056H231.062C194.198 74.056 188.15 49.864 190.454 35.464L195.83 1.576H217.718L212.534 34.312C210.998 44.008 214.262 55.528 233.078 55.528C250.934 55.528 256.022 43.912 257.462 34.888L262.742 1.576H284.63L279.158 36.04C276.758 51.208 268.886 74.056 234.326 74.056ZM330.201 74.248H328.281C294.297 74.248 284.889 55.72 284.889 41.224C284.889 38.92 284.985 36.904 285.369 34.312C287.385 20.392 296.313 0.327997 336.249 0.327997H339.225C378.201 0.327997 384.057 17.8 383.481 27.496H360.441C360.153 25.768 358.713 17.32 337.209 17.32C316.185 17.32 309.465 26.632 308.217 35.752C308.025 37.192 307.929 38.152 307.929 39.496C307.929 48.808 314.457 56.872 332.025 56.872C351.897 56.872 359.385 49 359.961 46.504H332.505L334.617 32.968H383.481L377.145 73H364.089C364.185 70.312 363.993 64.744 363.225 61.672C360.057 65.416 350.457 74.248 330.201 74.248ZM386.554 73L397.882 1.576H419.674L415.546 27.592H461.53L465.658 1.576H487.45L476.122 73H454.33L458.746 44.872H412.762L408.346 73H386.554ZM497.538 1.576H570.69L568.098 17.8H516.45L514.818 28.36H565.314L562.722 44.68H512.226L510.306 56.392H562.818L560.226 73H486.21L497.538 1.576ZM597.028 31.816H630.244C637.444 31.816 640.228 27.88 640.228 24.04C640.228 20.392 638.116 17.8 632.26 17.8H599.332L597.028 31.816ZM594.628 47.656L590.596 73H568.804L580.132 1.576H636.772C657.7 1.576 663.652 9.544 663.652 18.856C663.652 29.896 654.244 34.888 647.908 36.712C654.436 38.728 660.1 43.24 658.66 52.456L656.74 64.456C655.972 69.544 656.548 71.368 656.836 72.52L656.74 73H634.564C634.18 72.232 633.892 71.176 634.372 68.2L635.62 60.328C636.964 51.88 633.796 47.656 622.756 47.656H594.628Z"/>
</mask>
<path d="M21.552 73L20.0705 72.7653L19.7956 74.5H21.552V73ZM30.192 18.472L31.6735 18.7067L31.9484 16.972H30.192V18.472ZM0.72 18.472L-0.762655 18.2445L-1.02766 19.972H0.72V18.472ZM3.312 1.576V0.0759983H2.02457L1.82935 1.34855L3.312 1.576ZM84.432 1.576L85.9134 1.81167L86.1895 0.0759983H84.432V1.576ZM81.744 18.472V19.972H83.0242L83.2254 18.7077L81.744 18.472ZM52.272 18.472V16.972H50.991L50.7905 18.2373L52.272 18.472ZM43.632 73V74.5H44.913L45.1135 73.2347L43.632 73ZM23.0335 73.2347L31.6735 18.7067L28.7105 18.2373L20.0705 72.7653L23.0335 73.2347ZM30.192 16.972H0.72V19.972H30.192V16.972ZM2.20265 18.6995L4.79465 1.80345L1.82935 1.34855L-0.762655 18.2445L2.20265 18.6995ZM3.312 3.076H84.432V0.0759983H3.312V3.076ZM82.9506 1.34033L80.2626 18.2363L83.2254 18.7077L85.9134 1.81167L82.9506 1.34033ZM81.744 16.972H52.272V19.972H81.744V16.972ZM50.7905 18.2373L42.1505 72.7653L45.1135 73.2347L53.7535 18.7067L50.7905 18.2373ZM43.632 71.5H21.552V74.5H43.632V71.5ZM82.0253 34.504L80.5413 34.285L80.5395 34.2976L82.0253 34.504ZM184.169 39.304L185.653 39.5242L185.654 39.5161L184.169 39.304ZM104.969 36.328L103.474 36.2049L103.474 36.213L104.969 36.328ZM161.321 37.672L162.808 37.8702V37.8702L161.321 37.672ZM128.297 72.748C109.082 72.748 97.8163 68.0748 91.3605 62.0955C84.9163 56.1269 83.0452 48.6527 83.0452 42.568H80.0452C80.0452 49.2513 82.1102 57.6171 89.322 64.2965C96.5222 70.9652 108.632 75.748 128.297 75.748V72.748ZM83.0452 42.568C83.0452 40.3748 83.0458 38.0597 83.511 34.7104L80.5395 34.2976C80.0447 37.8603 80.0452 40.3452 80.0452 42.568H83.0452ZM83.5092 34.7229C84.358 28.9701 86.2137 20.8266 93.061 14.0935C99.8917 7.37664 111.938 1.828 133.673 1.828V-1.172C111.441 -1.172 98.5268 4.51136 90.9575 11.9545C83.4048 19.3813 81.4205 28.3259 80.5413 34.2851L83.5092 34.7229ZM133.673 1.828H137.801V-1.172H133.673V1.828ZM137.801 1.828C156.88 1.828 168.178 6.36119 174.694 12.2195C181.193 18.0617 183.149 25.4128 183.149 31.528H186.149C186.149 24.7791 183.977 16.5303 176.7 9.98848C169.441 3.46281 157.314 -1.172 137.801 -1.172V1.828ZM183.149 31.528C183.149 33.9874 183.054 36.5015 182.684 39.0919L185.654 39.5161C186.052 36.7305 186.149 34.0606 186.149 31.528H183.149ZM182.686 39.0838C181.787 45.1393 179.927 53.4733 173.077 60.3233C166.247 67.1527 154.207 72.748 132.425 72.748V75.748C154.708 75.748 167.627 70.0153 175.198 62.4447C182.748 54.8947 184.728 45.7567 185.653 39.5242L182.686 39.0838ZM132.425 72.748H128.297V75.748H132.425V72.748ZM163.109 33.832C163.109 29.5264 161.619 24.9887 157.183 21.5788C152.816 18.2209 145.784 16.108 135.017 16.108V19.108C145.467 19.108 151.731 21.1711 155.355 23.9572C158.912 26.6913 160.109 30.2656 160.109 33.832H163.109ZM135.017 16.108C122.959 16.108 115.228 18.7912 110.402 22.748C105.549 26.7269 103.835 31.8273 103.474 36.2049L106.464 36.4511C106.776 32.6687 108.229 28.4091 112.304 25.068C116.406 21.7048 123.363 19.108 135.017 19.108V16.108ZM103.474 36.213C103.373 37.5241 103.373 38.5353 103.373 39.592H106.373C106.373 38.5366 106.374 37.6279 106.465 36.443L103.474 36.213ZM103.373 39.592C103.373 43.7869 104.652 48.5755 108.945 52.2832C113.199 55.9582 120.188 58.372 131.177 58.372V55.372C120.566 55.372 114.403 53.0338 110.906 50.0128C107.446 47.0245 106.373 43.1731 106.373 39.592H103.373ZM131.177 58.372C143.051 58.372 150.687 55.6853 155.524 51.6656C160.378 47.6314 162.2 42.4317 162.808 37.8702L159.834 37.4738C159.291 41.5523 157.704 45.9526 153.607 49.3584C149.491 52.7787 142.632 55.372 131.177 55.372V58.372ZM162.808 37.8702C163.005 36.3905 163.109 35.2642 163.109 33.832H160.109C160.109 35.0878 160.021 36.0735 159.834 37.4738L162.808 37.8702ZM190.454 35.464L191.935 35.701L191.936 35.699L190.454 35.464ZM195.83 1.576V0.0759983H194.549L194.349 1.34098L195.83 1.576ZM217.718 1.576L219.2 1.81061L219.474 0.0759983H217.718V1.576ZM212.534 34.312L214.016 34.5467L214.016 34.5466L212.534 34.312ZM257.462 34.888L258.944 35.1244L258.944 35.1228L257.462 34.888ZM262.742 1.576V0.0759983H261.461L261.261 1.34118L262.742 1.576ZM284.63 1.576L286.112 1.81121L286.387 0.0759983H284.63V1.576ZM279.158 36.04L277.677 35.8048L277.677 35.8056L279.158 36.04ZM234.326 72.556H231.062V75.556H234.326V72.556ZM231.062 72.556C212.976 72.556 202.754 66.6399 197.274 59.2653C191.746 51.8263 190.828 42.6194 191.935 35.701L188.973 35.227C187.776 42.7086 188.73 52.7977 194.866 61.0547C201.05 69.3761 212.284 75.556 231.062 75.556V72.556ZM191.936 35.699L197.312 1.81102L194.349 1.34098L188.973 35.229L191.936 35.699ZM195.83 3.076H217.718V0.0759983H195.83V3.076ZM216.237 1.34139L211.053 34.0774L214.016 34.5466L219.2 1.81061L216.237 1.34139ZM211.053 34.0773C210.252 39.1312 210.659 44.8979 213.961 49.4383C217.309 54.0411 223.365 57.028 233.078 57.028V54.028C223.975 54.028 218.992 51.2549 216.387 47.6737C213.737 44.0301 213.28 39.1888 214.016 34.5467L211.053 34.0773ZM233.078 57.028C242.366 57.028 248.526 53.9896 252.534 49.6038C256.495 45.2683 258.2 39.7819 258.944 35.1244L255.981 34.6516C255.284 39.0181 253.726 43.8517 250.319 47.5802C246.958 51.2584 241.647 54.028 233.078 54.028V57.028ZM258.944 35.1228L264.224 1.81082L261.261 1.34118L255.981 34.6532L258.944 35.1228ZM262.742 3.076H284.63V0.0759983H262.742V3.076ZM283.149 1.34078L277.677 35.8048L280.64 36.2752L286.112 1.81121L283.149 1.34078ZM277.677 35.8056C276.493 43.2844 273.985 52.4591 267.668 59.7541C261.406 66.9862 251.237 72.556 234.326 72.556V75.556C251.975 75.556 263.023 69.7018 269.936 61.7179C276.795 53.7969 279.423 43.9636 280.64 36.2744L277.677 35.8056ZM285.369 34.312L286.853 34.5318L286.854 34.527L285.369 34.312ZM383.481 27.496V28.996H384.895L384.978 27.5849L383.481 27.496ZM360.441 27.496L358.961 27.7426L359.17 28.996H360.441V27.496ZM308.217 35.752L306.731 35.5486L306.73 35.5538L308.217 35.752ZM359.961 46.504L361.423 46.8413L361.847 45.004H359.961V46.504ZM332.505 46.504L331.023 46.2728L330.753 48.004H332.505V46.504ZM334.617 32.968V31.468H333.333L333.135 32.7368L334.617 32.968ZM383.481 32.968L384.963 33.2025L385.237 31.468H383.481V32.968ZM377.145 73V74.5H378.426L378.627 73.2345L377.145 73ZM364.089 73L362.59 72.9465L362.534 74.5H364.089V73ZM363.225 61.672L364.68 61.3082L363.97 58.4689L362.08 60.7031L363.225 61.672ZM330.201 72.748H328.281V75.748H330.201V72.748ZM328.281 72.748C311.559 72.748 301.132 68.1946 294.889 62.0987C288.638 55.9955 286.389 48.1602 286.389 41.224H283.389C283.389 48.7838 285.844 57.4605 292.793 64.2453C299.75 71.0374 311.019 75.748 328.281 75.748V72.748ZM286.389 41.224C286.389 38.9742 286.482 37.0341 286.853 34.5318L283.885 34.0922C283.488 36.7739 283.389 38.8658 283.389 41.224H286.389ZM286.854 34.527C287.832 27.7681 290.469 19.6523 297.595 13.2129C304.715 6.77871 316.528 1.828 336.249 1.828V-1.172C316.034 -1.172 303.415 3.90928 295.583 10.9871C287.757 18.0597 284.922 26.9359 283.884 34.097L286.854 34.527ZM336.249 1.828H339.225V-1.172H336.249V1.828ZM339.225 1.828C358.521 1.828 369.306 6.15688 375.187 11.396C381.034 16.6042 382.251 22.9071 381.984 27.407L384.978 27.5849C385.287 22.3889 383.864 15.1078 377.183 9.15595C370.536 3.23511 358.905 -1.172 339.225 -1.172V1.828ZM383.481 25.996H360.441V28.996H383.481V25.996ZM361.921 27.2494C361.747 26.2077 361.207 23.2213 357.685 20.5628C354.235 17.9587 348.124 15.82 337.209 15.82V18.82C347.798 18.82 353.159 20.9053 355.877 22.9572C358.523 24.9547 358.847 27.0562 358.961 27.7426L361.921 27.2494ZM337.209 15.82C326.491 15.82 319.189 18.1926 314.377 21.9315C309.54 25.689 307.396 30.6873 306.731 35.5486L309.703 35.9554C310.286 31.6967 312.126 27.479 316.217 24.3005C320.333 21.1034 326.903 18.82 337.209 18.82V15.82ZM306.73 35.5538C306.534 37.0259 306.429 38.0588 306.429 39.496H309.429C309.429 38.2452 309.516 37.3581 309.704 35.9502L306.73 35.5538ZM306.429 39.496C306.429 44.5216 308.205 49.3194 312.431 52.8298C316.621 56.3106 323.034 58.372 332.025 58.372V55.372C323.448 55.372 317.813 53.4014 314.348 50.5222C310.917 47.6726 309.429 43.7824 309.429 39.496H306.429ZM332.025 58.372C342.158 58.372 349.241 56.3647 353.916 53.9576C356.25 52.7556 357.991 51.4502 359.206 50.2398C360.375 49.0755 361.185 47.8719 361.423 46.8413L358.499 46.1667C358.449 46.3841 358.107 47.1005 357.089 48.1142C356.117 49.0818 354.636 50.2124 352.542 51.2904C348.361 53.4433 341.764 55.372 332.025 55.372V58.372ZM359.961 45.004H332.505V48.004H359.961V45.004ZM333.987 46.7352L336.099 33.1992L333.135 32.7368L331.023 46.2728L333.987 46.7352ZM334.617 34.468H383.481V31.468H334.617V34.468ZM381.999 32.7335L375.663 72.7655L378.627 73.2345L384.963 33.2025L381.999 32.7335ZM377.145 71.5H364.089V74.5H377.145V71.5ZM365.588 73.0535C365.686 70.323 365.5 64.5869 364.68 61.3082L361.77 62.0358C362.486 64.9011 362.684 70.301 362.59 72.9465L365.588 73.0535ZM362.08 60.7031C359.151 64.1645 349.949 72.748 330.201 72.748V75.748C350.965 75.748 360.963 66.6675 364.37 62.6409L362.08 60.7031ZM386.554 73L385.072 72.765L384.797 74.5H386.554V73ZM397.882 1.576V0.0759983H396.601L396.4 1.34103L397.882 1.576ZM419.674 1.576L421.155 1.81107L421.431 0.0759983H419.674V1.576ZM415.546 27.592L414.064 27.3569L413.789 29.092H415.546V27.592ZM461.53 27.592V29.092H462.811L463.011 27.8271L461.53 27.592ZM465.658 1.576V0.0759983H464.377L464.176 1.34093L465.658 1.576ZM487.45 1.576L488.931 1.81096L489.206 0.0759983H487.45V1.576ZM476.122 73V74.5H477.403L477.603 73.235L476.122 73ZM454.33 73L452.848 72.7674L452.576 74.5H454.33V73ZM458.746 44.872L460.228 45.1046L460.5 43.372H458.746V44.872ZM412.762 44.872V43.372H411.479L411.28 44.6394L412.762 44.872ZM408.346 73V74.5H409.629L409.828 73.2326L408.346 73ZM388.035 73.235L399.363 1.81096L396.4 1.34103L385.072 72.765L388.035 73.235ZM397.882 3.076H419.674V0.0759983H397.882V3.076ZM418.192 1.34093L414.064 27.3569L417.027 27.8271L421.155 1.81107L418.192 1.34093ZM415.546 29.092H461.53V26.092H415.546V29.092ZM463.011 27.8271L467.139 1.81107L464.176 1.34093L460.048 27.3569L463.011 27.8271ZM465.658 3.076H487.45V0.0759983H465.658V3.076ZM485.968 1.34103L474.64 72.765L477.603 73.235L488.931 1.81096L485.968 1.34103ZM476.122 71.5H454.33V74.5H476.122V71.5ZM455.812 73.2326L460.228 45.1046L457.264 44.6394L452.848 72.7674L455.812 73.2326ZM458.746 43.372H412.762V46.372H458.746V43.372ZM411.28 44.6394L406.864 72.7674L409.828 73.2326L414.244 45.1046L411.28 44.6394ZM408.346 71.5H386.554V74.5H408.346V71.5ZM497.538 1.576V0.0759983H496.257L496.057 1.34103L497.538 1.576ZM570.69 1.576L572.171 1.81264L572.449 0.0759983H570.69V1.576ZM568.098 17.8V19.3H569.377L569.579 18.0366L568.098 17.8ZM516.45 17.8V16.3H515.164L514.968 17.5709L516.45 17.8ZM514.818 28.36L513.336 28.1309L513.068 29.86H514.818V28.36ZM565.314 28.36L566.795 28.5953L567.071 26.86H565.314V28.36ZM562.722 44.68V46.18H564.003L564.203 44.9153L562.722 44.68ZM512.226 44.68V43.18H510.952L510.746 44.4373L512.226 44.68ZM510.306 56.392L508.826 56.1493L508.54 57.892H510.306V56.392ZM562.818 56.392L564.3 56.6233L564.57 54.892H562.818V56.392ZM560.226 73V74.5H561.51L561.708 73.2313L560.226 73ZM486.21 73L484.729 72.765L484.453 74.5H486.21V73ZM497.538 3.076H570.69V0.0759983H497.538V3.076ZM569.209 1.33935L566.617 17.5634L569.579 18.0366L572.171 1.81264L569.209 1.33935ZM568.098 16.3H516.45V19.3H568.098V16.3ZM514.968 17.5709L513.336 28.1309L516.3 28.5891L517.932 18.0291L514.968 17.5709ZM514.818 29.86H565.314V26.86H514.818V29.86ZM563.833 28.1247L561.241 44.4447L564.203 44.9153L566.795 28.5953L563.833 28.1247ZM562.722 43.18H512.226V46.18H562.722V43.18ZM510.746 44.4373L508.826 56.1493L511.786 56.6347L513.706 44.9227L510.746 44.4373ZM510.306 57.892H562.818V54.892H510.306V57.892ZM561.336 56.1607L558.744 72.7687L561.708 73.2313L564.3 56.6233L561.336 56.1607ZM560.226 71.5H486.21V74.5H560.226V71.5ZM487.691 73.235L499.019 1.81096L496.057 1.34103L484.729 72.765L487.691 73.235ZM597.028 31.816L595.548 31.5727L595.261 33.316H597.028V31.816ZM599.332 17.8V16.3H598.058L597.852 17.5567L599.332 17.8ZM594.628 47.656V46.156H593.348L593.146 47.4203L594.628 47.656ZM590.596 73V74.5H591.876L592.077 73.2357L590.596 73ZM568.804 73L567.322 72.765L567.047 74.5H568.804V73ZM580.132 1.576V0.0759983H578.851L578.65 1.34103L580.132 1.576ZM647.908 36.712L647.493 35.2705L642.661 36.6615L647.465 38.1452L647.908 36.712ZM658.66 52.456L660.141 52.693L660.142 52.6876L658.66 52.456ZM656.74 64.456L655.259 64.219L655.257 64.2321L656.74 64.456ZM656.836 72.52L658.307 72.8142L658.373 72.4834L658.291 72.1562L656.836 72.52ZM656.74 73V74.5H657.969L658.211 73.2942L656.74 73ZM634.564 73L633.222 73.6708L633.637 74.5H634.564V73ZM634.372 68.2L635.853 68.4389L635.853 68.4349L634.372 68.2ZM635.62 60.328L634.138 60.0923L634.138 60.0931L635.62 60.328ZM597.028 33.316H630.244V30.316H597.028V33.316ZM630.244 33.316C634.114 33.316 637.008 32.2542 638.95 30.4734C640.894 28.6903 641.728 26.3255 641.728 24.04H638.728C638.728 25.5945 638.17 27.1177 636.922 28.2626C635.671 29.4098 633.573 30.316 630.244 30.316V33.316ZM641.728 24.04C641.728 21.924 641.106 19.8936 639.428 18.4238C637.787 16.9862 635.378 16.3 632.26 16.3V19.3C634.998 19.3 636.572 19.9098 637.451 20.6802C638.294 21.4184 638.728 22.508 638.728 24.04H641.728ZM632.26 16.3H599.332V19.3H632.26V16.3ZM597.852 17.5567L595.548 31.5727L598.508 32.0593L600.812 18.0433L597.852 17.5567ZM593.146 47.4203L589.114 72.7643L592.077 73.2357L596.109 47.8917L593.146 47.4203ZM590.596 71.5H568.804V74.5H590.596V71.5ZM570.285 73.235L581.613 1.81096L578.65 1.34103L567.322 72.765L570.285 73.235ZM580.132 3.076H636.772V0.0759983H580.132V3.076ZM636.772 3.076C647.089 3.076 653.419 5.04768 657.145 7.91306C660.794 10.7191 662.152 14.5457 662.152 18.856H665.152C665.152 13.8543 663.533 9.04085 658.974 5.53493C654.492 2.08832 647.383 0.0759983 636.772 0.0759983V3.076ZM662.152 18.856C662.152 28.8179 653.693 33.4858 647.493 35.2705L648.323 38.1535C654.795 36.2902 665.152 30.9741 665.152 18.856H662.152ZM647.465 38.1452C650.57 39.1039 653.31 40.6112 655.106 42.8284C656.862 44.9945 657.84 47.9871 657.178 52.2244L660.142 52.6876C660.92 47.7089 659.786 43.8374 657.437 40.9396C655.13 38.0928 651.774 36.3361 648.35 35.2788L647.465 38.1452ZM657.179 52.219L655.259 64.219L658.221 64.693L660.141 52.693L657.179 52.219ZM655.257 64.2321C654.861 66.8549 654.802 68.6953 654.895 70.0657C654.99 71.4532 655.24 72.32 655.381 72.8838L658.291 72.1562C658.144 71.568 657.962 70.9468 657.888 69.8623C657.813 68.7607 657.851 67.1451 658.223 64.6799L655.257 64.2321ZM655.365 72.2258L655.269 72.7058L658.211 73.2942L658.307 72.8142L655.365 72.2258ZM656.74 71.5H634.564V74.5H656.74V71.5ZM635.905 72.3292C635.721 71.9596 635.397 71.2656 635.853 68.4389L632.891 67.9612C632.387 71.0864 632.639 72.5044 633.222 73.6708L635.905 72.3292ZM635.853 68.4349L637.101 60.5629L634.138 60.0931L632.89 67.9651L635.853 68.4349ZM637.101 60.5637C637.797 56.1894 637.413 52.4187 634.92 49.7915C632.473 47.2132 628.377 46.156 622.756 46.156V49.156C628.174 49.156 631.182 50.2108 632.744 51.8565C634.259 53.4533 634.786 56.0186 634.138 60.0923L637.101 60.5637ZM622.756 46.156H594.628V49.156H622.756V46.156Z" fill="#F8F8F8" mask="url(#path-1-outside-1_747_10707)"/>
</g>
</svg>
