<svg width="231" height="321" viewBox="0 0 231 321" fill="none" xmlns="http://www.w3.org/2000/svg">
<path d="M0 0H230.728V320.463H0V0Z" fill="#2C2C2E"/>
<path d="M115.219 184.75C113.135 184.75 111.083 184.365 109.062 183.594C107.042 182.802 105.198 181.531 103.531 179.781C101.885 178.031 100.562 175.729 99.5625 172.875C98.5833 170 98.0938 166.469 98.0938 162.281V162.219C98.0938 157.156 98.7812 152.833 100.156 149.25C101.552 145.646 103.552 142.896 106.156 141C108.781 139.104 111.927 138.156 115.594 138.156C118.156 138.156 120.458 138.615 122.5 139.531C124.562 140.427 126.281 141.698 127.656 143.344C129.031 144.99 129.969 146.906 130.469 149.094L130.562 149.5H124.844L124.719 149.156C124.281 147.906 123.635 146.833 122.781 145.938C121.927 145.042 120.885 144.354 119.656 143.875C118.448 143.375 117.073 143.125 115.531 143.125C112.74 143.125 110.479 143.938 108.75 145.562C107.021 147.188 105.74 149.333 104.906 152C104.094 154.667 103.646 157.583 103.562 160.75C103.542 160.958 103.531 161.167 103.531 161.375C103.531 161.562 103.531 161.76 103.531 161.969L104.875 169.375C104.875 171.292 105.323 173.042 106.219 174.625C107.135 176.188 108.375 177.438 109.938 178.375C111.5 179.292 113.24 179.75 115.156 179.75C117.073 179.75 118.812 179.302 120.375 178.406C121.938 177.49 123.177 176.26 124.094 174.719C125.01 173.177 125.469 171.458 125.469 169.562V169.5C125.469 167.542 125.031 165.802 124.156 164.281C123.281 162.76 122.073 161.573 120.531 160.719C118.99 159.844 117.229 159.406 115.25 159.406C113.292 159.406 111.521 159.833 109.938 160.688C108.375 161.542 107.135 162.719 106.219 164.219C105.323 165.719 104.875 167.427 104.875 169.344V169.375H103V161.719H103.656C104.26 160.385 105.156 159.177 106.344 158.094C107.552 156.99 108.99 156.115 110.656 155.469C112.323 154.802 114.177 154.469 116.219 154.469C119.094 154.469 121.656 155.115 123.906 156.406C126.156 157.698 127.927 159.469 129.219 161.719C130.531 163.969 131.188 166.521 131.188 169.375V169.438C131.188 172.396 130.49 175.031 129.094 177.344C127.719 179.635 125.833 181.448 123.438 182.781C121.042 184.094 118.302 184.75 115.219 184.75Z" fill="white"/>
</svg>
