<svg width="233" height="241" viewBox="0 0 233 241" fill="none" xmlns="http://www.w3.org/2000/svg">
<path d="M0 0H232.244V240.074H0V0Z" fill="#2C2C2E"/>
<path d="M116.5 143.75C113.312 143.75 110.49 143.198 108.031 142.094C105.573 140.99 103.635 139.469 102.219 137.531C100.823 135.573 100.125 133.333 100.125 130.812V130.75C100.125 128.896 100.531 127.177 101.344 125.594C102.156 124.01 103.292 122.667 104.75 121.562C106.208 120.438 107.896 119.656 109.812 119.219V119.094C107.354 118.323 105.396 117.052 103.938 115.281C102.479 113.51 101.75 111.438 101.75 109.062V109C101.75 106.729 102.385 104.708 103.656 102.938C104.927 101.146 106.677 99.7396 108.906 98.7188C111.135 97.6771 113.667 97.1562 116.5 97.1562C119.354 97.1562 121.885 97.6771 124.094 98.7188C126.323 99.7396 128.073 101.146 129.344 102.938C130.615 104.708 131.25 106.729 131.25 109V109.062C131.25 111.438 130.521 113.51 129.062 115.281C127.625 117.052 125.667 118.323 123.188 119.094V119.219C125.125 119.656 126.812 120.438 128.25 121.562C129.708 122.667 130.844 124.01 131.656 125.594C132.469 127.177 132.875 128.896 132.875 130.75V130.812C132.875 133.333 132.177 135.573 130.781 137.531C129.385 139.469 127.448 140.99 124.969 142.094C122.51 143.198 119.688 143.75 116.5 143.75ZM116.5 138.844C118.583 138.844 120.417 138.49 122 137.781C123.604 137.052 124.865 136.062 125.781 134.812C126.698 133.542 127.156 132.094 127.156 130.469V130.406C127.156 128.76 126.698 127.302 125.781 126.031C124.885 124.76 123.635 123.76 122.031 123.031C120.427 122.302 118.583 121.938 116.5 121.938C114.417 121.938 112.573 122.302 110.969 123.031C109.365 123.76 108.104 124.76 107.188 126.031C106.292 127.302 105.844 128.76 105.844 130.406V130.469C105.844 132.094 106.302 133.542 107.219 134.812C108.135 136.062 109.396 137.052 111 137.781C112.604 138.49 114.438 138.844 116.5 138.844ZM116.5 117C118.312 117 119.906 116.688 121.281 116.062C122.656 115.417 123.729 114.531 124.5 113.406C125.271 112.281 125.656 110.99 125.656 109.531V109.469C125.656 108.01 125.271 106.719 124.5 105.594C123.729 104.469 122.656 103.594 121.281 102.969C119.906 102.323 118.312 102 116.5 102C114.688 102 113.094 102.323 111.719 102.969C110.344 103.594 109.271 104.469 108.5 105.594C107.729 106.719 107.344 108.01 107.344 109.469V109.531C107.344 110.99 107.729 112.281 108.5 113.406C109.271 114.531 110.344 115.417 111.719 116.062C113.094 116.688 114.688 117 116.5 117Z" fill="white"/>
</svg>
