<svg width="170" height="99" viewBox="0 0 170 99" fill="none" xmlns="http://www.w3.org/2000/svg">
<path d="M119.739 93.9602C120.379 93.9602 121.691 93.7042 123.675 93.1922C131.739 90.7602 137.499 86.2482 140.955 79.6562C141.275 78.9522 141.563 78.1202 141.819 77.1602C142.075 75.9442 142.203 74.9842 142.203 74.2802C142.203 73.8962 142.139 73.7042 142.011 73.7042C141.563 73.7042 139.739 74.6642 136.539 76.5842C131.739 79.5282 127.803 82.5682 124.731 85.7042C122.299 88.2002 120.667 90.4082 119.835 92.3282L119.259 93.7682C119.259 93.8962 119.419 93.9602 119.739 93.9602ZM120.219 95.2082C120.475 95.1442 120.955 95.0482 121.659 94.9202C122.299 94.7922 123.003 94.6002 123.771 94.3442C124.539 94.0882 125.147 93.8322 125.595 93.5762C126.043 93.3842 126.331 93.2562 126.459 93.1922L126.555 93.0002H126.459C123.323 93.8962 121.275 94.3442 120.315 94.3442C119.675 94.3442 119.323 94.5362 119.259 94.9202C119.259 95.0482 119.323 95.1442 119.451 95.2082H120.219ZM153.627 39.6242C153.883 39.5602 154.011 39.4962 154.011 39.4322C154.011 39.2402 153.339 39.1442 151.995 39.1442C151.227 39.1442 150.843 39.1762 150.843 39.2402C150.843 39.3042 150.971 39.3682 151.227 39.4322C151.547 39.4962 151.931 39.5602 152.379 39.6242C152.891 39.6242 153.307 39.6242 153.627 39.6242ZM143.547 83.7842C143.675 83.7842 143.835 83.5602 144.027 83.1122C144.283 82.7282 144.443 82.4722 144.507 82.3442H144.411C144.347 82.3442 144.251 82.4082 144.123 82.5362C143.995 82.6642 143.867 82.8562 143.739 83.1122C143.611 83.4322 143.547 83.6242 143.547 83.6882V83.7842ZM146.043 75.1442V74.9522C146.043 74.6962 145.915 74.2162 145.659 73.5122C145.467 72.8082 145.275 72.4562 145.083 72.4562C145.019 72.4562 144.987 72.5522 144.987 72.7442C144.987 73.0002 145.115 73.4802 145.371 74.1842C145.691 74.8242 145.883 75.1442 145.947 75.1442H146.043ZM116.667 92.9042C116.731 92.9042 116.827 92.8082 116.955 92.6162C117.147 92.1682 117.243 91.7522 117.243 91.3682V91.2722L116.859 91.7522C116.667 92.0082 116.571 92.3282 116.571 92.7122C116.571 92.8402 116.603 92.9042 116.667 92.9042ZM122.907 98.4722C121.883 98.4722 120.923 98.3762 120.027 98.1842C119.131 98.0562 118.491 97.9922 118.107 97.9922H118.011C117.883 97.9922 117.595 97.8322 117.147 97.5122C116.699 97.1922 115.163 95.7522 112.539 93.1922L112.731 91.3682C113.371 87.6562 116.411 83.3682 121.851 78.5042C125.755 75.0482 130.043 72.2642 134.715 70.1522L138.747 68.2322L135.483 64.2962L134.235 62.8562C133.083 61.5762 132.315 60.4562 131.931 59.4962C131.547 58.5362 131.355 57.4482 131.355 56.2322C131.355 54.2482 132.251 52.0082 134.043 49.5122C135.899 46.9522 138.267 44.7122 141.147 42.7922C145.947 39.5922 149.627 37.9922 152.187 37.9922C152.827 37.9922 153.339 38.1202 153.723 38.3762C154.363 38.8242 154.683 39.3042 154.683 39.8162C154.683 40.2642 155.099 40.8402 155.931 41.5442C156.763 42.1842 157.403 42.8562 157.851 43.5602C158.363 44.2642 158.619 44.8722 158.619 45.3842C158.619 46.2162 157.371 47.6242 154.875 49.6082C154.235 50.1842 153.851 50.4722 153.723 50.4722C153.659 50.4722 153.627 50.4402 153.627 50.3762L153.723 49.8962C153.723 49.7682 153.659 49.7042 153.531 49.7042L152.859 49.8962C152.795 49.8962 152.763 49.8642 152.763 49.8002C152.763 49.6082 153.211 48.9362 154.107 47.7842C155.003 46.5682 155.451 45.9282 155.451 45.8642V45.7682C155.259 45.7682 154.843 46.2162 154.203 47.1122C153.627 48.0082 152.827 48.8082 151.803 49.5122C151.355 49.9602 151.067 50.1842 150.939 50.1842C150.811 50.1842 150.747 49.9922 150.747 49.6082C150.747 49.1602 150.587 48.9362 150.267 48.9362C149.499 48.9362 147.899 50.0882 145.467 52.3922C141.115 56.6162 138.939 59.8802 138.939 62.1842C138.939 62.6322 139.483 63.4002 140.571 64.4882L142.395 66.6002L145.563 65.7362C147.227 65.0962 148.507 64.7762 149.403 64.7762H149.499C149.499 64.8402 149.307 64.9362 148.923 65.0642C145.147 66.2802 143.259 66.9842 143.259 67.1762H143.355C143.675 67.1762 144.123 67.1122 144.699 66.9842C146.043 66.5362 147.163 66.3122 148.059 66.3122C149.019 66.3122 149.659 66.5362 149.979 66.9842C150.363 67.3682 150.779 67.5602 151.227 67.5602H151.419C151.931 67.5602 152.763 68.0722 153.915 69.0962L152.091 69.7682C151.515 69.8322 150.875 69.9922 150.171 70.2482C149.531 70.4402 148.923 70.6642 148.347 70.9202C147.771 71.1122 147.163 71.3362 146.523 71.5922L147.387 73.4162C147.963 74.5042 148.251 75.8162 148.251 77.3522V78.9842C148.251 79.9442 147.931 81.0962 147.291 82.4402C146.139 84.7442 144.379 87.0802 142.011 89.4482C139.707 91.8802 137.307 93.7682 134.811 95.1122C130.459 97.3522 126.491 98.4722 122.907 98.4722Z" fill="#E0FF05"/>
<path d="M114.325 90.409C114.261 90.409 114.037 90.2811 113.653 90.0251C113.333 89.7691 112.917 89.3851 112.405 88.8731C111.893 88.3611 111.381 87.8811 110.869 87.4331C110.357 87.0491 109.973 86.7291 109.717 86.4731C108.693 85.8331 108.181 84.2971 108.181 81.8651C108.181 79.2411 108.789 75.5931 110.005 70.9211C112.309 61.5771 117.269 49.9611 124.885 36.073C123.733 36.073 122.933 36.105 122.485 36.1691C120.053 36.297 118.645 36.361 118.261 36.361C117.941 36.361 117.781 36.425 117.781 36.553V36.649C117.781 36.713 117.653 36.745 117.397 36.745C115.605 36.745 114.229 36.7771 113.269 36.8411C108.981 37.417 105.589 37.705 103.093 37.705C101.301 37.705 100.341 37.577 100.213 37.3211C100.213 37.0011 100.469 36.713 100.981 36.457C101.429 36.393 101.653 36.3291 101.653 36.2651C101.653 36.2011 101.365 36.1371 100.789 36.073C100.213 36.0091 99.7014 35.465 99.2534 34.441C98.9974 33.993 98.8374 33.6411 98.7734 33.385C98.7734 33.1291 98.8054 32.969 98.8694 32.905C99.0614 32.457 101.173 31.913 105.205 31.2731C108.277 30.761 111.317 30.345 114.325 30.025C118.805 29.6411 123.605 29.3531 128.725 29.161C130.581 26.025 132.213 23.401 133.621 21.289C135.093 19.113 135.957 18.025 136.213 18.025C136.533 18.025 136.757 17.833 136.885 17.449C137.077 17.065 137.301 16.873 137.557 16.873C137.685 16.937 137.749 17.257 137.749 17.833C137.685 17.961 137.653 18.121 137.653 18.313C137.653 18.633 137.749 18.9851 137.941 19.369C138.133 19.753 138.357 20.041 138.613 20.233C138.933 20.425 139.157 20.521 139.285 20.521C139.477 20.521 139.637 20.457 139.765 20.329C139.957 20.201 140.117 20.1371 140.245 20.1371C140.437 20.1371 140.629 20.233 140.821 20.425C141.077 20.617 141.269 20.905 141.397 21.289C141.525 21.673 141.589 22.057 141.589 22.441C141.589 23.081 140.661 25.289 138.805 29.0651C143.605 29.0651 148.277 29.1931 152.821 29.4491C162.869 30.0891 167.893 30.793 167.893 31.561C167.893 31.689 167.701 31.8811 167.317 32.1371C166.997 32.329 166.837 32.617 166.837 33.0011C166.837 33.5131 167.157 33.897 167.797 34.153C168.757 34.601 169.237 35.369 169.237 36.457L164.437 36.361C158.549 36.041 154.069 35.881 150.997 35.881L140.245 35.785L135.445 35.881C135.381 35.945 135.349 36.041 135.349 36.1691C135.349 36.233 135.317 36.297 135.253 36.361L130.933 45.0971L129.205 49.0331C129.205 49.097 129.173 49.1291 129.109 49.1291C129.109 49.1291 129.045 49.1611 128.917 49.2251C128.789 49.2251 128.725 49.2571 128.725 49.3211L128.821 49.801C128.757 49.929 128.629 49.993 128.437 49.993C128.245 49.993 128.149 50.0891 128.149 50.2811C128.149 50.4731 128.117 50.729 128.053 51.049C127.861 51.881 127.605 52.2971 127.285 52.2971C127.221 52.2971 127.189 52.3291 127.189 52.3931C127.189 52.4571 127.189 52.5211 127.189 52.5851L127.285 52.873L127.189 52.969C127.125 53.033 127.029 53.065 126.901 53.065C126.773 53.065 126.709 53.129 126.709 53.257V53.4491C126.709 53.833 126.485 54.409 126.037 55.177C125.461 56.265 125.013 57.321 124.693 58.345C124.373 59.305 124.085 59.785 123.829 59.785C123.637 59.785 123.541 59.8491 123.541 59.9771C123.541 60.1051 123.509 60.361 123.445 60.745C123.061 61.833 122.837 62.3771 122.773 62.3771C122.709 62.3771 122.645 62.4091 122.581 62.4731C122.517 62.5371 122.453 62.601 122.389 62.665C122.389 62.729 122.389 62.793 122.389 62.857C122.389 63.369 121.941 64.521 121.045 66.313C120.853 66.889 120.501 67.6891 119.989 68.7131L119.797 69.481C119.861 69.481 119.893 69.513 119.893 69.577L119.797 69.673C119.733 69.7371 119.701 69.8011 119.701 69.8651C119.509 70.1211 119.221 70.8571 118.837 72.0731C117.813 75.0171 117.013 77.7051 116.437 80.1371C116.309 80.9051 116.245 81.5131 116.245 81.9611C116.245 82.2811 116.341 82.5051 116.533 82.6331C116.725 82.7611 116.821 82.8571 116.821 82.9211C116.821 83.0491 116.629 83.1131 116.245 83.1131C115.861 83.1131 115.669 83.1771 115.669 83.3051C115.669 83.4331 116.053 83.4971 116.821 83.4971L117.397 83.4011C117.845 83.4011 118.069 83.4971 118.069 83.6891C118.069 83.8811 118.101 84.0091 118.165 84.0731L118.549 83.9771C118.997 83.9771 119.221 84.6811 119.221 86.0891C119.157 86.7291 119.029 87.2731 118.837 87.7211C118.645 87.9131 118.229 88.2011 117.589 88.5851C117.013 89.0331 116.373 89.4491 115.669 89.8331C115.029 90.2171 114.581 90.409 114.325 90.409ZM114.037 89.1611C114.229 89.1611 114.453 89.0651 114.709 88.8731C115.029 88.7451 115.189 88.6491 115.189 88.5851C115.189 88.5211 114.997 88.4891 114.613 88.4891C114.037 88.4891 113.749 88.6171 113.749 88.8731C113.749 89.0651 113.845 89.1611 114.037 89.1611ZM166.837 31.945C166.965 31.945 167.029 31.881 167.029 31.753L166.933 31.465H167.029C166.837 31.337 166.485 31.241 165.973 31.177C165.589 31.177 165.397 31.209 165.397 31.2731C165.397 31.337 165.525 31.465 165.781 31.6571C166.101 31.849 166.389 31.945 166.645 31.945H166.837Z" fill="#E0FF05"/>
<path d="M96.5117 65.449C96.5117 65.321 96.3517 65.001 96.0317 64.489C95.0077 62.825 94.4317 61.993 94.3037 61.993V62.089C94.3037 62.345 94.4317 62.761 94.6877 63.337C95.0077 63.849 95.3597 64.329 95.7437 64.777C96.1277 65.225 96.3837 65.449 96.5117 65.449ZM97.5677 63.625C97.7597 63.625 98.2077 62.953 98.9117 61.609C101.984 55.721 103.648 50.761 103.904 46.729L104 44.617C104 44.041 103.968 43.753 103.904 43.753C103.072 43.753 101.984 44.521 100.64 46.057C99.2957 47.593 98.1757 49.321 97.2797 51.241C96.3837 53.161 95.9357 55.305 95.9357 57.673C95.9357 59.273 96.1597 60.681 96.6077 61.897C97.1197 63.049 97.4397 63.625 97.5677 63.625ZM105.152 40.105L104.864 39.433C104.16 38.217 103.104 37.609 101.696 37.609H101.12C100.288 37.737 99.8717 37.865 99.8717 37.993C99.8717 38.121 100.32 38.217 101.216 38.281C102.176 38.345 102.656 38.473 102.656 38.665V38.857C102.656 38.985 102.784 39.113 103.04 39.241C103.296 39.369 103.552 39.497 103.808 39.625C104.064 39.689 104.32 39.785 104.576 39.913C104.832 40.041 104.992 40.105 105.056 40.105H105.152ZM104.864 58.825C105.12 58.825 105.632 57.737 106.4 55.561C106.912 53.833 107.168 52.841 107.168 52.585V52.393C107.104 52.393 106.976 52.585 106.784 52.969C106.336 53.993 105.888 55.401 105.44 57.193L104.864 58.825ZM107.744 46.153C107.808 46.153 107.872 46.057 107.936 45.865C107.936 45.609 107.808 45.129 107.552 44.425C107.168 43.401 106.88 42.889 106.688 42.889C106.496 42.889 106.4 42.985 106.4 43.177C106.72 43.817 107.008 44.489 107.264 45.193C107.52 45.833 107.68 46.153 107.744 46.153ZM107.36 51.145C107.488 51.145 107.552 50.889 107.552 50.377C107.552 49.801 107.488 49.513 107.36 49.513C107.296 49.513 107.264 49.801 107.264 50.377C107.264 50.889 107.296 51.145 107.36 51.145ZM103.712 61.513C103.776 61.513 103.936 61.257 104.192 60.745C104.576 60.361 104.768 59.945 104.768 59.497V59.401C104.704 59.401 104.544 59.593 104.288 59.977C104.096 60.361 103.936 60.681 103.808 60.937C103.744 61.129 103.712 61.289 103.712 61.417V61.513ZM81.9197 77.545C82.4317 77.545 83.5197 77.129 85.1837 76.297C88.7677 74.441 91.7437 72.041 94.1117 69.097L95.8397 66.889L93.4397 64.393C92.3517 63.177 91.2957 61.737 90.2717 60.073C89.3117 58.409 88.8317 57.225 88.8317 56.521C88.8317 56.393 88.7997 56.329 88.7357 56.329C88.6717 56.393 88.5117 56.553 88.2557 56.809C88.0637 57.001 87.9677 57.289 87.9677 57.673L88.0637 57.961C88.0637 58.089 87.9677 58.153 87.7757 58.153C87.5837 58.153 87.4877 58.217 87.4877 58.345L87.5837 58.633C87.5837 58.889 87.4557 59.145 87.1997 59.401C86.9437 59.657 86.8157 59.881 86.8157 60.073V60.265C86.8157 60.393 86.7197 60.457 86.5277 60.457C86.3357 60.457 86.2397 60.521 86.2397 60.649L86.1437 61.609C85.8877 62.441 85.5997 62.857 85.2797 62.857H84.9917C84.9917 62.921 85.0237 62.985 85.0877 63.049C85.1517 63.049 85.1837 63.081 85.1837 63.145C85.1837 63.529 85.0237 63.977 84.7037 64.489L84.2237 65.641H84.3197L84.1277 66.121C83.4877 67.145 83.1677 67.881 83.1677 68.329C83.1677 68.713 83.0397 69.033 82.7837 69.289L82.3997 70.537C82.0157 71.689 81.7597 72.713 81.6317 73.609C81.4397 74.953 81.3437 75.881 81.3437 76.393C81.3437 77.161 81.5357 77.545 81.9197 77.545ZM83.8397 82.921L83.9357 82.825C83.9357 82.697 83.6477 82.633 83.0717 82.633C82.4957 82.633 82.2077 82.697 82.2077 82.825C82.2077 82.889 82.7517 82.921 83.8397 82.921ZM82.1117 78.697C82.3677 78.697 82.5917 78.665 82.7837 78.601C82.9757 78.537 83.1037 78.473 83.1677 78.409C83.2957 78.281 83.3597 78.185 83.3597 78.121C83.3597 78.057 83.2957 78.025 83.1677 78.025C82.9757 78.025 82.5917 78.153 82.0157 78.409C81.6957 78.537 81.5357 78.633 81.5357 78.697H82.1117ZM82.7837 84.073C82.3997 84.073 82.1117 84.041 81.9197 83.977C81.7917 83.913 81.6317 83.817 81.4397 83.689C77.0237 81.129 74.3677 79.113 73.4717 77.641C72.8317 76.553 72.5117 74.889 72.5117 72.649C72.5117 68.425 73.7917 63.785 76.3517 58.729C81.8557 48.041 87.7757 40.809 94.1117 37.033C94.8157 36.649 95.3277 36.457 95.6477 36.457C96.0317 36.457 96.2877 36.553 96.4157 36.745C96.6077 36.873 96.7357 37.001 96.7997 37.129C96.8637 37.193 96.9277 37.545 96.9917 38.185C96.9277 38.185 96.8637 38.057 96.7997 37.801C96.7357 37.289 96.4477 37.033 95.9357 37.033C95.6797 37.033 95.3277 37.129 94.8797 37.321C94.6877 37.385 94.5917 37.449 94.5917 37.513C94.5917 37.705 94.9757 37.897 95.7437 38.089C96.1917 38.217 96.5437 38.281 96.7997 38.281C97.2477 38.281 97.6637 38.153 98.0477 37.897C98.9437 37.193 99.9037 36.841 100.928 36.841C101.312 36.841 101.92 36.937 102.752 37.129C103.584 37.257 104.448 38.025 105.344 39.433C105.984 40.393 106.656 41.161 107.36 41.737C108.832 43.273 109.76 45.129 110.144 47.305C110.208 47.625 110.24 48.009 110.24 48.457C110.24 50.121 109.824 52.393 108.992 55.273C108.16 58.153 106.592 61.929 104.288 66.601C103.904 67.241 103.712 67.689 103.712 67.945C103.712 68.137 103.808 68.233 104 68.233C104.256 68.233 104.544 68.329 104.864 68.521C106.08 69.225 106.688 69.833 106.688 70.345C106.688 70.473 106.624 70.601 106.496 70.729C106.368 70.857 106.144 70.921 105.824 70.921C105.632 70.921 104.896 70.761 103.616 70.441C102.976 70.249 102.528 70.153 102.272 70.153C101.888 70.153 101.696 70.217 101.696 70.345C101.696 70.409 101.792 70.473 101.984 70.537C102.176 70.601 102.336 70.665 102.464 70.729C103.04 70.921 103.616 71.017 104.192 71.017L104.288 71.209C104.096 71.401 103.584 71.497 102.752 71.497L102.272 71.401C101.632 71.401 100.864 72.009 99.9677 73.225C96.5757 77.321 92.6397 80.489 88.1597 82.729C86.2397 83.625 84.4477 84.073 82.7837 84.073Z" fill="#E0FF05"/>
<path d="M58.9824 48.7444C59.1104 48.7444 59.4624 48.4564 60.0384 47.8804C60.6144 47.2404 60.9024 46.8564 60.9024 46.7284C60.7104 46.7284 60.3264 47.0804 59.7504 47.7844C59.2384 48.2324 58.9824 48.5524 58.9824 48.7444ZM61.4784 46.4404L62.6304 45.1924C62.5024 45.1924 62.3104 45.2884 62.0544 45.4804C61.8624 45.6724 61.7024 45.8324 61.5744 45.9604L61.3824 46.1524C61.3824 46.3444 61.4144 46.4404 61.4784 46.4404ZM62.8224 45.1924C63.2064 45.0004 63.5904 44.8404 63.9744 44.7124C64.3584 44.5844 64.7424 44.5204 65.1264 44.5204C65.3184 44.5204 65.4464 44.5524 65.5104 44.6164C65.7664 44.6164 65.8944 44.3924 65.8944 43.9444C65.8944 43.3044 65.7344 42.9844 65.4144 42.9844C65.0944 42.9844 64.6144 43.3684 63.9744 44.1364L62.8224 45.1924ZM65.3184 66.3124C65.3824 66.2484 65.4144 66.1524 65.4144 66.0244L65.2224 65.3524C65.1584 65.3524 65.1264 65.5764 65.1264 66.0244C65.1264 66.1524 65.1264 66.2484 65.1264 66.3124C65.1264 66.3124 65.1584 66.3124 65.2224 66.3124H65.3184ZM65.0304 78.6964C65.3504 78.6964 65.5104 78.4724 65.5104 78.0244C65.5104 77.6404 65.3504 77.4484 65.0304 77.4484C64.7744 77.4484 64.6464 77.6404 64.6464 78.0244C64.6464 78.4724 64.7744 78.6964 65.0304 78.6964ZM64.8384 77.2564L65.0304 75.1444C64.9024 74.6964 64.7424 74.4724 64.5504 74.4724C64.4224 74.5364 64.3584 74.7604 64.3584 75.1444C64.3584 75.5924 64.5184 76.2964 64.8384 77.2564ZM68.4864 50.6644C68.6144 50.6644 68.6784 50.4404 68.6784 49.9924C68.6784 49.6084 68.6144 49.4164 68.4864 49.4164C68.4224 49.4164 68.3904 49.6084 68.3904 49.9924C68.3904 50.4404 68.4224 50.6644 68.4864 50.6644ZM68.7744 48.7444C69.0304 48.7444 69.1584 48.5524 69.1584 48.1684C69.1584 47.7204 69.0944 47.4964 68.9664 47.4964C68.9024 47.4964 68.8064 47.6244 68.6784 47.8804C68.6144 48.0724 68.5824 48.2644 68.5824 48.4564C68.5824 48.6484 68.6464 48.7444 68.7744 48.7444ZM36.2304 87.2404H36.1344C36.0064 87.2404 35.8464 87.2084 35.6544 87.1444C35.4624 87.0804 35.1104 86.8884 34.5984 86.5684C34.0224 86.2484 33.7344 85.8644 33.7344 85.4164C33.7344 85.1604 33.8624 84.8724 34.1184 84.5524C34.5664 83.9764 34.7904 82.6324 34.7904 80.5204C34.7904 79.2404 35.1744 77.0324 35.9424 73.8964C36.7104 70.7604 37.7024 67.3684 38.9184 63.7204C40.8384 58.2804 43.5584 51.1764 47.0784 42.4084C50.6624 33.6404 53.5744 26.9204 55.8144 22.2484L57.2544 19.1764C57.2544 19.0484 58.3744 16.9044 60.6144 12.7444C62.3424 9.48044 63.7504 6.98444 64.8384 5.25644C65.9904 3.52843 66.9504 2.34443 67.7184 1.70444C68.4864 1.00044 68.9344 0.648438 69.0624 0.648438C69.1264 0.648438 69.1584 0.712437 69.1584 0.840435L69.0624 1.51243C69.0624 1.89643 69.1904 2.31244 69.4464 2.76043C69.9584 3.46444 70.5024 3.81644 71.0784 3.81644C71.2064 3.81644 71.3344 3.75244 71.4624 3.62443C71.6544 3.49644 71.8144 3.43244 71.9424 3.43244C72.2624 3.43244 72.6464 3.68844 73.0944 4.20044C73.5424 4.71243 73.7664 5.09643 73.7664 5.35243C73.7664 5.67243 73.6064 6.12043 73.2864 6.69643L68.9664 15.1444L64.0704 25.0324L61.9584 29.6404C60.4864 32.9044 59.7504 34.6004 59.7504 34.7284L56.9664 41.2564L50.7264 56.5204L50.0544 58.3444C50.0544 58.4084 50.1184 58.4404 50.2464 58.4404H50.4384C50.8864 58.3124 51.1104 58.0884 51.1104 57.7684C51.1104 57.3844 52.0384 56.1684 53.8944 54.1204C55.7504 52.0084 56.7744 50.8884 56.9664 50.7604C57.2224 50.6324 57.3824 50.5364 57.4464 50.4724C57.5744 50.4084 57.6384 50.3444 57.6384 50.2804L57.5424 50.1844C57.5424 49.9924 57.7984 49.5764 58.3104 48.9364C58.8864 48.2964 59.5904 47.5604 60.4224 46.7284C61.2544 45.8964 62.0544 45.1284 62.8224 44.4244C63.5904 43.7204 64.1664 43.2724 64.5504 43.0804C64.9344 42.8884 65.2224 42.7924 65.4144 42.7924C65.9904 42.7924 66.2784 43.2404 66.2784 44.1364C66.2784 44.4564 66.3744 44.8084 66.5664 45.1924C66.8224 45.5764 67.0784 45.7684 67.3344 45.7684C67.5264 45.7684 67.6864 45.6404 67.8144 45.3844C67.9424 45.1284 68.1664 45.0004 68.4864 45.0004C68.9984 45.0004 69.6384 45.3524 70.4064 46.0564C71.1744 46.7604 71.5584 47.4964 71.5584 48.2644C71.5584 48.5844 71.4944 49.0324 71.3664 49.6084C71.3024 50.1204 71.1424 51.0484 70.8864 52.3924C70.6944 53.6724 70.4384 55.0164 70.1184 56.4244C68.3904 64.1044 67.5264 70.0884 67.5264 74.3764C67.6544 76.2324 67.7824 77.1604 67.9104 77.1604C68.2304 76.9044 68.8064 76.3604 69.6384 75.5284C70.5344 74.6324 71.3984 73.7364 72.2304 72.8404C73.0624 71.8804 73.6704 71.1764 74.0544 70.7284L70.5984 74.1844C69.9584 74.6324 69.3504 75.1444 68.7744 75.7204C68.3904 76.0404 68.1344 76.2004 68.0064 76.2004L68.2944 75.9124C68.4224 75.7204 68.8064 75.3364 69.4464 74.7604L70.7904 73.5124C72.5184 71.7844 73.7664 70.6324 74.5344 70.0564C74.7264 69.9284 74.8544 69.8004 74.9184 69.6724C75.0464 69.5444 75.1424 69.4484 75.2064 69.3844C75.2704 69.3204 75.3024 69.2564 75.3024 69.1924C75.3024 69.0644 75.4624 68.8084 75.7824 68.4244C76.1024 68.0404 76.4224 67.7844 76.7424 67.6564C76.8704 67.6564 76.9344 67.6884 76.9344 67.7524C76.9344 67.8164 76.7744 67.9764 76.4544 68.2324C76.1984 68.4884 76.0704 68.6484 76.0704 68.7124C76.0704 68.7124 76.0704 68.7444 76.0704 68.8084L76.1664 68.7124C76.6144 68.5844 76.9664 68.4564 77.2224 68.3284C77.4784 68.2004 77.7984 68.1364 78.1824 68.1364C78.3744 68.1364 78.5664 68.1684 78.7584 68.2324C79.0144 68.2324 79.1424 68.3924 79.1424 68.7124C79.2704 69.0324 79.4944 69.2564 79.8144 69.3844C80.1344 69.5124 80.3584 69.6404 80.4864 69.7684C80.6144 69.8964 80.6784 70.1844 80.6784 70.6324C80.6784 70.7604 80.6784 70.8564 80.6784 70.9204C80.7424 70.9204 80.8384 70.9204 80.9664 70.9204C81.1584 70.9204 81.2544 70.9844 81.2544 71.1124C81.1264 71.6884 80.4224 72.6164 79.1424 73.8964C77.8624 75.1764 76.5184 76.4244 75.1104 77.6404C73.7024 78.8564 72.7104 79.6564 72.1344 80.0404C71.1104 80.5524 69.7664 80.8084 68.1024 80.8084C64.8384 80.8084 62.5984 79.8484 61.3824 77.9284C60.6144 76.8404 60.2304 75.0804 60.2304 72.6484C60.2304 71.3044 60.3584 69.4804 60.6144 67.1764C60.8704 63.8484 61.3184 60.9364 61.9584 58.4404C62.5984 55.8804 62.9184 54.3444 62.9184 53.8324C62.9184 53.6404 62.8544 53.5444 62.7264 53.5444C62.5984 53.5444 62.2464 53.8964 61.6704 54.6004L61.3824 54.8884C55.8144 61.1604 50.1504 69.0964 44.3904 78.6964C41.9584 82.7284 40.4864 85.0644 39.9744 85.7044C39.5264 86.4084 39.0464 86.7604 38.5344 86.7604L37.5744 86.5684C36.9984 86.5684 36.6784 86.6644 36.6144 86.8564C36.4864 87.0484 36.3584 87.1764 36.2304 87.2404Z" fill="#E0FF05"/>
<path d="M4.398 87.4333C4.782 87.4333 4.974 87.3372 4.974 87.1452V86.9533C4.91 86.8253 4.782 86.6973 4.59 86.5693C4.398 86.5053 4.174 86.4733 3.918 86.4733C3.726 86.4733 3.598 86.5053 3.534 86.5693C3.47 86.6333 3.438 86.6973 3.438 86.7613C3.438 87.2093 3.758 87.4333 4.398 87.4333ZM28.686 67.4653C28.75 67.4653 28.782 67.4333 28.782 67.3693C28.782 67.1133 28.206 66.2813 27.054 64.8733C26.286 64.1053 25.07 63.1453 23.406 61.9933C21.742 60.7773 20.206 59.7853 18.798 59.0173C17.454 58.1853 16.59 57.7693 16.206 57.7693L15.726 57.8653L15.822 57.6733C15.822 57.1613 15.278 56.5533 14.19 55.8493C13.358 55.2093 12.782 54.8893 12.462 54.8893C12.334 54.8893 12.27 54.9853 12.27 55.1773C12.27 55.6253 12.782 56.2653 13.806 57.0973C14.83 57.8653 16.558 59.0173 18.99 60.5533C20.974 61.6413 23.31 63.3053 25.998 65.5453C27.534 66.8253 28.43 67.4653 28.686 67.4653ZM25.806 69.0013C25.806 68.9373 25.678 68.7773 25.422 68.5213V68.3293L24.078 67.3693C22.222 66.0893 20.238 64.8413 18.126 63.6253C16.846 62.8573 15.886 62.2813 15.246 61.8973C14.67 61.4493 14.318 61.2253 14.19 61.2253L14.382 61.5133C14.574 61.7053 15.15 62.1533 16.11 62.8573C17.134 63.5613 18.286 64.2973 19.566 65.0653C20.846 65.8333 21.966 66.5693 22.926 67.2733C23.95 67.9133 24.59 68.3293 24.846 68.5213C25.358 68.8413 25.678 69.0013 25.806 69.0013ZM29.838 72.5533C29.966 72.5533 30.062 72.4893 30.126 72.3613C30.126 72.1693 29.998 71.9773 29.742 71.7853L29.454 71.4013V71.4973C29.454 71.6253 29.486 71.8493 29.55 72.1693C29.614 72.4253 29.71 72.5533 29.838 72.5533ZM48.75 18.6973C49.006 18.4412 49.134 17.9613 49.134 17.2573C49.134 16.1053 48.462 15.3693 47.118 15.0493L45.966 14.6653C46.414 15.1133 46.798 15.5613 47.118 16.0093C47.502 16.4573 47.79 16.9053 47.982 17.3533C48.238 17.7373 48.366 18.0573 48.366 18.3132C48.366 18.5053 48.398 18.6333 48.462 18.6973H48.558H48.75ZM41.646 33.4813C41.71 33.4813 42.062 33.1613 42.702 32.5213C45.07 30.1533 47.054 27.7213 48.654 25.2253C49.358 24.0733 49.71 23.1453 49.71 22.4413C49.71 22.3133 49.678 22.2493 49.614 22.2493C49.358 22.2493 48.942 22.9533 48.366 24.3613C47.79 25.7693 46.318 27.8493 43.95 30.6013C42.414 32.4573 41.646 33.4173 41.646 33.4813ZM37.038 37.7052L38.67 36.4573C39.694 35.4333 40.206 34.8573 40.206 34.7293L40.11 34.6333C40.046 34.6333 39.566 35.0813 38.67 35.9773C37.582 37.0653 37.038 37.6413 37.038 37.7052ZM35.598 39.2413C35.662 39.2413 35.726 39.1773 35.79 39.0493C35.918 38.9213 36.11 38.7293 36.366 38.4733C36.622 38.1533 36.75 37.9613 36.75 37.8973L36.654 37.8013C36.59 37.8013 36.43 37.9293 36.174 38.1853C35.982 38.3773 35.822 38.5373 35.694 38.6653L35.502 38.9533C35.502 39.1453 35.534 39.2413 35.598 39.2413ZM6.126 88.7773H5.646C4.494 88.7773 3.726 88.5213 3.342 88.0093C3.022 87.4973 2.862 87.1773 2.862 87.0493C2.862 86.9213 2.798 86.6653 2.67 86.2812C2.286 85.4492 1.966 84.8413 1.71 84.4573C1.07 83.1133 0.75 82.2813 0.75 81.9613C0.75 81.7693 0.942 81.6732 1.326 81.6732C1.582 81.6732 1.934 81.7053 2.382 81.7693C2.83 81.8973 3.118 81.9613 3.246 81.9613H3.438C3.438 81.8333 3.31 81.6413 3.054 81.3853C2.862 81.1933 2.766 81.0653 2.766 81.0013C2.766 80.8733 2.894 80.7773 3.15 80.7133H4.494C5.326 80.6493 6.798 80.3613 8.91 79.8493C16.142 78.0573 21.262 76.0413 24.27 73.8013C25.742 72.7133 26.478 71.8813 26.478 71.3053C26.478 71.0493 26.222 70.7293 25.71 70.3453C25.262 69.8973 23.342 68.5853 19.95 66.4093C16.814 64.4893 14.542 62.9533 13.134 61.8013C11.726 60.6493 10.766 59.5293 10.254 58.4413C8.078 54.2813 6.798 51.5613 6.414 50.2813C6.094 49.0013 5.934 47.7533 5.934 46.5373C5.934 46.0253 5.998 45.4813 6.126 44.9053C6.254 44.3293 6.606 43.3693 7.182 42.0253C9.934 36.0093 16.078 29.7373 25.614 23.2092C30.926 19.6252 35.694 17.0653 39.918 15.5293C42.222 14.6973 44.174 14.2812 45.774 14.2812C46.99 14.2812 47.918 14.5373 48.558 15.0493C49.198 15.5613 49.518 16.2013 49.518 16.9692V18.4093C49.518 18.9853 49.678 19.4653 49.998 19.8493C50.638 20.4253 50.958 21.6413 50.958 23.4973C50.958 24.5213 50.798 25.5133 50.478 26.4733C49.134 29.6093 44.846 34.3773 37.614 40.7773C35.95 42.3133 34.478 43.6893 33.198 44.9053C31.918 46.1213 31.022 47.1133 30.51 47.8813C29.998 46.7293 29.742 46.0253 29.742 45.7693C29.742 45.4493 29.902 45.0653 30.222 44.6173C30.542 44.1693 31.086 43.4973 31.854 42.6013C32.686 41.7053 33.134 41.1933 33.198 41.0653C33.134 41.0653 32.782 41.3213 32.142 41.8333C30.862 43.1133 29.966 44.1053 29.454 44.8093C28.942 45.5133 28.59 45.8653 28.398 45.8653C28.27 45.8653 28.11 45.7373 27.918 45.4813C27.79 45.1613 27.662 44.8413 27.534 44.5213C27.406 44.1373 27.342 43.8493 27.342 43.6573C27.342 43.4653 27.31 43.3373 27.246 43.2733C27.246 43.1453 27.214 43.0813 27.15 43.0813C27.15 43.0173 27.118 42.9853 27.054 42.9853L26.766 43.1773C26.638 43.1773 26.574 43.0493 26.574 42.7933C26.574 42.4733 26.702 41.9933 26.958 41.3533C27.79 40.2653 30.062 37.9933 33.774 34.5373C37.486 31.0173 40.27 28.2013 42.126 26.0893C43.47 24.6173 44.142 23.7213 44.142 23.4013C44.142 23.3373 44.078 23.3053 43.95 23.3053C43.502 23.3053 41.23 24.4893 37.134 26.8573C34.574 28.3933 31.214 30.8573 27.054 34.2493C24.174 36.6173 21.838 38.7293 20.046 40.5853C19.406 41.2893 18.862 41.8333 18.414 42.2173C17.39 43.3053 16.302 44.7453 15.15 46.5373C13.998 48.3293 13.198 49.8973 12.75 51.2413C12.494 51.9453 12.366 52.4573 12.366 52.7773C12.366 53.1613 12.494 53.5133 12.75 53.8333C13.454 54.5373 15.694 56.0733 19.47 58.4413C25.934 62.6013 29.294 65.7373 29.55 67.8493C29.678 68.7453 30.03 69.6413 30.606 70.5373C31.246 71.4333 31.726 72.4573 32.046 73.6093C32.238 74.3133 32.334 74.9853 32.334 75.6253C32.334 80.4253 25.87 84.3933 12.942 87.5293C9.806 88.2333 7.534 88.6493 6.126 88.7773Z" fill="#E0FF05"/>
</svg>
