<svg width="231" height="321" viewBox="0 0 231 321" fill="none" xmlns="http://www.w3.org/2000/svg">
<path d="M0 0H230.728V320.463H0V0Z" fill="#2C2C2E"/>
<path d="M101.031 184V180.125L116.906 163.562C118.948 161.438 120.5 159.688 121.562 158.312C122.646 156.917 123.385 155.667 123.781 154.562C124.198 153.458 124.406 152.281 124.406 151.031V150.969C124.406 149.427 124.042 148.062 123.312 146.875C122.604 145.688 121.615 144.76 120.344 144.094C119.094 143.406 117.646 143.062 116 143.062C114.125 143.062 112.448 143.458 110.969 144.25C109.49 145.021 108.323 146.062 107.469 147.375C106.615 148.688 106.188 150.156 106.188 151.781V151.938H100.75V151.75C100.75 149.146 101.427 146.823 102.781 144.781C104.135 142.719 105.958 141.104 108.25 139.938C110.562 138.75 113.115 138.156 115.906 138.156C118.635 138.156 121.062 138.708 123.188 139.812C125.312 140.917 126.979 142.417 128.188 144.312C129.417 146.208 130.031 148.333 130.031 150.688V150.75C130.031 152.396 129.719 153.99 129.094 155.531C128.49 157.073 127.427 158.812 125.906 160.75C124.385 162.667 122.24 165.042 119.469 167.875L107.094 180.562L108.75 177.094V180.562L107.094 179H130.781V184H101.031Z" fill="white"/>
</svg>
