<svg width="816" height="50" viewBox="0 0 816 50" fill="none" xmlns="http://www.w3.org/2000/svg">
<g style="mix-blend-mode:exclusion">
<path d="M157.843 49.7048H155.667C131.091 49.7048 127.059 33.5768 128.595 23.9768L132.179 1.38477H146.771L143.315 23.2088C142.291 29.6728 144.467 37.3528 157.011 37.3528C168.915 37.3528 172.307 29.6088 173.267 23.5928L176.787 1.38477H191.379L187.731 24.3608C186.131 34.4728 180.883 49.7048 157.843 49.7048Z" fill="#F8F8F8"/>
</g>
<g style="mix-blend-mode:exclusion">
<path d="M87.1563 49.8327C61.2363 49.8327 55.9883 37.2247 55.9883 28.7127C55.9883 27.2407 55.9883 25.6407 56.3083 23.3367C57.4603 15.5287 61.4283 0.552734 90.7403 0.552734H93.4923C119.22 0.552734 124.724 12.7767 124.724 21.3527C124.724 23.0167 124.66 24.7447 124.404 26.5367C123.188 34.7287 119.284 49.8327 89.9083 49.8327H87.1563ZM109.364 22.8887C109.364 17.6407 105.78 12.0727 91.6363 12.0727C75.8283 12.0727 72.0523 19.1127 71.6043 24.5527C71.5403 25.3847 71.5403 26.0247 71.5403 26.7287C71.5403 31.9127 74.6763 38.2487 89.0763 38.2487C104.628 38.2487 108.404 31.2087 109.172 25.4487C109.3 24.4887 109.364 23.7847 109.364 22.8887Z" fill="#F8F8F8"/>
</g>
<g style="mix-blend-mode:exclusion">
<path d="M18.1604 49.0008L21.1044 30.5688L0.816406 1.38477H18.0964L29.8724 18.9208L47.4084 1.38477H64.3684L35.6324 30.5688L32.6884 49.0008H18.1604Z" fill="#F8F8F8"/>
</g>
<g style="mix-blend-mode:exclusion">
<path d="M815.564 36.8008L813.772 48.0008H798.668L800.46 36.8008H815.564Z" fill="#F8F8F8"/>
</g>
<g style="mix-blend-mode:exclusion">
<path d="M733.453 48.0008L741.005 0.384766H769.741C794.381 0.384766 801.101 10.4328 801.101 20.8008C801.101 22.9128 800.909 24.8968 800.589 26.7528C798.989 35.9688 792.205 48.0648 766.093 48.0008H733.453ZM753.677 11.6488L749.709 36.5448H764.877C781.133 36.5448 784.461 30.0168 785.421 25.0888C785.613 24.1288 785.741 23.0408 785.741 22.2088C785.741 17.3448 783.117 11.6488 768.845 11.6488H753.677Z" fill="#F8F8F8"/>
</g>
<g style="mix-blend-mode:exclusion">
<path d="M685.943 0.384766H734.711L732.983 11.2008H698.551L697.463 18.2408H731.127L729.399 29.1208H695.735L694.455 36.9288H729.463L727.735 48.0008H678.391L685.943 0.384766Z" fill="#F8F8F8"/>
</g>
<g style="mix-blend-mode:exclusion">
<path d="M639.306 48.0008L645.066 11.6488H625.418L627.146 0.384766H681.226L679.434 11.6488H659.786L654.026 48.0008H639.306Z" fill="#F8F8F8"/>
</g>
<g style="mix-blend-mode:exclusion">
<path d="M562.755 0.384766H578.947L603.267 30.9768L608.067 0.384766H622.403L614.851 48.0008H600.579L574.595 15.8728L569.539 48.0008H555.203L562.755 0.384766Z" fill="#F8F8F8"/>
</g>
<g style="mix-blend-mode:exclusion">
<path d="M531.137 28.5448L524.609 10.6888L513.537 28.5448H531.137ZM538.305 48.0008L535.105 39.2968H506.881L501.505 48.0008H486.465L516.545 0.384766H535.297L553.409 48.0008H538.305Z" fill="#F8F8F8"/>
</g>
<g style="mix-blend-mode:exclusion">
<path d="M440.192 48.0008H424.064L411.648 0.384766H427.008L434.88 33.1528L449.536 0.384766H464.96L471.36 32.1928L487.36 0.384766H502.016L476.608 48.0008H461.888L454.976 16.0648L440.192 48.0008Z" fill="#F8F8F8"/>
</g>
</svg>
