<svg width="205" height="115" viewBox="0 0 205 115" fill="none" xmlns="http://www.w3.org/2000/svg">
<path d="M0 0H204.417V114.55H0V0Z" fill="#48484A"/>
<path d="M102.438 81.75C99.5625 81.75 97 81.1979 94.75 80.0938C92.5208 78.9896 90.7292 77.4792 89.375 75.5625C88.0208 73.6458 87.2292 71.4688 87 69.0312L86.9688 68.6875H92.5L92.5312 68.9375C92.7188 70.4167 93.2604 71.7604 94.1562 72.9688C95.0521 74.1562 96.2188 75.0938 97.6562 75.7812C99.0938 76.4688 100.708 76.8125 102.5 76.8125C104.542 76.8125 106.344 76.375 107.906 75.5C109.469 74.625 110.688 73.4167 111.562 71.875C112.438 70.3125 112.875 68.5208 112.875 66.5V66.4375C112.875 64.4583 112.427 62.7083 111.531 61.1875C110.656 59.6458 109.448 58.4375 107.906 57.5625C106.365 56.6875 104.594 56.25 102.594 56.25C101.073 56.25 99.6562 56.4792 98.3438 56.9375C97.0521 57.375 95.9062 58.0521 94.9062 58.9688C94.5104 59.3438 94.125 59.75 93.75 60.1875C93.3958 60.625 93.0729 61.1042 92.7812 61.625H87.8125L90.125 35.9062H115.938V40.9062H94.75L93.2188 56.0625H93.3438C94.0521 55.0417 94.9271 54.1875 95.9688 53.5C97.0104 52.8125 98.1771 52.2917 99.4688 51.9375C100.76 51.5833 102.135 51.4062 103.594 51.4062C106.49 51.4062 109.052 52.0521 111.281 53.3438C113.531 54.6354 115.292 56.4062 116.562 58.6562C117.854 60.8854 118.5 63.4479 118.5 66.3438V66.4062C118.5 69.4062 117.812 72.0625 116.438 74.375C115.062 76.6875 113.167 78.5 110.75 79.8125C108.333 81.1042 105.562 81.75 102.438 81.75Z" fill="white"/>
</svg>
