<svg width="826" height="50" viewBox="0 0 826 50" fill="none" xmlns="http://www.w3.org/2000/svg">
<g style="mix-blend-mode:exclusion">
<path d="M328.443 1.38477H377.211L375.483 12.2008H341.051L339.963 19.2408H373.627L371.899 30.1208H338.235L336.955 37.9288H371.963L370.235 49.0008H320.891L328.443 1.38477Z" fill="#F8F8F8"/>
</g>
<g style="mix-blend-mode:exclusion">
<path d="M254.453 49.0008L262.005 1.38477H276.533L273.781 18.7288H304.437L307.189 1.38477H321.717L314.165 49.0008H299.637L302.581 30.2488H271.925L268.981 49.0008H254.453Z" fill="#F8F8F8"/>
</g>
<g style="mix-blend-mode:exclusion">
<path d="M215.368 49.0008L221.128 12.6488H201.48L203.208 1.38477H257.288L255.496 12.6488H235.848L230.088 49.0008H215.368Z" fill="#F8F8F8"/>
</g>
<g style="mix-blend-mode:exclusion">
<path d="M778.55 49.0008L761.078 1.38477H777.014L789.238 36.6488L810.358 1.38477H825.782L796.726 49.0008H778.55Z" fill="#F8F8F8"/>
</g>
<g style="mix-blend-mode:exclusion">
<path d="M724.781 49.8327C698.861 49.8327 693.613 37.2247 693.613 28.7127C693.613 27.2407 693.613 25.6407 693.933 23.3367C695.085 15.5287 699.053 0.552734 728.365 0.552734H731.117C756.845 0.552734 762.349 12.7767 762.349 21.3527C762.349 23.0167 762.285 24.7447 762.029 26.5367C760.813 34.7287 756.909 49.8327 727.533 49.8327H724.781ZM746.989 22.8887C746.989 17.6407 743.405 12.0727 729.261 12.0727C713.453 12.0727 709.677 19.1127 709.229 24.5527C709.165 25.3847 709.165 26.0247 709.165 26.7287C709.165 31.9127 712.301 38.2487 726.701 38.2487C742.253 38.2487 746.029 31.2087 746.797 25.4487C746.925 24.4887 746.989 23.7847 746.989 22.8887Z" fill="#F8F8F8"/>
</g>
<g style="mix-blend-mode:exclusion">
<path d="M645.669 49.0008H631.141L638.693 1.38477H672.293C687.909 1.38477 692.965 7.27277 692.965 15.5928C692.965 23.2728 689.253 33.1288 669.989 33.1288H648.229L645.669 49.0008ZM649.829 22.4408H669.925C675.301 22.4408 677.477 20.0088 677.477 16.6168C677.477 13.7368 675.557 12.2008 671.461 12.2008H651.493L649.829 22.4408Z" fill="#F8F8F8"/>
</g>
<g style="mix-blend-mode:exclusion">
<path d="M578.363 49.8327H575.803C552.059 49.8327 546.363 37.0327 546.363 27.7527C546.363 26.2167 546.427 24.8087 546.747 22.5047C547.835 14.4407 553.787 0.552734 580.155 0.552734H582.651C610.235 0.552734 613.243 13.4807 612.283 20.0087H596.859C596.667 18.6007 595.387 12.0727 580.603 12.0727C566.971 12.0727 562.939 18.4727 562.171 23.3367C561.979 24.5527 561.915 25.5767 561.915 26.7287C561.915 32.4247 565.499 38.2487 577.659 38.2487C592.763 38.2487 594.939 30.8887 595.387 29.8007H610.811C610.171 36.6487 604.859 49.8327 578.363 49.8327Z" fill="#F8F8F8"/>
</g>
<g style="mix-blend-mode:exclusion">
<path d="M545.721 1.38477L538.169 49.0008H523.641L531.193 1.38477H545.721Z" fill="#F8F8F8"/>
</g>
<g style="mix-blend-mode:exclusion">
<path d="M477.231 49.0008H462.703L470.255 1.38477H503.855C519.471 1.38477 524.527 7.27277 524.527 15.5928C524.527 23.2728 520.815 33.1288 501.551 33.1288H479.791L477.231 49.0008ZM481.391 22.4408H501.487C506.863 22.4408 509.039 20.0088 509.039 16.6168C509.039 13.7368 507.119 12.2008 503.023 12.2008H483.055L481.391 22.4408Z" fill="#F8F8F8"/>
</g>
<g style="mix-blend-mode:exclusion">
<path d="M415.193 1.38477H463.961L462.233 12.2008H427.801L426.713 19.2408H460.377L458.649 30.1208H424.985L423.705 37.9288H458.713L456.985 49.0008H407.641L415.193 1.38477Z" fill="#F8F8F8"/>
</g>
<g style="mix-blend-mode:exclusion">
<path d="M140.118 49.0008L145.878 12.6488H126.23L127.958 1.38477H182.038L180.246 12.6488H160.598L154.838 49.0008H140.118Z" fill="#F8F8F8"/>
</g>
<g style="mix-blend-mode:exclusion">
<path d="M75.5051 1.38477H124.273L122.545 12.2008H88.1131L87.0251 19.2408H120.689L118.961 30.1208H85.2971L84.0171 37.9288H119.025L117.297 49.0008H67.9531L75.5051 1.38477Z" fill="#F8F8F8"/>
</g>
<g style="mix-blend-mode:exclusion">
<path d="M30.3838 49.8327H29.1038C6.44778 49.8327 0.175781 37.4807 0.175781 27.8167C0.175781 26.2807 0.239781 24.9367 0.495781 23.2087C1.83978 13.9287 7.79178 0.552734 34.4158 0.552734H36.3998C62.3838 0.552734 66.2878 12.2007 65.9038 18.6647H50.5438C50.3518 17.5127 49.3918 11.8807 35.0558 11.8807C21.0398 11.8807 16.5598 18.0887 15.7278 24.1687C15.5998 25.1287 15.5358 25.7687 15.5358 26.6647C15.5358 32.8727 19.8878 38.2487 31.5998 38.2487C44.8478 38.2487 49.8398 33.0007 50.2238 31.3367H31.9198L33.3278 22.3127H65.9038L61.6798 49.0007H52.9758C53.0398 47.2087 52.9118 43.4967 52.3998 41.4487C50.2878 43.9447 43.8878 49.8327 30.3838 49.8327Z" fill="#F8F8F8"/>
</g>
</svg>
