<svg width="267" height="371" viewBox="0 0 267 371" fill="none" xmlns="http://www.w3.org/2000/svg">
<path d="M0 0.808594H266.147V370.465H0V0.808594Z" fill="#2C2C2E"/>
<path d="M139.25 209V199.625H116.594V194.531C117.906 192.49 119.219 190.448 120.531 188.406C121.865 186.365 123.188 184.323 124.5 182.281C125.833 180.24 127.156 178.198 128.469 176.156C129.781 174.115 131.094 172.073 132.406 170.031C133.74 167.99 135.062 165.948 136.375 163.906H144.688V194.688H151.062V199.625H144.688V209H139.25ZM122.156 194.688H139.25V168.719H139.062C137.938 170.448 136.812 172.177 135.688 173.906C134.562 175.615 133.438 177.333 132.312 179.062C131.188 180.771 130.052 182.49 128.906 184.219C127.781 185.948 126.656 187.677 125.531 189.406C124.406 191.115 123.281 192.833 122.156 194.562V194.688Z" fill="white"/>
</svg>
