<svg width="233" height="294" viewBox="0 0 233 294" fill="none" xmlns="http://www.w3.org/2000/svg">
<path d="M0 0H232.244V293.977H0V0Z" fill="#2C2C2E"/>
<path d="M115.906 170.75C112.802 170.75 110.094 170.219 107.781 169.156C105.469 168.094 103.635 166.635 102.281 164.781C100.948 162.927 100.177 160.812 99.9688 158.438L99.9375 158.062H105.344L105.375 158.375C105.542 159.854 106.073 161.156 106.969 162.281C107.885 163.406 109.104 164.292 110.625 164.938C112.146 165.562 113.906 165.875 115.906 165.875C117.885 165.875 119.615 165.531 121.094 164.844C122.594 164.156 123.76 163.208 124.594 162C125.427 160.771 125.844 159.365 125.844 157.781V157.719C125.844 154.948 124.917 152.823 123.062 151.344C121.229 149.844 118.729 149.094 115.562 149.094H109.906V144.344H115.312C117.104 144.344 118.688 144.01 120.062 143.344C121.438 142.656 122.51 141.729 123.281 140.562C124.052 139.375 124.438 138.031 124.438 136.531V136.469C124.438 134.885 124.104 133.542 123.438 132.438C122.771 131.333 121.792 130.49 120.5 129.906C119.229 129.323 117.677 129.031 115.844 129.031C114.073 129.031 112.49 129.333 111.094 129.938C109.719 130.521 108.615 131.365 107.781 132.469C106.948 133.573 106.448 134.885 106.281 136.406L106.25 136.719H100.844L100.875 136.406C101.125 133.948 101.896 131.802 103.188 129.969C104.5 128.135 106.229 126.708 108.375 125.688C110.542 124.667 113.031 124.156 115.844 124.156C118.719 124.156 121.219 124.656 123.344 125.656C125.49 126.635 127.146 128 128.312 129.75C129.5 131.479 130.094 133.49 130.094 135.781V135.844C130.094 137.698 129.688 139.344 128.875 140.781C128.062 142.219 126.938 143.417 125.5 144.375C124.062 145.333 122.406 146.01 120.531 146.406V146.531C123.823 146.802 126.479 147.917 128.5 149.875C130.542 151.812 131.562 154.385 131.562 157.594V157.656C131.562 160.156 130.885 162.396 129.531 164.375C128.177 166.354 126.323 167.917 123.969 169.062C121.615 170.188 118.927 170.75 115.906 170.75Z" fill="white"/>
</svg>
