<svg width="235" height="110" viewBox="0 0 235 110" fill="none" xmlns="http://www.w3.org/2000/svg">
<path d="M195.712 93.9602C196.352 93.9602 197.664 93.7042 199.648 93.1922C207.712 90.7602 213.472 86.2482 216.928 79.6562C217.248 78.9522 217.536 78.1202 217.792 77.1602C218.048 75.9442 218.176 74.9842 218.176 74.2802C218.176 73.8962 218.112 73.7042 217.984 73.7042C217.536 73.7042 215.712 74.6642 212.512 76.5842C207.712 79.5282 203.776 82.5682 200.704 85.7042C198.272 88.2002 196.64 90.4082 195.808 92.3282L195.232 93.7682C195.232 93.8962 195.392 93.9602 195.712 93.9602ZM196.192 95.2082C196.448 95.1442 196.928 95.0482 197.632 94.9202C198.272 94.7922 198.976 94.6002 199.744 94.3442C200.512 94.0882 201.12 93.8322 201.568 93.5762C202.016 93.3842 202.304 93.2562 202.432 93.1922L202.528 93.0002H202.432C199.296 93.8962 197.248 94.3442 196.288 94.3442C195.648 94.3442 195.296 94.5362 195.232 94.9202C195.232 95.0482 195.296 95.1442 195.424 95.2082H196.192ZM229.6 39.6242C229.856 39.5602 229.984 39.4962 229.984 39.4322C229.984 39.2402 229.312 39.1442 227.968 39.1442C227.2 39.1442 226.816 39.1762 226.816 39.2402C226.816 39.3042 226.944 39.3682 227.2 39.4322C227.52 39.4962 227.904 39.5602 228.352 39.6242C228.864 39.6242 229.28 39.6242 229.6 39.6242ZM219.52 83.7842C219.648 83.7842 219.808 83.5602 220 83.1122C220.256 82.7282 220.416 82.4722 220.48 82.3442H220.384C220.32 82.3442 220.224 82.4082 220.096 82.5362C219.968 82.6642 219.84 82.8562 219.712 83.1122C219.584 83.4322 219.52 83.6242 219.52 83.6882V83.7842ZM222.016 75.1442V74.9522C222.016 74.6962 221.888 74.2162 221.632 73.5122C221.44 72.8082 221.248 72.4562 221.056 72.4562C220.992 72.4562 220.96 72.5522 220.96 72.7442C220.96 73.0002 221.088 73.4802 221.344 74.1842C221.664 74.8242 221.856 75.1442 221.92 75.1442H222.016ZM192.64 92.9042C192.704 92.9042 192.8 92.8082 192.928 92.6162C193.12 92.1682 193.216 91.7522 193.216 91.3682V91.2722L192.832 91.7522C192.64 92.0082 192.544 92.3282 192.544 92.7122C192.544 92.8402 192.576 92.9042 192.64 92.9042ZM198.88 98.4722C197.856 98.4722 196.896 98.3762 196 98.1842C195.104 98.0562 194.464 97.9922 194.08 97.9922H193.984C193.856 97.9922 193.568 97.8322 193.12 97.5122C192.672 97.1922 191.136 95.7522 188.512 93.1922L188.704 91.3682C189.344 87.6562 192.384 83.3682 197.824 78.5042C201.728 75.0482 206.016 72.2642 210.688 70.1522L214.72 68.2322L211.456 64.2962L210.208 62.8562C209.056 61.5762 208.288 60.4562 207.904 59.4962C207.52 58.5362 207.328 57.4482 207.328 56.2322C207.328 54.2482 208.224 52.0082 210.016 49.5122C211.872 46.9522 214.24 44.7122 217.12 42.7922C221.92 39.5922 225.6 37.9922 228.16 37.9922C228.8 37.9922 229.312 38.1202 229.696 38.3762C230.336 38.8242 230.656 39.3042 230.656 39.8162C230.656 40.2642 231.072 40.8402 231.904 41.5442C232.736 42.1842 233.376 42.8562 233.824 43.5602C234.336 44.2642 234.592 44.8722 234.592 45.3842C234.592 46.2162 233.344 47.6242 230.848 49.6082C230.208 50.1842 229.824 50.4722 229.696 50.4722C229.632 50.4722 229.6 50.4402 229.6 50.3762L229.696 49.8962C229.696 49.7682 229.632 49.7042 229.504 49.7042L228.832 49.8962C228.768 49.8962 228.736 49.8642 228.736 49.8002C228.736 49.6082 229.184 48.9362 230.08 47.7842C230.976 46.5682 231.424 45.9282 231.424 45.8642V45.7682C231.232 45.7682 230.816 46.2162 230.176 47.1122C229.6 48.0082 228.8 48.8082 227.776 49.5122C227.328 49.9602 227.04 50.1842 226.912 50.1842C226.784 50.1842 226.72 49.9922 226.72 49.6082C226.72 49.1602 226.56 48.9362 226.24 48.9362C225.472 48.9362 223.872 50.0882 221.44 52.3922C217.088 56.6162 214.912 59.8802 214.912 62.1842C214.912 62.6322 215.456 63.4002 216.544 64.4882L218.368 66.6002L221.536 65.7362C223.2 65.0962 224.48 64.7762 225.376 64.7762H225.472C225.472 64.8402 225.28 64.9362 224.896 65.0642C221.12 66.2802 219.232 66.9842 219.232 67.1762H219.328C219.648 67.1762 220.096 67.1122 220.672 66.9842C222.016 66.5362 223.136 66.3122 224.032 66.3122C224.992 66.3122 225.632 66.5362 225.952 66.9842C226.336 67.3682 226.752 67.5602 227.2 67.5602H227.392C227.904 67.5602 228.736 68.0722 229.888 69.0962L228.064 69.7682C227.488 69.8322 226.848 69.9922 226.144 70.2482C225.504 70.4402 224.896 70.6642 224.32 70.9202C223.744 71.1122 223.136 71.3362 222.496 71.5922L223.36 73.4162C223.936 74.5042 224.224 75.8162 224.224 77.3522V78.9842C224.224 79.9442 223.904 81.0962 223.264 82.4402C222.112 84.7442 220.352 87.0802 217.984 89.4482C215.68 91.8802 213.28 93.7682 210.784 95.1122C206.432 97.3522 202.464 98.4722 198.88 98.4722Z" fill="#E0FF05"/>
<path d="M167.142 39.1434C167.27 39.1434 167.43 39.0474 167.622 38.8554C167.878 38.5994 168.006 38.3434 168.006 38.0874C168.006 37.9594 167.942 37.8954 167.814 37.8954C167.75 37.8954 167.622 37.9594 167.43 38.0874C167.302 38.2154 167.142 38.3754 166.95 38.5674C166.822 38.6954 166.758 38.8234 166.758 38.9514C166.758 39.0794 166.886 39.1434 167.142 39.1434ZM197.478 70.9194L197.286 70.8234C197.286 70.6954 197.318 70.5674 197.382 70.4394C197.51 70.2474 197.702 70.1514 197.958 70.1514C198.086 70.1514 198.182 70.1834 198.246 70.2474L198.054 70.5354C197.99 70.7914 197.798 70.9194 197.478 70.9194ZM151.59 81.1914C151.718 81.1914 151.878 81.1274 152.07 80.9994C152.262 80.8714 152.39 80.7754 152.454 80.7114C152.454 80.6474 152.422 80.5514 152.358 80.4234C152.294 80.2954 152.134 80.2314 151.878 80.2314C151.75 80.2314 151.558 80.2954 151.302 80.4234C151.11 80.5514 151.014 80.6474 151.014 80.7114L151.11 80.9034C151.238 81.0954 151.398 81.1914 151.59 81.1914ZM194.406 41.5434C194.47 41.5434 194.566 41.4474 194.694 41.2554C194.822 41.0634 194.886 40.9034 194.886 40.7754C194.886 40.4554 194.694 40.1034 194.31 39.7194C193.926 39.3354 193.35 39.1434 192.582 39.1434H191.334C192.998 40.0394 193.926 40.7434 194.118 41.2554C194.182 41.4474 194.246 41.5434 194.31 41.5434H194.406ZM164.07 108.743C164.134 108.743 164.23 108.679 164.358 108.551C164.486 108.423 164.55 108.263 164.55 108.071C164.55 108.007 164.486 107.975 164.358 107.975C164.102 107.975 163.942 108.103 163.878 108.359C163.878 108.615 163.942 108.743 164.07 108.743ZM164.358 109.895C164.038 109.895 163.686 109.831 163.302 109.703C162.982 109.575 162.758 109.383 162.63 109.127C162.438 108.999 162.118 108.743 161.67 108.359C161.286 107.975 160.838 107.591 160.326 107.207C159.046 106.311 158.406 105.543 158.406 104.903C158.406 103.431 160.198 100.743 163.782 96.8394C167.366 92.9354 171.366 89.3194 175.782 85.9914C178.982 83.5594 180.998 81.6074 181.83 80.1354C185.286 74.3114 188.07 68.4554 190.182 62.5674C192.358 56.6154 193.446 51.7834 193.446 48.0714V46.2474C193.382 45.8634 193.318 45.6394 193.254 45.5754C192.294 45.5754 187.75 49.7994 179.622 58.2474C174.822 63.3034 171.014 67.2714 168.198 70.1514C163.27 75.0794 159.174 78.5674 155.91 80.6154C154.438 81.6394 153.254 82.1514 152.358 82.1514C151.462 82.1514 150.502 81.6394 149.478 80.6154L147.942 79.2714C146.278 77.9274 145.382 76.9354 145.254 76.2954V74.7594C145.318 74.5674 145.35 74.3114 145.35 73.9914C145.926 68.1674 149.446 60.3594 155.91 50.5674C159.75 44.8074 162.886 40.9354 165.318 38.9514C166.47 38.0554 167.27 37.6074 167.718 37.6074C168.102 37.6074 168.294 37.8954 168.294 38.4714V39.0474C168.294 40.1354 168.614 40.6794 169.254 40.6794C169.382 40.6794 169.542 40.6474 169.734 40.5834C169.926 40.5194 170.214 40.4874 170.598 40.4874C170.726 40.5514 170.982 40.8074 171.366 41.2554C171.814 41.7034 172.038 42.1834 172.038 42.6954C172.038 43.3994 171.654 44.1354 170.886 44.9034L170.022 45.8634L170.598 43.9434C169.51 45.0314 168.486 46.2474 167.526 47.5914C165.094 51.0474 163.462 53.6394 162.63 55.3674L161.382 57.5754C159.91 60.0714 158.15 63.5594 156.102 68.0394C154.95 70.3434 154.374 71.6234 154.374 71.8794C154.374 71.9434 154.438 71.9754 154.566 71.9754C154.694 71.9754 155.11 71.7194 155.814 71.2074C156.518 70.6314 158.086 69.1594 160.518 66.7914C162.95 64.3594 166.342 60.9034 170.694 56.4234C174.662 52.3274 177.766 49.1914 180.006 47.0154C182.246 44.7754 184.038 43.1434 185.382 42.1194C186.726 41.0954 188.038 40.1994 189.318 39.4314C190.662 38.6634 191.75 38.2794 192.582 38.2794C193.478 38.2794 194.214 38.6954 194.79 39.5274C195.494 40.2314 195.846 40.7434 195.846 41.0634C195.846 41.3834 196.262 42.0234 197.094 42.9834C197.99 43.9434 198.63 45.0314 199.014 46.2474C199.462 47.4634 199.686 49.0954 199.686 51.1434V53.6394C199.686 54.9834 199.43 56.9034 198.918 59.3994C198.406 61.8954 197.83 64.0714 197.19 65.9274C196.806 66.8234 196.614 68.0074 196.614 69.4794L196.71 70.3434C196.71 70.6634 196.614 70.9194 196.422 71.1114C196.23 71.3034 196.134 71.4954 196.134 71.6874C196.134 71.8794 196.23 71.9754 196.422 71.9754C196.806 71.9754 197.35 71.6234 198.054 70.9194C198.438 70.5354 198.694 70.3114 198.822 70.2474C200.23 69.2234 201.414 68.7114 202.374 68.7114C202.694 68.7114 203.014 68.8394 203.334 69.0954C203.718 69.2874 204.038 69.5754 204.294 69.9594C204.55 70.3434 204.774 70.5674 204.966 70.6314C205.158 70.6954 205.35 70.8874 205.542 71.2074C205.734 71.5274 205.83 71.8794 205.83 72.2634C205.83 72.7114 205.734 72.9994 205.542 73.1274C203.814 74.1514 202.182 75.2714 200.646 76.4874C199.174 77.6394 197.702 78.6954 196.23 79.6554C192.518 81.9594 190.214 83.4954 189.318 84.2634C188.422 85.0954 187.526 86.2154 186.63 87.6234C182.982 93.0634 178.822 98.1194 174.15 102.791C169.478 107.527 166.214 109.895 164.358 109.895Z" fill="#E0FF05"/>
<path d="M141.543 50.5687C141.799 50.3127 142.055 49.5447 142.311 48.2647C142.631 46.9847 142.791 45.8967 142.791 45.0007C142.791 44.1687 142.631 43.7527 142.311 43.7527C141.991 43.7527 141.831 44.2967 141.831 45.3847V45.9607C141.831 46.5367 141.799 47.1767 141.735 47.8807C141.671 48.5847 141.607 49.1287 141.543 49.5127C141.479 49.8967 141.447 50.1847 141.447 50.3767C141.447 50.5047 141.479 50.5687 141.543 50.5687ZM139.911 74.3767C139.975 74.3127 140.007 74.2167 140.007 74.0887C140.007 73.9607 139.975 73.8007 139.911 73.6087L139.815 73.4167C139.751 73.5447 139.719 73.7687 139.719 74.0887C139.719 74.2807 139.751 74.3767 139.815 74.3767H139.911ZM139.527 75.9127L139.623 75.5287L139.431 74.9527C139.367 74.9527 139.335 75.1127 139.335 75.4327C139.335 75.7527 139.367 75.9127 139.431 75.9127H139.527ZM139.047 77.7367C139.175 77.7367 139.239 77.5767 139.239 77.2567C139.239 76.8087 139.175 76.5847 139.047 76.5847C138.983 76.5847 138.951 76.7767 138.951 77.1607C138.951 77.5447 138.983 77.7367 139.047 77.7367ZM116.775 78.3127C116.967 78.3127 117.607 77.8967 118.695 77.0647C119.847 76.1687 121.191 74.9847 122.727 73.5127C126.503 69.7367 130.535 65.0647 134.823 59.4967C134.951 59.3687 135.079 59.1767 135.207 58.9207L136.551 57.2887C138.791 54.4727 139.911 52.7127 139.911 52.0087C139.911 51.6887 139.719 51.5287 139.335 51.5287H139.143C138.823 51.5287 138.663 51.2407 138.663 50.6647C138.663 50.2807 138.759 49.7047 138.951 48.9367L139.047 48.1687C139.047 47.5927 138.983 47.3047 138.855 47.3047C138.599 47.0487 138.471 46.6967 138.471 46.2487C138.471 46.0567 138.407 45.9607 138.279 45.9607C138.023 46.0247 137.191 46.7607 135.783 48.1687C129.063 55.0807 123.367 63.4967 118.695 73.4167C117.351 76.2327 116.679 77.8327 116.679 78.2167C116.679 78.2807 116.711 78.3127 116.775 78.3127ZM115.623 84.5527C115.815 84.5527 116.103 84.5207 116.487 84.4567C116.871 84.4567 117.223 84.3927 117.543 84.2647C117.863 84.1367 118.023 84.0407 118.023 83.9767C118.023 83.9127 117.735 83.8487 117.159 83.7847H117.063C116.615 83.7847 116.231 83.8487 115.911 83.9767C115.527 84.1047 115.335 84.2327 115.335 84.3607C115.335 84.4247 115.431 84.4887 115.623 84.5527ZM139.527 42.1207C139.591 42.1207 139.623 41.9927 139.623 41.7367C139.623 40.7767 139.111 40.2967 138.087 40.2967C137.255 40.2967 136.295 40.6167 135.207 41.2567C134.567 41.6407 134.247 41.8647 134.247 41.9287C134.311 41.9287 134.407 41.8967 134.535 41.8327C134.727 41.7687 135.143 41.7047 135.783 41.6407L136.839 41.4487C138.119 41.4487 138.855 41.5767 139.047 41.8327C139.303 42.0247 139.463 42.1207 139.527 42.1207ZM137.511 85.9927L134.439 84.3607C134.503 83.3367 134.535 82.3447 134.535 81.3847C134.535 80.4887 134.663 79.2727 134.919 77.7367C135.175 76.1367 135.463 74.6007 135.783 73.1287C136.103 71.5927 136.359 70.3767 136.551 69.4807C136.743 68.5207 136.839 67.9447 136.839 67.7527V67.6567C136.711 67.6567 135.879 68.5527 134.343 70.3447C130.759 74.8247 127.431 78.2487 124.359 80.6167C123.463 81.2567 122.471 81.8967 121.383 82.5367C118.695 84.1367 117.031 84.9367 116.391 84.9367C116.263 84.9367 115.847 84.8087 115.143 84.5527C114.439 84.2967 113.703 83.9447 112.935 83.4967C111.271 82.6647 110.215 81.8647 109.767 81.0967C109.511 80.7127 109.383 80.2007 109.383 79.5607C109.383 79.0487 109.479 78.4407 109.671 77.7367C110.695 73.4487 113.063 68.2007 116.775 61.9927C120.487 55.7847 124.487 50.4087 128.775 45.8647C132.743 41.7687 135.783 39.7207 137.895 39.7207C138.727 39.7207 139.303 40.1047 139.623 40.8727C140.007 41.5767 140.327 41.9287 140.583 41.9287H140.871C141.191 41.9287 141.671 42.0887 142.311 42.4087C143.015 42.6647 143.591 43.0807 144.039 43.6567C144.487 44.1687 144.711 44.6807 144.711 45.1927C144.711 45.6407 144.551 46.8887 144.231 48.9367L144.039 49.8967C144.039 50.1527 144.199 50.4727 144.519 50.8567C144.903 51.1767 145.351 51.3367 145.863 51.3367C146.119 51.3367 146.311 51.2727 146.439 51.1447C146.631 50.9527 146.823 50.8567 147.015 50.8567C147.143 50.8567 147.527 51.0167 148.167 51.3367C148.871 51.9127 149.223 52.2967 149.223 52.4887C149.223 53.2567 148.295 56.2647 146.439 61.5127C144.839 65.9927 143.399 70.8567 142.119 76.1047C141.031 80.3287 140.487 83.1767 140.487 84.6487C140.487 85.2887 140.359 85.6087 140.103 85.6087L139.335 85.4167H138.759C138.631 85.4167 138.567 84.7447 138.567 83.4007V81.7687L138.759 79.0807C138.759 78.8247 138.727 78.6967 138.663 78.6967C138.535 78.6967 138.151 81.1287 137.511 85.9927Z" fill="#E0FF05"/>
<path d="M88.8748 53.0642C89.0028 53.0642 89.0668 52.8402 89.0668 52.3922C89.0668 52.2002 89.0028 52.0722 88.8748 52.0082C88.6188 52.0082 88.4908 52.0722 88.4908 52.2002C88.4908 52.3282 88.4908 52.4242 88.4908 52.4882C88.4908 52.5522 88.5228 52.6802 88.5868 52.8722C88.6508 53.0002 88.7468 53.0642 88.8748 53.0642ZM96.3628 79.6562C96.5548 79.6562 96.7468 79.5922 96.9388 79.4642C97.1308 79.3362 97.2268 79.2083 97.2268 79.0803C97.2268 78.9523 97.1628 78.8883 97.0348 78.8883C96.8428 78.8883 96.6828 78.9203 96.5548 78.9843C96.4268 79.0483 96.2668 79.0803 96.0748 79.0803H95.7868V79.2723C95.7868 79.3363 95.8188 79.4322 95.8828 79.5602C95.9468 79.6242 96.0428 79.6562 96.1708 79.6562H96.3628ZM123.819 39.4322C124.011 39.4322 124.203 39.2402 124.395 38.8562C124.651 38.4082 124.779 38.1202 124.779 37.9922L124.683 37.8962C124.555 37.8962 124.363 38.1202 124.107 38.5682C123.915 39.0162 123.819 39.3042 123.819 39.4322ZM124.971 37.5123C125.035 37.5123 125.163 37.4163 125.355 37.2242C125.547 36.9683 125.643 36.7762 125.643 36.6482L125.547 36.4562C125.483 36.4562 125.323 36.6482 125.067 37.0322L124.971 37.5123ZM65.4508 83.7842C65.5148 83.7842 65.6108 83.7203 65.7388 83.5923C65.8668 83.4643 65.9308 83.3043 65.9308 83.1123C65.9308 83.0483 65.8668 83.0163 65.7388 83.0163C65.4828 83.0163 65.3228 83.1763 65.2588 83.4963L65.4508 83.7842ZM65.4508 84.9362C65.1948 84.9362 64.9708 84.7763 64.7788 84.4563C64.5228 84.1363 63.6588 83.6883 62.1868 83.1123C60.6508 82.2163 59.8828 81.5763 59.8828 81.1923C59.8828 80.1043 60.7468 77.4483 62.4748 73.2243C64.2028 69.0003 66.3148 64.3283 68.8108 59.2083C73.9308 48.9682 78.3788 41.6722 82.1548 37.3202C83.3708 35.9122 84.2348 35.2082 84.7468 35.2082C85.0028 35.2082 85.1628 35.3042 85.2268 35.4962L85.4188 35.6882C85.4188 35.7522 85.3868 35.7842 85.3228 35.7842C85.3228 35.7842 85.2908 35.7842 85.2268 35.7842L84.8428 35.6882C84.4588 35.6882 84.1708 35.8482 83.9788 36.1682C83.7868 36.4242 83.6908 36.5842 83.6908 36.6482C83.6908 36.7122 83.8508 36.7442 84.1708 36.7442C84.5548 36.7442 85.0028 37.0002 85.5148 37.5123C86.0268 37.9603 86.4428 38.1842 86.7628 38.1842C86.9548 38.1842 87.1148 38.1202 87.2428 37.9922C87.3708 37.8642 87.4988 37.8002 87.6268 37.8002C87.8828 37.8002 88.2668 38.0562 88.7788 38.5682C89.3548 39.0162 89.6428 39.3042 89.6428 39.4322C89.6428 39.5602 89.4828 39.6882 89.1628 39.8162C88.5228 40.1362 87.4348 41.4162 85.8988 43.6562C84.4268 45.8322 82.8268 48.4562 81.0988 51.5282C80.0108 53.7043 79.3068 55.0802 78.9868 55.6562C78.6668 56.1682 78.1548 57.0962 77.4508 58.4402C75.4668 62.1522 74.0268 65.0002 73.1308 66.9842C72.6828 67.9442 72.4588 68.4882 72.4588 68.6162V68.7122C72.5228 68.7122 73.3228 67.8802 74.8588 66.2162C76.4588 64.4882 78.3788 62.3762 80.6188 59.8802C82.9228 57.3842 84.8748 55.3363 86.4748 53.7362C88.1388 52.0723 89.0668 51.2402 89.2588 51.2402C89.5788 51.2402 89.7388 51.6882 89.7388 52.5842C89.8668 53.8002 90.2508 54.4082 90.8908 54.4082C91.0828 54.4082 91.2748 54.3762 91.4668 54.3122C91.6588 54.1842 91.8508 54.1202 92.0428 54.1202C92.1708 54.1202 92.2988 54.1523 92.4268 54.2162C92.5548 54.2162 93.2588 54.7922 94.5388 55.9443V61.8002C94.5388 64.5522 94.6348 67.0163 94.8268 69.1923C95.0828 71.3683 95.3708 72.6803 95.6908 73.1283C96.0108 73.0002 98.8908 68.8722 104.331 60.7442C110.795 51.2082 115.211 44.6162 117.579 40.9682L117.963 40.4882C121.035 35.8802 122.571 33.5122 122.571 33.3842C122.571 33.2562 122.603 33.1602 122.667 33.0962C122.731 32.9682 122.795 32.9042 122.859 32.9042L123.051 33.0002C123.243 33.0002 123.435 32.9362 123.627 32.8082C123.883 32.6162 124.107 32.3923 124.299 32.1362C124.555 31.8162 124.715 31.6562 124.779 31.6562C124.779 31.7202 124.715 31.8802 124.587 32.1362C124.523 32.3923 124.491 32.6162 124.491 32.8082C124.491 33.0002 124.555 33.2882 124.683 33.6722C124.811 33.9922 125.003 34.2802 125.259 34.5362C125.579 34.7282 125.835 34.8242 126.027 34.8242C126.155 34.8242 126.283 34.7922 126.411 34.7282C126.539 34.6002 126.699 34.5362 126.891 34.5362C127.083 34.6002 127.339 34.7922 127.659 35.1122C128.043 35.4322 128.235 35.7522 128.235 36.0722C128.235 36.3922 128.139 36.7762 127.947 37.2242C127.115 39.1442 124.011 44.1682 118.635 52.2962L113.163 60.5522L105.291 72.5523C102.923 76.0723 101.323 78.1523 100.491 78.7923C99.9148 79.1763 99.3068 79.5283 98.6668 79.8483C98.0268 80.1043 97.5788 80.2963 97.3228 80.4243C97.1308 80.4883 96.9388 80.5202 96.7468 80.5202C96.4908 80.5202 95.8188 80.0403 94.7308 79.0803L93.1948 77.9283C92.0428 77.0963 91.1468 76.0723 90.5068 74.8563C89.8668 73.5763 89.2908 72.0403 88.7788 70.2483C88.3308 68.4563 87.8828 65.8963 87.4348 62.5683C86.6028 63.4643 85.7708 64.3602 84.9388 65.2562C84.1068 66.0882 82.9548 67.3363 81.4828 69.0003C80.0108 70.6003 78.5388 72.2642 77.0668 73.9922C74.3148 77.0002 71.7868 79.5602 69.4828 81.6722C67.2428 83.8482 65.8988 84.9362 65.4508 84.9362Z" fill="#E0FF05"/>
<path d="M56.4697 95.4958C56.5977 95.4958 56.7257 95.3678 56.8537 95.1118C57.0457 94.9198 57.1417 94.6959 57.1417 94.4398L57.0457 94.3438C56.9817 94.3438 56.8857 94.3759 56.7577 94.4398C56.6297 94.5038 56.5017 94.5998 56.3737 94.7278C56.2457 94.9198 56.1817 95.1118 56.1817 95.3038C56.1817 95.4318 56.2777 95.4958 56.4697 95.4958ZM56.6617 96.1678C56.0857 96.1678 55.2537 96.0079 54.1657 95.6879L51.1897 94.7278C50.4217 94.5998 49.8457 94.2798 49.4617 93.7678C49.0777 93.3198 48.8217 92.4879 48.6937 91.2719C48.6297 90.4399 48.5977 88.6159 48.5977 85.7999C48.5977 79.2719 49.6857 72.5518 51.8617 65.6398C54.1017 58.2158 57.5577 49.1278 62.2297 38.3758C66.9657 27.5598 71.3497 18.7598 75.3817 11.9758C77.1737 8.83985 78.1657 6.98385 78.3577 6.40785C78.6137 5.95984 79.0617 5.28784 79.7017 4.39184C81.4937 2.02384 82.6137 0.839844 83.0617 0.839844C83.1897 0.839844 83.3177 0.935844 83.4457 1.12785C83.7657 2.02385 84.0857 2.47185 84.4057 2.47185C84.7257 2.47185 85.0457 2.75985 85.3657 3.33585C85.6857 3.84784 85.9417 4.10384 86.1337 4.10384C86.3257 4.10384 86.6137 4.23184 86.9977 4.48784C87.3817 4.74384 88.1177 5.44784 89.2057 6.59984C88.1177 8.19984 87.0297 9.79984 85.9417 11.3998C84.9177 12.9998 83.8617 14.7918 82.7737 16.7758C79.9577 21.6398 78.5497 24.4878 78.5497 25.3198C78.5497 25.5758 78.4857 25.7358 78.3577 25.7998C78.2297 25.7998 78.0057 26.0878 77.6857 26.6638C77.6857 26.8558 77.6537 26.9838 77.5897 27.0478V27.5278C77.5897 27.7198 77.3657 28.1038 76.9177 28.6798C75.9577 30.2158 75.4777 31.3998 75.4777 32.2318H75.0937C74.9017 32.2318 74.8057 32.6798 74.8057 33.5758H74.9017V33.6718C74.8377 33.7358 74.7737 33.7678 74.7097 33.7678C74.0697 34.3438 73.5897 35.1758 73.2697 36.2638C73.1417 36.5838 73.0777 36.9038 73.0777 37.2238C73.1417 37.2238 73.1737 37.2558 73.1737 37.3198V37.4158C73.1097 37.4798 72.9817 37.5118 72.7897 37.5118C72.6617 37.5118 72.5977 37.5758 72.5977 37.7038L72.7897 38.0878C72.7257 38.1518 72.6297 38.1838 72.5017 38.1838C72.3737 38.1838 72.2137 38.3758 72.0217 38.7598C71.8937 39.0798 71.7977 39.4638 71.7337 39.9118C71.6697 40.2958 71.6377 40.6158 71.6377 40.8718C71.7017 40.8718 71.7337 40.9038 71.7337 40.9678L71.4457 40.8718C71.3177 40.8718 71.1897 40.9998 71.0617 41.2558C70.6137 41.8318 70.2617 42.5358 70.0057 43.3678V44.0398L70.1017 44.2318C70.1017 44.4238 70.0057 44.5198 69.8137 44.5198C69.6857 44.5198 69.5897 44.5518 69.5257 44.6158V44.8078C69.5257 45.0638 69.4617 45.2238 69.3337 45.2878C69.2697 45.3518 69.1737 45.4798 69.0457 45.6718C68.9817 45.8638 68.9177 46.1518 68.8537 46.5358C68.8537 46.9198 68.7577 47.1118 68.5657 47.1118C68.4377 47.1118 68.3737 47.1438 68.3737 47.2078C68.3737 47.2718 68.3737 47.3358 68.3737 47.3998L68.4697 47.8798C68.4697 48.0078 68.3737 48.0718 68.1817 48.0718C68.0537 48.0718 67.9897 48.1358 67.9897 48.2638C67.9897 48.3278 67.9897 48.3918 67.9897 48.4558L68.0857 48.8398C68.0857 49.0958 67.8937 49.2238 67.5097 49.2238L67.6057 49.5118C67.6057 49.7038 67.4457 49.9918 67.1257 50.3758C66.8057 50.6958 66.6457 51.4318 66.6457 52.5838C66.7097 52.5838 66.7417 52.6158 66.7417 52.6798L66.5497 52.7758C66.2297 53.0958 66.0377 53.2878 65.9737 53.3518C65.9737 53.4158 65.9097 53.7358 65.7817 54.3118C65.6537 54.8238 65.5257 55.0798 65.3977 55.0798C65.2697 55.0798 65.2057 55.1438 65.2057 55.2718L65.3017 55.6558C65.3017 55.7198 65.2377 55.7518 65.1097 55.7518C64.9177 55.9438 64.7577 56.3598 64.6297 56.9998C64.5017 57.5758 64.3737 57.9278 64.2457 58.0558C64.1177 58.1838 64.0217 58.3438 63.9577 58.5358C63.7657 59.1118 63.6697 59.6238 63.6697 60.0718C63.6057 60.2638 63.5417 60.3918 63.4777 60.4558C63.4777 60.5198 63.4137 60.6158 63.2857 60.7438C63.2857 61.1278 63.2217 61.3838 63.0937 61.5118V62.0878C63.0937 62.2798 62.9977 62.3758 62.8057 62.3758C62.6137 62.3758 62.5177 62.4398 62.5177 62.5678C62.5177 62.6318 62.5177 62.6958 62.5177 62.7598L62.6137 63.1438C62.6137 63.3998 62.5177 63.6238 62.3257 63.8158C62.1337 64.0078 62.0377 64.1358 62.0377 64.1998C62.0377 64.2638 62.0697 64.2958 62.1337 64.2958C62.2617 64.2958 62.3257 64.3278 62.3257 64.3918L62.0377 64.7758C61.7817 64.9038 61.5897 65.3198 61.4617 66.0238C61.4617 66.7278 61.3657 67.0798 61.1737 67.0798C60.9817 67.0798 60.8857 67.3358 60.8857 67.8478L60.9817 68.2318C60.9817 68.5518 60.9497 68.7118 60.8857 68.7118C60.5657 68.9038 60.2457 69.7358 59.9257 71.2078C59.6057 72.3598 59.4457 73.1918 59.4457 73.7038V74.1838C59.4457 74.3118 59.3817 74.3758 59.2537 74.3758C59.1257 74.3758 59.0297 74.4718 58.9657 74.6638V75.2398L59.0617 75.5278C59.0617 75.6558 59.0297 75.7838 58.9657 75.9118C58.9657 76.0398 58.9017 76.1358 58.7737 76.1998C58.7097 76.1998 58.5817 76.4879 58.3897 77.0639C58.2617 77.5759 58.1337 78.2158 58.0057 78.9838C57.9417 79.7518 57.9097 80.4238 57.9097 80.9998C57.9097 81.5758 57.8457 81.8638 57.7177 81.8638C57.5897 81.8638 57.4617 82.0238 57.3337 82.3438C57.3337 83.6878 57.2377 85.2878 57.0457 87.1438L56.7577 91.5598L58.0057 91.9438C58.9017 92.3278 59.3497 92.7758 59.3497 93.2878C59.3497 93.6078 59.1897 93.8958 58.8697 94.1518C58.6137 94.4718 58.2937 94.9839 57.9097 95.6879C57.7177 96.0079 57.3017 96.1678 56.6617 96.1678Z" fill="#E0FF05"/>
<path d="M23.4892 71.3031C23.7452 71.3031 24.2572 71.2391 25.0252 71.1111C25.7932 70.9191 26.8492 70.6951 28.1932 70.4391L37.0252 68.7111C37.8572 64.7431 38.8812 60.3911 40.0972 55.6551C42.9132 44.3911 44.7372 37.3831 45.5692 34.6311C46.2092 31.8791 46.5292 30.3431 46.5292 30.0231C46.5292 29.8951 46.4972 29.8311 46.4332 29.8311C46.4332 29.8311 46.4332 29.7351 46.4332 29.5431C46.4332 29.2871 46.5292 28.8391 46.7212 28.1991C46.9772 27.4951 47.3612 26.6311 47.8732 25.6071L48.3532 24.3591L48.2572 24.2631C48.1932 24.2631 48.0012 24.5831 47.6812 25.2231C47.3612 25.7991 46.9772 26.5671 46.5292 27.5271C46.0812 28.4231 45.6332 29.2231 45.1852 29.9271C44.8012 30.5671 44.5132 30.9511 44.3212 31.0791C44.1292 31.2071 44.0012 31.2711 43.9372 31.2711C43.9372 31.0791 44.1612 30.7591 44.6092 30.3111L44.8012 29.8311C44.2252 29.8311 41.6652 34.0231 37.1212 42.4071C35.7772 45.0951 35.0092 46.5351 34.8172 46.7271C34.2412 47.4951 31.0732 53.8311 25.3132 65.7351C23.7772 68.9991 23.0092 70.7591 23.0092 71.0151C23.0092 71.2071 23.1692 71.3031 23.4892 71.3031ZM39.7132 76.7751C39.8412 76.7751 39.9052 76.6151 39.9052 76.2951C39.9052 76.2311 39.8732 76.1351 39.8092 76.0071C39.7452 75.8791 39.6812 75.8151 39.6172 75.8151C39.5532 75.8151 39.5212 75.9751 39.5212 76.2951C39.5212 76.6151 39.5532 76.7751 39.6172 76.7751H39.7132ZM39.3292 78.7911L39.5212 78.4071C39.5212 78.2791 39.4892 78.1511 39.4252 78.0231C39.3612 77.8311 39.2972 77.7351 39.2332 77.7351C39.1692 77.7351 39.1372 77.8951 39.1372 78.2151L39.2332 78.7911H39.3292ZM38.8492 80.9991L38.9452 80.8071C39.0732 80.7431 39.1372 80.6151 39.1372 80.4231C39.1372 80.2951 39.0732 80.1671 38.9452 80.0391L38.8492 79.8471C38.7852 79.8471 38.7532 80.0391 38.7532 80.4231C38.7532 80.8071 38.7852 80.9991 38.8492 80.9991ZM38.4652 83.3031C38.5932 83.3031 38.6572 83.1111 38.6572 82.7271L38.5612 81.9591H38.6572L38.5612 81.8631C38.4972 81.8631 38.4652 82.1191 38.4652 82.6311V83.3031ZM33.1852 70.2471C33.3772 70.2471 33.6972 70.1831 34.1452 70.0551C34.6572 69.9271 35.2972 69.8631 36.0652 69.8631C36.5132 69.8631 36.7372 69.7671 36.7372 69.5751C36.7372 69.4471 36.5452 69.3831 36.1612 69.3831C35.2652 69.3831 34.4332 69.5111 33.6652 69.7671C33.1532 69.9591 32.8972 70.0871 32.8972 70.1511C32.8972 70.2151 32.9932 70.2471 33.1852 70.2471ZM30.8812 70.7271C31.2012 70.7271 31.5212 70.6951 31.8412 70.6311C32.1612 70.5031 32.3212 70.3751 32.3212 70.2471C32.3212 70.1831 32.2572 70.1511 32.1292 70.1511C31.1052 70.1511 30.5932 70.3111 30.5932 70.6311C30.5932 70.6951 30.6892 70.7271 30.8812 70.7271ZM29.6332 71.0151L29.7292 70.9191C29.6652 70.7911 29.5372 70.7271 29.3452 70.7271C28.9612 70.7271 28.7692 70.7591 28.7692 70.8231C28.7692 70.9511 29.0572 71.0151 29.6332 71.0151ZM51.9052 14.6631C52.2252 14.6631 52.3852 14.5671 52.3852 14.3751C52.3852 14.0551 52.2252 13.8951 51.9052 13.8951C51.5212 13.8951 51.3292 14.0231 51.3292 14.2791C51.3292 14.4071 51.3932 14.5031 51.5212 14.5671C51.7132 14.6311 51.8412 14.6631 51.9052 14.6631ZM37.2172 93.2871C36.9612 93.2871 36.6412 93.1911 36.2572 92.9991C35.9372 92.8071 35.6172 92.5191 35.2972 92.1351C34.9772 91.8151 34.7532 91.6551 34.6252 91.6551H34.5292L34.7212 92.3271C34.6572 92.3271 34.4652 92.1991 34.1452 91.9431C33.8892 91.7511 33.7612 91.2071 33.7612 90.3111C33.7612 89.7991 33.7932 89.0631 33.8572 88.1031C33.9212 87.2071 34.0492 85.9911 34.2412 84.4551C34.4332 82.9191 34.6252 81.4791 34.8172 80.1351C35.0732 78.7271 35.2652 77.5751 35.3932 76.6791C35.5212 75.7191 35.5852 75.2071 35.5852 75.1431C35.0092 75.1431 32.4172 75.6871 27.8092 76.7751C22.6252 77.9911 19.9052 78.7911 19.6492 79.1751C19.0092 80.0071 18.3692 81.4791 17.7292 83.5911C15.8732 88.5191 14.5612 90.9831 13.7932 90.9831C13.6652 90.9831 13.6012 91.0471 13.6012 91.1751V91.3671C13.6012 91.4951 13.5372 91.6551 13.4092 91.8471C13.2812 92.1031 13.0572 92.2311 12.7372 92.2311C12.6732 92.2311 12.6092 92.1991 12.5452 92.1351L12.4492 92.0391C12.3852 92.0391 12.3532 92.0391 12.3532 92.0391C12.3532 92.1031 12.3532 92.1671 12.3532 92.2311L12.4492 92.6151C12.4492 92.6791 12.4172 92.7751 12.3532 92.9031C12.2252 93.0311 12.0652 93.0951 11.8732 93.0951C11.5532 93.0951 11.2012 92.6471 10.8172 91.7511C10.4332 90.9191 10.2412 89.8951 10.2412 88.6791C10.2412 87.2071 10.5612 85.5111 11.2012 83.5911C11.5852 82.2471 11.7772 81.4151 11.7772 81.0951V80.9991L8.32122 81.9591C6.97722 82.3431 6.11322 82.5351 5.72922 82.5351C5.47322 82.5351 5.21722 82.3751 4.96122 82.0551C4.64122 81.7351 4.19322 81.5751 3.61722 81.5751C3.04122 81.5751 2.30522 81.1271 1.40922 80.2311C0.769218 79.5911 0.449219 79.1431 0.449219 78.8871C0.449219 78.8231 0.481218 78.7911 0.545218 78.7911C0.929218 78.7911 1.31322 78.5351 1.69722 78.0231C2.14522 77.7031 3.48922 77.1591 5.72922 76.3911C8.73722 75.3671 11.8412 74.4391 15.0412 73.6071C19.3932 63.1111 24.2572 52.7111 29.6332 42.4071C36.0332 30.1831 41.2812 21.5431 45.3772 16.4871C47.5532 13.7991 48.8972 12.4551 49.4092 12.4551C49.4732 12.4551 49.5052 12.4871 49.5052 12.5511C49.5052 12.7431 49.3132 13.0311 48.9292 13.4151C48.5452 13.7351 48.3532 13.9591 48.3532 14.0871C48.3532 14.1511 48.3852 14.1831 48.4492 14.1831C48.5772 14.1191 48.7372 14.0871 48.9292 14.0871C49.1852 14.2151 49.4092 14.3111 49.6012 14.3751C49.8572 14.4391 50.0492 14.4711 50.1772 14.4711C50.4972 14.4711 50.8492 14.2791 51.2332 13.8951C51.6812 13.5111 52.0332 13.3191 52.2892 13.3191C52.6092 13.3191 52.7692 13.6071 52.7692 14.1831C52.7692 14.4391 52.8972 14.7271 53.1532 15.0471C53.4092 15.3671 53.6652 15.5911 53.9212 15.7191C54.2412 15.8471 54.4972 15.9111 54.6892 15.9111H55.1692L55.6492 16.0071C56.8652 16.5831 57.4732 17.6071 57.4732 19.0791C57.4732 20.2311 57.1852 21.6711 56.6092 23.3991C56.0332 25.4471 55.7132 26.6631 55.6492 27.0471C55.5852 27.4311 55.2972 28.4551 54.7852 30.1191L48.2572 51.9111C45.1212 63.1111 43.5532 69.4151 43.5532 70.8231V71.0151C43.8732 71.3351 44.2252 71.4951 44.6092 71.4951C44.9932 71.4951 45.3452 71.6231 45.6652 71.8791C46.1772 72.4551 46.4332 72.9351 46.4332 73.3191C46.4332 73.4471 46.4012 73.5431 46.3372 73.6071L46.2412 73.7031C46.1772 73.7031 46.1452 73.6391 46.1452 73.5111C46.1452 73.3191 45.7932 73.2231 45.0892 73.2231L42.6892 73.5111L41.3452 80.7111C40.7052 84.2951 40.3532 86.4071 40.2892 87.0471C40.0972 87.9431 39.9692 89.5111 39.9052 91.7511C39.8412 92.3911 39.7772 92.7111 39.7132 92.7111L39.5212 92.6151C39.3292 92.5511 39.0732 92.4871 38.7532 92.4231C38.4972 92.3591 38.3052 92.2311 38.1772 92.0391C38.0492 91.8471 37.9852 91.4311 37.9852 90.7911L38.0812 87.0471L38.2732 84.0711L38.1772 83.8791C38.1132 84.0071 38.0172 84.4231 37.8892 85.1271C37.7612 85.8951 37.6332 86.8871 37.5052 88.1031C37.3772 89.3831 37.3132 90.3431 37.3132 90.9831C37.3132 91.6231 37.3772 92.0071 37.5052 92.1351C37.8252 92.4551 37.9852 92.7111 37.9852 92.9031C37.9852 93.1591 37.7292 93.2871 37.2172 93.2871Z" fill="#E0FF05"/>
</svg>
