<svg width="313" height="101" viewBox="0 0 313 101" fill="none" xmlns="http://www.w3.org/2000/svg">
<path d="M303.291 88.744H303.035C302.608 88.744 302.267 88.616 302.011 88.36C301.84 88.104 301.499 87.7626 300.987 87.336C300.56 86.9093 300.048 86.4826 299.451 86.056C298.853 85.6293 298.299 85.2453 297.787 84.904C297.36 84.5626 297.104 84.3493 297.019 84.264C296.933 84.0933 296.891 83.9653 296.891 83.88C296.891 82.9413 297.36 80.9786 298.299 77.992C299.323 74.92 300.603 72.616 302.139 71.08C302.907 70.312 303.504 69.928 303.931 69.928C304.187 69.928 304.315 70.1413 304.315 70.568L304.059 72.488C304.144 72.488 304.315 72.3173 304.571 71.976C304.827 71.6346 304.997 71.464 305.083 71.464C305.424 71.464 305.851 71.7626 306.363 72.36C307.301 73.2986 308.027 73.768 308.539 73.768C309.136 73.768 309.861 74.28 310.715 75.304C311.653 76.2426 312.123 76.84 312.123 77.096C312.123 77.4373 311.995 77.864 311.739 78.376C311.568 78.888 311.184 79.6133 310.587 80.552C310.075 81.4053 309.477 82.3013 308.795 83.24C308.197 84.0933 307.728 84.8613 307.387 85.544C307.045 86.1413 306.875 86.5253 306.875 86.696V86.952C306.875 87.1226 306.576 87.208 305.979 87.208H305.211C304.869 87.208 304.571 87.464 304.315 87.976C304.059 88.488 303.717 88.744 303.291 88.744Z" fill="#215FF6"/>
<path d="M273.27 68.2639C273.27 68.0932 273.056 67.6666 272.63 66.9839C271.264 64.7652 270.496 63.6559 270.326 63.6559V63.7839C270.326 64.1252 270.496 64.6799 270.838 65.4479C271.264 66.1306 271.734 66.7706 272.246 67.3679C272.758 67.9652 273.099 68.2639 273.27 68.2639ZM274.678 65.8319C274.934 65.8319 275.531 64.9359 276.47 63.1439C280.566 55.2932 282.784 48.6799 283.126 43.3039L283.254 40.4879C283.254 39.7199 283.211 39.3359 283.126 39.3359C282.016 39.3359 280.566 40.3599 278.774 42.4079C276.982 44.4559 275.488 46.7599 274.294 49.3199C273.099 51.8799 272.502 54.7386 272.502 57.8959C272.502 60.0292 272.8 61.9066 273.398 63.5279C274.08 65.0639 274.507 65.8319 274.678 65.8319ZM284.79 34.4719L284.406 33.5759C283.467 31.9546 282.059 31.1439 280.182 31.1439H279.414C278.304 31.3146 277.75 31.4852 277.75 31.6559C277.75 31.8266 278.347 31.9546 279.542 32.0399C280.822 32.1252 281.462 32.2959 281.462 32.5519V32.8079C281.462 32.9786 281.632 33.1492 281.974 33.3199C282.315 33.4906 282.656 33.6612 282.998 33.8319C283.339 33.9172 283.68 34.0452 284.022 34.2159C284.363 34.3866 284.576 34.4719 284.662 34.4719H284.79ZM284.406 59.4319C284.747 59.4319 285.43 57.9812 286.454 55.0799C287.136 52.7759 287.478 51.4532 287.478 51.1119V50.8559C287.392 50.8559 287.222 51.1119 286.966 51.6239C286.368 52.9892 285.771 54.8666 285.174 57.2559L284.406 59.4319ZM288.246 42.5359C288.331 42.5359 288.416 42.4079 288.502 42.1519C288.502 41.8106 288.331 41.1706 287.99 40.2319C287.478 38.8666 287.094 38.1839 286.838 38.1839C286.582 38.1839 286.454 38.3119 286.454 38.5679C286.88 39.4212 287.264 40.3172 287.606 41.2559C287.947 42.1092 288.16 42.5359 288.246 42.5359ZM287.734 49.1919C287.904 49.1919 287.99 48.8506 287.99 48.1679C287.99 47.3999 287.904 47.0159 287.734 47.0159C287.648 47.0159 287.606 47.3999 287.606 48.1679C287.606 48.8506 287.648 49.1919 287.734 49.1919ZM282.87 63.0159C282.955 63.0159 283.168 62.6746 283.51 61.9919C284.022 61.4799 284.278 60.9252 284.278 60.3279V60.1999C284.192 60.1999 283.979 60.4559 283.638 60.9679C283.382 61.4799 283.168 61.9066 282.998 62.2479C282.912 62.5039 282.87 62.7172 282.87 62.8879V63.0159ZM253.814 84.3919C254.496 84.3919 255.947 83.8372 258.166 82.7279C262.944 80.2532 266.912 77.0532 270.07 73.1279L272.374 70.1839L269.174 66.8559C267.723 65.2346 266.315 63.3146 264.95 61.0959C263.67 58.8772 263.03 57.2986 263.03 56.3599C263.03 56.1892 262.987 56.1039 262.902 56.1039C262.816 56.1892 262.603 56.4026 262.262 56.7439C262.006 56.9999 261.878 57.3839 261.878 57.8959L262.006 58.2799C262.006 58.4506 261.878 58.5359 261.622 58.5359C261.366 58.5359 261.238 58.6212 261.238 58.7919L261.366 59.1759C261.366 59.5172 261.195 59.8586 260.854 60.1999C260.512 60.5412 260.342 60.8399 260.342 61.0959V61.3519C260.342 61.5226 260.214 61.6079 259.958 61.6079C259.702 61.6079 259.574 61.6932 259.574 61.8639L259.446 63.1439C259.104 64.2532 258.72 64.8079 258.294 64.8079H257.91C257.91 64.8932 257.952 64.9786 258.038 65.0639C258.123 65.0639 258.166 65.1066 258.166 65.1919C258.166 65.7039 257.952 66.3012 257.526 66.9839L256.886 68.5199H257.014L256.758 69.1599C255.904 70.5252 255.478 71.5066 255.478 72.1039C255.478 72.6159 255.307 73.0426 254.966 73.3839L254.454 75.0479C253.942 76.5839 253.6 77.9492 253.43 79.1439C253.174 80.9359 253.046 82.1732 253.046 82.8559C253.046 83.8799 253.302 84.3919 253.814 84.3919ZM256.374 91.5599L256.502 91.4319C256.502 91.2612 256.118 91.1759 255.35 91.1759C254.582 91.1759 254.198 91.2612 254.198 91.4319C254.198 91.5172 254.923 91.5599 256.374 91.5599ZM254.07 85.9279C254.411 85.9279 254.71 85.8852 254.966 85.7999C255.222 85.7146 255.392 85.6292 255.478 85.5439C255.648 85.3732 255.734 85.2452 255.734 85.1599C255.734 85.0746 255.648 85.0319 255.478 85.0319C255.222 85.0319 254.71 85.2026 253.942 85.5439C253.515 85.7146 253.302 85.8426 253.302 85.9279H254.07ZM254.966 93.0959C254.454 93.0959 254.07 93.0532 253.814 92.9679C253.643 92.8826 253.43 92.7546 253.174 92.5839C247.286 89.1706 243.744 86.4826 242.55 84.5199C241.696 83.0692 241.27 80.8506 241.27 77.8639C241.27 72.2319 242.976 66.0452 246.39 59.3039C253.728 45.0532 261.622 35.4106 270.07 30.3759C271.008 29.8639 271.691 29.6079 272.118 29.6079C272.63 29.6079 272.971 29.7359 273.142 29.9919C273.398 30.1626 273.568 30.3332 273.654 30.5039C273.739 30.5892 273.824 31.0586 273.91 31.9119C273.824 31.9119 273.739 31.7412 273.654 31.3999C273.568 30.7172 273.184 30.3759 272.502 30.3759C272.16 30.3759 271.691 30.5039 271.094 30.7599C270.838 30.8452 270.71 30.9306 270.71 31.0159C270.71 31.2719 271.222 31.5279 272.246 31.7839C272.843 31.9546 273.312 32.0399 273.654 32.0399C274.251 32.0399 274.806 31.8692 275.318 31.5279C276.512 30.5892 277.792 30.1199 279.158 30.1199C279.67 30.1199 280.48 30.2479 281.59 30.5039C282.699 30.6746 283.851 31.6986 285.046 33.5759C285.899 34.8559 286.795 35.8799 287.734 36.6479C289.696 38.6959 290.934 41.1706 291.446 44.0719C291.531 44.4986 291.574 45.0106 291.574 45.6079C291.574 47.8266 291.019 50.8559 289.91 54.6959C288.8 58.5359 286.71 63.5706 283.638 69.7999C283.126 70.6532 282.87 71.2506 282.87 71.5919C282.87 71.8479 282.998 71.9759 283.254 71.9759C283.595 71.9759 283.979 72.1039 284.406 72.3599C286.027 73.2986 286.838 74.1092 286.838 74.7919C286.838 74.9626 286.752 75.1332 286.582 75.3039C286.411 75.4746 286.112 75.5599 285.686 75.5599C285.43 75.5599 284.448 75.3466 282.742 74.9199C281.888 74.6639 281.291 74.5359 280.95 74.5359C280.438 74.5359 280.182 74.6212 280.182 74.7919C280.182 74.8772 280.31 74.9626 280.566 75.0479C280.822 75.1332 281.035 75.2186 281.206 75.3039C281.974 75.5599 282.742 75.6879 283.51 75.6879L283.638 75.9439C283.382 76.1999 282.699 76.3279 281.59 76.3279L280.95 76.1999C280.096 76.1999 279.072 77.0106 277.878 78.6319C273.355 84.0932 268.107 88.3172 262.134 91.3039C259.574 92.4986 257.184 93.0959 254.966 93.0959Z" fill="#215FF6"/>
<path d="M196.453 89.64C196.539 89.64 197.221 89.128 198.501 88.104C222.565 69.16 239.675 49.6187 249.829 29.48C252.731 23.1653 254.181 18.3013 254.181 14.888C254.181 12.84 253.669 11.304 252.645 10.28C251.109 9.34133 248.421 8.82933 244.581 8.744C239.973 8.744 235.664 9.08533 231.653 9.768L227.941 10.152L221.157 25.512L218.469 31.4C217.445 33.448 216.933 34.6427 216.933 34.984L213.349 43.176C213.349 43.5173 213.093 44.2 212.581 45.224C210.875 48.6373 208.357 54.8667 205.029 63.912C202.213 71.4213 199.781 78.376 197.733 84.776C197.136 86.7387 196.667 88.104 196.325 88.872V89.128C196.325 89.2133 196.325 89.2987 196.325 89.384C196.325 89.5547 196.368 89.64 196.453 89.64ZM258.661 21.416C258.747 21.416 258.832 20.9467 258.917 20.008L259.045 18.984C259.045 17.7893 258.832 16.68 258.405 15.656C258.064 14.5467 257.851 13.992 257.765 13.992C257.68 13.992 257.637 14.1627 257.637 14.504C257.637 15.1013 257.765 16.3813 258.021 18.344C258.363 20.2213 258.576 21.2453 258.661 21.416ZM191.205 95.656L191.333 95.4C191.419 95.2293 191.461 95.0587 191.461 94.888C191.461 94.2907 191.376 93.992 191.205 93.992C191.12 93.992 191.077 94.248 191.077 94.76C191.077 95.3573 191.12 95.656 191.205 95.656ZM189.541 100.648C189.115 100.648 188.475 100.435 187.621 100.008C186.683 99.5813 186.085 99.1547 185.829 98.728C185.573 98.3867 185.445 97.96 185.445 97.448C185.445 96.2533 185.915 93.7787 186.853 90.024C189.499 79.8693 193.381 67.6667 198.501 53.416C203.707 39.08 208.315 27.816 212.325 19.624C213.52 17.1493 214.117 15.6133 214.117 15.016V14.888H213.989C213.648 14.888 212.581 15.528 210.789 16.808C209.765 17.4053 209.253 18.0027 209.253 18.6C209.253 18.7707 209.296 18.9413 209.381 19.112C209.467 19.2827 209.509 19.4107 209.509 19.496C209.509 19.6667 209.467 19.752 209.381 19.752C209.211 19.752 208.827 19.496 208.229 18.984C207.632 18.472 207.333 17.832 207.333 17.064L207.461 16.296C207.461 16.1253 207.419 16.04 207.333 16.04C207.248 16.04 207.035 16.2107 206.693 16.552C206.352 16.8933 206.181 17.2347 206.181 17.576C206.181 17.832 206.309 18.1733 206.565 18.6C206.821 18.9413 206.949 19.1973 206.949 19.368C206.437 19.368 205.627 18.728 204.517 17.448C203.835 16.8507 203.493 16.424 203.493 16.168C203.493 15.912 203.237 15.528 202.725 15.016C202.384 15.016 202.213 14.76 202.213 14.248V14.12C202.384 13.7787 202.811 13.2667 203.493 12.584C204.261 11.816 205.072 11.1333 205.925 10.536C206.779 9.93866 207.376 9.59733 207.717 9.51199C208.571 9.08533 209.168 8.65866 209.509 8.23199C209.936 7.80533 210.405 7.592 210.917 7.592L211.173 7.71999C211.344 7.71999 211.472 7.71999 211.557 7.71999C211.728 7.63466 211.813 7.54933 211.813 7.464C211.813 7.29333 211.856 7.16533 211.941 7.07999C212.197 7.07999 212.411 7.12266 212.581 7.20799C213.008 7.20799 213.221 7.16533 213.221 7.07999L212.965 6.43999L214.245 6.696L214.117 6.43999C214.117 6.01333 215.013 5.58666 216.805 5.16C217.317 5.07466 217.957 5.032 218.725 5.032L219.365 5.28799V5.16L219.109 4.904C218.939 4.81866 218.853 4.73333 218.853 4.64799C218.853 4.39199 219.408 4.17866 220.517 4.008C221.627 3.83733 222.267 3.53867 222.437 3.112C222.608 2.6 222.736 2.34399 222.821 2.34399C222.992 2.34399 223.12 2.472 223.205 2.728C223.291 2.984 223.547 3.112 223.973 3.112C224.4 3.112 224.912 3.02666 225.509 2.856C226.107 2.68533 226.704 2.51466 227.301 2.34399L228.837 2.216C228.837 2.30133 228.283 2.51466 227.173 2.856C226.149 3.19733 225.637 3.41066 225.637 3.49599L226.021 3.368C229.435 3.02666 233.36 2.856 237.797 2.856C244.368 2.856 249.275 4.22133 252.517 6.952L256.613 9.768L255.589 7.976C253.456 4.30666 248.848 2.34399 241.765 2.088C240.4 1.91733 238.992 1.83199 237.541 1.83199C236.091 1.83199 234.768 1.91733 233.573 2.088C232.379 2.25866 231.525 2.34399 231.013 2.34399C230.587 2.34399 230.373 2.30133 230.373 2.216L230.629 1.96C230.715 1.87466 231.483 1.78933 232.933 1.70399C234.469 1.53333 236.304 1.448 238.437 1.448C241.339 1.448 243.515 1.53333 244.965 1.70399C250.768 2.38666 254.693 4.81866 256.741 9C258.192 11.9013 259.216 14.0347 259.813 15.4C260.496 16.7653 260.88 17.8747 260.965 18.728C261.136 19.496 261.221 20.5627 261.221 21.928C260.88 29.864 256.528 39.6347 248.165 51.24C239.888 62.76 228.795 74.4507 214.885 86.312C206.608 93.224 201.403 96.68 199.269 96.68C199.099 96.68 198.928 96.6373 198.757 96.552C198.587 96.4667 198.245 96.3813 197.733 96.296C197.221 96.2107 196.667 96.168 196.069 96.168C195.216 96.168 194.661 96.2533 194.405 96.424C194.149 96.5947 194.021 96.8933 194.021 97.32C194.021 98.2587 193.979 98.8133 193.893 98.984C193.808 99.1547 193.765 99.3253 193.765 99.496C193.765 99.752 193.723 99.9227 193.637 100.008C193.637 100.179 193.509 100.264 193.253 100.264C192.059 100.264 191.291 99.496 190.949 97.96L190.693 96.168L190.565 97.96C190.565 99.752 190.224 100.648 189.541 100.648Z" fill="#215FF6"/>
<path d="M143.898 74.4081C143.727 74.4081 143.642 74.3655 143.642 74.2802C143.642 74.1948 143.77 74.0242 144.026 73.7682C144.282 73.5121 144.538 73.3842 144.794 73.3842L144.922 73.5122C144.922 73.5975 144.836 73.7682 144.666 74.0242C144.58 74.2802 144.324 74.4081 143.898 74.4081ZM94.3617 91.5602C94.5324 91.3895 94.6177 91.2188 94.6177 91.0481C94.6177 90.6215 94.5324 90.4081 94.3617 90.4081C94.1911 90.4081 94.1058 90.5788 94.1058 90.9202C94.1058 91.3468 94.1484 91.5602 94.2337 91.5602H94.3617ZM141.338 32.6801C141.508 32.5095 141.679 32.1255 141.85 31.5281C141.85 31.3575 141.764 31.2295 141.594 31.1441C141.423 31.1441 141.082 31.2721 140.57 31.5281C140.143 31.7842 139.93 31.9975 139.93 32.1681C139.93 32.5095 140.314 32.6801 141.082 32.6801H141.338ZM97.5617 94.2482C97.3911 94.2482 96.7084 93.8642 95.5137 93.0962V93.3521C94.9164 93.0108 94.4897 92.7122 94.2337 92.4562C93.8924 92.2002 93.7217 91.8162 93.7217 91.3042C93.6364 90.7922 93.5938 90.0242 93.5938 89.0002C93.9351 81.6615 96.9644 70.5682 102.682 55.7202C106.351 46.2482 109.252 40.1042 111.386 37.2882C112.495 36.0081 113.476 35.3681 114.33 35.3681C115.012 35.3681 115.78 35.5815 116.634 36.0081C118.34 36.9468 120.132 37.6295 122.01 38.0561L123.93 38.5681L123.29 39.5922C122.863 40.5308 122.351 41.5121 121.754 42.5362C121.242 43.5602 120.9 44.2855 120.73 44.7122C120.644 45.1388 120.431 45.8215 120.09 46.7602C119.748 47.6135 119.364 48.5521 118.938 49.5761C118.255 51.1975 117.615 52.6908 117.018 54.0562C116.506 55.3362 116.25 56.1895 116.25 56.6161L116.378 56.7442C116.378 56.9148 116.207 57.0002 115.866 57.0002C115.61 57.0002 115.482 57.0855 115.482 57.2561V57.3842L114.714 59.5602C114.202 60.5841 113.946 61.1815 113.946 61.3521C114.202 61.3521 115.524 59.6455 117.914 56.2321C118.596 55.3788 119.236 54.4828 119.834 53.5442C120.09 53.2882 120.303 52.9895 120.474 52.6481C123.375 48.7228 126.404 45.2242 129.562 42.1521C133.06 38.6535 135.322 36.2215 136.346 34.8562C138.308 31.9548 139.972 30.5042 141.338 30.5042C142.191 30.5042 142.618 31.1868 142.618 32.5522L142.746 33.3201C142.831 34.0028 143.428 34.3442 144.538 34.3442L144.922 34.2161C145.604 34.2161 146.372 34.6855 147.226 35.6241C148.079 36.4775 148.506 37.2455 148.506 37.9282C148.506 40.1468 147.354 45.6508 145.05 54.4402C144.708 55.5495 143.898 58.8348 142.618 64.2962C141.85 67.7095 141.423 70.6961 141.338 73.2561C141.338 75.0481 141.551 75.9442 141.978 75.9442C142.234 75.9442 142.532 75.8588 142.874 75.6882C143.215 75.5175 143.556 75.3895 143.898 75.3042C144.751 75.1335 145.306 74.7922 145.562 74.2802C145.562 74.1948 145.732 74.0668 146.074 73.8961C147.268 73.5548 148.463 73.1281 149.658 72.6161C150.17 72.3601 150.554 72.2321 150.81 72.2321C151.066 72.3175 151.407 72.5735 151.834 73.0002C152.26 73.4268 152.644 73.7255 152.986 73.8961C153.327 73.9815 153.626 74.0242 153.882 74.0242C154.223 74.0242 154.479 74.0668 154.65 74.1522C154.394 74.5788 153.924 75.0481 153.242 75.5602C153.839 75.5602 154.138 75.7308 154.138 76.0722C154.138 76.2428 154.01 76.4135 153.754 76.5842C152.986 77.0108 152.303 77.4375 151.706 77.8642C150.17 78.8882 148.762 79.6562 147.482 80.1682C146.202 80.6802 144.666 80.9361 142.874 80.9361C140.74 80.9361 138.778 80.4668 136.986 79.5282C135.194 78.5042 133.999 77.3522 133.402 76.0722C132.804 74.7922 132.506 73.0002 132.506 70.6962C132.506 66.6002 133.359 60.7975 135.066 53.2881C135.151 52.8615 135.279 52.1788 135.45 51.2402C135.706 50.3015 135.919 49.3628 136.09 48.4242C136.346 47.4855 136.474 46.8882 136.474 46.6321C135.706 46.6321 132.634 50.3015 127.258 57.6402C122.308 64.4668 119.108 69.0748 117.658 71.4641C109.38 84.0082 104.602 91.0055 103.322 92.4562C102.468 93.3948 101.871 93.8642 101.53 93.8642C101.274 93.8642 101.06 93.7788 100.89 93.6082C100.719 93.5228 100.506 93.4802 100.25 93.4802C99.9084 93.4802 99.5244 93.5655 99.0977 93.7362C98.5857 93.9068 98.2017 94.0348 97.9457 94.1202L97.5617 94.2482ZM145.946 73.1282H145.69L146.97 72.2321V72.4882C146.97 72.5735 146.799 72.7015 146.458 72.8722L145.946 73.1282Z" fill="#215FF6"/>
<path d="M88.2628 48.424C88.6041 48.0826 88.9455 47.0586 89.2868 45.352C89.7135 43.6453 89.9268 42.1946 89.9268 41C89.9268 39.8906 89.7135 39.336 89.2868 39.336C88.8601 39.336 88.6468 40.0613 88.6468 41.512V42.28C88.6468 43.048 88.6041 43.9013 88.5188 44.84C88.4335 45.7786 88.3481 46.504 88.2628 47.016C88.1775 47.528 88.1348 47.912 88.1348 48.168C88.1348 48.3386 88.1775 48.424 88.2628 48.424ZM86.0868 80.168C86.1722 80.0826 86.2148 79.9546 86.2148 79.784C86.2148 79.6133 86.1722 79.4 86.0868 79.144L85.9588 78.888C85.8735 79.0586 85.8308 79.3573 85.8308 79.784C85.8308 80.04 85.8735 80.168 85.9588 80.168H86.0868ZM85.5748 82.216L85.7028 81.704L85.4468 80.936C85.3615 80.936 85.3188 81.1493 85.3188 81.576C85.3188 82.0026 85.3615 82.216 85.4468 82.216H85.5748ZM84.9348 84.648C85.1055 84.648 85.1908 84.4346 85.1908 84.008C85.1908 83.4106 85.1055 83.112 84.9348 83.112C84.8495 83.112 84.8068 83.368 84.8068 83.88C84.8068 84.392 84.8495 84.648 84.9348 84.648ZM55.2388 85.416C55.4948 85.416 56.3481 84.8613 57.7988 83.752C59.3348 82.5573 61.1268 80.9786 63.1748 79.016C68.2095 73.9813 73.5855 67.752 79.3028 60.328C79.4735 60.1573 79.6441 59.9013 79.8148 59.56L81.6068 57.384C84.5935 53.6293 86.0868 51.2826 86.0868 50.344C86.0868 49.9173 85.8308 49.704 85.3188 49.704H85.0628C84.6362 49.704 84.4228 49.32 84.4228 48.552C84.4228 48.04 84.5508 47.272 84.8068 46.248L84.9348 45.224C84.9348 44.456 84.8495 44.072 84.6788 44.072C84.3375 43.7306 84.1668 43.2613 84.1668 42.664C84.1668 42.408 84.0815 42.28 83.9108 42.28C83.5695 42.3653 82.4601 43.3466 80.5828 45.224C71.6228 54.44 64.0281 65.6613 57.7988 78.888C56.0068 82.6426 55.1108 84.776 55.1108 85.288C55.1108 85.3733 55.1535 85.416 55.2388 85.416ZM53.7028 93.736C53.9588 93.736 54.3428 93.6933 54.8548 93.608C55.3668 93.608 55.8361 93.5226 56.2628 93.352C56.6895 93.1813 56.9028 93.0533 56.9028 92.968C56.9028 92.8826 56.5188 92.7973 55.7508 92.712H55.6228C55.0255 92.712 54.5135 92.7973 54.0868 92.968C53.5748 93.1386 53.3188 93.3093 53.3188 93.48C53.3188 93.5653 53.4468 93.6506 53.7028 93.736ZM85.5748 37.16C85.6602 37.16 85.7028 36.9893 85.7028 36.648C85.7028 35.368 85.0201 34.728 83.6548 34.728C82.5455 34.728 81.2655 35.1546 79.8148 36.008C78.9615 36.52 78.5348 36.8186 78.5348 36.904C78.6202 36.904 78.7482 36.8613 78.9188 36.776C79.1748 36.6906 79.7295 36.6053 80.5828 36.52L81.9908 36.264C83.6975 36.264 84.6788 36.4346 84.9348 36.776C85.2762 37.032 85.4895 37.16 85.5748 37.16ZM82.8868 95.656L78.7908 93.48C78.8761 92.1146 78.9188 90.792 78.9188 89.512C78.9188 88.3173 79.0895 86.696 79.4308 84.648C79.7721 82.5146 80.1561 80.4666 80.5828 78.504C81.0095 76.456 81.3508 74.8346 81.6068 73.64C81.8628 72.36 81.9908 71.592 81.9908 71.336V71.208C81.8202 71.208 80.7108 72.4026 78.6628 74.792C73.8841 80.7653 69.4468 85.3306 65.3508 88.488C64.1561 89.3413 62.8335 90.1946 61.3828 91.048C57.7988 93.1813 55.5801 94.248 54.7268 94.248C54.5561 94.248 54.0015 94.0773 53.0628 93.736C52.1241 93.3946 51.1428 92.9253 50.1188 92.328C47.9001 91.2186 46.4921 90.152 45.8948 89.128C45.5535 88.616 45.3828 87.9333 45.3828 87.08C45.3828 86.3973 45.5108 85.5866 45.7668 84.648C47.1321 78.9306 50.2895 71.9333 55.2388 63.656C60.1881 55.3786 65.5215 48.2106 71.2388 42.152C76.5295 36.6906 80.5828 33.96 83.3988 33.96C84.5081 33.96 85.2761 34.472 85.7028 35.496C86.2148 36.4346 86.6415 36.904 86.9828 36.904H87.3668C87.7935 36.904 88.4335 37.1173 89.2868 37.544C90.2255 37.8853 90.9935 38.44 91.5908 39.208C92.1881 39.8906 92.4868 40.5733 92.4868 41.256C92.4868 41.8533 92.2735 43.5173 91.8468 46.248L91.5908 47.528C91.5908 47.8693 91.8041 48.296 92.2308 48.808C92.7428 49.2346 93.3402 49.448 94.0228 49.448C94.3641 49.448 94.6201 49.3626 94.7908 49.192C95.0468 48.936 95.3028 48.808 95.5588 48.808C95.7295 48.808 96.2415 49.0213 97.0948 49.448C98.0335 50.216 98.5028 50.728 98.5028 50.984C98.5028 52.008 97.2655 56.0186 94.7908 63.016C92.6575 68.9893 90.7375 75.4746 89.0308 82.472C87.5802 88.104 86.8548 91.9013 86.8548 93.864C86.8548 94.7173 86.6841 95.144 86.3428 95.144L85.3188 94.888H84.5508C84.3801 94.888 84.2948 93.992 84.2948 92.2V90.024L84.5508 86.44C84.5508 86.0986 84.5082 85.928 84.4228 85.928C84.2522 85.928 83.7401 89.1706 82.8868 95.656Z" fill="#215FF6"/>
<path d="M45.2231 27.4321C45.3084 27.4321 45.3937 27.3894 45.4791 27.3041C45.6497 27.1334 45.9057 26.8774 46.2471 26.5361C46.5884 26.1094 46.7591 25.8534 46.7591 25.7681H46.6311C46.5457 25.7681 46.2044 26.0667 45.6071 26.6641L45.0951 27.1761C45.0951 27.3467 45.1377 27.4321 45.2231 27.4321ZM45.2231 19.7521C45.3084 19.7521 45.4364 19.5814 45.6071 19.2401C45.8631 18.8987 46.1617 18.5147 46.5031 18.0881C46.8444 17.6614 47.1857 17.2347 47.5271 16.8081L46.2471 17.8321C45.4791 18.6001 45.0951 19.1547 45.0951 19.4961C45.0951 19.6667 45.1377 19.7521 45.2231 19.7521ZM46.8871 25.2561C46.9724 25.2561 47.3991 24.6587 48.1671 23.4641C51.2391 18.9414 53.8417 14.6747 55.9751 10.6641C56.9137 8.87207 57.3831 7.76274 57.3831 7.33607C57.3831 7.25074 57.3404 7.20807 57.2551 7.20807C57.1697 7.20807 56.9137 7.5494 56.4871 8.23207C56.0604 8.91474 55.6337 9.76807 55.2071 10.7921C54.7804 11.7307 54.0977 12.9681 53.1591 14.5041C52.3057 16.0401 51.4524 17.4907 50.5991 18.8561C50.0871 19.6241 49.6604 20.3067 49.3191 20.9041C48.9777 21.5014 48.6364 22.0134 48.2951 22.4401C48.0391 22.8667 47.8257 23.2507 47.6551 23.5921C47.4844 23.9334 47.3137 24.1894 47.1431 24.3601C47.0577 24.5307 46.9724 24.7014 46.8871 24.8721C46.8871 24.9574 46.8871 25.0427 46.8871 25.1281C46.8871 25.1281 46.8871 25.1707 46.8871 25.2561ZM46.6311 28.4561C47.0577 28.4561 47.2711 28.2427 47.2711 27.8161C47.2711 27.7307 47.2284 27.6881 47.1431 27.6881C47.1431 27.6027 47.1431 27.5601 47.1431 27.5601C47.1431 27.4747 47.1004 27.4321 47.0151 27.4321C46.8444 27.4321 46.6737 27.5174 46.5031 27.6881C46.4177 27.8587 46.3751 27.9867 46.3751 28.0721C46.3751 28.3281 46.4604 28.4561 46.6311 28.4561ZM10.6631 100.392L6.43906 98.3441C4.7324 97.4054 3.53773 96.5947 2.85506 95.9121C0.977729 94.2907 0.0390625 91.4321 0.0390625 87.3361C0.0390625 82.0454 2.21506 74.1521 6.56706 63.6561C10.8337 53.0747 18.5564 39.9334 29.7351 24.2321C33.0631 19.7094 36.9031 15.1014 41.2551 10.4081C45.6071 5.62941 48.8071 2.60007 50.8551 1.32007C52.1351 0.722738 53.1164 0.424072 53.7991 0.424072C54.5671 0.424072 54.9511 0.850739 54.9511 1.70407C54.9511 2.13074 54.9084 2.34407 54.8231 2.34407L54.6951 1.70407C54.6097 1.2774 54.4391 1.02141 54.1831 0.936073C53.7564 0.936073 53.3724 0.978739 53.0311 1.06407C51.9217 1.32007 51.2817 1.61874 51.1111 1.96008V2.08807C51.1111 2.25874 51.5377 2.34407 52.3911 2.34407C53.3297 2.34407 54.0977 2.77074 54.6951 3.62407C55.0364 3.88007 55.3351 4.0934 55.5911 4.26407C55.9324 4.34941 56.3164 4.39207 56.7431 4.39207C57.1697 4.39207 57.6391 4.56274 58.1511 4.90408C59.3457 5.67208 59.9431 6.56807 59.9431 7.59207L59.8151 8.10407C58.6204 12.1147 55.0791 18.2161 49.1911 26.4081C47.1431 29.3094 46.1191 30.8881 46.1191 31.1441C46.1191 31.3147 45.6924 31.9547 44.8391 33.0641C44.4124 33.5761 44.0284 34.0027 43.6871 34.3441C43.4311 34.6854 43.2604 34.8561 43.1751 34.8561V34.0881C43.2604 33.9174 43.4311 33.7041 43.6871 33.4481C43.9431 33.1921 44.0711 32.8934 44.0711 32.5521C44.0711 32.4667 44.0284 32.4241 43.9431 32.4241C43.6871 32.4241 43.3457 32.8507 42.9191 33.7041C42.5777 34.5574 42.2364 34.9841 41.8951 34.9841C41.7244 34.9841 41.6391 34.8561 41.6391 34.6001C41.6391 34.2587 41.8524 33.6614 42.2791 32.8081C42.7911 31.8694 43.0471 31.3574 43.0471 31.2721H42.9191L42.5351 31.5281C42.1937 31.7841 41.8524 32.1681 41.5111 32.6801C41.2551 33.1921 41.0417 33.7041 40.8711 34.2161C40.5297 35.3254 40.2311 35.8801 39.9751 35.8801H39.8471C39.5911 35.8801 39.1217 35.5814 38.4391 34.9841C37.7564 34.3867 37.4151 33.7894 37.4151 33.1921C37.4151 32.6801 37.8417 31.7841 38.6951 30.5041C39.2924 29.6507 39.5911 29.0534 39.5911 28.7121H39.2071H39.0791C38.9084 28.7121 38.8231 28.6267 38.8231 28.4561C38.8231 28.3707 38.9084 28.2427 39.0791 28.0721C39.2497 27.9014 39.4631 27.8161 39.7191 27.8161C39.9751 27.8161 40.2737 27.6027 40.6151 27.1761C40.9564 26.6641 41.1697 26.0667 41.2551 25.3841C41.2551 25.1281 41.3404 24.8294 41.5111 24.4881C41.6817 24.0614 41.9377 23.8481 42.2791 23.8481H42.5351C42.7057 23.8481 42.8764 23.7627 43.0471 23.5921C43.6444 22.7387 44.0284 22.0134 44.1991 21.4161C44.1991 21.2454 44.1137 21.1601 43.9431 21.1601H43.8151C43.0471 21.3307 41.3831 23.2081 38.8231 26.7921C32.8497 34.8987 27.3457 43.6881 22.3111 53.1601C13.8631 68.8614 9.63906 80.9361 9.63906 89.3841C9.63906 92.6267 9.8524 94.3761 10.2791 94.6321H11.0471C14.1191 94.6321 16.9351 94.1627 19.4951 93.2241C24.2737 91.5174 29.0097 89.0001 33.7031 85.6721C36.3484 83.7947 37.8417 82.8561 38.1831 82.8561C38.1831 83.0267 37.5857 83.5814 36.3911 84.5201C30.5031 88.8721 24.9137 91.9441 19.6231 93.7361C16.8924 94.7601 14.9724 95.2721 13.8631 95.2721C12.7537 95.2721 11.9857 95.4001 11.5591 95.6561C11.1324 95.9121 10.9191 96.1681 10.9191 96.4241C10.9191 96.9361 11.3031 97.1921 12.0711 97.1921C13.6924 97.1921 16.3377 96.4241 20.0071 94.8881C24.6151 93.0961 29.3084 90.4507 34.0871 86.9521C37.3297 84.5627 39.5057 82.5574 40.6151 80.9361C40.6151 81.0214 40.7004 81.0641 40.8711 81.0641V81.1921C41.0417 81.1921 41.2977 80.9787 41.6391 80.5521C42.0657 80.0401 43.5591 79.1441 46.1191 77.8641C47.8257 77.0107 48.9351 76.5841 49.4471 76.5841C49.6177 76.5841 49.7457 76.6694 49.8311 76.8401C50.0017 76.9254 50.0871 77.4374 50.0871 78.3761C50.0871 79.7414 49.7884 80.9361 49.1911 81.9601C48.6791 82.9841 47.5697 84.3067 45.8631 85.9281C42.0231 89.6827 37.3724 92.8401 31.9111 95.4001C26.5351 98.1307 21.0737 99.6667 15.5271 100.008L10.6631 100.392Z" fill="#215FF6"/>
</svg>
