<svg width="363" height="103" viewBox="0 0 363 103" fill="none" xmlns="http://www.w3.org/2000/svg">
<path d="M305.626 93.8C305.559 93.8 305.326 93.6666 304.926 93.4C304.592 93.1333 304.159 92.7333 303.626 92.2C303.092 91.6666 302.559 91.1666 302.026 90.7C301.492 90.3 301.092 89.9666 300.826 89.7C299.759 89.0333 299.226 87.4333 299.226 84.9C299.226 82.1666 299.859 78.3666 301.126 73.5C303.526 63.7666 308.692 51.6666 316.626 37.2C315.426 37.2 314.592 37.2333 314.126 37.3C311.592 37.4333 310.126 37.5 309.726 37.5C309.392 37.5 309.226 37.5666 309.226 37.7V37.8C309.226 37.8666 309.092 37.9 308.826 37.9C306.959 37.9 305.526 37.9333 304.526 38C300.059 38.6 296.526 38.9 293.926 38.9C292.059 38.9 291.059 38.7666 290.926 38.5C290.926 38.1666 291.192 37.8666 291.726 37.6C292.192 37.5333 292.426 37.4666 292.426 37.4C292.426 37.3333 292.126 37.2666 291.526 37.2C290.926 37.1333 290.392 36.5666 289.926 35.5C289.659 35.0333 289.492 34.6666 289.426 34.4C289.426 34.1333 289.459 33.9666 289.526 33.9C289.726 33.4333 291.926 32.8666 296.126 32.2C299.326 31.6666 302.492 31.2333 305.626 30.9C310.292 30.5 315.292 30.2 320.626 30C322.559 26.7333 324.259 24 325.726 21.8C327.259 19.5333 328.159 18.4 328.426 18.4C328.759 18.4 328.992 18.2 329.126 17.7999C329.326 17.3999 329.559 17.2 329.826 17.2C329.959 17.2666 330.026 17.6 330.026 18.2C329.959 18.3333 329.926 18.5 329.926 18.6999C329.926 19.0333 330.026 19.4 330.226 19.8C330.426 20.2 330.659 20.5 330.926 20.7C331.259 20.9 331.492 20.9999 331.626 20.9999C331.826 20.9999 331.992 20.9333 332.126 20.8C332.326 20.6666 332.492 20.6 332.626 20.6C332.826 20.6 333.026 20.7 333.226 20.9C333.492 21.1 333.692 21.4 333.826 21.8C333.959 22.1999 334.026 22.6 334.026 23C334.026 23.6666 333.059 25.9666 331.126 29.9C336.126 29.9 340.992 30.0333 345.726 30.3C356.192 30.9666 361.426 31.7 361.426 32.5C361.426 32.6333 361.226 32.8333 360.826 33.1C360.492 33.3 360.326 33.6 360.326 34C360.326 34.5333 360.659 34.9333 361.326 35.2C362.326 35.6666 362.826 36.4666 362.826 37.6L357.826 37.5C351.692 37.1666 347.026 37 343.826 37L332.626 36.9L327.626 37C327.559 37.0666 327.526 37.1666 327.526 37.3C327.526 37.3666 327.492 37.4333 327.426 37.5L322.926 46.6L321.126 50.7C321.126 50.7666 321.092 50.8 321.026 50.8C321.026 50.8 320.959 50.8333 320.826 50.9C320.692 50.9 320.626 50.9333 320.626 51L320.726 51.5C320.659 51.6333 320.526 51.7 320.326 51.7C320.126 51.7 320.026 51.8 320.026 52C320.026 52.2 319.992 52.4666 319.926 52.8C319.726 53.6666 319.459 54.1 319.126 54.1C319.059 54.1 319.026 54.1333 319.026 54.2C319.026 54.2666 319.026 54.3333 319.026 54.4L319.126 54.7L319.026 54.8C318.959 54.8666 318.859 54.9 318.726 54.9C318.592 54.9 318.526 54.9666 318.526 55.1V55.3C318.526 55.7 318.292 56.3 317.826 57.1C317.226 58.2333 316.759 59.3333 316.426 60.4C316.092 61.4 315.792 61.9 315.526 61.9C315.326 61.9 315.226 61.9666 315.226 62.1C315.226 62.2333 315.192 62.5 315.126 62.9C314.726 64.0333 314.492 64.6 314.426 64.6C314.359 64.6 314.292 64.6333 314.226 64.7C314.159 64.7666 314.092 64.8333 314.026 64.9C314.026 64.9666 314.026 65.0333 314.026 65.1C314.026 65.6333 313.559 66.8333 312.626 68.7C312.426 69.3 312.059 70.1333 311.526 71.2L311.326 72C311.392 72 311.426 72.0333 311.426 72.1L311.326 72.2C311.259 72.2666 311.226 72.3333 311.226 72.4C311.026 72.6666 310.726 73.4333 310.326 74.7C309.259 77.7666 308.426 80.5666 307.826 83.1C307.692 83.9 307.626 84.5333 307.626 85C307.626 85.3333 307.726 85.5666 307.926 85.7C308.126 85.8333 308.226 85.9333 308.226 86C308.226 86.1333 308.026 86.2 307.626 86.2C307.226 86.2 307.026 86.2666 307.026 86.4C307.026 86.5333 307.426 86.6 308.226 86.6L308.826 86.5C309.292 86.5 309.526 86.6 309.526 86.8C309.526 87 309.559 87.1333 309.626 87.2L310.026 87.1C310.492 87.1 310.726 87.8333 310.726 89.3C310.659 89.9666 310.526 90.5333 310.326 91C310.126 91.2 309.692 91.5 309.026 91.9C308.426 92.3666 307.759 92.8 307.026 93.2C306.359 93.6 305.892 93.8 305.626 93.8ZM305.326 92.5C305.526 92.5 305.759 92.4 306.026 92.2C306.359 92.0666 306.526 91.9666 306.526 91.9C306.526 91.8333 306.326 91.8 305.926 91.8C305.326 91.8 305.026 91.9333 305.026 92.2C305.026 92.4 305.126 92.5 305.326 92.5ZM360.326 32.9C360.459 32.9 360.526 32.8333 360.526 32.7L360.426 32.4H360.526C360.326 32.2666 359.959 32.1666 359.426 32.0999C359.026 32.0999 358.826 32.1333 358.826 32.2C358.826 32.2666 358.959 32.4 359.226 32.6C359.559 32.8 359.859 32.9 360.126 32.9H360.326Z" fill="#636366"/>
<path d="M291.461 52.3C291.728 52.0333 291.994 51.2333 292.261 49.9C292.594 48.5667 292.761 47.4333 292.761 46.5C292.761 45.6333 292.594 45.2 292.261 45.2C291.928 45.2 291.761 45.7667 291.761 46.9V47.5C291.761 48.1 291.728 48.7667 291.661 49.5C291.594 50.2333 291.528 50.8 291.461 51.2C291.394 51.6 291.361 51.9 291.361 52.1C291.361 52.2333 291.394 52.3 291.461 52.3ZM289.761 77.1C289.828 77.0333 289.861 76.9333 289.861 76.8C289.861 76.6667 289.828 76.5 289.761 76.3L289.661 76.1C289.594 76.2333 289.561 76.4667 289.561 76.8C289.561 77 289.594 77.1 289.661 77.1H289.761ZM289.361 78.7L289.461 78.3L289.261 77.7C289.194 77.7 289.161 77.8667 289.161 78.2C289.161 78.5333 289.194 78.7 289.261 78.7H289.361ZM288.861 80.6C288.994 80.6 289.061 80.4333 289.061 80.1C289.061 79.6333 288.994 79.4 288.861 79.4C288.794 79.4 288.761 79.6 288.761 80C288.761 80.4 288.794 80.6 288.861 80.6ZM265.661 81.2C265.861 81.2 266.528 80.7667 267.661 79.9C268.861 78.9667 270.261 77.7333 271.861 76.2C275.794 72.2667 279.994 67.4 284.461 61.6C284.594 61.4667 284.728 61.2667 284.861 61L286.261 59.3C288.594 56.3667 289.761 54.5333 289.761 53.8C289.761 53.4667 289.561 53.3 289.161 53.3H288.961C288.628 53.3 288.461 53 288.461 52.4C288.461 52 288.561 51.4 288.761 50.6L288.861 49.8C288.861 49.2 288.794 48.9 288.661 48.9C288.394 48.6333 288.261 48.2667 288.261 47.8C288.261 47.6 288.194 47.5 288.061 47.5C287.794 47.5667 286.928 48.3333 285.461 49.8C278.461 57 272.528 65.7667 267.661 76.1C266.261 79.0333 265.561 80.7 265.561 81.1C265.561 81.1667 265.594 81.2 265.661 81.2ZM264.461 87.7C264.661 87.7 264.961 87.6667 265.361 87.6C265.761 87.6 266.128 87.5333 266.461 87.4C266.794 87.2667 266.961 87.1667 266.961 87.1C266.961 87.0333 266.661 86.9667 266.061 86.9H265.961C265.494 86.9 265.094 86.9667 264.761 87.1C264.361 87.2333 264.161 87.3667 264.161 87.5C264.161 87.5667 264.261 87.6333 264.461 87.7ZM289.361 43.5C289.428 43.5 289.461 43.3667 289.461 43.1C289.461 42.1 288.928 41.6 287.861 41.6C286.994 41.6 285.994 41.9333 284.861 42.6C284.194 43 283.861 43.2333 283.861 43.3C283.928 43.3 284.028 43.2667 284.161 43.2C284.361 43.1333 284.794 43.0667 285.461 43L286.561 42.8C287.894 42.8 288.661 42.9333 288.861 43.2C289.128 43.4 289.294 43.5 289.361 43.5ZM287.261 89.2L284.061 87.5C284.128 86.4333 284.161 85.4 284.161 84.4C284.161 83.4667 284.294 82.2 284.561 80.6C284.828 78.9333 285.128 77.3333 285.461 75.8C285.794 74.2 286.061 72.9333 286.261 72C286.461 71 286.561 70.4 286.561 70.2V70.1C286.428 70.1 285.561 71.0333 283.961 72.9C280.228 77.5667 276.761 81.1333 273.561 83.6C272.628 84.2667 271.594 84.9333 270.461 85.6C267.661 87.2667 265.928 88.1 265.261 88.1C265.128 88.1 264.694 87.9667 263.961 87.7C263.228 87.4333 262.461 87.0667 261.661 86.6C259.928 85.7333 258.828 84.9 258.361 84.1C258.094 83.7 257.961 83.1667 257.961 82.5C257.961 81.9667 258.061 81.3333 258.261 80.6C259.328 76.1333 261.794 70.6667 265.661 64.2C269.528 57.7333 273.694 52.1333 278.161 47.4C282.294 43.1333 285.461 41 287.661 41C288.528 41 289.128 41.4 289.461 42.2C289.861 42.9333 290.194 43.3 290.461 43.3H290.761C291.094 43.3 291.594 43.4667 292.261 43.8C292.994 44.0667 293.594 44.5 294.061 45.1C294.528 45.6333 294.761 46.1667 294.761 46.7C294.761 47.1667 294.594 48.4667 294.261 50.6L294.061 51.6C294.061 51.8667 294.228 52.2 294.561 52.6C294.961 52.9333 295.428 53.1 295.961 53.1C296.228 53.1 296.428 53.0333 296.561 52.9C296.761 52.7 296.961 52.6 297.161 52.6C297.294 52.6 297.694 52.7667 298.361 53.1C299.094 53.7 299.461 54.1 299.461 54.3C299.461 55.1 298.494 58.2333 296.561 63.7C294.894 68.3667 293.394 73.4333 292.061 78.9C290.928 83.3 290.361 86.2667 290.361 87.8C290.361 88.4667 290.228 88.8 289.961 88.8L289.161 88.6H288.561C288.428 88.6 288.361 87.9 288.361 86.5V84.8L288.561 82C288.561 81.7333 288.528 81.6 288.461 81.6C288.328 81.6 287.928 84.1333 287.261 89.2Z" fill="#636366"/>
<path d="M248.366 50.4C248.5 50.4 248.866 50.1 249.466 49.5C250.066 48.8334 250.366 48.4334 250.366 48.3C250.166 48.3 249.766 48.6667 249.166 49.4C248.633 49.8667 248.366 50.2 248.366 50.4ZM250.966 48L252.166 46.7C252.033 46.7 251.833 46.8 251.566 47C251.366 47.2 251.2 47.3667 251.066 47.5L250.866 47.7001C250.866 47.9 250.9 48 250.966 48ZM252.366 46.7C252.766 46.5 253.166 46.3334 253.566 46.2C253.966 46.0667 254.366 46 254.766 46C254.966 46 255.1 46.0334 255.166 46.1C255.433 46.1 255.566 45.8667 255.566 45.4C255.566 44.7334 255.4 44.4 255.066 44.4C254.733 44.4 254.233 44.8 253.566 45.6L252.366 46.7ZM254.966 68.7001C255.033 68.6334 255.066 68.5334 255.066 68.4001L254.866 67.7001C254.8 67.7001 254.766 67.9334 254.766 68.4001C254.766 68.5334 254.766 68.6334 254.766 68.7001C254.766 68.7001 254.8 68.7001 254.866 68.7001H254.966ZM254.666 81.6001C255 81.6001 255.166 81.3667 255.166 80.9001C255.166 80.5001 255 80.3001 254.666 80.3001C254.4 80.3001 254.266 80.5001 254.266 80.9001C254.266 81.3667 254.4 81.6001 254.666 81.6001ZM254.466 80.1001L254.666 77.9001C254.533 77.4334 254.366 77.2001 254.166 77.2001C254.033 77.2667 253.966 77.5001 253.966 77.9001C253.966 78.3667 254.133 79.1001 254.466 80.1001ZM258.266 52.4C258.4 52.4 258.466 52.1667 258.466 51.7C258.466 51.3 258.4 51.1 258.266 51.1C258.2 51.1 258.166 51.3 258.166 51.7C258.166 52.1667 258.2 52.4 258.266 52.4ZM258.566 50.4C258.833 50.4 258.966 50.2 258.966 49.8C258.966 49.3334 258.9 49.1 258.766 49.1C258.7 49.1 258.6 49.2334 258.466 49.5C258.4 49.7 258.366 49.9 258.366 50.1C258.366 50.3 258.433 50.4 258.566 50.4ZM224.666 90.5001H224.566C224.433 90.5001 224.266 90.4667 224.066 90.4001C223.866 90.3334 223.5 90.1334 222.966 89.8001C222.366 89.4667 222.066 89.0667 222.066 88.6001C222.066 88.3334 222.2 88.0334 222.466 87.7001C222.933 87.1001 223.166 85.7001 223.166 83.5001C223.166 82.1667 223.566 79.8667 224.366 76.6001C225.166 73.3334 226.2 69.8001 227.466 66.0001C229.466 60.3334 232.3 52.9334 235.966 43.8C239.7 34.6667 242.733 27.6667 245.066 22.8L246.566 19.6C246.566 19.4667 247.733 17.2334 250.066 12.9C251.866 9.50005 253.333 6.90005 254.466 5.10005C255.666 3.30005 256.666 2.06671 257.466 1.40005C258.266 0.666715 258.733 0.300049 258.866 0.300049C258.933 0.300049 258.966 0.366715 258.966 0.500046L258.866 1.20004C258.866 1.60005 259 2.03338 259.266 2.50004C259.8 3.23338 260.366 3.60005 260.966 3.60005C261.1 3.60005 261.233 3.53338 261.366 3.40004C261.566 3.26671 261.733 3.20005 261.866 3.20005C262.2 3.20005 262.6 3.46671 263.066 4.00005C263.533 4.53338 263.766 4.93338 263.766 5.20005C263.766 5.53338 263.6 6.00005 263.266 6.60005L258.766 15.4L253.666 25.7L251.466 30.5C249.933 33.9 249.166 35.6667 249.166 35.8L246.266 42.6L239.766 58.5L239.066 60.4C239.066 60.4667 239.133 60.5 239.266 60.5H239.466C239.933 60.3667 240.166 60.1334 240.166 59.8C240.166 59.4 241.133 58.1334 243.066 56C245 53.8 246.066 52.6334 246.266 52.5C246.533 52.3667 246.7 52.2667 246.766 52.2C246.9 52.1334 246.966 52.0667 246.966 52L246.866 51.9C246.866 51.7 247.133 51.2667 247.666 50.6C248.266 49.9334 249 49.1667 249.866 48.3C250.733 47.4334 251.566 46.6334 252.366 45.9C253.166 45.1667 253.766 44.7 254.166 44.5C254.566 44.3 254.866 44.2 255.066 44.2C255.666 44.2 255.966 44.6667 255.966 45.6C255.966 45.9334 256.066 46.3 256.266 46.7C256.533 47.1 256.8 47.3 257.066 47.3C257.266 47.3 257.433 47.1667 257.566 46.9C257.7 46.6334 257.933 46.5 258.266 46.5C258.8 46.5 259.466 46.8667 260.266 47.6C261.066 48.3334 261.466 49.1 261.466 49.9C261.466 50.2334 261.4 50.7 261.266 51.3C261.2 51.8334 261.033 52.8001 260.766 54.2001C260.566 55.5334 260.3 56.9334 259.966 58.4C258.166 66.4 257.266 72.6334 257.266 77.1001C257.4 79.0334 257.533 80.0001 257.666 80.0001C258 79.7334 258.6 79.1667 259.466 78.3001C260.4 77.3667 261.3 76.4334 262.166 75.5001C263.033 74.5001 263.666 73.7667 264.066 73.3L260.466 76.9001C259.8 77.3667 259.166 77.9001 258.566 78.5001C258.166 78.8334 257.9 79.0001 257.766 79.0001L258.066 78.7001C258.2 78.5001 258.6 78.1001 259.266 77.5001L260.666 76.2001C262.466 74.4001 263.766 73.2001 264.566 72.6001C264.766 72.4667 264.9 72.3334 264.966 72.2001C265.1 72.0667 265.2 71.9667 265.266 71.9001C265.333 71.8334 265.366 71.7667 265.366 71.7001C265.366 71.5667 265.533 71.3001 265.866 70.9001C266.2 70.5001 266.533 70.2334 266.866 70.1001C267 70.1001 267.066 70.1334 267.066 70.2001C267.066 70.2667 266.9 70.4334 266.566 70.7001C266.3 70.9667 266.166 71.1334 266.166 71.2001C266.166 71.2001 266.166 71.2334 266.166 71.3001L266.266 71.2001C266.733 71.0667 267.1 70.9334 267.366 70.8001C267.633 70.6667 267.966 70.6001 268.366 70.6001C268.566 70.6001 268.766 70.6334 268.966 70.7001C269.233 70.7001 269.366 70.8667 269.366 71.2001C269.5 71.5334 269.733 71.7667 270.066 71.9001C270.4 72.0334 270.633 72.1667 270.766 72.3001C270.9 72.4334 270.966 72.7334 270.966 73.2001C270.966 73.3334 270.966 73.4334 270.966 73.5001C271.033 73.5001 271.133 73.5001 271.266 73.5001C271.466 73.5001 271.566 73.5667 271.566 73.7001C271.433 74.3001 270.7 75.2667 269.366 76.6001C268.033 77.9334 266.633 79.2334 265.166 80.5001C263.7 81.7667 262.666 82.6001 262.066 83.0001C261 83.5334 259.6 83.8001 257.866 83.8001C254.466 83.8001 252.133 82.8001 250.866 80.8001C250.066 79.6667 249.666 77.8334 249.666 75.3001C249.666 73.9001 249.8 72.0001 250.066 69.6001C250.333 66.1334 250.8 63.1 251.466 60.5C252.133 57.8334 252.466 56.2334 252.466 55.7C252.466 55.5 252.4 55.4 252.266 55.4C252.133 55.4 251.766 55.7667 251.166 56.5L250.866 56.8C245.066 63.3334 239.166 71.6001 233.166 81.6001C230.633 85.8001 229.1 88.2334 228.566 88.9001C228.1 89.6334 227.6 90.0001 227.066 90.0001L226.066 89.8001C225.466 89.8001 225.133 89.9001 225.066 90.1001C224.933 90.3001 224.8 90.4334 224.666 90.5001Z" fill="#636366"/>
<path d="M208.751 76.7C208.817 76.7 208.851 76.6001 208.851 76.4001C208.917 76.2001 208.951 75.9334 208.951 75.6C208.817 74.9334 208.717 74.6 208.651 74.6V75C208.651 76.1334 208.684 76.7 208.751 76.7ZM208.751 41.1C208.884 41.1 209.017 40.8667 209.151 40.4C209.151 40.1334 209.117 39.9 209.051 39.7C209.051 39.4334 209.017 39.3 208.951 39.3C208.884 39.3 208.784 39.5667 208.651 40.1V40.6C208.651 40.9334 208.684 41.1 208.751 41.1ZM212.451 81.3C212.517 81.3 212.617 81.0667 212.751 80.6001L212.851 80.2C212.851 80.0667 212.751 80 212.551 80C212.351 80.2667 212.251 80.6 212.251 81C212.251 81.2 212.284 81.3 212.351 81.3H212.451ZM235.951 20.5C236.084 20.4334 236.251 20.1667 236.451 19.7C236.717 19.1667 236.851 18.7667 236.851 18.5L236.751 18.4C236.684 18.4 236.617 18.4667 236.551 18.6C236.484 18.6667 236.384 18.8 236.251 19C236.184 19.1334 236.084 19.3334 235.951 19.6C235.884 19.8667 235.851 20.0667 235.851 20.2C235.851 20.4 235.884 20.5 235.951 20.5ZM207.451 102.6L206.851 102.3C204.651 101.567 203.551 100.3 203.551 98.5C203.551 97.4334 203.917 95.2667 204.651 92C205.117 90.1334 205.417 88.7334 205.551 87.8C205.751 86.8667 205.851 86 205.851 85.2L205.451 81.9001C204.851 77.9667 204.417 71.8 204.151 63.4L204.051 61.6C203.584 53.4667 203.317 49.4 203.251 49.4C203.117 49.4 202.584 50.2667 201.651 52L195.751 62.7C194.684 64.8334 193.651 66.8 192.651 68.6C192.517 68.8667 192.317 69.2667 192.051 69.8001C191.851 70.2667 191.584 70.7334 191.251 71.2L190.151 73.3C190.151 73.5 189.784 74.3667 189.051 75.9001C186.717 80.3667 184.851 83.7334 183.451 86C181.384 89.6 179.751 91.4001 178.551 91.4001L177.951 91.3C177.151 91.3 176.617 91.3667 176.351 91.5C176.151 91.6334 175.917 91.7 175.651 91.7C175.451 91.7 175.084 91.6334 174.551 91.5C174.017 91.3667 173.384 91.1 172.651 90.7C171.917 90.3667 171.384 89.9667 171.051 89.5C170.717 89.0334 170.551 88.2 170.551 87C170.551 82.9334 172.317 75.0667 175.851 63.4C177.584 58 180.017 51.1334 183.151 42.8C189.751 24.9334 193.817 16 195.351 16H195.451L195.551 16.4C195.484 16.6 195.384 16.7667 195.251 16.9C195.184 17.0334 195.151 17.1667 195.151 17.3C195.151 17.5667 195.284 17.9334 195.551 18.4C195.884 18.8 196.317 19.1667 196.851 19.5C197.117 19.7 197.384 19.8 197.651 19.8C197.784 19.8 197.917 19.7334 198.051 19.6C198.184 19.4 198.351 19.3 198.551 19.3L198.951 19.5C199.151 19.6334 199.651 20.1667 200.451 21.1L198.451 25.8C195.051 33.4667 191.484 42.5334 187.751 53C185.351 59.8667 184.151 63.4334 184.151 63.7001C184.151 63.9001 183.784 64.9667 183.051 66.9001L181.451 72.1L179.551 78.8C179.617 78.8 179.884 78.4001 180.351 77.6001C182.217 74.4001 183.784 71.5334 185.051 69C185.651 67.6 186.184 66.5667 186.651 65.9C187.117 65.2334 187.417 64.9 187.551 64.9C187.617 64.9 187.651 64.9334 187.651 65H187.951L187.751 64.2C187.751 64 187.817 63.7334 187.951 63.4C188.084 63 188.251 62.6667 188.451 62.4C188.717 62.0667 188.917 61.9 189.051 61.9L189.351 62C189.417 62 189.451 61.9667 189.451 61.9V61.8L189.351 61.6C189.351 60.9334 189.517 60.3 189.851 59.7C190.184 59.1 190.451 58.8 190.651 58.8L190.951 59C191.017 59 191.051 58.9667 191.051 58.9L190.951 58.6C190.951 57.7334 192.651 54.2 196.051 48C198.251 43.8667 199.984 40.7 201.251 38.5C203.251 34.9001 204.617 33.1 205.351 33.1L205.751 33.2C206.084 33.2 206.284 32.9 206.351 32.3L206.451 31.5C206.517 31.5 206.551 31.8334 206.551 32.5C206.751 34.1667 207.217 35 207.951 35C208.217 35 208.417 34.9 208.551 34.7C208.751 34.5 208.951 34.4 209.151 34.4C209.417 34.4 209.851 34.6667 210.451 35.2L211.651 36.7V49.9C211.451 52.1667 211.351 56.2334 211.351 62.1L211.451 68.9001C224.851 33.1001 232.284 14.8334 233.751 14.1C234.084 14.1 234.484 13.7334 234.951 13C235.284 12.5334 235.484 12.3 235.551 12.3C235.617 12.3 235.651 12.3334 235.651 12.4C235.717 12.4667 235.751 12.5334 235.751 12.6C235.751 12.8667 235.617 13.2334 235.351 13.7C235.284 13.7667 235.251 13.8667 235.251 14C235.251 14.4 235.551 15 236.151 15.8C236.351 16.0667 236.517 16.3334 236.651 16.6C236.851 16.8 236.984 16.9667 237.051 17.1C237.117 17.2334 237.151 17.3334 237.151 17.4L237.651 16.9C237.851 16.4334 238.017 16.1667 238.151 16.1C238.284 16.1 238.517 16.2667 238.851 16.6C239.184 16.8667 239.417 17.1334 239.551 17.4C239.751 17.6667 239.851 17.8667 239.851 18C239.851 18.2 239.651 18.8667 239.251 20C238.251 23.0667 237.451 25.1 236.851 26.1L235.451 29.3L233.451 34.2C225.251 53.6667 219.017 69.9001 214.751 82.9001C213.751 85.7667 213.251 87.6667 213.251 88.6001C213.251 89.4667 213.384 90.4001 213.651 91.4001C214.051 93.4001 214.251 94.6334 214.251 95.1001C214.251 95.7001 214.017 96 213.551 96C212.951 96 212.517 95.4 212.251 94.2C212.051 93.3334 211.917 92.9001 211.851 92.9001C211.717 92.9001 211.651 93.2 211.651 93.8C211.651 94.4667 211.717 94.9667 211.851 95.3L212.051 96L211.651 95.9001C211.317 95.9001 211.084 95.9667 210.951 96.1001C210.817 96.3001 210.684 96.7334 210.551 97.4001L210.251 100.2C210.251 101.667 209.951 102.4 209.351 102.4C209.017 102.4 208.751 102.267 208.551 102C208.351 101.733 208.251 101.133 208.251 100.2C208.251 98.6667 208.284 97.5 208.351 96.7C208.417 95.9 208.451 95.3001 208.451 94.9001C207.917 96.8334 207.617 98.2334 207.551 99.1001C207.484 99.7001 207.451 100.367 207.451 101.1L207.551 101.8C207.551 102.333 207.517 102.6 207.451 102.6Z" fill="#636366"/>
<path d="M105.211 97.5002C105.878 97.5002 107.244 97.2335 109.311 96.7002C117.711 94.1669 123.711 89.4669 127.311 82.6002C127.644 81.8669 127.944 81.0002 128.211 80.0002C128.478 78.7335 128.611 77.7335 128.611 77.0002C128.611 76.6002 128.544 76.4002 128.411 76.4002C127.944 76.4002 126.044 77.4002 122.711 79.4002C117.711 82.4669 113.611 85.6335 110.411 88.9002C107.878 91.5002 106.178 93.8002 105.311 95.8002L104.711 97.3002C104.711 97.4335 104.878 97.5002 105.211 97.5002ZM105.711 98.8002C105.978 98.7335 106.478 98.6335 107.211 98.5002C107.878 98.3669 108.611 98.1669 109.411 97.9002C110.211 97.6335 110.844 97.3669 111.311 97.1002C111.778 96.9002 112.078 96.7669 112.211 96.7002L112.311 96.5002H112.211C108.944 97.4335 106.811 97.9002 105.811 97.9002C105.144 97.9002 104.778 98.1002 104.711 98.5002C104.711 98.6335 104.778 98.7335 104.911 98.8002H105.711ZM140.511 40.9002C140.778 40.8335 140.911 40.7669 140.911 40.7002C140.911 40.5002 140.211 40.4002 138.811 40.4002C138.011 40.4002 137.611 40.4335 137.611 40.5002C137.611 40.5669 137.744 40.6335 138.011 40.7002C138.344 40.7669 138.744 40.8335 139.211 40.9002C139.744 40.9002 140.178 40.9002 140.511 40.9002ZM130.011 86.9002C130.144 86.9002 130.311 86.6669 130.511 86.2002C130.778 85.8002 130.944 85.5335 131.011 85.4002H130.911C130.844 85.4002 130.744 85.4669 130.611 85.6002C130.478 85.7335 130.344 85.9335 130.211 86.2002C130.078 86.5335 130.011 86.7335 130.011 86.8002V86.9002ZM132.611 77.9002V77.7002C132.611 77.4335 132.478 76.9335 132.211 76.2002C132.011 75.4669 131.811 75.1002 131.611 75.1002C131.544 75.1002 131.511 75.2002 131.511 75.4002C131.511 75.6669 131.644 76.1669 131.911 76.9002C132.244 77.5669 132.444 77.9002 132.511 77.9002H132.611ZM102.011 96.4002C102.078 96.4002 102.178 96.3002 102.311 96.1002C102.511 95.6335 102.611 95.2002 102.611 94.8002V94.7002L102.211 95.2002C102.011 95.4669 101.911 95.8002 101.911 96.2002C101.911 96.3335 101.944 96.4002 102.011 96.4002ZM108.511 102.2C107.444 102.2 106.444 102.1 105.511 101.9C104.578 101.767 103.911 101.7 103.511 101.7H103.411C103.278 101.7 102.978 101.534 102.511 101.2C102.044 100.867 100.444 99.3669 97.7109 96.7002L97.9109 94.8002C98.5776 90.9335 101.744 86.4669 107.411 81.4002C111.478 77.8002 115.944 74.9002 120.811 72.7002L125.011 70.7002L121.611 66.6002L120.311 65.1002C119.111 63.7669 118.311 62.6002 117.911 61.6002C117.511 60.6002 117.311 59.4669 117.311 58.2002C117.311 56.1335 118.244 53.8002 120.111 51.2002C122.044 48.5335 124.511 46.2002 127.511 44.2002C132.511 40.8669 136.344 39.2002 139.011 39.2002C139.678 39.2002 140.211 39.3335 140.611 39.6002C141.278 40.0669 141.611 40.5669 141.611 41.1002C141.611 41.5669 142.044 42.1669 142.911 42.9002C143.778 43.5669 144.444 44.2669 144.911 45.0002C145.444 45.7335 145.711 46.3669 145.711 46.9002C145.711 47.7669 144.411 49.2335 141.811 51.3002C141.144 51.9002 140.744 52.2002 140.611 52.2002C140.544 52.2002 140.511 52.1669 140.511 52.1002L140.611 51.6002C140.611 51.4669 140.544 51.4002 140.411 51.4002L139.711 51.6002C139.644 51.6002 139.611 51.5669 139.611 51.5002C139.611 51.3002 140.078 50.6002 141.011 49.4002C141.944 48.1335 142.411 47.4669 142.411 47.4002V47.3002C142.211 47.3002 141.778 47.7669 141.111 48.7002C140.511 49.6335 139.678 50.4669 138.611 51.2002C138.144 51.6669 137.844 51.9002 137.711 51.9002C137.578 51.9002 137.511 51.7002 137.511 51.3002C137.511 50.8335 137.344 50.6002 137.011 50.6002C136.211 50.6002 134.544 51.8002 132.011 54.2002C127.478 58.6002 125.211 62.0002 125.211 64.4002C125.211 64.8669 125.778 65.6669 126.911 66.8002L128.811 69.0002L132.111 68.1002C133.844 67.4335 135.178 67.1002 136.111 67.1002H136.211C136.211 67.1669 136.011 67.2669 135.611 67.4002C131.678 68.6669 129.711 69.4002 129.711 69.6002H129.811C130.144 69.6002 130.611 69.5335 131.211 69.4002C132.611 68.9335 133.778 68.7002 134.711 68.7002C135.711 68.7002 136.378 68.9335 136.711 69.4002C137.111 69.8002 137.544 70.0002 138.011 70.0002H138.211C138.744 70.0002 139.611 70.5335 140.811 71.6002L138.911 72.3002C138.311 72.3669 137.644 72.5335 136.911 72.8002C136.244 73.0002 135.611 73.2335 135.011 73.5002C134.411 73.7002 133.778 73.9335 133.111 74.2002L134.011 76.1002C134.611 77.2335 134.911 78.6002 134.911 80.2002V81.9002C134.911 82.9002 134.578 84.1002 133.911 85.5002C132.711 87.9002 130.878 90.3335 128.411 92.8002C126.011 95.3335 123.511 97.3002 120.911 98.7002C116.378 101.034 112.244 102.2 108.511 102.2Z" fill="#636366"/>
<path d="M90.9664 65.0001C91.1664 65.0001 91.4664 64.9001 91.8664 64.7001C92.4664 64.3001 94.5997 62.3335 98.2664 58.8001C100.266 56.8001 101.766 54.9668 102.766 53.3001C103.3 52.3668 103.566 51.8001 103.566 51.6001L103.466 51.5001H103.266C103.133 51.5001 103.066 51.4001 103.066 51.2001C103.066 50.7335 103.166 50.4335 103.366 50.3001C103.766 49.9001 104.1 49.1668 104.366 48.1001L104.666 47.2001C104.6 47.2001 104.533 47.2668 104.466 47.4001C104.4 47.5335 104.033 48.1001 103.366 49.1001C103.033 49.5001 102.733 49.9335 102.466 50.4001C101.466 51.9335 100.833 52.7001 100.566 52.7001C100.366 52.5668 100.266 52.4001 100.266 52.2001C100.266 51.8001 100.4 51.6001 100.666 51.6001C101 51.6001 101.166 51.3668 101.166 50.9001C101.166 50.5001 101.133 50.3001 101.066 50.3001C101 50.3001 100.8 50.5335 100.466 51.0001C99.8664 51.7335 99.3664 52.1001 98.9664 52.1001C98.6331 52.1001 97.4331 53.5335 95.3664 56.4001C93.3664 59.2668 92.3664 60.9001 92.3664 61.3001C92.3664 61.7001 92.2664 61.9001 92.0664 61.9001C91.9331 61.9001 91.7664 62.0668 91.5664 62.4001C91.0331 63.0668 90.7664 63.7001 90.7664 64.3001C90.7664 64.5001 90.5997 64.6001 90.2664 64.6001V64.7001C90.2664 64.7668 90.3331 64.8335 90.4664 64.9001C90.6664 64.9668 90.8331 65.0001 90.9664 65.0001ZM86.4664 88.4002C87.2664 88.4002 88.0331 88.1668 88.7664 87.7001L89.1664 87.5001L89.0664 87.4002L88.6664 87.5001C88.0664 87.7001 87.3664 87.8002 86.5664 87.8002C85.7664 87.8002 85.3664 87.8335 85.3664 87.9002C85.3664 87.9668 85.4331 88.0668 85.5664 88.2001C85.7664 88.3335 86.0664 88.4002 86.4664 88.4002ZM87.1664 92.6001C87.7664 92.6001 88.0664 92.5335 88.0664 92.4002L87.7664 92.3002C87.6331 92.2335 87.4331 92.2001 87.1664 92.2001C86.8997 92.2001 86.6997 92.2335 86.5664 92.3002L86.2664 92.4002C86.2664 92.5335 86.5664 92.6001 87.1664 92.6001ZM110.766 73.8002V73.7001C110.833 73.7001 110.866 73.6335 110.866 73.5001V73.4002V73.3001L110.666 73.6001L110.766 73.8002ZM88.4664 94.1001C87.9331 94.1001 87.3664 94.0002 86.7664 93.8002C86.1664 93.6668 85.1331 93.1001 83.6664 92.1001C82.2664 91.1001 80.8997 90.0002 79.5664 88.8002C78.2331 87.6668 77.2997 86.7668 76.7664 86.1001C75.6331 84.3001 75.0664 82.0668 75.0664 79.4002C75.0664 77.6668 75.5331 74.9668 76.4664 71.3002C77.3331 67.5668 79.5331 62.9335 83.0664 57.4002C86.6664 51.8668 90.9997 47.2001 96.0664 43.4001C98.2664 41.7335 99.9997 40.9001 101.266 40.9001C101.733 40.9001 102.1 41.0335 102.366 41.3001C102.7 41.5001 102.933 41.7335 103.066 42.0001C103.266 42.2001 103.366 42.4001 103.366 42.6001C103.366 42.8001 103.333 42.9001 103.266 42.9001C103.2 42.9001 103.1 42.7668 102.966 42.5001C102.7 41.8335 102.166 41.5001 101.366 41.5001C100.966 41.5001 100.6 41.6001 100.266 41.8001C99.9331 42.0001 99.7664 42.1335 99.7664 42.2001C99.7664 42.2668 99.9997 42.3001 100.466 42.3001C101 42.3001 101.6 42.6001 102.266 43.2001C103 43.7335 103.666 44.0001 104.266 44.0001C104.933 44.0001 105.366 44.1335 105.566 44.4001C105.766 44.6001 105.933 44.7001 106.066 44.7001C106.266 44.7001 106.366 44.5668 106.366 44.3001L106.266 43.3001C106.333 43.3001 106.433 43.4001 106.566 43.6001C106.9 44.0001 107.066 44.5335 107.066 45.2001C107.066 45.8001 107.266 46.2335 107.666 46.5001C108.066 46.9668 108.266 47.7668 108.266 48.9001C108.266 50.0335 108.066 51.2001 107.666 52.4001C107.333 53.1335 107.166 53.6335 107.166 53.9001H107.266C107.533 53.9001 107.866 53.2335 108.266 51.9001C108.666 50.1668 108.866 48.9001 108.866 48.1001C108.866 46.7001 108.966 46.0001 109.166 46.0001C109.233 46.0001 109.366 46.1001 109.566 46.3001C110.566 47.3001 111.066 48.4668 111.066 49.8001C111.066 51.5335 110.133 54.0001 108.266 57.2001C106.466 60.3335 103.3 63.6335 98.7664 67.1001C94.9664 69.8335 91.8997 71.2001 89.5664 71.2001C88.8997 71.2001 88.3997 71.2335 88.0664 71.3002C87.7997 71.3002 87.5997 71.4001 87.4664 71.6001C86.8664 72.4668 86.3331 73.8001 85.8664 75.6001L85.3664 77.4002C84.6997 80.2002 84.3664 82.5335 84.3664 84.4002C84.3664 85.7335 84.4997 86.4668 84.7664 86.6001C85.0997 86.8001 85.5664 86.9002 86.1664 86.9002C88.2997 86.9002 91.2997 85.6335 95.1664 83.1001C96.8331 82.0335 98.3664 80.8002 99.7664 79.4002C104.5 75.2002 107.066 72.8001 107.466 72.2001C108.2 71.4001 108.8 71.0001 109.266 71.0001C109.866 71.0001 110.6 71.4001 111.466 72.2001C112.4 73.0001 112.866 73.8001 112.866 74.6001C112.733 75.6668 111.6 77.3335 109.466 79.6001C100.6 89.2668 93.5997 94.1001 88.4664 94.1001Z" fill="#636366"/>
<path d="M68.7109 67.8001C68.7109 67.6668 68.5443 67.3334 68.2109 66.8001C67.1443 65.0668 66.5443 64.2001 66.4109 64.2001V64.3001C66.4109 64.5668 66.5443 65.0001 66.8109 65.6001C67.1443 66.1334 67.5109 66.6334 67.9109 67.1001C68.3109 67.5668 68.5776 67.8001 68.7109 67.8001ZM69.8109 65.9001C70.0109 65.9001 70.4776 65.2001 71.2109 63.8001C74.4109 57.6668 76.1443 52.5001 76.4109 48.3001L76.5109 46.1001C76.5109 45.5001 76.4776 45.2001 76.4109 45.2001C75.5443 45.2001 74.4109 46.0001 73.0109 47.6001C71.6109 49.2001 70.4443 51.0001 69.5109 53.0001C68.5776 55.0001 68.1109 57.2334 68.1109 59.7001C68.1109 61.3668 68.3443 62.8334 68.8109 64.1001C69.3443 65.3001 69.6776 65.9001 69.8109 65.9001ZM77.7109 41.4001L77.4109 40.7001C76.6776 39.4334 75.5776 38.8001 74.1109 38.8001H73.5109C72.6443 38.9334 72.2109 39.0668 72.2109 39.2001C72.2109 39.3334 72.6776 39.4334 73.6109 39.5001C74.6109 39.5668 75.1109 39.7001 75.1109 39.9001V40.1001C75.1109 40.2334 75.2443 40.3668 75.5109 40.5001C75.7776 40.6334 76.0443 40.7668 76.3109 40.9001C76.5776 40.9668 76.8443 41.0668 77.1109 41.2001C77.3776 41.3334 77.5443 41.4001 77.6109 41.4001H77.7109ZM77.4109 60.9001C77.6776 60.9001 78.2109 59.7668 79.0109 57.5001C79.5443 55.7001 79.8109 54.6668 79.8109 54.4001V54.2001C79.7443 54.2001 79.6109 54.4001 79.4109 54.8001C78.9443 55.8668 78.4776 57.3334 78.0109 59.2001L77.4109 60.9001ZM80.4109 47.7001C80.4776 47.7001 80.5443 47.6001 80.6109 47.4001C80.6109 47.1334 80.4776 46.6334 80.2109 45.9001C79.8109 44.8334 79.5109 44.3001 79.3109 44.3001C79.1109 44.3001 79.0109 44.4001 79.0109 44.6001C79.3443 45.2668 79.6443 45.9668 79.9109 46.7001C80.1776 47.3668 80.3443 47.7001 80.4109 47.7001ZM80.0109 52.9001C80.1443 52.9001 80.2109 52.6334 80.2109 52.1001C80.2109 51.5001 80.1443 51.2001 80.0109 51.2001C79.9443 51.2001 79.9109 51.5001 79.9109 52.1001C79.9109 52.6334 79.9443 52.9001 80.0109 52.9001ZM76.2109 63.7001C76.2776 63.7001 76.4443 63.4334 76.7109 62.9001C77.1109 62.5001 77.3109 62.0668 77.3109 61.6001V61.5001C77.2443 61.5001 77.0776 61.7001 76.8109 62.1001C76.6109 62.5001 76.4443 62.8334 76.3109 63.1001C76.2443 63.3001 76.2109 63.4668 76.2109 63.6001V63.7001ZM53.5109 80.4001C54.0443 80.4001 55.1776 79.9668 56.9109 79.1001C60.6443 77.1668 63.7443 74.6668 66.2109 71.6001L68.0109 69.3001L65.5109 66.7001C64.3776 65.4334 63.2776 63.9334 62.2109 62.2001C61.2109 60.4668 60.7109 59.2334 60.7109 58.5001C60.7109 58.3668 60.6776 58.3001 60.6109 58.3001C60.5443 58.3668 60.3776 58.5334 60.1109 58.8001C59.9109 59.0001 59.8109 59.3001 59.8109 59.7001L59.9109 60.0001C59.9109 60.1334 59.8109 60.2001 59.6109 60.2001C59.4109 60.2001 59.3109 60.2668 59.3109 60.4001L59.4109 60.7001C59.4109 60.9668 59.2776 61.2334 59.0109 61.5001C58.7443 61.7668 58.6109 62.0001 58.6109 62.2001V62.4001C58.6109 62.5334 58.5109 62.6001 58.3109 62.6001C58.1109 62.6001 58.0109 62.6668 58.0109 62.8001L57.9109 63.8001C57.6443 64.6668 57.3443 65.1001 57.0109 65.1001H56.7109C56.7109 65.1668 56.7443 65.2334 56.8109 65.3001C56.8776 65.3001 56.9109 65.3334 56.9109 65.4001C56.9109 65.8001 56.7443 66.2668 56.4109 66.8001L55.9109 68.0001H56.0109L55.8109 68.5001C55.1443 69.5668 54.8109 70.3334 54.8109 70.8001C54.8109 71.2001 54.6776 71.5334 54.4109 71.8001L54.0109 73.1001C53.6109 74.3001 53.3443 75.3668 53.2109 76.3001C53.0109 77.7001 52.9109 78.6668 52.9109 79.2001C52.9109 80.0001 53.1109 80.4001 53.5109 80.4001ZM55.5109 86.0001L55.6109 85.9001C55.6109 85.7668 55.3109 85.7001 54.7109 85.7001C54.1109 85.7001 53.8109 85.7668 53.8109 85.9001C53.8109 85.9668 54.3776 86.0001 55.5109 86.0001ZM53.7109 81.6001C53.9776 81.6001 54.2109 81.5668 54.4109 81.5001C54.6109 81.4334 54.7443 81.3668 54.8109 81.3001C54.9443 81.1668 55.0109 81.0668 55.0109 81.0001C55.0109 80.9334 54.9443 80.9001 54.8109 80.9001C54.6109 80.9001 54.2109 81.0334 53.6109 81.3001C53.2776 81.4334 53.1109 81.5334 53.1109 81.6001H53.7109ZM54.4109 87.2001C54.0109 87.2001 53.7109 87.1668 53.5109 87.1001C53.3776 87.0334 53.2109 86.9334 53.0109 86.8001C48.4109 84.1334 45.6443 82.0334 44.7109 80.5001C44.0443 79.3668 43.7109 77.6334 43.7109 75.3001C43.7109 70.9001 45.0443 66.0668 47.7109 60.8001C53.4443 49.6668 59.6109 42.1334 66.2109 38.2001C66.9443 37.8001 67.4776 37.6001 67.8109 37.6001C68.2109 37.6001 68.4776 37.7001 68.6109 37.9001C68.8109 38.0334 68.9443 38.1668 69.0109 38.3001C69.0776 38.3668 69.1443 38.7334 69.2109 39.4001C69.1443 39.4001 69.0776 39.2668 69.0109 39.0001C68.9443 38.4668 68.6443 38.2001 68.1109 38.2001C67.8443 38.2001 67.4776 38.3001 67.0109 38.5001C66.8109 38.5668 66.7109 38.6334 66.7109 38.7001C66.7109 38.9001 67.1109 39.1001 67.9109 39.3001C68.3776 39.4334 68.7443 39.5001 69.0109 39.5001C69.4776 39.5001 69.9109 39.3668 70.3109 39.1001C71.2443 38.3668 72.2443 38.0001 73.3109 38.0001C73.7109 38.0001 74.3443 38.1001 75.2109 38.3001C76.0776 38.4334 76.9776 39.2334 77.9109 40.7001C78.5776 41.7001 79.2776 42.5001 80.0109 43.1001C81.5443 44.7001 82.5109 46.6334 82.9109 48.9001C82.9776 49.2334 83.0109 49.6334 83.0109 50.1001C83.0109 51.8334 82.5776 54.2001 81.7109 57.2001C80.8443 60.2001 79.2109 64.1334 76.8109 69.0001C76.4109 69.6668 76.2109 70.1334 76.2109 70.4001C76.2109 70.6001 76.3109 70.7001 76.5109 70.7001C76.7776 70.7001 77.0776 70.8001 77.4109 71.0001C78.6776 71.7334 79.3109 72.3668 79.3109 72.9001C79.3109 73.0334 79.2443 73.1668 79.1109 73.3001C78.9776 73.4334 78.7443 73.5001 78.4109 73.5001C78.2109 73.5001 77.4443 73.3334 76.1109 73.0001C75.4443 72.8001 74.9776 72.7001 74.7109 72.7001C74.3109 72.7001 74.1109 72.7668 74.1109 72.9001C74.1109 72.9668 74.2109 73.0334 74.4109 73.1001C74.6109 73.1668 74.7776 73.2334 74.9109 73.3001C75.5109 73.5001 76.1109 73.6001 76.7109 73.6001L76.8109 73.8001C76.6109 74.0001 76.0776 74.1001 75.2109 74.1001L74.7109 74.0001C74.0443 74.0001 73.2443 74.6334 72.3109 75.9001C68.7776 80.1668 64.6776 83.4668 60.0109 85.8001C58.0109 86.7334 56.1443 87.2001 54.4109 87.2001Z" fill="#636366"/>
<path d="M8.70156 84.5001C8.76823 84.5001 9.30156 84.1001 10.3016 83.3001C29.1016 68.5001 42.4682 53.2334 50.4016 37.5001C52.6682 32.5668 53.8016 28.7668 53.8016 26.1001C53.8016 24.5001 53.4016 23.3001 52.6016 22.5001C51.4016 21.7668 49.3016 21.3668 46.3016 21.3001C42.7016 21.3001 39.3349 21.5668 36.2016 22.1001L33.3016 22.4001L28.0016 34.4001L25.9016 39.0001C25.1016 40.6001 24.7016 41.5334 24.7016 41.8001L21.9016 48.2001C21.9016 48.4668 21.7016 49.0001 21.3016 49.8001C19.9682 52.4668 18.0016 57.3334 15.4016 64.4001C13.2016 70.2668 11.3016 75.7001 9.70156 80.7001C9.2349 82.2334 8.86823 83.3001 8.60156 83.9001V84.1001C8.60156 84.1668 8.60156 84.2334 8.60156 84.3001C8.60156 84.4334 8.6349 84.5001 8.70156 84.5001ZM57.3016 31.2001C57.3682 31.2001 57.4349 30.8334 57.5016 30.1001L57.6016 29.3001C57.6016 28.3668 57.4349 27.5001 57.1016 26.7001C56.8349 25.8334 56.6682 25.4001 56.6016 25.4001C56.5349 25.4001 56.5016 25.5334 56.5016 25.8001C56.5016 26.2668 56.6016 27.2668 56.8016 28.8001C57.0682 30.2668 57.2349 31.0668 57.3016 31.2001ZM4.60156 89.2001L4.70156 89.0001C4.76823 88.8668 4.80156 88.7334 4.80156 88.6001C4.80156 88.1334 4.7349 87.9001 4.60156 87.9001C4.5349 87.9001 4.50156 88.1001 4.50156 88.5001C4.50156 88.9668 4.5349 89.2001 4.60156 89.2001ZM3.30156 93.1001C2.96823 93.1001 2.46823 92.9334 1.80156 92.6001C1.06823 92.2668 0.601563 91.9334 0.401563 91.6001C0.201563 91.3334 0.101562 91.0001 0.101562 90.6001C0.101562 89.6668 0.468229 87.7334 1.20156 84.8001C3.26823 76.8668 6.30156 67.3334 10.3016 56.2001C14.3682 45.0001 17.9682 36.2001 21.1016 29.8001C22.0349 27.8668 22.5016 26.6668 22.5016 26.2001V26.1001H22.4016C22.1349 26.1001 21.3016 26.6001 19.9016 27.6001C19.1016 28.0668 18.7016 28.5334 18.7016 29.0001C18.7016 29.1334 18.7349 29.2668 18.8016 29.4001C18.8682 29.5334 18.9016 29.6334 18.9016 29.7001C18.9016 29.8334 18.8682 29.9001 18.8016 29.9001C18.6682 29.9001 18.3682 29.7001 17.9016 29.3001C17.4349 28.9001 17.2016 28.4001 17.2016 27.8001L17.3016 27.2001C17.3016 27.0668 17.2682 27.0001 17.2016 27.0001C17.1349 27.0001 16.9682 27.1334 16.7016 27.4001C16.4349 27.6668 16.3016 27.9334 16.3016 28.2001C16.3016 28.4001 16.4016 28.6668 16.6016 29.0001C16.8016 29.2668 16.9016 29.4668 16.9016 29.6001C16.5016 29.6001 15.8682 29.1001 15.0016 28.1001C14.4682 27.6334 14.2016 27.3001 14.2016 27.1001C14.2016 26.9001 14.0016 26.6001 13.6016 26.2001C13.3349 26.2001 13.2016 26.0001 13.2016 25.6001V25.5001C13.3349 25.2334 13.6682 24.8334 14.2016 24.3001C14.8016 23.7001 15.4349 23.1668 16.1016 22.7001C16.7682 22.2334 17.2349 21.9668 17.5016 21.9001C18.1682 21.5668 18.6349 21.2334 18.9016 20.9001C19.2349 20.5668 19.6016 20.4001 20.0016 20.4001L20.2016 20.5001C20.3349 20.5001 20.4349 20.5001 20.5016 20.5001C20.6349 20.4334 20.7016 20.3668 20.7016 20.3001C20.7016 20.1668 20.7349 20.0668 20.8016 20.0001C21.0016 20.0001 21.1682 20.0334 21.3016 20.1001C21.6349 20.1001 21.8016 20.0668 21.8016 20.0001L21.6016 19.5001L22.6016 19.7001L22.5016 19.5001C22.5016 19.1668 23.2016 18.8334 24.6016 18.5001C25.0016 18.4334 25.5016 18.4001 26.1016 18.4001L26.6016 18.6001V18.5001L26.4016 18.3001C26.2682 18.2334 26.2016 18.1668 26.2016 18.1001C26.2016 17.9001 26.6349 17.7334 27.5016 17.6001C28.3682 17.4668 28.8682 17.2334 29.0016 16.9001C29.1349 16.5001 29.2349 16.3001 29.3016 16.3001C29.4349 16.3001 29.5349 16.4001 29.6016 16.6001C29.6682 16.8001 29.8682 16.9001 30.2016 16.9001C30.5349 16.9001 30.9349 16.8334 31.4016 16.7001C31.8682 16.5668 32.3349 16.4334 32.8016 16.3001L34.0016 16.2001C34.0016 16.2668 33.5682 16.4334 32.7016 16.7001C31.9016 16.9668 31.5016 17.1334 31.5016 17.2001L31.8016 17.1001C34.4682 16.8334 37.5349 16.7001 41.0016 16.7001C46.1349 16.7001 49.9682 17.7668 52.5016 19.9001L55.7016 22.1001L54.9016 20.7001C53.2349 17.8334 49.6349 16.3001 44.1016 16.1001C43.0349 15.9668 41.9349 15.9001 40.8016 15.9001C39.6682 15.9001 38.6349 15.9668 37.7016 16.1001C36.7682 16.2334 36.1016 16.3001 35.7016 16.3001C35.3682 16.3001 35.2016 16.2668 35.2016 16.2001L35.4016 16.0001C35.4682 15.9334 36.0682 15.8668 37.2016 15.8001C38.4016 15.6668 39.8349 15.6001 41.5016 15.6001C43.7682 15.6001 45.4682 15.6668 46.6016 15.8001C51.1349 16.3334 54.2016 18.2334 55.8016 21.5001C56.9349 23.7668 57.7349 25.4334 58.2016 26.5001C58.7349 27.5668 59.0349 28.4334 59.1016 29.1001C59.2349 29.7001 59.3016 30.5334 59.3016 31.6001C59.0349 37.8001 55.6349 45.4334 49.1016 54.5001C42.6349 63.5001 33.9682 72.6334 23.1016 81.9001C16.6349 87.3001 12.5682 90.0001 10.9016 90.0001C10.7682 90.0001 10.6349 89.9668 10.5016 89.9001C10.3682 89.8334 10.1016 89.7668 9.70156 89.7001C9.30156 89.6334 8.86823 89.6001 8.40156 89.6001C7.7349 89.6001 7.30156 89.6668 7.10156 89.8001C6.90156 89.9334 6.80156 90.1668 6.80156 90.5001C6.80156 91.2334 6.76823 91.6668 6.70156 91.8001C6.6349 91.9334 6.60156 92.0668 6.60156 92.2001C6.60156 92.4001 6.56823 92.5334 6.50156 92.6001C6.50156 92.7334 6.40156 92.8001 6.20156 92.8001C5.26823 92.8001 4.66823 92.2001 4.40156 91.0001L4.20156 89.6001L4.10156 91.0001C4.10156 92.4001 3.8349 93.1001 3.30156 93.1001Z" fill="#636366"/>
</svg>
