<svg width="833" height="125" viewBox="0 0 833 125" fill="none" xmlns="http://www.w3.org/2000/svg">
<path d="M738.674 124.08C673.874 124.08 660.754 92.5599 660.754 71.2799C660.754 67.5999 660.754 63.5999 661.554 57.8399C664.434 38.3199 674.354 0.879883 747.634 0.879883H754.514C818.834 0.879883 832.594 31.4399 832.594 52.8799C832.594 57.0399 832.434 61.3599 831.794 65.8399C828.754 86.3199 818.994 124.08 745.554 124.08H738.674ZM794.194 56.7199C794.194 43.5999 785.234 29.6799 749.874 29.6799C710.354 29.6799 700.914 47.2799 699.794 60.8799C699.634 62.9599 699.634 64.5599 699.634 66.3199C699.634 79.2799 707.474 95.1199 743.474 95.1199C782.354 95.1199 791.794 77.5199 793.714 63.1199C794.034 60.7199 794.194 58.9599 794.194 56.7199Z" fill="#F8F8F8"/>
<path d="M546.923 53.36H602.283C614.283 53.36 618.923 46.8 618.923 40.4C618.923 34.32 615.403 30 605.643 30H550.763L546.923 53.36ZM542.923 79.76L536.203 122H499.883L518.763 2.95996H613.163C648.043 2.95996 657.963 16.24 657.963 31.76C657.963 50.16 642.283 58.48 631.723 61.52C642.603 64.88 652.043 72.4 649.643 87.76L646.443 107.76C645.163 116.24 646.123 119.28 646.603 121.2L646.443 122H609.483C608.843 120.72 608.363 118.96 609.163 114L611.243 100.88C613.483 86.8 608.203 79.76 589.803 79.76H542.923Z" fill="#F8F8F8"/>
<path d="M383.859 122H347.539L366.419 2.95996H450.419C489.459 2.95996 502.099 17.68 502.099 38.48C502.099 57.68 492.819 82.32 444.659 82.32H390.259L383.859 122ZM394.259 55.6H444.499C457.939 55.6 463.379 49.52 463.379 41.04C463.379 33.84 458.579 30 448.339 30H398.419L394.259 55.6Z" fill="#F8F8F8"/>
<path d="M251.643 124.08C186.843 124.08 173.723 92.5599 173.723 71.2799C173.723 67.5999 173.723 63.5999 174.523 57.8399C177.403 38.3199 187.323 0.879883 260.603 0.879883H267.483C331.803 0.879883 345.563 31.4399 345.563 52.8799C345.563 57.0399 345.403 61.3599 344.763 65.8399C341.723 86.3199 331.963 124.08 258.523 124.08H251.643ZM307.163 56.7199C307.163 43.5999 298.203 29.6799 262.843 29.6799C223.323 29.6799 213.883 47.2799 212.763 60.8799C212.603 62.9599 212.603 64.5599 212.603 66.3199C212.603 79.2799 220.443 95.1199 256.443 95.1199C295.323 95.1199 304.763 77.5199 306.683 63.1199C307.003 60.7199 307.163 58.9599 307.163 56.7199Z" fill="#F8F8F8"/>
<path d="M75.9614 124.08H72.7614C16.1214 124.08 0.441406 93.1999 0.441406 69.0399C0.441406 65.1999 0.601406 61.8399 1.24141 57.5199C4.60141 34.3199 19.4814 0.879883 86.0414 0.879883H91.0014C155.961 0.879883 165.721 29.9999 164.761 46.1599H126.361C125.881 43.2799 123.481 29.1999 87.6414 29.1999C52.6014 29.1999 41.4014 44.7199 39.3214 59.9199C39.0014 62.3199 38.8414 63.9199 38.8414 66.1599C38.8414 81.6799 49.7214 95.1199 79.0014 95.1199C112.121 95.1199 124.601 81.9999 125.561 77.8399H79.8014L83.3214 55.2799H164.761L154.201 122H132.441C132.601 117.52 132.281 108.24 131.001 103.12C125.721 109.36 109.721 124.08 75.9614 124.08Z" fill="#F8F8F8"/>
</svg>
