<svg width="236" height="115" viewBox="0 0 236 115" fill="none" xmlns="http://www.w3.org/2000/svg">
<path d="M200.227 73.9001C200.493 73.9001 201.027 73.8334 201.827 73.7001C202.627 73.5001 203.727 73.2668 205.127 73.0001L214.327 71.2001C215.193 67.0668 216.26 62.5334 217.527 57.6001C220.46 45.8668 222.36 38.5668 223.227 35.7001C223.893 32.8334 224.227 31.2334 224.227 30.9001C224.227 30.7668 224.193 30.7001 224.127 30.7001C224.127 30.7001 224.127 30.6001 224.127 30.4001C224.127 30.1334 224.227 29.6668 224.427 29.0001C224.693 28.2668 225.093 27.3668 225.627 26.3001L226.127 25.0001L226.027 24.9001C225.96 24.9001 225.76 25.2334 225.427 25.9001C225.093 26.5001 224.693 27.3001 224.227 28.3001C223.76 29.2334 223.293 30.0668 222.827 30.8001C222.427 31.4668 222.127 31.8668 221.927 32.0001C221.727 32.1334 221.593 32.2001 221.527 32.2001C221.527 32.0001 221.76 31.6668 222.227 31.2001L222.427 30.7001C221.827 30.7001 219.16 35.0668 214.427 43.8001C213.027 46.6001 212.227 48.1001 212.027 48.3001C211.427 49.1001 208.127 55.7001 202.127 68.1001C200.527 71.5001 199.727 73.3334 199.727 73.6001C199.727 73.8001 199.893 73.9001 200.227 73.9001ZM217.127 79.6001C217.26 79.6001 217.327 79.4334 217.327 79.1001C217.327 79.0334 217.293 78.9334 217.227 78.8001C217.16 78.6668 217.093 78.6001 217.027 78.6001C216.96 78.6001 216.927 78.7668 216.927 79.1001C216.927 79.4334 216.96 79.6001 217.027 79.6001H217.127ZM216.727 81.7001L216.927 81.3001C216.927 81.1668 216.893 81.0334 216.827 80.9001C216.76 80.7001 216.693 80.6001 216.627 80.6001C216.56 80.6001 216.527 80.7668 216.527 81.1001L216.627 81.7001H216.727ZM216.227 84.0001L216.327 83.8001C216.46 83.7334 216.527 83.6001 216.527 83.4001C216.527 83.2668 216.46 83.1334 216.327 83.0001L216.227 82.8001C216.16 82.8001 216.127 83.0001 216.127 83.4001C216.127 83.8001 216.16 84.0001 216.227 84.0001ZM215.827 86.4001C215.96 86.4001 216.027 86.2001 216.027 85.8001L215.927 85.0001H216.027L215.927 84.9001C215.86 84.9001 215.827 85.1668 215.827 85.7001V86.4001ZM210.327 72.8001C210.527 72.8001 210.86 72.7334 211.327 72.6001C211.86 72.4668 212.527 72.4001 213.327 72.4001C213.793 72.4001 214.027 72.3001 214.027 72.1001C214.027 71.9668 213.827 71.9001 213.427 71.9001C212.493 71.9001 211.627 72.0334 210.827 72.3001C210.293 72.5001 210.027 72.6334 210.027 72.7001C210.027 72.7668 210.127 72.8001 210.327 72.8001ZM207.927 73.3001C208.26 73.3001 208.593 73.2668 208.927 73.2001C209.26 73.0668 209.427 72.9334 209.427 72.8001C209.427 72.7334 209.36 72.7001 209.227 72.7001C208.16 72.7001 207.627 72.8668 207.627 73.2001C207.627 73.2668 207.727 73.3001 207.927 73.3001ZM206.627 73.6001L206.727 73.5001C206.66 73.3668 206.527 73.3001 206.327 73.3001C205.927 73.3001 205.727 73.3334 205.727 73.4001C205.727 73.5334 206.027 73.6001 206.627 73.6001ZM229.827 14.9001C230.16 14.9001 230.327 14.8001 230.327 14.6001C230.327 14.2668 230.16 14.1001 229.827 14.1001C229.427 14.1001 229.227 14.2334 229.227 14.5001C229.227 14.6334 229.293 14.7334 229.427 14.8001C229.627 14.8668 229.76 14.9001 229.827 14.9001ZM214.527 96.8001C214.26 96.8001 213.927 96.7001 213.527 96.5001C213.193 96.3001 212.86 96.0001 212.527 95.6001C212.193 95.2668 211.96 95.1001 211.827 95.1001H211.727L211.927 95.8001C211.86 95.8001 211.66 95.6668 211.327 95.4001C211.06 95.2001 210.927 94.6334 210.927 93.7001C210.927 93.1668 210.96 92.4001 211.027 91.4001C211.093 90.4668 211.227 89.2001 211.427 87.6001C211.627 86.0001 211.827 84.5001 212.027 83.1001C212.293 81.6334 212.493 80.4334 212.627 79.5001C212.76 78.5001 212.827 77.9668 212.827 77.9001C212.227 77.9001 209.527 78.4668 204.727 79.6001C199.327 80.8668 196.493 81.7001 196.227 82.1001C195.56 82.9668 194.893 84.5001 194.227 86.7001C192.293 91.8334 190.927 94.4001 190.127 94.4001C189.993 94.4001 189.927 94.4668 189.927 94.6001V94.8001C189.927 94.9334 189.86 95.1001 189.727 95.3001C189.593 95.5668 189.36 95.7001 189.027 95.7001C188.96 95.7001 188.893 95.6668 188.827 95.6001L188.727 95.5001C188.66 95.5001 188.627 95.5001 188.627 95.5001C188.627 95.5668 188.627 95.6334 188.627 95.7001L188.727 96.1001C188.727 96.1668 188.693 96.2668 188.627 96.4001C188.493 96.5334 188.327 96.6001 188.127 96.6001C187.793 96.6001 187.427 96.1334 187.027 95.2001C186.627 94.3334 186.427 93.2668 186.427 92.0001C186.427 90.4668 186.76 88.7001 187.427 86.7001C187.827 85.3001 188.027 84.4334 188.027 84.1001V84.0001L184.427 85.0001C183.027 85.4001 182.127 85.6001 181.727 85.6001C181.46 85.6001 181.193 85.4334 180.927 85.1001C180.593 84.7668 180.127 84.6001 179.527 84.6001C178.927 84.6001 178.16 84.1334 177.227 83.2001C176.56 82.5334 176.227 82.0668 176.227 81.8001C176.227 81.7334 176.26 81.7001 176.327 81.7001C176.727 81.7001 177.127 81.4334 177.527 80.9001C177.993 80.5668 179.393 80.0001 181.727 79.2001C184.86 78.1334 188.093 77.1668 191.427 76.3001C195.96 65.3668 201.027 54.5334 206.627 43.8001C213.293 31.0668 218.76 22.0668 223.027 16.8001C225.293 14.0001 226.693 12.6001 227.227 12.6001C227.293 12.6001 227.327 12.6334 227.327 12.7001C227.327 12.9001 227.127 13.2001 226.727 13.6001C226.327 13.9334 226.127 14.1668 226.127 14.3001C226.127 14.3668 226.16 14.4001 226.227 14.4001C226.36 14.3334 226.527 14.3001 226.727 14.3001C226.993 14.4334 227.227 14.5334 227.427 14.6001C227.693 14.6668 227.893 14.7001 228.027 14.7001C228.36 14.7001 228.727 14.5001 229.127 14.1001C229.593 13.7001 229.96 13.5001 230.227 13.5001C230.56 13.5001 230.727 13.8001 230.727 14.4001C230.727 14.6668 230.86 14.9668 231.127 15.3001C231.393 15.6334 231.66 15.8668 231.927 16.0001C232.26 16.1334 232.527 16.2001 232.727 16.2001H233.227L233.727 16.3001C234.993 16.9001 235.627 17.9668 235.627 19.5001C235.627 20.7001 235.327 22.2001 234.727 24.0001C234.127 26.1334 233.793 27.4001 233.727 27.8001C233.66 28.2001 233.36 29.2668 232.827 31.0001L226.027 53.7001C222.76 65.3668 221.127 71.9334 221.127 73.4001V73.6001C221.46 73.9334 221.827 74.1001 222.227 74.1001C222.627 74.1001 222.993 74.2334 223.327 74.5001C223.86 75.1001 224.127 75.6001 224.127 76.0001C224.127 76.1334 224.093 76.2334 224.027 76.3001L223.927 76.4001C223.86 76.4001 223.827 76.3334 223.827 76.2001C223.827 76.0001 223.46 75.9001 222.727 75.9001L220.227 76.2001L218.827 83.7001C218.16 87.4334 217.793 89.6334 217.727 90.3001C217.527 91.2334 217.393 92.8668 217.327 95.2001C217.26 95.8668 217.193 96.2001 217.127 96.2001L216.927 96.1001C216.727 96.0334 216.46 95.9668 216.127 95.9001C215.86 95.8334 215.66 95.7001 215.527 95.5001C215.393 95.3001 215.327 94.8668 215.327 94.2001L215.427 90.3001L215.627 87.2001L215.527 87.0001C215.46 87.1334 215.36 87.5668 215.227 88.3001C215.093 89.1001 214.96 90.1334 214.827 91.4001C214.693 92.7334 214.627 93.7334 214.627 94.4001C214.627 95.0668 214.693 95.4668 214.827 95.6001C215.16 95.9334 215.327 96.2001 215.327 96.4001C215.327 96.6668 215.06 96.8001 214.527 96.8001Z" fill="#B3B3B3"/>
<path d="M119.202 40.4C119.336 40.4 119.502 40.3 119.702 40.1C119.969 39.8334 120.102 39.5667 120.102 39.3C120.102 39.1667 120.036 39.1 119.902 39.1C119.836 39.1 119.702 39.1667 119.502 39.3C119.369 39.4334 119.202 39.6 119.002 39.8C118.869 39.9334 118.802 40.0667 118.802 40.2C118.802 40.3334 118.936 40.4 119.202 40.4ZM150.802 73.5L150.602 73.4001C150.602 73.2667 150.636 73.1334 150.702 73C150.836 72.8 151.036 72.7 151.302 72.7C151.436 72.7 151.536 72.7334 151.602 72.8001L151.402 73.1C151.336 73.3667 151.136 73.5 150.802 73.5ZM103.002 84.2C103.136 84.2 103.302 84.1334 103.502 84C103.702 83.8667 103.836 83.7667 103.902 83.7C103.902 83.6334 103.869 83.5334 103.802 83.4001C103.736 83.2667 103.569 83.2 103.302 83.2C103.169 83.2 102.969 83.2667 102.702 83.4001C102.502 83.5334 102.402 83.6334 102.402 83.7L102.502 83.9001C102.636 84.1001 102.802 84.2 103.002 84.2ZM147.602 42.9C147.669 42.9 147.769 42.8 147.902 42.6C148.036 42.4 148.102 42.2334 148.102 42.1C148.102 41.7667 147.902 41.4 147.502 41C147.102 40.6 146.502 40.4 145.702 40.4H144.402C146.136 41.3334 147.102 42.0667 147.302 42.6C147.369 42.8 147.436 42.9 147.502 42.9H147.602ZM116.002 112.9C116.069 112.9 116.169 112.833 116.302 112.7C116.436 112.567 116.502 112.4 116.502 112.2C116.502 112.133 116.436 112.1 116.302 112.1C116.036 112.1 115.869 112.233 115.802 112.5C115.802 112.767 115.869 112.9 116.002 112.9ZM116.302 114.1C115.969 114.1 115.602 114.033 115.202 113.9C114.869 113.767 114.636 113.567 114.502 113.3C114.302 113.167 113.969 112.9 113.502 112.5C113.102 112.1 112.636 111.7 112.102 111.3C110.769 110.367 110.102 109.567 110.102 108.9C110.102 107.367 111.969 104.567 115.702 100.5C119.436 96.4334 123.602 92.6667 128.202 89.2C131.536 86.6667 133.636 84.6334 134.502 83.1C138.102 77.0334 141.002 70.9334 143.202 64.8C145.469 58.6 146.602 53.5667 146.602 49.7V47.8C146.536 47.4 146.469 47.1667 146.402 47.1C145.402 47.1 140.669 51.5 132.202 60.3C127.202 65.5667 123.236 69.7 120.302 72.7C115.169 77.8334 110.902 81.4667 107.502 83.6C105.969 84.6667 104.736 85.2 103.802 85.2C102.869 85.2 101.869 84.6667 100.802 83.6L99.2023 82.2C97.469 80.8 96.5357 79.7667 96.4023 79.1V77.5C96.469 77.3 96.5023 77.0334 96.5023 76.7C97.1023 70.6334 100.769 62.5 107.502 52.3C111.502 46.3 114.769 42.2667 117.302 40.2C118.502 39.2667 119.336 38.8 119.802 38.8C120.202 38.8 120.402 39.1 120.402 39.7V40.3C120.402 41.4334 120.736 42 121.402 42C121.536 42 121.702 41.9667 121.902 41.9C122.102 41.8334 122.402 41.8 122.802 41.8C122.936 41.8667 123.202 42.1334 123.602 42.6C124.069 43.0667 124.302 43.5667 124.302 44.1C124.302 44.8334 123.902 45.6 123.102 46.4L122.202 47.4L122.802 45.4C121.669 46.5334 120.602 47.8 119.602 49.2C117.069 52.8 115.369 55.5 114.502 57.3L113.202 59.6C111.669 62.2 109.836 65.8334 107.702 70.5C106.502 72.9001 105.902 74.2334 105.902 74.5C105.902 74.5667 105.969 74.6 106.102 74.6C106.236 74.6 106.669 74.3334 107.402 73.8001C108.136 73.2001 109.769 71.6667 112.302 69.2C114.836 66.6667 118.369 63.0667 122.902 58.4C127.036 54.1334 130.269 50.8667 132.602 48.6C134.936 46.2667 136.802 44.5667 138.202 43.5C139.602 42.4334 140.969 41.5 142.302 40.7C143.702 39.9 144.836 39.5 145.702 39.5C146.636 39.5 147.402 39.9334 148.002 40.8C148.736 41.5334 149.102 42.0667 149.102 42.4C149.102 42.7334 149.536 43.4 150.402 44.4C151.336 45.4 152.002 46.5334 152.402 47.8C152.869 49.0667 153.102 50.7667 153.102 52.9V55.5C153.102 56.9 152.836 58.9001 152.302 61.5C151.769 64.1 151.169 66.3667 150.502 68.3001C150.102 69.2334 149.902 70.4667 149.902 72L150.002 72.9001C150.002 73.2334 149.902 73.5 149.702 73.7C149.502 73.9 149.402 74.1001 149.402 74.3001C149.402 74.5001 149.502 74.6 149.702 74.6C150.102 74.6 150.669 74.2334 151.402 73.5C151.802 73.1 152.069 72.8667 152.202 72.8001C153.669 71.7334 154.902 71.2 155.902 71.2C156.236 71.2 156.569 71.3334 156.902 71.6C157.302 71.8 157.636 72.1 157.902 72.5C158.169 72.9001 158.402 73.1334 158.602 73.2C158.802 73.2667 159.002 73.4667 159.202 73.8001C159.402 74.1334 159.502 74.5 159.502 74.9001C159.502 75.3667 159.402 75.6667 159.202 75.8001C157.402 76.8667 155.702 78.0334 154.102 79.3001C152.569 80.5001 151.036 81.6 149.502 82.6C145.636 85 143.236 86.6001 142.302 87.4001C141.369 88.2667 140.436 89.4334 139.502 90.9001C135.702 96.5667 131.369 101.833 126.502 106.7C121.636 111.633 118.236 114.1 116.302 114.1Z" fill="#B3B3B3"/>
<path d="M90.3445 99.1C90.4779 99.1 90.6112 98.9667 90.7445 98.7C90.9445 98.5 91.0445 98.2667 91.0445 98L90.9445 97.9C90.8779 97.9 90.7779 97.9333 90.6445 98C90.5112 98.0667 90.3779 98.1667 90.2445 98.3C90.1112 98.5 90.0445 98.7 90.0445 98.9C90.0445 99.0333 90.1445 99.1 90.3445 99.1ZM90.5445 99.8C89.9445 99.8 89.0779 99.6333 87.9445 99.3L84.8445 98.3C84.0445 98.1667 83.4445 97.8333 83.0445 97.3C82.6445 96.8333 82.3779 95.9667 82.2445 94.7C82.1779 93.8333 82.1445 91.9333 82.1445 89C82.1445 82.2 83.2779 75.2 85.5445 68C87.8779 60.2667 91.4779 50.8 96.3445 39.6C101.278 28.3333 105.845 19.1667 110.045 12.1C111.911 8.83333 112.945 6.9 113.145 6.3C113.411 5.83333 113.878 5.13333 114.545 4.2C116.411 1.73333 117.578 0.5 118.045 0.5C118.178 0.5 118.311 0.600001 118.445 0.800002C118.778 1.73334 119.111 2.2 119.445 2.2C119.778 2.2 120.111 2.5 120.445 3.1C120.778 3.63333 121.045 3.9 121.245 3.9C121.445 3.9 121.745 4.03333 122.145 4.3C122.545 4.56667 123.311 5.3 124.445 6.5C123.311 8.16667 122.178 9.83333 121.045 11.5C119.978 13.1667 118.878 15.0333 117.745 17.1C114.811 22.1667 113.345 25.1333 113.345 26C113.345 26.2667 113.278 26.4333 113.145 26.5C113.011 26.5 112.778 26.8 112.445 27.4C112.445 27.6 112.411 27.7333 112.345 27.8V28.3C112.345 28.5 112.111 28.9 111.645 29.5C110.645 31.1 110.145 32.3333 110.145 33.2H109.745C109.545 33.2 109.445 33.6667 109.445 34.6H109.545V34.7C109.478 34.7667 109.411 34.8 109.345 34.8C108.678 35.4 108.178 36.2667 107.845 37.4C107.711 37.7333 107.645 38.0667 107.645 38.4C107.711 38.4 107.745 38.4333 107.745 38.5V38.6C107.678 38.6667 107.545 38.7 107.345 38.7C107.211 38.7 107.145 38.7667 107.145 38.9L107.345 39.3C107.278 39.3667 107.178 39.4 107.045 39.4C106.911 39.4 106.745 39.6 106.545 40C106.411 40.3333 106.311 40.7333 106.245 41.2C106.178 41.6 106.145 41.9333 106.145 42.2C106.211 42.2 106.245 42.2333 106.245 42.3L105.945 42.2C105.811 42.2 105.678 42.3333 105.545 42.6C105.078 43.2 104.711 43.9333 104.445 44.8V45.5L104.545 45.7C104.545 45.9 104.445 46 104.245 46C104.111 46 104.011 46.0333 103.945 46.1V46.3C103.945 46.5667 103.878 46.7333 103.745 46.8C103.678 46.8667 103.578 47 103.445 47.2C103.378 47.4 103.311 47.7 103.245 48.1C103.245 48.5 103.145 48.7 102.945 48.7C102.811 48.7 102.745 48.7333 102.745 48.8C102.745 48.8667 102.745 48.9333 102.745 49L102.845 49.5C102.845 49.6333 102.745 49.7 102.545 49.7C102.411 49.7 102.345 49.7667 102.345 49.9C102.345 49.9667 102.345 50.0333 102.345 50.1L102.445 50.5C102.445 50.7667 102.245 50.9 101.845 50.9L101.945 51.2C101.945 51.4 101.778 51.7 101.445 52.1C101.111 52.4333 100.945 53.2 100.945 54.4C101.011 54.4 101.045 54.4333 101.045 54.5L100.845 54.6C100.511 54.9333 100.311 55.1333 100.245 55.2C100.245 55.2667 100.178 55.6 100.045 56.2C99.9112 56.7333 99.7779 57 99.6445 57C99.5112 57 99.4445 57.0667 99.4445 57.2L99.5445 57.6C99.5445 57.6667 99.4779 57.7 99.3445 57.7C99.1445 57.9 98.9779 58.3333 98.8445 59C98.7112 59.6 98.5779 59.9667 98.4445 60.1C98.3112 60.2333 98.2112 60.4 98.1445 60.6C97.9445 61.2 97.8445 61.7333 97.8445 62.2C97.7779 62.4 97.7112 62.5333 97.6445 62.6C97.6445 62.6667 97.5779 62.7667 97.4445 62.9C97.4445 63.3 97.3779 63.5667 97.2445 63.7V64.3C97.2445 64.5 97.1445 64.6 96.9445 64.6C96.7445 64.6 96.6445 64.6667 96.6445 64.8C96.6445 64.8667 96.6445 64.9333 96.6445 65L96.7445 65.4C96.7445 65.6667 96.6445 65.9 96.4445 66.1C96.2445 66.3 96.1445 66.4333 96.1445 66.5C96.1445 66.5667 96.1779 66.6 96.2445 66.6C96.3779 66.6 96.4445 66.6333 96.4445 66.7L96.1445 67.1C95.8779 67.2333 95.6779 67.6667 95.5445 68.4C95.5445 69.1333 95.4445 69.5 95.2445 69.5C95.0445 69.5 94.9445 69.7667 94.9445 70.3L95.0445 70.7C95.0445 71.0333 95.0112 71.2 94.9445 71.2C94.6112 71.4 94.2779 72.2667 93.9445 73.8C93.6112 75 93.4445 75.8667 93.4445 76.4V76.9C93.4445 77.0333 93.3779 77.1 93.2445 77.1C93.1112 77.1 93.0112 77.2 92.9445 77.4V78L93.0445 78.3C93.0445 78.4333 93.0112 78.5667 92.9445 78.7C92.9445 78.8333 92.8779 78.9333 92.7445 79C92.6779 79 92.5445 79.3 92.3445 79.9C92.2112 80.4333 92.0779 81.1 91.9445 81.9C91.8779 82.7 91.8445 83.4 91.8445 84C91.8445 84.6 91.7779 84.9 91.6445 84.9C91.5112 84.9 91.3779 85.0667 91.2445 85.4C91.2445 86.8 91.1445 88.4667 90.9445 90.4L90.6445 95L91.9445 95.4C92.8779 95.8 93.3445 96.2667 93.3445 96.8C93.3445 97.1333 93.1779 97.4333 92.8445 97.7C92.5779 98.0333 92.2445 98.5667 91.8445 99.3C91.6445 99.6333 91.2112 99.8 90.5445 99.8Z" fill="#B3B3B3"/>
<path d="M79.7492 72.6C79.6159 72.6 79.5492 72.5667 79.5492 72.5C79.5492 72.4334 79.6492 72.3 79.8492 72.1C80.0492 71.9 80.2492 71.8 80.4492 71.8L80.5492 71.9001C80.5492 71.9667 80.4826 72.1001 80.3492 72.3001C80.2826 72.5001 80.0826 72.6 79.7492 72.6ZM41.0492 86C41.1826 85.8667 41.2492 85.7334 41.2492 85.6C41.2492 85.2667 41.1826 85.1 41.0492 85.1C40.9159 85.1 40.8492 85.2334 40.8492 85.5C40.8492 85.8334 40.8826 86 40.9492 86H41.0492ZM77.7492 40C77.8826 39.8667 78.0159 39.5667 78.1492 39.1C78.1492 38.9667 78.0826 38.8667 77.9492 38.8C77.8159 38.8 77.5492 38.9 77.1492 39.1C76.8159 39.3 76.6492 39.4667 76.6492 39.6C76.6492 39.8667 76.9492 40 77.5492 40H77.7492ZM43.5492 88.1C43.4159 88.1 42.8826 87.8 41.9492 87.2V87.4001C41.4826 87.1334 41.1492 86.9 40.9492 86.7C40.6826 86.5 40.5492 86.2001 40.5492 85.8001C40.4826 85.4001 40.4492 84.8 40.4492 84C40.7159 78.2667 43.0826 69.6 47.5492 58C50.4159 50.6 52.6826 45.8 54.3492 43.6C55.2159 42.6 55.9826 42.1 56.6492 42.1C57.1826 42.1 57.7826 42.2667 58.4492 42.6C59.7826 43.3334 61.1826 43.8667 62.6492 44.2L64.1492 44.6L63.6492 45.4C63.3159 46.1334 62.9159 46.9 62.4492 47.7001C62.0492 48.5 61.7826 49.0667 61.6492 49.4C61.5826 49.7334 61.4159 50.2667 61.1492 51C60.8826 51.6667 60.5826 52.4 60.2492 53.2C59.7159 54.4667 59.2159 55.6334 58.7492 56.7001C58.3492 57.7001 58.1492 58.3667 58.1492 58.7L58.2492 58.8C58.2492 58.9334 58.1159 59 57.8492 59C57.6492 59 57.5492 59.0667 57.5492 59.2001V59.3L56.9492 61C56.5492 61.8 56.3492 62.2667 56.3492 62.4C56.5492 62.4 57.5826 61.0667 59.4492 58.4C59.9826 57.7334 60.4826 57.0334 60.9492 56.3C61.1492 56.1 61.3159 55.8667 61.4492 55.6C63.7159 52.5334 66.0826 49.8 68.5492 47.4C71.2826 44.6667 73.0492 42.7667 73.8492 41.7001C75.3825 39.4334 76.6826 38.3 77.7492 38.3C78.4159 38.3 78.7492 38.8334 78.7492 39.9L78.8492 40.5C78.9159 41.0334 79.3825 41.3 80.2492 41.3L80.5492 41.2C81.0826 41.2 81.6826 41.5667 82.3492 42.3C83.0159 42.9667 83.3492 43.5667 83.3492 44.1C83.3492 45.8334 82.4492 50.1334 80.6492 57C80.3826 57.8667 79.7492 60.4334 78.7492 64.7001C78.1492 67.3667 77.8159 69.7 77.7492 71.7C77.7492 73.1 77.9159 73.8001 78.2492 73.8001C78.4492 73.8001 78.6826 73.7334 78.9492 73.6C79.2159 73.4667 79.4826 73.3667 79.7492 73.3C80.4159 73.1667 80.8492 72.9001 81.0492 72.5C81.0492 72.4334 81.1826 72.3334 81.4492 72.2C82.3826 71.9334 83.3159 71.6 84.2492 71.2C84.6492 71 84.9492 70.9001 85.1492 70.9001C85.3492 70.9667 85.6159 71.1667 85.9492 71.5C86.2826 71.8334 86.5826 72.0667 86.8492 72.2C87.1159 72.2667 87.3492 72.3001 87.5492 72.3001C87.8159 72.3001 88.0159 72.3334 88.1492 72.4001C87.9492 72.7334 87.5826 73.1 87.0492 73.5C87.5159 73.5 87.7492 73.6334 87.7492 73.9001C87.7492 74.0334 87.6492 74.1667 87.4492 74.3001C86.8492 74.6334 86.3159 74.9667 85.8492 75.3001C84.6492 76.1001 83.5492 76.7 82.5492 77.1C81.5492 77.5 80.3492 77.7 78.9492 77.7C77.2826 77.7 75.7492 77.3334 74.3492 76.6C72.9492 75.8 72.0159 74.9001 71.5492 73.9001C71.0826 72.9001 70.8492 71.5 70.8492 69.7C70.8492 66.5 71.5159 61.9667 72.8492 56.1C72.9159 55.7667 73.0159 55.2334 73.1492 54.5C73.3492 53.7667 73.5159 53.0334 73.6492 52.3C73.8492 51.5667 73.9492 51.1 73.9492 50.9C73.3492 50.9 70.9492 53.7667 66.7492 59.5C62.8826 64.8334 60.3826 68.4334 59.2492 70.3C52.7826 80.1 49.0492 85.5667 48.0492 86.7C47.3826 87.4334 46.9159 87.8001 46.6492 87.8001C46.4492 87.8001 46.2826 87.7334 46.1492 87.6C46.0159 87.5334 45.8492 87.5 45.6492 87.5C45.3826 87.5 45.0826 87.5667 44.7492 87.7C44.3492 87.8334 44.0492 87.9334 43.8492 88L43.5492 88.1ZM81.3492 71.6H81.1492L82.1492 70.9001V71.1C82.1492 71.1667 82.0159 71.2667 81.7492 71.4001L81.3492 71.6Z" fill="#B3B3B3"/>
<path d="M11.9984 85.7001C12.3318 85.6334 13.2984 85.2334 14.8984 84.5001C17.6984 82.8334 20.8984 80.0334 24.4984 76.1001C28.0984 72.1668 31.0984 68.1334 33.4984 64.0001C37.4984 56.8668 40.4984 49.8001 42.4984 42.8001C43.8984 37.8001 44.5984 33.5001 44.5984 29.9001C44.5984 28.5001 44.4984 27.2334 44.2984 26.1001C44.1651 25.2334 43.9651 24.6334 43.6984 24.3001C43.4984 23.9668 43.0651 23.7668 42.3984 23.7001C41.7984 23.5668 41.0318 23.5001 40.0984 23.5001C37.6318 23.6334 36.3318 23.9668 36.1984 24.5001C36.1984 24.7668 35.8318 25.5001 35.0984 26.7001C34.3651 27.9001 33.9984 28.6001 33.9984 28.8001C33.7318 29.5334 33.4984 29.9001 33.2984 29.9001C33.2318 29.9001 33.1984 29.8668 33.1984 29.8001C33.1984 29.6668 33.1984 29.5668 33.1984 29.5001L33.3984 28.1001C33.2651 28.1668 32.5984 29.0668 31.3984 30.8001C31.8651 29.0668 32.4318 27.5668 33.0984 26.3001C33.2984 25.9001 33.4318 25.5668 33.4984 25.3001C33.4984 25.1668 33.4651 25.1001 33.3984 25.1001C33.1984 25.1001 32.7318 25.9334 31.9984 27.6001C31.2651 29.2668 30.6651 30.3668 30.1984 30.9001L29.4984 31.7001L29.5984 31.1001C29.3318 31.1001 28.4984 32.4334 27.0984 35.1001C26.5651 36.0334 26.0651 36.9334 25.5984 37.8001C25.1984 38.6001 24.8984 39.1334 24.6984 39.4001C22.4984 43.4668 20.7984 47.0334 19.5984 50.1001C18.9984 51.5001 18.6984 52.3668 18.6984 52.7001V52.8001C18.6984 52.9334 18.6651 53.0334 18.5984 53.1001C18.5984 53.1668 18.5318 53.2001 18.3984 53.2001C17.8651 54.0001 17.2984 55.2001 16.6984 56.8001C16.1651 58.3334 15.8984 59.2668 15.8984 59.6001C15.8984 59.6668 15.8984 59.7001 15.8984 59.7001H15.9984L15.8984 59.8001C15.2984 60.2668 14.9984 60.8668 14.9984 61.6001C14.8651 62.2668 14.7318 62.6001 14.5984 62.6001C14.5318 62.6001 14.4318 62.7668 14.2984 63.1001C14.0318 63.8334 13.7651 64.8001 13.4984 66.0001L13.1984 67.3001C13.1318 67.4334 13.0984 67.6668 13.0984 68.0001C13.0984 68.2668 12.9984 68.4001 12.7984 68.4001C12.5984 68.4001 12.3318 68.9334 11.9984 70.0001C11.7984 71.4001 11.5984 72.4334 11.3984 73.1001C10.9984 74.9001 10.6984 76.3334 10.4984 77.4001C10.3651 78.4001 10.2984 79.6001 10.2984 81.0001C10.2984 82.9334 10.3651 84.2001 10.4984 84.8001C10.6318 85.4001 10.8984 85.7001 11.2984 85.7001H11.9984ZM25.2984 20.5001C25.3651 20.5001 25.4984 20.4668 25.6984 20.4001C25.9651 20.2668 26.1651 20.1001 26.2984 19.9001C26.2984 19.8334 26.2651 19.8001 26.1984 19.8001C26.1318 19.7334 26.0318 19.7001 25.8984 19.7001C25.7651 19.7668 25.5984 19.9001 25.3984 20.1001C25.2651 20.2334 25.1984 20.3334 25.1984 20.4001V20.5001C25.1984 20.5001 25.2318 20.5001 25.2984 20.5001ZM30.9984 16.8001C31.1318 16.8001 31.3651 16.7668 31.6984 16.7001C32.0318 16.5668 32.1984 16.4334 32.1984 16.3001C32.1984 16.1668 32.0984 16.0668 31.8984 16.0001C31.5651 16.0001 31.2984 16.1334 31.0984 16.4001C30.9651 16.6001 30.8984 16.7334 30.8984 16.8001H30.9984ZM33.9984 27.3001C34.3318 27.0334 34.4984 26.7001 34.4984 26.3001C34.4984 26.1668 34.4651 26.1001 34.3984 26.1001C34.3984 26.0334 34.3651 26.0001 34.2984 26.0001L34.0984 26.1001C33.7651 26.3668 33.5984 26.7001 33.5984 27.1001C33.5984 27.2334 33.7318 27.3001 33.9984 27.3001ZM42.0984 22.6001C42.5651 22.6001 42.7984 22.5668 42.7984 22.5001C42.7984 22.4334 42.7318 22.3668 42.5984 22.3001C42.5318 22.2334 42.3984 22.2001 42.1984 22.2001C41.9984 22.2001 41.8318 22.2334 41.6984 22.3001C41.5651 22.3668 41.4984 22.4334 41.4984 22.5001C41.4984 22.5668 41.6984 22.6001 42.0984 22.6001ZM44.3984 20.1001C44.5318 20.1001 44.5984 20.0334 44.5984 19.9001L44.1984 19.1001C43.0651 17.4334 41.0318 16.6001 38.0984 16.6001C36.4318 16.6001 35.1318 16.7001 34.1984 16.9001C33.2651 17.0334 32.7984 17.2001 32.7984 17.4001C32.7984 17.6001 33.5984 17.7001 35.1984 17.7001L36.3984 17.6001C37.8651 17.6001 39.3984 18.0334 40.9984 18.9001C42.2651 19.3668 43.0984 19.7001 43.4984 19.9001C43.9651 20.0334 44.2651 20.1001 44.3984 20.1001ZM48.8984 30.0001L48.7984 28.4001C48.7318 27.8668 48.5651 27.2334 48.2984 26.5001C47.6984 24.7668 47.1984 23.9001 46.7984 23.9001V24.0001C46.7984 24.2668 47.0984 25.3334 47.6984 27.2001C48.3651 29.0668 48.7651 30.0001 48.8984 30.0001ZM46.7984 45.0001L47.0984 44.0001C47.2984 43.3334 47.4984 42.4668 47.6984 41.4001C47.9651 40.3334 48.1984 39.1668 48.3984 37.9001C48.5984 36.6334 48.7651 35.4334 48.8984 34.3001C49.0318 33.1668 49.0984 32.2668 49.0984 31.6001C49.0984 31.1334 49.0651 30.9001 48.9984 30.9001L48.8984 31.0001C48.4984 32.0001 48.2984 33.3001 48.2984 34.9001L47.9984 38.0001C47.6651 40.1334 47.2984 41.9001 46.8984 43.3001C46.7651 43.9001 46.6984 44.3668 46.6984 44.7001C46.6984 44.9001 46.7318 45.0001 46.7984 45.0001ZM12.0984 87.3001C12.6984 87.3001 13.9984 86.6668 15.9984 85.4001L17.7984 84.2001C18.1318 83.9334 18.3651 83.7001 18.4984 83.5001C18.0984 83.5001 17.2984 83.8668 16.0984 84.6001C14.8984 85.4001 13.6984 86.0001 12.4984 86.4001C11.7651 86.5334 11.3984 86.7001 11.3984 86.9001L11.5984 87.1001C11.6651 87.2334 11.8318 87.3001 12.0984 87.3001ZM13.0984 92.0001C13.2984 92.0001 13.5651 91.9668 13.8984 91.9001C14.2984 91.8334 14.6984 91.7334 15.0984 91.6001C15.4984 91.5334 15.6984 91.5001 15.6984 91.5001C15.7651 91.5001 15.7984 91.4668 15.7984 91.4001C15.7984 91.3334 15.5318 91.3001 14.9984 91.3001C14.1984 91.3001 13.6318 91.4001 13.2984 91.6001C13.0318 91.8001 12.8984 91.9334 12.8984 92.0001H13.0984ZM15.0984 93.1001H14.3984C12.5318 93.1001 10.4651 92.4334 8.19844 91.1001C5.13177 89.3668 3.09844 87.5668 2.09844 85.7001C1.29844 84.1001 0.898438 81.8668 0.898438 79.0001C0.898438 75.0668 1.49844 70.9668 2.69844 66.7001C4.43177 60.3001 7.29844 53.0334 11.2984 44.9001C12.9651 41.5668 15.0318 37.6334 17.4984 33.1001C17.0318 32.6334 16.5651 32.2334 16.0984 31.9001C15.6984 31.5001 15.3651 31.1334 15.0984 30.8001C14.8984 30.4001 14.7984 30.0668 14.7984 29.8001C14.7984 29.4668 15.0318 28.9334 15.4984 28.2001C16.8984 26.0001 18.4984 24.1668 20.2984 22.7001C21.2984 21.8334 22.7318 20.8668 24.5984 19.8001C28.0651 17.6001 30.0318 16.2668 30.4984 15.8001C30.9651 15.3334 31.3651 15.1001 31.6984 15.1001C31.8984 15.1001 32.0984 15.2001 32.2984 15.4001C33.0984 15.6001 34.6651 15.7001 36.9984 15.7001C38.6651 15.7001 39.8984 15.8001 40.6984 16.0001C41.5651 16.2001 42.4318 16.7668 43.2984 17.7001C44.2318 18.5668 45.4318 19.9668 46.8984 21.9001C48.4318 23.8334 49.4651 25.2668 49.9984 26.2001C50.8651 27.8001 51.2984 30.1668 51.2984 33.3001C51.2984 37.7668 50.1984 43.5334 47.9984 50.6001C45.7984 57.6001 42.1984 65.0334 37.1984 72.9001C35.3984 75.5001 32.9318 78.6001 29.7984 82.2001C26.6651 85.8001 24.1984 88.3001 22.3984 89.7001C19.5318 91.7668 17.0984 92.9001 15.0984 93.1001Z" fill="#B3B3B3"/>
</svg>
