<svg width="1448" height="917" viewBox="0 0 1448 917" fill="none" xmlns="http://www.w3.org/2000/svg">
<g clip-path="url(#clip0_748_13298)">
<path d="M790.718 1.5C853.118 1.5 867.518 21.7 867.518 41.6C867.518 61.5 858.918 82.1 808.018 88.8C796.318 90.3 776.318 93 765.418 94.8C731.818 100 727.818 109.2 727.618 113H815.818L818.718 94.6H861.318L853.018 146.8H683.218L685.718 130.7C689.018 110 694.918 76.4 759.618 64.1C770.918 62 791.118 58.3 799.318 57C818.718 53.4 820.818 49.7 820.818 44.9C820.818 40.1 817.218 34.5 786.618 34.5C751.318 34.5 747.018 47.6 745.718 54.5H700.118L700.318 52.6C702.418 34.7 712.618 1.5 783.218 1.5H790.718ZM790.718 0H783.218C731.298 0 702.908 17.64 698.828 52.43L698.628 54.35L698.458 56.01H746.968L747.198 54.79C748.718 46.73 754.458 36.01 786.628 36.01C815.608 36.01 819.328 40.77 819.328 44.91C819.328 47.97 819.328 51.77 799.058 55.54C789.388 57.07 764.288 61.72 759.358 62.64C730.468 68.13 710.558 78.17 698.488 93.33C688.098 106.38 685.788 120.88 684.258 130.48L681.758 146.59L681.488 148.32H854.318L854.518 147.06L862.818 94.86L863.098 93.12H817.458L817.258 94.39L814.558 111.52H729.488C730.868 107.85 737.318 100.69 765.668 96.3C777.168 94.4 797.828 91.64 808.228 90.31C832.018 87.18 848.268 81.04 857.928 71.54C867.888 61.74 869.038 49.77 869.038 41.62C869.038 14.02 842.698 0.02 790.738 0.02L790.718 0Z" fill="#1C1C1E"/>
<path d="M982.92 1.6001C1055.72 1.6001 1072.82 38.3001 1072.82 64.0001C1072.72 69.1001 1072.52 74.5001 1071.62 80.3001C1067.42 105.1 1054.92 149.4 972.02 149.4H963.72C890.02 149.4 873.82 111.6 873.82 86.0001C873.82 81.8001 873.82 77.2001 874.82 70.3001C878.12 46.1001 891.52 1.6001 974.82 1.6001H982.92ZM969.52 114.7C1012.52 114.7 1023.62 93.8001 1026.12 76.5001C1026.52 73.8001 1026.72 71.3001 1026.72 68.6001C1026.62 52.8001 1015.72 36.1001 977.52 36.1001C933.32 36.1001 923.52 56.6001 921.12 72.0001C920.52 75.6001 920.52 77.6001 920.52 80.1001C920.52 95.7001 929.92 114.7 969.52 114.7ZM982.92 0.100098H974.82C938.12 0.100098 910.85 8.7501 893.76 25.8101C882.55 37.0001 875.87 51.4801 873.33 70.0901C872.32 77.0801 872.32 81.8201 872.32 85.9901C872.32 95.4901 874.63 113.62 890.1 128.38C905.76 143.32 930.53 150.89 963.72 150.89H972.02C1008.5 150.89 1035.54 142.24 1052.4 125.19C1066.45 110.98 1070.84 93.8601 1073.1 80.5401C1074.05 74.4301 1074.23 68.8101 1074.32 64.0201C1074.32 54.6001 1071.96 36.6601 1056.19 22.0501C1040.46 7.4901 1015.8 0.100098 982.92 0.100098ZM969.52 113.2C928.19 113.2 922.02 92.4601 922.02 80.1001C922.02 77.6601 922.02 75.7201 922.6 72.2501C924.12 62.4801 928.05 55.0101 934.62 49.4201C943.82 41.5801 958.26 37.6001 977.52 37.6001C1018.85 37.6001 1025.15 57.0301 1025.22 68.6101C1025.22 71.1501 1025.03 73.5901 1024.64 76.2801C1021.1 100.78 1002.56 113.2 969.52 113.2Z" fill="#1C1C1E"/>
<path d="M1188.72 1.6001C1261.52 1.6001 1278.62 38.3001 1278.62 64.0001C1278.52 69.1001 1278.42 74.5001 1277.42 80.3001C1273.22 105.1 1260.72 149.4 1177.82 149.4H1169.52C1095.82 149.4 1079.62 111.6 1079.62 86.0001C1079.62 81.8001 1079.62 77.2001 1080.62 70.3001C1083.92 46.1001 1097.32 1.6001 1180.62 1.6001H1188.72ZM1175.32 114.7C1218.32 114.7 1229.42 93.8001 1231.92 76.5001C1232.32 73.8001 1232.52 71.3001 1232.52 68.6001C1232.52 52.8001 1221.52 36.1001 1183.32 36.1001C1139.12 36.1001 1129.32 56.6001 1126.92 72.0001C1126.32 75.6001 1126.32 77.6001 1126.32 80.1001C1126.32 95.7001 1135.72 114.7 1175.32 114.7ZM1188.72 0.100098H1180.62C1143.93 0.100098 1116.65 8.7501 1099.56 25.8101C1088.35 37.0001 1081.67 51.4801 1079.13 70.0901C1078.12 77.0801 1078.12 81.8201 1078.12 85.9901C1078.12 95.4901 1080.43 113.62 1095.9 128.38C1111.56 143.32 1136.33 150.89 1169.52 150.89H1177.82C1214.3 150.89 1241.34 142.24 1258.2 125.19C1272.25 110.98 1276.64 93.8601 1278.9 80.5401C1279.91 74.6701 1280.02 69.3101 1280.12 64.1201V64.0201C1280.12 54.6001 1277.77 36.6601 1261.99 22.0501C1246.26 7.4901 1221.6 0.100098 1188.72 0.100098ZM1175.32 113.2C1133.99 113.2 1127.82 92.4601 1127.82 80.1001C1127.82 77.6601 1127.82 75.7201 1128.4 72.2501C1129.92 62.4801 1133.85 55.0101 1140.42 49.4201C1149.62 41.5801 1164.06 37.6001 1183.32 37.6001C1200.41 37.6001 1213.19 40.9601 1221.3 47.5901C1229.34 54.1601 1231.02 62.6401 1231.02 68.6001C1231.02 71.1501 1230.83 73.5901 1230.44 76.2801C1226.9 100.78 1208.36 113.2 1175.32 113.2Z" fill="#1C1C1E"/>
<path d="M1381.82 1.5C1444.22 1.5 1458.62 21.7 1458.62 41.6C1458.62 61.5 1450.02 82.1 1399.12 88.8C1387.42 90.3 1367.42 93 1356.52 94.8C1322.92 100 1318.92 109.2 1318.72 113H1407.02L1409.92 94.6H1452.52L1444.22 146.8H1274.32L1276.82 130.7C1280.12 110 1286.02 76.4 1350.72 64.1C1362.02 62 1382.22 58.3 1390.42 57C1409.82 53.4 1411.92 49.7 1411.92 44.9C1411.92 40.1 1408.32 34.5 1377.72 34.5C1342.42 34.5 1338.12 47.6 1336.82 54.5H1291.22L1291.42 52.6C1293.52 34.7 1303.72 1.5 1374.32 1.5H1381.82ZM1381.82 0H1374.32C1322.4 0 1294.01 17.64 1289.93 52.43L1289.73 54.35L1289.56 56.01H1338.07L1338.3 54.79C1339.82 46.73 1345.56 36.01 1377.73 36.01C1406.71 36.01 1410.43 40.77 1410.43 44.91C1410.43 47.97 1410.43 51.77 1390.16 55.54C1380.49 57.07 1355.39 61.72 1350.46 62.64C1321.57 68.13 1301.66 78.17 1289.59 93.33C1279.2 106.38 1276.89 120.88 1275.36 130.48L1272.86 146.59L1272.59 148.32H1445.52L1445.72 147.06L1454.02 94.86L1454.3 93.12H1408.66L1408.46 94.39L1405.76 111.52H1320.59C1321.97 107.85 1328.42 100.69 1356.77 96.3C1368.27 94.4 1388.93 91.64 1399.33 90.31C1423.12 87.18 1439.37 81.04 1449.03 71.54C1458.99 61.74 1460.14 49.77 1460.14 41.62C1460.14 14.02 1433.8 0.02 1381.84 0.02L1381.82 0Z" fill="#1C1C1E"/>
<path d="M149.22 196.1L203.52 338.9H158.22L148.62 312.8H64.02L47.82 338.9H2.72L92.92 196.1H149.22ZM84.02 280.6H136.82L117.22 227L84.02 280.6ZM150.26 194.6H92.1L91.66 195.3L1.45 338.1L0 340.4H48.66L49.1 339.69L64.86 314.3H147.58L156.82 339.42L157.18 340.4H205.7L204.93 338.37L150.63 195.57L150.26 194.6ZM86.72 279.1L116.88 230.41L134.68 279.1H86.72Z" fill="#1C1C1E"/>
<path d="M369.119 193.5C435.119 193.5 447.619 216.9 444.719 240.5H399.819C399.219 234.7 397.719 223.2 361.419 223.2H358.719C323.019 223.2 320.919 230.3 320.919 236.1C320.919 241.5 323.619 247.6 349.519 248L372.519 248.4C423.219 249.2 441.419 262 441.419 288.5C441.419 292 441.019 296.4 440.419 299.3C436.219 320 423.919 341.3 353.819 341.3H341.319C341.209 341.3 341.099 341.3 340.989 341.3C269.189 341.3 263.819 308.57 266.119 288.2H311.219C311.419 297.2 314.119 310.9 350.019 310.9H352.319C392.219 310.9 394.919 301.1 394.919 294C394.919 286.3 390.719 282.1 362.819 281.3L339.019 280.7C289.319 279.5 275.419 260.9 275.419 239C275.419 236.3 275.619 234.2 276.019 231.5C278.919 211.9 293.319 193.5 356.819 193.5H369.119ZM369.119 192H356.819C327.299 192 306.399 195.88 292.929 203.86C282.209 210.21 276.359 218.92 274.539 231.28C274.169 233.78 273.919 236.04 273.919 239C273.919 251.68 278.539 261.7 287.659 268.8C298.369 277.13 315.629 281.64 338.979 282.2L362.779 282.8C391.219 283.62 393.419 287.96 393.419 294C393.419 299 393.419 309.4 352.319 309.4H350.019C334.669 309.4 323.969 306.84 318.219 301.8C313.549 297.7 312.819 292.61 312.719 288.17L312.689 286.7H264.779L264.629 288.03C263.029 302.26 266.199 313.95 274.079 322.76C285.959 336.06 308.469 342.8 340.989 342.8H341.319H353.819C385.959 342.8 408.479 338.39 422.639 329.33C436.099 320.71 439.999 308.92 441.889 299.6C442.509 296.62 442.919 292.16 442.919 288.5C442.919 274.26 437.629 264.13 426.759 257.53C415.639 250.78 397.909 247.3 372.539 246.9L349.539 246.5C322.409 246.08 322.409 239.34 322.409 236.1C322.409 232.12 322.409 224.7 358.709 224.7H361.409C396.669 224.7 397.779 235.48 398.319 240.65L398.459 242H446.039L446.199 240.68C447.659 228.79 444.999 218.92 438.299 211.34C426.949 198.51 403.669 192 369.119 192Z" fill="#1C1C1E"/>
<path d="M643.621 196L632.721 264.9C627.921 295.2 612.221 340.9 543.021 340.9H536.321V341C462.621 341 450.521 292.6 455.121 263.8L465.921 196H509.721L499.321 261.5C496.221 280.9 502.821 303.9 540.421 303.9C578.021 303.9 586.321 280.7 589.221 262.6L599.821 196H643.621ZM645.381 194.5H598.541L598.341 195.76L587.741 262.36C585.961 273.5 582.011 282.47 576.011 289.02C567.891 297.89 555.921 302.39 540.421 302.39C524.921 302.39 513.701 298.44 507.051 290.64C502.871 285.74 498.401 276.75 500.801 261.72L511.201 196.22L511.481 194.48H464.641L464.441 195.74L453.641 263.54C450.501 283.18 455.731 303.23 467.621 317.17C481.941 333.96 505.061 342.48 536.321 342.48H537.821V342.38H543.021C573.951 342.38 597.551 333.24 613.151 315.22C623.951 302.75 630.831 286.36 634.201 265.11L645.101 196.21L645.371 194.48L645.381 194.5Z" fill="#1C1C1E"/>
<path d="M775.42 196.1C817.32 196.1 829.22 212 829.22 230.7C829.22 252.8 810.42 262.8 797.72 266.4C810.82 270.4 822.12 279.5 819.22 297.9L815.42 321.9C813.92 332.1 815.02 335.7 815.62 338L815.42 339H771.02C770.22 337.5 769.72 335.4 770.62 329.4L773.12 313.7C775.82 296.8 769.52 288.4 747.42 288.4H691.12L683.02 338.9H639.42L662.12 196.1H775.42ZM695.92 256.4H762.32V256.5C776.72 256.5 782.32 248.6 782.32 240.9C782.32 233.6 778.12 228.4 766.42 228.4H700.52L695.92 256.4ZM775.42 194.6H660.84L660.64 195.86L637.94 338.66L637.66 340.4H684.3L684.5 339.14L692.4 289.9H747.42C758.25 289.9 765.28 291.97 768.91 296.22C772.06 299.91 772.93 305.39 771.64 313.46L769.14 329.16C768.21 335.33 768.67 337.77 769.7 339.7L770.12 340.49H816.65L816.89 339.28L817.09 338.28L817.16 337.94L817.07 337.61L817 337.36C816.4 335.08 815.5 331.65 816.9 322.11L820.7 298.13C822.11 289.21 820.4 281.7 815.64 275.8C812.48 271.88 808.03 268.75 802.39 266.45C807.28 264.66 813.75 261.58 819.25 256.59C826.87 249.67 830.73 240.96 830.73 230.69C830.73 206.74 812.12 194.59 775.43 194.59L775.42 194.6ZM701.8 229.9H766.43C776.12 229.9 780.83 233.5 780.83 240.9C780.83 247.46 776.33 254.45 763.83 254.97V254.9H697.7L701.81 229.9H701.8Z" fill="#1C1C1E"/>
<path d="M995.021 196V196.1L989.821 228.5H889.621L886.321 249.6H984.021L978.821 282.2H881.121L872.121 338.8H828.721L851.421 196H995.021ZM996.521 194.5H850.141L849.941 195.76L827.241 338.56L826.961 340.3H873.401L873.601 339.04L882.401 283.7H980.101L980.301 282.44L985.501 249.84L985.781 248.1H888.071L890.901 230H991.091L991.291 228.74L996.491 196.34L996.511 196.22V194.5H996.521Z" fill="#1C1C1E"/>
<path d="M1055.92 196.1L1033.22 338.9H989.619L1012.32 196.1H1055.92ZM1057.68 194.6H1011.04L1010.84 195.86L988.139 338.66L987.859 340.4H1034.5L1034.7 339.14L1057.4 196.34L1057.68 194.6Z" fill="#1C1C1E"/>
<path d="M1255.02 196.1L1232.32 338.9H1189.52L1111.52 242.5L1096.32 338.9H1053.32L1076.02 196.1H1124.62L1197.62 287.9L1212.02 196.1H1255.02ZM1256.78 194.6H1210.74L1210.54 195.87L1196.67 284.29L1125.8 195.16L1125.35 194.59H1074.75L1074.55 195.85L1051.85 338.65L1051.57 340.39H1097.61L1097.81 339.12L1112.48 246.05L1188.36 339.83L1188.81 340.39H1233.61L1233.81 339.13L1256.51 196.33L1256.79 194.59L1256.78 194.6Z" fill="#1C1C1E"/>
<path d="M1365.82 193.6C1443.82 193.6 1455.52 228.5 1454.32 247.9H1408.22C1407.62 244.4 1404.72 227.5 1361.72 227.5C1318.72 227.5 1306.22 246.1 1303.72 264.4C1303.32 267.3 1303.12 269.2 1303.12 271.9C1303.12 290.5 1316.22 306.7 1351.32 306.7C1391.02 306.7 1406.02 291 1407.22 286H1352.32L1356.52 258.9H1454.22L1441.52 339H1415.42C1415.62 333.6 1415.22 322.5 1413.72 316.3C1407.42 323.8 1388.22 341.5 1347.72 341.5H1343.82V341.4C1275.82 341.4 1257.02 304.3 1257.02 275.4C1257.02 270.8 1257.22 266.8 1258.02 261.6C1262.02 233.8 1279.92 193.6 1359.82 193.6H1365.82ZM1365.82 192.1H1359.82C1324.08 192.1 1297.04 200.16 1279.45 216.06C1266.94 227.36 1259.23 242.61 1256.53 261.38C1255.69 266.85 1255.51 270.94 1255.51 275.39C1255.51 285.47 1257.89 304.71 1273.86 320.3C1288.96 335.05 1311.99 342.64 1342.31 342.88V342.99H1347.71C1385.16 342.99 1404.72 328.04 1412.82 319.53C1413.78 325.56 1414.09 334.15 1413.91 338.93L1413.85 340.49H1442.79L1442.99 339.22L1455.69 259.12L1455.97 257.39H1355.23L1355.03 258.66L1350.83 285.76L1350.56 287.49H1404.85C1403.21 289.94 1399.43 293.59 1393.02 296.88C1385.64 300.67 1372.41 305.19 1351.32 305.19C1321.64 305.19 1304.62 293.05 1304.62 271.89C1304.62 269.3 1304.81 267.47 1305.21 264.59C1307.43 248.35 1319.03 228.99 1361.72 228.99C1388.64 228.99 1404.62 235.79 1406.74 248.14L1406.95 249.39H1455.72L1455.81 247.98C1456.24 241 1455.27 227.49 1443.93 215.43C1429.37 199.94 1403.09 192.09 1365.81 192.09L1365.82 192.1Z" fill="#1C1C1E"/>
<path d="M295.819 385.5C373.019 385.5 389.519 422.2 389.519 447.9C389.519 452.9 389.319 458.1 388.519 463.5C384.819 488.1 373.119 533.4 285.019 533.4H276.719C198.919 533.4 183.219 495.6 183.219 470C183.219 465.6 183.219 460.8 184.219 453.9C187.719 430.5 199.619 385.5 287.519 385.5H295.819ZM282.419 498.6C329.119 498.6 340.419 477.5 342.719 460.2C343.119 457.3 343.319 455.2 343.319 452.5C343.319 436.8 332.619 420.1 290.119 420.1C242.719 420.1 231.319 441.2 230.019 457.5C229.819 460 229.819 461.9 229.819 464C229.819 479.6 239.219 498.6 282.419 498.6ZM295.819 384H287.519C248.979 384 220.599 392.7 203.169 409.86C188.579 424.22 184.519 441.75 182.739 453.68C181.719 460.69 181.719 465.64 181.719 470C181.719 489.51 190.979 534.9 276.719 534.9H285.019C323.699 534.9 352.119 526.1 369.479 508.74C383.829 494.39 387.979 477.15 389.999 463.73C390.699 458.98 391.019 454.1 391.019 447.91C391.019 436.32 387.829 419.63 372.619 405.96C356.429 391.4 330.589 384.01 295.819 384.01V384ZM282.419 497.1C263.379 497.1 249.409 493.37 240.899 486.02C234.539 480.52 231.319 473.12 231.319 464C231.319 461.89 231.319 460.06 231.519 457.62C232.299 447.84 236.409 439.84 243.739 433.85C253.669 425.72 269.279 421.6 290.129 421.6C309.109 421.6 323.119 424.97 331.749 431.6C338.439 436.74 341.829 443.77 341.829 452.5C341.829 455.22 341.619 457.3 341.239 460C337.969 484.62 318.179 497.1 282.429 497.1H282.419Z" fill="#1C1C1E"/>
<path d="M500.62 388.1C574.52 388.1 594.72 418.2 594.72 449.3C594.72 455.6 594.12 461.6 593.22 467.2C588.43 494.72 568.13 530.9 490.36 530.9C490.15 530.9 489.93 530.9 489.72 530.9H391.82L414.42 388.1H500.62ZM440.52 496.5H486.02C534.82 496.5 544.82 476.9 547.62 462.1C548.22 459.2 548.62 456 548.62 453.5C548.62 438.9 540.72 421.8 497.92 421.8H452.42L440.52 496.5ZM500.62 386.6H413.14L412.94 387.87L390.34 530.67L390.07 532.4H490.37C525.39 532.4 552.22 525.04 570.11 510.54C583.32 499.83 591.6 485.33 594.7 467.46C595.73 461.08 596.22 455.15 596.22 449.3C596.22 431.03 589.52 416.41 576.32 405.87C560.32 393.09 534.85 386.6 500.62 386.6ZM453.7 423.3H497.92C516.76 423.3 530.37 426.67 538.36 433.33C544.25 438.24 547.12 444.84 547.12 453.5C547.12 455.76 546.76 458.86 546.15 461.8C544.33 471.41 540.21 478.35 533.17 483.66C523.19 491.19 507.32 495.01 486.02 495.01H442.28L453.7 423.31V423.3Z" fill="#1C1C1E"/>
<path d="M772.621 388L686.421 475.6L677.621 530.9H634.021L642.821 475.6L581.921 388H633.821L669.121 440.6L721.721 388H772.621ZM776.201 386.5H721.101L720.661 386.94L669.351 438.25L635.071 387.16L634.621 386.5H579.051L580.691 388.86L641.251 475.96L632.541 530.66L632.261 532.4H678.901L679.101 531.14L687.821 476.31L773.681 389.05L776.191 386.5H776.201Z" fill="#1C1C1E"/>
<path d="M855.319 385.5C921.319 385.5 933.819 408.9 930.919 432.5H886.019C885.419 426.7 883.919 415.2 847.619 415.2H844.919C809.219 415.2 807.119 422.3 807.119 428.1C807.119 433.5 809.819 439.6 835.719 440L858.719 440.4C909.419 441.2 927.619 454 927.619 480.5C927.619 484 927.219 488.4 926.619 491.3C922.419 512 910.119 533.3 840.019 533.3H827.519C827.409 533.3 827.299 533.3 827.189 533.3C755.289 533.3 750.019 500.57 752.319 480.2H797.419C797.619 489.2 800.319 502.9 836.219 502.9H838.519C878.419 502.9 881.119 493.1 881.119 486C881.119 478.3 876.919 474.1 849.019 473.3L825.219 472.7C775.519 471.5 761.619 452.9 761.619 431C761.619 428.3 761.819 426.2 762.219 423.5C765.119 403.9 779.519 385.5 843.019 385.5H855.319ZM855.319 384H843.019C813.499 384 792.599 387.88 779.129 395.86C768.409 402.21 762.559 410.92 760.739 423.28C760.369 425.78 760.119 428.04 760.119 431C760.119 443.68 764.739 453.7 773.859 460.8C784.569 469.13 801.829 473.64 825.179 474.2L848.979 474.8C877.419 475.62 879.619 479.96 879.619 486C879.619 491 879.619 501.4 838.519 501.4H836.219C820.869 501.4 810.169 498.84 804.419 493.8C799.749 489.7 799.019 484.61 798.919 480.17L798.889 478.7H750.979L750.829 480.03C749.219 494.29 752.389 505.98 760.259 514.78C772.129 528.06 794.649 534.8 827.189 534.8H827.519H840.019C872.159 534.8 894.679 530.39 908.839 521.33C922.299 512.71 926.199 500.92 928.089 491.6C928.709 488.62 929.119 484.16 929.119 480.5C929.119 466.26 923.829 456.13 912.959 449.53C901.839 442.78 884.109 439.3 858.739 438.9L835.739 438.5C808.609 438.08 808.609 431.34 808.609 428.1C808.609 424.12 808.609 416.7 844.909 416.7H847.609C882.869 416.7 883.979 427.48 884.519 432.65L884.659 434H932.239L932.399 432.68C933.859 420.79 931.199 410.92 924.499 403.34C913.149 390.51 889.869 384 855.319 384Z" fill="#1C1C1E"/>
<path d="M1037.72 385.5C1103.72 385.5 1116.22 408.9 1113.32 432.5H1068.42C1067.82 426.7 1066.32 415.2 1030.02 415.2H1027.32C991.621 415.2 989.521 422.3 989.521 428.1C989.521 433.5 992.221 439.6 1018.12 440L1041.12 440.4C1091.82 441.2 1110.02 454 1110.02 480.5C1110.02 484 1109.62 488.4 1109.02 491.3C1104.82 512 1092.52 533.3 1022.42 533.3H1009.92C1009.81 533.3 1009.7 533.3 1009.59 533.3C937.691 533.3 932.421 500.57 934.721 480.2H979.821C980.021 489.2 982.721 502.9 1018.62 502.9H1020.92C1060.82 502.9 1063.52 493.1 1063.52 486C1063.52 478.3 1059.32 474.1 1031.42 473.3L1007.62 472.7C957.921 471.5 944.021 452.9 944.021 431C944.021 428.3 944.221 426.2 944.621 423.5C947.521 403.9 961.921 385.5 1025.42 385.5H1037.72ZM1037.72 384H1025.42C995.901 384 975.001 387.88 961.531 395.86C950.811 402.21 944.961 410.92 943.141 423.28C942.771 425.78 942.521 428.04 942.521 431C942.521 443.68 947.141 453.7 956.261 460.8C966.971 469.13 984.231 473.64 1007.58 474.2L1031.38 474.8C1059.82 475.62 1062.02 479.96 1062.02 486C1062.02 491 1062.02 501.4 1020.92 501.4H1018.62C1003.27 501.4 992.571 498.84 986.821 493.8C982.151 489.7 981.421 484.61 981.321 480.17L981.291 478.7H933.381L933.231 480.03C931.621 494.29 934.791 505.98 942.661 514.78C954.531 528.06 977.051 534.8 1009.59 534.8H1009.92H1022.42C1054.56 534.8 1077.08 530.39 1091.24 521.33C1104.7 512.71 1108.6 500.92 1110.49 491.6C1111.11 488.62 1111.52 484.16 1111.52 480.5C1111.52 466.26 1106.23 456.13 1095.36 449.53C1084.24 442.78 1066.51 439.3 1041.14 438.9L1018.14 438.5C991.011 438.08 991.011 431.34 991.011 428.1C991.011 424.12 991.011 416.7 1027.31 416.7H1030.01C1065.27 416.7 1066.38 427.48 1066.92 432.65L1067.06 434H1114.64L1114.8 432.68C1116.26 420.79 1113.6 410.92 1106.9 403.34C1095.55 390.51 1072.27 384 1037.72 384Z" fill="#1C1C1E"/>
<path d="M1285.32 388V388.1L1280.12 420.5H1176.82L1173.52 441.6H1274.52L1269.32 474.2H1168.32L1164.52 497.6H1269.52L1264.32 530.8H1116.32L1139.02 388H1285.32ZM1286.82 386.5H1137.74L1137.54 387.76L1114.84 530.56L1114.56 532.3H1265.6L1265.8 531.03L1271 497.83L1271.27 496.1H1166.28L1169.59 475.7H1270.59L1270.79 474.44L1275.99 441.84L1276.27 440.1H1175.26L1178.09 422H1281.38L1281.58 420.74L1286.78 388.34L1286.8 388.22V386.5H1286.82Z" fill="#1C1C1E"/>
<path d="M1478.52 388L1392.32 475.6L1383.52 530.9H1339.92L1348.82 475.6L1287.92 388H1339.72L1375.02 440.6L1427.62 388H1478.52ZM1482.1 386.5H1427L1426.56 386.94L1375.25 438.25L1340.97 387.16L1340.52 386.5H1285.05L1286.69 388.86L1347.24 475.96L1338.44 530.66L1338.16 532.4H1384.8L1385 531.14L1393.72 476.31L1479.58 389.05L1482.09 386.5H1482.1Z" fill="#1C1C1E"/>
<path d="M485.119 577.5C551.119 577.5 563.619 600.9 560.719 624.5H515.819C515.219 618.7 513.719 607.2 477.419 607.2H474.819C439.119 607.2 437.019 614.3 437.019 620.1C437.019 625.5 439.719 631.6 465.619 632L488.619 632.4C539.319 633.2 557.519 646 557.519 672.5C557.519 676 557.119 680.4 556.519 683.3C552.319 704 540.019 725.3 469.919 725.3H457.419C457.309 725.3 457.199 725.3 457.089 725.3C385.189 725.3 379.819 692.57 382.119 672.2H427.219C427.419 681.2 430.119 694.9 466.019 694.9H468.319C508.219 694.9 510.919 685.1 510.919 678C510.919 670.3 506.719 666.1 478.819 665.3L455.019 664.7C405.319 663.5 391.419 644.9 391.419 623C391.419 620.3 391.619 618.2 392.019 615.5C394.919 595.9 409.319 577.5 472.819 577.5H485.119ZM485.119 576H472.819C443.299 576 422.399 579.88 408.929 587.86C398.209 594.21 392.359 602.92 390.539 615.28C390.169 617.78 389.919 620.04 389.919 623C389.919 635.68 394.539 645.7 403.659 652.8C414.369 661.13 431.629 665.64 454.979 666.2L478.779 666.8C507.219 667.62 509.419 671.96 509.419 678C509.419 683 509.419 693.4 468.319 693.4H466.019C450.669 693.4 439.969 690.84 434.219 685.8C429.549 681.7 428.819 676.61 428.719 672.17L428.689 670.7H380.779L380.629 672.03C379.029 686.26 382.199 697.93 390.069 706.74C401.959 720.05 424.509 726.8 457.089 726.8H457.419H469.919C502.059 726.8 524.579 722.39 538.739 713.33C552.199 704.71 556.099 692.92 557.989 683.6C558.609 680.62 559.019 676.16 559.019 672.5C559.019 658.26 553.729 648.13 542.859 641.53C531.739 634.78 514.009 631.3 488.639 630.9L465.639 630.5C438.509 630.08 438.509 623.34 438.509 620.1C438.509 616.12 438.509 608.7 474.809 608.7H477.409C512.669 608.7 513.779 619.48 514.319 624.65L514.459 626H562.039L562.199 624.68C563.659 612.79 560.999 602.92 554.299 595.34C542.949 582.51 519.669 576 485.119 576Z" fill="#1C1C1E"/>
<path d="M687.221 580.1C734.021 580.1 749.221 597.8 749.221 622.7C749.221 645.7 738.121 675.3 680.321 675.3H615.021L607.321 722.9H563.721L586.421 580.1H687.221ZM619.821 643.2H680.121C696.221 643.2 702.821 635.9 702.821 625.7C702.821 617.1 697.021 612.5 684.821 612.5H624.821L619.821 643.2ZM687.221 578.6H585.141L584.941 579.86L562.241 722.66L561.961 724.4H607.321H608.601L608.801 723.14L616.301 676.8H680.321C706.571 676.8 725.811 670.7 737.521 658.67C746.281 649.67 750.721 637.57 750.721 622.7C750.721 608.86 746.001 598.15 736.691 590.88C726.261 582.73 709.611 578.6 687.221 578.6ZM626.101 614H684.821C695.921 614 701.321 617.83 701.321 625.7C701.321 636.17 693.991 641.7 680.121 641.7H621.581L626.091 614H626.101Z" fill="#1C1C1E"/>
<path d="M860.421 580.1L914.721 722.9H869.421L859.821 696.8H775.121L759.021 722.9H713.921L804.121 580.1H860.421ZM795.121 664.6H847.921L828.321 611L795.121 664.6ZM861.461 578.6H803.301L802.861 579.3L712.661 722.1L711.211 724.4H759.871L760.311 723.69L775.971 698.3H858.791L868.031 723.42L868.391 724.4H916.911L916.141 722.37L861.841 579.57L861.471 578.6H861.461ZM797.821 663.1L827.981 614.41L845.781 663.1H797.821Z" fill="#1C1C1E"/>
<path d="M1056.12 580.1C1098.02 580.1 1109.92 596 1109.92 614.7C1109.92 636.8 1091.12 646.8 1078.42 650.4C1091.52 654.4 1102.82 663.5 1099.92 681.9L1096.12 705.9C1094.62 716.1 1095.72 719.7 1096.32 722L1096.12 723H1051.72C1050.92 721.5 1050.42 719.4 1051.32 713.4L1053.82 697.7C1056.52 680.8 1050.22 672.4 1028.12 672.4H971.819L963.719 722.9H920.119L942.819 580.1H1056.12ZM976.619 640.4H1043.02V640.5C1057.42 640.5 1063.02 632.6 1063.02 624.9C1063.02 617.6 1058.82 612.4 1047.12 612.4H981.219L976.619 640.4ZM1056.12 578.6H941.539L941.339 579.86L918.639 722.66L918.359 724.4H964.999L965.199 723.14L973.099 673.9H1028.12C1038.95 673.9 1045.98 675.97 1049.61 680.22C1052.76 683.91 1053.63 689.39 1052.34 697.46L1049.84 713.16C1048.91 719.33 1049.37 721.77 1050.4 723.7L1050.82 724.49H1097.35L1097.59 723.28L1097.79 722.28L1097.86 721.94L1097.77 721.61L1097.7 721.36C1097.1 719.08 1096.2 715.65 1097.6 706.11L1101.4 682.13C1102.81 673.21 1101.1 665.7 1096.34 659.8C1093.18 655.88 1088.73 652.75 1083.09 650.45C1087.98 648.66 1094.45 645.58 1099.95 640.59C1107.57 633.67 1111.43 624.96 1111.43 614.69C1111.43 590.74 1092.82 578.59 1056.13 578.59L1056.12 578.6ZM982.499 613.9H1047.13C1056.82 613.9 1061.53 617.5 1061.53 624.9C1061.53 631.46 1057.03 638.45 1044.53 638.97V638.9H978.399L982.509 613.9H982.499Z" fill="#1C1C1E"/>
<path d="M1302.42 580.1L1211.82 647.5L1283.62 723H1228.12L1163.82 655.6L1153.02 723H1109.42V722.9L1132.12 580.1H1175.72L1166.32 639.4L1245.02 580.1H1302.42ZM1306.95 578.6H1244.52L1244.12 578.9L1168.39 635.97L1177.21 580.34L1177.49 578.61H1130.85L1130.65 579.87L1107.95 722.67L1107.93 722.79V724.51H1154.31L1154.51 723.25L1164.83 658.84L1227.04 724.05L1227.48 724.51H1287.12L1284.71 721.98L1214.08 647.71L1303.32 581.32L1306.95 578.62V578.6Z" fill="#1C1C1E"/>
<path d="M1381.72 577.5C1447.72 577.5 1460.22 600.9 1457.32 624.5H1412.42C1411.82 618.7 1410.32 607.2 1374.02 607.2H1371.32C1335.62 607.2 1333.52 614.3 1333.52 620.1C1333.52 625.5 1336.22 631.6 1362.12 632L1385.12 632.4C1435.82 633.2 1454.02 646 1454.02 672.5C1454.02 676 1453.62 680.4 1453.02 683.3C1448.82 704 1436.52 725.3 1366.42 725.3H1353.92C1353.81 725.3 1353.7 725.3 1353.59 725.3C1281.79 725.3 1276.42 692.57 1278.72 672.2H1323.82C1324.02 681.2 1326.72 694.9 1362.62 694.9H1364.92C1404.82 694.9 1407.52 685.1 1407.52 678C1407.52 670.3 1403.32 666.1 1375.42 665.3L1351.62 664.7C1301.92 663.5 1288.02 644.9 1288.02 623C1288.02 620.3 1288.22 618.2 1288.62 615.5C1291.52 595.9 1305.92 577.5 1369.42 577.5H1381.72ZM1381.72 576H1369.42C1339.9 576 1319 579.88 1305.53 587.86C1294.81 594.21 1288.96 602.92 1287.14 615.28C1286.77 617.78 1286.52 620.04 1286.52 623C1286.52 635.68 1291.14 645.7 1300.26 652.8C1310.97 661.13 1328.23 665.64 1351.58 666.2L1375.38 666.8C1403.82 667.62 1406.02 671.96 1406.02 678C1406.02 683 1406.02 693.4 1364.92 693.4H1362.62C1347.27 693.4 1336.57 690.84 1330.82 685.8C1326.15 681.7 1325.42 676.61 1325.32 672.17L1325.29 670.7H1277.38L1277.23 672.03C1275.63 686.26 1278.8 697.95 1286.68 706.76C1298.56 720.06 1321.07 726.8 1353.59 726.8H1353.92H1366.42C1398.56 726.8 1421.08 722.39 1435.24 713.33C1448.7 704.71 1452.6 692.92 1454.49 683.6C1455.11 680.62 1455.52 676.16 1455.52 672.5C1455.52 658.26 1450.23 648.13 1439.36 641.53C1428.24 634.78 1410.51 631.3 1385.14 630.9L1362.14 630.5C1335.01 630.08 1335.01 623.34 1335.01 620.1C1335.01 616.12 1335.01 608.7 1371.31 608.7H1374.01C1409.27 608.7 1410.38 619.48 1410.92 624.65L1411.06 626H1458.64L1458.8 624.68C1460.26 612.79 1457.6 602.92 1450.9 595.34C1439.55 582.51 1416.27 576 1381.72 576Z" fill="#1C1C1E"/>
<path d="M519.62 772.1L573.92 914.9H528.62L519.02 888.8H434.32L418.22 914.9H373.12L463.32 772.1H519.62ZM454.32 856.6H507.12L487.52 803L454.32 856.6ZM520.66 770.6H462.5L462.06 771.3L371.86 914.1L370.41 916.4H419.07L419.51 915.69L435.17 890.3H517.99L527.23 915.42L527.59 916.4H576.11L575.34 914.37L521.04 771.57L520.67 770.6H520.66ZM457.02 855.1L487.18 806.41L504.98 855.1H457.02Z" fill="#1C1C1E"/>
<path d="M780.919 772.1L758.219 914.9H715.419L637.419 818.5L622.219 914.9H579.219L601.919 772.1H650.519L723.519 863.9L737.919 772.1H780.919ZM782.679 770.6H736.639L736.439 771.87L722.569 860.29L651.699 771.16L651.249 770.59H600.649L600.449 771.85L577.749 914.65L577.469 916.39H623.509L623.709 915.12L638.379 822.05L714.259 915.83L714.709 916.39H759.509L759.709 915.13L782.409 772.33L782.689 770.59L782.679 770.6Z" fill="#1C1C1E"/>
<path d="M901.119 772.1L878.419 914.9H834.819L857.519 772.1H901.119ZM902.879 770.6H856.239L856.039 771.86L833.339 914.66L833.059 916.4H879.699L879.899 915.14L902.599 772.34L902.879 770.6Z" fill="#1C1C1E"/>
<path d="M1007.42 772.1C1081.32 772.1 1101.52 802.2 1101.52 833.3C1101.52 839.6 1100.92 845.6 1100.02 851.2C1095.23 878.72 1074.93 914.9 997.161 914.9C996.951 914.9 996.731 914.9 996.521 914.9H898.621L921.221 772.1H1007.42ZM947.421 880.5H992.921C1041.72 880.5 1051.72 860.9 1054.52 846.1C1055.12 843.2 1055.52 840 1055.52 837.5C1055.52 822.9 1047.62 805.8 1004.82 805.8H959.321L947.421 880.5ZM1007.42 770.6H919.941L919.741 771.87L897.141 914.67L896.871 916.4H997.171C1032.19 916.4 1059.02 909.04 1076.91 894.54C1090.12 883.83 1098.39 869.33 1101.5 851.46C1102.53 845.08 1103.02 839.15 1103.02 833.3C1103.02 815.03 1096.32 800.41 1083.12 789.87C1067.12 777.09 1041.65 770.6 1007.42 770.6ZM960.601 807.3H1004.82C1023.66 807.3 1037.27 810.67 1045.26 817.33C1051.15 822.24 1054.02 828.84 1054.02 837.5C1054.02 839.76 1053.66 842.86 1053.05 845.8C1051.23 855.41 1047.11 862.35 1040.07 867.66C1030.09 875.19 1014.22 879.01 992.921 879.01H949.181L960.601 807.31V807.3Z" fill="#1C1C1E"/>
<path d="M1272.42 772V772.1L1267.22 804.5H1163.92L1160.62 825.6H1261.62L1256.42 858.2H1155.42L1151.62 881.6H1256.62L1251.42 914.8H1103.42L1126.12 772H1272.42ZM1273.92 770.5H1124.84L1124.64 771.76L1101.94 914.56L1101.66 916.3H1252.7L1252.9 915.03L1258.1 881.83L1258.37 880.1H1153.38L1156.69 859.7H1257.69L1257.89 858.44L1263.09 825.84L1263.37 824.1H1162.36L1165.19 806H1268.48L1268.68 804.74L1273.88 772.34L1273.9 772.22V770.5H1273.92Z" fill="#1C1C1E"/>
<path d="M1400.72 772.1L1455.02 914.9H1409.72L1400.12 888.8H1315.42L1299.32 914.9H1254.22L1344.42 772.1H1400.72ZM1335.42 856.6H1388.22L1368.62 803L1335.42 856.6ZM1401.76 770.6H1343.6L1343.16 771.3L1252.96 914.1L1251.51 916.4H1300.17L1300.61 915.69L1316.27 890.3H1399.09L1408.33 915.42L1408.69 916.4H1457.21L1456.44 914.37L1402.14 771.57L1401.77 770.6H1401.76ZM1338.12 855.1L1368.28 806.41L1386.08 855.1H1338.12Z" fill="#1C1C1E"/>
</g>
<defs>
<clipPath id="clip0_748_13298">
<rect width="1482.1" height="916.4" fill="white"/>
</clipPath>
</defs>
</svg>
