<svg width="323" height="124" viewBox="0 0 323 124" fill="none" xmlns="http://www.w3.org/2000/svg">
<path d="M243.53 99.1019C244.874 98.1779 246.134 97.2959 247.31 96.4559C248.57 95.6159 250.124 94.3979 251.972 92.8019C256.592 88.8539 260.876 84.4439 264.824 79.5719C267.008 76.8839 269.15 73.7759 271.25 70.2479C270.662 70.8359 270.032 71.4659 269.36 72.1379C268.688 72.8099 268.184 73.1879 267.848 73.2719C267.596 73.3559 267.386 73.3979 267.218 73.3979C266.966 73.3979 266.672 73.3139 266.336 73.1459C266 72.9779 265.664 72.8939 265.328 72.8939C264.824 72.8939 264.488 72.9359 264.32 73.0199C264.236 73.1039 264.152 73.1459 264.068 73.1459C263.816 73.1459 263.48 73.0619 263.06 72.8939C262.724 72.7259 262.388 72.5159 262.052 72.2639C261.8 71.9279 261.674 71.6339 261.674 71.3819L261.8 71.0039C261.8 70.9199 261.758 70.8359 261.674 70.7519C261.674 70.5839 261.59 70.4999 261.422 70.4999L261.548 69.7439C261.632 69.4079 262.388 68.1059 263.816 65.8379L266.588 61.0499L264.95 62.5619C263.27 64.2419 261.296 66.5519 259.028 69.4919C256.76 72.3479 255.626 73.9859 255.626 74.4059L255.752 74.5319C255.752 74.6999 255.416 74.9519 254.744 75.2879C254.156 75.6239 253.652 76.4639 253.232 77.8079C253.064 78.3119 252.518 79.1519 251.594 80.3279C251.342 80.5799 251.174 80.7899 251.09 80.9579C251.09 81.0419 251.048 81.2519 250.964 81.5879L251.09 81.9659C251.09 82.1339 251.006 82.2179 250.838 82.2179C250.67 82.2179 250.418 82.4279 250.082 82.8479C249.83 83.2679 249.578 83.7719 249.326 84.3599C249.158 84.8639 249.074 85.1999 249.074 85.3679C249.074 85.5359 249.032 85.6619 248.948 85.7459C248.948 85.7459 248.864 85.7879 248.696 85.8719C248.528 85.8719 248.444 85.9139 248.444 85.9979L248.57 86.5019V86.6279C248.486 86.7119 248.36 86.7539 248.192 86.7539C248.108 86.7539 247.982 86.7959 247.814 86.8799C247.73 86.9639 247.688 87.1739 247.688 87.5099C247.688 87.7619 247.646 88.0559 247.562 88.3919C247.31 89.3999 246.974 89.9039 246.554 89.9039C246.47 89.9039 246.428 89.9459 246.428 90.0299C246.428 90.0299 246.428 90.0719 246.428 90.1559L246.554 90.6599H246.428C246.428 90.7439 246.302 90.7859 246.05 90.7859C245.798 90.7859 245.672 90.9539 245.672 91.2899C245.756 91.2899 245.798 91.3319 245.798 91.4159C245.798 91.5839 245.588 92.0459 245.168 92.8019C245 93.1379 244.916 93.4739 244.916 93.8099L245.042 94.0619L244.538 94.3139C244.202 94.5659 243.866 96.1619 243.53 99.1019ZM243.53 107.544C243.53 107.46 243.446 107.376 243.278 107.292C243.11 107.208 242.858 107.166 242.522 107.166C242.186 107.166 241.934 107.208 241.766 107.292C241.598 107.376 241.514 107.46 241.514 107.544H243.53ZM266.714 73.0199C266.882 73.0199 267.176 72.7679 267.596 72.2639L268.1 71.5079C268.016 71.5079 267.722 71.7179 267.218 72.1379C266.798 72.5579 266.588 72.8099 266.588 72.8939C266.588 72.9779 266.63 73.0199 266.714 73.0199ZM267.47 49.8359C268.478 49.6679 269.15 49.4159 269.486 49.0799L268.1 48.8279C267.764 48.8279 267.26 48.9119 266.588 49.0799C266 49.2479 265.706 49.4159 265.706 49.5839C265.706 49.7519 266 49.8359 266.588 49.8359H267.47ZM272.258 123.546C271.838 123.546 271.628 123.336 271.628 122.916C271.628 122.496 271.586 122.244 271.502 122.16V122.034L271.25 122.16C270.578 122.16 269.864 121.908 269.108 121.404C268.352 120.984 267.806 120.648 267.47 120.396C267.134 120.144 266.924 119.766 266.84 119.262L266.588 117.246C266.588 115.398 266.882 112.332 267.47 108.048C268.058 103.764 268.856 99.3119 269.864 94.6919C270.704 91.6679 271.124 89.7359 271.124 88.8959C270.956 88.8959 269.864 89.9879 267.848 92.1719C266.084 94.1039 263.606 96.4559 260.414 99.2279C255.122 103.764 250.838 106.746 247.562 108.174C245.882 108.93 244.538 109.308 243.53 109.308C242.858 109.308 242.27 109.266 241.766 109.182C241.262 109.098 239.246 107.964 235.718 105.78C235.13 105.36 234.458 104.94 233.702 104.52C231.854 103.344 230.93 101.37 230.93 98.5979C230.93 95.1539 232.316 90.5759 235.088 84.8639C240.548 73.7759 247.352 64.1579 255.5 56.0099C260.876 50.5499 264.992 47.8199 267.848 47.8199C269.36 47.8199 270.536 48.5759 271.376 50.0879C272.3 51.1799 273.098 51.8519 273.77 52.1039C274.442 52.2719 275.282 52.9019 276.29 53.9939C277.382 55.0019 277.928 56.1779 277.928 57.5219C277.928 59.3699 277.088 61.6799 275.408 64.4519L274.4 66.2159C274.904 66.2159 276.164 64.1999 278.18 60.1679L287.882 40.2599C289.898 35.9759 292.292 31.4399 295.064 26.6519C297.836 21.8639 300.44 17.7059 302.876 14.1779C308.42 6.28192 311.864 2.08192 313.208 1.57791C314.132 1.32592 314.804 0.947917 315.224 0.443913C315.644 0.191916 316.022 0.065918 316.358 0.065918C316.694 0.149917 316.904 0.317915 316.988 0.569911V0.695917C316.988 0.947914 316.904 1.24191 316.736 1.57791C316.568 1.82992 316.484 1.99792 316.484 2.08191C316.484 2.16591 316.484 2.24991 316.484 2.33392C316.484 2.41792 316.652 2.45992 316.988 2.45992L317.366 2.33392C317.45 2.33392 317.534 2.41792 317.618 2.58592C317.786 2.66991 317.87 2.79592 317.87 2.96392C317.87 3.13192 317.996 3.38392 318.248 3.71992C318.5 4.05592 318.794 4.39192 319.13 4.72792C319.55 4.97991 319.97 5.35791 320.39 5.86192C320.81 6.36592 321.146 6.82792 321.398 7.24792C321.734 7.66792 322.028 8.08792 322.28 8.50791L317.744 15.6899C308 30.8939 299.768 46.2659 293.048 61.8059C290.948 67.0139 289.73 69.9119 289.394 70.4999L288.764 72.3899C288.68 73.0619 288.47 73.6499 288.134 74.1539C287.882 74.6579 287.63 75.2459 287.378 75.9179C287.126 76.5059 286.916 77.0519 286.748 77.5559C286.664 77.6399 286.622 77.8079 286.622 78.0599C284.522 82.2599 281.75 92.0039 278.306 107.292C277.046 112.584 276.248 116.574 275.912 119.262C275.828 121.026 275.534 121.908 275.03 121.908C274.862 121.908 274.694 121.866 274.526 121.782C274.358 121.698 274.232 121.656 274.148 121.656C273.728 121.656 273.434 121.95 273.266 122.538C273.098 123.21 272.762 123.546 272.258 123.546Z" fill="#B3B3B3"/>
<path d="M236.479 87.636C236.311 87.636 236.227 87.594 236.227 87.51C236.227 87.426 236.353 87.258 236.605 87.006C236.857 86.754 237.109 86.628 237.361 86.628L237.487 86.754C237.487 86.838 237.403 87.006 237.235 87.258C237.151 87.51 236.899 87.636 236.479 87.636ZM187.717 104.52C187.885 104.352 187.969 104.184 187.969 104.016C187.969 103.596 187.885 103.386 187.717 103.386C187.549 103.386 187.465 103.554 187.465 103.89C187.465 104.31 187.507 104.52 187.591 104.52H187.717ZM233.959 46.56C234.127 46.392 234.295 46.014 234.463 45.426C234.463 45.258 234.379 45.132 234.211 45.048C234.043 45.048 233.707 45.174 233.203 45.426C232.783 45.678 232.573 45.888 232.573 46.056C232.573 46.392 232.951 46.56 233.707 46.56H233.959ZM190.867 107.166C190.699 107.166 190.027 106.788 188.851 106.032V106.284C188.263 105.948 187.843 105.654 187.591 105.402C187.255 105.15 187.087 104.772 187.087 104.268C187.003 103.764 186.961 103.008 186.961 102C187.297 94.776 190.279 83.856 195.907 69.24C199.519 59.916 202.375 53.868 204.475 51.096C205.567 49.836 206.533 49.206 207.373 49.206C208.045 49.206 208.801 49.416 209.641 49.836C211.321 50.76 213.085 51.432 214.933 51.852L216.823 52.356L216.193 53.364C215.773 54.288 215.269 55.254 214.681 56.262C214.177 57.27 213.841 57.984 213.673 58.404C213.589 58.824 213.379 59.496 213.043 60.42C212.707 61.26 212.329 62.184 211.909 63.192C211.237 64.788 210.607 66.258 210.019 67.602C209.515 68.862 209.263 69.702 209.263 70.122L209.389 70.248C209.389 70.416 209.221 70.5 208.885 70.5C208.633 70.5 208.507 70.584 208.507 70.752V70.878L207.751 73.02C207.247 74.028 206.995 74.616 206.995 74.784C207.247 74.784 208.549 73.104 210.901 69.744C211.573 68.904 212.203 68.022 212.791 67.098C213.043 66.846 213.253 66.552 213.421 66.216C216.277 62.352 219.259 58.908 222.367 55.884C225.811 52.44 228.037 50.046 229.045 48.702C230.977 45.846 232.615 44.418 233.959 44.418C234.799 44.418 235.219 45.09 235.219 46.434L235.345 47.19C235.429 47.862 236.017 48.198 237.109 48.198L237.487 48.072C238.159 48.072 238.915 48.534 239.755 49.458C240.595 50.298 241.015 51.054 241.015 51.726C241.015 53.91 239.881 59.328 237.613 67.98C237.277 69.072 236.479 72.306 235.219 77.682C234.463 81.042 234.043 83.982 233.959 86.502C233.959 88.266 234.169 89.148 234.589 89.148C234.841 89.148 235.135 89.064 235.471 88.896C235.807 88.728 236.143 88.602 236.479 88.518C237.319 88.35 237.865 88.014 238.117 87.51C238.117 87.426 238.285 87.3 238.621 87.132C239.797 86.796 240.973 86.376 242.149 85.872C242.653 85.62 243.031 85.494 243.283 85.494C243.535 85.578 243.871 85.83 244.291 86.25C244.711 86.67 245.089 86.964 245.425 87.132C245.761 87.216 246.055 87.258 246.307 87.258C246.643 87.258 246.895 87.3 247.063 87.384C246.811 87.804 246.349 88.266 245.677 88.77C246.265 88.77 246.559 88.938 246.559 89.274C246.559 89.442 246.433 89.61 246.181 89.778C245.425 90.198 244.753 90.618 244.165 91.038C242.653 92.046 241.267 92.802 240.007 93.306C238.747 93.81 237.235 94.062 235.471 94.062C233.371 94.062 231.439 93.6 229.675 92.676C227.911 91.668 226.735 90.534 226.147 89.274C225.559 88.014 225.265 86.25 225.265 83.982C225.265 79.95 226.105 74.238 227.785 66.846C227.869 66.426 227.995 65.754 228.163 64.83C228.415 63.906 228.625 62.982 228.793 62.058C229.045 61.134 229.171 60.546 229.171 60.294C228.415 60.294 225.391 63.906 220.099 71.13C215.227 77.85 212.077 82.386 210.649 84.738C202.501 97.086 197.797 103.974 196.537 105.402C195.697 106.326 195.109 106.788 194.773 106.788C194.521 106.788 194.311 106.704 194.143 106.536C193.975 106.452 193.765 106.41 193.513 106.41C193.177 106.41 192.799 106.494 192.379 106.662C191.875 106.83 191.497 106.956 191.245 107.04L190.867 107.166ZM238.495 86.376H238.243L239.503 85.494V85.746C239.503 85.83 239.335 85.956 238.999 86.124L238.495 86.376Z" fill="#B3B3B3"/>
<path d="M150.773 105.78C150.941 105.78 151.235 105.654 151.655 105.402C152.159 105.234 152.411 105.024 152.411 104.772C152.327 104.604 152.075 104.478 151.655 104.394C151.487 104.394 151.193 104.436 150.773 104.52C150.437 104.688 150.269 104.898 150.269 105.15L150.395 105.402C150.479 105.654 150.605 105.78 150.773 105.78ZM174.209 109.056C174.377 109.056 174.461 108.762 174.461 108.174C174.461 107.922 174.419 107.67 174.335 107.418L174.209 107.04C174.125 107.04 174.083 107.334 174.083 107.922C174.083 108.678 174.125 109.056 174.209 109.056ZM174.713 104.394L174.839 104.142C174.923 103.974 174.965 103.806 174.965 103.638C174.965 103.134 174.881 102.882 174.713 102.882C174.629 102.882 174.587 103.176 174.587 103.764L174.713 104.394ZM177.233 111.324C176.981 111.324 176.645 111.156 176.225 110.82C175.805 110.568 175.511 110.442 175.343 110.442C175.091 110.442 174.881 110.568 174.713 110.82C174.629 111.156 174.419 111.324 174.083 111.324C173.999 111.324 173.789 111.282 173.453 111.198C173.117 111.114 171.563 110.232 168.791 108.552L169.043 104.646C169.295 102.546 169.925 99.3542 170.933 95.0702C171.773 91.3742 172.781 87.7202 173.957 84.1082L174.461 82.8482L174.335 82.7222C174.251 82.7222 174.041 82.9322 173.705 83.3522C173.453 83.7722 173.117 84.2762 172.697 84.8642C166.733 93.7682 161.483 99.9422 156.947 103.386C154.343 105.486 152.537 106.536 151.529 106.536C150.689 106.536 149.891 106.158 149.135 105.402C148.463 105.066 147.749 104.646 146.993 104.142C146.153 103.722 145.397 103.344 144.725 103.008C143.969 102.672 143.381 102.252 142.961 101.748C141.953 100.572 141.449 98.6402 141.449 95.9522C141.449 92.5922 142.373 87.5942 144.221 80.9582C146.069 74.2382 149.219 66.1322 153.671 56.6402C155.939 52.1042 157.955 48.7442 159.719 46.5602C160.643 45.3842 161.315 44.7962 161.735 44.7962C161.987 44.7962 162.113 45.0902 162.113 45.6782V46.1822C162.113 47.1062 162.449 47.8202 163.121 48.3242C163.541 48.4922 163.919 48.5762 164.255 48.5762C164.591 48.5762 164.843 48.5342 165.011 48.4502C165.179 48.2822 165.347 48.1982 165.515 48.1982C165.683 48.1982 165.977 48.2822 166.397 48.4502C166.901 48.6182 167.363 48.9122 167.783 49.3322C168.203 49.6682 168.413 50.0462 168.413 50.4662C168.413 50.5502 168.203 51.0962 167.783 52.1042C167.363 53.1122 166.817 54.2462 166.145 55.5062C164.549 58.6142 162.617 63.0242 160.349 68.7362C158.081 74.3642 156.275 79.1522 154.931 83.1002C153.923 86.4602 153.125 89.4422 152.537 92.0462C152.033 93.9782 151.781 95.2802 151.781 95.9522C151.781 96.2042 151.823 96.3722 151.907 96.4562C152.579 96.4562 155.477 93.1802 160.601 86.6282C163.877 82.3442 171.521 71.0042 183.533 52.6082C184.793 50.6762 186.095 48.9122 187.439 47.3162C189.623 44.7122 190.967 43.4102 191.471 43.4102C191.639 43.4102 191.723 43.5362 191.723 43.7882V44.2922C191.723 44.7122 191.849 45.1742 192.101 45.6782C192.353 46.1822 192.689 46.6022 193.109 46.9382C193.529 47.1902 193.907 47.3162 194.243 47.3162L195.125 47.1902C195.377 47.1902 195.671 47.2742 196.007 47.4422C196.343 47.5262 196.679 47.7362 197.015 48.0722C197.351 48.4082 197.519 48.7442 197.519 49.0802C197.519 49.3322 195.713 54.0782 192.101 63.3182C189.077 70.9622 186.809 76.9262 185.297 81.2102C183.785 85.4102 182.357 89.9042 181.013 94.6922C178.745 101.916 177.611 106.578 177.611 108.678L177.737 110.19C177.737 110.946 177.569 111.324 177.233 111.324Z" fill="#B3B3B3"/>
<path d="M130.043 81.5881C130.043 81.4201 129.833 81.0001 129.413 80.3281C128.069 78.1441 127.313 77.0521 127.145 77.0521V77.1781C127.145 77.5141 127.313 78.0601 127.649 78.8161C128.069 79.4881 128.531 80.1181 129.035 80.7061C129.539 81.2941 129.875 81.5881 130.043 81.5881ZM131.429 79.1941C131.681 79.1941 132.269 78.3121 133.193 76.5481C137.225 68.8201 139.409 62.3101 139.745 57.0181L139.871 54.2461C139.871 53.4901 139.829 53.1121 139.745 53.1121C138.653 53.1121 137.225 54.1201 135.461 56.1361C133.697 58.1521 132.227 60.4201 131.051 62.9401C129.875 65.4601 129.287 68.2741 129.287 71.3821C129.287 73.4821 129.581 75.3301 130.169 76.9261C130.841 78.4381 131.261 79.1941 131.429 79.1941ZM141.383 48.3241L141.005 47.4421C140.081 45.8461 138.695 45.0481 136.847 45.0481H136.091C134.999 45.2161 134.453 45.3841 134.453 45.5521C134.453 45.7201 135.041 45.8461 136.217 45.9301C137.477 46.0141 138.107 46.1821 138.107 46.4341V46.6861C138.107 46.8541 138.275 47.0221 138.611 47.1901C138.947 47.3581 139.283 47.5261 139.619 47.6941C139.955 47.7781 140.291 47.9041 140.627 48.0721C140.963 48.2401 141.173 48.3241 141.257 48.3241H141.383ZM141.005 72.8941C141.341 72.8941 142.013 71.4661 143.021 68.6101C143.693 66.3421 144.029 65.0401 144.029 64.7041V64.4521C143.945 64.4521 143.777 64.7041 143.525 65.2081C142.937 66.5521 142.349 68.4001 141.761 70.7521L141.005 72.8941ZM144.785 56.2621C144.869 56.2621 144.953 56.1361 145.037 55.8841C145.037 55.5481 144.869 54.9181 144.533 53.9941C144.029 52.6501 143.651 51.9781 143.399 51.9781C143.147 51.9781 143.021 52.1041 143.021 52.3561C143.441 53.1961 143.819 54.0781 144.155 55.0021C144.491 55.8421 144.701 56.2621 144.785 56.2621ZM144.281 62.8141C144.449 62.8141 144.533 62.4781 144.533 61.8061C144.533 61.0501 144.449 60.6721 144.281 60.6721C144.197 60.6721 144.155 61.0501 144.155 61.8061C144.155 62.4781 144.197 62.8141 144.281 62.8141ZM139.493 76.4221C139.577 76.4221 139.787 76.0861 140.123 75.4141C140.627 74.9101 140.879 74.3641 140.879 73.7761V73.6501C140.795 73.6501 140.585 73.9021 140.249 74.4061C139.997 74.9101 139.787 75.3301 139.619 75.6661C139.535 75.9181 139.493 76.1281 139.493 76.2961V76.4221ZM110.891 97.4641C111.563 97.4641 112.991 96.9181 115.175 95.8261C119.879 93.3901 123.785 90.2401 126.893 86.3761L129.161 83.4781L126.011 80.2021C124.583 78.6061 123.197 76.7161 121.853 74.5321C120.593 72.3481 119.963 70.7941 119.963 69.8701C119.963 69.7021 119.921 69.6181 119.837 69.6181C119.753 69.7021 119.543 69.9121 119.207 70.2481C118.955 70.5001 118.829 70.8781 118.829 71.3821L118.955 71.7601C118.955 71.9281 118.829 72.0121 118.577 72.0121C118.325 72.0121 118.199 72.0961 118.199 72.2641L118.325 72.6421C118.325 72.9781 118.157 73.3141 117.821 73.6501C117.485 73.9861 117.317 74.2801 117.317 74.5321V74.7841C117.317 74.9521 117.191 75.0361 116.939 75.0361C116.687 75.0361 116.561 75.1201 116.561 75.2881L116.435 76.5481C116.099 77.6401 115.721 78.1861 115.301 78.1861H114.923C114.923 78.2701 114.965 78.3541 115.049 78.4381C115.133 78.4381 115.175 78.4801 115.175 78.5641C115.175 79.0681 114.965 79.6561 114.545 80.3281L113.915 81.8401H114.041L113.789 82.4701C112.949 83.8141 112.529 84.7801 112.529 85.3681C112.529 85.8721 112.361 86.2921 112.025 86.6281L111.521 88.2661C111.017 89.7781 110.681 91.1221 110.513 92.2981C110.261 94.0621 110.135 95.2801 110.135 95.9521C110.135 96.9601 110.387 97.4641 110.891 97.4641ZM113.411 104.52L113.537 104.394C113.537 104.226 113.159 104.142 112.403 104.142C111.647 104.142 111.269 104.226 111.269 104.394C111.269 104.478 111.983 104.52 113.411 104.52ZM111.143 98.9761C111.479 98.9761 111.773 98.9341 112.025 98.8501C112.277 98.7661 112.445 98.6821 112.529 98.5981C112.697 98.4301 112.781 98.3041 112.781 98.2201C112.781 98.1361 112.697 98.0941 112.529 98.0941C112.277 98.0941 111.773 98.2621 111.017 98.5981C110.597 98.7661 110.387 98.8921 110.387 98.9761H111.143ZM112.025 106.032C111.521 106.032 111.143 105.99 110.891 105.906C110.723 105.822 110.513 105.696 110.261 105.528C104.465 102.168 100.979 99.5221 99.803 97.5901C98.963 96.1621 98.543 93.9781 98.543 91.0381C98.543 85.4941 100.223 79.4041 103.583 72.7681C110.807 58.7401 118.577 49.2481 126.893 44.2921C127.817 43.7881 128.489 43.5361 128.909 43.5361C129.413 43.5361 129.749 43.6621 129.917 43.9141C130.169 44.0821 130.337 44.2501 130.421 44.4181C130.505 44.5021 130.589 44.9641 130.673 45.8041C130.589 45.8041 130.505 45.6361 130.421 45.3001C130.337 44.6281 129.959 44.2921 129.287 44.2921C128.951 44.2921 128.489 44.4181 127.901 44.6701C127.649 44.7541 127.523 44.8381 127.523 44.9221C127.523 45.1741 128.027 45.4261 129.035 45.6781C129.623 45.8461 130.085 45.9301 130.421 45.9301C131.009 45.9301 131.555 45.7621 132.059 45.4261C133.235 44.5021 134.495 44.0401 135.839 44.0401C136.343 44.0401 137.141 44.1661 138.233 44.4181C139.325 44.5861 140.459 45.5941 141.635 47.4421C142.475 48.7021 143.357 49.7101 144.281 50.4661C146.213 52.4821 147.431 54.9181 147.935 57.7741C148.019 58.1941 148.061 58.6981 148.061 59.2861C148.061 61.4701 147.515 64.4521 146.423 68.2321C145.331 72.0121 143.273 76.9681 140.249 83.1001C139.745 83.9401 139.493 84.5281 139.493 84.8641C139.493 85.1161 139.619 85.2421 139.871 85.2421C140.207 85.2421 140.585 85.3681 141.005 85.6201C142.601 86.5441 143.399 87.3421 143.399 88.0141C143.399 88.1821 143.315 88.3501 143.147 88.5181C142.979 88.6861 142.685 88.7701 142.265 88.7701C142.013 88.7701 141.047 88.5601 139.367 88.1401C138.527 87.8881 137.939 87.7621 137.603 87.7621C137.099 87.7621 136.847 87.8461 136.847 88.0141C136.847 88.0981 136.973 88.1821 137.225 88.2661C137.477 88.3501 137.687 88.4341 137.855 88.5181C138.611 88.7701 139.367 88.8961 140.123 88.8961L140.249 89.1481C139.997 89.4001 139.325 89.5261 138.233 89.5261L137.603 89.4001C136.763 89.4001 135.755 90.1981 134.579 91.7941C130.127 97.1701 124.961 101.328 119.081 104.268C116.561 105.444 114.209 106.032 112.025 106.032Z" fill="#B3B3B3"/>
<path d="M79.4109 49.0799C79.6629 49.0799 79.7889 48.6599 79.7889 47.8199L79.6629 47.6939L79.4109 47.9459C79.2429 48.0299 79.1589 48.1979 79.1589 48.4499C79.1589 48.5339 79.1589 48.6599 79.1589 48.8279C79.2429 48.9959 79.3269 49.0799 79.4109 49.0799ZM97.8069 56.5139L97.0509 54.8759C96.5469 53.8679 96.1269 53.3639 95.7909 53.3639C95.6229 53.3639 95.4129 53.4059 95.1609 53.4899C94.9089 53.5739 94.6989 53.6159 94.5309 53.6159H94.4049C94.4049 53.8679 94.8669 54.4139 95.7909 55.2539C96.7149 56.0939 97.3869 56.5139 97.8069 56.5139ZM103.099 63.6959L103.225 63.5699L102.091 61.9319H101.965C101.965 62.0999 102.091 62.4359 102.343 62.9399C102.679 63.4439 102.889 63.6959 102.973 63.6959H103.099ZM109.777 64.9559C110.701 64.9559 111.541 64.9139 112.297 64.8299C113.053 64.6619 113.557 64.5359 113.809 64.4519L114.061 64.3259C114.061 64.1579 113.011 64.0739 110.911 64.0739C108.811 64.0739 107.383 63.9479 106.627 63.6959L105.997 63.5699C105.997 64.4939 107.257 64.9559 109.777 64.9559ZM112.297 69.9959C111.961 69.8279 111.583 69.702 111.163 69.618C110.827 69.4499 110.449 69.3239 110.029 69.2399C109.609 69.0719 108.937 68.9879 108.013 68.9879C108.937 69.4919 109.609 69.7859 110.029 69.8699C110.533 69.9539 111.289 69.9959 112.297 69.9959ZM78.5289 73.1459L78.9069 72.8939C79.0749 72.7259 79.2429 72.4739 79.4109 72.1379C79.6629 71.8019 79.7889 71.5499 79.7889 71.3819C79.7889 71.2139 79.7049 71.1299 79.5369 71.1299C79.4529 71.1299 79.2429 71.2559 78.9069 71.5079C78.6549 71.7599 78.5289 72.2639 78.5289 73.0199V73.1459ZM67.6929 106.41C67.6089 106.41 67.4409 106.284 67.1889 106.032C66.5169 105.696 65.8449 105.192 65.1729 104.52C64.9209 104.352 64.7529 104.268 64.6689 104.268C64.5009 104.268 63.7029 103.806 62.2749 102.882C60.7629 102.042 59.8809 101.286 59.6289 100.614C59.6289 97.8419 60.3429 93.7259 61.7709 88.2659C63.1989 82.8059 65.1309 76.7159 67.5669 69.9959C71.5149 58.7399 74.7489 51.7679 77.2689 49.0799C78.3609 47.8199 79.2009 47.1899 79.7889 47.1899C80.1249 47.1899 80.2929 47.4419 80.2929 47.9459C80.2929 48.7859 80.4609 49.4579 80.7969 49.9619C81.2169 50.8019 81.7629 51.2219 82.4349 51.2219C82.6029 51.2219 82.7709 51.1799 82.9389 51.0959C83.1069 50.9279 83.3169 50.8439 83.5689 50.8439C83.8209 50.8439 84.7869 51.5159 86.4669 52.8599L85.8369 55.2539C85.4169 56.5139 85.0809 57.1439 84.8289 57.1439C84.5769 57.1439 84.1989 57.6899 83.6949 58.7819C82.6869 61.0499 81.7209 63.7379 80.7969 66.8459L80.4189 68.9879H80.5449C81.1329 68.9879 82.8549 66.9719 85.7109 62.9399C90.7509 55.8839 94.1109 52.3559 95.7909 52.3559C96.4629 52.6079 97.0509 53.2379 97.5549 54.2459C97.9749 54.9179 98.9409 55.7999 100.453 56.8919C101.629 57.5639 102.763 58.6559 103.855 60.1679C104.359 61.0919 104.863 61.7219 105.367 62.0579C106.543 62.8139 108.181 63.1919 110.281 63.1919C113.137 63.1919 115.447 62.9399 117.211 62.4359C117.211 62.5199 116.917 62.7719 116.329 63.1919C115.741 63.5279 115.447 63.7799 115.447 63.9479C115.447 64.2839 115.867 64.4519 116.707 64.4519C117.631 64.4519 118.387 64.7459 118.975 65.3339C119.311 65.9219 119.773 66.2159 120.361 66.2159C120.445 66.1319 120.571 66.0899 120.739 66.0899C120.907 66.0899 121.117 66.1739 121.369 66.3419C121.705 66.5099 121.999 66.8039 122.251 67.2239C122.587 67.5599 122.797 67.8539 122.881 68.1059C122.881 68.3579 122.629 68.6099 122.125 68.8619C120.865 69.6179 119.395 70.0799 117.715 70.2479C116.371 70.2479 115.699 70.3739 115.699 70.6259C115.699 70.8779 115.069 71.0039 113.809 71.0039C112.297 71.0039 111.037 70.9619 110.029 70.8779C109.105 70.7099 108.433 70.5419 108.013 70.3739C107.593 70.1219 106.879 69.6179 105.871 68.8619C104.863 68.0219 103.813 67.0979 102.721 66.0899C101.629 64.9979 100.705 64.1999 99.9489 63.6959C99.2769 63.1919 98.8149 62.9399 98.5629 62.9399C97.8069 62.9399 94.4049 67.5179 88.3569 76.6739C83.4849 84.0659 78.4029 92.0879 73.1109 100.74C72.2709 102.168 71.2629 103.47 70.0869 104.646C68.9109 105.822 68.1129 106.41 67.6929 106.41Z" fill="#B3B3B3"/>
<path d="M30.8298 89.2741C31.1658 89.2741 31.8378 89.1901 32.8458 89.0221C33.8538 88.7701 35.2398 88.4761 37.0038 88.1401L48.5958 85.8721C49.6878 80.6641 51.0318 74.9521 52.6278 68.7361C56.3238 53.9521 58.7178 44.7541 59.8098 41.1421C60.6498 37.5301 61.0698 35.5141 61.0698 35.0941C61.0698 34.9261 61.0278 34.8421 60.9438 34.8421C60.9438 34.8421 60.9438 34.7161 60.9438 34.4641C60.9438 34.1281 61.0698 33.5401 61.3218 32.7001C61.6578 31.7761 62.1618 30.6421 62.8338 29.2981L63.4638 27.6601L63.3378 27.5341C63.2538 27.5341 63.0018 27.9541 62.5818 28.7941C62.1618 29.5501 61.6578 30.5581 61.0698 31.8181C60.4818 32.9941 59.8938 34.0441 59.3058 34.9681C58.8018 35.8081 58.4238 36.3121 58.1718 36.4801C57.9198 36.6481 57.7518 36.7321 57.6678 36.7321C57.6678 36.4801 57.9618 36.0601 58.5498 35.4721L58.8018 34.8421C58.0458 34.8421 54.6858 40.3441 48.7218 51.3481C46.9578 54.8761 45.9498 56.7661 45.6978 57.0181C44.9418 58.0261 40.7838 66.3421 33.2238 81.9661C31.2078 86.2501 30.1998 88.5601 30.1998 88.8961C30.1998 89.1481 30.4098 89.2741 30.8298 89.2741ZM52.1238 96.4561C52.2918 96.4561 52.3758 96.2461 52.3758 95.8261C52.3758 95.7421 52.3338 95.6161 52.2498 95.4481C52.1658 95.2801 52.0818 95.1961 51.9978 95.1961C51.9138 95.1961 51.8718 95.4061 51.8718 95.8261C51.8718 96.2461 51.9138 96.4561 51.9978 96.4561H52.1238ZM51.6198 99.1021L51.8718 98.5981C51.8718 98.4301 51.8298 98.2621 51.7458 98.0941C51.6618 97.8421 51.5778 97.7161 51.4938 97.7161C51.4098 97.7161 51.3678 97.9261 51.3678 98.3461L51.4938 99.1021H51.6198ZM50.9898 102L51.1158 101.748C51.2838 101.664 51.3678 101.496 51.3678 101.244C51.3678 101.076 51.2838 100.908 51.1158 100.74L50.9898 100.488C50.9058 100.488 50.8638 100.74 50.8638 101.244C50.8638 101.748 50.9058 102 50.9898 102ZM50.4858 105.024C50.6538 105.024 50.7378 104.772 50.7378 104.268L50.6118 103.26H50.7378L50.6118 103.134C50.5278 103.134 50.4858 103.47 50.4858 104.142V105.024ZM43.5558 87.8881C43.8078 87.8881 44.2278 87.8041 44.8158 87.6361C45.4878 87.4681 46.3278 87.3841 47.3358 87.3841C47.9238 87.3841 48.2178 87.2581 48.2178 87.0061C48.2178 86.8381 47.9658 86.7541 47.4618 86.7541C46.2858 86.7541 45.1938 86.9221 44.1858 87.2581C43.5138 87.5101 43.1778 87.6781 43.1778 87.7621C43.1778 87.8461 43.3038 87.8881 43.5558 87.8881ZM40.5318 88.5181C40.9518 88.5181 41.3718 88.4761 41.7918 88.3921C42.2118 88.2241 42.4218 88.0561 42.4218 87.8881C42.4218 87.8041 42.3378 87.7621 42.1698 87.7621C40.8258 87.7621 40.1538 87.9721 40.1538 88.3921C40.1538 88.4761 40.2798 88.5181 40.5318 88.5181ZM38.8938 88.8961L39.0198 88.7701C38.9358 88.6021 38.7678 88.5181 38.5158 88.5181C38.0118 88.5181 37.7598 88.5601 37.7598 88.6441C37.7598 88.8121 38.1378 88.8961 38.8938 88.8961ZM68.1258 14.9341C68.5458 14.9341 68.7558 14.8081 68.7558 14.5561C68.7558 14.1361 68.5458 13.9261 68.1258 13.9261C67.6218 13.9261 67.3699 14.0941 67.3699 14.4301C67.3699 14.5981 67.4538 14.7241 67.6218 14.8081C67.8738 14.8921 68.0418 14.9341 68.1258 14.9341ZM48.8478 118.128C48.5118 118.128 48.0918 118.002 47.5878 117.75C47.1678 117.498 46.7478 117.12 46.3278 116.616C45.9078 116.196 45.6138 115.986 45.4458 115.986H45.3198L45.5718 116.868C45.4878 116.868 45.2358 116.7 44.8158 116.364C44.4798 116.112 44.3118 115.398 44.3118 114.222C44.3118 113.55 44.3538 112.584 44.4378 111.324C44.5218 110.148 44.6898 108.552 44.9418 106.536C45.1938 104.52 45.4458 102.63 45.6978 100.866C46.0338 99.0181 46.2858 97.5061 46.4538 96.3301C46.6218 95.0701 46.7058 94.3981 46.7058 94.3141C45.9498 94.3141 42.5478 95.0281 36.4998 96.4561C29.6958 98.0521 26.1258 99.1021 25.7898 99.6061C24.9498 100.698 24.1098 102.63 23.2698 105.402C20.8338 111.87 19.1118 115.104 18.1038 115.104C17.9358 115.104 17.8518 115.188 17.8518 115.356V115.608C17.8518 115.776 17.7678 115.986 17.5998 116.238C17.4318 116.574 17.1378 116.742 16.7178 116.742C16.6338 116.742 16.5498 116.7 16.4658 116.616L16.3398 116.49C16.2558 116.49 16.2138 116.49 16.2138 116.49C16.2138 116.574 16.2138 116.658 16.2138 116.742L16.3398 117.246C16.3398 117.33 16.2978 117.456 16.2138 117.624C16.0458 117.792 15.8358 117.876 15.5838 117.876C15.1638 117.876 14.7018 117.288 14.1978 116.112C13.6938 115.02 13.4418 113.676 13.4418 112.08C13.4418 110.148 13.8618 107.922 14.7018 105.402C15.2058 103.638 15.4578 102.546 15.4578 102.126V102L10.9218 103.26C9.15784 103.764 8.02384 104.016 7.51984 104.016C7.18384 104.016 6.84784 103.806 6.51184 103.386C6.09184 102.966 5.50384 102.756 4.74784 102.756C3.99184 102.756 3.02584 102.168 1.84984 100.992C1.00984 100.152 0.589844 99.5641 0.589844 99.2281C0.589844 99.1441 0.631844 99.1021 0.715843 99.1021C1.21984 99.1021 1.72384 98.7661 2.22784 98.0941C2.81584 97.6741 4.57984 96.9601 7.51984 95.9521C11.4678 94.6081 15.5418 93.3901 19.7418 92.2981C25.4538 78.5221 31.8378 64.8721 38.8938 51.3481C47.2938 35.3041 54.1818 23.9641 59.5578 17.3281C62.4138 13.8001 64.1778 12.0361 64.8498 12.0361C64.9338 12.0361 64.9758 12.0781 64.9758 12.1621C64.9758 12.4141 64.7238 12.7921 64.2198 13.2961C63.7158 13.7161 63.4638 14.0101 63.4638 14.1781C63.4638 14.2621 63.5059 14.3041 63.5899 14.3041C63.7579 14.2201 63.9678 14.1781 64.2198 14.1781C64.5558 14.3461 64.8498 14.4721 65.1018 14.5561C65.4378 14.6401 65.6898 14.6821 65.8578 14.6821C66.2778 14.6821 66.7398 14.4301 67.2438 13.9261C67.8318 13.4221 68.2938 13.1701 68.6298 13.1701C69.0498 13.1701 69.2598 13.5481 69.2598 14.3041C69.2598 14.6401 69.4278 15.0181 69.7638 15.4381C70.0998 15.8581 70.4358 16.1521 70.7718 16.3201C71.1918 16.4881 71.5278 16.5721 71.7798 16.5721H72.4098L73.0398 16.6981C74.6358 17.4541 75.4338 18.7981 75.4338 20.7301C75.4338 22.2421 75.0558 24.1321 74.2998 26.4001C73.5438 29.0881 73.1238 30.6841 73.0398 31.1881C72.9558 31.6921 72.5779 33.0361 71.9058 35.2201L63.3378 63.8221C59.2218 78.5221 57.1638 86.7961 57.1638 88.6441V88.8961C57.5838 89.3161 58.0458 89.5261 58.5498 89.5261C59.0538 89.5261 59.5158 89.6941 59.9358 90.0301C60.6078 90.7861 60.9438 91.4161 60.9438 91.9201C60.9438 92.0881 60.9018 92.2141 60.8178 92.2981L60.6918 92.4241C60.6078 92.4241 60.5658 92.3401 60.5658 92.1721C60.5658 91.9201 60.1038 91.7941 59.1798 91.7941L56.0298 92.1721L54.2658 101.622C53.4258 106.326 52.9638 109.098 52.8798 109.938C52.6278 111.114 52.4598 113.172 52.3758 116.112C52.2918 116.952 52.2078 117.372 52.1238 117.372L51.8718 117.246C51.6198 117.162 51.2838 117.078 50.8638 116.994C50.5278 116.91 50.2758 116.742 50.1078 116.49C49.9398 116.238 49.8558 115.692 49.8558 114.852L49.9818 109.938L50.2338 106.032L50.1078 105.78C50.0238 105.948 49.8978 106.494 49.7298 107.418C49.5618 108.426 49.3938 109.728 49.2258 111.324C49.0578 113.004 48.9738 114.264 48.9738 115.104C48.9738 115.944 49.0578 116.448 49.2258 116.616C49.6458 117.036 49.8558 117.372 49.8558 117.624C49.8558 117.96 49.5198 118.128 48.8478 118.128Z" fill="#B3B3B3"/>
</svg>
