<svg width="1244" height="99" viewBox="0 0 1244 99" fill="none" xmlns="http://www.w3.org/2000/svg">
<path d="M1174.22 98.664C1125.97 98.664 1122.38 76.776 1123.92 63.208H1154C1154.13 69.224 1155.92 78.312 1179.85 78.312H1181.39C1208.01 78.312 1209.81 71.784 1209.81 67.048C1209.81 61.928 1206.99 59.112 1188.43 58.6L1172.56 58.216C1139.41 57.448 1130.19 45.032 1130.19 30.44C1130.19 28.648 1130.32 27.24 1130.57 25.448C1132.49 12.392 1142.09 0.104004 1184.46 0.104004H1192.65C1236.69 0.104004 1245.01 15.72 1243.09 31.464H1213.13C1212.75 27.624 1211.73 19.944 1187.53 19.944H1185.74C1161.93 19.944 1160.53 24.68 1160.53 28.52C1160.53 32.104 1162.32 36.2 1179.6 36.456L1194.96 36.712C1228.75 37.224 1240.91 45.8 1240.91 63.464C1240.91 65.768 1240.65 68.712 1240.27 70.632C1237.45 84.456 1229.26 98.664 1182.54 98.664H1174.22Z" fill="#F8F8F8"/>
<path d="M1028.39 1.76807H1125.92L1122.47 23.4001H1053.6L1051.43 37.4801H1118.75L1115.3 59.2401H1047.97L1045.41 74.8561H1115.43L1111.97 97.0001H1013.28L1028.39 1.76807Z" fill="#F8F8F8"/>
<path d="M945.352 98.664H940.232C892.744 98.664 881.352 73.064 881.352 54.504C881.352 51.432 881.48 48.616 882.12 44.008C884.296 27.88 896.2 0.104004 948.936 0.104004H953.928C1009.1 0.104004 1015.11 25.96 1013.19 39.016H982.344C981.96 36.2 979.4 23.144 949.832 23.144C922.568 23.144 914.504 35.944 912.968 45.672C912.584 48.104 912.456 50.152 912.456 52.456C912.456 63.848 919.624 75.496 943.944 75.496C974.152 75.496 978.504 60.776 979.4 58.6H1010.25C1008.97 72.296 998.344 98.664 945.352 98.664Z" fill="#F8F8F8"/>
<path d="M760.76 1.76807H793.144L841.784 62.9521L851.384 1.76807H880.056L864.952 97.0001H836.408L784.44 32.7441L774.328 97.0001H745.656L760.76 1.76807Z" fill="#F8F8F8"/>
<path d="M650.635 1.76807H748.171L744.715 23.4001H675.851L673.675 37.4801H741.003L737.547 59.2401H670.219L667.659 74.8561H737.675L734.219 97.0001H635.531L650.635 1.76807Z" fill="#F8F8F8"/>
<path d="M637.191 1.76807L622.087 97.0001H593.031L608.135 1.76807H637.191Z" fill="#F8F8F8"/>
<path d="M504.413 42.0881H548.701C558.301 42.0881 562.013 36.8401 562.013 31.7201C562.013 26.8561 559.197 23.4001 551.389 23.4001H507.485L504.413 42.0881ZM501.213 63.2081L495.837 97.0001H466.781L481.885 1.76807H557.405C585.309 1.76807 593.245 12.3921 593.245 24.8081C593.245 39.5281 580.701 46.1841 572.253 48.6161C580.957 51.3041 588.509 57.3201 586.589 69.6081L584.029 85.6081C583.005 92.3921 583.773 94.8241 584.157 96.3601L584.029 97.0001H554.461C553.949 95.9761 553.565 94.5681 554.205 90.6001L555.869 80.1041C557.661 68.8401 553.437 63.2081 538.717 63.2081H501.213Z" fill="#F8F8F8"/>
<path d="M371.76 1.76807H469.296L465.84 23.4001H396.976L394.8 37.4801H462.128L458.672 59.2401H391.344L388.784 74.8561H458.8L455.344 97.0001H356.656L371.76 1.76807Z" fill="#F8F8F8"/>
<path d="M263.837 97.0001H234.781L249.885 1.76807H317.085C348.317 1.76807 358.429 13.5441 358.429 30.1841C358.429 45.5441 351.005 65.2561 312.477 65.2561H268.957L263.837 97.0001ZM272.157 43.8801H312.349C323.101 43.8801 327.453 39.0161 327.453 32.2321C327.453 26.4721 323.613 23.4001 315.421 23.4001H275.485L272.157 43.8801Z" fill="#F8F8F8"/>
<path d="M137.924 97.0001H101.316L155.076 48.6161L117.316 1.76807H154.82L176.836 30.0561L207.94 1.76807H244.548L192.708 48.6161L230.34 97.0001H194.5L170.692 67.3041L137.924 97.0001Z" fill="#F8F8F8"/>
<path d="M15.3853 1.76807H112.921L109.465 23.4001H40.6013L38.4253 37.4801H105.753L102.297 59.2401H34.9693L32.4093 74.8561H102.425L98.9693 97.0001H0.28125L15.3853 1.76807Z" fill="#F8F8F8"/>
</svg>
