<svg width="300" height="107" viewBox="0 0 300 107" fill="none" xmlns="http://www.w3.org/2000/svg">
<path d="M271.655 66.0603C271.907 66.0603 272.285 65.9343 272.789 65.6823C273.545 65.1783 276.233 62.7003 280.853 58.2483C283.373 55.7283 285.263 53.4183 286.523 51.3183C287.195 50.1423 287.531 49.4283 287.531 49.1763L287.405 49.0503H287.153C286.985 49.0503 286.901 48.9243 286.901 48.6723C286.901 48.0843 287.027 47.7063 287.279 47.5383C287.783 47.0343 288.203 46.1103 288.539 44.7663L288.917 43.6323C288.833 43.6323 288.749 43.7163 288.665 43.8843C288.581 44.0523 288.119 44.7663 287.279 46.0263C286.859 46.5303 286.481 47.0763 286.145 47.6643C284.885 49.5963 284.087 50.5623 283.751 50.5623C283.499 50.3943 283.373 50.1843 283.373 49.9323C283.373 49.4283 283.541 49.1763 283.877 49.1763C284.297 49.1763 284.507 48.8823 284.507 48.2943C284.507 47.7903 284.465 47.5383 284.381 47.5383C284.297 47.5383 284.045 47.8323 283.625 48.4203C282.869 49.3443 282.239 49.8063 281.735 49.8063C281.315 49.8063 279.803 51.6123 277.199 55.2243C274.679 58.8363 273.419 60.8943 273.419 61.3983C273.419 61.9023 273.293 62.1543 273.041 62.1543C272.873 62.1543 272.663 62.3643 272.411 62.7843C271.739 63.6243 271.403 64.4223 271.403 65.1783C271.403 65.4303 271.193 65.5563 270.773 65.5563V65.6823C270.773 65.7663 270.857 65.8503 271.025 65.9343C271.277 66.0183 271.487 66.0603 271.655 66.0603ZM265.985 95.5443C266.993 95.5443 267.959 95.2503 268.883 94.6623L269.387 94.4103L269.261 94.2843L268.757 94.4103C268.001 94.6623 267.119 94.7883 266.111 94.7883C265.103 94.7883 264.599 94.8303 264.599 94.9143C264.599 94.9983 264.683 95.1243 264.851 95.2923C265.103 95.4603 265.481 95.5443 265.985 95.5443ZM266.867 100.836C267.623 100.836 268.001 100.752 268.001 100.584L267.623 100.458C267.455 100.374 267.203 100.332 266.867 100.332C266.531 100.332 266.279 100.374 266.111 100.458L265.733 100.584C265.733 100.752 266.111 100.836 266.867 100.836ZM296.603 77.1483V77.0223C296.687 77.0223 296.729 76.9383 296.729 76.7703V76.6443V76.5183L296.477 76.8963L296.603 77.1483ZM268.505 102.726C267.833 102.726 267.119 102.6 266.363 102.348C265.607 102.18 264.305 101.466 262.457 100.206C260.693 98.9463 258.971 97.5603 257.291 96.0483C255.611 94.6203 254.435 93.4863 253.763 92.6463C252.335 90.3783 251.621 87.5643 251.621 84.2043C251.621 82.0203 252.209 78.6183 253.385 73.9983C254.477 69.2943 257.249 63.4563 261.701 56.4843C266.237 49.5123 271.697 43.6323 278.081 38.8443C280.853 36.7443 283.037 35.6943 284.633 35.6943C285.221 35.6943 285.683 35.8623 286.019 36.1983C286.439 36.4503 286.733 36.7443 286.901 37.0803C287.153 37.3323 287.279 37.5843 287.279 37.8363C287.279 38.0883 287.237 38.2143 287.153 38.2143C287.069 38.2143 286.943 38.0463 286.775 37.7103C286.439 36.8703 285.767 36.4503 284.759 36.4503C284.255 36.4503 283.793 36.5763 283.373 36.8283C282.953 37.0803 282.743 37.2483 282.743 37.3323C282.743 37.4163 283.037 37.4583 283.625 37.4583C284.297 37.4583 285.053 37.8363 285.893 38.5923C286.817 39.2643 287.657 39.6003 288.413 39.6003C289.253 39.6003 289.799 39.7683 290.051 40.1043C290.303 40.3563 290.513 40.4823 290.681 40.4823C290.933 40.4823 291.059 40.3143 291.059 39.9783L290.933 38.7183C291.017 38.7183 291.143 38.8443 291.311 39.0963C291.731 39.6003 291.941 40.2723 291.941 41.1123C291.941 41.8683 292.193 42.4143 292.697 42.7503C293.201 43.3383 293.453 44.3463 293.453 45.7743C293.453 47.2023 293.201 48.6723 292.697 50.1843C292.277 51.1083 292.067 51.7383 292.067 52.0743H292.193C292.529 52.0743 292.949 51.2343 293.453 49.5543C293.957 47.3703 294.209 45.7743 294.209 44.7663C294.209 43.0023 294.335 42.1203 294.587 42.1203C294.671 42.1203 294.839 42.2463 295.091 42.4983C296.351 43.7583 296.981 45.2283 296.981 46.9083C296.981 49.0923 295.805 52.2003 293.453 56.2323C291.185 60.1803 287.195 64.3383 281.483 68.7063C276.695 72.1503 272.831 73.8723 269.891 73.8723C269.051 73.8723 268.421 73.9143 268.001 73.9983C267.665 73.9983 267.413 74.1243 267.245 74.3763C266.489 75.4683 265.817 77.1483 265.229 79.4163L264.599 81.6843C263.759 85.2123 263.339 88.1523 263.339 90.5043C263.339 92.1843 263.507 93.1083 263.843 93.2763C264.263 93.5283 264.851 93.6543 265.607 93.6543C268.295 93.6543 272.075 92.0583 276.947 88.8663C279.047 87.5223 280.979 85.9683 282.743 84.2043C288.707 78.9123 291.941 75.8883 292.445 75.1323C293.369 74.1243 294.125 73.6203 294.713 73.6203C295.469 73.6203 296.393 74.1243 297.485 75.1323C298.661 76.1403 299.249 77.1483 299.249 78.1563C299.081 79.5003 297.653 81.6003 294.965 84.4563C283.793 96.6363 274.973 102.726 268.505 102.726Z" fill="#636366"/>
<path d="M252.072 36.954C252.492 36.954 252.87 36.828 253.206 36.576C253.626 36.324 253.878 36.114 253.962 35.946C253.962 35.862 253.878 35.778 253.71 35.694C253.626 35.61 253.416 35.568 253.08 35.568C251.988 35.736 251.442 36.072 251.442 36.576C251.442 36.828 251.652 36.954 252.072 36.954ZM232.542 93.024C232.542 92.94 232.458 92.856 232.29 92.772C232.122 92.688 231.87 92.646 231.534 92.646C231.198 92.646 230.904 92.73 230.652 92.898L231.534 93.024H232.542ZM233.55 95.04C232.122 95.04 230.904 94.788 229.896 94.284C229.812 94.284 229.77 94.242 229.77 94.158C228.426 93.57 227.418 92.94 226.746 92.268C226.578 92.1 226.326 91.848 225.99 91.512C225.654 91.26 225.276 90.924 224.856 90.504C224.352 90.168 223.89 89.874 223.47 89.622C221.034 88.026 219.816 85.716 219.816 82.692L219.942 80.928C220.614 74.796 223.092 68.034 227.376 60.642C231.66 53.166 236.994 46.488 243.378 40.608C245.814 38.424 247.62 36.954 248.796 36.198C250.056 35.442 251.106 35.064 251.946 35.064C253.29 35.064 254.214 35.442 254.718 36.198C255.642 37.71 256.608 38.466 257.616 38.466C257.784 38.466 258.12 38.634 258.624 38.97C259.128 39.306 260.052 40.188 261.396 41.616L260.262 43.884C258.498 47.076 257.49 48.672 257.238 48.672C257.154 48.672 257.112 48.63 257.112 48.546C257.112 48.378 257.196 48.084 257.364 47.664C257.532 47.16 257.616 46.824 257.616 46.656C257.616 46.404 257.532 46.278 257.364 46.278C257.28 46.278 257.112 46.362 256.86 46.53C256.692 46.614 256.608 46.95 256.608 47.538C256.608 48.042 256.398 48.294 255.978 48.294V48.042C255.978 47.454 256.146 46.614 256.482 45.522L257.364 43.128C257.28 43.128 257.028 43.422 256.608 44.01C256.272 44.514 255.894 45.228 255.474 46.152C254.382 48 253.626 48.924 253.206 48.924C253.122 48.924 253.08 48.798 253.08 48.546L253.332 47.412C253.332 47.328 253.29 47.286 253.206 47.286C253.038 47.286 252.534 47.748 251.694 48.672C250.518 50.016 249.93 50.772 249.93 50.94C249.93 51.108 249.846 51.276 249.678 51.444C249.594 51.612 249.258 51.864 248.67 52.2C248.166 52.536 247.914 52.998 247.914 53.586C247.914 54.174 247.746 54.468 247.41 54.468C247.074 54.468 246.738 54.888 246.402 55.728C246.066 56.484 245.688 56.862 245.268 56.862C245.184 56.862 245.058 56.988 244.89 57.24C244.806 57.408 244.764 57.576 244.764 57.744C244.764 58.248 244.638 58.5 244.386 58.5C244.218 58.5 244.05 58.584 243.882 58.752C243.798 58.92 243.756 59.088 243.756 59.256C243.756 59.76 243.63 60.012 243.378 60.012C243.21 60.012 243.042 60.096 242.874 60.264C242.79 60.432 242.748 60.6 242.748 60.768C242.748 61.272 242.622 61.524 242.37 61.524C242.118 61.524 241.992 61.566 241.992 61.65C241.992 61.734 241.992 61.818 241.992 61.902L242.118 62.28C242.118 62.448 241.908 62.658 241.488 62.91C241.152 63.078 240.984 63.288 240.984 63.54L241.11 63.918L240.984 64.044C240.9 64.212 240.69 64.38 240.354 64.548C240.102 64.632 239.976 64.8 239.976 65.052V65.304C239.976 65.472 239.892 65.556 239.724 65.556L239.346 65.682C239.346 66.27 238.674 67.824 237.33 70.344C236.238 72.612 235.146 75.048 234.054 77.652C232.458 81.18 231.66 83.406 231.66 84.33C231.66 84.582 231.744 84.75 231.912 84.834H232.038C232.626 84.834 234.936 83.868 238.968 81.936C246.444 78.324 254.76 72.738 263.916 65.178C264.336 64.758 264.588 64.548 264.672 64.548C264.756 64.548 264.798 64.59 264.798 64.674L264.42 65.808H264.672C265.26 65.808 265.89 66.06 266.562 66.564C267.234 67.068 267.738 67.362 268.074 67.446C268.494 67.446 268.788 67.362 268.956 67.194C269.124 67.026 269.418 66.942 269.838 66.942L270.468 67.446C270.888 67.866 271.098 68.286 271.098 68.706C271.098 68.958 270.93 69.336 270.594 69.84C270.258 70.344 268.746 71.73 266.058 73.998L263.412 76.14C258.204 80.844 252.786 84.96 247.158 88.488C241.53 92.016 236.994 94.2 233.55 95.04Z" fill="#636366"/>
<path d="M202.704 37.0799C202.956 37.0799 203.082 36.6599 203.082 35.8199L202.956 35.6939L202.704 35.9459C202.536 36.0299 202.452 36.1979 202.452 36.4499C202.452 36.5339 202.452 36.6599 202.452 36.8279C202.536 36.9959 202.62 37.0799 202.704 37.0799ZM221.1 44.5139L220.344 42.8759C219.84 41.8679 219.42 41.3639 219.084 41.3639C218.916 41.3639 218.706 41.4059 218.454 41.4899C218.202 41.5739 217.992 41.6159 217.824 41.6159H217.698C217.698 41.8679 218.16 42.4139 219.084 43.2539C220.008 44.0939 220.68 44.5139 221.1 44.5139ZM226.392 51.6959L226.518 51.5699L225.384 49.9319H225.258C225.258 50.0999 225.384 50.4359 225.636 50.9399C225.972 51.4439 226.182 51.6959 226.266 51.6959H226.392ZM233.07 52.9559C233.994 52.9559 234.834 52.9139 235.59 52.8299C236.346 52.6619 236.85 52.5359 237.102 52.4519L237.354 52.3259C237.354 52.1579 236.304 52.0739 234.204 52.0739C232.104 52.0739 230.676 51.9479 229.92 51.6959L229.29 51.5699C229.29 52.4939 230.55 52.9559 233.07 52.9559ZM235.59 57.9959C235.254 57.8279 234.876 57.7019 234.456 57.618C234.12 57.45 233.742 57.3239 233.322 57.2399C232.902 57.0719 232.23 56.9879 231.306 56.9879C232.23 57.4919 232.902 57.7859 233.322 57.8699C233.826 57.9539 234.582 57.9959 235.59 57.9959ZM201.822 61.1459L202.2 60.8939C202.368 60.7259 202.536 60.4739 202.704 60.1379C202.956 59.8019 203.082 59.5499 203.082 59.3819C203.082 59.2139 202.998 59.1299 202.83 59.1299C202.746 59.1299 202.536 59.2559 202.2 59.5079C201.948 59.7599 201.822 60.2639 201.822 61.0199V61.1459ZM190.986 94.41C190.902 94.41 190.734 94.2839 190.482 94.0319C189.81 93.6959 189.138 93.1919 188.466 92.5199C188.214 92.3519 188.046 92.2679 187.962 92.2679C187.794 92.2679 186.996 91.806 185.568 90.882C184.056 90.042 183.174 89.2859 182.922 88.6139C182.922 85.8419 183.636 81.7259 185.064 76.2659C186.492 70.8059 188.424 64.7159 190.86 57.9959C194.808 46.7399 198.042 39.7679 200.562 37.0799C201.654 35.8199 202.494 35.1899 203.082 35.1899C203.418 35.1899 203.586 35.4419 203.586 35.9459C203.586 36.7859 203.754 37.4579 204.09 37.9619C204.51 38.8019 205.056 39.2219 205.728 39.2219C205.896 39.2219 206.064 39.1799 206.232 39.0959C206.4 38.9279 206.61 38.8439 206.862 38.8439C207.114 38.8439 208.08 39.5159 209.76 40.8599L209.13 43.2539C208.71 44.5139 208.374 45.1439 208.122 45.1439C207.87 45.1439 207.492 45.6899 206.988 46.7819C205.98 49.0499 205.014 51.7379 204.09 54.8459L203.712 56.9879H203.838C204.426 56.9879 206.148 54.9719 209.004 50.9399C214.044 43.8839 217.404 40.3559 219.084 40.3559C219.756 40.6079 220.344 41.2379 220.848 42.2459C221.268 42.9179 222.234 43.7999 223.746 44.8919C224.922 45.5639 226.056 46.6559 227.148 48.1679C227.652 49.0919 228.156 49.7219 228.66 50.0579C229.836 50.8139 231.474 51.1919 233.574 51.1919C236.43 51.1919 238.74 50.9399 240.504 50.4359C240.504 50.5199 240.21 50.7719 239.622 51.1919C239.034 51.5279 238.74 51.7799 238.74 51.9479C238.74 52.2839 239.16 52.4519 240 52.4519C240.924 52.4519 241.68 52.7459 242.268 53.3339C242.604 53.9219 243.066 54.2159 243.654 54.2159C243.738 54.1319 243.864 54.0899 244.032 54.0899C244.2 54.0899 244.41 54.1739 244.662 54.3419C244.998 54.5099 245.292 54.8039 245.544 55.2239C245.88 55.5599 246.09 55.8539 246.174 56.1059C246.174 56.3579 245.922 56.6099 245.418 56.8619C244.158 57.6179 242.688 58.0799 241.008 58.2479C239.664 58.2479 238.992 58.3739 238.992 58.6259C238.992 58.8779 238.362 59.0039 237.102 59.0039C235.59 59.0039 234.33 58.9619 233.322 58.8779C232.398 58.7099 231.726 58.5419 231.306 58.3739C230.886 58.1219 230.172 57.6179 229.164 56.8619C228.156 56.0219 227.106 55.0979 226.014 54.0899C224.922 52.9979 223.998 52.1999 223.242 51.6959C222.57 51.1919 222.108 50.9399 221.856 50.9399C221.1 50.9399 217.698 55.5179 211.65 64.6739C206.778 72.0659 201.696 80.0879 196.404 88.7399C195.564 90.1679 194.556 91.47 193.38 92.646C192.204 93.822 191.406 94.41 190.986 94.41Z" fill="#636366"/>
<path d="M171.262 69.5881C171.262 69.4201 171.052 69.0001 170.632 68.3281C169.288 66.1441 168.532 65.0521 168.364 65.0521V65.1781C168.364 65.5141 168.532 66.0601 168.868 66.8161C169.288 67.4881 169.75 68.1181 170.254 68.7061C170.758 69.2941 171.094 69.5881 171.262 69.5881ZM172.648 67.1941C172.9 67.1941 173.488 66.3121 174.412 64.5481C178.444 56.8201 180.628 50.3101 180.964 45.0181L181.09 42.2461C181.09 41.4901 181.048 41.1121 180.964 41.1121C179.872 41.1121 178.444 42.1201 176.68 44.1361C174.916 46.1521 173.446 48.4201 172.27 50.9401C171.094 53.4601 170.506 56.2741 170.506 59.3821C170.506 61.4821 170.8 63.3301 171.388 64.9261C172.06 66.4381 172.48 67.1941 172.648 67.1941ZM182.602 36.3241L182.224 35.4421C181.3 33.8461 179.914 33.0481 178.066 33.0481H177.31C176.218 33.2161 175.672 33.3841 175.672 33.5521C175.672 33.7201 176.26 33.8461 177.436 33.9301C178.696 34.0141 179.326 34.1821 179.326 34.4341V34.6861C179.326 34.8541 179.494 35.0221 179.83 35.1901C180.166 35.3581 180.502 35.5261 180.838 35.6941C181.174 35.7781 181.51 35.9041 181.846 36.0721C182.182 36.2401 182.392 36.3241 182.476 36.3241H182.602ZM182.224 60.8941C182.56 60.8941 183.232 59.4661 184.24 56.6101C184.912 54.3421 185.248 53.0401 185.248 52.7041V52.4521C185.164 52.4521 184.996 52.7041 184.744 53.2081C184.156 54.5521 183.568 56.4001 182.98 58.7521L182.224 60.8941ZM186.004 44.2621C186.088 44.2621 186.172 44.1361 186.256 43.8841C186.256 43.5481 186.088 42.9181 185.752 41.9941C185.248 40.6501 184.87 39.9781 184.618 39.9781C184.366 39.9781 184.24 40.1041 184.24 40.3561C184.66 41.1961 185.038 42.0781 185.374 43.0021C185.71 43.8421 185.92 44.2621 186.004 44.2621ZM185.5 50.8141C185.668 50.8141 185.752 50.4781 185.752 49.8061C185.752 49.0501 185.668 48.6721 185.5 48.6721C185.416 48.6721 185.374 49.0501 185.374 49.8061C185.374 50.4781 185.416 50.8141 185.5 50.8141ZM180.712 64.4221C180.796 64.4221 181.006 64.0861 181.342 63.4141C181.846 62.9101 182.098 62.3641 182.098 61.7761V61.6501C182.014 61.6501 181.804 61.9021 181.468 62.4061C181.216 62.9101 181.006 63.3301 180.838 63.6661C180.754 63.9181 180.712 64.1281 180.712 64.2961V64.4221ZM152.11 85.4641C152.782 85.4641 154.21 84.9181 156.394 83.8261C161.098 81.3901 165.004 78.2401 168.112 74.3761L170.38 71.4781L167.23 68.2021C165.802 66.6061 164.416 64.7161 163.072 62.5321C161.812 60.3481 161.182 58.7941 161.182 57.8701C161.182 57.7021 161.14 57.6181 161.056 57.6181C160.972 57.7021 160.762 57.9121 160.426 58.2481C160.174 58.5001 160.048 58.8781 160.048 59.3821L160.174 59.7601C160.174 59.9281 160.048 60.0121 159.796 60.0121C159.544 60.0121 159.418 60.0961 159.418 60.2641L159.544 60.6421C159.544 60.9781 159.376 61.3141 159.04 61.6501C158.704 61.9861 158.536 62.2801 158.536 62.5321V62.7841C158.536 62.9521 158.41 63.0361 158.158 63.0361C157.906 63.0361 157.78 63.1201 157.78 63.2881L157.654 64.5481C157.318 65.6401 156.94 66.1861 156.52 66.1861H156.142C156.142 66.2701 156.184 66.3541 156.268 66.4381C156.352 66.4381 156.394 66.4801 156.394 66.5641C156.394 67.0681 156.184 67.6561 155.764 68.3281L155.134 69.8401H155.26L155.008 70.4701C154.168 71.8141 153.748 72.7801 153.748 73.3681C153.748 73.8721 153.58 74.2921 153.244 74.6281L152.74 76.2661C152.236 77.7781 151.9 79.1221 151.732 80.2981C151.48 82.0621 151.354 83.2801 151.354 83.9521C151.354 84.9601 151.606 85.4641 152.11 85.4641ZM154.63 92.5201L154.756 92.3941C154.756 92.2261 154.378 92.1421 153.622 92.1421C152.866 92.1421 152.488 92.2261 152.488 92.3941C152.488 92.4781 153.202 92.5201 154.63 92.5201ZM152.362 86.9761C152.698 86.9761 152.992 86.9341 153.244 86.8501C153.496 86.7661 153.664 86.6821 153.748 86.5981C153.916 86.4301 154 86.3041 154 86.2201C154 86.1361 153.916 86.0941 153.748 86.0941C153.496 86.0941 152.992 86.2621 152.236 86.5981C151.816 86.7661 151.606 86.8921 151.606 86.9761H152.362ZM153.244 94.0321C152.74 94.0321 152.362 93.9901 152.11 93.9061C151.942 93.8221 151.732 93.6961 151.48 93.5281C145.684 90.1681 142.198 87.5221 141.022 85.5901C140.182 84.1621 139.762 81.9781 139.762 79.0381C139.762 73.4941 141.442 67.4041 144.802 60.7681C152.026 46.7401 159.796 37.2481 168.112 32.2921C169.036 31.7881 169.708 31.5361 170.128 31.5361C170.632 31.5361 170.968 31.6621 171.136 31.9141C171.388 32.0821 171.556 32.2501 171.64 32.4181C171.724 32.5021 171.808 32.9641 171.892 33.8041C171.808 33.8041 171.724 33.6361 171.64 33.3001C171.556 32.6281 171.178 32.2921 170.506 32.2921C170.17 32.2921 169.708 32.4181 169.12 32.6701C168.868 32.7541 168.742 32.8381 168.742 32.9221C168.742 33.1741 169.246 33.4261 170.254 33.6781C170.842 33.8461 171.304 33.9301 171.64 33.9301C172.228 33.9301 172.774 33.7621 173.278 33.4261C174.454 32.5021 175.714 32.0401 177.058 32.0401C177.562 32.0401 178.36 32.1661 179.452 32.4181C180.544 32.5861 181.678 33.5941 182.854 35.4421C183.694 36.7021 184.576 37.7101 185.5 38.4661C187.432 40.4821 188.65 42.9181 189.154 45.7741C189.238 46.1941 189.28 46.6981 189.28 47.2861C189.28 49.4701 188.734 52.4521 187.642 56.2321C186.55 60.0121 184.492 64.9681 181.468 71.1001C180.964 71.9401 180.712 72.5281 180.712 72.8641C180.712 73.1161 180.838 73.2421 181.09 73.2421C181.426 73.2421 181.804 73.3681 182.224 73.6201C183.82 74.5441 184.618 75.3421 184.618 76.0141C184.618 76.1821 184.534 76.3501 184.366 76.5181C184.198 76.6861 183.904 76.7701 183.484 76.7701C183.232 76.7701 182.266 76.5601 180.586 76.1401C179.746 75.8881 179.158 75.7621 178.822 75.7621C178.318 75.7621 178.066 75.8461 178.066 76.0141C178.066 76.0981 178.192 76.1821 178.444 76.2661C178.696 76.3501 178.906 76.4341 179.074 76.5181C179.83 76.7701 180.586 76.8961 181.342 76.8961L181.468 77.1481C181.216 77.4001 180.544 77.5261 179.452 77.5261L178.822 77.4001C177.982 77.4001 176.974 78.1981 175.798 79.7941C171.346 85.1701 166.18 89.3281 160.3 92.2681C157.78 93.4441 155.428 94.0321 153.244 94.0321Z" fill="#636366"/>
<path d="M151.567 5.45409C152.239 5.45409 152.575 5.37009 152.575 5.20208L152.449 5.07608L151.441 4.95009C151.273 4.95009 151.105 4.99209 150.937 5.07608L150.685 5.20208C150.685 5.37009 150.979 5.45409 151.567 5.45409ZM137.833 31.6621L137.959 31.5361L137.833 31.4101C137.749 31.3261 137.623 31.2841 137.455 31.2841C137.287 31.2841 137.119 31.3261 136.951 31.4101C136.783 31.4941 136.699 31.5781 136.699 31.6621H137.833ZM107.341 101.214C107.425 101.214 107.467 101.172 107.467 101.088C107.467 100.752 107.383 100.29 107.215 99.7021C106.963 99.1981 106.753 98.9461 106.585 98.9461L106.459 99.4501C106.459 99.6181 106.501 99.8281 106.585 100.08C106.585 100.332 106.669 100.584 106.837 100.836C107.005 101.088 107.173 101.214 107.341 101.214ZM106.837 101.844H106.585L104.065 101.214C102.553 100.794 101.629 100.248 101.293 99.5761C100.957 98.9881 100.789 98.1901 100.789 97.1821C100.789 93.9061 102.301 87.2701 105.325 77.2741C107.677 69.2941 110.155 62.3641 112.759 56.4841L113.641 54.2161C114.145 52.7041 114.733 51.1501 115.405 49.5541C116.161 47.9581 116.539 47.0761 116.539 46.9081C116.539 46.6561 116.413 46.4881 116.161 46.4041C115.993 46.2361 115.867 46.0681 115.783 45.9001C115.699 45.6481 115.657 45.4381 115.657 45.2701V45.0181C115.657 44.6821 115.405 44.5141 114.901 44.5141H114.649C113.977 44.5141 113.137 44.0101 112.129 43.0021C111.121 41.9941 110.617 41.3641 110.617 41.1121C110.617 41.0281 110.617 40.9441 110.617 40.8601C110.617 40.7761 110.701 40.6921 110.869 40.6081C111.121 40.4401 111.331 40.3141 111.499 40.2301C111.667 40.0621 111.877 39.8941 112.129 39.7261C112.465 39.4741 112.759 39.2221 113.011 38.9701C113.347 38.7181 113.977 38.3821 114.901 37.9621C115.825 37.4581 116.917 36.9541 118.177 36.4501C119.437 35.9461 120.697 35.4001 121.957 34.8121L126.115 26.4961C128.551 21.6241 129.769 18.8521 129.769 18.1801L129.643 18.0541C129.307 18.3061 129.139 18.5161 129.139 18.6841V18.9361C129.139 19.2721 128.719 19.4401 127.879 19.4401C126.787 19.4401 126.241 19.2721 126.241 18.9361C126.241 18.6001 125.779 18.4321 124.855 18.4321C124.015 18.4321 122.965 17.9281 121.705 16.9201L119.941 15.4081C120.529 14.8201 121.117 14.1901 121.705 13.5181C122.377 12.7621 123.007 12.3841 123.595 12.3841L124.225 12.5101L124.099 12.2581C124.099 11.9221 125.023 11.3341 126.871 10.4941C135.019 6.96608 145.939 4.61408 159.631 3.43808C162.823 3.10208 165.511 2.93408 167.695 2.93408C169.543 2.93408 170.971 3.06008 171.979 3.31209C172.651 3.39608 172.987 3.48008 172.987 3.56408C172.987 3.64808 171.643 3.69008 168.955 3.69008C167.191 3.69008 165.133 3.77408 162.781 3.94208C160.513 4.02608 158.497 4.15208 156.733 4.32009C155.053 4.40409 154.129 4.53008 153.961 4.69808C153.961 4.78208 154.591 4.82408 155.851 4.82408L165.679 4.57208C168.283 4.57208 170.551 4.82408 172.483 5.32808C174.415 5.83208 176.557 7.30209 178.909 9.73808C179.917 10.7461 180.421 11.7541 180.421 12.7621C180.421 13.3501 180.169 13.6441 179.665 13.6441C179.329 13.6441 179.161 13.5601 179.161 13.3921V13.1401C179.161 12.8041 178.951 12.6361 178.531 12.6361C178.195 12.6361 178.027 12.5521 178.027 12.3841C178.027 12.3001 178.111 12.1741 178.279 12.0061C178.531 11.7541 178.657 11.5441 178.657 11.3761C178.657 11.0401 178.531 10.8721 178.279 10.8721C178.027 10.8721 177.817 11.1241 177.649 11.6281C177.313 12.4681 176.935 12.8881 176.515 12.8881C176.095 12.8881 175.759 12.4681 175.507 11.6281C175.423 11.1241 175.297 10.7461 175.129 10.4941C174.961 10.2421 174.079 10.1161 172.483 10.1161C169.879 10.1161 166.057 10.4521 161.017 11.1241C156.061 11.7121 151.567 12.4261 147.535 13.2661C146.695 13.4341 146.065 13.6021 145.645 13.7701C145.225 13.9381 144.889 14.2321 144.637 14.6521C144.385 14.9881 143.755 16.1641 142.747 18.1801C141.319 21.2881 140.059 23.7241 138.967 25.4881L138.085 27.1261C137.077 29.1421 136.573 30.2761 136.573 30.5281C136.993 30.5281 138.883 30.1501 142.243 29.3941C148.291 28.1341 152.029 27.5041 153.457 27.5041C153.709 27.5041 153.835 27.5461 153.835 27.6301C153.835 27.7141 153.583 27.8401 153.079 28.0081C152.575 28.1761 151.945 28.3021 151.189 28.3861C150.433 28.4701 149.467 28.6381 148.291 28.8901C147.199 29.0581 146.107 29.2681 145.015 29.5201C143.923 29.7721 143.041 29.9821 142.369 30.1501L141.235 30.5281H141.613C142.117 30.5281 143.503 30.3181 145.771 29.8981C148.711 29.4781 151.063 29.2681 152.827 29.2681C154.591 29.3521 156.019 29.7301 157.111 30.4021C158.203 30.9901 159.001 31.5361 159.505 32.0401C160.009 32.5441 160.261 32.9221 160.261 33.1741C160.261 33.5101 159.379 33.8041 157.615 34.0561C156.523 34.2241 154.591 34.6441 151.819 35.3161C145.687 36.7441 139.975 38.2561 134.683 39.8521L130.147 41.4901C127.795 45.8581 125.737 50.3101 123.973 54.8461C123.721 55.5181 123.427 56.2321 123.091 56.9881C122.755 57.7441 122.461 58.4581 122.209 59.1301C121.957 59.7181 121.453 60.9781 120.697 62.9101C119.941 64.7581 119.143 66.7741 118.303 68.9581C112.759 83.7421 109.987 93.5701 109.987 98.4421L110.113 100.584C110.113 101.004 110.029 101.214 109.861 101.214C109.693 101.214 109.273 101.298 108.601 101.466C107.845 101.466 107.257 101.592 106.837 101.844Z" fill="#636366"/>
<path d="M30.8298 77.2741C31.1658 77.2741 31.8378 77.1901 32.8458 77.0221C33.8538 76.7701 35.2398 76.4761 37.0038 76.1401L48.5958 73.8721C49.6878 68.6641 51.0318 62.9521 52.6278 56.7361C56.3238 41.9521 58.7178 32.7541 59.8098 29.1421C60.6498 25.5301 61.0698 23.5141 61.0698 23.0941C61.0698 22.9261 61.0278 22.8421 60.9438 22.8421C60.9438 22.8421 60.9438 22.7161 60.9438 22.4641C60.9438 22.1281 61.0698 21.5401 61.3218 20.7001C61.6578 19.7761 62.1618 18.6421 62.8338 17.2981L63.4638 15.6601L63.3378 15.5341C63.2538 15.5341 63.0018 15.9541 62.5818 16.7941C62.1618 17.5501 61.6578 18.5581 61.0698 19.8181C60.4818 20.9941 59.8938 22.0441 59.3058 22.9681C58.8018 23.8081 58.4238 24.3121 58.1718 24.4801C57.9198 24.6481 57.7518 24.7321 57.6678 24.7321C57.6678 24.4801 57.9618 24.0601 58.5498 23.4721L58.8018 22.8421C58.0458 22.8421 54.6858 28.3441 48.7218 39.3481C46.9578 42.8761 45.9498 44.7661 45.6978 45.0181C44.9418 46.0261 40.7838 54.3421 33.2238 69.9661C31.2078 74.2501 30.1998 76.5601 30.1998 76.8961C30.1998 77.1481 30.4098 77.2741 30.8298 77.2741ZM52.1238 84.4561C52.2918 84.4561 52.3758 84.2461 52.3758 83.8261C52.3758 83.7421 52.3338 83.6161 52.2498 83.4481C52.1658 83.2801 52.0818 83.1961 51.9978 83.1961C51.9138 83.1961 51.8718 83.4061 51.8718 83.8261C51.8718 84.2461 51.9138 84.4561 51.9978 84.4561H52.1238ZM51.6198 87.1021L51.8718 86.5981C51.8718 86.4301 51.8298 86.2621 51.7458 86.0941C51.6618 85.8421 51.5778 85.7161 51.4938 85.7161C51.4098 85.7161 51.3678 85.9261 51.3678 86.3461L51.4938 87.1021H51.6198ZM50.9898 90.0001L51.1158 89.7481C51.2838 89.6641 51.3678 89.4961 51.3678 89.2441C51.3678 89.0761 51.2838 88.9081 51.1158 88.7401L50.9898 88.4881C50.9058 88.4881 50.8638 88.7401 50.8638 89.2441C50.8638 89.7481 50.9058 90.0001 50.9898 90.0001ZM50.4858 93.0241C50.6538 93.0241 50.7378 92.7721 50.7378 92.2681L50.6118 91.2601H50.7378L50.6118 91.1341C50.5278 91.1341 50.4858 91.4701 50.4858 92.1421V93.0241ZM43.5558 75.8881C43.8078 75.8881 44.2278 75.8041 44.8158 75.6361C45.4878 75.4681 46.3278 75.3841 47.3358 75.3841C47.9238 75.3841 48.2178 75.2581 48.2178 75.0061C48.2178 74.8381 47.9658 74.7541 47.4618 74.7541C46.2858 74.7541 45.1938 74.9221 44.1858 75.2581C43.5138 75.5101 43.1778 75.6781 43.1778 75.7621C43.1778 75.8461 43.3038 75.8881 43.5558 75.8881ZM40.5318 76.5181C40.9518 76.5181 41.3718 76.4761 41.7918 76.3921C42.2118 76.2241 42.4218 76.0561 42.4218 75.8881C42.4218 75.8041 42.3378 75.7621 42.1698 75.7621C40.8258 75.7621 40.1538 75.9721 40.1538 76.3921C40.1538 76.4761 40.2798 76.5181 40.5318 76.5181ZM38.8938 76.8961L39.0198 76.7701C38.9358 76.6021 38.7678 76.5181 38.5158 76.5181C38.0118 76.5181 37.7598 76.5601 37.7598 76.6441C37.7598 76.8121 38.1378 76.8961 38.8938 76.8961ZM68.1258 2.93413C68.5458 2.93413 68.7558 2.80813 68.7558 2.55614C68.7558 2.13613 68.5458 1.92613 68.1258 1.92613C67.6218 1.92613 67.3699 2.09413 67.3699 2.43013C67.3699 2.59813 67.4538 2.72414 67.6218 2.80813C67.8738 2.89213 68.0418 2.93413 68.1258 2.93413ZM48.8478 106.128C48.5118 106.128 48.0918 106.002 47.5878 105.75C47.1678 105.498 46.7478 105.12 46.3278 104.616C45.9078 104.196 45.6138 103.986 45.4458 103.986H45.3198L45.5718 104.868C45.4878 104.868 45.2358 104.7 44.8158 104.364C44.4798 104.112 44.3118 103.398 44.3118 102.222C44.3118 101.55 44.3538 100.584 44.4378 99.3241C44.5218 98.1481 44.6898 96.5521 44.9418 94.5361C45.1938 92.5201 45.4458 90.6301 45.6978 88.8661C46.0338 87.0181 46.2858 85.5061 46.4538 84.3301C46.6218 83.0701 46.7058 82.3981 46.7058 82.3141C45.9498 82.3141 42.5478 83.0281 36.4998 84.4561C29.6958 86.0521 26.1258 87.1021 25.7898 87.6061C24.9498 88.6981 24.1098 90.6301 23.2698 93.4021C20.8338 99.8701 19.1118 103.104 18.1038 103.104C17.9358 103.104 17.8518 103.188 17.8518 103.356V103.608C17.8518 103.776 17.7678 103.986 17.5998 104.238C17.4318 104.574 17.1378 104.742 16.7178 104.742C16.6338 104.742 16.5498 104.7 16.4658 104.616L16.3398 104.49C16.2558 104.49 16.2138 104.49 16.2138 104.49C16.2138 104.574 16.2138 104.658 16.2138 104.742L16.3398 105.246C16.3398 105.33 16.2978 105.456 16.2138 105.624C16.0458 105.792 15.8358 105.876 15.5838 105.876C15.1638 105.876 14.7018 105.288 14.1978 104.112C13.6938 103.02 13.4418 101.676 13.4418 100.08C13.4418 98.1481 13.8618 95.9221 14.7018 93.4021C15.2058 91.6381 15.4578 90.5461 15.4578 90.1261V90.0001L10.9218 91.2601C9.15784 91.7641 8.02384 92.0161 7.51984 92.0161C7.18384 92.0161 6.84784 91.8061 6.51184 91.3861C6.09184 90.9661 5.50384 90.7561 4.74784 90.7561C3.99184 90.7561 3.02584 90.1681 1.84984 88.9921C1.00984 88.1521 0.589844 87.5641 0.589844 87.2281C0.589844 87.1441 0.631844 87.1021 0.715843 87.1021C1.21984 87.1021 1.72384 86.7661 2.22784 86.0941C2.81584 85.6741 4.57984 84.9601 7.51984 83.9521C11.4678 82.6081 15.5418 81.3901 19.7418 80.2981C25.4538 66.5221 31.8378 52.8721 38.8938 39.3481C47.2938 23.3041 54.1818 11.9641 59.5578 5.32813C62.4138 1.80013 64.1778 0.0361328 64.8498 0.0361328C64.9338 0.0361328 64.9758 0.0781324 64.9758 0.162131C64.9758 0.414133 64.7238 0.792133 64.2198 1.29613C63.7158 1.71613 63.4638 2.01013 63.4638 2.17813C63.4638 2.26213 63.5058 2.30413 63.5899 2.30413C63.7578 2.22013 63.9678 2.17813 64.2198 2.17813C64.5558 2.34613 64.8498 2.47213 65.1018 2.55614C65.4378 2.64014 65.6898 2.68214 65.8578 2.68214C66.2778 2.68214 66.7398 2.43013 67.2438 1.92613C67.8318 1.42213 68.2938 1.17013 68.6298 1.17013C69.0498 1.17013 69.2598 1.54813 69.2598 2.30413C69.2598 2.64013 69.4278 3.01813 69.7638 3.43813C70.0998 3.85813 70.4358 4.15213 70.7718 4.32014C71.1918 4.48813 71.5278 4.57213 71.7798 4.57213H72.4098L73.0398 4.69813C74.6358 5.45413 75.4338 6.79813 75.4338 8.73013C75.4338 10.2421 75.0558 12.1321 74.2998 14.4001C73.5438 17.0881 73.1238 18.6841 73.0398 19.1881C72.9558 19.6921 72.5778 21.0361 71.9058 23.2201L63.3378 51.8221C59.2218 66.5221 57.1638 74.7961 57.1638 76.6441V76.8961C57.5838 77.3161 58.0458 77.5261 58.5498 77.5261C59.0538 77.5261 59.5158 77.6941 59.9358 78.0301C60.6078 78.7861 60.9438 79.4161 60.9438 79.9201C60.9438 80.0881 60.9018 80.2141 60.8178 80.2981L60.6918 80.4241C60.6078 80.4241 60.5658 80.3401 60.5658 80.1721C60.5658 79.9201 60.1038 79.7941 59.1798 79.7941L56.0298 80.1721L54.2658 89.6221C53.4258 94.3261 52.9638 97.0981 52.8798 97.9381C52.6278 99.1141 52.4598 101.172 52.3758 104.112C52.2918 104.952 52.2078 105.372 52.1238 105.372L51.8718 105.246C51.6198 105.162 51.2838 105.078 50.8638 104.994C50.5278 104.91 50.2758 104.742 50.1078 104.49C49.9398 104.238 49.8558 103.692 49.8558 102.852L49.9818 97.9381L50.2338 94.0321L50.1078 93.7801C50.0238 93.9481 49.8978 94.4941 49.7298 95.4181C49.5618 96.4261 49.3938 97.7281 49.2258 99.3241C49.0578 101.004 48.9738 102.264 48.9738 103.104C48.9738 103.944 49.0578 104.448 49.2258 104.616C49.6458 105.036 49.8558 105.372 49.8558 105.624C49.8558 105.96 49.5198 106.128 48.8478 106.128Z" fill="#636366"/>
</svg>
