<svg width="147" height="100" viewBox="0 0 147 100" fill="none" xmlns="http://www.w3.org/2000/svg">
<path d="M102.598 35.0799C102.85 35.0799 102.976 34.6599 102.976 33.8199L102.85 33.6939L102.598 33.9459C102.43 34.0299 102.346 34.1979 102.346 34.4499C102.346 34.5339 102.346 34.6599 102.346 34.8279C102.43 34.9959 102.514 35.0799 102.598 35.0799ZM120.994 42.5139L120.238 40.8759C119.734 39.8679 119.314 39.3639 118.978 39.3639C118.81 39.3639 118.6 39.4059 118.348 39.4899C118.096 39.5739 117.886 39.6159 117.718 39.6159H117.592C117.592 39.8679 118.054 40.4139 118.978 41.2539C119.902 42.0939 120.574 42.5139 120.994 42.5139ZM126.286 49.6959L126.412 49.5699L125.278 47.9319H125.152C125.152 48.0999 125.278 48.4359 125.53 48.9399C125.866 49.4439 126.076 49.6959 126.16 49.6959H126.286ZM132.964 50.9559C133.888 50.9559 134.728 50.9139 135.484 50.8299C136.24 50.6619 136.744 50.5359 136.996 50.4519L137.248 50.3259C137.248 50.1579 136.198 50.0739 134.098 50.0739C131.998 50.0739 130.57 49.9479 129.814 49.6959L129.184 49.5699C129.184 50.4939 130.444 50.9559 132.964 50.9559ZM135.484 55.9959C135.148 55.8279 134.77 55.7019 134.35 55.618C134.014 55.45 133.636 55.3239 133.216 55.2399C132.796 55.0719 132.124 54.9879 131.2 54.9879C132.124 55.4919 132.796 55.7859 133.216 55.8699C133.72 55.9539 134.476 55.9959 135.484 55.9959ZM101.716 59.1459L102.094 58.8939C102.262 58.7259 102.43 58.4739 102.598 58.1379C102.85 57.8019 102.976 57.5499 102.976 57.3819C102.976 57.2139 102.892 57.1299 102.724 57.1299C102.64 57.1299 102.43 57.2559 102.094 57.5079C101.842 57.7599 101.716 58.2639 101.716 59.0199V59.1459ZM90.8804 92.41C90.7964 92.41 90.6284 92.2839 90.3764 92.0319C89.7044 91.6959 89.0324 91.1919 88.3604 90.5199C88.1084 90.3519 87.9404 90.2679 87.8564 90.2679C87.6884 90.2679 86.8904 89.806 85.4624 88.882C83.9504 88.042 83.0684 87.2859 82.8164 86.6139C82.8164 83.8419 83.5304 79.7259 84.9584 74.2659C86.3864 68.8059 88.3184 62.7159 90.7544 55.9959C94.7024 44.7399 97.9364 37.7679 100.456 35.0799C101.548 33.8199 102.388 33.1899 102.976 33.1899C103.312 33.1899 103.48 33.4419 103.48 33.9459C103.48 34.7859 103.648 35.4579 103.984 35.9619C104.404 36.8019 104.95 37.2219 105.622 37.2219C105.79 37.2219 105.958 37.1799 106.126 37.0959C106.294 36.9279 106.504 36.8439 106.756 36.8439C107.008 36.8439 107.974 37.5159 109.654 38.8599L109.024 41.2539C108.604 42.5139 108.268 43.1439 108.016 43.1439C107.764 43.1439 107.386 43.6899 106.882 44.7819C105.874 47.0499 104.908 49.7379 103.984 52.8459L103.606 54.9879H103.732C104.32 54.9879 106.042 52.9719 108.898 48.9399C113.938 41.8839 117.298 38.3559 118.978 38.3559C119.65 38.6079 120.238 39.2379 120.742 40.2459C121.162 40.9179 122.128 41.7999 123.64 42.8919C124.816 43.5639 125.95 44.6559 127.042 46.1679C127.546 47.0919 128.05 47.7219 128.554 48.0579C129.73 48.8139 131.368 49.1919 133.468 49.1919C136.324 49.1919 138.634 48.9399 140.398 48.4359C140.398 48.5199 140.104 48.7719 139.516 49.1919C138.928 49.5279 138.634 49.7799 138.634 49.9479C138.634 50.2839 139.054 50.4519 139.894 50.4519C140.818 50.4519 141.574 50.7459 142.162 51.3339C142.498 51.9219 142.96 52.2159 143.548 52.2159C143.632 52.1319 143.758 52.0899 143.926 52.0899C144.094 52.0899 144.304 52.1739 144.556 52.3419C144.892 52.5099 145.186 52.8039 145.438 53.2239C145.774 53.5599 145.984 53.8539 146.068 54.1059C146.068 54.3579 145.816 54.6099 145.312 54.8619C144.052 55.6179 142.582 56.0799 140.902 56.2479C139.558 56.2479 138.886 56.3739 138.886 56.6259C138.886 56.8779 138.256 57.0039 136.996 57.0039C135.484 57.0039 134.224 56.9619 133.216 56.8779C132.292 56.7099 131.62 56.5419 131.2 56.3739C130.78 56.1219 130.066 55.6179 129.058 54.8619C128.05 54.0219 127 53.0979 125.908 52.0899C124.816 50.9979 123.892 50.1999 123.136 49.6959C122.464 49.1919 122.002 48.9399 121.75 48.9399C120.994 48.9399 117.592 53.5179 111.544 62.6739C106.672 70.0659 101.59 78.0879 96.2984 86.7399C95.4584 88.1679 94.4504 89.47 93.2744 90.646C92.0984 91.822 91.3004 92.41 90.8804 92.41Z" fill="#B3B3B3"/>
<path d="M71.1562 67.5881C71.1562 67.4201 70.9463 67.0001 70.5263 66.3281C69.1823 64.1441 68.4263 63.0521 68.2583 63.0521V63.1781C68.2583 63.5141 68.4263 64.0601 68.7623 64.8161C69.1823 65.4881 69.6442 66.1181 70.1483 66.7061C70.6523 67.2941 70.9883 67.5881 71.1562 67.5881ZM72.5423 65.1941C72.7943 65.1941 73.3822 64.3121 74.3062 62.5481C78.3382 54.8201 80.5222 48.3101 80.8582 43.0181L80.9842 40.2461C80.9842 39.4901 80.9422 39.1121 80.8582 39.1121C79.7662 39.1121 78.3383 40.1201 76.5743 42.1361C74.8103 44.1521 73.3403 46.4201 72.1642 48.9401C70.9882 51.4601 70.4002 54.2741 70.4002 57.3821C70.4002 59.4821 70.6942 61.3301 71.2822 62.9261C71.9542 64.4381 72.3743 65.1941 72.5423 65.1941ZM82.4963 34.3241L82.1183 33.4421C81.1943 31.8461 79.8083 31.0481 77.9603 31.0481H77.2043C76.1122 31.2161 75.5662 31.3841 75.5662 31.5521C75.5662 31.7201 76.1542 31.8461 77.3302 31.9301C78.5903 32.0141 79.2202 32.1821 79.2202 32.4341V32.6861C79.2202 32.8541 79.3883 33.0221 79.7243 33.1901C80.0603 33.3581 80.3962 33.5261 80.7323 33.6941C81.0683 33.7781 81.4043 33.9041 81.7403 34.0721C82.0763 34.2401 82.2862 34.3241 82.3703 34.3241H82.4963ZM82.1183 58.8941C82.4543 58.8941 83.1263 57.4661 84.1343 54.6101C84.8062 52.3421 85.1423 51.0401 85.1423 50.7041V50.4521C85.0583 50.4521 84.8903 50.7041 84.6383 51.2081C84.0503 52.5521 83.4623 54.4001 82.8743 56.7521L82.1183 58.8941ZM85.8983 42.2621C85.9822 42.2621 86.0662 42.1361 86.1502 41.8841C86.1502 41.5481 85.9823 40.9181 85.6463 39.9941C85.1423 38.6501 84.7642 37.9781 84.5122 37.9781C84.2602 37.9781 84.1343 38.1041 84.1343 38.3561C84.5543 39.1961 84.9323 40.0781 85.2683 41.0021C85.6043 41.8421 85.8143 42.2621 85.8983 42.2621ZM85.3943 48.8141C85.5623 48.8141 85.6463 48.4781 85.6463 47.8061C85.6463 47.0501 85.5623 46.6721 85.3943 46.6721C85.3103 46.6721 85.2683 47.0501 85.2683 47.8061C85.2683 48.4781 85.3103 48.8141 85.3943 48.8141ZM80.6063 62.4221C80.6902 62.4221 80.9003 62.0861 81.2363 61.4141C81.7403 60.9101 81.9923 60.3641 81.9923 59.7761V59.6501C81.9083 59.6501 81.6982 59.9021 81.3622 60.4061C81.1102 60.9101 80.9003 61.3301 80.7323 61.6661C80.6483 61.9181 80.6063 62.1281 80.6063 62.2961V62.4221ZM52.0042 83.4641C52.6762 83.4641 54.1042 82.9181 56.2882 81.8261C60.9923 79.3901 64.8983 76.2401 68.0063 72.3761L70.2743 69.4781L67.1243 66.2021C65.6963 64.6061 64.3103 62.7161 62.9663 60.5321C61.7063 58.3481 61.0763 56.7941 61.0763 55.8701C61.0763 55.7021 61.0342 55.6181 60.9502 55.6181C60.8662 55.7021 60.6563 55.9121 60.3203 56.2481C60.0683 56.5001 59.9422 56.8781 59.9422 57.3821L60.0682 57.7601C60.0682 57.9281 59.9423 58.0121 59.6903 58.0121C59.4383 58.0121 59.3123 58.0961 59.3123 58.2641L59.4383 58.6421C59.4383 58.9781 59.2702 59.3141 58.9342 59.6501C58.5982 59.9861 58.4303 60.2801 58.4303 60.5321V60.7841C58.4303 60.9521 58.3042 61.0361 58.0522 61.0361C57.8002 61.0361 57.6743 61.1201 57.6743 61.2881L57.5483 62.5481C57.2123 63.6401 56.8342 64.1861 56.4142 64.1861H56.0363C56.0363 64.2701 56.0783 64.3541 56.1623 64.4381C56.2463 64.4381 56.2882 64.4801 56.2882 64.5641C56.2882 65.0681 56.0783 65.6561 55.6583 66.3281L55.0283 67.8401H55.1543L54.9022 68.4701C54.0622 69.8141 53.6423 70.7801 53.6423 71.3681C53.6423 71.8721 53.4743 72.2921 53.1383 72.6281L52.6343 74.2661C52.1303 75.7781 51.7943 77.1221 51.6263 78.2981C51.3743 80.0621 51.2482 81.2801 51.2482 81.9521C51.2482 82.9601 51.5002 83.4641 52.0042 83.4641ZM54.5243 90.5201L54.6502 90.3941C54.6502 90.2261 54.2723 90.1421 53.5163 90.1421C52.7603 90.1421 52.3822 90.2261 52.3822 90.3941C52.3822 90.4781 53.0962 90.5201 54.5243 90.5201ZM52.2563 84.9761C52.5923 84.9761 52.8863 84.9341 53.1383 84.8501C53.3903 84.7661 53.5582 84.6821 53.6423 84.5981C53.8102 84.4301 53.8942 84.3041 53.8942 84.2201C53.8942 84.1361 53.8102 84.0941 53.6423 84.0941C53.3903 84.0941 52.8862 84.2621 52.1302 84.5981C51.7102 84.7661 51.5003 84.8921 51.5003 84.9761H52.2563ZM53.1383 92.0321C52.6343 92.0321 52.2562 91.9901 52.0042 91.9061C51.8362 91.8221 51.6262 91.6961 51.3742 91.5281C45.5782 88.1681 42.0923 85.5221 40.9163 83.5901C40.0763 82.1621 39.6562 79.9781 39.6562 77.0381C39.6562 71.4941 41.3363 65.4041 44.6963 58.7681C51.9203 44.7401 59.6903 35.2481 68.0063 30.2921C68.9303 29.7881 69.6023 29.5361 70.0223 29.5361C70.5263 29.5361 70.8623 29.6621 71.0303 29.9141C71.2822 30.0821 71.4503 30.2501 71.5343 30.4181C71.6183 30.5021 71.7023 30.9641 71.7863 31.8041C71.7023 31.8041 71.6183 31.6361 71.5343 31.3001C71.4503 30.6281 71.0722 30.2921 70.4002 30.2921C70.0643 30.2921 69.6023 30.4181 69.0143 30.6701C68.7623 30.7541 68.6362 30.8381 68.6362 30.9221C68.6362 31.1741 69.1402 31.4261 70.1483 31.6781C70.7363 31.8461 71.1983 31.9301 71.5343 31.9301C72.1223 31.9301 72.6683 31.7621 73.1723 31.4261C74.3483 30.5021 75.6083 30.0401 76.9523 30.0401C77.4563 30.0401 78.2543 30.1661 79.3462 30.4181C80.4382 30.5861 81.5722 31.5941 82.7482 33.4421C83.5882 34.7021 84.4703 35.7101 85.3943 36.4661C87.3263 38.4821 88.5443 40.9181 89.0483 43.7741C89.1323 44.1941 89.1743 44.6981 89.1743 45.2861C89.1743 47.4701 88.6282 50.4521 87.5363 54.2321C86.4443 58.0121 84.3862 62.9681 81.3622 69.1001C80.8582 69.9401 80.6063 70.5281 80.6063 70.8641C80.6063 71.1161 80.7322 71.2421 80.9842 71.2421C81.3202 71.2421 81.6983 71.3681 82.1183 71.6201C83.7143 72.5441 84.5122 73.3421 84.5122 74.0141C84.5122 74.1821 84.4283 74.3501 84.2603 74.5181C84.0922 74.6861 83.7983 74.7701 83.3783 74.7701C83.1263 74.7701 82.1603 74.5601 80.4803 74.1401C79.6403 73.8881 79.0523 73.7621 78.7163 73.7621C78.2123 73.7621 77.9603 73.8461 77.9603 74.0141C77.9603 74.0981 78.0863 74.1821 78.3383 74.2661C78.5903 74.3501 78.8002 74.4341 78.9683 74.5181C79.7243 74.7701 80.4803 74.8961 81.2363 74.8961L81.3622 75.1481C81.1102 75.4001 80.4382 75.5261 79.3462 75.5261L78.7163 75.4001C77.8763 75.4001 76.8682 76.1981 75.6922 77.7941C71.2402 83.1701 66.0743 87.3281 60.1943 90.2681C57.6743 91.4441 55.3223 92.0321 53.1383 92.0321Z" fill="#B3B3B3"/>
<path d="M51.4616 3.45409C52.1336 3.45409 52.4696 3.37009 52.4696 3.20208L52.3436 3.07608L51.3356 2.95009C51.1676 2.95009 50.9996 2.99209 50.8316 3.07608L50.5796 3.20208C50.5796 3.37009 50.8736 3.45409 51.4616 3.45409ZM37.7276 29.6621L37.8536 29.5361L37.7276 29.4101C37.6436 29.3261 37.5176 29.2841 37.3496 29.2841C37.1816 29.2841 37.0136 29.3261 36.8456 29.4101C36.6776 29.4941 36.5936 29.5781 36.5936 29.6621H37.7276ZM7.23559 99.2141C7.31959 99.2141 7.36159 99.1721 7.36159 99.0881C7.36159 98.7521 7.27759 98.2901 7.10959 97.7021C6.85759 97.1981 6.64759 96.9461 6.47959 96.9461L6.35359 97.4501C6.35359 97.6181 6.39559 97.8281 6.47959 98.0801C6.47959 98.3321 6.56359 98.5841 6.73159 98.8361C6.89959 99.0881 7.06759 99.2141 7.23559 99.2141ZM6.73159 99.8441H6.47959L3.95959 99.2141C2.44759 98.7941 1.52359 98.2481 1.18759 97.5761C0.851594 96.9881 0.683594 96.1901 0.683594 95.1821C0.683594 91.9061 2.19559 85.2701 5.21959 75.2741C7.57159 67.2941 10.0496 60.3641 12.6536 54.4841L13.5356 52.2161C14.0396 50.7041 14.6276 49.1501 15.2996 47.5541C16.0556 45.9581 16.4336 45.0761 16.4336 44.9081C16.4336 44.6561 16.3076 44.4881 16.0556 44.4041C15.8876 44.2361 15.7616 44.0681 15.6776 43.9001C15.5936 43.6481 15.5516 43.4381 15.5516 43.2701V43.0181C15.5516 42.6821 15.2996 42.5141 14.7956 42.5141H14.5436C13.8716 42.5141 13.0316 42.0101 12.0236 41.0021C11.0156 39.9941 10.5116 39.3641 10.5116 39.1121C10.5116 39.0281 10.5116 38.9441 10.5116 38.8601C10.5116 38.7761 10.5956 38.6921 10.7636 38.6081C11.0156 38.4401 11.2256 38.3141 11.3936 38.2301C11.5616 38.0621 11.7716 37.8941 12.0236 37.7261C12.3596 37.4741 12.6536 37.2221 12.9056 36.9701C13.2416 36.7181 13.8716 36.3821 14.7956 35.9621C15.7196 35.4581 16.8116 34.9541 18.0716 34.4501C19.3316 33.9461 20.5916 33.4001 21.8516 32.8121L26.0096 24.4961C28.4456 19.6241 29.6636 16.8521 29.6636 16.1801L29.5376 16.0541C29.2016 16.3061 29.0336 16.5161 29.0336 16.6841V16.9361C29.0336 17.2721 28.6136 17.4401 27.7736 17.4401C26.6816 17.4401 26.1356 17.2721 26.1356 16.9361C26.1356 16.6001 25.6736 16.4321 24.7496 16.4321C23.9096 16.4321 22.8596 15.9281 21.5996 14.9201L19.8356 13.4081C20.4236 12.8201 21.0116 12.1901 21.5996 11.5181C22.2716 10.7621 22.9016 10.3841 23.4896 10.3841L24.1196 10.5101L23.9936 10.2581C23.9936 9.92208 24.9176 9.33408 26.7656 8.49408C34.9136 4.96608 45.8336 2.61408 59.5256 1.43808C62.7176 1.10208 65.4056 0.934082 67.5896 0.934082C69.4376 0.934082 70.8656 1.06008 71.8736 1.31209C72.5456 1.39608 72.8816 1.48008 72.8816 1.56408C72.8816 1.64808 71.5376 1.69008 68.8496 1.69008C67.0856 1.69008 65.0276 1.77408 62.6756 1.94208C60.4076 2.02608 58.3916 2.15208 56.6276 2.32009C54.9476 2.40409 54.0236 2.53008 53.8556 2.69808C53.8556 2.78208 54.4856 2.82408 55.7456 2.82408L65.5736 2.57208C68.1776 2.57208 70.4456 2.82408 72.3776 3.32808C74.3096 3.83208 76.4516 5.30209 78.8036 7.73808C79.8116 8.74609 80.3156 9.75409 80.3156 10.7621C80.3156 11.3501 80.0636 11.6441 79.5596 11.6441C79.2236 11.6441 79.0556 11.5601 79.0556 11.3921V11.1401C79.0556 10.8041 78.8456 10.6361 78.4256 10.6361C78.0896 10.6361 77.9216 10.5521 77.9216 10.3841C77.9216 10.3001 78.0056 10.1741 78.1736 10.0061C78.4256 9.75408 78.5516 9.54408 78.5516 9.37609C78.5516 9.04008 78.4256 8.87209 78.1736 8.87209C77.9216 8.87209 77.7116 9.12408 77.5436 9.62808C77.2076 10.4681 76.8296 10.8881 76.4096 10.8881C75.9896 10.8881 75.6536 10.4681 75.4016 9.62808C75.3176 9.12408 75.1916 8.74609 75.0236 8.49408C74.8556 8.24209 73.9736 8.11609 72.3776 8.11609C69.7736 8.11609 65.9516 8.45209 60.9116 9.12408C55.9556 9.71209 51.4616 10.4261 47.4296 11.2661C46.5896 11.4341 45.9596 11.6021 45.5396 11.7701C45.1196 11.9381 44.7836 12.2321 44.5316 12.6521C44.2796 12.9881 43.6496 14.1641 42.6416 16.1801C41.2136 19.2881 39.9536 21.7241 38.8616 23.4881L37.9796 25.1261C36.9716 27.1421 36.4676 28.2761 36.4676 28.5281C36.8876 28.5281 38.7776 28.1501 42.1376 27.3941C48.1856 26.1341 51.9236 25.5041 53.3516 25.5041C53.6036 25.5041 53.7296 25.5461 53.7296 25.6301C53.7296 25.7141 53.4776 25.8401 52.9736 26.0081C52.4696 26.1761 51.8396 26.3021 51.0836 26.3861C50.3276 26.4701 49.3616 26.6381 48.1856 26.8901C47.0936 27.0581 46.0016 27.2681 44.9096 27.5201C43.8176 27.7721 42.9356 27.9821 42.2636 28.1501L41.1296 28.5281H41.5076C42.0116 28.5281 43.3976 28.3181 45.6656 27.8981C48.6056 27.4781 50.9576 27.2681 52.7216 27.2681C54.4856 27.3521 55.9136 27.7301 57.0056 28.4021C58.0976 28.9901 58.8956 29.5361 59.3996 30.0401C59.9036 30.5441 60.1556 30.9221 60.1556 31.1741C60.1556 31.5101 59.2736 31.8041 57.5096 32.0561C56.4176 32.2241 54.4856 32.6441 51.7136 33.3161C45.5816 34.7441 39.8696 36.2561 34.5776 37.8521L30.0416 39.4901C27.6896 43.8581 25.6316 48.3101 23.8676 52.8461C23.6156 53.5181 23.3216 54.2321 22.9856 54.9881C22.6496 55.7441 22.3556 56.4581 22.1036 57.1301C21.8516 57.7181 21.3476 58.9781 20.5916 60.9101C19.8356 62.7581 19.0376 64.7741 18.1976 66.9581C12.6536 81.7421 9.88159 91.5701 9.88159 96.4421L10.0076 98.5841C10.0076 99.0041 9.92359 99.2141 9.75559 99.2141C9.58759 99.2141 9.16759 99.2981 8.49559 99.4661C7.73959 99.4661 7.15159 99.5921 6.73159 99.8441Z" fill="#B3B3B3"/>
</svg>
