<svg width="998" height="99" viewBox="0 0 998 99" fill="none" xmlns="http://www.w3.org/2000/svg">
<path d="M905.571 97.0001L911.459 60.1361L870.883 1.76807H905.443L928.995 36.8401L964.067 1.76807H997.987L940.515 60.1361L934.627 97.0001H905.571Z" fill="#F8F8F8"/>
<path d="M786.487 97.0001L798.007 24.2961H758.711L762.167 1.76807H870.327L866.743 24.2961H827.447L815.927 97.0001H786.487Z" fill="#F8F8F8"/>
<path d="M752.691 1.76807L737.587 97.0001H708.531L723.635 1.76807H752.691Z" fill="#F8F8F8"/>
<path d="M624.725 97.0001L589.781 1.76807H621.653L646.101 72.2961L688.341 1.76807H719.189L661.077 97.0001H624.725Z" fill="#F8F8F8"/>
<path d="M586.191 1.76807L571.087 97.0001H542.031L557.135 1.76807H586.191Z" fill="#F8F8F8"/>
<path d="M463.862 97.0001L475.382 24.2961H436.086L439.542 1.76807H547.702L544.118 24.2961H504.822L493.302 97.0001H463.862Z" fill="#F8F8F8"/>
<path d="M430.066 1.76807L414.962 97.0001H385.906L401.01 1.76807H430.066Z" fill="#F8F8F8"/>
<path d="M315.096 98.664C266.84 98.664 263.256 76.776 264.792 63.208H294.872C295 69.224 296.792 78.312 320.728 78.312H322.264C348.888 78.312 350.68 71.784 350.68 67.048C350.68 61.928 347.864 59.112 329.304 58.6L313.432 58.216C280.28 57.448 271.064 45.032 271.064 30.44C271.064 28.648 271.192 27.24 271.448 25.448C273.368 12.392 282.968 0.104004 325.336 0.104004H333.528C377.56 0.104004 385.88 15.72 383.96 31.464H354.008C353.624 27.624 352.6 19.944 328.408 19.944H326.616C302.808 19.944 301.4 24.68 301.4 28.52C301.4 32.104 303.192 36.2 320.472 36.456L335.832 36.712C369.624 37.224 381.784 45.8 381.784 63.464C381.784 65.768 381.528 68.712 381.144 70.632C378.328 84.456 370.136 98.664 323.416 98.664H315.096Z" fill="#F8F8F8"/>
<path d="M187.563 98.664C135.723 98.664 125.227 73.448 125.227 56.424C125.227 53.48 125.227 50.28 125.867 45.672C128.171 30.056 136.107 0.104004 194.731 0.104004H200.235C251.691 0.104004 262.699 24.552 262.699 41.704C262.699 45.032 262.571 48.488 262.059 52.072C259.627 68.456 251.819 98.664 193.067 98.664H187.563ZM231.979 44.776C231.979 34.28 224.811 23.144 196.523 23.144C164.907 23.144 157.355 37.224 156.459 48.104C156.331 49.768 156.331 51.048 156.331 52.456C156.331 62.824 162.603 75.496 191.403 75.496C222.507 75.496 230.059 61.416 231.595 49.896C231.851 47.976 231.979 46.568 231.979 44.776Z" fill="#F8F8F8"/>
<path d="M29.3373 97.0001H0.28125L15.3853 1.76807H82.5853C113.817 1.76807 123.929 13.5441 123.929 30.1841C123.929 45.5441 116.505 65.2561 77.9773 65.2561H34.4573L29.3373 97.0001ZM37.6573 43.8801H77.8493C88.6013 43.8801 92.9533 39.0161 92.9533 32.2321C92.9533 26.4721 89.1133 23.4001 80.9213 23.4001H40.9853L37.6573 43.8801Z" fill="#F8F8F8"/>
</svg>
