<svg width="301" height="152" viewBox="0 0 301 152" fill="none" xmlns="http://www.w3.org/2000/svg">
<path d="M297.408 62.0259C297.492 62.0259 297.534 61.9419 297.534 61.7739C297.534 61.1019 297.45 60.7659 297.282 60.7659C297.198 60.7659 297.114 60.9759 297.03 61.3959C297.03 61.8159 297.114 62.0259 297.282 62.0259H297.408ZM296.652 65.8059C296.904 65.7219 297.03 65.3019 297.03 64.5459C297.03 63.4539 296.946 62.9079 296.778 62.9079C296.694 62.9079 296.61 63.3699 296.526 64.2939L296.4 65.4279C296.4 65.6799 296.442 65.8059 296.526 65.8059H296.652ZM295.896 68.7039L296.148 68.4519C296.4 68.1999 296.526 67.8639 296.526 67.4439C296.442 67.1919 296.358 67.0659 296.274 67.0659C296.19 67.0659 296.106 67.1079 296.022 67.1919C296.022 67.2759 295.98 67.4859 295.896 67.8219C295.812 68.0739 295.77 68.2839 295.77 68.4519C295.77 68.6199 295.812 68.7039 295.896 68.7039ZM289.848 51.4419C290.184 51.4419 290.352 51.3579 290.352 51.1899C290.352 50.9379 290.184 50.6019 289.848 50.1819C289.512 49.6779 288.966 49.4259 288.21 49.4259C287.202 49.4259 285.648 49.9719 283.548 51.0639L285.312 50.5599C285.816 50.5599 286.362 50.6439 286.95 50.8119C287.622 50.8959 288.21 51.0219 288.714 51.1899C289.218 51.3579 289.596 51.4419 289.848 51.4419ZM247.89 101.968C248.058 101.968 248.646 101.548 249.654 100.708C251.922 99.3639 255.282 96.5079 259.734 92.1399C265.362 86.6799 270.444 80.9259 274.98 74.8779L284.304 62.4039C285.648 60.6399 286.32 59.4639 286.32 58.8759L286.194 58.7499L285.816 58.8759C282.288 61.0599 277.836 64.8399 272.46 70.2159C264.9 77.7759 258.18 85.8399 252.3 94.4079C249.276 98.7759 247.764 101.254 247.764 101.842L247.89 101.968ZM244.74 112.174V112.048C244.74 111.964 244.656 111.838 244.488 111.67C244.32 111.502 243.984 111.418 243.48 111.418L243.102 111.544C242.682 111.712 242.472 111.838 242.472 111.922C242.472 112.09 243.228 112.174 244.74 112.174ZM281.406 112.048C281.49 112.048 281.7 111.712 282.036 111.04C282.456 110.452 282.666 109.906 282.666 109.402V109.276C282.582 109.276 282.33 109.654 281.91 110.41C281.49 111.166 281.28 111.67 281.28 111.922C281.28 112.006 281.322 112.048 281.406 112.048ZM276.87 121.372C276.954 121.372 277.164 121.078 277.5 120.49C277.836 119.902 278.214 119.146 278.634 118.222C279.054 117.382 279.39 116.668 279.642 116.08C279.894 115.576 280.02 115.24 280.02 115.072C279.936 115.072 279.726 115.324 279.39 115.828C279.054 116.416 278.676 117.172 278.256 118.096C277.836 119.02 277.5 119.734 277.248 120.238C276.996 120.826 276.87 121.204 276.87 121.372ZM252.048 143.548C253.476 142.624 254.736 141.742 255.828 140.902C261.288 136.45 266.79 128.848 272.334 118.096C274.098 115.156 274.98 113.392 274.98 112.804C274.98 112.636 274.896 112.552 274.728 112.552C274.224 112.552 272.166 114.652 268.554 118.852C260.406 128.008 255.114 135.694 252.678 141.91L252.048 143.548ZM252.804 150.982L252.93 150.856C252.93 150.772 252.762 150.646 252.426 150.478C252.174 150.31 251.838 150.184 251.418 150.1C250.998 150.016 250.662 149.974 250.41 149.974C249.654 150.058 249.276 150.226 249.276 150.478L249.402 150.73C249.57 150.898 250.704 150.982 252.804 150.982ZM251.418 151.486H250.284C249.696 151.486 248.856 150.94 247.764 149.848C247.344 149.512 246.84 149.134 246.252 148.714C245.748 148.294 245.286 147.874 244.866 147.454C243.942 146.866 243.354 146.236 243.102 145.564C242.85 144.976 242.724 144.22 242.724 143.296C242.976 138.424 246.504 131.326 253.308 122.002C255.996 118.474 259.86 114.19 264.9 109.15C269.94 104.11 274.224 100.246 277.752 97.5579L282.666 93.9039L285.186 85.9659C288.126 77.3979 289.596 72.5259 289.596 71.3499C289.596 71.2659 289.554 71.2239 289.47 71.2239C289.386 71.2239 288.798 71.9379 287.706 73.3659C286.698 74.7099 285.48 76.3059 284.052 78.1539C270.192 95.7939 258.642 107.008 249.402 111.796C247.218 113.056 245.538 113.686 244.362 113.686C244.194 113.686 243.816 113.644 243.228 113.56C242.556 113.476 241.128 112.426 238.944 110.41L235.164 107.008L235.29 104.11C235.878 99.1539 239.532 92.3079 246.252 83.5719C252.972 74.8359 260.868 66.6039 269.94 58.8759C275.736 54.0039 280.692 50.8539 284.808 49.4259C286.236 48.9219 287.37 48.6699 288.21 48.6699C289.974 48.6699 290.856 49.5939 290.856 51.4419C290.856 52.1139 291.108 52.4499 291.612 52.4499L293.628 52.1979C294.384 52.1979 294.846 52.5339 295.014 53.2059C295.182 53.7939 295.518 54.3399 296.022 54.8439C296.526 55.3479 296.946 55.5999 297.282 55.5999H297.408C297.66 55.5999 298.248 56.1039 299.172 57.1119C300.096 58.1199 300.558 59.0439 300.558 59.8839C300.558 67.0239 297.87 78.3639 292.494 93.9039H293.754C294.174 93.9039 294.636 94.0719 295.14 94.4079C295.728 94.7439 296.022 95.0799 296.022 95.4159C296.022 95.5839 295.938 95.7099 295.77 95.7939C295.602 95.7939 295.266 95.9199 294.762 96.1719C292.998 97.1799 291.822 98.0619 291.234 98.8179C290.646 99.4899 289.722 101.38 288.462 104.488C281.406 121.54 274.014 134.224 266.286 142.54C264.102 144.976 262.212 146.782 260.616 147.958C259.104 149.134 257.466 150.016 255.702 150.604C253.938 151.192 252.51 151.486 251.418 151.486Z" fill="#636366"/>
<path d="M241.596 91.636C241.428 91.636 241.344 91.594 241.344 91.51C241.344 91.426 241.47 91.258 241.722 91.006C241.974 90.754 242.226 90.628 242.478 90.628L242.604 90.754C242.604 90.838 242.52 91.006 242.352 91.258C242.268 91.51 242.016 91.636 241.596 91.636ZM192.834 108.52C193.002 108.352 193.086 108.184 193.086 108.016C193.086 107.596 193.002 107.386 192.834 107.386C192.666 107.386 192.582 107.554 192.582 107.89C192.582 108.31 192.624 108.52 192.708 108.52H192.834ZM239.076 50.56C239.244 50.392 239.412 50.014 239.58 49.426C239.58 49.258 239.496 49.132 239.328 49.048C239.16 49.048 238.824 49.174 238.32 49.426C237.9 49.678 237.69 49.888 237.69 50.056C237.69 50.392 238.068 50.56 238.824 50.56H239.076ZM195.984 111.166C195.816 111.166 195.144 110.788 193.968 110.032V110.284C193.38 109.948 192.96 109.654 192.708 109.402C192.372 109.15 192.204 108.772 192.204 108.268C192.12 107.764 192.078 107.008 192.078 106C192.414 98.776 195.396 87.856 201.024 73.24C204.636 63.916 207.492 57.868 209.592 55.096C210.684 53.836 211.65 53.206 212.49 53.206C213.162 53.206 213.918 53.416 214.758 53.836C216.438 54.76 218.202 55.432 220.05 55.852L221.94 56.356L221.31 57.364C220.89 58.288 220.386 59.254 219.798 60.262C219.294 61.27 218.958 61.984 218.79 62.404C218.706 62.824 218.496 63.496 218.16 64.42C217.824 65.26 217.446 66.184 217.026 67.192C216.354 68.788 215.724 70.258 215.136 71.602C214.632 72.862 214.38 73.702 214.38 74.122L214.506 74.248C214.506 74.416 214.338 74.5 214.002 74.5C213.75 74.5 213.624 74.584 213.624 74.752V74.878L212.868 77.02C212.364 78.028 212.112 78.616 212.112 78.784C212.364 78.784 213.666 77.104 216.018 73.744C216.69 72.904 217.32 72.022 217.908 71.098C218.16 70.846 218.37 70.552 218.538 70.216C221.394 66.352 224.376 62.908 227.484 59.884C230.928 56.44 233.154 54.046 234.162 52.702C236.094 49.846 237.732 48.418 239.076 48.418C239.916 48.418 240.336 49.09 240.336 50.434L240.462 51.19C240.546 51.862 241.134 52.198 242.226 52.198L242.604 52.072C243.276 52.072 244.032 52.534 244.872 53.458C245.712 54.298 246.132 55.054 246.132 55.726C246.132 57.91 244.998 63.328 242.73 71.98C242.394 73.072 241.596 76.306 240.336 81.682C239.58 85.042 239.16 87.982 239.076 90.502C239.076 92.266 239.286 93.148 239.706 93.148C239.958 93.148 240.252 93.064 240.588 92.896C240.924 92.728 241.26 92.602 241.596 92.518C242.436 92.35 242.982 92.014 243.234 91.51C243.234 91.426 243.402 91.3 243.738 91.132C244.914 90.796 246.09 90.376 247.266 89.872C247.77 89.62 248.148 89.494 248.4 89.494C248.652 89.578 248.988 89.83 249.408 90.25C249.828 90.67 250.206 90.964 250.542 91.132C250.878 91.216 251.172 91.258 251.424 91.258C251.76 91.258 252.012 91.3 252.18 91.384C251.928 91.804 251.466 92.266 250.794 92.77C251.382 92.77 251.676 92.938 251.676 93.274C251.676 93.442 251.55 93.61 251.298 93.778C250.542 94.198 249.87 94.618 249.282 95.038C247.77 96.046 246.384 96.802 245.124 97.306C243.864 97.81 242.352 98.062 240.588 98.062C238.488 98.062 236.556 97.6 234.792 96.676C233.028 95.668 231.852 94.534 231.264 93.274C230.676 92.014 230.382 90.25 230.382 87.982C230.382 83.95 231.222 78.238 232.902 70.846C232.986 70.426 233.112 69.754 233.28 68.83C233.532 67.906 233.742 66.982 233.91 66.058C234.162 65.134 234.288 64.546 234.288 64.294C233.532 64.294 230.508 67.906 225.216 75.13C220.344 81.85 217.194 86.386 215.766 88.738C207.618 101.086 202.914 107.974 201.654 109.402C200.814 110.326 200.226 110.788 199.89 110.788C199.638 110.788 199.428 110.704 199.26 110.536C199.092 110.452 198.882 110.41 198.63 110.41C198.294 110.41 197.916 110.494 197.496 110.662C196.992 110.83 196.614 110.956 196.362 111.04L195.984 111.166ZM243.612 90.376H243.36L244.62 89.494V89.746C244.62 89.83 244.452 89.956 244.116 90.124L243.612 90.376Z" fill="#636366"/>
<path d="M206.749 35.0619C206.413 35.0619 205.825 35.0199 204.985 34.9359C204.145 34.8519 203.263 34.4739 202.339 33.8019C201.499 33.0459 201.079 32.3319 201.079 31.6599C201.079 30.6519 202.171 28.1739 204.355 24.2259C205.867 21.3699 207.043 19.9419 207.883 19.9419C208.135 19.9419 208.261 20.2359 208.261 20.8239C208.261 21.3279 208.135 21.5799 207.883 21.5799L207.253 21.3279C207.169 21.3279 207.127 21.3699 207.127 21.4539C207.127 21.7899 207.673 22.4199 208.765 23.3439C209.437 23.9319 209.983 24.2259 210.403 24.2259C210.571 24.2259 210.781 24.1419 211.033 23.9739C211.285 23.8059 211.579 23.7219 211.915 23.7219C212.167 23.8059 212.629 24.0579 213.301 24.4779C213.973 24.8139 214.309 25.2759 214.309 25.8639C214.309 26.3679 213.931 26.9979 213.175 27.7539C212.503 28.4259 211.705 29.6019 210.781 31.2819C210.361 32.0379 209.899 32.7519 209.395 33.4239C208.975 34.0119 208.681 34.4319 208.513 34.6839C208.093 34.9359 207.505 35.0619 206.749 35.0619ZM181.045 119.23C180.121 118.894 179.659 118.726 179.659 118.726L173.359 115.576V111.796C173.443 109.108 174.283 104.782 175.879 98.8179C177.391 92.7699 179.407 86.0079 181.927 78.5319C182.851 76.0959 183.313 74.6679 183.313 74.2479C183.313 74.1639 183.271 74.1219 183.187 74.1219L182.809 74.2479C182.473 74.2479 182.305 74.1219 182.305 73.8699C182.305 72.8619 183.145 70.8879 184.825 67.9479C185.329 67.1919 185.875 66.2259 186.463 65.0499L189.613 58.8759C192.301 53.7519 194.191 51.1899 195.283 51.1899C195.703 51.1899 195.913 51.3579 195.913 51.6939C195.913 51.8619 195.829 52.1139 195.661 52.4499C195.493 52.7859 195.409 53.0379 195.409 53.2059L195.535 53.7099H196.039C196.123 53.6259 196.207 53.4579 196.291 53.2059C196.375 52.8699 196.585 52.7019 196.921 52.7019L197.929 53.5839C198.517 54.1719 199.063 54.4659 199.567 54.4659C200.155 54.4659 200.953 55.0539 201.961 56.2299C202.885 57.0699 203.347 57.7839 203.347 58.3719C203.347 58.6239 203.305 58.9179 203.221 59.2539C203.137 59.5899 203.095 59.8839 203.095 60.1359C203.095 60.3039 203.095 60.4299 203.095 60.5139L203.221 60.8919C203.221 61.0599 203.095 61.1439 202.843 61.1439C202.591 61.1439 202.423 61.1859 202.339 61.2699L202.465 61.8999C202.465 62.0679 202.339 62.2779 202.087 62.5299C201.919 62.6979 201.835 62.8659 201.835 63.0339C201.835 63.1179 201.877 63.1599 201.961 63.1599C202.045 63.1599 202.087 63.2019 202.087 63.2859L201.961 63.5379C201.625 64.2099 201.373 64.7979 201.205 65.3019V65.6799C201.121 66.0159 200.911 66.1839 200.575 66.1839C200.323 66.1839 200.197 66.2679 200.197 66.4359L200.323 66.5619C200.323 66.9819 200.239 67.4439 200.071 67.9479C199.903 68.1159 199.777 68.3259 199.693 68.5779C199.609 68.7459 199.567 68.9979 199.567 69.3339C199.567 69.6699 199.441 69.8379 199.189 69.8379C199.021 69.8379 198.937 69.8799 198.937 69.9639C198.937 70.0479 198.937 70.1319 198.937 70.2159L199.063 70.5939V70.7199C198.979 70.8039 198.811 70.8459 198.559 70.8459C198.391 70.8459 198.307 70.9719 198.307 71.2239L198.433 71.7279C198.349 71.8959 198.223 72.0639 198.055 72.2319C197.887 72.3159 197.803 72.3999 197.803 72.4839C197.803 72.6519 197.845 72.7779 197.929 72.8619C198.013 72.9459 198.055 73.0299 198.055 73.1139V73.2399C197.971 73.3239 197.719 73.4079 197.299 73.4919L197.425 73.8699L197.299 74.3739C196.711 75.5499 196.417 76.3059 196.417 76.6419C196.501 76.6419 196.543 76.6839 196.543 76.7679L196.417 76.8939C196.333 76.9779 196.165 77.0199 195.913 77.0199C195.745 77.0199 195.661 77.1459 195.661 77.3979C195.661 77.6499 195.199 78.7839 194.275 80.7999C190.915 88.1919 187.891 96.8439 185.203 106.756C183.943 111.124 183.313 114.064 183.313 115.576C183.313 116.416 183.271 116.878 183.187 116.962C183.103 117.13 182.809 117.214 182.305 117.214L181.801 117.088C181.465 117.088 181.297 117.424 181.297 118.096C181.297 118.768 181.213 119.146 181.045 119.23Z" fill="#636366"/>
<path d="M157.001 53.0799C157.253 53.0799 157.379 52.6599 157.379 51.8199L157.253 51.6939L157.001 51.9459C156.833 52.0299 156.749 52.1979 156.749 52.4499C156.749 52.5339 156.749 52.6599 156.749 52.8279C156.833 52.9959 156.917 53.0799 157.001 53.0799ZM175.397 60.5139L174.641 58.8759C174.137 57.8679 173.717 57.3639 173.381 57.3639C173.213 57.3639 173.003 57.4059 172.751 57.4899C172.499 57.5739 172.289 57.6159 172.121 57.6159H171.995C171.995 57.8679 172.457 58.4139 173.381 59.2539C174.305 60.0939 174.977 60.5139 175.397 60.5139ZM180.689 67.6959L180.815 67.5699L179.681 65.9319H179.555C179.555 66.0999 179.681 66.4359 179.933 66.9399C180.269 67.4439 180.479 67.6959 180.563 67.6959H180.689ZM187.367 68.9559C188.291 68.9559 189.131 68.9139 189.887 68.8299C190.643 68.6619 191.147 68.5359 191.399 68.4519L191.651 68.3259C191.651 68.1579 190.601 68.0739 188.501 68.0739C186.401 68.0739 184.973 67.9479 184.217 67.6959L183.587 67.5699C183.587 68.4939 184.847 68.9559 187.367 68.9559ZM189.887 73.9959C189.551 73.8279 189.173 73.702 188.753 73.618C188.417 73.4499 188.039 73.3239 187.619 73.2399C187.199 73.0719 186.527 72.9879 185.603 72.9879C186.527 73.4919 187.199 73.7859 187.619 73.8699C188.123 73.9539 188.879 73.9959 189.887 73.9959ZM156.119 77.1459L156.497 76.8939C156.665 76.7259 156.833 76.4739 157.001 76.1379C157.253 75.8019 157.379 75.5499 157.379 75.3819C157.379 75.2139 157.295 75.1299 157.127 75.1299C157.043 75.1299 156.833 75.2559 156.497 75.5079C156.245 75.7599 156.119 76.2639 156.119 77.0199V77.1459ZM145.283 110.41C145.199 110.41 145.031 110.284 144.779 110.032C144.107 109.696 143.435 109.192 142.763 108.52C142.511 108.352 142.343 108.268 142.259 108.268C142.091 108.268 141.293 107.806 139.865 106.882C138.353 106.042 137.471 105.286 137.219 104.614C137.219 101.842 137.933 97.7259 139.361 92.2659C140.789 86.8059 142.721 80.7159 145.157 73.9959C149.105 62.7399 152.339 55.7679 154.859 53.0799C155.951 51.8199 156.791 51.1899 157.379 51.1899C157.715 51.1899 157.883 51.4419 157.883 51.9459C157.883 52.7859 158.051 53.4579 158.387 53.9619C158.807 54.8019 159.353 55.2219 160.025 55.2219C160.193 55.2219 160.361 55.1799 160.529 55.0959C160.697 54.9279 160.907 54.8439 161.159 54.8439C161.411 54.8439 162.377 55.5159 164.057 56.8599L163.427 59.2539C163.007 60.5139 162.671 61.1439 162.419 61.1439C162.167 61.1439 161.789 61.6899 161.285 62.7819C160.277 65.0499 159.311 67.7379 158.387 70.8459L158.009 72.9879H158.135C158.723 72.9879 160.445 70.9719 163.301 66.9399C168.341 59.8839 171.701 56.3559 173.381 56.3559C174.053 56.6079 174.641 57.2379 175.145 58.2459C175.565 58.9179 176.531 59.7999 178.043 60.8919C179.219 61.5639 180.353 62.6559 181.445 64.1679C181.949 65.0919 182.453 65.7219 182.957 66.0579C184.133 66.8139 185.771 67.1919 187.871 67.1919C190.727 67.1919 193.037 66.9399 194.801 66.4359C194.801 66.5199 194.507 66.7719 193.919 67.1919C193.331 67.5279 193.037 67.7799 193.037 67.9479C193.037 68.2839 193.457 68.4519 194.297 68.4519C195.221 68.4519 195.977 68.7459 196.565 69.3339C196.901 69.9219 197.363 70.2159 197.951 70.2159C198.035 70.1319 198.161 70.0899 198.329 70.0899C198.497 70.0899 198.707 70.1739 198.959 70.3419C199.295 70.5099 199.589 70.8039 199.841 71.2239C200.177 71.5599 200.387 71.8539 200.471 72.1059C200.471 72.3579 200.219 72.6099 199.715 72.8619C198.455 73.6179 196.985 74.0799 195.305 74.2479C193.961 74.2479 193.289 74.3739 193.289 74.6259C193.289 74.8779 192.659 75.0039 191.399 75.0039C189.887 75.0039 188.627 74.9619 187.619 74.8779C186.695 74.7099 186.023 74.5419 185.603 74.3739C185.183 74.1219 184.469 73.6179 183.461 72.8619C182.453 72.0219 181.403 71.0979 180.311 70.0899C179.219 68.9979 178.295 68.1999 177.539 67.6959C176.867 67.1919 176.405 66.9399 176.153 66.9399C175.397 66.9399 171.995 71.5179 165.947 80.6739C161.075 88.0659 155.993 96.0879 150.701 104.74C149.861 106.168 148.853 107.47 147.677 108.646C146.501 109.822 145.703 110.41 145.283 110.41Z" fill="#636366"/>
<path d="M131.093 66.0583C131.429 65.7223 131.765 64.7143 132.101 63.0343C132.521 61.3543 132.731 59.9263 132.731 58.7503C132.731 57.6583 132.521 57.1123 132.101 57.1123C131.681 57.1123 131.471 57.8263 131.471 59.2543V60.0103C131.471 60.7663 131.429 61.6063 131.345 62.5303C131.261 63.4543 131.177 64.1683 131.093 64.6723C131.009 65.1763 130.967 65.5543 130.967 65.8063C130.967 65.9743 131.009 66.0583 131.093 66.0583ZM128.951 97.3063C129.035 97.2223 129.077 97.0963 129.077 96.9283C129.077 96.7603 129.035 96.5503 128.951 96.2983L128.825 96.0463C128.741 96.2143 128.699 96.5083 128.699 96.9283C128.699 97.1803 128.741 97.3063 128.825 97.3063H128.951ZM128.447 99.3223L128.573 98.8183L128.321 98.0623C128.237 98.0623 128.195 98.2723 128.195 98.6923C128.195 99.1123 128.237 99.3223 128.321 99.3223H128.447ZM127.817 101.716C127.985 101.716 128.069 101.506 128.069 101.086C128.069 100.498 127.985 100.204 127.817 100.204C127.733 100.204 127.691 100.456 127.691 100.96C127.691 101.464 127.733 101.716 127.817 101.716ZM98.5848 102.472C98.8368 102.472 99.6768 101.926 101.105 100.834C102.617 99.6583 104.381 98.1043 106.397 96.1723C111.353 91.2163 116.645 85.0843 122.273 77.7763C122.441 77.6083 122.609 77.3563 122.777 77.0203L124.541 74.8783C127.481 71.1823 128.951 68.8723 128.951 67.9483C128.951 67.5283 128.699 67.3183 128.195 67.3183H127.943C127.523 67.3183 127.313 66.9403 127.313 66.1843C127.313 65.6803 127.439 64.9243 127.691 63.9163L127.817 62.9083C127.817 62.1523 127.733 61.7743 127.565 61.7743C127.229 61.4383 127.061 60.9763 127.061 60.3883C127.061 60.1363 126.977 60.0103 126.809 60.0103C126.473 60.0943 125.381 61.0603 123.533 62.9083C114.713 71.9803 107.237 83.0263 101.105 96.0463C99.3408 99.7423 98.4588 101.842 98.4588 102.346C98.4588 102.43 98.5008 102.472 98.5848 102.472ZM97.0728 110.662C97.3248 110.662 97.7028 110.62 98.2068 110.536C98.7108 110.536 99.1728 110.452 99.5928 110.284C100.013 110.116 100.223 109.99 100.223 109.906C100.223 109.822 99.8448 109.738 99.0888 109.654H98.9628C98.3748 109.654 97.8708 109.738 97.4508 109.906C96.9468 110.074 96.6948 110.242 96.6948 110.41C96.6948 110.494 96.8208 110.578 97.0728 110.662ZM128.447 54.9703C128.531 54.9703 128.573 54.8023 128.573 54.4663C128.573 53.2063 127.901 52.5763 126.557 52.5763C125.465 52.5763 124.205 52.9963 122.777 53.8363C121.937 54.3403 121.517 54.6343 121.517 54.7183C121.601 54.7183 121.727 54.6763 121.895 54.5923C122.147 54.5083 122.693 54.4243 123.533 54.3403L124.919 54.0883C126.599 54.0883 127.565 54.2563 127.817 54.5923C128.153 54.8443 128.363 54.9703 128.447 54.9703ZM125.801 112.552L121.769 110.41C121.853 109.066 121.895 107.764 121.895 106.504C121.895 105.328 122.063 103.732 122.399 101.716C122.735 99.6163 123.113 97.6003 123.533 95.6683C123.953 93.6523 124.289 92.0563 124.541 90.8803C124.793 89.6203 124.919 88.8643 124.919 88.6123V88.4863C124.751 88.4863 123.659 89.6623 121.643 92.0143C116.939 97.8943 112.571 102.388 108.539 105.496C107.363 106.336 106.061 107.176 104.633 108.016C101.105 110.116 98.9208 111.166 98.0808 111.166C97.9128 111.166 97.3668 110.998 96.4428 110.662C95.5188 110.326 94.5528 109.864 93.5448 109.276C91.3608 108.184 89.9748 107.134 89.3868 106.126C89.0508 105.622 88.8828 104.95 88.8828 104.11C88.8828 103.438 89.0088 102.64 89.2608 101.716C90.6048 96.0883 93.7128 89.2003 98.5848 81.0523C103.457 72.9043 108.707 65.8483 114.335 59.8843C119.543 54.5083 123.533 51.8203 126.305 51.8203C127.397 51.8203 128.153 52.3243 128.573 53.3323C129.077 54.2563 129.497 54.7183 129.833 54.7183H130.211C130.631 54.7183 131.261 54.9283 132.101 55.3483C133.025 55.6843 133.781 56.2303 134.369 56.9863C134.957 57.6583 135.251 58.3303 135.251 59.0023C135.251 59.5903 135.041 61.2283 134.621 63.9163L134.369 65.1763C134.369 65.5123 134.579 65.9323 134.999 66.4363C135.503 66.8563 136.091 67.0663 136.763 67.0663C137.099 67.0663 137.351 66.9823 137.519 66.8143C137.771 66.5623 138.023 66.4363 138.275 66.4363C138.443 66.4363 138.947 66.6463 139.787 67.0663C140.711 67.8223 141.173 68.3263 141.173 68.5783C141.173 69.5863 139.955 73.5343 137.519 80.4223C135.419 86.3023 133.529 92.6863 131.849 99.5743C130.421 105.118 129.707 108.856 129.707 110.788C129.707 111.628 129.539 112.048 129.203 112.048L128.195 111.796H127.439C127.271 111.796 127.187 110.914 127.187 109.15V107.008L127.439 103.48C127.439 103.144 127.397 102.976 127.313 102.976C127.145 102.976 126.641 106.168 125.801 112.552Z" fill="#636366"/>
<path d="M76.7903 63.6641C76.9583 63.6641 77.4203 63.2861 78.1763 62.5301C78.9323 61.6901 79.3103 61.1861 79.3103 61.0181C79.0583 61.0181 78.5543 61.4801 77.7983 62.4041C77.1263 62.9921 76.7903 63.4121 76.7903 63.6641ZM80.0663 60.6401L81.5783 59.0021C81.4103 59.0021 81.1583 59.1281 80.8223 59.3801C80.5703 59.6321 80.3603 59.8421 80.1923 60.0101L79.9403 60.2621C79.9403 60.5141 79.9823 60.6401 80.0663 60.6401ZM81.8303 59.0021C82.3344 58.7501 82.8383 58.5401 83.3424 58.3721C83.8463 58.2041 84.3503 58.1201 84.8543 58.1201C85.1063 58.1201 85.2743 58.1621 85.3583 58.2461C85.6943 58.2461 85.8623 57.9521 85.8623 57.3641C85.8623 56.5241 85.6523 56.1041 85.2323 56.1041C84.8123 56.1041 84.1824 56.6081 83.3424 57.6161L81.8303 59.0021ZM85.1063 86.7221C85.1903 86.6381 85.2323 86.5121 85.2323 86.3441L84.9803 85.4621C84.8963 85.4621 84.8543 85.7561 84.8543 86.3441C84.8543 86.5121 84.8543 86.6381 84.8543 86.7221C84.8543 86.7221 84.8963 86.7221 84.9803 86.7221H85.1063ZM84.7283 102.976C85.1483 102.976 85.3583 102.682 85.3583 102.094C85.3583 101.59 85.1483 101.338 84.7283 101.338C84.3923 101.338 84.2243 101.59 84.2243 102.094C84.2243 102.682 84.3923 102.976 84.7283 102.976ZM84.4763 101.086L84.7283 98.3141C84.5603 97.7261 84.3503 97.4321 84.0983 97.4321C83.9303 97.5161 83.8463 97.8101 83.8463 98.3141C83.8463 98.9021 84.0563 99.8261 84.4763 101.086ZM89.2643 66.1841C89.4323 66.1841 89.5163 65.8901 89.5163 65.3021C89.5163 64.7981 89.4323 64.5461 89.2643 64.5461C89.1803 64.5461 89.1383 64.7981 89.1383 65.3021C89.1383 65.8901 89.1803 66.1841 89.2643 66.1841ZM89.6423 63.6641C89.9783 63.6641 90.1463 63.4121 90.1463 62.9081C90.1463 62.3201 90.0623 62.0261 89.8943 62.0261C89.8103 62.0261 89.6843 62.1941 89.5163 62.5301C89.4323 62.7821 89.3903 63.0341 89.3903 63.2861C89.3903 63.5381 89.4743 63.6641 89.6423 63.6641ZM46.9283 114.19H46.8023C46.6343 114.19 46.4243 114.148 46.1723 114.064C45.9203 113.98 45.4583 113.728 44.7863 113.308C44.0303 112.888 43.6523 112.384 43.6523 111.796C43.6523 111.46 43.8203 111.082 44.1563 110.662C44.7443 109.906 45.0383 108.142 45.0383 105.37C45.0383 103.69 45.5423 100.792 46.5503 96.6761C47.5583 92.5601 48.8603 88.1081 50.4563 83.3201C52.9763 76.1801 56.5463 66.8561 61.1663 55.3481C65.8703 43.8401 69.6923 35.0201 72.6323 28.8881L74.5223 24.8561C74.5223 24.6881 75.9923 21.8741 78.9323 16.4141C81.2003 12.1301 83.0483 8.85408 84.4763 6.58608C85.9883 4.31808 87.2483 2.76408 88.2563 1.92408C89.2643 1.00009 89.8523 0.538086 90.0203 0.538086C90.1043 0.538086 90.1463 0.622085 90.1463 0.790083L90.0203 1.67208C90.0203 2.17608 90.1883 2.72208 90.5243 3.31008C91.1963 4.23408 91.9103 4.69608 92.6663 4.69608C92.8343 4.69608 93.0023 4.61208 93.1703 4.44408C93.4223 4.27608 93.6324 4.19208 93.8004 4.19208C94.2203 4.19208 94.7243 4.52808 95.3123 5.20009C95.9003 5.87208 96.1943 6.37608 96.1943 6.71208C96.1943 7.13208 95.9843 7.72008 95.5644 8.47608L89.8943 19.5641L83.4683 32.5421L80.6963 38.5901C78.7643 42.8741 77.7983 45.1001 77.7983 45.2681L74.1443 53.8361L65.9543 73.8701L65.0723 76.2641C65.0723 76.3481 65.1563 76.3901 65.3243 76.3901H65.5763C66.1643 76.2221 66.4583 75.9281 66.4583 75.5081C66.4583 75.0041 67.6763 73.4081 70.1123 70.7201C72.5483 67.9481 73.8923 66.4781 74.1443 66.3101C74.4803 66.1421 74.6903 66.0161 74.7743 65.9321C74.9423 65.8481 75.0263 65.7641 75.0263 65.6801L74.9003 65.5541C74.9003 65.3021 75.2363 64.7561 75.9083 63.9161C76.6643 63.0761 77.5883 62.1101 78.6803 61.0181C79.7723 59.9261 80.8223 58.9181 81.8303 57.9941C82.8383 57.0701 83.5943 56.4821 84.0983 56.2301C84.6023 55.9781 84.9803 55.8521 85.2323 55.8521C85.9883 55.8521 86.3663 56.4401 86.3663 57.6161C86.3663 58.0361 86.4923 58.4981 86.7443 59.0021C87.0803 59.5061 87.4163 59.7581 87.7523 59.7581C88.0043 59.7581 88.2143 59.5901 88.3823 59.2541C88.5503 58.9181 88.8443 58.7501 89.2643 58.7501C89.9363 58.7501 90.7763 59.2121 91.7843 60.1361C92.7923 61.0601 93.2963 62.0261 93.2963 63.0341C93.2963 63.4541 93.2123 64.0421 93.0443 64.7981C92.9603 65.4701 92.7504 66.6881 92.4143 68.4521C92.1623 70.1321 91.8263 71.8961 91.4063 73.7441C89.1383 83.8241 88.0043 91.6781 88.0043 97.3061C88.1723 99.7421 88.3403 100.96 88.5083 100.96C88.9283 100.624 89.6843 99.9101 90.7763 98.8181C91.9523 97.6421 93.0863 96.4661 94.1783 95.2901C95.2703 94.0301 96.0683 93.1061 96.5723 92.5181L92.0364 97.0541C91.1964 97.6421 90.3983 98.3141 89.6423 99.0701C89.1383 99.4901 88.8023 99.7001 88.6343 99.7001L89.0123 99.3221C89.1803 99.0701 89.6843 98.5661 90.5243 97.8101L92.2883 96.1721C94.5563 93.9041 96.1943 92.3921 97.2023 91.6361C97.4543 91.4681 97.6223 91.3001 97.7063 91.1321C97.8743 90.9641 98.0003 90.8381 98.0843 90.7541C98.1683 90.6701 98.2103 90.5861 98.2103 90.5021C98.2103 90.3341 98.4203 89.9981 98.8403 89.4941C99.2603 88.9901 99.6803 88.6541 100.1 88.4861C100.268 88.4861 100.352 88.5281 100.352 88.6121C100.352 88.6961 100.142 88.9061 99.7223 89.2421C99.3863 89.5781 99.2183 89.7881 99.2183 89.8721C99.2183 89.8721 99.2183 89.9141 99.2183 89.9981L99.3443 89.8721C99.9324 89.7041 100.394 89.5361 100.73 89.3681C101.066 89.2001 101.486 89.1161 101.99 89.1161C102.242 89.1161 102.494 89.1581 102.746 89.2421C103.082 89.2421 103.25 89.4521 103.25 89.8721C103.418 90.2921 103.712 90.5861 104.132 90.7541C104.552 90.9221 104.846 91.0901 105.014 91.2581C105.182 91.4261 105.266 91.8041 105.266 92.3921C105.266 92.5601 105.266 92.6861 105.266 92.7701C105.35 92.7701 105.476 92.7701 105.644 92.7701C105.896 92.7701 106.022 92.8541 106.022 93.0221C105.854 93.7781 104.93 94.9961 103.25 96.6761C101.57 98.3561 99.8063 99.9941 97.9583 101.59C96.1103 103.186 94.8083 104.236 94.0523 104.74C92.7083 105.412 90.9443 105.748 88.7603 105.748C84.4763 105.748 81.5363 104.488 79.9403 101.968C78.9323 100.54 78.4283 98.2301 78.4283 95.0381C78.4283 93.2741 78.5963 90.8801 78.9323 87.8561C79.2683 83.4881 79.8563 79.6661 80.6963 76.3901C81.5363 73.0301 81.9563 71.0141 81.9563 70.3421C81.9563 70.0901 81.8723 69.9641 81.7043 69.9641C81.5363 69.9641 81.0743 70.4261 80.3183 71.3501L79.9403 71.7281C72.6323 79.9601 65.1983 90.3761 57.6383 102.976C54.4463 108.268 52.5143 111.334 51.8423 112.174C51.2543 113.098 50.6243 113.56 49.9523 113.56L48.6923 113.308C47.9363 113.308 47.5163 113.434 47.4323 113.686C47.2643 113.938 47.0963 114.106 46.9283 114.19Z" fill="#636366"/>
<path d="M5.15128 114.442C5.65528 114.442 5.90728 114.316 5.90728 114.064V113.812C5.82328 113.644 5.65528 113.476 5.40328 113.308C5.15128 113.224 4.85728 113.182 4.52128 113.182C4.26928 113.182 4.10128 113.224 4.01728 113.308C3.93328 113.392 3.89128 113.476 3.89128 113.56C3.89128 114.148 4.31128 114.442 5.15128 114.442ZM37.0293 88.2342C37.1133 88.2342 37.1553 88.1922 37.1553 88.1082C37.1553 87.7722 36.3993 86.6802 34.8873 84.8322C33.8793 83.8242 32.2833 82.5642 30.0993 81.0522C27.9153 79.4562 25.8993 78.1542 24.0513 77.1462C22.2873 76.0542 21.1533 75.5082 20.6493 75.5082L20.0193 75.6342L20.1453 75.3822C20.1453 74.7102 19.4313 73.9122 18.0033 72.9882C16.9113 72.1482 16.1553 71.7282 15.7353 71.7282C15.5673 71.7282 15.4833 71.8542 15.4833 72.1062C15.4833 72.6942 16.1553 73.5342 17.4993 74.6262C18.8433 75.6342 21.1113 77.1462 24.3033 79.1622C26.9073 80.5902 29.9733 82.7742 33.5013 85.7142C35.5173 87.3942 36.6933 88.2342 37.0293 88.2342ZM33.2493 90.2502C33.2493 90.1662 33.0813 89.9562 32.7453 89.6202V89.3682L30.9813 88.1082C28.5453 86.4282 25.9413 84.7902 23.1693 83.1942C21.4893 82.1862 20.2293 81.4302 19.3893 80.9262C18.6333 80.3382 18.1713 80.0442 18.0033 80.0442L18.2553 80.4222C18.5073 80.6742 19.2633 81.2622 20.5233 82.1862C21.8673 83.1102 23.3793 84.0762 25.0593 85.0842C26.7393 86.0922 28.2093 87.0582 29.4693 87.9822C30.8133 88.8222 31.6533 89.3682 31.9893 89.6202C32.6613 90.0402 33.0813 90.2502 33.2493 90.2502ZM38.5413 94.9122C38.7093 94.9122 38.8353 94.8282 38.9193 94.6602C38.9193 94.4082 38.7513 94.1562 38.4153 93.9042L38.0373 93.4002V93.5262C38.0373 93.6942 38.0793 93.9882 38.1633 94.4082C38.2473 94.7442 38.3733 94.9122 38.5413 94.9122ZM63.3633 24.2262C63.6993 23.8902 63.8673 23.2602 63.8673 22.3362C63.8673 20.8242 62.9853 19.8582 61.2213 19.4382L59.7093 18.9342C60.2973 19.5222 60.8013 20.1102 61.2213 20.6982C61.7253 21.2862 62.1033 21.8742 62.3553 22.4622C62.6913 22.9662 62.8593 23.3862 62.8593 23.7222C62.8593 23.9742 62.9013 24.1422 62.9853 24.2262H63.1113H63.3633ZM54.0393 43.6302C54.1233 43.6302 54.5853 43.2102 55.4253 42.3702C58.5333 39.2622 61.1373 36.0702 63.2373 32.7942C64.1613 31.2822 64.6233 30.0642 64.6233 29.1402C64.6233 28.9722 64.5813 28.8882 64.4973 28.8882C64.1613 28.8882 63.6153 29.8122 62.8593 31.6602C62.1033 33.5082 60.1713 36.2382 57.0633 39.8502C55.0473 42.2862 54.0393 43.5462 54.0393 43.6302ZM47.9913 49.1742L50.1333 47.5362C51.4773 46.1922 52.1493 45.4362 52.1493 45.2682L52.0233 45.1422C51.9393 45.1422 51.3093 45.7302 50.1333 46.9062C48.7053 48.3342 47.9913 49.0902 47.9913 49.1742ZM46.1013 51.1902C46.1853 51.1902 46.2693 51.1062 46.3533 50.9382C46.5213 50.7702 46.7733 50.5182 47.1093 50.1822C47.4453 49.7622 47.6133 49.5102 47.6133 49.4262L47.4873 49.3002C47.4033 49.3002 47.1933 49.4682 46.8573 49.8042C46.6053 50.0562 46.3953 50.2662 46.2273 50.4342L45.9753 50.8122C45.9753 51.0642 46.0173 51.1902 46.1013 51.1902ZM7.41928 116.206H6.78928C5.27728 116.206 4.26928 115.87 3.76528 115.198C3.34528 114.526 3.13528 114.106 3.13528 113.938C3.13528 113.77 3.05128 113.434 2.88328 112.93C2.37928 111.838 1.95928 111.04 1.62328 110.536C0.783281 108.772 0.363281 107.68 0.363281 107.26C0.363281 107.008 0.615281 106.882 1.11928 106.882C1.45528 106.882 1.91728 106.924 2.50528 107.008C3.09328 107.176 3.47128 107.26 3.63928 107.26H3.89128C3.89128 107.092 3.72328 106.84 3.38728 106.504C3.13528 106.252 3.00928 106.084 3.00928 106C3.00928 105.832 3.17728 105.706 3.51328 105.622H5.27728C6.36928 105.538 8.30128 105.16 11.0733 104.488C20.5653 102.136 27.2853 99.4902 31.2333 96.5502C33.1653 95.1222 34.1313 94.0302 34.1313 93.2742C34.1313 92.9382 33.7953 92.5182 33.1233 92.0142C32.5353 91.4262 30.0153 89.7042 25.5633 86.8482C21.4473 84.3282 18.4653 82.3122 16.6173 80.8002C14.7693 79.2882 13.5093 77.8182 12.8373 76.3902C9.98128 70.9302 8.30128 67.3602 7.79728 65.6802C7.37728 64.0002 7.16728 62.3622 7.16728 60.7662C7.16728 60.0942 7.25128 59.3802 7.41928 58.6242C7.58728 57.8682 8.04928 56.6082 8.80528 54.8442C12.4173 46.9482 20.4813 38.7162 32.9973 30.1482C39.9693 25.4442 46.2273 22.0842 51.7713 20.0682C54.7953 18.9762 57.3573 18.4302 59.4573 18.4302C61.0533 18.4302 62.2713 18.7662 63.1113 19.4382C63.9513 20.1102 64.3713 20.9502 64.3713 21.9582V23.8482C64.3713 24.6042 64.5813 25.2342 65.0013 25.7382C65.8413 26.4942 66.2613 28.0902 66.2613 30.5262C66.2613 31.8702 66.0513 33.1722 65.6313 34.4322C63.8673 38.5482 58.2393 44.8062 48.7473 53.2062C46.5633 55.2222 44.6313 57.0282 42.9513 58.6242C41.2713 60.2202 40.0953 61.5222 39.4233 62.5302C38.7513 61.0182 38.4153 60.0942 38.4153 59.7582C38.4153 59.3382 38.6253 58.8342 39.0453 58.2462C39.4653 57.6582 40.1793 56.7762 41.1873 55.6002C42.2793 54.4242 42.8673 53.7522 42.9513 53.5842C42.8673 53.5842 42.4053 53.9202 41.5653 54.5922C39.8853 56.2722 38.7093 57.5742 38.0373 58.4982C37.3653 59.4222 36.9033 59.8842 36.6513 59.8842C36.4833 59.8842 36.2733 59.7162 36.0213 59.3802C35.8533 58.9602 35.6853 58.5402 35.5173 58.1202C35.3493 57.6162 35.2653 57.2382 35.2653 56.9862C35.2653 56.7342 35.2233 56.5662 35.1393 56.4822C35.1393 56.3142 35.0973 56.2302 35.0133 56.2302C35.0133 56.1462 34.9713 56.1042 34.8873 56.1042L34.5093 56.3562C34.3413 56.3562 34.2573 56.1882 34.2573 55.8522C34.2573 55.4322 34.4253 54.8022 34.7613 53.9622C35.8533 52.5342 38.8353 49.5522 43.7073 45.0162C48.5793 40.3962 52.2333 36.7002 54.6693 33.9282C56.4333 31.9962 57.3153 30.8202 57.3153 30.4002C57.3153 30.3162 57.2313 30.2742 57.0633 30.2742C56.4753 30.2742 53.4933 31.8282 48.1173 34.9362C44.7573 36.9522 40.3473 40.1862 34.8873 44.6382C31.1073 47.7462 28.0413 50.5182 25.6893 52.9542C24.8493 53.8782 24.1353 54.5922 23.5473 55.0962C22.2033 56.5242 20.7753 58.4142 19.2633 60.7662C17.7513 63.1182 16.7013 65.1762 16.1133 66.9402C15.7773 67.8642 15.6093 68.5362 15.6093 68.9562C15.6093 69.4602 15.7773 69.9222 16.1133 70.3422C17.0373 71.2662 19.9773 73.2822 24.9333 76.3902C33.4173 81.8502 37.8273 85.9662 38.1633 88.7382C38.3313 89.9142 38.7933 91.0902 39.5493 92.2662C40.3893 93.4422 41.0193 94.7862 41.4393 96.2982C41.6913 97.2222 41.8173 98.1042 41.8173 98.9442C41.8173 105.244 33.3333 110.452 16.3653 114.568C12.2493 115.492 9.26728 116.038 7.41928 116.206Z" fill="#636366"/>
</svg>
