<svg width="927" height="66" viewBox="0 0 927 66" fill="none" xmlns="http://www.w3.org/2000/svg">
<path fill-rule="evenodd" clip-rule="evenodd" d="M839.074 64.5L848.99 1.97998H886.191C901.758 1.97998 911.952 5.14831 918.278 10.2087C924.663 15.3164 926.891 22.1759 926.891 29C926.891 31.7315 926.643 34.2969 926.229 36.6948L926.229 36.6966C925.186 42.7022 922.434 49.7355 915.623 55.2369C908.824 60.7289 898.171 64.54 881.63 64.5C881.629 64.5 881.628 64.5 881.627 64.5L839.074 64.5ZM904.319 34.0732L904.32 34.0658C904.546 32.9337 904.691 31.6755 904.691 30.76C904.691 27.9977 903.958 25.1954 901.361 23.0326C898.7 20.8168 893.836 19.06 885.071 19.06H867.391L862.909 47.18H880.111C890.096 47.18 895.847 45.1715 899.218 42.6319C902.549 40.1224 903.76 36.9397 904.319 34.0732ZM880.111 48.68C900.431 48.68 904.591 40.52 905.791 34.36C906.031 33.16 906.191 31.8 906.191 30.76C906.191 24.68 902.911 17.56 885.071 17.56H866.111L861.151 48.68H880.111ZM840.831 63H881.631C914.271 63.08 922.751 47.96 924.751 36.44C925.151 34.12 925.391 31.64 925.391 29C925.391 16.04 916.991 3.47998 886.191 3.47998H850.271L840.831 63Z" fill="#F8F8F8"/>
<path fill-rule="evenodd" clip-rule="evenodd" d="M753.006 1.97998H774.204L767.084 46.7H806.92L804.13 64.5H743.09L753.006 1.97998ZM765.327 48.2L772.447 3.47998H754.286L744.846 63H802.846L805.167 48.2H765.327Z" fill="#F8F8F8"/>
<path fill-rule="evenodd" clip-rule="evenodd" d="M707.22 63H688.74C688.42 62.36 688.18 61.48 688.58 59L689.62 52.44C690.74 45.4 688.1 41.88 678.9 41.88H655.46L652.1 63H633.94L643.38 3.47998H690.58C708.02 3.47998 712.98 10.12 712.98 17.88C712.98 25.8236 707.135 30.0098 702.14 31.9834C701.35 32.2956 700.581 32.5524 699.86 32.76C700.628 32.997 701.381 33.2754 702.105 33.6005C706.514 35.579 709.851 39.2836 708.82 45.88L707.22 55.88C706.776 58.823 706.871 60.4555 707.052 61.5C707.104 61.8059 707.164 62.0613 707.22 62.2845C707.234 62.3414 707.248 62.3962 707.262 62.4492C707.275 62.5011 707.288 62.5512 707.3 62.6L707.22 63ZM708.703 56.1039C708.703 56.1047 708.703 56.1055 708.703 56.1063C708.395 58.1461 708.366 59.4731 708.427 60.3683C708.48 61.1545 708.603 61.6353 708.716 62.0805C708.729 62.1328 708.743 62.1845 708.755 62.2362L708.837 62.5634L708.45 64.5H687.813L687.399 63.6708C686.88 62.6329 686.676 61.3916 687.099 58.7651M687.099 58.7611L688.139 52.2051C688.675 48.8354 688.223 46.7973 687.042 45.5525C685.815 44.2588 683.399 43.38 678.9 43.38H656.74L653.38 64.5H632.184L642.099 1.97998H690.58C699.447 1.97998 705.437 3.6603 709.235 6.58092C713.11 9.56083 714.48 13.6543 714.48 17.88C714.48 26.0399 708.941 30.5479 703.947 32.8397C705.478 33.6736 706.879 34.7478 707.996 36.1255C710.002 38.6014 710.96 41.9009 710.302 46.1115L710.301 46.117L708.703 56.1039M659.227 27.18H685.14C687.87 27.18 689.552 26.4377 690.536 25.5346C691.518 24.6337 691.96 23.4345 691.96 22.2C691.96 20.9719 691.614 20.1424 690.982 19.5882C690.313 19.0018 689.07 18.5 686.82 18.5H660.654L659.227 27.18ZM685.14 28.68C691.14 28.68 693.46 25.4 693.46 22.2C693.46 19.16 691.7 17 686.82 17H659.38L657.46 28.68H685.14Z" fill="#F8F8F8"/>
<path fill-rule="evenodd" clip-rule="evenodd" d="M513.946 30.7136L513.947 30.701C514.683 25.7178 516.347 18.1973 522.7 11.9504C529.069 5.6873 539.903 0.939941 558.471 0.939941H561.911C578.208 0.939941 588.383 4.81075 594.494 10.3044C600.623 15.8143 602.451 22.7631 602.451 28.4399C602.451 30.5566 602.37 32.7945 602.036 35.1321L602.035 35.1402C601.262 40.3487 599.602 48.0307 593.252 54.3806C586.881 60.7513 576.042 65.5399 557.431 65.5399H553.991C537.566 65.5399 527.404 61.5452 521.342 55.9304C515.268 50.305 513.531 43.2593 513.531 37.6399V37.6326C513.531 35.7796 513.531 33.6963 513.946 30.7136ZM515.431 30.9199C515.031 33.7999 515.031 35.7999 515.031 37.6399C515.031 48.2799 521.591 64.0399 553.991 64.0399H557.431C594.151 64.0399 599.031 45.1599 600.551 34.9199C600.871 32.6799 600.951 30.5199 600.951 28.4399C600.951 17.7199 594.071 2.43994 561.911 2.43994H558.471C521.831 2.43994 516.871 21.1599 515.431 30.9199ZM576.387 22.3291C573.429 20.055 568.273 18.3399 559.591 18.3399C549.913 18.3399 544.18 20.4967 540.822 23.2499C537.494 25.9787 536.304 29.4546 536.047 32.555C535.972 33.5318 535.971 34.2806 535.971 35.1599C535.971 38.0931 536.848 41.2244 539.662 43.6548C542.513 46.1177 547.58 48.0599 556.391 48.0599C565.902 48.0599 571.553 45.9067 574.923 43.1063C578.274 40.3206 579.577 36.7202 580.024 33.3617C580.179 32.2014 580.251 31.3918 580.251 30.3599C580.251 27.4495 579.278 24.5513 576.387 22.3291ZM534.551 32.4399C535.111 25.6399 539.831 16.8399 559.591 16.8399C577.271 16.8399 581.751 23.7999 581.751 30.3599C581.751 31.4799 581.671 32.3599 581.511 33.5599C580.551 40.7599 575.831 49.5599 556.391 49.5599C538.391 49.5599 534.471 41.6399 534.471 35.1599C534.471 34.2799 534.471 33.4799 534.551 32.4399Z" fill="#F8F8F8"/>
<path fill-rule="evenodd" clip-rule="evenodd" d="M412.603 64.5H390.326L374.023 1.97998H396.347L405.434 39.806L422.352 1.97998H443.833L451.218 38.683L469.68 1.97998H491.425L458.065 64.5H437.555L429.606 27.7721L412.603 64.5ZM411.645 63H391.485L375.965 3.47998H395.165L405.005 44.44L423.325 3.47998H442.605L450.605 43.24L470.605 3.47998H488.925L457.165 63H438.765L430.125 23.08L411.645 63Z" fill="#F8F8F8"/>
<path fill-rule="evenodd" clip-rule="evenodd" d="M224.021 1.97998H288.021L285.381 18.5H242.348L241.452 24.3H283.539L280.903 40.9H238.816L237.708 47.66H281.454L278.826 64.5H214.105L224.021 1.97998ZM235.942 49.16L237.542 39.4H279.622L281.782 25.8H239.702L241.062 17H284.102L286.262 3.47998H225.302L215.862 63H277.542L279.702 49.16H235.942Z" fill="#F8F8F8"/>
<path fill-rule="evenodd" clip-rule="evenodd" d="M99.0586 64.5L108.974 1.97998H130.172L126.732 23.66H162.014L165.454 1.97998H186.652L176.736 64.5H155.541L159.221 41.06H123.938L120.258 64.5H99.0586ZM122.655 39.56H160.975L157.295 63H175.455L184.895 3.47998H166.735L163.295 25.16H124.975L128.415 3.47998H110.255L100.815 63H118.975L122.655 39.56Z" fill="#F8F8F8"/>
<path fill-rule="evenodd" clip-rule="evenodd" d="M18.2028 64.5L25.4028 19.06H0.851562L3.47179 1.97998H74.1167L71.3995 19.06H46.8403L39.6403 64.5H18.2028ZM45.5592 17.56H70.1192L72.3592 3.47998H4.75922L2.59922 17.56H27.1592L19.9592 63H38.3592L45.5592 17.56Z" fill="#F8F8F8"/>
</svg>
