<svg width="469" height="79" viewBox="0 0 469 79" fill="none" xmlns="http://www.w3.org/2000/svg">
<path fill-rule="evenodd" clip-rule="evenodd" d="M389.645 77.0002H363.805L375.767 1.57617H401.609L397.314 28.6625L433.254 1.57617H468.668L420.321 37.5294L457.883 77.0002H424.619L394.654 45.6042L389.645 77.0002ZM387.939 75.0002H366.147L377.475 3.57617H399.267L394.563 33.2402L433.923 3.57617H462.627L417.315 37.2722L453.219 75.0002H425.475L393.315 41.3042L387.939 75.0002Z" fill="#F8F8F8"/>
<path fill-rule="evenodd" clip-rule="evenodd" d="M363.608 48.2001C361.809 58.8339 352.495 76.2481 315.199 76.2481H311.359C275.743 76.2481 267.199 57.0481 267.199 43.1281C267.199 40.8241 267.295 38.7121 267.775 35.2561C269.407 23.1601 278.335 2.32812 317.887 2.32812H321.631C363.007 2.32812 367.519 21.7201 366.079 31.5121H342.943C342.655 29.4001 340.735 19.6081 318.559 19.6081C298.111 19.6081 292.063 29.2081 290.911 36.5041C290.623 38.3281 290.527 39.8641 290.527 41.5921C290.527 50.1361 295.903 58.8721 314.143 58.8721C335.851 58.8721 339.756 48.7368 340.636 46.4529C340.674 46.3532 340.707 46.2684 340.735 46.2001H363.871C363.812 46.833 363.726 47.5019 363.608 48.2001ZM367.807 33.5121H341.197L340.962 31.7824C340.855 31.0028 340.443 28.5845 337.687 26.311C334.885 24.0003 329.382 21.6081 318.559 21.6081C308.638 21.6081 302.496 23.9355 298.735 26.8923C294.989 29.8381 293.399 33.5721 292.887 36.816C292.617 38.5217 292.527 39.952 292.527 41.5921C292.527 45.442 293.727 49.1625 296.831 51.9476C299.962 54.7573 305.316 56.8721 314.143 56.8721C325.144 56.8721 331.148 54.1964 334.439 51.582C337.43 49.2066 338.379 46.7469 338.782 45.7019C338.822 45.6003 338.856 45.5121 338.886 45.4386L339.396 44.2001H366.067L365.863 46.3862C365.347 51.8985 362.952 59.9346 355.4 66.5778C347.849 73.2206 335.394 78.2481 315.199 78.2481H311.359C293.198 78.2481 281.585 73.3465 274.514 66.3275C267.456 59.3203 265.199 50.475 265.199 43.1281C265.199 40.737 265.301 38.5328 265.794 34.981C266.654 28.6217 269.44 19.9019 277.265 12.7773C285.107 5.6362 297.757 0.328125 317.887 0.328125H321.631C342.581 0.328125 354.671 5.23195 361.32 11.8284C368.004 18.4602 368.844 26.4555 368.058 31.8031L367.807 33.5121Z" fill="#F8F8F8"/>
<path fill-rule="evenodd" clip-rule="evenodd" d="M245.466 77.0002L240.666 63.9442H200.841L192.777 77.0002H165.473L166.736 75.0002H167.714L168.037 72.9408L213.12 1.57617H243.729L272.418 77.0002H245.466ZM199.726 61.9442H242.062L246.862 75.0002H269.518L242.35 3.57617H214.222L169.102 75.0002H191.662L199.726 61.9442ZM226.318 19.0322L209.71 45.8162H236.11L226.318 19.0322ZM225.851 23.5801L213.303 43.8162H233.249L225.851 23.5801Z" fill="#F8F8F8"/>
<path fill-rule="evenodd" clip-rule="evenodd" d="M107.736 1.57617H133.579L125.035 55.2402H172.838L169.95 73.6592L169.103 75.0002H169.74L169.427 77.0002H95.7734L107.736 1.57617ZM122.692 57.2402L131.236 3.57617H109.444L98.1156 75.0002H167.716L170.5 57.2402H122.692Z" fill="#F8F8F8"/>
<path fill-rule="evenodd" clip-rule="evenodd" d="M0.617188 77.0002L12.5796 1.57617H72.8474C82.2507 1.57617 88.7563 3.32801 92.9393 6.58147C97.2285 9.9175 98.7514 14.5689 98.7514 19.5122C98.7514 25.1985 96.1488 29.2504 92.9258 32.0014C91.4076 33.2973 89.7486 34.3103 88.1452 35.0929C92.6199 37.6776 97.5034 42.6042 97.5034 51.2882C97.5034 58.3085 95.4298 64.8624 89.9783 69.6192C84.5761 74.3329 76.1736 77.0002 64.1114 77.0002H0.617188ZM85.7934 36.1054C84.7114 35.5869 83.6915 35.2166 82.8314 34.9682C83.7247 34.7229 84.7555 34.385 85.8438 33.9358C90.72 31.9228 96.7514 27.6745 96.7514 19.5122C96.7514 10.4882 91.2794 3.57617 72.8474 3.57617H14.2874L2.95939 75.0002H64.1114C87.7274 75.0002 95.5034 64.5362 95.5034 51.2882C95.5034 42.6768 90.146 38.1913 85.7934 36.1054ZM71.1924 26.7043C72.0361 25.9142 72.3834 24.8746 72.3834 23.8322C72.3834 22.7102 72.1323 22.0724 71.6898 21.6611C71.2045 21.2101 70.0802 20.6482 67.4714 20.6482H35.3898L34.1939 28.2642H65.8394C68.7588 28.2642 70.347 27.4959 71.1924 26.7043ZM31.8554 30.2642L33.6794 18.6482H67.4714C73.1354 18.6482 74.3834 21.0482 74.3834 23.8322C74.3834 26.8082 72.3674 30.2642 65.8394 30.2642H31.8554ZM69.4651 55.3127C70.4924 54.192 70.8474 52.7566 70.8474 51.5762C70.8474 50.2693 70.5764 49.3679 69.9738 48.759C69.3647 48.1435 68.0243 47.4322 64.9754 47.4322H31.165L29.5871 57.4482H63.0554C66.621 57.4482 68.4784 56.3891 69.4651 55.3127ZM27.2474 59.4482L29.4554 45.4322H64.9754C71.5994 45.4322 72.8474 48.5042 72.8474 51.5762C72.8474 54.6482 71.0234 59.4482 63.0554 59.4482H27.2474Z" fill="#F8F8F8"/>
</svg>
