<svg width="139" height="82" viewBox="0 0 139 82" fill="none" xmlns="http://www.w3.org/2000/svg">
<path d="M104.643 48.4996C104.843 48.4996 104.943 47.7663 104.943 46.2996L104.743 42.1996L104.443 47.7996C104.443 48.2663 104.51 48.4996 104.643 48.4996ZM105.243 40.1996L105.343 39.7996C105.41 39.5329 105.443 39.1329 105.443 38.5996C105.443 38.1329 105.376 37.6996 105.243 37.2996H105.343L105.243 36.8996C105.176 36.8996 105.143 37.4329 105.143 38.4996C105.143 39.6329 105.176 40.1996 105.243 40.1996ZM105.643 33.9996C105.776 33.9996 105.843 33.5663 105.843 32.6996C105.843 31.8329 105.776 31.3996 105.643 31.3996C105.576 31.3996 105.543 31.8663 105.543 32.7996C105.543 33.5996 105.576 33.9996 105.643 33.9996ZM106.143 29.3996C106.276 29.3996 106.343 29.0663 106.343 28.3996C106.343 28.0663 106.31 27.7663 106.243 27.4996L106.143 27.0996C106.076 27.0996 106.043 27.4663 106.043 28.1996C106.043 28.9996 106.076 29.3996 106.143 29.3996ZM106.543 24.9996C106.743 24.9996 106.843 24.7329 106.843 24.1996L106.543 23.2996C106.476 23.2996 106.443 23.5329 106.443 23.9996C106.443 24.6663 106.476 24.9996 106.543 24.9996ZM109.943 81.9996C109.276 81.9996 108.41 81.8996 107.343 81.6996L105.343 80.8996C104.876 80.5663 104.61 73.533 104.543 59.7996C104.543 52.8663 104.476 49.3996 104.343 49.3996C104.076 49.8663 103.943 54.5329 103.943 63.3996C103.943 67.7329 103.976 70.9663 104.043 73.0996L104.443 78.6996C104.443 78.9663 104.41 79.0996 104.343 79.0996C104.276 79.0996 104.21 79.0996 104.143 79.0996C103.943 79.0996 103.61 78.8996 103.143 78.4996C101.943 77.433 101.043 76.1663 100.443 74.6996C99.843 72.8996 99.543 67.4663 99.543 58.3996C99.543 46.3996 100.043 36.0996 101.043 27.4996L101.243 25.3996L100.143 27.7996C97.6763 32.9996 94.843 39.9329 91.643 48.5996C88.5096 57.2663 86.1763 64.4329 84.643 70.0996L84.543 70.5996C83.343 75.5329 82.5763 78.0996 82.243 78.2996C81.9763 78.4996 81.6763 78.6329 81.343 78.6996H81.243C80.5763 78.8329 79.943 78.8996 79.343 78.8996C78.6096 78.6996 77.8096 78.1996 76.943 77.3996C76.0763 76.5996 75.4763 75.7663 75.143 74.8996C75.0763 74.4996 75.043 73.9996 75.043 73.3996C75.043 68.4663 78.043 57.4329 84.043 40.2996C88.3763 28.3663 92.7763 17.7663 97.243 8.49961C99.1763 4.56628 100.476 2.39961 101.143 1.99961C101.543 1.86628 101.91 1.59961 102.243 1.19961C102.576 0.799611 102.843 0.599609 103.043 0.599609C103.176 0.599609 103.276 0.732943 103.343 0.99961C103.343 1.13295 103.276 1.36628 103.143 1.69961C103.01 1.96628 102.943 2.23295 102.943 2.49961C102.943 2.83295 103.11 3.16628 103.443 3.49961C103.843 3.83295 104.11 3.99961 104.243 3.99961C104.376 3.99961 104.443 3.89961 104.443 3.69961C104.51 3.49961 104.576 3.39961 104.643 3.39961C104.71 3.39961 104.843 3.56628 105.043 3.89961C105.31 4.16628 105.61 4.29961 105.943 4.29961L106.243 4.19961C106.376 4.19961 106.576 4.36628 106.843 4.69961C107.176 5.03294 107.476 5.49961 107.743 6.09961C108.01 6.63294 108.143 7.09961 108.143 7.49961C108.143 8.03294 107.943 8.79961 107.543 9.79961C107.076 10.5329 106.843 10.9996 106.843 11.1996C106.843 11.3996 106.91 11.4996 107.043 11.4996C107.243 11.4996 107.476 11.3996 107.743 11.1996C108.076 10.9996 108.376 10.8996 108.643 10.8996C109.11 10.8996 109.61 11.0996 110.143 11.4996C110.743 11.8996 111.043 12.5663 111.043 13.4996L110.843 15.8996C110.443 19.6996 110.11 22.3329 109.843 23.7996C109.51 26.2663 109.276 28.3996 109.143 30.1996L108.743 35.0996C108.61 35.9663 108.51 36.8663 108.443 37.7996C108.31 40.0663 108.143 41.9663 107.943 43.4996C107.61 47.7663 107.243 55.433 106.843 66.4996C109.31 58.0996 111.143 52.0663 112.343 48.3996C115.876 37.7996 119.576 28.1329 123.443 19.3996C127.91 9.26628 130.91 4.19961 132.443 4.19961C132.643 4.19961 132.743 4.36628 132.743 4.69961L132.643 5.69961C132.643 6.29961 132.81 6.73294 133.143 6.99961C133.476 7.19961 133.776 7.29961 134.043 7.29961C134.31 7.29961 134.543 7.19961 134.743 6.99961C134.943 6.73294 135.076 6.59961 135.143 6.59961H135.243L134.943 7.79961V7.89961L135.343 7.69961C135.676 7.29961 136.076 7.09961 136.543 7.09961C136.61 7.09961 136.776 7.13294 137.043 7.19961C137.376 7.19961 137.743 7.43295 138.143 7.89961C138.543 8.29961 138.776 8.69961 138.843 9.09961C138.843 9.49961 138.643 10.1663 138.243 11.0996C137.91 12.0329 137.276 13.4663 136.343 15.3996C135.21 17.7996 133.943 20.6329 132.543 23.8996C131.143 27.1663 129.91 30.1663 128.843 32.8996C127.776 35.5663 127.21 37.0663 127.143 37.3996C127.143 37.7329 127.043 37.9996 126.843 38.1996C126.71 38.3996 126.543 38.4996 126.343 38.4996C125.876 38.7663 125.01 40.4329 123.743 43.4996C122.543 46.5663 121.176 50.3996 119.643 54.9996C118.11 59.5329 116.71 64.0996 115.443 68.6996C114.976 70.4329 114.643 71.6663 114.443 72.3996C114.243 73.1996 114.143 73.7996 114.143 74.1996C114.143 74.7996 114.243 75.1996 114.443 75.3996C115.176 76.1996 115.543 77.0663 115.543 77.9996C115.543 78.2663 115.443 78.7996 115.243 79.5996C115.11 80.3996 114.41 80.8663 113.143 80.9996C112.21 81.133 111.61 81.3329 111.343 81.5996C111.076 81.8663 110.61 81.9996 109.943 81.9996Z" fill="#215FF6"/>
<path d="M65.1078 43.9996C65.1745 43.9996 65.2411 43.9663 65.3078 43.8996C65.3745 43.7663 65.6745 43.2996 66.2078 42.4996C66.0745 42.4996 65.9078 42.6329 65.7078 42.8996C65.2411 43.4329 65.0078 43.7663 65.0078 43.8996C65.0078 43.9663 65.0411 43.9996 65.1078 43.9996ZM65.0078 81.3996C64.7411 81.3996 64.3411 81.033 63.8078 80.2996C63.6078 80.033 63.2745 79.6663 62.8078 79.1996C62.3411 78.7329 61.8745 78.2329 61.4078 77.6996C60.9411 77.1663 60.4411 76.633 59.9078 76.0996C60.1078 73.3663 60.4745 70.4663 61.0078 67.3996C61.9411 61.733 62.8745 57.0996 63.8078 53.4996C64.2078 51.9663 64.4078 51.0996 64.4078 50.8996V50.7996C64.3411 50.7996 62.7745 53.3663 59.7078 58.4996C51.7745 71.9663 46.0078 78.6996 42.4078 78.6996H39.7078L38.7078 78.8996C39.7745 79.633 40.3078 80.033 40.3078 80.0996C40.3078 80.1663 40.2411 80.1996 40.1078 80.1996C39.9745 80.1996 39.5411 79.933 38.8078 79.3996C38.1411 78.933 37.3745 78.333 36.5078 77.5996C35.3078 76.6663 34.4411 75.8663 33.9078 75.1996C33.3745 74.5996 33.0078 73.8996 32.8078 73.0996C32.6078 72.2996 32.5078 71.3329 32.5078 70.1996C32.5078 64.1996 35.0078 54.1329 40.0078 39.9996L42.8078 32.7996C45.8745 25.1329 48.0411 19.9663 49.3078 17.2996C50.1078 15.8329 50.5078 14.9996 50.5078 14.7996C50.5078 14.5329 50.8411 13.7329 51.5078 12.3996C52.1078 11.4663 52.4078 10.7663 52.4078 10.2996L52.3078 10.0996C52.3078 9.56628 52.9745 8.33295 54.3078 6.39961C54.8411 5.59961 55.7411 4.56628 57.0078 3.29961L56.7078 5.09961C56.7078 5.69961 56.9078 6.36628 57.3078 7.09961C57.7745 7.83295 58.1078 8.19961 58.3078 8.19961C58.5078 8.19961 58.7078 8.06628 58.9078 7.79961C59.1078 7.53295 59.2745 7.39961 59.4078 7.39961C59.6078 7.39961 59.8745 7.69961 60.2078 8.29961C60.7411 8.96628 61.0078 9.66628 61.0078 10.3996C61.0078 10.9329 60.8411 11.4996 60.5078 12.0996C58.7745 15.4996 55.7745 22.4996 51.5078 33.0996C47.5078 42.8329 44.5745 51.1663 42.7078 58.0996C41.7078 61.8329 40.9411 65.133 40.4078 67.9996C40.0745 69.8663 39.9078 71.133 39.9078 71.7996C39.9078 72.133 39.9411 72.333 40.0078 72.3996C40.8745 72.3996 42.4745 70.933 44.8078 67.9996C47.1411 65.0663 49.5745 61.4996 52.1078 57.2996C68.8411 28.8996 78.3411 12.5996 80.6078 8.39961C81.5411 6.79961 82.3078 5.49961 82.9078 4.49961C83.5745 3.43294 83.9745 2.89961 84.1078 2.89961H84.2078C84.3411 2.89961 84.6411 2.59961 85.1078 1.99961L85.2078 1.79961C85.5411 1.33294 85.8078 1.09961 86.0078 1.09961C86.0745 1.09961 86.1078 1.16628 86.1078 1.29961C86.1078 1.49961 85.9745 1.83295 85.7078 2.29961L85.6078 2.89961C85.6078 3.29961 85.8078 3.83295 86.2078 4.49961C86.6745 5.09961 86.9078 5.73295 86.9078 6.39961C86.9078 6.46628 86.9412 6.49961 87.0078 6.49961L87.5078 5.89961C87.5745 5.89961 87.6078 5.86628 87.6078 5.79961L88.2078 4.69961C88.4745 5.16628 88.7745 5.69961 89.1078 6.29961C89.4411 6.89961 89.6078 7.39961 89.6078 7.79961C89.6078 8.53294 87.3745 14.5329 82.9078 25.7996C78.5745 36.5329 75.7411 44.0996 74.4078 48.4996C74.0745 49.3663 73.8078 50.1663 73.6078 50.8996C73.4745 51.6329 73.3078 52.0996 73.1078 52.2996C72.5078 54.2329 71.8078 56.8663 71.0078 60.1996C68.8745 68.7996 67.6745 74.4996 67.4078 77.2996C67.3411 79.4996 67.1078 80.5996 66.7078 80.5996C66.5745 80.5996 66.4411 80.433 66.3078 80.0996C66.1745 79.7663 66.0078 79.5996 65.8078 79.5996C65.4745 79.5996 65.3078 79.8996 65.3078 80.4996C65.3078 81.0996 65.2078 81.3996 65.0078 81.3996Z" fill="#215FF6"/>
<path d="M41.175 3.89942C41.7083 3.89942 41.975 3.83275 41.975 3.69941L41.875 3.59942L41.075 3.49942C40.9417 3.49942 40.8083 3.53275 40.675 3.59942L40.475 3.69941C40.475 3.83275 40.7083 3.89942 41.175 3.89942ZM30.275 24.6994L30.375 24.5994L30.275 24.4994C30.2083 24.4327 30.1083 24.3994 29.975 24.3994C29.8417 24.3994 29.7083 24.4327 29.575 24.4994C29.4417 24.5661 29.375 24.6327 29.375 24.6994H30.275ZM6.075 79.8994C6.14167 79.8994 6.175 79.8661 6.175 79.7994C6.175 79.5328 6.10833 79.1661 5.975 78.6994C5.775 78.2994 5.60833 78.0994 5.475 78.0994L5.375 78.4994C5.375 78.6328 5.40833 78.7994 5.475 78.9994C5.475 79.1994 5.54167 79.3994 5.675 79.5994C5.80833 79.7994 5.94167 79.8994 6.075 79.8994ZM5.675 80.3994H5.475L3.475 79.8994C2.275 79.5661 1.54167 79.1328 1.275 78.5994C1.00833 78.1328 0.875 77.4994 0.875 76.6994C0.875 74.0994 2.075 68.8328 4.475 60.8994C6.34167 54.5661 8.30833 49.0661 10.375 44.3994L11.075 42.5994C11.475 41.3994 11.9417 40.1661 12.475 38.8994C13.075 37.6327 13.375 36.9327 13.375 36.7994C13.375 36.5994 13.275 36.4661 13.075 36.3994C12.9417 36.2661 12.8417 36.1327 12.775 35.9994C12.7083 35.7994 12.675 35.6328 12.675 35.4994V35.2994C12.675 35.0327 12.475 34.8994 12.075 34.8994H11.875C11.3417 34.8994 10.675 34.4994 9.875 33.6994C9.075 32.8994 8.675 32.3994 8.675 32.1994C8.675 32.1327 8.675 32.0661 8.675 31.9994C8.675 31.9328 8.74167 31.8661 8.875 31.7994C9.075 31.6661 9.24167 31.5661 9.375 31.4994C9.50833 31.3661 9.675 31.2328 9.875 31.0994C10.1417 30.8994 10.375 30.6994 10.575 30.4994C10.8417 30.2994 11.3417 30.0327 12.075 29.6994C12.8083 29.2994 13.675 28.8994 14.675 28.4994C15.675 28.0994 16.675 27.6661 17.675 27.1994L20.975 20.5994C22.9083 16.7327 23.875 14.5327 23.875 13.9994L23.775 13.8994C23.5083 14.0994 23.375 14.2661 23.375 14.3994V14.5994C23.375 14.8661 23.0417 14.9994 22.375 14.9994C21.5083 14.9994 21.075 14.8661 21.075 14.5994C21.075 14.3327 20.7083 14.1994 19.975 14.1994C19.3083 14.1994 18.475 13.7994 17.475 12.9994L16.075 11.7994C16.5417 11.3327 17.0083 10.8327 17.475 10.2994C18.0083 9.69941 18.5083 9.39941 18.975 9.39941L19.475 9.49942L19.375 9.29941C19.375 9.03275 20.1083 8.56608 21.575 7.89941C28.0417 5.09941 36.7083 3.23275 47.575 2.29941C50.1083 2.03275 52.2417 1.89941 53.975 1.89941C55.4417 1.89941 56.575 1.99941 57.375 2.19942C57.9083 2.26608 58.175 2.33275 58.175 2.39941C58.175 2.46608 57.1083 2.49941 54.975 2.49941C53.575 2.49941 51.9417 2.56608 50.075 2.69942C48.275 2.76608 46.675 2.86608 45.275 2.99942C43.9417 3.06608 43.2083 3.16608 43.075 3.29941C43.075 3.36608 43.575 3.39941 44.575 3.39941L52.375 3.19942C54.4417 3.19942 56.2417 3.39941 57.775 3.79941C59.3083 4.19942 61.0083 5.36608 62.875 7.29942C63.675 8.09942 64.075 8.89942 64.075 9.69942C64.075 10.1661 63.875 10.3994 63.475 10.3994C63.2083 10.3994 63.075 10.3328 63.075 10.1994V9.99942C63.075 9.73275 62.9083 9.59942 62.575 9.59942C62.3083 9.59942 62.175 9.53275 62.175 9.39941C62.175 9.33275 62.2417 9.23275 62.375 9.09942C62.575 8.89942 62.675 8.73275 62.675 8.59942C62.675 8.33275 62.575 8.19942 62.375 8.19942C62.175 8.19942 62.0083 8.39941 61.875 8.79941C61.6083 9.46608 61.3083 9.79941 60.975 9.79941C60.6417 9.79941 60.375 9.46608 60.175 8.79941C60.1083 8.39941 60.0083 8.09942 59.875 7.89941C59.7417 7.69942 59.0417 7.59942 57.775 7.59942C55.7083 7.59942 52.675 7.86608 48.675 8.39941C44.7417 8.86608 41.175 9.43275 37.975 10.0994C37.3083 10.2327 36.8083 10.3661 36.475 10.4994C36.1417 10.6327 35.875 10.8661 35.675 11.1994C35.475 11.4661 34.975 12.3994 34.175 13.9994C33.0417 16.4661 32.0417 18.3994 31.175 19.7994L30.475 21.0994C29.675 22.6994 29.275 23.5994 29.275 23.7994C29.6083 23.7994 31.1083 23.4994 33.775 22.8994C38.575 21.8994 41.5417 21.3994 42.675 21.3994C42.875 21.3994 42.975 21.4327 42.975 21.4994C42.975 21.5661 42.775 21.6661 42.375 21.7994C41.975 21.9328 41.475 22.0328 40.875 22.0994C40.275 22.1661 39.5083 22.2994 38.575 22.4994C37.7083 22.6327 36.8417 22.7994 35.975 22.9994C35.1083 23.1994 34.4083 23.3661 33.875 23.4994L32.975 23.7994H33.275C33.675 23.7994 34.775 23.6327 36.575 23.2994C38.9083 22.9661 40.775 22.7994 42.175 22.7994C43.575 22.8661 44.7083 23.1661 45.575 23.6994C46.4417 24.1661 47.075 24.5994 47.475 24.9994C47.875 25.3994 48.075 25.6994 48.075 25.8994C48.075 26.1661 47.375 26.3994 45.975 26.5994C45.1083 26.7327 43.575 27.0661 41.375 27.5994C36.5083 28.7327 31.975 29.9327 27.775 31.1994L24.175 32.4994C22.3083 35.9661 20.675 39.4994 19.275 43.0994C19.075 43.6328 18.8417 44.1994 18.575 44.7994C18.3083 45.3994 18.075 45.9661 17.875 46.4994C17.675 46.9661 17.275 47.9661 16.675 49.4994C16.075 50.9661 15.4417 52.5661 14.775 54.2994C10.375 66.0328 8.175 73.8328 8.175 77.6994L8.275 79.3994C8.275 79.7328 8.20833 79.8994 8.075 79.8994C7.94167 79.8994 7.60833 79.9661 7.075 80.0994C6.475 80.0994 6.00833 80.1994 5.675 80.3994Z" fill="#215FF6"/>
</svg>
