<svg width="691" height="99" viewBox="0 0 691 99" fill="none" xmlns="http://www.w3.org/2000/svg">
<path d="M609.048 35.4315H578.584L578.712 34.1515C580.12 22.2475 586.904 0.103516 634.008 0.103516H639C680.6 0.103516 690.2 13.5435 690.2 26.8555C690.2 40.6795 684.44 53.8635 650.52 58.3435C642.712 59.3675 629.4 61.1595 622.104 62.3115C599.704 65.7675 597.016 71.9115 596.888 74.4715H655.768L657.688 62.1835H686.104L680.6 96.9995H567.32L568.984 86.2475C571.16 72.4235 575.128 50.0235 618.264 41.8315C625.816 40.4235 639.256 37.9915 644.76 37.0955C657.688 34.6635 659.096 32.2315 659.096 29.0315C659.096 25.7035 656.664 22.1195 636.312 22.1195C612.76 22.1195 609.944 30.8235 609.048 35.4315Z" fill="#F8F8F8"/>
<path d="M537.655 37.9916H516.023L518.967 20.0716C535.351 18.6636 543.031 11.8796 548.407 1.76758H572.215L557.111 96.9996H528.311L537.655 37.9916Z" fill="#F8F8F8"/>
<path d="M434.313 98.6635C382.473 98.6635 371.977 73.4475 371.977 56.4235C371.977 53.4795 371.977 50.2795 372.617 45.6715C374.921 30.0555 382.857 0.103516 441.481 0.103516H446.985C498.441 0.103516 509.449 24.5515 509.449 41.7035C509.449 45.0315 509.321 48.4875 508.809 52.0715C506.377 68.4555 498.569 98.6635 439.817 98.6635H434.313ZM478.729 44.7755C478.729 34.2795 471.561 23.1435 443.273 23.1435C411.657 23.1435 404.105 37.2235 403.209 48.1035C403.081 49.7675 403.081 51.0475 403.081 52.4555C403.081 62.8235 409.353 75.4955 438.153 75.4955C469.257 75.4955 476.809 61.4155 478.345 49.8955C478.601 47.9755 478.729 46.5675 478.729 44.7755Z" fill="#F8F8F8"/>
<path d="M280.913 42.0876H325.201C334.801 42.0876 338.513 36.8396 338.513 31.7196C338.513 26.8556 335.697 23.3996 327.889 23.3996H283.985L280.913 42.0876ZM277.713 63.2076L272.337 96.9996H243.281L258.385 1.76758H333.905C361.809 1.76758 369.745 12.3916 369.745 24.8076C369.745 39.5276 357.201 46.1836 348.753 48.6156C357.457 51.3036 365.009 57.3196 363.089 69.6076L360.529 85.6076C359.505 92.3916 360.273 94.8236 360.657 96.3596L360.529 96.9996H330.961C330.449 95.9756 330.065 94.5676 330.705 90.5996L332.369 80.1036C334.161 68.8396 329.937 63.2076 315.217 63.2076H277.713Z" fill="#F8F8F8"/>
<path d="M148.26 1.76758H245.796L242.34 23.3996H173.476L171.3 37.4796H238.628L235.172 59.2396H167.844L165.284 74.8556H235.3L231.844 96.9996H133.156L148.26 1.76758Z" fill="#F8F8F8"/>
<path d="M0.28125 96.9996L15.3853 1.76758H44.4413L38.9373 36.4556H100.249L105.753 1.76758H134.809L119.705 96.9996H90.6493L96.5373 59.4956H35.2253L29.3373 96.9996H0.28125Z" fill="#F8F8F8"/>
</svg>
