<svg width="427" height="73" viewBox="0 0 427 73" fill="none" xmlns="http://www.w3.org/2000/svg">
<path d="M421.222 38.176C421.414 37.984 421.606 37.408 421.798 36.448C422.038 35.488 422.158 34.672 422.158 34C422.158 33.376 422.038 33.064 421.798 33.064C421.558 33.064 421.438 33.472 421.438 34.288V34.72C421.438 35.152 421.414 35.632 421.366 36.16C421.318 36.688 421.27 37.096 421.222 37.384C421.174 37.672 421.15 37.888 421.15 38.032C421.15 38.128 421.174 38.176 421.222 38.176ZM419.998 56.032C420.046 55.984 420.07 55.912 420.07 55.816C420.07 55.72 420.046 55.6 419.998 55.456L419.926 55.312C419.878 55.408 419.854 55.576 419.854 55.816C419.854 55.96 419.878 56.032 419.926 56.032H419.998ZM419.71 57.184L419.782 56.896L419.638 56.464C419.59 56.464 419.566 56.584 419.566 56.824C419.566 57.064 419.59 57.184 419.638 57.184H419.71ZM419.35 58.552C419.446 58.552 419.494 58.432 419.494 58.192C419.494 57.856 419.446 57.688 419.35 57.688C419.302 57.688 419.278 57.832 419.278 58.12C419.278 58.408 419.302 58.552 419.35 58.552ZM402.646 58.984C402.79 58.984 403.27 58.672 404.086 58.048C404.95 57.376 405.958 56.488 407.11 55.384C409.942 52.552 412.966 49.048 416.182 44.872C416.278 44.776 416.374 44.632 416.47 44.44L417.478 43.216C419.158 41.104 419.998 39.784 419.998 39.256C419.998 39.016 419.854 38.896 419.566 38.896H419.422C419.182 38.896 419.062 38.68 419.062 38.248C419.062 37.96 419.134 37.528 419.278 36.952L419.35 36.376C419.35 35.944 419.302 35.728 419.206 35.728C419.014 35.536 418.918 35.272 418.918 34.936C418.918 34.792 418.87 34.72 418.774 34.72C418.582 34.768 417.958 35.32 416.902 36.376C411.862 41.56 407.59 47.872 404.086 55.312C403.078 57.424 402.574 58.624 402.574 58.912C402.574 58.96 402.598 58.984 402.646 58.984ZM401.782 63.664C401.926 63.664 402.142 63.64 402.43 63.592C402.718 63.592 402.982 63.544 403.222 63.448C403.462 63.352 403.582 63.28 403.582 63.232C403.582 63.184 403.366 63.136 402.934 63.088H402.862C402.526 63.088 402.238 63.136 401.998 63.232C401.71 63.328 401.566 63.424 401.566 63.52C401.566 63.568 401.638 63.616 401.782 63.664ZM419.71 31.84C419.758 31.84 419.782 31.744 419.782 31.552C419.782 30.832 419.398 30.472 418.63 30.472C418.006 30.472 417.286 30.712 416.47 31.192C415.99 31.48 415.75 31.648 415.75 31.696C415.798 31.696 415.87 31.672 415.966 31.624C416.11 31.576 416.422 31.528 416.902 31.48L417.694 31.336C418.654 31.336 419.206 31.432 419.35 31.624C419.542 31.768 419.662 31.84 419.71 31.84ZM418.198 64.744L415.894 63.52C415.942 62.752 415.966 62.008 415.966 61.288C415.966 60.616 416.062 59.704 416.254 58.552C416.446 57.352 416.662 56.2 416.902 55.096C417.142 53.944 417.334 53.032 417.478 52.36C417.622 51.64 417.694 51.208 417.694 51.064V50.992C417.598 50.992 416.974 51.664 415.822 53.008C413.134 56.368 410.638 58.936 408.334 60.712C407.662 61.192 406.918 61.672 406.102 62.152C404.086 63.352 402.838 63.952 402.358 63.952C402.262 63.952 401.95 63.856 401.422 63.664C400.894 63.472 400.342 63.208 399.766 62.872C398.518 62.248 397.726 61.648 397.39 61.072C397.198 60.784 397.102 60.4 397.102 59.92C397.102 59.536 397.174 59.08 397.318 58.552C398.086 55.336 399.862 51.4 402.646 46.744C405.43 42.088 408.43 38.056 411.646 34.648C414.622 31.576 416.902 30.04 418.486 30.04C419.11 30.04 419.542 30.328 419.782 30.904C420.07 31.432 420.31 31.696 420.502 31.696H420.718C420.958 31.696 421.318 31.816 421.798 32.056C422.326 32.248 422.758 32.56 423.094 32.992C423.43 33.376 423.598 33.76 423.598 34.144C423.598 34.48 423.478 35.416 423.238 36.952L423.094 37.672C423.094 37.864 423.214 38.104 423.454 38.392C423.742 38.632 424.078 38.752 424.462 38.752C424.654 38.752 424.798 38.704 424.894 38.608C425.038 38.464 425.182 38.392 425.326 38.392C425.422 38.392 425.71 38.512 426.19 38.752C426.718 39.184 426.982 39.472 426.982 39.616C426.982 40.192 426.286 42.448 424.894 46.384C423.694 49.744 422.614 53.392 421.654 57.328C420.838 60.496 420.43 62.632 420.43 63.736C420.43 64.216 420.334 64.456 420.142 64.456L419.566 64.312H419.134C419.038 64.312 418.99 63.808 418.99 62.8V61.576L419.134 59.56C419.134 59.368 419.11 59.272 419.062 59.272C418.966 59.272 418.678 61.096 418.198 64.744Z" fill="#757575"/>
<path d="M389.409 30.7607C389.553 30.7607 389.625 30.5207 389.625 30.0407L389.553 29.9687L389.409 30.1127C389.313 30.1607 389.265 30.2567 389.265 30.4007C389.265 30.4487 389.265 30.5207 389.265 30.6167C389.313 30.7127 389.361 30.7607 389.409 30.7607ZM399.921 35.0087L399.489 34.0727C399.201 33.4967 398.961 33.2087 398.769 33.2087C398.673 33.2087 398.553 33.2327 398.409 33.2807C398.265 33.3287 398.145 33.3527 398.049 33.3527H397.977C397.977 33.4967 398.241 33.8087 398.769 34.2887C399.297 34.7687 399.681 35.0087 399.921 35.0087ZM402.945 39.1127L403.017 39.0407L402.369 38.1047H402.297C402.297 38.2007 402.369 38.3927 402.513 38.6807C402.705 38.9687 402.825 39.1127 402.873 39.1127H402.945ZM406.761 39.8327C407.289 39.8327 407.769 39.8087 408.201 39.7607C408.633 39.6647 408.921 39.5927 409.065 39.5447L409.209 39.4727C409.209 39.3767 408.609 39.3287 407.409 39.3287C406.209 39.3287 405.393 39.2567 404.961 39.1127L404.601 39.0407C404.601 39.5687 405.321 39.8327 406.761 39.8327ZM408.201 42.7127C408.009 42.6167 407.793 42.5447 407.553 42.4967C407.361 42.4007 407.145 42.3287 406.905 42.2807C406.665 42.1847 406.281 42.1367 405.753 42.1367C406.281 42.4247 406.665 42.5927 406.905 42.6407C407.193 42.6887 407.625 42.7127 408.201 42.7127ZM388.905 44.5127L389.121 44.3687C389.217 44.2727 389.313 44.1287 389.409 43.9367C389.553 43.7447 389.625 43.6007 389.625 43.5047C389.625 43.4087 389.577 43.3607 389.481 43.3607C389.433 43.3607 389.313 43.4327 389.121 43.5767C388.977 43.7207 388.905 44.0087 388.905 44.4407V44.5127ZM382.713 63.5207C382.665 63.5207 382.569 63.4487 382.425 63.3047C382.041 63.1127 381.657 62.8247 381.273 62.4407C381.129 62.3447 381.033 62.2967 380.985 62.2967C380.889 62.2967 380.433 62.0327 379.617 61.5047C378.753 61.0247 378.249 60.5927 378.105 60.2087C378.105 58.6247 378.513 56.2727 379.329 53.1527C380.145 50.0327 381.249 46.5527 382.641 42.7127C384.897 36.2807 386.745 32.2967 388.185 30.7607C388.809 30.0407 389.289 29.6807 389.625 29.6807C389.817 29.6807 389.913 29.8247 389.913 30.1127C389.913 30.5927 390.009 30.9767 390.201 31.2647C390.441 31.7447 390.753 31.9847 391.137 31.9847C391.233 31.9847 391.329 31.9607 391.425 31.9127C391.521 31.8167 391.641 31.7687 391.785 31.7687C391.929 31.7687 392.481 32.1527 393.441 32.9207L393.081 34.2887C392.841 35.0087 392.649 35.3687 392.505 35.3687C392.361 35.3687 392.145 35.6807 391.857 36.3047C391.281 37.6007 390.729 39.1367 390.201 40.9127L389.985 42.1367H390.057C390.393 42.1367 391.377 40.9847 393.009 38.6807C395.889 34.6487 397.809 32.6327 398.769 32.6327C399.153 32.7767 399.489 33.1367 399.777 33.7127C400.017 34.0967 400.569 34.6007 401.433 35.2247C402.105 35.6087 402.753 36.2327 403.377 37.0967C403.665 37.6247 403.953 37.9847 404.241 38.1767C404.913 38.6087 405.849 38.8247 407.049 38.8247C408.681 38.8247 410.001 38.6807 411.009 38.3927C411.009 38.4407 410.841 38.5847 410.505 38.8247C410.169 39.0167 410.001 39.1607 410.001 39.2567C410.001 39.4487 410.241 39.5447 410.721 39.5447C411.249 39.5447 411.681 39.7127 412.017 40.0487C412.209 40.3847 412.473 40.5527 412.809 40.5527C412.857 40.5047 412.929 40.4807 413.025 40.4807C413.121 40.4807 413.241 40.5287 413.385 40.6247C413.577 40.7207 413.745 40.8887 413.889 41.1287C414.081 41.3207 414.201 41.4887 414.249 41.6327C414.249 41.7767 414.105 41.9207 413.817 42.0647C413.097 42.4967 412.257 42.7607 411.297 42.8567C410.529 42.8567 410.145 42.9287 410.145 43.0727C410.145 43.2167 409.785 43.2887 409.065 43.2887C408.201 43.2887 407.481 43.2647 406.905 43.2167C406.377 43.1207 405.993 43.0247 405.753 42.9287C405.513 42.7847 405.105 42.4967 404.529 42.0647C403.953 41.5847 403.353 41.0567 402.729 40.4807C402.105 39.8567 401.577 39.4007 401.145 39.1127C400.761 38.8247 400.497 38.6807 400.353 38.6807C399.921 38.6807 397.977 41.2967 394.521 46.5287C391.737 50.7527 388.833 55.3367 385.809 60.2807C385.329 61.0967 384.753 61.8407 384.081 62.5127C383.409 63.1847 382.953 63.5207 382.713 63.5207Z" fill="#757575"/>
<path d="M364.823 47.3208C364.967 47.3208 365.183 47.2488 365.471 47.1048C365.903 46.8168 367.439 45.4007 370.079 42.8568C371.519 41.4168 372.599 40.0968 373.319 38.8968C373.703 38.2248 373.895 37.8168 373.895 37.6728L373.823 37.6007H373.679C373.583 37.6007 373.535 37.5287 373.535 37.3848C373.535 37.0488 373.607 36.8328 373.751 36.7368C374.039 36.4488 374.279 35.9207 374.471 35.1527L374.687 34.5047C374.639 34.5047 374.591 34.5528 374.543 34.6488C374.495 34.7448 374.231 35.1527 373.751 35.8727C373.511 36.1607 373.295 36.4728 373.103 36.8088C372.383 37.9128 371.927 38.4647 371.735 38.4647C371.591 38.3687 371.519 38.2488 371.519 38.1048C371.519 37.8168 371.615 37.6728 371.807 37.6728C372.047 37.6728 372.167 37.5048 372.167 37.1688C372.167 36.8808 372.143 36.7368 372.095 36.7368C372.047 36.7368 371.903 36.9047 371.663 37.2407C371.231 37.7687 370.871 38.0327 370.583 38.0327C370.343 38.0327 369.479 39.0648 367.991 41.1287C366.551 43.1928 365.831 44.3687 365.831 44.6567C365.831 44.9447 365.759 45.0887 365.615 45.0887C365.519 45.0887 365.399 45.2087 365.255 45.4487C364.871 45.9287 364.679 46.3847 364.679 46.8167C364.679 46.9607 364.559 47.0327 364.319 47.0327V47.1048C364.319 47.1528 364.367 47.2007 364.463 47.2487C364.607 47.2967 364.727 47.3208 364.823 47.3208ZM361.583 64.1688C362.159 64.1688 362.711 64.0008 363.239 63.6648L363.527 63.5208L363.455 63.4488L363.167 63.5208C362.735 63.6648 362.231 63.7368 361.655 63.7368C361.079 63.7368 360.791 63.7608 360.791 63.8088C360.791 63.8568 360.839 63.9288 360.935 64.0248C361.079 64.1208 361.295 64.1688 361.583 64.1688ZM362.087 67.1928C362.519 67.1928 362.735 67.1448 362.735 67.0488L362.519 66.9768C362.423 66.9288 362.279 66.9048 362.087 66.9048C361.895 66.9048 361.751 66.9288 361.655 66.9768L361.439 67.0488C361.439 67.1448 361.655 67.1928 362.087 67.1928ZM379.079 53.6567V53.5848C379.127 53.5848 379.151 53.5367 379.151 53.4408V53.3688V53.2967L379.007 53.5128L379.079 53.6567ZM363.023 68.2728C362.639 68.2728 362.231 68.2008 361.799 68.0568C361.367 67.9608 360.623 67.5528 359.567 66.8328C358.559 66.1128 357.575 65.3208 356.615 64.4568C355.655 63.6408 354.983 62.9928 354.599 62.5128C353.783 61.2168 353.375 59.6088 353.375 57.6888C353.375 56.4408 353.711 54.4968 354.383 51.8568C355.007 49.1688 356.591 45.8328 359.135 41.8488C361.727 37.8648 364.847 34.5047 368.495 31.7687C370.079 30.5687 371.327 29.9688 372.239 29.9688C372.575 29.9688 372.839 30.0647 373.031 30.2568C373.271 30.4007 373.439 30.5687 373.535 30.7607C373.679 30.9047 373.751 31.0487 373.751 31.1927C373.751 31.3368 373.727 31.4088 373.679 31.4088C373.631 31.4088 373.559 31.3128 373.463 31.1208C373.271 30.6408 372.887 30.4008 372.311 30.4008C372.023 30.4008 371.759 30.4728 371.519 30.6168C371.279 30.7608 371.159 30.8568 371.159 30.9048C371.159 30.9528 371.327 30.9767 371.663 30.9767C372.047 30.9767 372.479 31.1927 372.959 31.6248C373.487 32.0088 373.967 32.2008 374.399 32.2008C374.879 32.2008 375.191 32.2968 375.335 32.4888C375.479 32.6328 375.599 32.7048 375.695 32.7048C375.839 32.7048 375.911 32.6088 375.911 32.4167L375.839 31.6968C375.887 31.6968 375.959 31.7688 376.055 31.9128C376.295 32.2007 376.415 32.5847 376.415 33.0648C376.415 33.4968 376.559 33.8088 376.847 34.0007C377.135 34.3367 377.279 34.9128 377.279 35.7288C377.279 36.5448 377.135 37.3847 376.847 38.2487C376.607 38.7767 376.487 39.1368 376.487 39.3288H376.559C376.751 39.3288 376.991 38.8488 377.279 37.8888C377.567 36.6408 377.711 35.7287 377.711 35.1527C377.711 34.1447 377.783 33.6407 377.927 33.6407C377.975 33.6407 378.071 33.7127 378.215 33.8568C378.935 34.5767 379.295 35.4168 379.295 36.3768C379.295 37.6248 378.623 39.4007 377.279 41.7048C375.983 43.9607 373.703 46.3368 370.439 48.8328C367.703 50.8008 365.495 51.7848 363.815 51.7848C363.335 51.7848 362.975 51.8088 362.735 51.8568C362.543 51.8568 362.399 51.9288 362.303 52.0728C361.871 52.6967 361.487 53.6568 361.151 54.9528L360.791 56.2488C360.311 58.2648 360.071 59.9447 360.071 61.2887C360.071 62.2487 360.167 62.7768 360.359 62.8728C360.599 63.0168 360.935 63.0888 361.367 63.0888C362.903 63.0888 365.063 62.1768 367.847 60.3528C369.047 59.5848 370.151 58.6968 371.159 57.6888C374.567 54.6648 376.415 52.9367 376.703 52.5047C377.231 51.9287 377.663 51.6408 377.999 51.6408C378.431 51.6408 378.959 51.9287 379.583 52.5047C380.255 53.0807 380.591 53.6567 380.591 54.2327C380.495 55.0008 379.679 56.2008 378.143 57.8328C371.759 64.7928 366.719 68.2728 363.023 68.2728Z" fill="#757575"/>
<path d="M329.811 29.8242C330.051 29.8242 330.171 29.6802 330.171 29.3922C330.171 29.2962 330.147 29.2482 330.099 29.2482C330.099 29.2002 330.075 29.1762 330.027 29.1762L329.883 29.2482C329.595 29.4402 329.451 29.5842 329.451 29.6802C329.451 29.7762 329.523 29.8242 329.667 29.8242H329.811ZM345.795 26.8722C345.843 26.8242 345.867 26.7042 345.867 26.5122C345.867 26.2242 345.819 26.0802 345.723 26.0802C345.675 26.0802 345.603 26.1282 345.507 26.2242C345.459 26.2722 345.435 26.3202 345.435 26.3682C345.435 26.4162 345.435 26.4642 345.435 26.5122V26.5842C345.579 26.7762 345.675 26.8722 345.723 26.8722H345.795ZM350.835 44.2242L351.987 44.0802C352.995 43.7442 353.499 43.4802 353.499 43.2882C353.499 43.0962 353.403 43.0002 353.211 43.0002C353.163 43.0002 353.091 43.0242 352.995 43.0722C352.899 43.1202 352.755 43.1682 352.563 43.2162C352.419 43.2642 352.299 43.2882 352.203 43.2882C352.107 43.2882 351.939 43.3362 351.699 43.4322C351.507 43.5282 351.291 43.6722 351.051 43.8642C350.859 44.0082 350.763 44.1042 350.763 44.1522C350.763 44.2002 350.787 44.2242 350.835 44.2242ZM354.939 56.0322C355.083 56.0322 355.155 55.9362 355.155 55.7442C355.155 55.6482 355.107 55.5042 355.011 55.3122C354.963 55.0722 354.939 54.4722 354.939 53.5122C354.939 52.8402 354.891 52.5042 354.795 52.5042C354.747 52.5042 354.675 52.5522 354.579 52.6482C354.531 52.7442 354.507 52.9842 354.507 53.3682L354.579 54.3762C354.579 55.4802 354.699 56.0322 354.939 56.0322ZM354.795 50.7762C354.891 50.7282 354.939 50.6322 354.939 50.4882C354.939 50.2002 354.867 50.0562 354.723 50.0562C354.675 50.0562 354.651 50.1522 354.651 50.3442C354.651 50.5362 354.675 50.6562 354.723 50.7042V50.7762H354.795ZM319.515 62.2242L319.443 62.1522C319.347 62.1042 319.251 62.0562 319.155 62.0082C319.059 61.9602 318.939 61.8882 318.795 61.7922C318.603 61.7442 318.459 61.6482 318.363 61.5042C318.219 61.4082 318.147 61.3122 318.147 61.2162C318.147 61.1682 318.123 61.1442 318.075 61.1442L317.715 61.2162V61.1442C317.715 61.0962 317.811 60.9522 318.003 60.7122C318.147 60.4722 318.219 60.2802 318.219 60.1362C318.219 59.9442 318.171 59.7762 318.075 59.6322C317.979 59.4402 317.931 59.0322 317.931 58.4082L318.003 55.9602C318.339 52.0242 319.755 47.0802 322.251 41.1282C323.835 37.2882 325.491 34.0242 327.219 31.3362C327.699 30.5202 328.131 29.9202 328.515 29.5362C328.947 28.9122 329.331 28.6002 329.667 28.6002C329.907 28.6002 330.171 28.7682 330.459 29.1042L331.179 29.6802C331.179 29.7762 331.155 29.8482 331.107 29.8962L330.819 30.1842C330.819 30.2322 330.915 30.2562 331.107 30.2562C332.115 30.2562 333.459 30.7842 335.139 31.8402C334.323 33.5202 333.747 34.4322 333.411 34.5762L333.339 34.7202C333.339 34.8162 333.339 34.8642 333.339 34.8642L333.411 34.9362C333.411 34.9842 333.387 35.0082 333.339 35.0082C332.811 35.2962 332.403 35.9922 332.115 37.0962C332.115 37.2402 332.043 37.3362 331.899 37.3842L331.755 37.4562L331.683 37.5282L331.827 37.8162C331.827 37.8642 331.803 37.9122 331.755 37.9602C331.755 37.9602 331.635 37.9842 331.395 38.0322L331.467 38.2482C331.467 38.3922 331.371 38.5602 331.179 38.7522C330.987 38.9442 330.891 39.1842 330.891 39.4722C330.891 39.7122 330.843 39.8322 330.747 39.8322C330.699 39.8322 330.411 40.2882 329.883 41.2002C329.403 42.1122 328.875 43.1682 328.299 44.3682C326.811 47.2482 326.067 48.8082 326.067 49.0482C326.163 49.0482 327.171 47.8002 329.091 45.3042C330.195 43.7682 331.323 42.2802 332.475 40.8402L333.267 39.7602C334.611 38.0802 336.051 36.4242 337.587 34.7922C338.835 33.5442 340.011 32.1762 341.115 30.6882C342.219 29.1522 343.371 27.8082 344.571 26.6562L344.787 26.5122C345.411 25.8882 345.819 25.5762 346.011 25.5762C346.059 25.5762 346.131 25.6242 346.227 25.7202C346.323 25.7682 346.371 26.0562 346.371 26.5842C346.419 27.0642 346.515 27.4002 346.659 27.5922C346.851 27.7842 347.043 27.8802 347.235 27.8802C347.331 27.8802 347.451 27.8322 347.595 27.7362C347.787 27.6402 347.955 27.5922 348.099 27.5922C348.243 27.5922 348.435 27.6642 348.675 27.8082C348.963 27.9042 349.251 28.1202 349.539 28.4562C349.827 28.7922 349.971 29.1282 349.971 29.4642C349.971 30.3762 348.795 33.8322 346.443 39.8322C343.131 48.2322 341.475 52.9122 341.475 53.8722V53.9442L341.619 54.0162C341.715 54.0162 341.787 53.9922 341.835 53.9442C341.835 53.5602 342.195 53.1042 342.915 52.5762C343.395 52.1922 343.635 51.9522 343.635 51.8562H343.491C343.491 51.7122 344.043 51.0162 345.147 49.7682C345.963 48.9042 346.827 47.8962 347.739 46.7442C349.371 44.7762 350.403 43.6482 350.835 43.3602C351.267 43.0722 351.891 42.9042 352.707 42.8562C353.091 42.8562 353.355 42.9282 353.499 43.0722C353.643 43.1682 353.739 43.4082 353.787 43.7922C353.835 44.1282 353.907 44.3442 354.003 44.4402C354.147 44.4882 354.435 44.5122 354.867 44.5122C355.587 44.5122 356.211 44.7042 356.739 45.0882C357.075 45.2802 357.291 45.5202 357.387 45.8082C357.483 46.0482 357.531 46.3362 357.531 46.6722C357.531 47.3922 357.387 48.4242 357.099 49.7682C356.811 51.6402 356.667 53.1522 356.667 54.3042C356.667 54.9762 356.667 55.5042 356.667 55.8882C356.715 56.2242 356.787 56.4882 356.883 56.6802C356.979 56.8242 357.123 56.9682 357.315 57.1122C357.555 57.2082 357.675 57.2802 357.675 57.3282C357.675 57.3762 357.627 57.4242 357.531 57.4722C357.483 57.4722 357.051 57.4722 356.235 57.4722C354.555 57.4722 353.379 57.0642 352.707 56.2482C352.083 55.4322 351.771 54.0162 351.771 52.0002L351.699 49.7682L348.675 52.8642C347.235 54.3042 345.507 56.1762 343.491 58.4802C342.579 59.5362 341.883 60.3042 341.403 60.7842C340.731 61.5042 340.179 61.8642 339.747 61.8642L338.883 61.7202C338.547 61.7202 338.307 61.7682 338.163 61.8642C338.019 62.0082 337.875 62.0802 337.731 62.0802C337.347 62.0802 336.843 61.9362 336.219 61.6482C335.403 61.3122 334.947 61.0242 334.851 60.7842C334.803 60.4962 334.779 60.1362 334.779 59.7042C334.779 56.9682 336.483 50.8722 339.891 41.4162L340.107 40.8402C340.971 38.5362 341.403 37.2162 341.403 36.8802L340.107 38.3922C336.171 43.4802 333.387 47.1282 331.755 49.3362C327.483 55.0962 324.699 58.7682 323.403 60.3522C322.443 61.5042 321.795 62.0802 321.459 62.0802C321.315 62.0802 321.171 62.0082 321.027 61.8642C320.931 61.7202 320.811 61.6482 320.667 61.6482L319.515 62.2242Z" fill="#757575"/>
<path d="M313.854 38.176C314.046 37.984 314.238 37.408 314.43 36.448C314.67 35.488 314.79 34.672 314.79 34C314.79 33.376 314.67 33.064 314.43 33.064C314.19 33.064 314.07 33.472 314.07 34.288V34.72C314.07 35.152 314.046 35.632 313.998 36.16C313.95 36.688 313.902 37.096 313.854 37.384C313.806 37.672 313.782 37.888 313.782 38.032C313.782 38.128 313.806 38.176 313.854 38.176ZM312.63 56.032C312.678 55.984 312.702 55.912 312.702 55.816C312.702 55.72 312.678 55.6 312.63 55.456L312.558 55.312C312.51 55.408 312.486 55.576 312.486 55.816C312.486 55.96 312.51 56.032 312.558 56.032H312.63ZM312.342 57.184L312.414 56.896L312.27 56.464C312.222 56.464 312.198 56.584 312.198 56.824C312.198 57.064 312.222 57.184 312.27 57.184H312.342ZM311.982 58.552C312.078 58.552 312.126 58.432 312.126 58.192C312.126 57.856 312.078 57.688 311.982 57.688C311.934 57.688 311.91 57.832 311.91 58.12C311.91 58.408 311.934 58.552 311.982 58.552ZM295.278 58.984C295.422 58.984 295.902 58.672 296.718 58.048C297.582 57.376 298.59 56.488 299.742 55.384C302.574 52.552 305.598 49.048 308.814 44.872C308.91 44.776 309.006 44.632 309.102 44.44L310.11 43.216C311.79 41.104 312.63 39.784 312.63 39.256C312.63 39.016 312.486 38.896 312.198 38.896H312.054C311.814 38.896 311.694 38.68 311.694 38.248C311.694 37.96 311.766 37.528 311.91 36.952L311.982 36.376C311.982 35.944 311.934 35.728 311.838 35.728C311.646 35.536 311.55 35.272 311.55 34.936C311.55 34.792 311.502 34.72 311.406 34.72C311.214 34.768 310.59 35.32 309.534 36.376C304.494 41.56 300.222 47.872 296.718 55.312C295.71 57.424 295.206 58.624 295.206 58.912C295.206 58.96 295.23 58.984 295.278 58.984ZM294.414 63.664C294.558 63.664 294.774 63.64 295.062 63.592C295.35 63.592 295.614 63.544 295.854 63.448C296.094 63.352 296.214 63.28 296.214 63.232C296.214 63.184 295.998 63.136 295.566 63.088H295.494C295.158 63.088 294.87 63.136 294.63 63.232C294.342 63.328 294.198 63.424 294.198 63.52C294.198 63.568 294.27 63.616 294.414 63.664ZM312.342 31.84C312.39 31.84 312.414 31.744 312.414 31.552C312.414 30.832 312.03 30.472 311.262 30.472C310.638 30.472 309.918 30.712 309.102 31.192C308.622 31.48 308.382 31.648 308.382 31.696C308.43 31.696 308.502 31.672 308.598 31.624C308.742 31.576 309.054 31.528 309.534 31.48L310.326 31.336C311.286 31.336 311.838 31.432 311.982 31.624C312.174 31.768 312.294 31.84 312.342 31.84ZM310.83 64.744L308.526 63.52C308.574 62.752 308.598 62.008 308.598 61.288C308.598 60.616 308.694 59.704 308.886 58.552C309.078 57.352 309.294 56.2 309.534 55.096C309.774 53.944 309.966 53.032 310.11 52.36C310.254 51.64 310.326 51.208 310.326 51.064V50.992C310.23 50.992 309.606 51.664 308.454 53.008C305.766 56.368 303.27 58.936 300.966 60.712C300.294 61.192 299.55 61.672 298.734 62.152C296.718 63.352 295.47 63.952 294.99 63.952C294.894 63.952 294.582 63.856 294.054 63.664C293.526 63.472 292.974 63.208 292.398 62.872C291.15 62.248 290.358 61.648 290.022 61.072C289.83 60.784 289.734 60.4 289.734 59.92C289.734 59.536 289.806 59.08 289.95 58.552C290.718 55.336 292.494 51.4 295.278 46.744C298.062 42.088 301.062 38.056 304.278 34.648C307.254 31.576 309.534 30.04 311.118 30.04C311.742 30.04 312.174 30.328 312.414 30.904C312.702 31.432 312.942 31.696 313.134 31.696H313.35C313.59 31.696 313.95 31.816 314.43 32.056C314.958 32.248 315.39 32.56 315.726 32.992C316.062 33.376 316.23 33.76 316.23 34.144C316.23 34.48 316.11 35.416 315.87 36.952L315.726 37.672C315.726 37.864 315.846 38.104 316.086 38.392C316.374 38.632 316.71 38.752 317.094 38.752C317.286 38.752 317.43 38.704 317.526 38.608C317.67 38.464 317.814 38.392 317.958 38.392C318.054 38.392 318.342 38.512 318.822 38.752C319.35 39.184 319.614 39.472 319.614 39.616C319.614 40.192 318.918 42.448 317.526 46.384C316.326 49.744 315.246 53.392 314.286 57.328C313.47 60.496 313.062 62.632 313.062 63.736C313.062 64.216 312.966 64.456 312.774 64.456L312.198 64.312H311.766C311.67 64.312 311.622 63.808 311.622 62.8V61.576L311.766 59.56C311.766 59.368 311.742 59.272 311.694 59.272C311.598 59.272 311.31 61.096 310.83 64.744Z" fill="#757575"/>
<path d="M289.643 26.3688C289.691 26.3688 289.739 26.3448 289.787 26.2968C289.883 26.2008 290.027 26.0568 290.219 25.8648C290.411 25.6248 290.507 25.4808 290.507 25.4328H290.435C290.387 25.4328 290.195 25.6008 289.859 25.9368L289.571 26.2248C289.571 26.3208 289.595 26.3688 289.643 26.3688ZM289.643 22.0488C289.691 22.0488 289.763 21.9528 289.859 21.7608C290.003 21.5688 290.171 21.3528 290.363 21.1128C290.555 20.8728 290.747 20.6328 290.939 20.3928L290.219 20.9688C289.787 21.4008 289.571 21.7128 289.571 21.9048C289.571 22.0008 289.595 22.0488 289.643 22.0488ZM290.579 25.1448C290.627 25.1448 290.867 24.8088 291.299 24.1368C293.027 21.5928 294.491 19.1928 295.691 16.9368C296.219 15.9288 296.483 15.3048 296.483 15.0648C296.483 15.0168 296.459 14.9928 296.411 14.9928C296.363 14.9928 296.219 15.1848 295.979 15.5688C295.739 15.9528 295.499 16.4328 295.259 17.0088C295.019 17.5368 294.635 18.2328 294.107 19.0968C293.627 19.9608 293.147 20.7768 292.667 21.5448C292.379 21.9768 292.139 22.3608 291.947 22.6968C291.755 23.0328 291.563 23.3208 291.371 23.5608C291.227 23.8008 291.107 24.0168 291.011 24.2088C290.915 24.4008 290.819 24.5448 290.723 24.6408C290.675 24.7368 290.627 24.8328 290.579 24.9288C290.579 24.9768 290.579 25.0248 290.579 25.0728C290.579 25.0728 290.579 25.0968 290.579 25.1448ZM290.435 26.9448C290.675 26.9448 290.795 26.8248 290.795 26.5848C290.795 26.5368 290.771 26.5128 290.723 26.5128C290.723 26.4648 290.723 26.4408 290.723 26.4408C290.723 26.3928 290.699 26.3688 290.651 26.3688C290.555 26.3688 290.459 26.4168 290.363 26.5128C290.315 26.6088 290.291 26.6808 290.291 26.7288C290.291 26.8728 290.339 26.9448 290.435 26.9448ZM270.203 67.4088L267.827 66.2568C266.867 65.7288 266.195 65.2728 265.811 64.8888C264.755 63.9768 264.227 62.3688 264.227 60.0648C264.227 57.0888 265.451 52.6488 267.899 46.7448C270.299 40.7928 274.643 33.4008 280.931 24.5688C282.803 22.0248 284.963 19.4328 287.411 16.7928C289.859 14.1048 291.659 12.4008 292.811 11.6808C293.531 11.3448 294.083 11.1768 294.467 11.1768C294.899 11.1768 295.115 11.4168 295.115 11.8968C295.115 12.1368 295.091 12.2568 295.043 12.2568L294.971 11.8968C294.923 11.6568 294.827 11.5128 294.683 11.4648C294.443 11.4648 294.227 11.4888 294.035 11.5368C293.411 11.6808 293.051 11.8488 292.955 12.0408V12.1128C292.955 12.2088 293.195 12.2568 293.675 12.2568C294.203 12.2568 294.635 12.4968 294.971 12.9768C295.163 13.1208 295.331 13.2408 295.475 13.3368C295.667 13.3848 295.883 13.4088 296.123 13.4088C296.363 13.4088 296.627 13.5048 296.915 13.6968C297.587 14.1288 297.923 14.6328 297.923 15.2088L297.851 15.4968C297.179 17.7528 295.187 21.1848 291.875 25.7928C290.723 27.4248 290.147 28.3128 290.147 28.4568C290.147 28.5528 289.907 28.9128 289.427 29.5368C289.187 29.8248 288.971 30.0648 288.779 30.2568C288.635 30.4488 288.539 30.5448 288.491 30.5448V30.1128C288.539 30.0168 288.635 29.8968 288.779 29.7528C288.923 29.6088 288.995 29.4408 288.995 29.2488C288.995 29.2008 288.971 29.1768 288.923 29.1768C288.779 29.1768 288.587 29.4168 288.347 29.8968C288.155 30.3768 287.963 30.6168 287.771 30.6168C287.675 30.6168 287.627 30.5448 287.627 30.4008C287.627 30.2088 287.747 29.8728 287.987 29.3928C288.275 28.8648 288.419 28.5768 288.419 28.5288H288.347L288.131 28.6728C287.939 28.8168 287.747 29.0328 287.555 29.3208C287.411 29.6088 287.291 29.8968 287.195 30.1848C287.003 30.8088 286.835 31.1208 286.691 31.1208H286.619C286.475 31.1208 286.211 30.9528 285.827 30.6168C285.443 30.2808 285.251 29.9448 285.251 29.6088C285.251 29.3208 285.491 28.8168 285.971 28.0968C286.307 27.6168 286.475 27.2808 286.475 27.0888H286.259H286.187C286.091 27.0888 286.043 27.0408 286.043 26.9448C286.043 26.8968 286.091 26.8248 286.187 26.7288C286.283 26.6328 286.403 26.5848 286.547 26.5848C286.691 26.5848 286.859 26.4648 287.051 26.2248C287.243 25.9368 287.363 25.6008 287.411 25.2168C287.411 25.0728 287.459 24.9048 287.555 24.7128C287.651 24.4728 287.795 24.3528 287.987 24.3528H288.131C288.227 24.3528 288.323 24.3048 288.419 24.2088C288.755 23.7288 288.971 23.3208 289.067 22.9848C289.067 22.8888 289.019 22.8408 288.923 22.8408H288.851C288.419 22.9368 287.483 23.9928 286.043 26.0088C282.683 30.5688 279.587 35.5128 276.755 40.8408C272.003 49.6728 269.627 56.4648 269.627 61.2168C269.627 63.0408 269.747 64.0248 269.987 64.1688H270.419C272.147 64.1688 273.731 63.9048 275.171 63.3768C277.859 62.4168 280.523 61.0008 283.163 59.1288C284.651 58.0728 285.491 57.5448 285.683 57.5448C285.683 57.6408 285.347 57.9528 284.675 58.4808C281.363 60.9288 278.219 62.6568 275.243 63.6648C273.707 64.2408 272.627 64.5288 272.003 64.5288C271.379 64.5288 270.947 64.6008 270.707 64.7448C270.467 64.8888 270.347 65.0328 270.347 65.1768C270.347 65.4648 270.563 65.6088 270.995 65.6088C271.907 65.6088 273.395 65.1768 275.459 64.3128C278.051 63.3048 280.691 61.8168 283.379 59.8488C285.203 58.5048 286.427 57.3768 287.051 56.4648C287.051 56.5128 287.099 56.5368 287.195 56.5368V56.6088C287.291 56.6088 287.435 56.4888 287.627 56.2488C287.867 55.9608 288.707 55.4568 290.147 54.7368C291.107 54.2568 291.731 54.0168 292.019 54.0168C292.115 54.0168 292.187 54.0648 292.235 54.1608C292.331 54.2088 292.379 54.4968 292.379 55.0248C292.379 55.7928 292.211 56.4648 291.875 57.0408C291.587 57.6168 290.963 58.3608 290.003 59.2728C287.843 61.3848 285.227 63.1608 282.155 64.6008C279.131 66.1368 276.059 67.0008 272.939 67.1928L270.203 67.4088Z" fill="#757575"/>
<path d="M235.916 71.8719C236.012 71.8719 236.108 71.7759 236.204 71.5839C236.348 71.4399 236.42 71.2719 236.42 71.0799L236.348 71.0079C236.3 71.0079 236.228 71.0319 236.132 71.0799C236.036 71.1279 235.94 71.1999 235.844 71.2959C235.748 71.4399 235.7 71.5839 235.7 71.7279C235.7 71.8239 235.772 71.8719 235.916 71.8719ZM236.06 72.3759C235.628 72.3759 235.004 72.2559 234.188 72.0159L231.956 71.2959C231.38 71.1999 230.948 70.9599 230.66 70.5759C230.372 70.2399 230.18 69.6159 230.084 68.7039C230.036 68.0799 230.012 66.7119 230.012 64.5999C230.012 59.7039 230.828 54.6639 232.46 49.4799C234.14 43.9119 236.732 37.0959 240.236 29.0319C243.788 20.9199 247.076 14.3199 250.1 9.23188C251.444 6.87988 252.188 5.48788 252.332 5.05588C252.524 4.71988 252.86 4.21588 253.34 3.54388C254.684 1.76788 255.524 0.879883 255.86 0.879883C255.956 0.879883 256.052 0.951883 256.148 1.09588C256.388 1.76788 256.628 2.10388 256.868 2.10388C257.108 2.10388 257.348 2.31988 257.588 2.75188C257.828 3.13588 258.02 3.32788 258.164 3.32788C258.308 3.32788 258.524 3.42388 258.812 3.61588C259.1 3.80788 259.652 4.33588 260.468 5.19988C259.652 6.39988 258.836 7.59988 258.02 8.79988C257.252 9.99988 256.46 11.3439 255.644 12.8319C253.532 16.4799 252.476 18.6159 252.476 19.2399C252.476 19.4319 252.428 19.5519 252.332 19.5999C252.236 19.5999 252.068 19.8159 251.828 20.2479C251.828 20.3919 251.804 20.4879 251.756 20.5359V20.8959C251.756 21.0399 251.588 21.3279 251.252 21.7599C250.532 22.9119 250.172 23.7999 250.172 24.4239H249.884C249.74 24.4239 249.668 24.7599 249.668 25.4319H249.74V25.5039C249.692 25.5519 249.644 25.5759 249.596 25.5759C249.116 26.0079 248.756 26.6319 248.516 27.4479C248.42 27.6879 248.372 27.9279 248.372 28.1679C248.42 28.1679 248.444 28.1919 248.444 28.2399V28.3119C248.396 28.3599 248.3 28.3839 248.156 28.3839C248.06 28.3839 248.012 28.4319 248.012 28.5279L248.156 28.8159C248.108 28.8639 248.036 28.8879 247.94 28.8879C247.844 28.8879 247.724 29.0319 247.58 29.3199C247.484 29.5599 247.412 29.8479 247.364 30.1839C247.316 30.4719 247.292 30.7119 247.292 30.9039C247.34 30.9039 247.364 30.9279 247.364 30.9759L247.148 30.9039C247.052 30.9039 246.956 30.9999 246.86 31.1919C246.524 31.6239 246.26 32.1519 246.068 32.7759V33.2799L246.14 33.4239C246.14 33.5679 246.068 33.6399 245.924 33.6399C245.828 33.6399 245.756 33.6639 245.708 33.7119V33.8559C245.708 34.0479 245.66 34.1679 245.564 34.2159C245.516 34.2639 245.444 34.3599 245.348 34.5039C245.3 34.6479 245.252 34.8639 245.204 35.1519C245.204 35.4399 245.132 35.5839 244.988 35.5839C244.892 35.5839 244.844 35.6079 244.844 35.6559C244.844 35.7039 244.844 35.7519 244.844 35.7999L244.916 36.1599C244.916 36.2559 244.844 36.3039 244.7 36.3039C244.604 36.3039 244.556 36.3519 244.556 36.4479C244.556 36.4959 244.556 36.5439 244.556 36.5919L244.628 36.8799C244.628 37.0719 244.484 37.1679 244.196 37.1679L244.268 37.3839C244.268 37.5279 244.148 37.7439 243.908 38.0319C243.668 38.2719 243.548 38.8239 243.548 39.6879C243.596 39.6879 243.62 39.7119 243.62 39.7599L243.476 39.8319C243.236 40.0719 243.092 40.2159 243.044 40.2639C243.044 40.3119 242.996 40.5519 242.9 40.9839C242.804 41.3679 242.708 41.5599 242.612 41.5599C242.516 41.5599 242.468 41.6079 242.468 41.7039L242.54 41.9919C242.54 42.0399 242.492 42.0639 242.396 42.0639C242.252 42.2079 242.132 42.5199 242.036 42.9999C241.94 43.4319 241.844 43.6959 241.748 43.7919C241.652 43.8879 241.58 44.0079 241.532 44.1519C241.388 44.5839 241.316 44.9679 241.316 45.3039C241.268 45.4479 241.22 45.5439 241.172 45.5919C241.172 45.6399 241.124 45.7119 241.028 45.8079C241.028 46.0959 240.98 46.2879 240.884 46.3839V46.8159C240.884 46.9599 240.812 47.0319 240.668 47.0319C240.524 47.0319 240.452 47.0799 240.452 47.1759C240.452 47.2239 240.452 47.2719 240.452 47.3199L240.524 47.6079C240.524 47.7999 240.452 47.9679 240.308 48.1119C240.164 48.2559 240.092 48.3519 240.092 48.3999C240.092 48.4479 240.116 48.4719 240.164 48.4719C240.26 48.4719 240.308 48.4959 240.308 48.5439L240.092 48.8319C239.9 48.9279 239.756 49.2399 239.66 49.7679C239.66 50.2959 239.588 50.5599 239.444 50.5599C239.3 50.5599 239.228 50.7519 239.228 51.1359L239.3 51.4239C239.3 51.6639 239.276 51.7839 239.228 51.7839C238.988 51.9279 238.748 52.5519 238.508 53.6559C238.268 54.5199 238.148 55.1439 238.148 55.5279V55.8879C238.148 55.9839 238.1 56.0319 238.004 56.0319C237.908 56.0319 237.836 56.1039 237.788 56.2479V56.6799L237.86 56.8959C237.86 56.9919 237.836 57.0879 237.788 57.1839C237.788 57.2799 237.74 57.3519 237.644 57.3999C237.596 57.3999 237.5 57.6159 237.356 58.0479C237.26 58.4319 237.164 58.9119 237.068 59.4879C237.02 60.0639 236.996 60.5679 236.996 60.9999C236.996 61.4319 236.948 61.6479 236.852 61.6479C236.756 61.6479 236.66 61.7679 236.564 62.0079C236.564 63.0159 236.492 64.2159 236.348 65.6079L236.132 68.9199L237.068 69.2079C237.74 69.4959 238.076 69.8319 238.076 70.2159C238.076 70.4559 237.956 70.6719 237.716 70.8639C237.524 71.1039 237.284 71.4879 236.996 72.0159C236.852 72.2559 236.54 72.3759 236.06 72.3759Z" fill="#757575"/>
<path d="M224.136 38.176C224.328 37.984 224.52 37.408 224.712 36.448C224.952 35.488 225.072 34.672 225.072 34C225.072 33.376 224.952 33.064 224.712 33.064C224.472 33.064 224.352 33.472 224.352 34.288V34.72C224.352 35.152 224.328 35.632 224.28 36.16C224.232 36.688 224.184 37.096 224.136 37.384C224.088 37.672 224.064 37.888 224.064 38.032C224.064 38.128 224.088 38.176 224.136 38.176ZM222.912 56.032C222.96 55.984 222.984 55.912 222.984 55.816C222.984 55.72 222.96 55.6 222.912 55.456L222.84 55.312C222.792 55.408 222.768 55.576 222.768 55.816C222.768 55.96 222.792 56.032 222.84 56.032H222.912ZM222.624 57.184L222.696 56.896L222.552 56.464C222.504 56.464 222.48 56.584 222.48 56.824C222.48 57.064 222.504 57.184 222.552 57.184H222.624ZM222.264 58.552C222.36 58.552 222.408 58.432 222.408 58.192C222.408 57.856 222.36 57.688 222.264 57.688C222.216 57.688 222.192 57.832 222.192 58.12C222.192 58.408 222.216 58.552 222.264 58.552ZM205.56 58.984C205.704 58.984 206.184 58.672 207 58.048C207.864 57.376 208.872 56.488 210.024 55.384C212.856 52.552 215.88 49.048 219.096 44.872C219.192 44.776 219.288 44.632 219.384 44.44L220.392 43.216C222.072 41.104 222.912 39.784 222.912 39.256C222.912 39.016 222.768 38.896 222.48 38.896H222.336C222.096 38.896 221.976 38.68 221.976 38.248C221.976 37.96 222.048 37.528 222.192 36.952L222.264 36.376C222.264 35.944 222.216 35.728 222.12 35.728C221.928 35.536 221.832 35.272 221.832 34.936C221.832 34.792 221.784 34.72 221.688 34.72C221.496 34.768 220.872 35.32 219.816 36.376C214.776 41.56 210.504 47.872 207 55.312C205.992 57.424 205.488 58.624 205.488 58.912C205.488 58.96 205.512 58.984 205.56 58.984ZM204.696 63.664C204.84 63.664 205.056 63.64 205.344 63.592C205.632 63.592 205.896 63.544 206.136 63.448C206.376 63.352 206.496 63.28 206.496 63.232C206.496 63.184 206.28 63.136 205.848 63.088H205.776C205.44 63.088 205.152 63.136 204.912 63.232C204.624 63.328 204.48 63.424 204.48 63.52C204.48 63.568 204.552 63.616 204.696 63.664ZM222.624 31.84C222.672 31.84 222.696 31.744 222.696 31.552C222.696 30.832 222.312 30.472 221.544 30.472C220.92 30.472 220.2 30.712 219.384 31.192C218.904 31.48 218.664 31.648 218.664 31.696C218.712 31.696 218.784 31.672 218.88 31.624C219.024 31.576 219.336 31.528 219.816 31.48L220.608 31.336C221.568 31.336 222.12 31.432 222.264 31.624C222.456 31.768 222.576 31.84 222.624 31.84ZM221.112 64.744L218.808 63.52C218.856 62.752 218.88 62.008 218.88 61.288C218.88 60.616 218.976 59.704 219.168 58.552C219.36 57.352 219.576 56.2 219.816 55.096C220.056 53.944 220.248 53.032 220.392 52.36C220.536 51.64 220.608 51.208 220.608 51.064V50.992C220.512 50.992 219.888 51.664 218.736 53.008C216.048 56.368 213.552 58.936 211.248 60.712C210.576 61.192 209.832 61.672 209.016 62.152C207 63.352 205.752 63.952 205.272 63.952C205.176 63.952 204.864 63.856 204.336 63.664C203.808 63.472 203.256 63.208 202.68 62.872C201.432 62.248 200.64 61.648 200.304 61.072C200.112 60.784 200.016 60.4 200.016 59.92C200.016 59.536 200.088 59.08 200.232 58.552C201 55.336 202.776 51.4 205.56 46.744C208.344 42.088 211.344 38.056 214.56 34.648C217.536 31.576 219.816 30.04 221.4 30.04C222.024 30.04 222.456 30.328 222.696 30.904C222.984 31.432 223.224 31.696 223.416 31.696H223.632C223.872 31.696 224.232 31.816 224.712 32.056C225.24 32.248 225.672 32.56 226.008 32.992C226.344 33.376 226.512 33.76 226.512 34.144C226.512 34.48 226.392 35.416 226.152 36.952L226.008 37.672C226.008 37.864 226.128 38.104 226.368 38.392C226.656 38.632 226.992 38.752 227.376 38.752C227.568 38.752 227.712 38.704 227.808 38.608C227.952 38.464 228.096 38.392 228.24 38.392C228.336 38.392 228.624 38.512 229.104 38.752C229.632 39.184 229.896 39.472 229.896 39.616C229.896 40.192 229.2 42.448 227.808 46.384C226.608 49.744 225.528 53.392 224.568 57.328C223.752 60.496 223.344 62.632 223.344 63.736C223.344 64.216 223.248 64.456 223.056 64.456L222.48 64.312H222.048C221.952 64.312 221.904 63.808 221.904 62.8V61.576L222.048 59.56C222.048 59.368 222.024 59.272 221.976 59.272C221.88 59.272 221.592 61.096 221.112 64.744Z" fill="#757575"/>
<path d="M210.416 20.4642C210.224 20.4642 209.888 20.4402 209.408 20.3922C208.928 20.3442 208.424 20.1282 207.896 19.7442C207.416 19.3122 207.176 18.9042 207.176 18.5202C207.176 17.9442 207.8 16.5282 209.048 14.2722C209.912 12.6402 210.584 11.8242 211.064 11.8242C211.208 11.8242 211.28 11.9922 211.28 12.3282C211.28 12.6162 211.208 12.7602 211.064 12.7602L210.704 12.6162C210.656 12.6162 210.632 12.6402 210.632 12.6882C210.632 12.8802 210.944 13.2402 211.568 13.7682C211.952 14.1042 212.264 14.2722 212.504 14.2722C212.6 14.2722 212.72 14.2242 212.864 14.1282C213.008 14.0322 213.176 13.9842 213.368 13.9842C213.512 14.0322 213.776 14.1762 214.16 14.4162C214.544 14.6082 214.736 14.8722 214.736 15.2082C214.736 15.4962 214.52 15.8562 214.088 16.2882C213.704 16.6722 213.248 17.3442 212.72 18.3042C212.48 18.7362 212.216 19.1442 211.928 19.5282C211.688 19.8642 211.52 20.1042 211.424 20.2482C211.184 20.3922 210.848 20.4642 210.416 20.4642ZM195.728 68.5602C195.2 68.3682 194.936 68.2722 194.936 68.2722L191.336 66.4722V64.3122C191.384 62.7762 191.864 60.3042 192.776 56.8962C193.64 53.4402 194.792 49.5762 196.232 45.3042C196.76 43.9122 197.024 43.0962 197.024 42.8562C197.024 42.8082 197 42.7842 196.952 42.7842L196.736 42.8562C196.544 42.8562 196.448 42.7842 196.448 42.6402C196.448 42.0642 196.928 40.9362 197.888 39.2562C198.176 38.8242 198.488 38.2722 198.824 37.6002L200.624 34.0722C202.16 31.1442 203.24 29.6802 203.864 29.6802C204.104 29.6802 204.224 29.7762 204.224 29.9682C204.224 30.0642 204.176 30.2082 204.08 30.4002C203.984 30.5922 203.936 30.7362 203.936 30.8322L204.008 31.1202H204.296C204.344 31.0722 204.392 30.9762 204.44 30.8322C204.488 30.6402 204.608 30.5442 204.8 30.5442L205.376 31.0482C205.712 31.3842 206.024 31.5522 206.312 31.5522C206.648 31.5522 207.104 31.8882 207.68 32.5602C208.208 33.0402 208.472 33.4482 208.472 33.7842C208.472 33.9282 208.448 34.0962 208.4 34.2882C208.352 34.4802 208.328 34.6482 208.328 34.7922C208.328 34.8882 208.328 34.9602 208.328 35.0082L208.4 35.2242C208.4 35.3202 208.328 35.3682 208.184 35.3682C208.04 35.3682 207.944 35.3922 207.896 35.4402L207.968 35.8002C207.968 35.8962 207.896 36.0162 207.752 36.1602C207.656 36.2562 207.608 36.3522 207.608 36.4482C207.608 36.4962 207.632 36.5202 207.68 36.5202C207.728 36.5202 207.752 36.5442 207.752 36.5922L207.68 36.7362C207.488 37.1202 207.344 37.4562 207.248 37.7442V37.9602C207.2 38.1522 207.08 38.2482 206.888 38.2482C206.744 38.2482 206.672 38.2962 206.672 38.3922L206.744 38.4642C206.744 38.7042 206.696 38.9682 206.6 39.2562C206.504 39.3522 206.432 39.4722 206.384 39.6162C206.336 39.7122 206.312 39.8562 206.312 40.0482C206.312 40.2402 206.24 40.3362 206.096 40.3362C206 40.3362 205.952 40.3602 205.952 40.4082C205.952 40.4562 205.952 40.5042 205.952 40.5522L206.024 40.7682V40.8402C205.976 40.8882 205.88 40.9122 205.736 40.9122C205.64 40.9122 205.592 40.9842 205.592 41.1282L205.664 41.4162C205.616 41.5122 205.544 41.6082 205.448 41.7042C205.352 41.7522 205.304 41.8002 205.304 41.8482C205.304 41.9442 205.328 42.0162 205.376 42.0642C205.424 42.1122 205.448 42.1602 205.448 42.2082V42.2802C205.4 42.3282 205.256 42.3762 205.016 42.4242L205.088 42.6402L205.016 42.9282C204.68 43.6002 204.512 44.0322 204.512 44.2242C204.56 44.2242 204.584 44.2482 204.584 44.2962L204.512 44.3682C204.464 44.4162 204.368 44.4402 204.224 44.4402C204.128 44.4402 204.08 44.5122 204.08 44.6562C204.08 44.8002 203.816 45.4482 203.288 46.6002C201.368 50.8242 199.64 55.7682 198.104 61.4322C197.384 63.9282 197.024 65.6082 197.024 66.4722C197.024 66.9522 197 67.2162 196.952 67.2642C196.904 67.3602 196.736 67.4082 196.448 67.4082L196.16 67.3362C195.968 67.3362 195.872 67.5282 195.872 67.9122C195.872 68.2962 195.824 68.5122 195.728 68.5602Z" fill="#757575"/>
<path d="M190.369 30.6884C190.609 30.6884 190.826 30.6164 191.018 30.4724C191.258 30.3284 191.401 30.2084 191.449 30.1124C191.449 30.0644 191.401 30.0164 191.305 29.9684C191.257 29.9204 191.137 29.8964 190.945 29.8964C190.321 29.9924 190.009 30.1844 190.009 30.4724C190.009 30.6164 190.129 30.6884 190.369 30.6884ZM179.21 62.7284C179.21 62.6804 179.161 62.6324 179.065 62.5844C178.969 62.5364 178.825 62.5124 178.633 62.5124C178.441 62.5124 178.274 62.5604 178.13 62.6564L178.633 62.7284H179.21ZM179.785 63.8804C178.969 63.8804 178.273 63.7364 177.697 63.4484C177.649 63.4484 177.626 63.4244 177.626 63.3764C176.858 63.0404 176.281 62.6804 175.897 62.2964C175.801 62.2004 175.657 62.0564 175.465 61.8644C175.273 61.7204 175.057 61.5284 174.817 61.2884C174.529 61.0964 174.265 60.9284 174.025 60.7844C172.633 59.8724 171.938 58.5524 171.938 56.8244L172.009 55.8164C172.393 52.3124 173.809 48.4484 176.257 44.2244C178.705 39.9524 181.754 36.1364 185.402 32.7764C186.794 31.5284 187.825 30.6884 188.497 30.2564C189.217 29.8244 189.818 29.6084 190.298 29.6084C191.066 29.6084 191.594 29.8244 191.882 30.2564C192.41 31.1204 192.961 31.5524 193.537 31.5524C193.633 31.5524 193.825 31.6484 194.113 31.8404C194.401 32.0324 194.929 32.5364 195.697 33.3524L195.049 34.6484C194.041 36.4724 193.466 37.3844 193.322 37.3844C193.274 37.3844 193.249 37.3604 193.249 37.3124C193.249 37.2164 193.297 37.0484 193.393 36.8084C193.489 36.5204 193.537 36.3284 193.537 36.2324C193.537 36.0884 193.489 36.0164 193.393 36.0164C193.345 36.0164 193.249 36.0644 193.105 36.1604C193.009 36.2084 192.962 36.4004 192.962 36.7364C192.962 37.0244 192.842 37.1684 192.602 37.1684V37.0244C192.602 36.6884 192.697 36.2084 192.889 35.5844L193.393 34.2164C193.345 34.2164 193.202 34.3844 192.962 34.7204C192.77 35.0084 192.553 35.4164 192.313 35.9444C191.689 37.0004 191.258 37.5284 191.018 37.5284C190.97 37.5284 190.945 37.4564 190.945 37.3124L191.089 36.6644C191.089 36.6164 191.066 36.5924 191.018 36.5924C190.922 36.5924 190.634 36.8564 190.154 37.3844C189.482 38.1524 189.145 38.5844 189.145 38.6804C189.145 38.7764 189.097 38.8724 189.001 38.9684C188.953 39.0644 188.761 39.2084 188.425 39.4004C188.137 39.5924 187.993 39.8564 187.993 40.1924C187.993 40.5284 187.898 40.6964 187.706 40.6964C187.514 40.6964 187.322 40.9364 187.13 41.4164C186.938 41.8484 186.721 42.0644 186.481 42.0644C186.433 42.0644 186.362 42.1364 186.266 42.2804C186.218 42.3764 186.193 42.4724 186.193 42.5684C186.193 42.8564 186.121 43.0004 185.977 43.0004C185.881 43.0004 185.785 43.0484 185.689 43.1444C185.641 43.2404 185.617 43.3364 185.617 43.4324C185.617 43.7204 185.546 43.8644 185.402 43.8644C185.306 43.8644 185.209 43.9124 185.113 44.0084C185.065 44.1044 185.042 44.2004 185.042 44.2964C185.042 44.5844 184.97 44.7284 184.826 44.7284C184.682 44.7284 184.609 44.7524 184.609 44.8004C184.609 44.8484 184.609 44.8964 184.609 44.9444L184.682 45.1604C184.682 45.2564 184.562 45.3764 184.322 45.5204C184.13 45.6164 184.033 45.7364 184.033 45.8804L184.105 46.0964L184.033 46.1684C183.985 46.2644 183.865 46.3604 183.673 46.4564C183.529 46.5044 183.458 46.6004 183.458 46.7444V46.8884C183.458 46.9844 183.409 47.0324 183.313 47.0324L183.098 47.1044C183.098 47.4404 182.713 48.3284 181.945 49.7684C181.321 51.0644 180.698 52.4564 180.074 53.9444C179.162 55.9604 178.705 57.2324 178.705 57.7604C178.705 57.9044 178.754 58.0004 178.85 58.0484H178.921C179.257 58.0484 180.578 57.4964 182.882 56.3924C187.154 54.3284 191.905 51.1364 197.137 46.8164C197.377 46.5764 197.522 46.4564 197.57 46.4564C197.618 46.4564 197.641 46.4804 197.641 46.5284L197.425 47.1764H197.57C197.906 47.1764 198.266 47.3204 198.65 47.6084C199.034 47.8964 199.322 48.0644 199.514 48.1124C199.754 48.1124 199.922 48.0644 200.018 47.9684C200.114 47.8724 200.281 47.8244 200.521 47.8244L200.882 48.1124C201.122 48.3524 201.242 48.5924 201.242 48.8324C201.242 48.9764 201.146 49.1924 200.954 49.4804C200.762 49.7684 199.897 50.5604 198.361 51.8564L196.85 53.0804C193.874 55.7684 190.777 58.1204 187.561 60.1364C184.345 62.1524 181.753 63.4004 179.785 63.8804Z" fill="#757575"/>
<path d="M180.252 20.4642C180.06 20.4642 179.724 20.4402 179.244 20.3922C178.764 20.3442 178.26 20.1282 177.732 19.7442C177.252 19.3122 177.012 18.9042 177.012 18.5202C177.012 17.9442 177.636 16.5282 178.884 14.2722C179.748 12.6402 180.42 11.8242 180.9 11.8242C181.044 11.8242 181.116 11.9922 181.116 12.3282C181.116 12.6162 181.044 12.7602 180.9 12.7602L180.54 12.6162C180.492 12.6162 180.468 12.6402 180.468 12.6882C180.468 12.8802 180.78 13.2402 181.404 13.7682C181.788 14.1042 182.1 14.2722 182.34 14.2722C182.436 14.2722 182.556 14.2242 182.7 14.1282C182.844 14.0322 183.012 13.9842 183.204 13.9842C183.348 14.0322 183.612 14.1762 183.996 14.4162C184.38 14.6082 184.572 14.8722 184.572 15.2082C184.572 15.4962 184.356 15.8562 183.924 16.2882C183.54 16.6722 183.084 17.3442 182.556 18.3042C182.316 18.7362 182.052 19.1442 181.764 19.5282C181.524 19.8642 181.356 20.1042 181.26 20.2482C181.02 20.3922 180.684 20.4642 180.252 20.4642ZM165.564 68.5602C165.036 68.3682 164.772 68.2722 164.772 68.2722L161.172 66.4722V64.3122C161.22 62.7762 161.7 60.3042 162.612 56.8962C163.476 53.4402 164.628 49.5762 166.068 45.3042C166.596 43.9122 166.86 43.0962 166.86 42.8562C166.86 42.8082 166.836 42.7842 166.788 42.7842L166.572 42.8562C166.38 42.8562 166.284 42.7842 166.284 42.6402C166.284 42.0642 166.764 40.9362 167.724 39.2562C168.012 38.8242 168.324 38.2722 168.66 37.6002L170.46 34.0722C171.996 31.1442 173.076 29.6802 173.7 29.6802C173.94 29.6802 174.06 29.7762 174.06 29.9682C174.06 30.0642 174.012 30.2082 173.916 30.4002C173.82 30.5922 173.772 30.7362 173.772 30.8322L173.844 31.1202H174.132C174.18 31.0722 174.228 30.9762 174.276 30.8322C174.324 30.6402 174.444 30.5442 174.636 30.5442L175.212 31.0482C175.548 31.3842 175.86 31.5522 176.148 31.5522C176.484 31.5522 176.94 31.8882 177.516 32.5602C178.044 33.0402 178.308 33.4482 178.308 33.7842C178.308 33.9282 178.284 34.0962 178.236 34.2882C178.188 34.4802 178.164 34.6482 178.164 34.7922C178.164 34.8882 178.164 34.9602 178.164 35.0082L178.236 35.2242C178.236 35.3202 178.164 35.3682 178.02 35.3682C177.876 35.3682 177.78 35.3922 177.732 35.4402L177.804 35.8002C177.804 35.8962 177.732 36.0162 177.588 36.1602C177.492 36.2562 177.444 36.3522 177.444 36.4482C177.444 36.4962 177.468 36.5202 177.516 36.5202C177.564 36.5202 177.588 36.5442 177.588 36.5922L177.516 36.7362C177.324 37.1202 177.18 37.4562 177.084 37.7442V37.9602C177.036 38.1522 176.916 38.2482 176.724 38.2482C176.58 38.2482 176.508 38.2962 176.508 38.3922L176.58 38.4642C176.58 38.7042 176.532 38.9682 176.436 39.2562C176.34 39.3522 176.268 39.4722 176.22 39.6162C176.172 39.7122 176.148 39.8562 176.148 40.0482C176.148 40.2402 176.076 40.3362 175.932 40.3362C175.836 40.3362 175.788 40.3602 175.788 40.4082C175.788 40.4562 175.788 40.5042 175.788 40.5522L175.86 40.7682V40.8402C175.812 40.8882 175.716 40.9122 175.572 40.9122C175.476 40.9122 175.428 40.9842 175.428 41.1282L175.5 41.4162C175.452 41.5122 175.38 41.6082 175.284 41.7042C175.188 41.7522 175.14 41.8002 175.14 41.8482C175.14 41.9442 175.164 42.0162 175.212 42.0642C175.26 42.1122 175.284 42.1602 175.284 42.2082V42.2802C175.236 42.3282 175.092 42.3762 174.852 42.4242L174.924 42.6402L174.852 42.9282C174.516 43.6002 174.348 44.0322 174.348 44.2242C174.396 44.2242 174.42 44.2482 174.42 44.2962L174.348 44.3682C174.3 44.4162 174.204 44.4402 174.06 44.4402C173.964 44.4402 173.916 44.5122 173.916 44.6562C173.916 44.8002 173.652 45.4482 173.124 46.6002C171.204 50.8242 169.476 55.7682 167.94 61.4322C167.22 63.9282 166.86 65.6082 166.86 66.4722C166.86 66.9522 166.836 67.2162 166.788 67.2642C166.74 67.3602 166.572 67.4082 166.284 67.4082L165.996 67.3362C165.804 67.3362 165.708 67.5282 165.708 67.9122C165.708 68.2962 165.66 68.5122 165.564 68.5602Z" fill="#757575"/>
<path d="M166.872 31.2646L166.944 31.1926C166.944 31.0966 166.824 30.9526 166.584 30.7606C166.344 30.5206 166.152 30.4006 166.008 30.4006C165.912 30.4006 165.816 30.4486 165.72 30.5446C165.672 30.6406 165.576 30.7366 165.432 30.8326C165.336 30.9286 165.24 31.0006 165.144 31.0486C165.096 31.0966 165.048 31.1206 165 31.1206C164.952 31.1206 164.928 31.1446 164.928 31.1926H165.864L166.872 31.2646ZM175.08 5.27256C175.176 5.27256 175.272 5.22456 175.368 5.12856C175.464 5.03256 175.512 4.93656 175.512 4.84056C175.512 4.64856 175.416 4.55256 175.224 4.55256C175.176 4.55256 175.104 4.60056 175.008 4.69656C174.912 4.74456 174.816 4.81656 174.72 4.91256C174.624 4.96056 174.576 5.00856 174.576 5.05657C174.576 5.20056 174.744 5.27256 175.08 5.27256ZM148.872 70.3606H148.8C148.752 70.3126 148.728 70.1926 148.728 70.0006L148.8 69.7126C148.8 69.6646 148.776 69.6406 148.728 69.6406L148.656 69.7126L148.008 69.6406C147.096 69.3046 146.496 68.9926 146.208 68.7046C145.872 68.4646 145.704 68.0326 145.704 67.4086C145.704 66.0166 146.304 63.0886 147.504 58.6246C148.704 54.1606 150.144 49.4326 151.824 44.4406L153.48 39.2566H153.408C153.072 39.2566 151.992 39.6886 150.168 40.5526C149.304 40.9366 148.464 41.1286 147.648 41.1286C147.36 41.1286 147.192 41.0806 147.144 40.9846C147.144 40.8886 147.048 40.7446 146.856 40.5526C146.664 40.3606 146.424 40.1926 146.136 40.0486C145.128 39.4726 144.576 39.0406 144.48 38.7526C144.48 38.3686 144.744 37.9126 145.272 37.3846C146.904 35.8486 149.64 34.5286 153.48 33.4246L156.288 32.6326C158.544 27.2086 161.184 21.8806 164.208 16.6486C166.896 11.9926 169.176 8.68056 171.048 6.71257C171.864 5.84857 172.704 5.15256 173.568 4.62456C174.24 4.19256 174.84 3.97656 175.368 3.97656C175.752 4.36056 176.112 4.84056 176.448 5.41657C176.592 5.80056 176.76 6.11256 176.952 6.35256C177.192 6.59256 177.36 6.71257 177.456 6.71257C177.6 6.71257 177.792 6.85657 178.032 7.14456C178.656 8.00856 178.968 8.70456 178.968 9.23256C178.968 10.1446 178.128 12.3046 176.448 15.7126C174.816 19.0726 172.848 22.6246 170.544 26.3686C170.112 27.0406 169.752 27.6406 169.464 28.1686C169.176 28.6486 168.912 29.0566 168.672 29.3926C168.48 29.7286 168.312 30.0166 168.168 30.2566C168.072 30.4966 167.976 30.6886 167.88 30.8326C167.832 30.9286 167.808 31.0006 167.808 31.0486V31.1206C167.856 31.4086 168.072 31.5526 168.456 31.5526C168.84 31.5526 169.176 31.7446 169.464 32.1286C169.752 32.4646 169.896 32.7046 169.896 32.8486C169.896 32.9926 169.8 33.0646 169.608 33.0646C169.56 33.0646 169.512 33.0406 169.464 32.9926C169.464 32.9446 169.464 32.8966 169.464 32.8486L169.536 32.6326C169.536 32.5366 169.392 32.4166 169.104 32.2726C168.816 32.1286 168.432 32.0086 167.952 31.9126C167.472 31.7686 166.992 31.6726 166.512 31.6246C165.408 31.6246 164.856 31.7686 164.856 32.0566C164.856 32.2966 165.384 32.4166 166.44 32.4166C167.016 32.4166 167.736 32.6326 168.6 33.0646C169.512 33.4486 170.064 33.6406 170.256 33.6406C170.88 33.6406 171.576 34.1446 172.344 35.1526C172.584 35.4406 172.704 35.6566 172.704 35.8006C172.704 35.9926 172.632 36.0886 172.488 36.0886H172.056C171.576 35.8486 170.76 35.7286 169.608 35.7286C167.448 35.7286 165.096 36.0646 162.552 36.7366C162.072 36.9766 161.256 38.3926 160.104 40.9846C158.952 43.5766 157.728 46.6726 156.432 50.2726C153.36 58.5286 151.56 64.4566 151.032 68.0566C150.984 68.6806 150.912 69.0646 150.816 69.2086C150.72 69.4006 150.552 69.4966 150.312 69.4966L150.096 69.4246C149.856 69.4246 149.664 69.5686 149.52 69.8566C149.424 70.1926 149.208 70.3606 148.872 70.3606Z" fill="#757575"/>
<path d="M148.24 31.2646L148.312 31.1926C148.312 31.0966 148.192 30.9526 147.952 30.7606C147.712 30.5206 147.52 30.4006 147.376 30.4006C147.28 30.4006 147.184 30.4486 147.088 30.5446C147.04 30.6406 146.944 30.7366 146.8 30.8326C146.704 30.9286 146.608 31.0006 146.512 31.0486C146.464 31.0966 146.416 31.1206 146.368 31.1206C146.32 31.1206 146.296 31.1446 146.296 31.1926H147.232L148.24 31.2646ZM156.448 5.27256C156.544 5.27256 156.64 5.22456 156.736 5.12856C156.832 5.03256 156.88 4.93656 156.88 4.84056C156.88 4.64856 156.784 4.55256 156.592 4.55256C156.544 4.55256 156.472 4.60056 156.376 4.69656C156.28 4.74456 156.184 4.81656 156.088 4.91256C155.992 4.96056 155.944 5.00856 155.944 5.05657C155.944 5.20056 156.112 5.27256 156.448 5.27256ZM130.24 70.3606H130.168C130.12 70.3126 130.096 70.1926 130.096 70.0006L130.168 69.7126C130.168 69.6646 130.144 69.6406 130.096 69.6406L130.024 69.7126L129.376 69.6406C128.464 69.3046 127.864 68.9926 127.576 68.7046C127.24 68.4646 127.072 68.0326 127.072 67.4086C127.072 66.0166 127.672 63.0886 128.872 58.6246C130.072 54.1606 131.512 49.4326 133.192 44.4406L134.848 39.2566H134.776C134.44 39.2566 133.36 39.6886 131.536 40.5526C130.672 40.9366 129.832 41.1286 129.016 41.1286C128.728 41.1286 128.56 41.0806 128.512 40.9846C128.512 40.8886 128.416 40.7446 128.224 40.5526C128.032 40.3606 127.792 40.1926 127.504 40.0486C126.496 39.4726 125.944 39.0406 125.848 38.7526C125.848 38.3686 126.112 37.9126 126.64 37.3846C128.272 35.8486 131.008 34.5286 134.848 33.4246L137.656 32.6326C139.912 27.2086 142.552 21.8806 145.576 16.6486C148.264 11.9926 150.544 8.68056 152.416 6.71257C153.232 5.84857 154.072 5.15256 154.936 4.62456C155.608 4.19256 156.208 3.97656 156.736 3.97656C157.12 4.36056 157.48 4.84056 157.816 5.41657C157.96 5.80056 158.128 6.11256 158.32 6.35256C158.56 6.59256 158.728 6.71257 158.824 6.71257C158.968 6.71257 159.16 6.85657 159.4 7.14456C160.024 8.00856 160.336 8.70456 160.336 9.23256C160.336 10.1446 159.496 12.3046 157.816 15.7126C156.184 19.0726 154.216 22.6246 151.912 26.3686C151.48 27.0406 151.12 27.6406 150.832 28.1686C150.544 28.6486 150.28 29.0566 150.04 29.3926C149.848 29.7286 149.68 30.0166 149.536 30.2566C149.44 30.4966 149.344 30.6886 149.248 30.8326C149.2 30.9286 149.176 31.0006 149.176 31.0486V31.1206C149.224 31.4086 149.44 31.5526 149.824 31.5526C150.208 31.5526 150.544 31.7446 150.832 32.1286C151.12 32.4646 151.264 32.7046 151.264 32.8486C151.264 32.9926 151.168 33.0646 150.976 33.0646C150.928 33.0646 150.88 33.0406 150.832 32.9926C150.832 32.9446 150.832 32.8966 150.832 32.8486L150.904 32.6326C150.904 32.5366 150.76 32.4166 150.472 32.2726C150.184 32.1286 149.8 32.0086 149.32 31.9126C148.84 31.7686 148.36 31.6726 147.88 31.6246C146.776 31.6246 146.224 31.7686 146.224 32.0566C146.224 32.2966 146.752 32.4166 147.808 32.4166C148.384 32.4166 149.104 32.6326 149.968 33.0646C150.88 33.4486 151.432 33.6406 151.624 33.6406C152.248 33.6406 152.944 34.1446 153.712 35.1526C153.952 35.4406 154.072 35.6566 154.072 35.8006C154.072 35.9926 154 36.0886 153.856 36.0886H153.424C152.944 35.8486 152.128 35.7286 150.976 35.7286C148.816 35.7286 146.464 36.0646 143.92 36.7366C143.44 36.9766 142.624 38.3926 141.472 40.9846C140.32 43.5766 139.096 46.6726 137.8 50.2726C134.728 58.5286 132.928 64.4566 132.4 68.0566C132.352 68.6806 132.28 69.0646 132.184 69.2086C132.088 69.4006 131.92 69.4966 131.68 69.4966L131.464 69.4246C131.224 69.4246 131.032 69.5686 130.888 69.8566C130.792 70.1926 130.576 70.3606 130.24 70.3606Z" fill="#757575"/>
<path d="M103.781 62.2246C104.021 62.1766 104.717 61.8886 105.869 61.3606C107.885 60.1606 110.189 58.1446 112.781 55.3126C115.373 52.4806 117.533 49.5766 119.261 46.6006C122.141 41.4646 124.301 36.3766 125.741 31.3366C126.749 27.7366 127.253 24.6406 127.253 22.0486C127.253 21.0406 127.181 20.1286 127.037 19.3126C126.941 18.6886 126.797 18.2566 126.605 18.0166C126.461 17.7766 126.149 17.6326 125.669 17.5846C125.237 17.4886 124.685 17.4406 124.013 17.4406C122.237 17.5366 121.301 17.7766 121.205 18.1606C121.205 18.3526 120.941 18.8806 120.413 19.7446C119.885 20.6086 119.621 21.1126 119.621 21.2566C119.429 21.7846 119.261 22.0486 119.117 22.0486C119.069 22.0486 119.045 22.0246 119.045 21.9766C119.045 21.8806 119.045 21.8086 119.045 21.7606L119.189 20.7526C119.093 20.8006 118.613 21.4486 117.749 22.6966C118.085 21.4486 118.493 20.3686 118.973 19.4566C119.117 19.1686 119.213 18.9286 119.261 18.7366C119.261 18.6406 119.237 18.5926 119.189 18.5926C119.045 18.5926 118.709 19.1926 118.181 20.3926C117.653 21.5926 117.221 22.3846 116.885 22.7686L116.381 23.3446L116.453 22.9126C116.261 22.9126 115.661 23.8726 114.653 25.7926C114.269 26.4646 113.909 27.1126 113.573 27.7366C113.285 28.3126 113.069 28.6966 112.925 28.8886C111.341 31.8166 110.117 34.3846 109.253 36.5926C108.821 37.6006 108.605 38.2246 108.605 38.4646V38.5366C108.605 38.6326 108.581 38.7046 108.533 38.7526C108.533 38.8006 108.485 38.8246 108.389 38.8246C108.005 39.4006 107.597 40.2646 107.165 41.4166C106.781 42.5206 106.589 43.1926 106.589 43.4326C106.589 43.4806 106.589 43.5046 106.589 43.5046H106.661L106.589 43.5766C106.157 43.9126 105.941 44.3446 105.941 44.8726C105.845 45.3526 105.749 45.5926 105.653 45.5926C105.605 45.5926 105.533 45.7126 105.437 45.9526C105.245 46.4806 105.053 47.1766 104.861 48.0406L104.645 48.9766C104.597 49.0726 104.573 49.2406 104.573 49.4806C104.573 49.6726 104.501 49.7686 104.357 49.7686C104.213 49.7686 104.021 50.1526 103.781 50.9206C103.637 51.9286 103.493 52.6726 103.349 53.1526C103.061 54.4486 102.845 55.4806 102.701 56.2486C102.605 56.9686 102.557 57.8326 102.557 58.8406C102.557 60.2326 102.605 61.1446 102.701 61.5766C102.797 62.0086 102.989 62.2246 103.277 62.2246H103.781ZM113.357 15.2806C113.405 15.2806 113.501 15.2566 113.645 15.2086C113.837 15.1126 113.981 14.9926 114.077 14.8486C114.077 14.8006 114.053 14.7766 114.005 14.7766C113.957 14.7286 113.885 14.7046 113.789 14.7046C113.693 14.7526 113.573 14.8486 113.429 14.9926C113.333 15.0886 113.285 15.1606 113.285 15.2086V15.2806C113.285 15.2806 113.309 15.2806 113.357 15.2806ZM117.461 12.6166C117.557 12.6166 117.725 12.5926 117.965 12.5446C118.205 12.4486 118.325 12.3526 118.325 12.2566C118.325 12.1606 118.253 12.0886 118.109 12.0406C117.869 12.0406 117.677 12.1366 117.533 12.3286C117.437 12.4726 117.389 12.5686 117.389 12.6166H117.461ZM119.621 20.1766C119.861 19.9846 119.981 19.7446 119.981 19.4566C119.981 19.3606 119.957 19.3126 119.909 19.3126C119.909 19.2646 119.885 19.2406 119.837 19.2406L119.693 19.3126C119.453 19.5046 119.333 19.7446 119.333 20.0326C119.333 20.1286 119.429 20.1766 119.621 20.1766ZM125.453 16.7926C125.789 16.7926 125.957 16.7686 125.957 16.7206C125.957 16.6726 125.909 16.6246 125.813 16.5766C125.765 16.5286 125.669 16.5046 125.525 16.5046C125.381 16.5046 125.261 16.5286 125.165 16.5766C125.069 16.6246 125.021 16.6726 125.021 16.7206C125.021 16.7686 125.165 16.7926 125.453 16.7926ZM127.109 14.9926C127.205 14.9926 127.253 14.9446 127.253 14.8486L126.965 14.2726C126.149 13.0726 124.685 12.4726 122.573 12.4726C121.373 12.4726 120.437 12.5446 119.765 12.6886C119.093 12.7846 118.757 12.9046 118.757 13.0486C118.757 13.1926 119.333 13.2646 120.485 13.2646L121.349 13.1926C122.405 13.1926 123.509 13.5046 124.661 14.1286C125.573 14.4646 126.173 14.7046 126.461 14.8486C126.797 14.9446 127.013 14.9926 127.109 14.9926ZM130.349 22.1206L130.277 20.9686C130.229 20.5846 130.109 20.1286 129.917 19.6006C129.485 18.3526 129.125 17.7286 128.837 17.7286V17.8006C128.837 17.9926 129.053 18.7606 129.485 20.1046C129.965 21.4486 130.253 22.1206 130.349 22.1206ZM128.837 32.9206L129.053 32.2006C129.197 31.7206 129.341 31.0966 129.485 30.3286C129.677 29.5606 129.845 28.7206 129.989 27.8086C130.133 26.8966 130.253 26.0326 130.349 25.2166C130.445 24.4006 130.493 23.7526 130.493 23.2726C130.493 22.9366 130.469 22.7686 130.421 22.7686L130.349 22.8406C130.061 23.5606 129.917 24.4966 129.917 25.6486L129.701 27.8806C129.461 29.4166 129.197 30.6886 128.909 31.6966C128.813 32.1286 128.765 32.4646 128.765 32.7046C128.765 32.8486 128.789 32.9206 128.837 32.9206ZM103.853 63.3766C104.285 63.3766 105.221 62.9206 106.661 62.0086L107.957 61.1446C108.197 60.9526 108.365 60.7846 108.461 60.6406C108.173 60.6406 107.597 60.9046 106.733 61.4326C105.869 62.0086 105.005 62.4406 104.141 62.7286C103.613 62.8246 103.349 62.9446 103.349 63.0886L103.493 63.2326C103.541 63.3286 103.661 63.3766 103.853 63.3766ZM104.573 66.7606C104.717 66.7606 104.909 66.7366 105.149 66.6886C105.437 66.6406 105.725 66.5686 106.013 66.4726C106.301 66.4246 106.445 66.4006 106.445 66.4006C106.493 66.4006 106.517 66.3766 106.517 66.3286C106.517 66.2806 106.325 66.2566 105.941 66.2566C105.365 66.2566 104.957 66.3286 104.717 66.4726C104.525 66.6166 104.429 66.7126 104.429 66.7606H104.573ZM106.013 67.5526H105.509C104.165 67.5526 102.677 67.0726 101.045 66.1126C98.8371 64.8646 97.3731 63.5686 96.6531 62.2246C96.0771 61.0726 95.7891 59.4646 95.7891 57.4006C95.7891 54.5686 96.2211 51.6166 97.0851 48.5446C98.3331 43.9366 100.397 38.7046 103.277 32.8486C104.477 30.4486 105.965 27.6166 107.741 24.3526C107.405 24.0166 107.069 23.7286 106.733 23.4886C106.445 23.2006 106.205 22.9366 106.013 22.6966C105.869 22.4086 105.797 22.1686 105.797 21.9766C105.797 21.7366 105.965 21.3526 106.301 20.8246C107.309 19.2406 108.461 17.9206 109.757 16.8646C110.477 16.2406 111.509 15.5446 112.853 14.7766C115.349 13.1926 116.765 12.2326 117.101 11.8966C117.437 11.5606 117.725 11.3926 117.965 11.3926C118.109 11.3926 118.253 11.4646 118.397 11.6086C118.973 11.7526 120.101 11.8246 121.781 11.8246C122.981 11.8246 123.869 11.8966 124.445 12.0406C125.069 12.1846 125.693 12.5926 126.317 13.2646C126.989 13.8886 127.853 14.8966 128.909 16.2886C130.013 17.6806 130.757 18.7126 131.141 19.3846C131.765 20.5366 132.077 22.2406 132.077 24.4966C132.077 27.7126 131.285 31.8646 129.701 36.9526C128.117 41.9926 125.525 47.3446 121.925 53.0086C120.629 54.8806 118.853 57.1126 116.597 59.7046C114.341 62.2966 112.565 64.0966 111.269 65.1046C109.205 66.5926 107.453 67.4086 106.013 67.5526Z" fill="#757575"/>
<path d="M55.0261 47.3208C55.1701 47.3208 55.3861 47.2488 55.6741 47.1048C56.1061 46.8168 57.6421 45.4007 60.2821 42.8568C61.7221 41.4168 62.8021 40.0968 63.5221 38.8968C63.9061 38.2248 64.0981 37.8168 64.0981 37.6728L64.0261 37.6007H63.8821C63.7861 37.6007 63.7381 37.5287 63.7381 37.3848C63.7381 37.0488 63.8101 36.8328 63.9541 36.7368C64.2421 36.4488 64.4821 35.9207 64.6741 35.1527L64.8901 34.5047C64.8421 34.5047 64.7941 34.5528 64.7461 34.6488C64.6981 34.7448 64.4341 35.1527 63.9541 35.8727C63.7141 36.1607 63.4981 36.4728 63.3061 36.8088C62.5861 37.9128 62.1301 38.4647 61.9381 38.4647C61.7941 38.3687 61.7221 38.2488 61.7221 38.1048C61.7221 37.8168 61.8181 37.6728 62.0101 37.6728C62.2501 37.6728 62.3701 37.5048 62.3701 37.1688C62.3701 36.8808 62.3461 36.7368 62.2981 36.7368C62.2501 36.7368 62.1061 36.9047 61.8661 37.2407C61.4341 37.7687 61.0741 38.0327 60.7861 38.0327C60.5461 38.0327 59.6821 39.0648 58.1941 41.1287C56.7541 43.1928 56.0341 44.3687 56.0341 44.6567C56.0341 44.9447 55.9621 45.0887 55.8181 45.0887C55.7221 45.0887 55.6021 45.2087 55.4581 45.4487C55.0741 45.9287 54.8821 46.3847 54.8821 46.8167C54.8821 46.9607 54.7621 47.0327 54.5221 47.0327V47.1048C54.5221 47.1528 54.5701 47.2007 54.6661 47.2487C54.8101 47.2967 54.9301 47.3208 55.0261 47.3208ZM51.7861 64.1688C52.3621 64.1688 52.9141 64.0008 53.4421 63.6648L53.7301 63.5208L53.6581 63.4488L53.3701 63.5208C52.9381 63.6648 52.4341 63.7368 51.8581 63.7368C51.2821 63.7368 50.9941 63.7608 50.9941 63.8088C50.9941 63.8568 51.0421 63.9288 51.1381 64.0248C51.2821 64.1208 51.4981 64.1688 51.7861 64.1688ZM52.2901 67.1928C52.7221 67.1928 52.9381 67.1448 52.9381 67.0488L52.7221 66.9768C52.6261 66.9288 52.4821 66.9048 52.2901 66.9048C52.0981 66.9048 51.9541 66.9288 51.8581 66.9768L51.6421 67.0488C51.6421 67.1448 51.8581 67.1928 52.2901 67.1928ZM69.2821 53.6567V53.5848C69.3301 53.5848 69.3541 53.5367 69.3541 53.4408V53.3688V53.2967L69.2101 53.5128L69.2821 53.6567ZM53.2261 68.2728C52.8421 68.2728 52.4341 68.2008 52.0021 68.0568C51.5701 67.9608 50.8261 67.5528 49.7701 66.8328C48.7621 66.1128 47.7781 65.3208 46.8181 64.4568C45.8581 63.6408 45.1861 62.9928 44.8021 62.5128C43.9861 61.2168 43.5781 59.6088 43.5781 57.6888C43.5781 56.4408 43.9141 54.4968 44.5861 51.8568C45.2101 49.1688 46.7941 45.8328 49.3381 41.8488C51.9301 37.8648 55.0501 34.5047 58.6981 31.7687C60.2821 30.5687 61.5301 29.9688 62.4421 29.9688C62.7781 29.9688 63.0421 30.0647 63.2341 30.2568C63.4741 30.4007 63.6421 30.5687 63.7381 30.7607C63.8821 30.9047 63.9541 31.0487 63.9541 31.1927C63.9541 31.3368 63.9301 31.4088 63.8821 31.4088C63.8341 31.4088 63.7621 31.3128 63.6661 31.1208C63.4741 30.6408 63.0901 30.4008 62.5141 30.4008C62.2261 30.4008 61.9621 30.4728 61.7221 30.6168C61.4821 30.7608 61.3621 30.8568 61.3621 30.9048C61.3621 30.9528 61.5301 30.9767 61.8661 30.9767C62.2501 30.9767 62.6821 31.1927 63.1621 31.6248C63.6901 32.0088 64.1701 32.2008 64.6021 32.2008C65.0821 32.2008 65.3941 32.2968 65.5381 32.4888C65.6821 32.6328 65.8021 32.7048 65.8981 32.7048C66.0421 32.7048 66.1141 32.6088 66.1141 32.4167L66.0421 31.6968C66.0901 31.6968 66.1621 31.7688 66.2581 31.9128C66.4981 32.2007 66.6181 32.5847 66.6181 33.0648C66.6181 33.4968 66.7621 33.8088 67.0501 34.0007C67.3381 34.3367 67.4821 34.9128 67.4821 35.7288C67.4821 36.5448 67.3381 37.3847 67.0501 38.2487C66.8101 38.7767 66.6901 39.1368 66.6901 39.3288H66.7621C66.9541 39.3288 67.1941 38.8488 67.4821 37.8888C67.7701 36.6408 67.9141 35.7287 67.9141 35.1527C67.9141 34.1447 67.9861 33.6407 68.1301 33.6407C68.1781 33.6407 68.2741 33.7127 68.4181 33.8568C69.1381 34.5767 69.4981 35.4168 69.4981 36.3768C69.4981 37.6248 68.8261 39.4007 67.4821 41.7048C66.1861 43.9607 63.9061 46.3368 60.6421 48.8328C57.9061 50.8008 55.6981 51.7848 54.0181 51.7848C53.5381 51.7848 53.1781 51.8088 52.9381 51.8568C52.7461 51.8568 52.6021 51.9288 52.5061 52.0728C52.0741 52.6967 51.6901 53.6568 51.3541 54.9528L50.9941 56.2488C50.5141 58.2648 50.2741 59.9447 50.2741 61.2887C50.2741 62.2487 50.3701 62.7768 50.5621 62.8728C50.8021 63.0168 51.1381 63.0888 51.5701 63.0888C53.1061 63.0888 55.2661 62.1768 58.0501 60.3528C59.2501 59.5848 60.3541 58.6968 61.3621 57.6888C64.7701 54.6648 66.6181 52.9367 66.9061 52.5047C67.4341 51.9287 67.8661 51.6408 68.2021 51.6408C68.6341 51.6408 69.1621 51.9287 69.7861 52.5047C70.4581 53.0807 70.7941 53.6567 70.7941 54.2327C70.6981 55.0008 69.8821 56.2008 68.3461 57.8328C61.9621 64.7928 56.9221 68.2728 53.2261 68.2728Z" fill="#757575"/>
<path d="M36.2407 36.8083C36.3367 36.8083 36.6007 36.5923 37.0327 36.1603C37.4647 35.6803 37.6807 35.3923 37.6807 35.2963C37.5367 35.2963 37.2487 35.5603 36.8167 36.0883C36.4327 36.4243 36.2407 36.6643 36.2407 36.8083ZM38.1127 35.0803L38.9767 34.1443C38.8807 34.1443 38.7367 34.2163 38.5447 34.3603C38.4007 34.5043 38.2807 34.6243 38.1847 34.7203L38.0407 34.8643C38.0407 35.0083 38.0647 35.0803 38.1127 35.0803ZM39.1207 34.1443C39.4087 34.0003 39.6967 33.8803 39.9847 33.7843C40.2727 33.6883 40.5607 33.6403 40.8487 33.6403C40.9927 33.6403 41.0887 33.6643 41.1367 33.7123C41.3287 33.7123 41.4247 33.5443 41.4247 33.2083C41.4247 32.7283 41.3047 32.4883 41.0647 32.4883C40.8247 32.4883 40.4647 32.7763 39.9847 33.3523L39.1207 34.1443ZM40.9927 49.9843C41.0407 49.9363 41.0647 49.8643 41.0647 49.7683L40.9207 49.2643C40.8727 49.2643 40.8487 49.4323 40.8487 49.7683C40.8487 49.8643 40.8487 49.9363 40.8487 49.9843C40.8487 49.9843 40.8727 49.9843 40.9207 49.9843H40.9927ZM40.7767 59.2723C41.0167 59.2723 41.1367 59.1043 41.1367 58.7683C41.1367 58.4803 41.0167 58.3363 40.7767 58.3363C40.5847 58.3363 40.4887 58.4803 40.4887 58.7683C40.4887 59.1043 40.5847 59.2723 40.7767 59.2723ZM40.6327 58.1923L40.7767 56.6083C40.6807 56.2723 40.5607 56.1043 40.4167 56.1043C40.3207 56.1523 40.2727 56.3203 40.2727 56.6083C40.2727 56.9443 40.3927 57.4723 40.6327 58.1923ZM43.3687 38.2483C43.4647 38.2483 43.5127 38.0803 43.5127 37.7443C43.5127 37.4563 43.4647 37.3123 43.3687 37.3123C43.3207 37.3123 43.2967 37.4563 43.2967 37.7443C43.2967 38.0803 43.3207 38.2483 43.3687 38.2483ZM43.5847 36.8083C43.7767 36.8083 43.8727 36.6643 43.8727 36.3763C43.8727 36.0403 43.8247 35.8723 43.7287 35.8723C43.6807 35.8723 43.6087 35.9683 43.5127 36.1603C43.4647 36.3043 43.4407 36.4483 43.4407 36.5923C43.4407 36.7363 43.4887 36.8083 43.5847 36.8083ZM19.1767 65.6803H19.1047C19.0087 65.6803 18.8887 65.6563 18.7447 65.6083C18.6007 65.5603 18.3367 65.4163 17.9527 65.1763C17.5207 64.9363 17.3047 64.6483 17.3047 64.3123C17.3047 64.1203 17.4007 63.9043 17.5927 63.6643C17.9287 63.2323 18.0967 62.2243 18.0967 60.6403C18.0967 59.6803 18.3847 58.0243 18.9607 55.6723C19.5367 53.3203 20.2807 50.7763 21.1927 48.0403C22.6327 43.9603 24.6727 38.6323 27.3127 32.0563C30.0007 25.4803 32.1847 20.4403 33.8647 16.9363L34.9447 14.6323C34.9447 14.5363 35.7847 12.9283 37.4647 9.80833C38.7607 7.36033 39.8167 5.48833 40.6327 4.19233C41.4967 2.89633 42.2167 2.00833 42.7927 1.52833C43.3687 1.00033 43.7047 0.736328 43.8007 0.736328C43.8487 0.736328 43.8727 0.784328 43.8727 0.880326L43.8007 1.38432C43.8007 1.67233 43.8967 1.98433 44.0887 2.32032C44.4727 2.84833 44.8807 3.11233 45.3127 3.11233C45.4087 3.11233 45.5047 3.06433 45.6007 2.96833C45.7447 2.87233 45.8647 2.82433 45.9607 2.82433C46.2007 2.82433 46.4887 3.01633 46.8247 3.40033C47.1607 3.78433 47.3287 4.07233 47.3287 4.26433C47.3287 4.50433 47.2087 4.84033 46.9687 5.27233L43.7287 11.6083L40.0567 19.0243L38.4727 22.4803C37.3687 24.9283 36.8167 26.2003 36.8167 26.2963L34.7287 31.1923L30.0487 42.6403L29.5447 44.0083C29.5447 44.0563 29.5927 44.0803 29.6887 44.0803H29.8327C30.1687 43.9843 30.3367 43.8163 30.3367 43.5763C30.3367 43.2883 31.0327 42.3763 32.4247 40.8403C33.8167 39.2563 34.5847 38.4163 34.7287 38.3203C34.9207 38.2243 35.0407 38.1523 35.0887 38.1043C35.1847 38.0563 35.2327 38.0083 35.2327 37.9603L35.1607 37.8883C35.1607 37.7443 35.3527 37.4323 35.7367 36.9523C36.1687 36.4723 36.6967 35.9203 37.3207 35.2963C37.9447 34.6723 38.5447 34.0963 39.1207 33.5683C39.6967 33.0403 40.1287 32.7043 40.4167 32.5603C40.7047 32.4163 40.9207 32.3443 41.0647 32.3443C41.4967 32.3443 41.7127 32.6803 41.7127 33.3523C41.7127 33.5923 41.7847 33.8563 41.9287 34.1443C42.1207 34.4323 42.3127 34.5763 42.5047 34.5763C42.6487 34.5763 42.7687 34.4803 42.8647 34.2883C42.9607 34.0963 43.1287 34.0003 43.3687 34.0003C43.7527 34.0003 44.2327 34.2643 44.8087 34.7923C45.3847 35.3203 45.6727 35.8723 45.6727 36.4483C45.6727 36.6883 45.6247 37.0243 45.5287 37.4563C45.4807 37.8403 45.3607 38.5363 45.1687 39.5443C45.0247 40.5043 44.8327 41.5123 44.5927 42.5683C43.2967 48.3283 42.6487 52.8163 42.6487 56.0323C42.7447 57.4243 42.8407 58.1203 42.9367 58.1203C43.1767 57.9283 43.6087 57.5203 44.2327 56.8963C44.9047 56.2243 45.5527 55.5523 46.1767 54.8803C46.8007 54.1603 47.2567 53.6323 47.5447 53.2963L44.9527 55.8883C44.4727 56.2243 44.0167 56.6083 43.5847 57.0403C43.2967 57.2803 43.1047 57.4003 43.0087 57.4003L43.2247 57.1843C43.3207 57.0403 43.6087 56.7523 44.0887 56.3203L45.0967 55.3843C46.3927 54.0883 47.3287 53.2243 47.9047 52.7923C48.0487 52.6963 48.1447 52.6003 48.1927 52.5043C48.2887 52.4083 48.3607 52.3363 48.4087 52.2883C48.4567 52.2403 48.4807 52.1923 48.4807 52.1443C48.4807 52.0483 48.6007 51.8563 48.8407 51.5683C49.0807 51.2803 49.3207 51.0883 49.5607 50.9923C49.6567 50.9923 49.7047 51.0163 49.7047 51.0643C49.7047 51.1123 49.5847 51.2323 49.3447 51.4243C49.1527 51.6163 49.0567 51.7363 49.0567 51.7843C49.0567 51.7843 49.0567 51.8083 49.0567 51.8563L49.1287 51.7843C49.4647 51.6883 49.7287 51.5923 49.9207 51.4963C50.1127 51.4003 50.3527 51.3523 50.6407 51.3523C50.7847 51.3523 50.9287 51.3763 51.0727 51.4243C51.2647 51.4243 51.3607 51.5443 51.3607 51.7843C51.4567 52.0243 51.6247 52.1923 51.8647 52.2883C52.1047 52.3843 52.2727 52.4803 52.3687 52.5763C52.4647 52.6723 52.5127 52.8883 52.5127 53.2243C52.5127 53.3203 52.5127 53.3923 52.5127 53.4403C52.5607 53.4403 52.6327 53.4403 52.7287 53.4403C52.8727 53.4403 52.9447 53.4883 52.9447 53.5843C52.8487 54.0163 52.3207 54.7123 51.3607 55.6723C50.4007 56.6323 49.3927 57.5683 48.3367 58.4803C47.2807 59.3923 46.5367 59.9923 46.1047 60.2803C45.3367 60.6643 44.3287 60.8563 43.0807 60.8563C40.6327 60.8563 38.9527 60.1363 38.0407 58.6963C37.4647 57.8803 37.1767 56.5603 37.1767 54.7363C37.1767 53.7283 37.2727 52.3603 37.4647 50.6323C37.6567 48.1363 37.9927 45.9523 38.4727 44.0803C38.9527 42.1603 39.1927 41.0083 39.1927 40.6243C39.1927 40.4803 39.1447 40.4083 39.0487 40.4083C38.9527 40.4083 38.6887 40.6723 38.2567 41.2003L38.0407 41.4163C33.8647 46.1203 29.6167 52.0723 25.2967 59.2723C23.4727 62.2963 22.3687 64.0483 21.9847 64.5283C21.6487 65.0563 21.2887 65.3203 20.9047 65.3203L20.1847 65.1763C19.7527 65.1763 19.5127 65.2483 19.4647 65.3923C19.3687 65.5363 19.2727 65.6323 19.1767 65.6803Z" fill="#757575"/>
<path d="M33.3538 12.4722L33.7138 12.4002C33.6178 12.3042 33.4258 12.2562 33.1378 12.2562L33.0658 12.4002C33.0658 12.4482 33.1618 12.4722 33.3538 12.4722ZM6.42575 67.9122H6.28175C6.23375 67.9122 6.13775 67.8402 5.99375 67.6962C5.89775 67.5522 5.41775 67.3362 4.55375 67.0482C3.01775 66.7122 2.22575 66.1122 2.17775 65.2482C2.17775 62.4642 3.37775 57.1122 5.77775 49.1922C8.22575 41.2242 11.1537 32.9442 14.5617 24.3522C15.1377 22.8642 15.6178 21.6402 16.0017 20.6802C16.3858 19.7202 16.5778 19.1922 16.5778 19.0962H16.4338C16.2418 19.0962 15.6658 19.1922 14.7058 19.3842C12.7378 19.7682 10.2658 20.4402 7.28975 21.4002C5.51375 21.9282 4.50575 22.1922 4.26575 22.1922C3.92975 22.1922 3.66575 22.1202 3.47375 21.9762C3.32975 21.8322 3.25775 21.7122 3.25775 21.6162C3.25775 21.5682 3.37775 21.4962 3.61775 21.4002C3.85775 21.2562 3.97775 21.1362 3.97775 21.0402V20.9682C3.97775 20.8722 3.88175 20.8242 3.68975 20.8242H3.25775C2.68175 20.8242 2.00975 20.3922 1.24175 19.5282C0.85775 19.1922 0.64175 18.9042 0.59375 18.6642C0.59375 18.2802 1.09775 17.7762 2.10575 17.1522C3.11375 16.5282 4.36175 15.9522 5.84975 15.4242C7.38575 14.8482 9.56975 14.2722 12.4018 13.6962C17.4418 12.6882 22.8658 12.0882 28.6738 11.8962C30.7378 11.8482 34.1218 11.8242 38.8258 11.8242C42.0898 11.9202 44.3218 12.2802 45.5218 12.9042C45.9538 13.1922 46.1698 13.4562 46.1698 13.6962L46.0978 13.9122C46.0498 13.9122 45.9778 13.8402 45.8818 13.6962C45.8818 12.8802 43.5058 12.4482 38.7538 12.4002L33.9298 12.2562L40.8418 12.6882C41.9458 12.8802 42.9538 13.1202 43.8658 13.4082C45.2578 14.0802 45.9538 14.5602 45.9538 14.8482L45.8098 14.9202L46.0258 14.9922C46.1698 15.0402 46.3618 15.1362 46.6018 15.2802C46.8418 15.3762 47.1058 15.5922 47.3938 15.9282C47.7298 16.2642 47.9698 16.5762 48.1138 16.8642C48.2578 17.1042 48.3298 17.2962 48.3298 17.4402C48.3298 17.5362 48.3058 17.6082 48.2578 17.6562C46.9138 17.6562 45.9778 17.3922 45.4498 16.8642C45.3058 16.7682 45.0898 16.6962 44.8018 16.6482C44.5138 16.5522 44.0818 16.4802 43.5058 16.4322C40.0018 16.4322 37.1218 16.4802 34.8658 16.5762C29.4418 16.9122 26.4418 17.2242 25.8658 17.5122L25.6497 17.8002V18.1602C25.6497 18.4962 25.5777 18.6642 25.4338 18.6642C25.3377 18.6642 25.2897 18.6882 25.2897 18.7362C25.2897 18.7362 25.2897 18.7602 25.2897 18.8082V19.0242C25.2897 19.1202 25.2418 19.1682 25.1458 19.1682C25.0498 19.1682 25.0018 19.1922 25.0018 19.2402C25.0018 19.2882 25.0018 19.3362 25.0018 19.3842V19.6002C25.0498 19.7442 25.0258 19.8162 24.9298 19.8162C24.8338 19.8162 24.7857 19.8402 24.7857 19.8882C24.7857 19.8882 24.7857 19.9122 24.7857 19.9602L24.8578 20.1762L24.4978 21.0402C24.2578 21.3762 24.0658 21.8082 23.9218 22.3362C23.7778 22.8162 23.6097 23.0562 23.4177 23.0562H23.3458V23.2722C23.3458 23.5122 23.2738 23.7762 23.1297 24.0642C22.9857 24.3042 22.7938 24.7362 22.5538 25.3602C22.3138 25.9362 22.1217 26.2242 21.9777 26.2242C21.8818 26.2242 21.8338 26.2722 21.8338 26.3682L21.9058 26.6562C21.9058 26.7522 21.8818 26.8962 21.8338 27.0882C21.7858 27.2802 21.6898 27.4722 21.5458 27.6642C21.4498 27.8562 21.3537 27.9522 21.2577 27.9522C21.2098 27.9522 21.1858 27.9762 21.1858 28.0242C21.1858 28.0722 21.1858 28.1202 21.1858 28.1682L21.2577 28.4562C21.2577 28.5042 21.1857 28.5282 21.0417 28.5282C20.9457 28.5282 20.7778 28.7922 20.5378 29.3202C20.3457 29.8482 20.2498 30.1602 20.2498 30.2562C20.2498 30.3522 20.1778 30.6402 20.0338 31.1202C19.9378 31.6002 19.7937 31.8402 19.6017 31.8402H19.5298L19.6017 32.2722C19.5538 32.3202 19.4818 32.3442 19.3857 32.3442C19.3377 32.3442 19.2898 32.3682 19.2418 32.4162L19.3137 32.8482C19.3137 32.8962 19.2657 32.9202 19.1697 32.9202C19.0737 32.9202 19.0258 32.9442 19.0258 32.9922C19.0258 32.9922 19.0258 33.0162 19.0258 33.0642L19.0977 33.4242C19.0977 33.4722 19.0257 33.4962 18.8818 33.4962C18.7857 33.4962 18.7378 33.5682 18.7378 33.7122L18.8818 34.0002C18.8818 34.0962 18.8097 34.1442 18.6657 34.1442H18.5938L18.6657 34.5762C18.6177 34.6242 18.5457 34.6482 18.4497 34.6482C18.3537 34.6482 18.3057 34.7682 18.3057 35.0082L18.3778 35.1522C18.3778 35.2002 18.3057 35.2242 18.1617 35.2242C18.0658 35.2242 18.0178 35.2962 18.0178 35.4402L18.1617 35.8002C18.1137 35.8482 18.0417 35.8722 17.9457 35.8722C17.8977 35.8722 17.8738 35.8962 17.8738 35.9442C17.8738 35.9442 17.8738 35.9682 17.8738 36.0162L17.9457 36.2322L17.8738 36.3042C17.7778 36.4002 17.6577 36.4962 17.5138 36.5922C17.3697 36.6402 17.2978 36.7362 17.2978 36.8802L17.4417 37.4562C17.3938 37.6002 17.3218 37.6722 17.2257 37.6722H17.1537L17.2257 38.0322C17.2257 38.1282 17.1778 38.1762 17.0818 38.1762C16.9858 38.1762 16.9377 38.2002 16.9377 38.2482C16.9377 38.2962 16.9377 38.3442 16.9377 38.3922L17.0097 38.6802C17.0097 38.7282 16.9618 38.7522 16.8658 38.7522C16.7698 38.7522 16.6498 38.8962 16.5057 39.1842C16.4098 39.4242 16.3618 39.6882 16.3618 39.9762V40.3362C16.3138 40.3842 16.2418 40.4562 16.1458 40.5522C16.0498 40.6002 15.9297 40.7922 15.7858 41.1282C15.3058 42.1362 15.0178 42.9042 14.9218 43.4322L14.8498 44.0082L14.9218 44.2242C14.8738 44.3202 14.8018 44.3682 14.7058 44.3682C14.6098 44.3682 14.5617 44.4162 14.5617 44.5122L14.6337 44.8002C14.6337 44.8482 14.6097 44.8722 14.5617 44.8722C14.0337 45.3042 12.9298 48.2802 11.2498 53.8002C9.52175 59.1282 8.48975 62.9682 8.15375 65.3202C8.05775 65.8482 7.76975 66.4722 7.28975 67.1922C6.90575 67.6722 6.61775 67.9122 6.42575 67.9122Z" fill="#757575"/>
</svg>
