<svg width="61" height="68" viewBox="0 0 61 68" fill="none" xmlns="http://www.w3.org/2000/svg">
<path d="M48.6147 28.2636L48.6867 28.1916C48.6867 28.0956 48.5667 27.9516 48.3267 27.7596C48.0867 27.5196 47.8947 27.3996 47.7507 27.3996C47.6547 27.3996 47.5587 27.4476 47.4627 27.5436C47.4147 27.6396 47.3187 27.7356 47.1747 27.8316C47.0787 27.9276 46.9827 27.9996 46.8867 28.0476C46.8387 28.0956 46.7907 28.1196 46.7427 28.1196C46.6947 28.1196 46.6707 28.1436 46.6707 28.1916H47.6067L48.6147 28.2636ZM56.8227 2.27159C56.9187 2.27159 57.0147 2.22359 57.1107 2.12759C57.2067 2.03159 57.2547 1.93559 57.2547 1.83959C57.2547 1.64759 57.1587 1.55159 56.9667 1.55159C56.9187 1.55159 56.8467 1.59959 56.7507 1.69559C56.6547 1.74359 56.5587 1.81559 56.4627 1.91159C56.3667 1.95959 56.3187 2.00759 56.3187 2.05559C56.3187 2.19959 56.4867 2.27159 56.8227 2.27159ZM30.6147 67.3596H30.5427C30.4947 67.3116 30.4707 67.1916 30.4707 66.9996L30.5427 66.7116C30.5427 66.6636 30.5187 66.6396 30.4707 66.6396L30.3987 66.7116L29.7507 66.6396C28.8387 66.3036 28.2387 65.9916 27.9507 65.7036C27.6147 65.4636 27.4467 65.0316 27.4467 64.4076C27.4467 63.0156 28.0467 60.0876 29.2467 55.6236C30.4467 51.1596 31.8867 46.4316 33.5667 41.4396L35.2227 36.2556H35.1507C34.8147 36.2556 33.7347 36.6876 31.9107 37.5516C31.0467 37.9356 30.2067 38.1276 29.3907 38.1276C29.1027 38.1276 28.9347 38.0796 28.8867 37.9836C28.8867 37.8876 28.7907 37.7436 28.5987 37.5516C28.4067 37.3596 28.1667 37.1916 27.8787 37.0476C26.8707 36.4716 26.3187 36.0396 26.2227 35.7516C26.2227 35.3676 26.4867 34.9116 27.0147 34.3836C28.6467 32.8476 31.3827 31.5276 35.2227 30.4236L38.0307 29.6316C40.2867 24.2076 42.9267 18.8796 45.9507 13.6476C48.6387 8.99159 50.9187 5.67959 52.7907 3.71159C53.6067 2.84759 54.4467 2.15159 55.3107 1.62359C55.9827 1.19159 56.5827 0.975586 57.1107 0.975586C57.4947 1.35959 57.8547 1.83959 58.1907 2.41559C58.3347 2.79959 58.5027 3.11159 58.6947 3.35159C58.9347 3.59159 59.1027 3.71159 59.1987 3.71159C59.3427 3.71159 59.5347 3.85559 59.7747 4.14359C60.3987 5.00759 60.7107 5.70359 60.7107 6.23159C60.7107 7.14359 59.8707 9.30359 58.1907 12.7116C56.5587 16.0716 54.5907 19.6236 52.2867 23.3676C51.8547 24.0396 51.4947 24.6396 51.2067 25.1676C50.9187 25.6476 50.6547 26.0556 50.4147 26.3916C50.2227 26.7276 50.0547 27.0156 49.9107 27.2556C49.8147 27.4956 49.7187 27.6876 49.6227 27.8316C49.5747 27.9276 49.5507 27.9996 49.5507 28.0476V28.1196C49.5987 28.4076 49.8147 28.5516 50.1987 28.5516C50.5827 28.5516 50.9187 28.7436 51.2067 29.1276C51.4947 29.4636 51.6387 29.7036 51.6387 29.8476C51.6387 29.9916 51.5427 30.0636 51.3507 30.0636C51.3027 30.0636 51.2547 30.0396 51.2067 29.9916C51.2067 29.9436 51.2067 29.8956 51.2067 29.8476L51.2787 29.6316C51.2787 29.5356 51.1347 29.4156 50.8467 29.2716C50.5587 29.1276 50.1747 29.0076 49.6947 28.9116C49.2147 28.7676 48.7347 28.6716 48.2547 28.6236C47.1507 28.6236 46.5987 28.7676 46.5987 29.0556C46.5987 29.2956 47.1267 29.4156 48.1827 29.4156C48.7587 29.4156 49.4787 29.6316 50.3427 30.0636C51.2547 30.4476 51.8067 30.6396 51.9987 30.6396C52.6227 30.6396 53.3187 31.1436 54.0867 32.1516C54.3267 32.4396 54.4467 32.6556 54.4467 32.7996C54.4467 32.9916 54.3747 33.0876 54.2307 33.0876H53.7987C53.3187 32.8476 52.5027 32.7276 51.3507 32.7276C49.1907 32.7276 46.8387 33.0636 44.2947 33.7356C43.8147 33.9756 42.9987 35.3916 41.8467 37.9836C40.6947 40.5756 39.4707 43.6716 38.1747 47.2716C35.1027 55.5276 33.3027 61.4556 32.7747 65.0556C32.7267 65.6796 32.6547 66.0636 32.5587 66.2076C32.4627 66.3996 32.2947 66.4956 32.0547 66.4956L31.8387 66.4236C31.5987 66.4236 31.4067 66.5676 31.2627 66.8556C31.1667 67.1916 30.9507 67.3596 30.6147 67.3596Z" fill="#999999"/>
<path d="M18.4805 46.3358C18.4805 46.2398 18.3605 45.9998 18.1205 45.6158C17.3525 44.3678 16.9205 43.7438 16.8245 43.7438V43.8158C16.8245 44.0078 16.9205 44.3198 17.1125 44.7518C17.3525 45.1358 17.6165 45.4958 17.9045 45.8318C18.1925 46.1678 18.3845 46.3358 18.4805 46.3358ZM19.2725 44.9678C19.4165 44.9678 19.7525 44.4638 20.2805 43.4558C22.5845 39.0398 23.8325 35.3198 24.0245 32.2958L24.0965 30.7118C24.0965 30.2798 24.0725 30.0638 24.0245 30.0638C23.4005 30.0638 22.5845 30.6398 21.5765 31.7918C20.5685 32.9438 19.7285 34.2398 19.0565 35.6798C18.3845 37.1198 18.0485 38.7278 18.0485 40.5038C18.0485 41.7038 18.2165 42.7598 18.5525 43.6718C18.9365 44.5358 19.1765 44.9678 19.2725 44.9678ZM24.9605 27.3278L24.7445 26.8238C24.2165 25.9118 23.4245 25.4558 22.3685 25.4558H21.9365C21.3125 25.5518 21.0005 25.6478 21.0005 25.7438C21.0005 25.8398 21.3365 25.9118 22.0085 25.9598C22.7285 26.0078 23.0885 26.1038 23.0885 26.2478V26.3918C23.0885 26.4878 23.1845 26.5838 23.3765 26.6798C23.5685 26.7758 23.7605 26.8718 23.9525 26.9678C24.1445 27.0158 24.3365 27.0878 24.5285 27.1838C24.7205 27.2798 24.8405 27.3278 24.8885 27.3278H24.9605ZM24.7445 41.3678C24.9365 41.3678 25.3205 40.5518 25.8965 38.9198C26.2805 37.6238 26.4725 36.8798 26.4725 36.6878V36.5438C26.4245 36.5438 26.3285 36.6878 26.1845 36.9758C25.8485 37.7438 25.5125 38.7998 25.1765 40.1438L24.7445 41.3678ZM26.9045 31.8638C26.9525 31.8638 27.0005 31.7918 27.0485 31.6478C27.0485 31.4558 26.9525 31.0958 26.7605 30.5678C26.4725 29.7998 26.2565 29.4158 26.1125 29.4158C25.9685 29.4158 25.8965 29.4878 25.8965 29.6318C26.1365 30.1118 26.3525 30.6158 26.5445 31.1438C26.7365 31.6238 26.8565 31.8638 26.9045 31.8638ZM26.6165 35.6078C26.7125 35.6078 26.7605 35.4158 26.7605 35.0318C26.7605 34.5998 26.7125 34.3838 26.6165 34.3838C26.5685 34.3838 26.5445 34.5998 26.5445 35.0318C26.5445 35.4158 26.5685 35.6078 26.6165 35.6078ZM23.8805 43.3838C23.9285 43.3838 24.0485 43.1918 24.2405 42.8078C24.5285 42.5198 24.6725 42.2078 24.6725 41.8718V41.7998C24.6245 41.7998 24.5045 41.9438 24.3125 42.2318C24.1685 42.5198 24.0485 42.7598 23.9525 42.9518C23.9045 43.0958 23.8805 43.2158 23.8805 43.3118V43.3838ZM7.53647 55.4078C7.92047 55.4078 8.73647 55.0958 9.98447 54.4718C12.6725 53.0798 14.9045 51.2798 16.6805 49.0718L17.9765 47.4158L16.1765 45.5438C15.3605 44.6318 14.5685 43.5518 13.8005 42.3038C13.0805 41.0558 12.7205 40.1678 12.7205 39.6398C12.7205 39.5438 12.6965 39.4958 12.6485 39.4958C12.6005 39.5438 12.4805 39.6638 12.2885 39.8558C12.1445 39.9998 12.0725 40.2158 12.0725 40.5038L12.1445 40.7198C12.1445 40.8158 12.0725 40.8638 11.9285 40.8638C11.7845 40.8638 11.7125 40.9118 11.7125 41.0078L11.7845 41.2238C11.7845 41.4158 11.6885 41.6078 11.4965 41.7998C11.3045 41.9918 11.2085 42.1598 11.2085 42.3038V42.4478C11.2085 42.5438 11.1365 42.5918 10.9925 42.5918C10.8485 42.5918 10.7765 42.6398 10.7765 42.7358L10.7045 43.4558C10.5125 44.0798 10.2965 44.3918 10.0565 44.3918H9.84047C9.84047 44.4398 9.86447 44.4878 9.91247 44.5358C9.96047 44.5358 9.98447 44.5598 9.98447 44.6078C9.98447 44.8958 9.86447 45.2318 9.62447 45.6158L9.26447 46.4798H9.33647L9.19247 46.8398C8.71247 47.6078 8.47247 48.1598 8.47247 48.4958C8.47247 48.7838 8.37647 49.0238 8.18447 49.2158L7.89647 50.1518C7.60847 51.0158 7.41647 51.7838 7.32047 52.4558C7.17647 53.4638 7.10447 54.1598 7.10447 54.5438C7.10447 55.1198 7.24847 55.4078 7.53647 55.4078ZM8.97647 59.4398L9.04847 59.3678C9.04847 59.2718 8.83247 59.2238 8.40047 59.2238C7.96847 59.2238 7.75247 59.2718 7.75247 59.3678C7.75247 59.4158 8.16047 59.4398 8.97647 59.4398ZM7.68047 56.2718C7.87247 56.2718 8.04047 56.2478 8.18447 56.1998C8.32847 56.1518 8.42447 56.1038 8.47247 56.0558C8.56847 55.9598 8.61647 55.8878 8.61647 55.8398C8.61647 55.7918 8.56847 55.7678 8.47247 55.7678C8.32847 55.7678 8.04047 55.8638 7.60847 56.0558C7.36847 56.1518 7.24847 56.2238 7.24847 56.2718H7.68047ZM8.18447 60.3038C7.89647 60.3038 7.68047 60.2798 7.53647 60.2318C7.44047 60.1838 7.32047 60.1118 7.17647 60.0158C3.86447 58.0958 1.87247 56.5838 1.20047 55.4798C0.720469 54.6638 0.480469 53.4158 0.480469 51.7358C0.480469 48.5678 1.44047 45.0878 3.36047 41.2958C7.48847 33.2798 11.9285 27.8558 16.6805 25.0238C17.2085 24.7358 17.5925 24.5918 17.8325 24.5918C18.1205 24.5918 18.3125 24.6638 18.4085 24.8078C18.5525 24.9038 18.6485 24.9998 18.6965 25.0958C18.7445 25.1438 18.7925 25.4078 18.8405 25.8878C18.7925 25.8878 18.7445 25.7918 18.6965 25.5998C18.6485 25.2158 18.4325 25.0238 18.0485 25.0238C17.8565 25.0238 17.5925 25.0958 17.2565 25.2398C17.1125 25.2878 17.0405 25.3358 17.0405 25.3838C17.0405 25.5278 17.3285 25.6718 17.9045 25.8158C18.2405 25.9118 18.5045 25.9598 18.6965 25.9598C19.0325 25.9598 19.3445 25.8638 19.6325 25.6718C20.3045 25.1438 21.0245 24.8798 21.7925 24.8798C22.0805 24.8798 22.5365 24.9518 23.1605 25.0958C23.7845 25.1918 24.4325 25.7678 25.1045 26.8238C25.5845 27.5438 26.0885 28.1198 26.6165 28.5518C27.7205 29.7038 28.4165 31.0958 28.7045 32.7278C28.7525 32.9678 28.7765 33.2558 28.7765 33.5918C28.7765 34.8398 28.4645 36.5438 27.8405 38.7038C27.2165 40.8638 26.0405 43.6958 24.3125 47.1998C24.0245 47.6798 23.8805 48.0158 23.8805 48.2078C23.8805 48.3518 23.9525 48.4238 24.0965 48.4238C24.2885 48.4238 24.5045 48.4958 24.7445 48.6398C25.6565 49.1678 26.1125 49.6238 26.1125 50.0078C26.1125 50.1038 26.0645 50.1998 25.9685 50.2958C25.8725 50.3918 25.7045 50.4398 25.4645 50.4398C25.3205 50.4398 24.7685 50.3198 23.8085 50.0798C23.3285 49.9358 22.9925 49.8638 22.8005 49.8638C22.5125 49.8638 22.3685 49.9118 22.3685 50.0078C22.3685 50.0558 22.4405 50.1038 22.5845 50.1518C22.7285 50.1998 22.8485 50.2478 22.9445 50.2958C23.3765 50.4398 23.8085 50.5118 24.2405 50.5118L24.3125 50.6558C24.1685 50.7998 23.7845 50.8718 23.1605 50.8718L22.8005 50.7998C22.3205 50.7998 21.7445 51.2558 21.0725 52.1678C18.5285 55.2398 15.5765 57.6158 12.2165 59.2958C10.7765 59.9678 9.43247 60.3038 8.18447 60.3038Z" fill="#999999"/>
</svg>
