<svg width="124" height="79" viewBox="0 0 124 79" fill="none" xmlns="http://www.w3.org/2000/svg">
<path d="M111.887 52.0389C111.887 51.9322 111.753 51.6656 111.487 51.2389C110.633 49.8522 110.153 49.1589 110.047 49.1589V49.2389C110.047 49.4522 110.153 49.7989 110.367 50.2789C110.633 50.7056 110.927 51.1056 111.247 51.4789C111.567 51.8522 111.78 52.0389 111.887 52.0389ZM112.767 50.5189C112.927 50.5189 113.3 49.9589 113.887 48.8389C116.447 43.9322 117.833 39.7989 118.047 36.4389L118.127 34.6789C118.127 34.1989 118.1 33.9589 118.047 33.9589C117.353 33.9589 116.447 34.5989 115.327 35.8789C114.207 37.1589 113.273 38.5989 112.527 40.1989C111.78 41.7989 111.407 43.5856 111.407 45.5589C111.407 46.8922 111.593 48.0656 111.967 49.0789C112.393 50.0389 112.66 50.5189 112.767 50.5189ZM119.087 30.9189L118.847 30.3589C118.26 29.3456 117.38 28.8389 116.207 28.8389H115.727C115.033 28.9456 114.687 29.0522 114.687 29.1589C114.687 29.2656 115.06 29.3456 115.807 29.3989C116.607 29.4522 117.007 29.5589 117.007 29.7189V29.8789C117.007 29.9856 117.113 30.0922 117.327 30.1989C117.54 30.3056 117.753 30.4122 117.967 30.5189C118.18 30.5722 118.393 30.6522 118.607 30.7589C118.82 30.8656 118.953 30.9189 119.007 30.9189H119.087ZM118.847 46.5189C119.06 46.5189 119.487 45.6122 120.127 43.7989C120.553 42.3589 120.767 41.5322 120.767 41.3189V41.1589C120.713 41.1589 120.607 41.3189 120.447 41.6389C120.073 42.4922 119.7 43.6656 119.327 45.1589L118.847 46.5189ZM121.247 35.9589C121.3 35.9589 121.353 35.8789 121.407 35.7189C121.407 35.5056 121.3 35.1056 121.087 34.5189C120.767 33.6656 120.527 33.2389 120.367 33.2389C120.207 33.2389 120.127 33.3189 120.127 33.4789C120.393 34.0122 120.633 34.5722 120.847 35.1589C121.06 35.6922 121.193 35.9589 121.247 35.9589ZM120.927 40.1189C121.033 40.1189 121.087 39.9056 121.087 39.4789C121.087 38.9989 121.033 38.7589 120.927 38.7589C120.873 38.7589 120.847 38.9989 120.847 39.4789C120.847 39.9056 120.873 40.1189 120.927 40.1189ZM117.887 48.7589C117.94 48.7589 118.073 48.5456 118.287 48.1189C118.607 47.7989 118.767 47.4522 118.767 47.0789V46.9989C118.713 46.9989 118.58 47.1589 118.367 47.4789C118.207 47.7989 118.073 48.0656 117.967 48.2789C117.913 48.4389 117.887 48.5722 117.887 48.6789V48.7589ZM99.7267 62.1189C100.153 62.1189 101.06 61.7722 102.447 61.0789C105.433 59.5322 107.913 57.5322 109.887 55.0789L111.327 53.2389L109.327 51.1589C108.42 50.1456 107.54 48.9456 106.687 47.5589C105.887 46.1722 105.487 45.1856 105.487 44.5989C105.487 44.4922 105.46 44.4389 105.407 44.4389C105.353 44.4922 105.22 44.6256 105.007 44.8389C104.847 44.9989 104.767 45.2389 104.767 45.5589L104.847 45.7989C104.847 45.9056 104.767 45.9589 104.607 45.9589C104.447 45.9589 104.367 46.0122 104.367 46.1189L104.447 46.3589C104.447 46.5722 104.34 46.7856 104.127 46.9989C103.913 47.2122 103.807 47.3989 103.807 47.5589V47.7189C103.807 47.8256 103.727 47.8789 103.567 47.8789C103.407 47.8789 103.327 47.9322 103.327 48.0389L103.247 48.8389C103.033 49.5322 102.793 49.8789 102.527 49.8789H102.287C102.287 49.9322 102.313 49.9856 102.367 50.0389C102.42 50.0389 102.447 50.0656 102.447 50.1189C102.447 50.4389 102.313 50.8122 102.047 51.2389L101.647 52.1989H101.727L101.567 52.5989C101.033 53.4522 100.767 54.0656 100.767 54.4389C100.767 54.7589 100.66 55.0256 100.447 55.2389L100.127 56.2789C99.8067 57.2389 99.5934 58.0922 99.4867 58.8389C99.3267 59.9589 99.2467 60.7322 99.2467 61.1589C99.2467 61.7989 99.4067 62.1189 99.7267 62.1189ZM101.327 66.5989L101.407 66.5189C101.407 66.4122 101.167 66.3589 100.687 66.3589C100.207 66.3589 99.9667 66.4122 99.9667 66.5189C99.9667 66.5722 100.42 66.5989 101.327 66.5989ZM99.8867 63.0789C100.1 63.0789 100.287 63.0522 100.447 62.9989C100.607 62.9456 100.713 62.8922 100.767 62.8389C100.873 62.7322 100.927 62.6522 100.927 62.5989C100.927 62.5456 100.873 62.5189 100.767 62.5189C100.607 62.5189 100.287 62.6256 99.8067 62.8389C99.5401 62.9456 99.4067 63.0256 99.4067 63.0789H99.8867ZM100.447 67.5589C100.127 67.5589 99.8867 67.5322 99.7267 67.4789C99.6201 67.4256 99.4867 67.3456 99.3267 67.2389C95.6467 65.1056 93.4334 63.4256 92.6867 62.1989C92.1534 61.2922 91.8867 59.9056 91.8867 58.0389C91.8867 54.5189 92.9534 50.6522 95.0867 46.4389C99.6734 37.5322 104.607 31.5056 109.887 28.3589C110.473 28.0389 110.9 27.8789 111.167 27.8789C111.487 27.8789 111.7 27.9589 111.807 28.1189C111.967 28.2256 112.073 28.3322 112.127 28.4389C112.18 28.4922 112.233 28.7856 112.287 29.3189C112.233 29.3189 112.18 29.2122 112.127 28.9989C112.073 28.5722 111.833 28.3589 111.407 28.3589C111.193 28.3589 110.9 28.4389 110.527 28.5989C110.367 28.6522 110.287 28.7056 110.287 28.7589C110.287 28.9189 110.607 29.0789 111.247 29.2389C111.62 29.3456 111.913 29.3989 112.127 29.3989C112.5 29.3989 112.847 29.2922 113.167 29.0789C113.913 28.4922 114.713 28.1989 115.567 28.1989C115.887 28.1989 116.393 28.2789 117.087 28.4389C117.78 28.5456 118.5 29.1856 119.247 30.3589C119.78 31.1589 120.34 31.7989 120.927 32.2789C122.153 33.5589 122.927 35.1056 123.247 36.9189C123.3 37.1856 123.327 37.5056 123.327 37.8789C123.327 39.2656 122.98 41.1589 122.287 43.5589C121.593 45.9589 120.287 49.1056 118.367 52.9989C118.047 53.5322 117.887 53.9056 117.887 54.1189C117.887 54.2789 117.967 54.3589 118.127 54.3589C118.34 54.3589 118.58 54.4389 118.847 54.5989C119.86 55.1856 120.367 55.6922 120.367 56.1189C120.367 56.2256 120.313 56.3322 120.207 56.4389C120.1 56.5456 119.913 56.5989 119.647 56.5989C119.487 56.5989 118.873 56.4656 117.807 56.1989C117.273 56.0389 116.9 55.9589 116.687 55.9589C116.367 55.9589 116.207 56.0122 116.207 56.1189C116.207 56.1722 116.287 56.2256 116.447 56.2789C116.607 56.3322 116.74 56.3856 116.847 56.4389C117.327 56.5989 117.807 56.6789 118.287 56.6789L118.367 56.8389C118.207 56.9989 117.78 57.0789 117.087 57.0789L116.687 56.9989C116.153 56.9989 115.513 57.5056 114.767 58.5189C111.94 61.9322 108.66 64.5722 104.927 66.4389C103.327 67.1856 101.833 67.5589 100.447 67.5589Z" fill="#215FF6"/>
<path d="M76.3333 49.7995C76.4933 49.7995 76.7333 49.7195 77.0533 49.5595C77.5333 49.2395 79.2399 47.6662 82.1733 44.8395C83.7733 43.2395 84.9733 41.7729 85.7733 40.4395C86.1999 39.6929 86.4133 39.2395 86.4133 39.0795L86.3333 38.9995H86.1733C86.0666 38.9995 86.0133 38.9195 86.0133 38.7595C86.0133 38.3862 86.0933 38.1462 86.2533 38.0395C86.5733 37.7195 86.8399 37.1329 87.0533 36.2795L87.2933 35.5595C87.2399 35.5595 87.1866 35.6129 87.1333 35.7195C87.0799 35.8262 86.7866 36.2795 86.2533 37.0795C85.9866 37.3995 85.7466 37.7462 85.5333 38.1195C84.7333 39.3462 84.2266 39.9595 84.0133 39.9595C83.8533 39.8529 83.7733 39.7195 83.7733 39.5595C83.7733 39.2395 83.8799 39.0795 84.0933 39.0795C84.3599 39.0795 84.4933 38.8929 84.4933 38.5195C84.4933 38.1995 84.4666 38.0395 84.4133 38.0395C84.3599 38.0395 84.1999 38.2262 83.9333 38.5995C83.4533 39.1862 83.0533 39.4795 82.7333 39.4795C82.4666 39.4795 81.5066 40.6262 79.8533 42.9195C78.2533 45.2129 77.4533 46.5195 77.4533 46.8395C77.4533 47.1595 77.3733 47.3195 77.2133 47.3195C77.1066 47.3195 76.9733 47.4529 76.8133 47.7195C76.3866 48.2529 76.1733 48.7595 76.1733 49.2395C76.1733 49.3995 76.0399 49.4795 75.7733 49.4795V49.5595C75.7733 49.6129 75.8266 49.6662 75.9333 49.7195C76.0933 49.7729 76.2266 49.7995 76.3333 49.7995ZM72.7333 68.5195C73.3733 68.5195 73.9866 68.3329 74.5733 67.9595L74.8933 67.7995L74.8133 67.7195L74.4933 67.7995C74.0133 67.9595 73.4533 68.0395 72.8133 68.0395C72.1733 68.0395 71.8533 68.0662 71.8533 68.1195C71.8533 68.1729 71.9066 68.2529 72.0133 68.3595C72.1733 68.4662 72.4133 68.5195 72.7333 68.5195ZM73.2933 71.8795C73.7733 71.8795 74.0133 71.8262 74.0133 71.7195L73.7733 71.6395C73.6666 71.5862 73.5066 71.5595 73.2933 71.5595C73.0799 71.5595 72.9199 71.5862 72.8133 71.6395L72.5733 71.7195C72.5733 71.8262 72.8133 71.8795 73.2933 71.8795ZM92.1733 56.8395V56.7595C92.2266 56.7595 92.2533 56.7062 92.2533 56.5995V56.5195V56.4395L92.0933 56.6795L92.1733 56.8395ZM74.3333 73.0795C73.9066 73.0795 73.4533 72.9995 72.9733 72.8395C72.4933 72.7329 71.6666 72.2795 70.4933 71.4795C69.3733 70.6795 68.2799 69.7995 67.2133 68.8395C66.1466 67.9329 65.3999 67.2129 64.9733 66.6795C64.0666 65.2395 63.6133 63.4529 63.6133 61.3195C63.6133 59.9329 63.9866 57.7729 64.7333 54.8395C65.4266 51.8529 67.1866 48.1462 70.0133 43.7195C72.8933 39.2929 76.3599 35.5595 80.4133 32.5195C82.1733 31.1862 83.5599 30.5195 84.5733 30.5195C84.9466 30.5195 85.2399 30.6262 85.4533 30.8395C85.7199 30.9995 85.9066 31.1862 86.0133 31.3995C86.1733 31.5595 86.2533 31.7195 86.2533 31.8795C86.2533 32.0395 86.2266 32.1195 86.1733 32.1195C86.1199 32.1195 86.0399 32.0129 85.9333 31.7995C85.7199 31.2662 85.2933 30.9995 84.6533 30.9995C84.3333 30.9995 84.0399 31.0795 83.7733 31.2395C83.5066 31.3995 83.3733 31.5062 83.3733 31.5595C83.3733 31.6129 83.5599 31.6395 83.9333 31.6395C84.3599 31.6395 84.8399 31.8795 85.3733 32.3595C85.9599 32.7862 86.4933 32.9995 86.9733 32.9995C87.5066 32.9995 87.8533 33.1062 88.0133 33.3195C88.1733 33.4795 88.3066 33.5595 88.4133 33.5595C88.5733 33.5595 88.6533 33.4529 88.6533 33.2395L88.5733 32.4395C88.6266 32.4395 88.7066 32.5195 88.8133 32.6795C89.0799 32.9995 89.2133 33.4262 89.2133 33.9595C89.2133 34.4395 89.3733 34.7862 89.6933 34.9995C90.0133 35.3729 90.1733 36.0129 90.1733 36.9195C90.1733 37.8262 90.0133 38.7595 89.6933 39.7195C89.4266 40.3062 89.2933 40.7062 89.2933 40.9195H89.3733C89.5866 40.9195 89.8533 40.3862 90.1733 39.3195C90.4933 37.9329 90.6533 36.9195 90.6533 36.2795C90.6533 35.1595 90.7333 34.5995 90.8933 34.5995C90.9466 34.5995 91.0533 34.6795 91.2133 34.8395C92.0133 35.6395 92.4133 36.5729 92.4133 37.6395C92.4133 39.0262 91.6666 40.9995 90.1733 43.5595C88.7333 46.0662 86.1999 48.7062 82.5733 51.4795C79.5333 53.6662 77.0799 54.7595 75.2133 54.7595C74.6799 54.7595 74.2799 54.7862 74.0133 54.8395C73.7999 54.8395 73.6399 54.9195 73.5333 55.0795C73.0533 55.7729 72.6266 56.8395 72.2533 58.2795L71.8533 59.7195C71.3199 61.9595 71.0533 63.8262 71.0533 65.3195C71.0533 66.3862 71.1599 66.9729 71.3733 67.0795C71.6399 67.2395 72.0133 67.3195 72.4933 67.3195C74.1999 67.3195 76.5999 66.3062 79.6933 64.2795C81.0266 63.4262 82.2533 62.4395 83.3733 61.3195C87.16 57.9595 89.2133 56.0395 89.5333 55.5595C90.1199 54.9195 90.5999 54.5995 90.9733 54.5995C91.4533 54.5995 92.04 54.9195 92.7333 55.5595C93.48 56.1995 93.8533 56.8395 93.8533 57.4795C93.7466 58.3329 92.8399 59.6662 91.1333 61.4795C84.0399 69.2129 78.4399 73.0795 74.3333 73.0795Z" fill="#215FF6"/>
<path d="M39.6484 63.1593C40.5018 62.5726 41.3018 62.0126 42.0484 61.4793C42.8484 60.946 43.8351 60.1726 45.0084 59.1593C47.9418 56.6526 50.6618 53.8526 53.1684 50.7593C54.5551 49.0526 55.9151 47.0793 57.2484 44.8393C56.8751 45.2126 56.4751 45.6126 56.0484 46.0393C55.6218 46.466 55.3018 46.706 55.0884 46.7593C54.9284 46.8126 54.7951 46.8393 54.6884 46.8393C54.5284 46.8393 54.3418 46.786 54.1284 46.6793C53.9151 46.5726 53.7018 46.5193 53.4884 46.5193C53.1684 46.5193 52.9551 46.546 52.8484 46.5993C52.7951 46.6526 52.7418 46.6793 52.6884 46.6793C52.5284 46.6793 52.3151 46.626 52.0484 46.5193C51.8351 46.4126 51.6218 46.2793 51.4084 46.1193C51.2484 45.906 51.1684 45.7193 51.1684 45.5593L51.2484 45.3193C51.2484 45.266 51.2218 45.2126 51.1684 45.1593C51.1684 45.0526 51.1151 44.9993 51.0084 44.9993L51.0884 44.5193C51.1418 44.306 51.6218 43.4793 52.5284 42.0393L54.2884 38.9993L53.2484 39.9593C52.1818 41.026 50.9284 42.4926 49.4884 44.3593C48.0484 46.1726 47.3284 47.2126 47.3284 47.4793L47.4084 47.5593C47.4084 47.666 47.1951 47.826 46.7684 48.0393C46.3951 48.2526 46.0751 48.786 45.8084 49.6393C45.7018 49.9593 45.3551 50.4926 44.7684 51.2393C44.6084 51.3993 44.5018 51.5326 44.4484 51.6393C44.4484 51.6926 44.4218 51.826 44.3684 52.0393L44.4484 52.2793C44.4484 52.386 44.3951 52.4393 44.2884 52.4393C44.1818 52.4393 44.0218 52.5726 43.8084 52.8393C43.6484 53.106 43.4884 53.426 43.3284 53.7993C43.2218 54.1193 43.1684 54.3326 43.1684 54.4393C43.1684 54.546 43.1418 54.626 43.0884 54.6793C43.0884 54.6793 43.0351 54.706 42.9284 54.7593C42.8218 54.7593 42.7684 54.786 42.7684 54.8393L42.8484 55.1593V55.2393C42.7951 55.2926 42.7151 55.3193 42.6084 55.3193C42.5551 55.3193 42.4751 55.346 42.3684 55.3993C42.3151 55.4526 42.2884 55.586 42.2884 55.7993C42.2884 55.9593 42.2618 56.146 42.2084 56.3593C42.0484 56.9993 41.8351 57.3193 41.5684 57.3193C41.5151 57.3193 41.4884 57.346 41.4884 57.3993C41.4884 57.3993 41.4884 57.426 41.4884 57.4793L41.5684 57.7993H41.4884C41.4884 57.8526 41.4084 57.8793 41.2484 57.8793C41.0884 57.8793 41.0084 57.986 41.0084 58.1993C41.0618 58.1993 41.0884 58.226 41.0884 58.2793C41.0884 58.386 40.9551 58.6793 40.6884 59.1593C40.5818 59.3726 40.5284 59.586 40.5284 59.7993L40.6084 59.9593L40.2884 60.1193C40.0751 60.2793 39.8618 61.2926 39.6484 63.1593ZM39.6484 68.5193C39.6484 68.466 39.5951 68.4126 39.4884 68.3593C39.3818 68.306 39.2218 68.2793 39.0084 68.2793C38.7951 68.2793 38.6351 68.306 38.5284 68.3593C38.4218 68.4126 38.3684 68.466 38.3684 68.5193H39.6484ZM54.3684 46.5993C54.4751 46.5993 54.6618 46.4393 54.9284 46.1193L55.2484 45.6393C55.1951 45.6393 55.0084 45.7726 54.6884 46.0393C54.4218 46.306 54.2884 46.466 54.2884 46.5193C54.2884 46.5726 54.3151 46.5993 54.3684 46.5993ZM54.8484 31.8793C55.4884 31.7726 55.9151 31.6126 56.1284 31.3993L55.2484 31.2393C55.0351 31.2393 54.7151 31.2926 54.2884 31.3993C53.9151 31.506 53.7284 31.6126 53.7284 31.7193C53.7284 31.826 53.9151 31.8793 54.2884 31.8793H54.8484ZM57.8884 78.6793C57.6218 78.6793 57.4884 78.546 57.4884 78.2793C57.4884 78.0126 57.4618 77.8526 57.4084 77.7993V77.7193L57.2484 77.7993C56.8218 77.7993 56.3684 77.6393 55.8884 77.3193C55.4084 77.0526 55.0618 76.8393 54.8484 76.6793C54.6351 76.5193 54.5018 76.2793 54.4484 75.9593L54.2884 74.6793C54.2884 73.506 54.4751 71.5593 54.8484 68.8393C55.2218 66.1193 55.7284 63.2926 56.3684 60.3593C56.9018 58.4393 57.1684 57.2126 57.1684 56.6793C57.0618 56.6793 56.3684 57.3726 55.0884 58.7593C53.9684 59.986 52.3951 61.4793 50.3684 63.2393C47.0084 66.1193 44.2884 68.0126 42.2084 68.9193C41.1418 69.3993 40.2884 69.6393 39.6484 69.6393C39.2218 69.6393 38.8484 69.6126 38.5284 69.5593C38.2084 69.506 36.9284 68.786 34.6884 67.3993C34.3151 67.1326 33.8884 66.866 33.4084 66.5993C32.2351 65.8526 31.6484 64.5993 31.6484 62.8393C31.6484 60.6526 32.5284 57.746 34.2884 54.1193C37.7551 47.0793 42.0751 40.9726 47.2484 35.7993C50.6618 32.3326 53.2751 30.5993 55.0884 30.5993C56.0484 30.5993 56.7951 31.0793 57.3284 32.0393C57.9151 32.7326 58.4218 33.1593 58.8484 33.3193C59.2751 33.426 59.8084 33.826 60.4484 34.5193C61.1418 35.1593 61.4884 35.906 61.4884 36.7593C61.4884 37.9326 60.9551 39.3993 59.8884 41.1593L59.2484 42.2793C59.5684 42.2793 60.3684 40.9993 61.6484 38.4393L67.8084 25.7993C69.0884 23.0793 70.6084 20.1993 72.3684 17.1593C74.1284 14.1193 75.7818 11.4793 77.3284 9.2393C80.8484 4.22596 83.0351 1.5593 83.8884 1.23929C84.4751 1.0793 84.9018 0.839296 85.1684 0.519294C85.4351 0.359296 85.6751 0.279297 85.8884 0.279297C86.1018 0.33263 86.2351 0.439295 86.2884 0.599293V0.679296C86.2884 0.839294 86.2351 1.02596 86.1284 1.23929C86.0218 1.3993 85.9684 1.50596 85.9684 1.55929C85.9684 1.61263 85.9684 1.66596 85.9684 1.7193C85.9684 1.77263 86.0751 1.7993 86.2884 1.7993L86.5284 1.7193C86.5818 1.7193 86.6351 1.77263 86.6884 1.8793C86.7951 1.93263 86.8484 2.01263 86.8484 2.1193C86.8484 2.22596 86.9284 2.38596 87.0884 2.5993C87.2484 2.81263 87.4351 3.02596 87.6484 3.2393C87.9151 3.39929 88.1818 3.63929 88.4484 3.9593C88.7151 4.2793 88.9284 4.57263 89.0884 4.8393C89.3018 5.10596 89.4884 5.37263 89.6484 5.63929L86.7684 10.1993C80.5818 19.8526 75.3551 29.6126 71.0884 39.4793C69.7551 42.786 68.9818 44.626 68.7684 44.9993L68.3684 46.1993C68.3151 46.626 68.1818 46.9993 67.9684 47.3193C67.8084 47.6393 67.6484 48.0126 67.4884 48.4393C67.3284 48.8126 67.1951 49.1593 67.0884 49.4793C67.0351 49.5326 67.0084 49.6393 67.0084 49.7993C65.6751 52.466 63.9151 58.6526 61.7284 68.3593C60.9284 71.7193 60.4218 74.2526 60.2084 75.9593C60.1551 77.0793 59.9684 77.6393 59.6484 77.6393C59.5418 77.6393 59.4351 77.6126 59.3284 77.5593C59.2218 77.506 59.1418 77.4793 59.0884 77.4793C58.8218 77.4793 58.6351 77.666 58.5284 78.0393C58.4218 78.466 58.2084 78.6793 57.8884 78.6793Z" fill="#215FF6"/>
<path d="M43.2039 19.9594C42.9906 19.9594 42.6172 19.9327 42.0839 19.8794C41.5506 19.826 40.9906 19.586 40.4039 19.1594C39.8706 18.6794 39.6039 18.226 39.6039 17.7994C39.6039 17.1594 40.2972 15.586 41.6839 13.0794C42.6439 11.266 43.3906 10.3594 43.9239 10.3594C44.0839 10.3594 44.1639 10.546 44.1639 10.9194C44.1639 11.2394 44.0839 11.3994 43.9239 11.3994L43.5239 11.2394C43.4706 11.2394 43.4439 11.266 43.4439 11.3194C43.4439 11.5327 43.7906 11.9327 44.4839 12.5194C44.9106 12.8927 45.2572 13.0794 45.5239 13.0794C45.6306 13.0794 45.7639 13.026 45.9239 12.9194C46.0839 12.8127 46.2706 12.7594 46.4839 12.7594C46.6439 12.8127 46.9372 12.9727 47.3639 13.2394C47.7906 13.4527 48.0039 13.746 48.0039 14.1194C48.0039 14.4394 47.7639 14.8394 47.2839 15.3194C46.8572 15.746 46.3506 16.4927 45.7639 17.5594C45.4972 18.0394 45.2039 18.4927 44.8839 18.9194C44.6172 19.2927 44.4306 19.5594 44.3239 19.7194C44.0572 19.8794 43.6839 19.9594 43.2039 19.9594ZM26.8839 73.3994C26.2972 73.186 26.0039 73.0794 26.0039 73.0794L22.0039 71.0794V68.6794C22.0572 66.9727 22.5906 64.226 23.6039 60.4394C24.5639 56.5994 25.8439 52.306 27.4439 47.5594C28.0306 46.0127 28.3239 45.106 28.3239 44.8394C28.3239 44.786 28.2972 44.7594 28.2439 44.7594L28.0039 44.8394C27.7906 44.8394 27.6839 44.7594 27.6839 44.5994C27.6839 43.9594 28.2172 42.706 29.2839 40.8394C29.6039 40.3594 29.9506 39.746 30.3239 38.9994L32.3239 35.0794C34.0306 31.826 35.2306 30.1994 35.9239 30.1994C36.1906 30.1994 36.3239 30.306 36.3239 30.5194C36.3239 30.626 36.2706 30.786 36.1639 30.9994C36.0572 31.2127 36.0039 31.3727 36.0039 31.4794L36.0839 31.7994H36.4039C36.4572 31.746 36.5106 31.6394 36.5639 31.4794C36.6172 31.266 36.7506 31.1594 36.9639 31.1594L37.6039 31.7194C37.9772 32.0927 38.3239 32.2794 38.6439 32.2794C39.0172 32.2794 39.5239 32.6527 40.1639 33.3994C40.7506 33.9327 41.0439 34.386 41.0439 34.7594C41.0439 34.9194 41.0172 35.106 40.9639 35.3194C40.9106 35.5327 40.8839 35.7194 40.8839 35.8794C40.8839 35.986 40.8839 36.066 40.8839 36.1194L40.9639 36.3594C40.9639 36.466 40.8839 36.5194 40.7239 36.5194C40.5639 36.5194 40.4572 36.546 40.4039 36.5994L40.4839 36.9994C40.4839 37.106 40.4039 37.2394 40.2439 37.3994C40.1372 37.506 40.0839 37.6127 40.0839 37.7194C40.0839 37.7727 40.1106 37.7994 40.1639 37.7994C40.2172 37.7994 40.2439 37.826 40.2439 37.8794L40.1639 38.0394C39.9506 38.466 39.7906 38.8394 39.6839 39.1594V39.3994C39.6306 39.6127 39.4972 39.7194 39.2839 39.7194C39.1239 39.7194 39.0439 39.7727 39.0439 39.8794L39.1239 39.9594C39.1239 40.226 39.0706 40.5194 38.9639 40.8394C38.8572 40.946 38.7772 41.0794 38.7239 41.2394C38.6706 41.346 38.6439 41.506 38.6439 41.7194C38.6439 41.9327 38.5639 42.0394 38.4039 42.0394C38.2972 42.0394 38.2439 42.066 38.2439 42.1194C38.2439 42.1727 38.2439 42.226 38.2439 42.2794L38.3239 42.5194V42.5994C38.2706 42.6527 38.1639 42.6794 38.0039 42.6794C37.8972 42.6794 37.8439 42.7594 37.8439 42.9194L37.9239 43.2394C37.8706 43.346 37.7906 43.4527 37.6839 43.5594C37.5772 43.6127 37.5239 43.666 37.5239 43.7194C37.5239 43.826 37.5506 43.906 37.6039 43.9594C37.6572 44.0127 37.6839 44.066 37.6839 44.1194V44.1994C37.6306 44.2527 37.4706 44.306 37.2039 44.3594L37.2839 44.5994L37.2039 44.9194C36.8306 45.666 36.6439 46.146 36.6439 46.3594C36.6972 46.3594 36.7239 46.386 36.7239 46.4394L36.6439 46.5194C36.5906 46.5727 36.4839 46.5994 36.3239 46.5994C36.2172 46.5994 36.1639 46.6794 36.1639 46.8394C36.1639 46.9994 35.8706 47.7194 35.2839 48.9994C33.1506 53.6927 31.2306 59.186 29.5239 65.4794C28.7239 68.2527 28.3239 70.1194 28.3239 71.0794C28.3239 71.6127 28.2972 71.906 28.2439 71.9594C28.1906 72.066 28.0039 72.1194 27.6839 72.1194L27.3639 72.0394C27.1506 72.0394 27.0439 72.2527 27.0439 72.6794C27.0439 73.106 26.9906 73.346 26.8839 73.3994Z" fill="#215FF6"/>
<path d="M4.08047 71.4789C3.70714 71.4789 3.2538 71.3455 2.72047 71.0789C1.22714 70.4922 0.480469 68.9455 0.480469 66.4389C0.480469 62.2789 1.8938 54.6522 4.72047 43.5589C6.32047 37.3189 8.02714 31.4522 9.84047 25.9589C11.3871 21.3189 12.3471 18.5189 12.7205 17.5589C13.2005 16.3322 13.5471 15.6655 13.7605 15.5589C13.9738 15.4522 14.1338 15.3189 14.2405 15.1589C14.3471 14.9989 14.4005 14.8922 14.4005 14.8389C14.4005 14.7322 14.4538 14.5989 14.5605 14.4389C14.7205 14.2255 14.8538 14.1189 14.9605 14.1189C15.0671 14.1189 15.1205 14.1989 15.1205 14.3589L14.9605 15.2389C14.9605 15.4522 15.0138 15.6389 15.1205 15.7989C15.2271 15.9589 15.4405 16.1455 15.7605 16.3589C16.0805 16.5189 16.3471 16.7055 16.5605 16.9189C16.7738 17.0789 16.8805 17.1855 16.8805 17.2389C16.8805 17.2922 16.9071 17.3189 16.9605 17.3189C17.0671 17.3189 17.3338 16.8922 17.7605 16.0389C18.0805 16.3055 18.3738 16.5722 18.6405 16.8389C18.9605 17.0522 19.2005 17.2655 19.3605 17.4789C19.5738 17.6922 19.6805 17.8789 19.6805 18.0389C19.6805 18.1455 19.5205 18.7322 19.2005 19.7989C18.8805 20.8122 18.5338 21.9855 18.1605 23.3189C17.2538 26.3055 16.5871 28.2789 16.1605 29.2389C15.4671 30.7855 14.0538 35.1589 11.9205 42.3589C9.84047 49.5055 8.80047 53.4522 8.80047 54.1989C8.90713 54.1989 9.4138 53.5322 10.3205 52.1989C11.2271 50.8655 12.3471 49.0789 13.6805 46.8389C21.8938 33.6122 29.2805 22.6522 35.8405 13.9589C37.4405 11.8789 38.8538 10.1722 40.0805 8.83887C41.3071 7.50553 42.0538 6.83887 42.3205 6.83887C42.3738 6.8922 42.4005 6.9722 42.4005 7.07887C42.3471 7.23887 42.2671 7.3722 42.1605 7.47887C42.1071 7.5322 42.0805 7.6122 42.0805 7.71887C42.0805 7.98554 42.3205 8.4122 42.8005 8.99887C43.3338 9.58554 43.7071 9.87887 43.9205 9.87887H44.0005C44.1605 9.6122 44.3471 9.47887 44.5605 9.47887C44.6671 9.47887 44.8005 9.5322 44.9605 9.63887C45.1205 9.6922 45.3071 9.87887 45.5205 10.1989C45.7338 10.5189 45.8405 10.7855 45.8405 10.9989C45.8405 11.3189 45.5471 11.8255 44.9605 12.5189C36.9605 23.0255 29.5738 33.5322 22.8005 44.0389C21.9471 45.3189 21.2005 46.4122 20.5605 47.3189C19.9738 48.2255 19.6005 48.8122 19.4405 49.0789C19.3338 49.2922 19.2005 49.5055 19.0405 49.7189C18.5071 50.7855 18.0271 51.5855 17.6005 52.1189C16.0538 54.5722 14.4805 57.1589 12.8805 59.8789C9.04047 66.3855 7.12047 69.9055 7.12047 70.4389C7.12047 70.9722 6.90714 71.2389 6.48047 71.2389C6.2138 71.2389 5.94714 71.1855 5.68047 71.0789C5.46714 71.0255 5.28047 70.9989 5.12047 70.9989C4.8538 70.9989 4.64047 71.0789 4.48047 71.2389C4.3738 71.3989 4.24047 71.4789 4.08047 71.4789Z" fill="#215FF6"/>
</svg>
