<svg width="196" height="37" viewBox="0 0 196 37" fill="none" xmlns="http://www.w3.org/2000/svg">
<path d="M172.736 31.8049C172.79 31.7783 172.816 31.7516 172.816 31.7249C172.816 31.6716 172.736 31.6049 172.576 31.5249L172.056 31.4849C171.816 31.5116 171.696 31.5383 171.696 31.5649C171.696 31.5916 171.75 31.6316 171.856 31.6849C171.99 31.7383 172.123 31.7649 172.256 31.7649C172.39 31.7916 172.483 31.8049 172.536 31.8049H172.736ZM172.136 30.1649C172.323 30.1649 172.803 30.0183 173.576 29.7249C174.243 29.5116 174.75 29.2849 175.096 29.0449L175.136 28.9249L174.936 29.0049C173.39 29.5649 172.496 29.8449 172.256 29.8449C172.043 29.8449 171.936 29.9116 171.936 30.0449C171.936 30.1249 172.003 30.1649 172.136 30.1649ZM175.416 28.9249C175.55 28.9249 175.696 28.8449 175.856 28.6849L176.136 28.4849L175.816 28.6449C175.47 28.7516 175.296 28.8316 175.296 28.8849C175.296 28.9116 175.336 28.9249 175.416 28.9249ZM176.416 28.4449C176.55 28.4449 176.696 28.3383 176.856 28.1249L177.096 28.0049L176.776 28.1249C176.456 28.2583 176.296 28.3516 176.296 28.4049C176.296 28.4316 176.336 28.4449 176.416 28.4449ZM189.576 13.0049C189.763 13.0049 189.856 12.9783 189.856 12.9249L189.816 12.8849H189.376V12.9249C189.376 12.9783 189.443 13.0049 189.576 13.0049ZM184.336 33.5649H184.296V33.4849C184.27 33.4583 184.176 33.3916 184.016 33.2849C183.883 33.1783 183.71 33.0583 183.496 32.9249C183.283 32.7916 183.083 32.6449 182.896 32.4849C182.736 32.3249 182.63 32.1916 182.576 32.0849C182.523 31.9783 182.496 31.7649 182.496 31.4449C182.496 31.2049 182.51 30.7916 182.536 30.2049C182.59 29.6449 182.763 28.6049 183.056 27.0849C182.496 27.5916 180.963 28.4983 178.456 29.8049C175.63 31.3516 173.643 32.1249 172.496 32.1249C172.123 32.1249 171.816 32.0449 171.576 31.8849L170.216 30.9649C169.176 30.3516 168.656 29.5249 168.656 28.4849C168.656 26.3516 170.163 23.1383 173.176 18.8449C175.976 14.6049 179.216 10.5649 182.896 6.72492C183.776 5.81826 184.71 4.93826 185.696 4.08492C186.71 3.20492 187.616 2.48492 188.416 1.92492C189.216 1.33826 189.763 1.04492 190.056 1.04492C190.136 1.04492 190.176 1.05826 190.176 1.08492L189.576 1.36492L190.016 1.88492C190.336 2.25826 190.59 2.44492 190.776 2.44492C190.963 2.44492 191.123 2.55159 191.256 2.76492C191.39 2.95159 191.456 3.09826 191.456 3.20492C191.456 3.28492 191.376 3.39159 191.216 3.52492C191.083 3.63159 190.99 3.68492 190.936 3.68492C190.91 3.68492 190.896 3.65826 190.896 3.60492C190.896 3.55159 190.87 3.52492 190.816 3.52492C190.55 3.52492 189.35 4.60492 187.216 6.76492C182.763 11.1383 178.656 16.3116 174.896 22.2849C174.15 23.4583 173.496 24.6849 172.936 25.9649C172.376 27.2183 172.056 28.1916 171.976 28.8849L171.856 29.7249L172.656 29.4849C173.216 29.3516 173.91 29.1116 174.736 28.7649C175.59 28.4183 176.256 28.1116 176.736 27.8449C177.216 27.5783 177.523 27.4449 177.656 27.4449C177.71 27.4449 177.736 27.4716 177.736 27.5249L177.696 27.6849H177.736C177.763 27.6849 177.816 27.6716 177.896 27.6449C177.976 27.6183 178.016 27.5916 178.016 27.5649C178.016 27.5383 177.99 27.5116 177.936 27.4849C177.883 27.4583 177.856 27.4316 177.856 27.4049C177.856 27.2983 178.003 27.1783 178.296 27.0449C178.59 26.9116 178.79 26.8449 178.896 26.8449L179.016 26.8849C179.043 26.8849 179.056 26.8716 179.056 26.8449L179.016 26.8049C179.016 26.6716 179.376 26.3649 180.096 25.8849C180.576 25.6183 181.99 24.6049 184.336 22.8449L184.976 21.2049C185.11 20.8049 185.31 20.3383 185.576 19.8049L186.496 17.7649C187.083 16.6449 187.376 16.0316 187.376 15.9249L185.376 16.3649C185.003 16.4449 184.816 16.5383 184.816 16.6449C184.816 16.7249 184.843 16.8316 184.896 16.9649C184.976 17.0716 185.016 17.1383 185.016 17.1649C185.016 17.1916 185.003 17.2049 184.976 17.2049H184.896C184.843 17.2049 184.736 17.1916 184.576 17.1649C184.416 17.1116 184.216 17.0716 183.976 17.0449H183.176C182.616 17.0449 182.336 16.9916 182.336 16.8849L182.416 16.7249C182.416 16.6449 182.376 16.6049 182.296 16.6049C182.216 16.6049 182.096 16.5383 181.936 16.4049C181.776 16.2716 181.403 15.9116 180.816 15.3249L181.496 14.7649C182.19 14.2849 183.323 13.8449 184.896 13.4449C186.496 13.0183 188.31 12.7116 190.336 12.5249C191.216 12.4449 191.91 12.4049 192.416 12.4049C192.656 12.4049 192.936 12.4316 193.256 12.4849C193.603 12.5383 193.776 12.7116 193.776 13.0049L193.816 13.2849C193.816 13.3383 193.803 13.3649 193.776 13.3649C193.75 13.3649 193.71 13.2849 193.656 13.1249C193.603 12.9649 193.536 12.8583 193.456 12.8049C193.403 12.7516 193.283 12.7116 193.096 12.6849C191.843 12.6849 191.216 12.7116 191.216 12.7649C191.216 12.7916 191.576 12.8449 192.296 12.9249C192.856 13.0583 193.216 13.2183 193.376 13.4049C193.563 13.5649 193.723 13.6849 193.856 13.7649C194.016 13.8183 194.136 13.8449 194.216 13.8449C194.323 13.8449 194.456 13.9116 194.616 14.0449C195.043 14.3916 195.256 14.6716 195.256 14.8849C195.256 14.9916 195.19 15.0449 195.056 15.0449C194.79 15.0449 194.51 15.0316 194.216 15.0049C193.923 14.9783 193.616 14.9649 193.296 14.9649C192.896 14.9649 192.363 15.0183 191.696 15.1249L190.976 16.6849C190.47 17.6983 190.203 18.4583 190.176 18.9649C190.15 19.4449 189.99 19.9783 189.696 20.5649C189.43 21.1516 189.096 21.6583 188.696 22.0849C188.163 22.7249 187.55 23.9916 186.856 25.8849C186.163 27.7783 185.67 29.5916 185.376 31.3249L185.336 31.9649C185.336 32.2849 185.39 32.5383 185.496 32.7249C185.603 32.9116 185.656 33.0716 185.656 33.2049C185.656 33.3383 185.576 33.4049 185.416 33.4049C185.336 33.4049 185.216 33.3516 185.056 33.2449C184.896 33.1649 184.75 33.1249 184.616 33.1249H184.496C184.443 33.1516 184.403 33.2183 184.376 33.3249C184.35 33.4583 184.336 33.5383 184.336 33.5649Z" fill="#F8F8F8"/>
<path d="M162.578 20.0448C162.658 20.0448 162.698 19.7514 162.698 19.1648L162.618 17.5248L162.498 19.7648C162.498 19.9514 162.525 20.0448 162.578 20.0448ZM162.818 16.7248L162.858 16.5648C162.885 16.4581 162.898 16.2981 162.898 16.0848C162.898 15.8981 162.872 15.7248 162.818 15.5648H162.858L162.818 15.4048C162.792 15.4048 162.778 15.6181 162.778 16.0448C162.778 16.4981 162.792 16.7248 162.818 16.7248ZM162.978 14.2448C163.032 14.2448 163.058 14.0714 163.058 13.7248C163.058 13.3781 163.032 13.2048 162.978 13.2048C162.952 13.2048 162.938 13.3914 162.938 13.7648C162.938 14.0848 162.952 14.2448 162.978 14.2448ZM163.178 12.4048C163.232 12.4048 163.258 12.2714 163.258 12.0048C163.258 11.8714 163.245 11.7514 163.218 11.6448L163.178 11.4848C163.152 11.4848 163.138 11.6314 163.138 11.9248C163.138 12.2448 163.152 12.4048 163.178 12.4048ZM163.338 10.6448C163.418 10.6448 163.458 10.5381 163.458 10.3248L163.338 9.96477C163.312 9.96477 163.298 10.0581 163.298 10.2448C163.298 10.5114 163.312 10.6448 163.338 10.6448ZM164.698 33.4448C164.432 33.4448 164.085 33.4048 163.658 33.3248L162.858 33.0048C162.672 32.8714 162.565 30.0581 162.538 24.5648C162.538 21.7914 162.512 20.4048 162.458 20.4048C162.352 20.5914 162.298 22.4581 162.298 26.0048C162.298 27.7381 162.312 29.0314 162.338 29.8848L162.498 32.1248C162.498 32.2314 162.485 32.2848 162.458 32.2848C162.432 32.2848 162.405 32.2848 162.378 32.2848C162.298 32.2848 162.165 32.2048 161.978 32.0448C161.498 31.6181 161.138 31.1114 160.898 30.5248C160.658 29.8048 160.538 27.6314 160.538 24.0048C160.538 19.2048 160.738 15.0848 161.138 11.6448L161.218 10.8048L160.778 11.7648C159.792 13.8448 158.658 16.6181 157.378 20.0848C156.125 23.5514 155.192 26.4181 154.578 28.6848L154.538 28.8848C154.058 30.8581 153.752 31.8848 153.618 31.9648C153.512 32.0448 153.392 32.0981 153.258 32.1248H153.218C152.952 32.1781 152.698 32.2048 152.458 32.2048C152.165 32.1248 151.845 31.9248 151.498 31.6048C151.152 31.2848 150.912 30.9514 150.778 30.6048C150.752 30.4448 150.738 30.2448 150.738 30.0048C150.738 28.0314 151.938 23.6181 154.338 16.7648C156.072 11.9914 157.832 7.75143 159.618 4.04477C160.392 2.47143 160.912 1.60477 161.178 1.44477C161.338 1.39143 161.485 1.28477 161.618 1.12477C161.752 0.964766 161.858 0.884766 161.938 0.884766C161.992 0.884766 162.032 0.938099 162.058 1.04477C162.058 1.0981 162.032 1.19143 161.978 1.32477C161.925 1.43143 161.898 1.5381 161.898 1.64477C161.898 1.7781 161.965 1.91143 162.098 2.04477C162.258 2.1781 162.365 2.24477 162.418 2.24477C162.472 2.24477 162.498 2.20477 162.498 2.12477C162.525 2.04477 162.552 2.00477 162.578 2.00477C162.605 2.00477 162.658 2.07143 162.738 2.20477C162.845 2.31143 162.965 2.36477 163.098 2.36477L163.218 2.32477C163.272 2.32477 163.352 2.39143 163.458 2.52477C163.592 2.6581 163.712 2.84477 163.818 3.08477C163.925 3.2981 163.978 3.48477 163.978 3.64477C163.978 3.8581 163.898 4.16477 163.738 4.56477C163.552 4.8581 163.458 5.04477 163.458 5.12477C163.458 5.20477 163.485 5.24477 163.538 5.24477C163.618 5.24477 163.712 5.20477 163.818 5.12477C163.952 5.04477 164.072 5.00477 164.178 5.00477C164.365 5.00477 164.565 5.08477 164.778 5.24477C165.018 5.40477 165.138 5.67143 165.138 6.04477L165.058 7.00477C164.898 8.52477 164.765 9.5781 164.658 10.1648C164.525 11.1514 164.432 12.0048 164.378 12.7248L164.218 14.6848C164.165 15.0314 164.125 15.3914 164.098 15.7648C164.045 16.6714 163.978 17.4314 163.898 18.0448C163.765 19.7514 163.618 22.8181 163.458 27.2448C164.445 23.8848 165.178 21.4714 165.658 20.0048C167.072 15.7648 168.552 11.8981 170.098 8.40477C171.885 4.35143 173.085 2.32477 173.698 2.32477C173.778 2.32477 173.818 2.39143 173.818 2.52477L173.778 2.92477C173.778 3.16477 173.845 3.3381 173.978 3.44477C174.112 3.52477 174.232 3.56477 174.338 3.56477C174.445 3.56477 174.538 3.52477 174.618 3.44477C174.698 3.3381 174.752 3.28477 174.778 3.28477H174.818L174.698 3.76477V3.80477L174.858 3.72477C174.992 3.56477 175.152 3.48477 175.338 3.48477C175.365 3.48477 175.432 3.4981 175.538 3.52477C175.672 3.52477 175.818 3.6181 175.978 3.80477C176.138 3.96477 176.232 4.12477 176.258 4.28477C176.258 4.44477 176.178 4.71143 176.018 5.08477C175.885 5.4581 175.632 6.03143 175.258 6.80477C174.805 7.76477 174.298 8.8981 173.738 10.2048C173.178 11.5114 172.685 12.7114 172.258 13.8048C171.832 14.8714 171.605 15.4714 171.578 15.6048C171.578 15.7381 171.538 15.8448 171.458 15.9248C171.405 16.0048 171.338 16.0448 171.258 16.0448C171.072 16.1514 170.725 16.8181 170.218 18.0448C169.738 19.2714 169.192 20.8048 168.578 22.6448C167.965 24.4581 167.405 26.2848 166.898 28.1248C166.712 28.8181 166.578 29.3114 166.498 29.6048C166.418 29.9248 166.378 30.1648 166.378 30.3248C166.378 30.5648 166.418 30.7248 166.498 30.8048C166.792 31.1248 166.938 31.4714 166.938 31.8448C166.938 31.9514 166.898 32.1648 166.818 32.4848C166.765 32.8048 166.485 32.9914 165.978 33.0448C165.605 33.0981 165.365 33.1781 165.258 33.2848C165.152 33.3914 164.965 33.4448 164.698 33.4448Z" fill="#F8F8F8"/>
<path d="M141.689 33.165C141.582 33.165 141.529 33.125 141.529 33.045C141.529 32.9917 141.555 32.925 141.609 32.845C141.662 32.765 141.742 32.6983 141.849 32.645C141.929 32.6183 141.969 32.5917 141.969 32.565C141.969 32.5383 141.835 32.525 141.569 32.525L141.369 32.565C141.262 32.565 141.129 32.525 140.969 32.445C140.809 32.3917 140.422 32.0983 139.809 31.565L140.289 31.125C140.795 30.645 141.889 30.0717 143.569 29.405C144.155 29.1917 144.475 29.045 144.529 28.965C144.582 28.8583 144.609 28.7383 144.609 28.605C144.609 27.9383 145.022 26.2183 145.849 23.445C147.715 17.0717 149.662 11.885 151.689 7.885C152.355 6.525 152.689 5.765 152.689 5.605C152.689 5.57833 152.675 5.565 152.649 5.565L152.569 5.605C152.489 5.65833 152.369 5.69833 152.209 5.725C152.075 5.75167 151.955 5.77833 151.849 5.805C151.609 5.85833 151.489 5.925 151.489 6.005V6.045C151.489 6.09833 151.355 6.15167 151.089 6.205C150.689 6.285 150.209 6.325 149.649 6.325C149.595 6.325 149.555 6.31167 149.529 6.285V6.245L149.689 5.965C149.822 5.85833 149.889 5.77833 149.889 5.725C149.889 5.69833 149.782 5.685 149.569 5.685C149.355 5.685 149.169 5.55166 149.009 5.285C148.795 5.07166 148.635 4.83167 148.529 4.565C148.475 4.485 148.449 4.39167 148.449 4.285C148.449 4.17833 148.742 4.005 149.329 3.765C149.622 3.605 149.969 3.445 150.369 3.285C151.409 2.83167 153.142 2.37833 155.569 1.925C158.635 1.39167 160.809 1.125 162.089 1.125C162.542 1.125 162.862 1.15167 163.049 1.205L163.329 1.325C163.329 1.35167 163.249 1.365 163.089 1.365H162.009L161.209 1.405C160.862 1.43167 160.689 1.45833 160.689 1.485C160.689 1.51167 160.942 1.53833 161.449 1.565C161.982 1.59167 162.395 1.67167 162.689 1.805C162.982 1.91167 163.235 2.09833 163.449 2.365C163.742 2.65833 163.929 2.83167 164.009 2.885C164.249 3.125 164.369 3.27167 164.369 3.325C164.369 3.37833 164.182 3.445 163.809 3.525C163.435 3.57833 162.955 3.63167 162.369 3.685C161.782 3.73833 161.009 3.83167 160.049 3.965C157.809 4.33833 156.315 4.61833 155.569 4.805C155.409 4.85833 155.329 4.93833 155.329 5.045C155.329 5.125 155.382 5.165 155.489 5.165C155.622 5.165 155.755 5.245 155.889 5.405C156.022 5.565 156.142 5.73833 156.249 5.925C156.382 6.11167 156.449 6.25833 156.449 6.365C156.449 6.445 156.315 6.805 156.049 7.445C155.435 9.01833 154.809 10.485 154.169 11.845L153.809 12.605C153.355 13.6183 153.049 14.3517 152.889 14.805C152.729 15.2583 152.595 15.485 152.489 15.485H152.449L152.489 15.645C152.489 15.6717 152.475 15.725 152.449 15.805C152.422 15.885 152.382 15.9783 152.329 16.085C152.275 16.165 152.222 16.245 152.169 16.325C152.142 16.3783 152.129 16.4183 152.129 16.445C152.155 16.445 152.169 16.4583 152.169 16.485C152.169 16.5917 152.075 16.7917 151.889 17.085C151.782 17.2183 151.702 17.3517 151.649 17.485V17.645C151.675 17.645 151.689 17.6583 151.689 17.685L151.489 18.045C151.115 18.7917 150.675 19.925 150.169 21.445L149.929 21.925C149.849 22.1117 149.675 22.6183 149.409 23.445L148.089 27.685L148.049 28.045C148.075 28.0717 148.115 28.085 148.169 28.085C148.222 28.085 148.302 28.0717 148.409 28.045C148.515 27.9917 148.729 27.9517 149.049 27.925C149.609 27.845 149.955 27.805 150.089 27.805C150.169 27.805 150.209 27.8183 150.209 27.845C150.209 27.8717 149.955 27.9383 149.449 28.045C149.369 28.045 149.302 28.0583 149.249 28.085C148.289 28.325 147.809 28.485 147.809 28.565L148.329 28.525C148.622 28.4717 149.355 28.4183 150.529 28.365C150.982 28.3117 151.329 28.285 151.569 28.285C152.022 28.285 152.302 28.365 152.409 28.525C152.515 28.685 152.715 28.765 153.009 28.765C153.329 28.765 153.555 28.8717 153.689 29.085L153.769 29.365C153.742 29.3917 153.595 29.405 153.329 29.405C153.089 29.405 152.515 29.5117 151.609 29.725C149.209 30.3383 147.822 30.7783 147.449 31.045C147.315 31.1783 147.142 31.245 146.929 31.245C146.742 31.245 146.609 31.2983 146.529 31.405C146.475 31.5117 146.422 31.5783 146.369 31.605H146.169C145.929 31.605 144.609 32.085 142.209 33.045C141.995 33.125 141.822 33.165 141.689 33.165Z" fill="#F8F8F8"/>
<path d="M129.727 31.3653C129.78 31.3119 129.807 31.2586 129.807 31.2053C129.807 31.0719 129.78 31.0053 129.727 31.0053C129.673 31.0053 129.647 31.0586 129.647 31.1653C129.647 31.2986 129.66 31.3653 129.687 31.3653H129.727ZM149.567 4.80527L149.527 4.64527C149.073 3.60527 147.847 2.81861 145.847 2.28527C144.327 1.88527 142.62 1.68527 140.727 1.68527H139.767C138.193 1.79194 137.407 1.85861 137.407 1.88527C137.407 1.91194 137.793 1.92527 138.567 1.92527H139.527C141.607 1.92527 143.3 2.07194 144.607 2.36527C145.94 2.65861 147.18 3.20527 148.327 4.00527C149.127 4.53861 149.54 4.80527 149.567 4.80527ZM149.527 9.48527C149.58 9.48527 149.687 9.32527 149.847 9.00527C149.9 8.92527 149.94 8.81861 149.967 8.68527C150.02 8.55194 150.047 8.45861 150.047 8.40527L150.007 8.36527C149.953 8.36527 149.86 8.53861 149.727 8.88528C149.593 9.20528 149.527 9.39194 149.527 9.44527V9.48527ZM150.327 7.76527L150.407 7.08527C150.407 6.79194 150.34 6.52528 150.207 6.28527C150.1 6.01861 150.033 5.88527 150.007 5.88527C149.98 5.88527 149.967 5.92527 149.967 6.00527C149.967 6.16527 150.007 6.47194 150.087 6.92527L150.127 7.08527L150.327 7.76527ZM130.367 33.2053L129.967 33.0053C129.727 32.8986 129.607 32.6853 129.607 32.3653V31.4853C129.447 32.1519 129.367 32.5519 129.367 32.6853V33.0053L129.407 33.1653C129.407 33.1919 129.38 33.2053 129.327 33.2053L128.567 32.8053C128.113 32.6186 127.887 32.2453 127.887 31.6853C127.887 30.8853 128.3 29.1919 129.127 26.6053C129.313 25.9386 129.46 25.4719 129.567 25.2053L129.607 25.0853C129.607 25.0319 129.58 25.0053 129.527 25.0053H129.327C129.06 25.0053 128.727 24.8053 128.327 24.4053C128.113 24.2453 128.007 24.1253 128.007 24.0453C128.007 23.8853 128.14 23.7786 128.407 23.7253C128.647 23.6453 128.767 23.5786 128.767 23.5253C128.767 23.4719 128.82 23.4053 128.927 23.3253C129.033 23.2453 129.58 22.9119 130.567 22.3253L131.247 20.4453C132.5 16.9786 133.78 13.8719 135.087 11.1253C136.393 8.37861 137.447 6.55194 138.247 5.64527C138.54 5.32527 138.727 5.16528 138.807 5.16528C138.833 5.16528 138.847 5.19194 138.847 5.24527L138.767 5.72528C138.767 5.85861 138.9 6.04527 139.167 6.28527L139.567 6.48527C139.7 6.48527 139.793 6.45861 139.847 6.40527C139.9 6.35194 139.953 6.32527 140.007 6.32527C140.087 6.32527 140.18 6.37861 140.287 6.48527C140.42 6.59194 140.513 6.68527 140.567 6.76527C140.647 6.84527 140.687 6.89861 140.687 6.92527C140.687 7.05861 140.34 7.81861 139.647 9.20527C137.94 12.7519 137.087 14.5786 137.087 14.6853C137.087 14.7653 136.967 15.0453 136.727 15.5253C136.007 17.0986 135.527 18.2053 135.287 18.8453L135.207 19.2053C135.233 19.2053 135.713 18.9253 136.647 18.3653C144.807 12.7386 148.887 8.61861 148.887 6.00527C148.887 5.63194 148.82 5.37861 148.687 5.24527C148.553 5.11194 148.34 4.96527 148.047 4.80527C147.567 4.56527 147.18 4.44527 146.887 4.44527C146.593 4.44527 146.407 4.40527 146.327 4.32527C146.22 4.13861 144.74 4.00527 141.887 3.92527H140.967C139.073 3.92527 137.673 4.07194 136.767 4.36527L136.247 4.56527C136.46 4.64527 136.647 4.73861 136.807 4.84527C136.993 4.95194 137.14 5.04527 137.247 5.12527C137.353 5.20527 137.407 5.27194 137.407 5.32527C137.407 5.35194 137.433 5.36527 137.487 5.36527C137.54 5.36527 137.58 5.36527 137.607 5.36527L137.887 5.32527C137.887 5.45861 137.793 5.52527 137.607 5.52527C137.26 5.52527 136.793 5.44527 136.207 5.28527C135.007 5.04527 134.18 4.57861 133.727 3.88527C133.593 3.72527 133.527 3.60527 133.527 3.52527C133.527 3.33861 133.727 3.09861 134.127 2.80527C134.553 2.48527 135.02 2.23194 135.527 2.04527C136.753 1.61861 138.42 1.40527 140.527 1.40527C143.06 1.40527 145.273 1.77861 147.167 2.52527C148.153 2.95194 148.82 3.40527 149.167 3.88527C150.527 5.75194 151.207 7.07194 151.207 7.84527L151.167 8.16527C150.74 11.5786 145.18 16.6053 134.487 23.2453C134.087 23.4853 133.793 23.6853 133.607 23.8453C133.42 23.9786 133.273 24.1253 133.167 24.2853C132.82 24.8719 132.34 26.2186 131.727 28.3253C131.353 29.5253 130.9 31.1519 130.367 33.2053Z" fill="#F8F8F8"/>
<path d="M114.688 31.3653C114.741 31.3119 114.768 31.2586 114.768 31.2053C114.768 31.0719 114.741 31.0053 114.688 31.0053C114.634 31.0053 114.608 31.0586 114.608 31.1653C114.608 31.2986 114.621 31.3653 114.648 31.3653H114.688ZM134.528 4.80527L134.488 4.64527C134.034 3.60527 132.808 2.81861 130.808 2.28527C129.288 1.88527 127.581 1.68527 125.688 1.68527H124.728C123.154 1.79194 122.368 1.85861 122.368 1.88527C122.368 1.91194 122.754 1.92527 123.528 1.92527H124.488C126.568 1.92527 128.261 2.07194 129.568 2.36527C130.901 2.65861 132.141 3.20527 133.288 4.00527C134.088 4.53861 134.501 4.80527 134.528 4.80527ZM134.488 9.48527C134.541 9.48527 134.648 9.32527 134.808 9.00527C134.861 8.92527 134.901 8.81861 134.928 8.68527C134.981 8.55194 135.008 8.45861 135.008 8.40527L134.968 8.36527C134.914 8.36527 134.821 8.53861 134.688 8.88528C134.554 9.20528 134.488 9.39194 134.488 9.44527V9.48527ZM135.288 7.76527L135.368 7.08527C135.368 6.79194 135.301 6.52528 135.168 6.28527C135.061 6.01861 134.994 5.88527 134.968 5.88527C134.941 5.88527 134.928 5.92527 134.928 6.00527C134.928 6.16527 134.968 6.47194 135.048 6.92527L135.088 7.08527L135.288 7.76527ZM115.328 33.2053L114.928 33.0053C114.688 32.8986 114.568 32.6853 114.568 32.3653V31.4853C114.408 32.1519 114.328 32.5519 114.328 32.6853V33.0053L114.368 33.1653C114.368 33.1919 114.341 33.2053 114.288 33.2053L113.528 32.8053C113.074 32.6186 112.848 32.2453 112.848 31.6853C112.848 30.8853 113.261 29.1919 114.088 26.6053C114.274 25.9386 114.421 25.4719 114.528 25.2053L114.568 25.0853C114.568 25.0319 114.541 25.0053 114.488 25.0053H114.288C114.021 25.0053 113.688 24.8053 113.288 24.4053C113.074 24.2453 112.968 24.1253 112.968 24.0453C112.968 23.8853 113.101 23.7786 113.368 23.7253C113.608 23.6453 113.728 23.5786 113.728 23.5253C113.728 23.4719 113.781 23.4053 113.888 23.3253C113.994 23.2453 114.541 22.9119 115.528 22.3253L116.208 20.4453C117.461 16.9786 118.741 13.8719 120.048 11.1253C121.354 8.37861 122.408 6.55194 123.208 5.64527C123.501 5.32527 123.688 5.16528 123.768 5.16528C123.794 5.16528 123.808 5.19194 123.808 5.24527L123.728 5.72528C123.728 5.85861 123.861 6.04527 124.128 6.28527L124.528 6.48527C124.661 6.48527 124.754 6.45861 124.808 6.40527C124.861 6.35194 124.914 6.32527 124.968 6.32527C125.048 6.32527 125.141 6.37861 125.248 6.48527C125.381 6.59194 125.474 6.68527 125.528 6.76527C125.608 6.84527 125.648 6.89861 125.648 6.92527C125.648 7.05861 125.301 7.81861 124.608 9.20527C122.901 12.7519 122.048 14.5786 122.048 14.6853C122.048 14.7653 121.928 15.0453 121.688 15.5253C120.968 17.0986 120.488 18.2053 120.248 18.8453L120.168 19.2053C120.194 19.2053 120.674 18.9253 121.608 18.3653C129.768 12.7386 133.848 8.61861 133.848 6.00527C133.848 5.63194 133.781 5.37861 133.648 5.24527C133.514 5.11194 133.301 4.96527 133.008 4.80527C132.528 4.56527 132.141 4.44527 131.848 4.44527C131.554 4.44527 131.368 4.40527 131.288 4.32527C131.181 4.13861 129.701 4.00527 126.848 3.92527H125.928C124.034 3.92527 122.634 4.07194 121.728 4.36527L121.208 4.56527C121.421 4.64527 121.608 4.73861 121.768 4.84527C121.954 4.95194 122.101 5.04527 122.208 5.12527C122.314 5.20527 122.368 5.27194 122.368 5.32527C122.368 5.35194 122.394 5.36527 122.448 5.36527C122.501 5.36527 122.541 5.36527 122.568 5.36527L122.848 5.32527C122.848 5.45861 122.754 5.52527 122.568 5.52527C122.221 5.52527 121.754 5.44527 121.168 5.28527C119.968 5.04527 119.141 4.57861 118.688 3.88527C118.554 3.72527 118.488 3.60527 118.488 3.52527C118.488 3.33861 118.688 3.09861 119.088 2.80527C119.514 2.48527 119.981 2.23194 120.488 2.04527C121.714 1.61861 123.381 1.40527 125.488 1.40527C128.021 1.40527 130.234 1.77861 132.128 2.52527C133.114 2.95194 133.781 3.40527 134.128 3.88527C135.488 5.75194 136.168 7.07194 136.168 7.84527L136.128 8.16527C135.701 11.5786 130.141 16.6053 119.448 23.2453C119.048 23.4853 118.754 23.6853 118.568 23.8453C118.381 23.9786 118.234 24.1253 118.128 24.2853C117.781 24.8719 117.301 26.2186 116.688 28.3253C116.314 29.5253 115.861 31.1519 115.328 33.2053Z" fill="#F8F8F8"/>
<path d="M101.147 29.7254C101.28 29.6987 101.667 29.5387 102.307 29.2454C103.427 28.5787 104.707 27.4587 106.147 25.8854C107.587 24.312 108.787 22.6987 109.747 21.0454C111.347 18.192 112.547 15.3654 113.347 12.5654C113.907 10.5654 114.187 8.84535 114.187 7.40535C114.187 6.84535 114.147 6.33868 114.067 5.88535C114.014 5.53868 113.934 5.29869 113.827 5.16535C113.747 5.03202 113.574 4.95202 113.307 4.92535C113.067 4.87202 112.76 4.84535 112.387 4.84535C111.4 4.89868 110.88 5.03202 110.827 5.24535C110.827 5.35202 110.68 5.64535 110.387 6.12535C110.094 6.60535 109.947 6.88535 109.947 6.96535C109.84 7.25868 109.747 7.40535 109.667 7.40535C109.64 7.40535 109.627 7.39202 109.627 7.36535C109.627 7.31202 109.627 7.27202 109.627 7.24535L109.707 6.68535C109.654 6.71202 109.387 7.07202 108.907 7.76535C109.094 7.07202 109.32 6.47202 109.587 5.96535C109.667 5.80535 109.72 5.67202 109.747 5.56535C109.747 5.51202 109.734 5.48535 109.707 5.48535C109.627 5.48535 109.44 5.81868 109.147 6.48535C108.854 7.15202 108.614 7.59202 108.427 7.80535L108.147 8.12535L108.187 7.88535C108.08 7.88535 107.747 8.41868 107.187 9.48535C106.974 9.85868 106.774 10.2187 106.587 10.5654C106.427 10.8854 106.307 11.0987 106.227 11.2054C105.347 12.832 104.667 14.2587 104.187 15.4854C103.947 16.0454 103.827 16.392 103.827 16.5254V16.5654C103.827 16.6187 103.814 16.6587 103.787 16.6854C103.787 16.712 103.76 16.7254 103.707 16.7254C103.494 17.0454 103.267 17.5254 103.027 18.1654C102.814 18.7787 102.707 19.152 102.707 19.2854C102.707 19.312 102.707 19.3254 102.707 19.3254H102.747L102.707 19.3654C102.467 19.552 102.347 19.792 102.347 20.0854C102.294 20.352 102.24 20.4854 102.187 20.4854C102.16 20.4854 102.12 20.552 102.067 20.6854C101.96 20.9787 101.854 21.3654 101.747 21.8454L101.627 22.3654C101.6 22.4187 101.587 22.512 101.587 22.6454C101.587 22.752 101.547 22.8054 101.467 22.8054C101.387 22.8054 101.28 23.0187 101.147 23.4454C101.067 24.0054 100.987 24.4187 100.907 24.6854C100.747 25.4054 100.627 25.9787 100.547 26.4054C100.494 26.8054 100.467 27.2854 100.467 27.8454C100.467 28.6187 100.494 29.1254 100.547 29.3654C100.6 29.6054 100.707 29.7254 100.867 29.7254H101.147ZM106.467 3.64535C106.494 3.64535 106.547 3.63202 106.627 3.60535C106.734 3.55202 106.814 3.48535 106.867 3.40535C106.867 3.37868 106.854 3.36535 106.827 3.36535C106.8 3.33868 106.76 3.32535 106.707 3.32535C106.654 3.35202 106.587 3.40535 106.507 3.48535C106.454 3.53868 106.427 3.57868 106.427 3.60535V3.64535C106.427 3.64535 106.44 3.64535 106.467 3.64535ZM108.747 2.16535C108.8 2.16535 108.894 2.15202 109.027 2.12535C109.16 2.07202 109.227 2.01868 109.227 1.96535C109.227 1.91202 109.187 1.87202 109.107 1.84535C108.974 1.84535 108.867 1.89868 108.787 2.00535C108.734 2.08535 108.707 2.13868 108.707 2.16535H108.747ZM109.947 6.36535C110.08 6.25868 110.147 6.12535 110.147 5.96535C110.147 5.91202 110.134 5.88535 110.107 5.88535C110.107 5.85868 110.094 5.84535 110.067 5.84535L109.987 5.88535C109.854 5.99202 109.787 6.12535 109.787 6.28535C109.787 6.33868 109.84 6.36535 109.947 6.36535ZM113.187 4.48535C113.374 4.48535 113.467 4.47202 113.467 4.44535C113.467 4.41868 113.44 4.39202 113.387 4.36535C113.36 4.33868 113.307 4.32535 113.227 4.32535C113.147 4.32535 113.08 4.33868 113.027 4.36535C112.974 4.39202 112.947 4.41868 112.947 4.44535C112.947 4.47202 113.027 4.48535 113.187 4.48535ZM114.107 3.48535C114.16 3.48535 114.187 3.45868 114.187 3.40535L114.027 3.08535C113.574 2.41868 112.76 2.08535 111.587 2.08535C110.92 2.08535 110.4 2.12535 110.027 2.20535C109.654 2.25868 109.467 2.32535 109.467 2.40535C109.467 2.48535 109.787 2.52535 110.427 2.52535L110.907 2.48535C111.494 2.48535 112.107 2.65868 112.747 3.00535C113.254 3.19202 113.587 3.32535 113.747 3.40535C113.934 3.45868 114.054 3.48535 114.107 3.48535ZM115.907 7.44535L115.867 6.80535C115.84 6.59202 115.774 6.33868 115.667 6.04535C115.427 5.35202 115.227 5.00535 115.067 5.00535V5.04535C115.067 5.15202 115.187 5.57868 115.427 6.32535C115.694 7.07202 115.854 7.44535 115.907 7.44535ZM115.067 13.4454L115.187 13.0454C115.267 12.7787 115.347 12.432 115.427 12.0054C115.534 11.5787 115.627 11.112 115.707 10.6054C115.787 10.0987 115.854 9.61868 115.907 9.16535C115.96 8.71202 115.987 8.35202 115.987 8.08535C115.987 7.89868 115.974 7.80535 115.947 7.80535L115.907 7.84535C115.747 8.24535 115.667 8.76535 115.667 9.40535L115.547 10.6454C115.414 11.4987 115.267 12.2054 115.107 12.7654C115.054 13.0054 115.027 13.192 115.027 13.3254C115.027 13.4054 115.04 13.4454 115.067 13.4454ZM101.187 30.3654C101.427 30.3654 101.947 30.112 102.747 29.6054L103.467 29.1254C103.6 29.0187 103.694 28.9254 103.747 28.8454C103.587 28.8454 103.267 28.992 102.787 29.2854C102.307 29.6054 101.827 29.8454 101.347 30.0054C101.054 30.0587 100.907 30.1254 100.907 30.2054L100.987 30.2854C101.014 30.3387 101.08 30.3654 101.187 30.3654ZM101.587 32.2454C101.667 32.2454 101.774 32.232 101.907 32.2054C102.067 32.1787 102.227 32.1387 102.387 32.0854C102.547 32.0587 102.627 32.0454 102.627 32.0454C102.654 32.0454 102.667 32.032 102.667 32.0054C102.667 31.9787 102.56 31.9654 102.347 31.9654C102.027 31.9654 101.8 32.0054 101.667 32.0854C101.56 32.1654 101.507 32.2187 101.507 32.2454H101.587ZM102.387 32.6854H102.107C101.36 32.6854 100.534 32.4187 99.627 31.8854C98.4004 31.192 97.587 30.472 97.187 29.7254C96.867 29.0854 96.707 28.192 96.707 27.0454C96.707 25.472 96.947 23.832 97.427 22.1254C98.1204 19.5654 99.267 16.6587 100.867 13.4054C101.534 12.072 102.36 10.4987 103.347 8.68535C103.16 8.49868 102.974 8.33868 102.787 8.20535C102.627 8.04535 102.494 7.89868 102.387 7.76535C102.307 7.60535 102.267 7.47202 102.267 7.36535C102.267 7.23202 102.36 7.01868 102.547 6.72535C103.107 5.84535 103.747 5.11202 104.467 4.52535C104.867 4.17868 105.44 3.79202 106.187 3.36535C107.574 2.48535 108.36 1.95202 108.547 1.76535C108.734 1.57868 108.894 1.48535 109.027 1.48535C109.107 1.48535 109.187 1.52535 109.267 1.60535C109.587 1.68535 110.214 1.72535 111.147 1.72535C111.814 1.72535 112.307 1.76535 112.627 1.84535C112.974 1.92535 113.32 2.15202 113.667 2.52535C114.04 2.87202 114.52 3.43202 115.107 4.20535C115.72 4.97868 116.134 5.55202 116.347 5.92535C116.694 6.56535 116.867 7.51202 116.867 8.76535C116.867 10.552 116.427 12.8587 115.547 15.6854C114.667 18.4854 113.227 21.4587 111.227 24.6054C110.507 25.6454 109.52 26.8854 108.267 28.3254C107.014 29.7654 106.027 30.7654 105.307 31.3254C104.16 32.152 103.187 32.6054 102.387 32.6854Z" fill="#F8F8F8"/>
<path d="M84.7233 19.4055C84.8566 19.4055 86.1366 18.5922 88.5633 16.9655C89.39 16.3522 90.1233 15.8589 90.7633 15.4855L92.8833 13.9655C97.4433 10.7389 99.9366 8.20555 100.363 6.36555L100.403 6.12555C100.403 5.99221 100.377 5.88555 100.323 5.80555C100.27 5.72555 100.097 5.61888 99.8033 5.48555C98.87 5.11221 97.5233 4.81888 95.7633 4.60555C94.4833 4.44555 93.2299 4.36555 92.0033 4.36555C91.3366 4.36555 90.27 4.43221 88.8033 4.56555C88.8833 4.72555 88.9633 4.92555 89.0433 5.16555C89.1499 5.37888 89.2166 5.49888 89.2433 5.52555C89.27 5.52555 89.2966 5.52555 89.3233 5.52555C89.3766 5.52555 89.4433 5.44555 89.5233 5.28555C89.63 5.12555 89.7099 5.04555 89.7633 5.04555C89.8166 5.07221 89.9099 5.20555 90.0433 5.44555L90.0833 5.48555C90.2433 5.67221 90.3233 5.85888 90.3233 6.04555C90.3233 6.44555 89.9366 7.51221 89.1633 9.24555C86.3633 15.5922 84.8833 18.9789 84.7233 19.4055ZM88.5633 2.12555C88.8033 2.12555 88.9233 2.09888 88.9233 2.04555L88.8033 2.00555C88.75 1.97888 88.67 1.96555 88.5633 1.96555C88.4566 1.96555 88.3766 1.97888 88.3233 2.00555L88.2033 2.04555C88.2033 2.09888 88.3233 2.12555 88.5633 2.12555ZM101.243 5.36555C101.27 5.36555 101.283 5.33888 101.283 5.28555C101.283 5.12555 101.137 4.73888 100.843 4.12555C100.817 4.12555 100.803 4.11221 100.803 4.08555C100.403 3.63221 99.5899 3.20555 98.3633 2.80555C96.4166 2.19221 94.1633 1.88555 91.6033 1.88555C91.3633 1.88555 91.2433 1.89888 91.2433 1.92555C91.2433 2.00555 91.4833 2.04555 91.9633 2.04555C95.2166 2.25888 97.5766 2.77888 99.0433 3.60555C99.7366 3.95221 100.243 4.33888 100.563 4.76555C100.91 5.16555 101.137 5.36555 101.243 5.36555ZM100.243 10.2455L100.283 10.2055C100.523 10.0455 100.817 9.63221 101.163 8.96555C101.537 8.27221 101.723 7.61888 101.723 7.00555C101.723 6.76555 101.67 6.60555 101.563 6.52555H101.523C101.443 6.52555 101.403 6.76555 101.403 7.24555C101.403 8.01888 101.083 8.89888 100.443 9.88555C100.337 10.0455 100.27 10.1522 100.243 10.2055V10.2455ZM85.9633 23.4855C86.4166 23.4855 86.6433 23.4722 86.6433 23.4455L86.5233 23.4055C86.3366 23.3522 86.15 23.3255 85.9633 23.3255C85.7766 23.3255 85.63 23.3389 85.5233 23.3655L85.3233 23.4055C85.3233 23.4589 85.5366 23.4855 85.9633 23.4855ZM79.2433 32.9655C79.2166 32.9655 79.2033 32.9389 79.2033 32.8855C79.1766 32.8322 79.15 32.7789 79.1233 32.7255C79.0966 32.6722 79.0566 32.6455 79.0033 32.6455C78.9499 32.6455 78.8433 32.5922 78.6833 32.4855C78.4966 32.3789 78.2966 32.2455 78.0833 32.0855C77.8433 31.9255 77.6033 31.7522 77.3633 31.5655C77.4166 31.2455 77.4566 30.9389 77.4833 30.6455C77.51 30.3522 77.5899 29.9389 77.7233 29.4055C77.8299 28.8989 77.9633 28.3789 78.1233 27.8455L78.6433 26.0455C78.0299 25.2722 77.7233 24.7789 77.7233 24.5655C77.7233 24.4589 77.7766 24.4055 77.8833 24.4055C77.9633 24.4055 78.1099 24.2989 78.3233 24.0855C78.4566 23.8189 78.7233 23.5522 79.1233 23.2855C79.31 23.1522 79.47 23.0055 79.6033 22.8455C79.8433 22.4989 80.15 21.7789 80.5233 20.6855C82.4966 15.3789 84.5766 10.6055 86.7633 6.36555L87.5633 4.76555L87.4433 4.72555C87.3099 4.72555 86.67 4.85888 85.5233 5.12555C85.2833 5.17888 85.1366 5.20555 85.0833 5.20555C85.0566 5.20555 85.0433 5.21888 85.0433 5.24555C85.0433 5.27221 85.0833 5.32555 85.1633 5.40555C85.35 5.59221 85.4433 5.69888 85.4433 5.72555C85.4433 5.75221 85.4033 5.76555 85.3233 5.76555C85.27 5.76555 85.2433 5.77888 85.2433 5.80555C85.2433 5.83221 85.2833 5.85888 85.3633 5.88555C85.4699 5.91221 85.5233 5.93888 85.5233 5.96555C85.5233 5.99221 85.4699 6.00555 85.3633 6.00555C85.2566 6.00555 85.0833 6.00555 84.8433 6.00555C84.6033 5.97888 84.3766 5.95221 84.1633 5.92555C83.9766 5.87221 83.8433 5.80555 83.7633 5.72555C83.6833 5.64555 83.5366 5.57888 83.3233 5.52555L83.2433 5.48555C83.0833 5.40555 82.8966 5.27221 82.6833 5.08555C82.4966 4.89888 82.3233 4.69888 82.1633 4.48555C82.0033 4.24555 81.9233 4.05888 81.9233 3.92555C81.9233 3.71221 82.2566 3.41888 82.9233 3.04555C84.55 2.13888 87.07 1.68555 90.4833 1.68555C96.8833 1.68555 100.497 2.72555 101.323 4.80555L101.763 6.00555L101.883 6.24555C102.177 6.88555 102.323 7.49888 102.323 8.08555C102.323 8.59221 102.217 9.08555 102.003 9.56555C101.097 12.2055 96.15 16.3389 87.1633 21.9655C86.31 22.4722 85.8833 22.7922 85.8833 22.9255L87.1233 23.0455C89.4966 23.2855 91.6166 23.5522 93.4833 23.8455C95.3766 24.1122 96.6033 24.3522 97.1633 24.5655L97.5633 24.7655L97.1633 24.6855C93.4566 23.9122 90.59 23.5255 88.5633 23.5255C87.95 23.5255 87.6433 23.5389 87.6433 23.5655L91.4033 24.0055C93.6966 24.3255 95.5899 24.7389 97.0833 25.2455C97.6433 25.4589 98.0433 25.6989 98.2833 25.9655C98.55 26.2322 98.7233 26.3655 98.8033 26.3655C98.8833 26.3655 98.99 26.4189 99.1233 26.5255C99.4433 26.8722 99.6033 27.1122 99.6033 27.2455C99.6033 27.2722 99.5366 27.2855 99.4033 27.2855C99.2699 27.2855 99.0966 27.2589 98.8833 27.2055C96.75 26.5922 93.5233 26.2855 89.2033 26.2855C87.0433 26.2855 85.1233 26.3522 83.4433 26.4855C82.5633 26.5655 82.0566 26.6722 81.9233 26.8055C81.79 26.9389 81.6966 27.0855 81.6433 27.2455C80.8699 29.4855 80.4166 30.9922 80.2833 31.7655C80.1766 32.3789 80.0966 32.6855 80.0433 32.6855H79.9633L79.8033 32.6455C79.6433 32.5389 79.5366 32.4855 79.4833 32.4855C79.4566 32.4855 79.4299 32.4855 79.4033 32.4855C79.3499 32.5122 79.31 32.5922 79.2833 32.7255L79.2433 32.9655Z" fill="#F8F8F8"/>
<path d="M64.4009 29.2455C64.4276 29.2455 64.6409 29.0855 65.0409 28.7655C72.5609 22.8455 77.9076 16.7389 81.0809 10.4455C81.9876 8.47221 82.4409 6.95221 82.4409 5.88555C82.4409 5.24555 82.2809 4.76555 81.9609 4.44555C81.4809 4.15221 80.6409 3.99221 79.4409 3.96555C78.0009 3.96555 76.6543 4.07221 75.4009 4.28555L74.2409 4.40555L72.1209 9.20555L71.2809 11.0455C70.9609 11.6855 70.8009 12.0589 70.8009 12.1655L69.6809 14.7255C69.6809 14.8322 69.6009 15.0455 69.4409 15.3655C68.9076 16.4322 68.1209 18.3789 67.0809 21.2055C66.2009 23.5522 65.4409 25.7255 64.8009 27.7255C64.6143 28.3389 64.4676 28.7655 64.3609 29.0055V29.0855C64.3609 29.1122 64.3609 29.1389 64.3609 29.1655C64.3609 29.2189 64.3743 29.2455 64.4009 29.2455ZM83.8409 7.92555C83.8676 7.92555 83.8943 7.77888 83.9209 7.48555L83.9609 7.16555C83.9609 6.79221 83.8943 6.44555 83.7609 6.12555C83.6543 5.77888 83.5876 5.60555 83.5609 5.60555C83.5343 5.60555 83.5209 5.65888 83.5209 5.76555C83.5209 5.95221 83.5609 6.35221 83.6409 6.96555C83.7476 7.55221 83.8143 7.87221 83.8409 7.92555ZM62.7609 31.1255L62.8009 31.0455C62.8276 30.9922 62.8409 30.9389 62.8409 30.8855C62.8409 30.6989 62.8143 30.6055 62.7609 30.6055C62.7343 30.6055 62.7209 30.6855 62.7209 30.8455C62.7209 31.0322 62.7343 31.1255 62.7609 31.1255ZM62.2409 32.6855C62.1076 32.6855 61.9076 32.6189 61.6409 32.4855C61.3476 32.3522 61.1609 32.2189 61.0809 32.0855C61.0009 31.9789 60.9609 31.8455 60.9609 31.6855C60.9609 31.3122 61.1076 30.5389 61.4009 29.3655C62.2276 26.1922 63.4409 22.3789 65.0409 17.9255C66.6676 13.4455 68.1076 9.92555 69.3609 7.36555C69.7343 6.59221 69.9209 6.11221 69.9209 5.92555V5.88555H69.8809C69.7743 5.88555 69.4409 6.08555 68.8809 6.48555C68.5609 6.67221 68.4009 6.85888 68.4009 7.04555C68.4009 7.09888 68.4143 7.15221 68.4409 7.20555C68.4676 7.25888 68.4809 7.29888 68.4809 7.32555C68.4809 7.37888 68.4676 7.40555 68.4409 7.40555C68.3876 7.40555 68.2676 7.32555 68.0809 7.16555C67.8943 7.00555 67.8009 6.80555 67.8009 6.56555L67.8409 6.32555C67.8409 6.27221 67.8276 6.24555 67.8009 6.24555C67.7743 6.24555 67.7076 6.29888 67.6009 6.40555C67.4943 6.51221 67.4409 6.61888 67.4409 6.72555C67.4409 6.80555 67.4809 6.91221 67.5609 7.04555C67.6409 7.15221 67.6809 7.23221 67.6809 7.28555C67.5209 7.28555 67.2676 7.08555 66.9209 6.68555C66.7076 6.49888 66.6009 6.36555 66.6009 6.28555C66.6009 6.20555 66.5209 6.08555 66.3609 5.92555C66.2543 5.92555 66.2009 5.84555 66.2009 5.68554V5.64555C66.2543 5.53888 66.3876 5.37888 66.6009 5.16555C66.8409 4.92555 67.0943 4.71221 67.3609 4.52555C67.6276 4.33888 67.8143 4.23221 67.9209 4.20555C68.1876 4.07221 68.3743 3.93888 68.4809 3.80555C68.6143 3.67221 68.7609 3.60555 68.9209 3.60555L69.0009 3.64555C69.0543 3.64555 69.0943 3.64555 69.1209 3.64555C69.1743 3.61888 69.2009 3.59221 69.2009 3.56555C69.2009 3.51221 69.2143 3.47221 69.2409 3.44555C69.3209 3.44555 69.3876 3.45888 69.4409 3.48555C69.5743 3.48555 69.6409 3.47221 69.6409 3.44555L69.5609 3.24555L69.9609 3.32555L69.9209 3.24555C69.9209 3.11221 70.2009 2.97888 70.7609 2.84555C70.9209 2.81888 71.1209 2.80555 71.3609 2.80555L71.5609 2.88555V2.84555L71.4809 2.76555C71.4276 2.73888 71.4009 2.71221 71.4009 2.68555C71.4009 2.60555 71.5743 2.53888 71.9209 2.48555C72.2676 2.43221 72.4676 2.33888 72.5209 2.20555C72.5743 2.04555 72.6143 1.96555 72.6409 1.96555C72.6943 1.96555 72.7343 2.00555 72.7609 2.08555C72.7876 2.16555 72.8676 2.20555 73.0009 2.20555C73.1343 2.20555 73.2943 2.17888 73.4809 2.12555C73.6676 2.07221 73.8543 2.01888 74.0409 1.96555L74.5209 1.92555C74.5209 1.95221 74.3476 2.01888 74.0009 2.12555C73.6809 2.23221 73.5209 2.29888 73.5209 2.32555L73.6409 2.28555C74.7076 2.17888 75.9343 2.12555 77.3209 2.12555C79.3743 2.12555 80.9076 2.55221 81.9209 3.40555L83.2009 4.28555L82.8809 3.72555C82.2143 2.57888 80.7743 1.96555 78.5609 1.88555C78.1343 1.83221 77.6943 1.80555 77.2409 1.80555C76.7876 1.80555 76.3743 1.83221 76.0009 1.88555C75.6276 1.93888 75.3609 1.96555 75.2009 1.96555C75.0676 1.96555 75.0009 1.95221 75.0009 1.92555L75.0809 1.84555C75.1076 1.81888 75.3476 1.79221 75.8009 1.76555C76.2809 1.71221 76.8543 1.68555 77.5209 1.68555C78.4276 1.68555 79.1076 1.71221 79.5609 1.76555C81.3743 1.97888 82.6009 2.73888 83.2409 4.04555C83.6943 4.95221 84.0143 5.61888 84.2009 6.04555C84.4143 6.47221 84.5343 6.81888 84.5609 7.08555C84.6143 7.32555 84.6409 7.65888 84.6409 8.08555C84.5343 10.5655 83.1743 13.6189 80.5609 17.2455C77.9743 20.8455 74.5076 24.4989 70.1609 28.2055C67.5743 30.3655 65.9476 31.4455 65.2809 31.4455C65.2276 31.4455 65.1743 31.4322 65.1209 31.4055C65.0676 31.3789 64.9609 31.3522 64.8009 31.3255C64.6409 31.2989 64.4676 31.2855 64.2809 31.2855C64.0143 31.2855 63.8409 31.3122 63.7609 31.3655C63.6809 31.4189 63.6409 31.5122 63.6409 31.6455C63.6409 31.9389 63.6276 32.1122 63.6009 32.1655C63.5743 32.2189 63.5609 32.2722 63.5609 32.3255C63.5609 32.4055 63.5476 32.4589 63.5209 32.4855C63.5209 32.5389 63.4809 32.5655 63.4009 32.5655C63.0276 32.5655 62.7876 32.3255 62.6809 31.8455L62.6009 31.2855L62.5609 31.8455C62.5609 32.4055 62.4543 32.6855 62.2409 32.6855Z" fill="#F8F8F8"/>
<path d="M55.0186 17.4457C55.2586 17.4457 55.3786 17.419 55.3786 17.3657C55.3786 17.339 55.2586 17.3257 55.0186 17.3257C54.7786 17.3257 54.6586 17.339 54.6586 17.3657C54.6586 17.419 54.7786 17.4457 55.0186 17.4457ZM53.0986 20.5257C53.0719 20.5257 53.0053 20.499 52.8986 20.4457C52.8186 20.3657 52.7386 20.2857 52.6586 20.2057C52.5786 20.099 52.5386 20.019 52.5386 19.9657C52.5386 19.939 52.5386 19.9123 52.5386 19.8857C52.5386 19.859 52.6319 19.819 52.8186 19.7657C53.0053 19.6857 53.1653 19.619 53.2986 19.5657H52.7386C52.5253 19.5657 52.3386 19.5123 52.1786 19.4057C52.0186 19.299 51.8186 19.1123 51.5786 18.8457C51.2319 18.419 51.0586 18.1123 51.0586 17.9257C51.0586 17.7923 51.1653 17.7257 51.3786 17.7257C51.4586 17.7257 51.6186 17.6457 51.8586 17.4857C51.9919 17.299 52.3919 17.1657 53.0586 17.0857C53.7519 17.0057 54.9519 16.939 56.6586 16.8857C57.4586 16.8323 58.0986 16.8057 58.5786 16.8057C59.2719 16.8057 59.6319 16.8323 59.6586 16.8857V17.0057C59.6586 17.0857 59.1519 17.1257 58.1386 17.1257L56.5786 17.2057C57.6186 17.2323 58.2986 17.2857 58.6186 17.3657C58.9653 17.419 59.2719 17.579 59.5386 17.8457C59.8053 18.0857 60.0186 18.2057 60.1786 18.2057C60.3653 18.2057 60.5786 18.299 60.8186 18.4857C61.0586 18.6457 61.1786 18.819 61.1786 19.0057C61.1786 19.059 61.1386 19.1123 61.0586 19.1657C61.0053 19.1923 60.9386 19.2057 60.8586 19.2057C60.7786 19.2057 60.6719 19.2323 60.5386 19.2857C60.4053 19.3123 60.2853 19.3523 60.1786 19.4057C60.0719 19.4323 59.6853 19.5123 59.0186 19.6457C58.3519 19.7523 57.5786 19.8723 56.6986 20.0057C55.8453 20.139 55.0586 20.259 54.3386 20.3657C53.6453 20.4723 53.2319 20.5257 53.0986 20.5257Z" fill="#F8F8F8"/>
<path d="M41.4128 26.1252C41.4395 26.1252 41.4528 26.0852 41.4528 26.0052C41.4795 25.9252 41.4928 25.8186 41.4928 25.6852C41.4395 25.4186 41.3995 25.2852 41.3728 25.2852V25.4452C41.3728 25.8986 41.3861 26.1252 41.4128 26.1252ZM41.4128 11.8852C41.4661 11.8852 41.5195 11.7919 41.5728 11.6052C41.5728 11.4986 41.5595 11.4052 41.5328 11.3252C41.5328 11.2186 41.5195 11.1652 41.4928 11.1652C41.4661 11.1652 41.4261 11.2719 41.3728 11.4852V11.6852C41.3728 11.8186 41.3861 11.8852 41.4128 11.8852ZM42.8928 27.9652C42.9195 27.9652 42.9595 27.8719 43.0128 27.6852L43.0528 27.5252C43.0528 27.4719 43.0128 27.4452 42.9328 27.4452C42.8528 27.5519 42.8128 27.6852 42.8128 27.8452C42.8128 27.9252 42.8261 27.9652 42.8528 27.9652H42.8928ZM52.2928 3.64523C52.3461 3.61857 52.4128 3.5119 52.4928 3.32523C52.5995 3.1119 52.6528 2.9519 52.6528 2.84523L52.6128 2.80523C52.5861 2.80523 52.5595 2.8319 52.5328 2.88523C52.5061 2.9119 52.4661 2.96523 52.4128 3.04523C52.3861 3.09857 52.3461 3.17857 52.2928 3.28523C52.2661 3.3919 52.2528 3.4719 52.2528 3.52523C52.2528 3.60523 52.2661 3.64523 52.2928 3.64523ZM40.8928 36.4852L40.6528 36.3652C39.7728 36.0719 39.3328 35.5652 39.3328 34.8452C39.3328 34.4186 39.4795 33.5519 39.7728 32.2452C39.9595 31.4986 40.0795 30.9386 40.1328 30.5652C40.2128 30.1919 40.2528 29.8452 40.2528 29.5252L40.0928 28.2052C39.8528 26.6319 39.6795 24.1652 39.5728 20.8052L39.5328 20.0852C39.3461 16.8319 39.2395 15.2052 39.2128 15.2052C39.1595 15.2052 38.9461 15.5519 38.5728 16.2452L36.2128 20.5252C35.7861 21.3786 35.3728 22.1652 34.9728 22.8852C34.9195 22.9919 34.8395 23.1519 34.7328 23.3652C34.6528 23.5519 34.5461 23.7386 34.4128 23.9252L33.9728 24.7652C33.9728 24.8452 33.8261 25.1919 33.5328 25.8052C32.5995 27.5919 31.8528 28.9386 31.2928 29.8452C30.4661 31.2852 29.8128 32.0052 29.3328 32.0052L29.0928 31.9652C28.7728 31.9652 28.5595 31.9919 28.4528 32.0452C28.3728 32.0986 28.2795 32.1252 28.1728 32.1252C28.0928 32.1252 27.9461 32.0986 27.7328 32.0452C27.5195 31.9919 27.2661 31.8852 26.9728 31.7252C26.6795 31.5919 26.4661 31.4319 26.3328 31.2452C26.1995 31.0586 26.1328 30.7252 26.1328 30.2452C26.1328 28.6186 26.8395 25.4719 28.2528 20.8052C28.9461 18.6452 29.9195 15.8986 31.1728 12.5652C33.8128 5.41857 35.4395 1.84523 36.0528 1.84523H36.0928L36.1328 2.00523C36.1061 2.08523 36.0661 2.1519 36.0128 2.20523C35.9861 2.25857 35.9728 2.3119 35.9728 2.36523C35.9728 2.4719 36.0261 2.61857 36.1328 2.80523C36.2661 2.96523 36.4395 3.1119 36.6528 3.24523C36.7595 3.32523 36.8661 3.36523 36.9728 3.36523C37.0261 3.36523 37.0795 3.33857 37.1328 3.28523C37.1861 3.20523 37.2528 3.16523 37.3328 3.16523L37.4928 3.24523C37.5728 3.29857 37.7728 3.5119 38.0928 3.88523L37.2928 5.76523C35.9328 8.8319 34.5061 12.4586 33.0128 16.6452C32.0528 19.3919 31.5728 20.8186 31.5728 20.9252C31.5728 21.0052 31.4261 21.4319 31.1328 22.2052L30.4928 24.2852L29.7328 26.9652C29.7595 26.9652 29.8661 26.8052 30.0528 26.4852C30.7995 25.2052 31.4261 24.0586 31.9328 23.0452C32.1728 22.4852 32.3861 22.0719 32.5728 21.8052C32.7595 21.5386 32.8795 21.4052 32.9328 21.4052C32.9595 21.4052 32.9728 21.4186 32.9728 21.4452H33.0928L33.0128 21.1252C33.0128 21.0452 33.0395 20.9386 33.0928 20.8052C33.1461 20.6452 33.2128 20.5119 33.2928 20.4052C33.3995 20.2719 33.4795 20.2052 33.5328 20.2052L33.6528 20.2452C33.6795 20.2452 33.6928 20.2319 33.6928 20.2052V20.1652L33.6528 20.0852C33.6528 19.8186 33.7195 19.5652 33.8528 19.3252C33.9861 19.0852 34.0928 18.9652 34.1728 18.9652L34.2928 19.0452C34.3195 19.0452 34.3328 19.0319 34.3328 19.0052L34.2928 18.8852C34.2928 18.5386 34.9728 17.1252 36.3328 14.6452C37.2128 12.9919 37.9061 11.7252 38.4128 10.8452C39.2128 9.40523 39.7595 8.68523 40.0528 8.68523L40.2128 8.72523C40.3461 8.72523 40.4261 8.60523 40.4528 8.36523L40.4928 8.04523C40.5195 8.04523 40.5328 8.17857 40.5328 8.44523C40.6128 9.1119 40.7995 9.44523 41.0928 9.44523C41.1995 9.44523 41.2795 9.40523 41.3328 9.32523C41.4128 9.24523 41.4928 9.20523 41.5728 9.20523C41.6795 9.20523 41.8528 9.3119 42.0928 9.52523L42.5728 10.1252V15.4052C42.4928 16.3119 42.4528 17.9386 42.4528 20.2852L42.4928 23.0052C47.8528 8.68523 50.8261 1.37857 51.4128 1.08523C51.5461 1.08523 51.7061 0.938566 51.8928 0.645233C52.0261 0.458567 52.1061 0.365234 52.1328 0.365234C52.1595 0.365234 52.1728 0.378568 52.1728 0.405234C52.1995 0.4319 52.2128 0.458567 52.2128 0.485233C52.2128 0.5919 52.1595 0.738567 52.0528 0.925234C52.0261 0.951901 52.0128 0.9919 52.0128 1.04523C52.0128 1.20523 52.1328 1.44523 52.3728 1.76523C52.4528 1.8719 52.5195 1.97857 52.5728 2.08523C52.6528 2.16523 52.7061 2.2319 52.7328 2.28523C52.7595 2.33857 52.7728 2.37857 52.7728 2.40523L52.9728 2.20523C53.0528 2.01857 53.1195 1.9119 53.1728 1.88523C53.2261 1.88523 53.3195 1.9519 53.4528 2.08523C53.5861 2.1919 53.6795 2.29857 53.7328 2.40523C53.8128 2.5119 53.8528 2.5919 53.8528 2.64523C53.8528 2.72523 53.7728 2.9919 53.6128 3.44523C53.2128 4.6719 52.8928 5.48523 52.6528 5.88523L52.0928 7.16523L51.2928 9.12523C48.0128 16.9119 45.5195 23.4052 43.8128 28.6052C43.4128 29.7519 43.2128 30.5119 43.2128 30.8852C43.2128 31.2319 43.2661 31.6052 43.3728 32.0052C43.5328 32.8052 43.6128 33.2986 43.6128 33.4852C43.6128 33.7252 43.5195 33.8452 43.3328 33.8452C43.0928 33.8452 42.9195 33.6052 42.8128 33.1252C42.7328 32.7786 42.6795 32.6052 42.6528 32.6052C42.5995 32.6052 42.5728 32.7252 42.5728 32.9652C42.5728 33.2319 42.5995 33.4319 42.6528 33.5652L42.7328 33.8452L42.5728 33.8052C42.4395 33.8052 42.3461 33.8319 42.2928 33.8852C42.2395 33.9652 42.1861 34.1386 42.1328 34.4052L42.0128 35.5252C42.0128 36.1119 41.8928 36.4052 41.6528 36.4052C41.5195 36.4052 41.4128 36.3519 41.3328 36.2452C41.2528 36.1386 41.2128 35.8986 41.2128 35.5252C41.2128 34.9119 41.2261 34.4452 41.2528 34.1252C41.2795 33.8052 41.2928 33.5652 41.2928 33.4052C41.0795 34.1786 40.9595 34.7386 40.9328 35.0852C40.9061 35.3252 40.8928 35.5919 40.8928 35.8852L40.9328 36.1652C40.9328 36.3786 40.9195 36.4852 40.8928 36.4852Z" fill="#F8F8F8"/>
<path d="M16.9086 25.0054C17.0153 25.0054 17.2286 24.9787 17.5486 24.9254C17.8686 24.8454 18.3086 24.752 18.8686 24.6454L22.5486 23.9254C22.8953 22.272 23.3219 20.4587 23.8286 18.4854C25.0019 13.792 25.7619 10.872 26.1086 9.72535C26.3753 8.57869 26.5086 7.93869 26.5086 7.80535C26.5086 7.75202 26.4953 7.72535 26.4686 7.72535C26.4686 7.72535 26.4686 7.68535 26.4686 7.60535C26.4686 7.49869 26.5086 7.31202 26.5886 7.04535C26.6953 6.75202 26.8553 6.39202 27.0686 5.96535L27.2686 5.44535L27.2286 5.40535C27.2019 5.40535 27.1219 5.53869 26.9886 5.80535C26.8553 6.04535 26.6953 6.36535 26.5086 6.76535C26.3219 7.13869 26.1353 7.47202 25.9486 7.76535C25.7886 8.03202 25.6686 8.19202 25.5886 8.24535C25.5086 8.29869 25.4553 8.32535 25.4286 8.32535C25.4286 8.24535 25.5219 8.11202 25.7086 7.92535L25.7886 7.72535C25.5486 7.72535 24.4819 9.47202 22.5886 12.9654C22.0286 14.0854 21.7086 14.6854 21.6286 14.7654C21.3886 15.0854 20.0686 17.7254 17.6686 22.6854C17.0286 24.0454 16.7086 24.7787 16.7086 24.8854C16.7086 24.9654 16.7753 25.0054 16.9086 25.0054ZM23.6686 27.2854C23.7219 27.2854 23.7486 27.2187 23.7486 27.0854C23.7486 27.0587 23.7353 27.0187 23.7086 26.9654C23.6819 26.912 23.6553 26.8854 23.6286 26.8854C23.6019 26.8854 23.5886 26.952 23.5886 27.0854C23.5886 27.2187 23.6019 27.2854 23.6286 27.2854H23.6686ZM23.5086 28.1254L23.5886 27.9654C23.5886 27.912 23.5753 27.8587 23.5486 27.8054C23.5219 27.7254 23.4953 27.6854 23.4686 27.6854C23.4419 27.6854 23.4286 27.752 23.4286 27.8854L23.4686 28.1254H23.5086ZM23.3086 29.0454L23.3486 28.9654C23.4019 28.9387 23.4286 28.8854 23.4286 28.8054C23.4286 28.752 23.4019 28.6987 23.3486 28.6454L23.3086 28.5654C23.2819 28.5654 23.2686 28.6454 23.2686 28.8054C23.2686 28.9654 23.2819 29.0454 23.3086 29.0454ZM23.1486 30.0054C23.2019 30.0054 23.2286 29.9254 23.2286 29.7654L23.1886 29.4454H23.2286L23.1886 29.4054C23.1619 29.4054 23.1486 29.512 23.1486 29.7254V30.0054ZM20.9486 24.5654C21.0286 24.5654 21.1619 24.5387 21.3486 24.4854C21.5619 24.432 21.8286 24.4054 22.1486 24.4054C22.3353 24.4054 22.4286 24.3654 22.4286 24.2854C22.4286 24.232 22.3486 24.2054 22.1886 24.2054C21.8153 24.2054 21.4686 24.2587 21.1486 24.3654C20.9353 24.4454 20.8286 24.4987 20.8286 24.5254C20.8286 24.552 20.8686 24.5654 20.9486 24.5654ZM19.9886 24.7654C20.1219 24.7654 20.2553 24.752 20.3886 24.7254C20.5219 24.672 20.5886 24.6187 20.5886 24.5654C20.5886 24.5387 20.5619 24.5254 20.5086 24.5254C20.0819 24.5254 19.8686 24.592 19.8686 24.7254C19.8686 24.752 19.9086 24.7654 19.9886 24.7654ZM19.4686 24.8854L19.5086 24.8454C19.4819 24.792 19.4286 24.7654 19.3486 24.7654C19.1886 24.7654 19.1086 24.7787 19.1086 24.8054C19.1086 24.8587 19.2286 24.8854 19.4686 24.8854ZM28.7486 1.40535C28.8819 1.40535 28.9486 1.36535 28.9486 1.28535C28.9486 1.15202 28.8819 1.08535 28.7486 1.08535C28.5886 1.08535 28.5086 1.13868 28.5086 1.24535C28.5086 1.29869 28.5353 1.33869 28.5886 1.36535C28.6686 1.39202 28.7219 1.40535 28.7486 1.40535ZM22.6286 34.1654C22.5219 34.1654 22.3886 34.1254 22.2286 34.0454C22.0953 33.9654 21.9619 33.8454 21.8286 33.6854C21.6953 33.552 21.6019 33.4854 21.5486 33.4854H21.5086L21.5886 33.7654C21.5619 33.7654 21.4819 33.712 21.3486 33.6054C21.2419 33.5254 21.1886 33.2987 21.1886 32.9254C21.1886 32.712 21.2019 32.4054 21.2286 32.0054C21.2553 31.632 21.3086 31.1254 21.3886 30.4854C21.4686 29.8454 21.5486 29.2454 21.6286 28.6854C21.7353 28.0987 21.8153 27.6187 21.8686 27.2454C21.9219 26.8454 21.9486 26.632 21.9486 26.6054C21.7086 26.6054 20.6286 26.832 18.7086 27.2854C16.5486 27.792 15.4153 28.1254 15.3086 28.2854C15.0419 28.632 14.7753 29.2454 14.5086 30.1254C13.7353 32.1787 13.1886 33.2054 12.8686 33.2054C12.8153 33.2054 12.7886 33.232 12.7886 33.2854V33.3654C12.7886 33.4187 12.7619 33.4854 12.7086 33.5654C12.6553 33.672 12.5619 33.7254 12.4286 33.7254C12.4019 33.7254 12.3753 33.712 12.3486 33.6854L12.3086 33.6454C12.2819 33.6454 12.2686 33.6454 12.2686 33.6454C12.2686 33.672 12.2686 33.6987 12.2686 33.7254L12.3086 33.8854C12.3086 33.912 12.2953 33.952 12.2686 34.0054C12.2153 34.0587 12.1486 34.0854 12.0686 34.0854C11.9353 34.0854 11.7886 33.8987 11.6286 33.5254C11.4686 33.1787 11.3886 32.752 11.3886 32.2454C11.3886 31.632 11.5219 30.9254 11.7886 30.1254C11.9486 29.5654 12.0286 29.2187 12.0286 29.0854V29.0454L10.5886 29.4454C10.0286 29.6054 9.66859 29.6854 9.50859 29.6854C9.40193 29.6854 9.29526 29.6187 9.18859 29.4854C9.05526 29.352 8.86859 29.2854 8.62859 29.2854C8.38859 29.2854 8.08193 29.0987 7.70859 28.7254C7.44193 28.4587 7.30859 28.272 7.30859 28.1654C7.30859 28.1387 7.32193 28.1254 7.34859 28.1254C7.50859 28.1254 7.66859 28.0187 7.82859 27.8054C8.01526 27.672 8.57526 27.4454 9.50859 27.1254C10.7619 26.6987 12.0553 26.312 13.3886 25.9654C15.2019 21.592 17.2286 17.2587 19.4686 12.9654C22.1353 7.87202 24.3219 4.27202 26.0286 2.16535C26.9353 1.04535 27.4953 0.485352 27.7086 0.485352C27.7353 0.485352 27.7486 0.498685 27.7486 0.525351C27.7486 0.605352 27.6686 0.725352 27.5086 0.885351C27.3486 1.01868 27.2686 1.11202 27.2686 1.16535C27.2686 1.19202 27.2819 1.20535 27.3086 1.20535C27.3619 1.17869 27.4286 1.16535 27.5086 1.16535C27.6153 1.21868 27.7086 1.25869 27.7886 1.28535C27.8953 1.31202 27.9753 1.32535 28.0286 1.32535C28.1619 1.32535 28.3086 1.24535 28.4686 1.08535C28.6553 0.925351 28.8019 0.845352 28.9086 0.845352C29.0419 0.845352 29.1086 0.965352 29.1086 1.20535C29.1086 1.31202 29.1619 1.43202 29.2686 1.56535C29.3753 1.69869 29.4819 1.79202 29.5886 1.84535C29.7219 1.89869 29.8286 1.92535 29.9086 1.92535H30.1086L30.3086 1.96535C30.8153 2.20535 31.0686 2.63202 31.0686 3.24535C31.0686 3.72535 30.9486 4.32535 30.7086 5.04535C30.4686 5.89869 30.3353 6.40535 30.3086 6.56535C30.2819 6.72535 30.1619 7.15202 29.9486 7.84535L27.2286 16.9254C25.9219 21.592 25.2686 24.2187 25.2686 24.8054V24.8854C25.4019 25.0187 25.5486 25.0854 25.7086 25.0854C25.8686 25.0854 26.0153 25.1387 26.1486 25.2454C26.3619 25.4854 26.4686 25.6854 26.4686 25.8454C26.4686 25.8987 26.4553 25.9387 26.4286 25.9654L26.3886 26.0054C26.3619 26.0054 26.3486 25.9787 26.3486 25.9254C26.3486 25.8454 26.2019 25.8054 25.9086 25.8054L24.9086 25.9254L24.3486 28.9254C24.0819 30.4187 23.9353 31.2987 23.9086 31.5654C23.8286 31.9387 23.7753 32.592 23.7486 33.5254C23.7219 33.792 23.6953 33.9254 23.6686 33.9254L23.5886 33.8854C23.5086 33.8587 23.4019 33.832 23.2686 33.8054C23.1619 33.7787 23.0819 33.7254 23.0286 33.6454C22.9753 33.5654 22.9486 33.392 22.9486 33.1254L22.9886 31.5654L23.0686 30.3254L23.0286 30.2454C23.0019 30.2987 22.9619 30.472 22.9086 30.7654C22.8553 31.0854 22.8019 31.4987 22.7486 32.0054C22.6953 32.5387 22.6686 32.9387 22.6686 33.2054C22.6686 33.472 22.6953 33.632 22.7486 33.6854C22.8819 33.8187 22.9486 33.9254 22.9486 34.0054C22.9486 34.112 22.8419 34.1654 22.6286 34.1654Z" fill="#F8F8F8"/>
<path d="M2.24 31.0055C2.37333 31.0055 2.44 30.9522 2.44 30.8455C2.44 30.7122 2.37333 30.6455 2.24 30.6455C2.13333 30.6455 2.08 30.7122 2.08 30.8455C2.08 30.9522 2.13333 31.0055 2.24 31.0055ZM3.84 32.3655C3.89333 32.3655 3.94667 32.3389 4 32.2855C4.08 32.2589 4.12 32.2322 4.12 32.2055C4.12 32.0722 4.02667 32.0055 3.84 32.0055C3.78667 32.0055 3.69333 32.0189 3.56 32.0455C3.45333 32.0722 3.34667 32.1122 3.24 32.1655C3.16 32.2455 3.12 32.2989 3.12 32.3255C3.12 32.3522 3.30667 32.3655 3.68 32.3655H3.84ZM15.32 2.40555C15.4533 2.40555 15.52 2.37888 15.52 2.32555C15.52 2.24555 15.48 2.20555 15.4 2.20555C15.3467 2.20555 15.2933 2.23221 15.24 2.28555C15.1867 2.31221 15.16 2.33888 15.16 2.36555C15.16 2.39221 15.2133 2.40555 15.32 2.40555ZM3.68 32.5255H3.32C3.16 32.5255 3.05333 32.4855 3 32.4055C2.94667 32.3255 2.81333 32.2189 2.6 32.0855C2.41333 31.9789 2.18667 31.8589 1.92 31.7255C1.38667 31.4589 1 31.1522 0.76 30.8055C0.52 30.4589 0.333333 29.9389 0.2 29.2455C0.0666667 28.5789 0 27.7655 0 26.8055C0 23.3922 0.493333 19.9522 1.48 16.4855C1.88 15.2055 2.16 14.5255 2.32 14.4455C2.48 14.2322 2.6 14.0589 2.68 13.9255C2.78667 13.7922 2.85333 13.7255 2.88 13.7255L2.72 14.1255C2.72 14.1522 2.73333 14.1922 2.76 14.2455C2.78667 14.2722 2.93333 14.2855 3.2 14.2855L3.8 14.4055L3.68 14.8855C3.04 16.5122 2.52 18.5922 2.12 21.1255C1.8 23.2322 1.64 25.2189 1.64 27.0855C1.64 29.1122 1.77333 30.1789 2.04 30.2855H2.08C2.10667 30.2855 2.12 30.2455 2.12 30.1655C2.12 30.0322 2.08 29.7922 2 29.4455C1.84 28.7255 1.76 27.8455 1.76 26.8055C1.76 25.6055 1.90667 23.8455 2.2 21.5255C2.52 18.9389 3.14667 16.5922 4.08 14.4855C4.18667 14.6189 4.28 14.7522 4.36 14.8855C4.46667 14.9922 4.53333 15.0722 4.56 15.1255C4.58667 15.1789 4.6 15.2455 4.6 15.3255L4.56 15.6055C4.26667 16.2989 3.93333 17.5789 3.56 19.4455C3.26667 20.8855 3.05333 22.1922 2.92 23.3655C2.86667 24.0589 2.84 25.3122 2.84 27.1255C2.84 28.9922 2.90667 29.9255 3.04 29.9255C3.30667 29.9255 3.85333 29.1389 4.68 27.5655C5.53333 25.9655 6.56 23.7389 7.76 20.8855C7.97333 20.3789 8.26667 19.6322 8.64 18.6455C9.01333 17.6589 9.38667 16.6322 9.76 15.5655C10.16 14.4989 10.4933 13.5655 10.76 12.7655C11.0533 11.9655 11.2 11.5389 11.2 11.4855C11.2 11.3789 11.1733 11.2722 11.12 11.1655C11.0667 11.0322 11.0133 10.9255 10.96 10.8455L10.84 10.7255C10.8667 10.7255 10.9067 10.7389 10.96 10.7655C11.0133 10.7922 11.0667 10.8055 11.12 10.8055C11.1733 10.8055 11.2 10.7522 11.2 10.6455C11.2 10.4589 11.16 10.3655 11.08 10.3655C11.0267 10.3655 11 10.3389 11 10.2855C11 9.80555 11.6533 8.21888 12.96 5.52555C12.2667 5.65888 11.6 5.87221 10.96 6.16555C10.4267 6.37888 10.16 6.51221 10.16 6.56555L10.24 6.60555C10.24 6.65888 9.93333 6.73888 9.32 6.84555C8.89333 6.95221 8.58667 7.00555 8.4 7.00555C8.24 7.00555 8.13333 6.97888 8.08 6.92555C8.05333 6.87221 8.04 6.80555 8.04 6.72555C8.04 6.64555 8.06667 6.55221 8.12 6.44555C8.17333 6.33888 8.2 6.27221 8.2 6.24555C8.2 6.21888 8.13333 6.20555 8 6.20555C7.89333 6.20555 7.73333 6.11221 7.52 5.92555C7.33333 5.73888 7.16 5.52555 7 5.28555C6.84 5.04555 6.74667 4.84555 6.72 4.68555C6.72 4.44555 7.2 4.05888 8.16 3.52555C9.14667 2.99221 10.8933 2.55221 13.4 2.20555C16.12 1.85888 18.1733 1.68555 19.56 1.68555C20.2267 1.68555 20.6533 1.72555 20.84 1.80555V1.84555C20.84 1.87221 20.76 1.89888 20.6 1.92555C20.44 1.95221 19.8267 1.96555 18.76 1.96555L17.16 2.08555C17.16 2.11221 17.6133 2.15221 18.52 2.20555L19.92 2.32555C20.1867 2.37888 20.3733 2.44555 20.48 2.52555C20.6133 2.57888 20.7333 2.67221 20.84 2.80555C20.9467 2.93888 21.0533 3.04555 21.16 3.12555C21.2933 3.20555 21.4133 3.24555 21.52 3.24555C21.6267 3.24555 21.9067 3.57888 22.36 4.24555L21.2 4.32555C20.2667 4.32555 19.3467 4.37888 18.44 4.48555C17.5333 4.59221 17.0533 4.71221 17 4.84555C17 4.92555 17.0133 5.00555 17.04 5.08555C17.0933 5.16555 17.12 5.28555 17.12 5.44555C17.12 6.08555 16.1067 9.04555 14.08 14.3255C13.0933 16.9655 12.3333 18.8455 11.8 19.9655L11.36 21.0055C11.12 21.5655 10.8 22.2722 10.4 23.1255C10 23.9789 9.61333 24.8055 9.24 25.6055C8.89333 26.3789 8.62667 26.9389 8.44 27.2855C8.30667 27.4722 8.2 27.6589 8.12 27.8455C7.21333 29.6322 6.10667 31.0722 4.8 32.1655C4.50667 32.4055 4.13333 32.5255 3.68 32.5255Z" fill="#F8F8F8"/>
</svg>
