<svg width="402" height="99" viewBox="0 0 402 99" fill="none" xmlns="http://www.w3.org/2000/svg">
<path d="M301.833 96.9996H272.777L287.881 1.76758H316.937L310.665 41.3196L363.145 1.76758H401.417L341.001 46.6956L388.873 96.9996H351.881L309.001 52.0716L301.833 96.9996Z" fill="#F8F8F8"/>
<path d="M210.404 98.6635H204.516C153.828 98.6635 150.884 72.8075 152.292 62.1835H182.884C183.012 64.6155 183.14 76.6475 208.868 76.6475C234.724 76.6475 237.796 69.8635 237.796 65.6395C237.796 61.4155 235.876 58.5995 225.636 58.5995H192.868L196.452 36.4555H227.94C238.948 36.4555 240.868 32.6155 240.868 29.4155C240.868 25.9595 238.692 21.8635 214.884 21.8635C190.18 21.8635 188.26 30.6955 187.492 32.7435H157.156C158.82 22.5035 163.812 0.103516 213.092 0.103516H218.468C264.164 0.103516 272.228 11.8795 272.228 23.5275C272.228 35.5595 261.22 40.9355 254.948 41.9595C260.452 44.0075 269.028 49.3835 269.028 62.8235C269.028 78.8235 259.556 98.6635 210.404 98.6635Z" fill="#F8F8F8"/>
<path d="M146.378 74.5996L142.794 96.9996H112.586L116.17 74.5996H146.378Z" fill="#F8F8F8"/>
<path d="M57.0068 98.6636H51.2468C3.75882 98.6636 -0.465185 76.9036 1.07081 67.1756H31.7908C32.0468 68.8396 33.0708 76.6476 55.3428 76.6476C78.3828 76.6476 81.1988 68.1996 81.1988 63.3356C81.1988 58.7276 78.3828 52.5836 58.5428 52.5836C37.1668 52.5836 33.0708 59.1116 32.5588 60.2636H4.14281L13.4868 1.76758H114.863L111.279 23.9116H38.4468L35.8868 40.9356C37.4228 39.5276 47.2788 32.1036 68.5268 32.1036H69.6788C104.239 32.1036 112.047 45.2876 112.047 60.7756C112.047 63.0796 111.791 65.7676 111.279 68.3276C109.359 77.6716 101.679 98.6636 57.0068 98.6636Z" fill="#F8F8F8"/>
</svg>
