<svg width="168" height="75" viewBox="0 0 168 75" fill="none" xmlns="http://www.w3.org/2000/svg">
<path d="M108.04 73.0005H84.3281L114.664 46.5045L93.2561 21.3525H117.736L128.68 34.9845L144.232 21.3525H167.848L138.664 46.6965L160.648 73.0005H137.224L124.744 58.2165L108.04 73.0005Z" fill="#F8F8F8"/>
<path d="M91.1993 18.4721C91.1993 29.0321 80.4473 34.5041 74.3993 35.3681C80.1593 36.7121 87.8393 40.9361 87.8393 50.5361C87.8393 60.0401 80.9273 74.4401 44.7353 74.4401H40.6073C8.15928 74.4401 0.863281 64.2641 0.863281 54.0881C0.863281 41.0321 13.7273 36.3281 19.7753 35.3681C14.2073 33.8321 7.67928 29.7041 7.67928 21.3521C7.67928 13.0961 11.5193 0.328125 48.8633 0.328125H52.9913C84.4793 0.328125 91.1993 9.06413 91.1993 18.4721ZM48.1913 28.5521C66.3353 28.5521 68.4473 23.9441 68.4473 20.6801C68.4473 17.8961 66.1433 14.6321 50.2073 14.6321C32.0633 14.6321 30.0473 18.9521 30.0473 22.3121C30.0473 25.2881 32.5433 28.5521 48.1913 28.5521ZM43.2953 58.7921C64.0313 58.7921 65.6633 53.3201 65.6633 50.1521C65.6633 46.9841 63.0713 43.8161 45.6953 43.8161C25.0553 43.8161 23.5193 48.5201 23.5193 51.8801C23.5193 54.9521 25.7273 58.7921 43.2953 58.7921Z" fill="#F8F8F8"/>
</svg>
