<svg width="344" height="31" viewBox="0 0 344 31" fill="none" xmlns="http://www.w3.org/2000/svg">
<path d="M285.226 12.112L286.666 3.02401H281.754L282.186 0.208008H295.706L295.258 3.02401H290.346L288.906 12.112H285.226Z" fill="#B3B3B3"/>
<path d="M269.075 0.208008H281.267L280.835 2.91201H272.227L271.956 4.67201H280.372L279.94 7.39201H271.524L271.204 9.34401H279.956L279.524 12.112H267.188L269.075 0.208008Z" fill="#B3B3B3"/>
<path d="M255.31 0.208008H267.502L267.07 2.91201H258.462L258.19 4.67201H266.606L266.174 7.39201H257.758L257.438 9.34401H266.19L265.758 12.112H253.422L255.31 0.208008Z" fill="#B3B3B3"/>
<path d="M241.904 0.208008H253.872L253.44 2.91201H245.088L244.816 4.67201H252.96L252.528 7.39201H244.384L243.632 12.112H240.016L241.904 0.208008Z" fill="#B3B3B3"/>
<path d="M227.514 12.32H226.778C220.442 12.32 220.074 9.088 220.25 7.76H224.074C224.09 8.064 224.106 9.568 227.322 9.568C230.554 9.568 230.938 8.72 230.938 8.192C230.938 7.664 230.698 7.312 229.418 7.312H225.322L225.77 4.544H229.706C231.082 4.544 231.322 4.064 231.322 3.664C231.322 3.232 231.05 2.72 228.074 2.72C224.986 2.72 224.746 3.824 224.65 4.08H220.858C221.066 2.8 221.69 0 227.85 0H228.522C234.234 0 235.242 1.472 235.242 2.928C235.242 4.432 233.866 5.104 233.082 5.232C233.77 5.488 234.842 6.16 234.842 7.84C234.842 9.84 233.658 12.32 227.514 12.32Z" fill="#B3B3B3"/>
<path d="M212.373 12.32H211.637C205.301 12.32 204.933 9.088 205.109 7.76H208.933C208.949 8.064 208.965 9.568 212.181 9.568C215.413 9.568 215.797 8.72 215.797 8.192C215.797 7.664 215.557 7.312 214.277 7.312H210.181L210.629 4.544H214.565C215.941 4.544 216.181 4.064 216.181 3.664C216.181 3.232 215.909 2.72 212.933 2.72C209.845 2.72 209.605 3.824 209.509 4.08H205.717C205.925 2.8 206.549 0 212.709 0H213.381C219.093 0 220.101 1.472 220.101 2.928C220.101 4.432 218.725 5.104 217.941 5.232C218.629 5.488 219.701 6.16 219.701 7.84C219.701 9.84 218.517 12.32 212.373 12.32Z" fill="#B3B3B3"/>
<path fill-rule="evenodd" clip-rule="evenodd" d="M342.526 26.3125H338.75L338.302 29.1125H342.078L342.526 26.3125ZM343.698 25.3125L342.93 30.1125H337.129L337.897 25.3125H343.698Z" fill="#636366"/>
<path fill-rule="evenodd" clip-rule="evenodd" d="M328.959 29.32H329.279C331.549 29.32 333.016 28.6545 333.894 28.0287C334.322 27.7239 334.61 27.4284 334.783 27.224C334.865 27.5538 334.908 28.0563 334.923 28.4919C334.925 28.5276 334.926 28.5628 334.927 28.5975C334.932 28.7964 334.931 28.9763 334.927 29.112H337.103L338.159 22.44H330.015L329.663 24.696H334.239C334.191 24.9004 333.866 25.3209 333.155 25.696C332.418 26.0844 331.268 26.424 329.583 26.424C326.655 26.424 325.567 25.08 325.567 23.528C325.567 23.304 325.583 23.144 325.615 22.904C325.823 21.384 326.943 19.832 330.447 19.832C333.747 19.832 334.212 21.0263 334.302 21.44C334.31 21.4755 334.315 21.5052 334.319 21.528H338.159C338.16 21.4991 338.162 21.4697 338.163 21.44C338.166 21.3359 338.165 21.227 338.159 21.1144C338.148 20.9277 338.121 20.7307 338.074 20.528C337.707 18.9369 336.08 17 330.783 17H330.287C323.631 17 322.143 20.344 321.807 22.664C321.743 23.096 321.727 23.432 321.727 23.816C321.727 26.232 323.295 29.32 328.959 29.32ZM339.163 21.44C339.19 20.4127 338.869 19.0346 337.608 17.9113C336.309 16.7541 334.158 16 330.783 16H330.287C326.794 16 324.49 16.8795 323.006 18.2201C321.528 19.5561 321.005 21.2238 320.817 22.5175C320.744 23.0093 320.727 23.3959 320.727 23.816C320.727 25.2319 321.187 26.8883 322.52 28.1895C323.858 29.4956 325.946 30.32 328.959 30.32H329.279C331.376 30.32 332.884 29.7979 333.923 29.197L333.89 30.112H337.957L339.329 21.44H339.163ZM333.189 21.44C333.165 21.4176 333.138 21.3943 333.106 21.3701C332.836 21.1662 332.13 20.832 330.447 20.832C328.832 20.832 327.92 21.1903 327.408 21.5877C326.913 21.9725 326.682 22.48 326.605 23.0388M328.548 25.3504L329.158 21.44H333.189" fill="#636366"/>
<path fill-rule="evenodd" clip-rule="evenodd" d="M310.685 17.208H306.637L304.749 29.112H308.333L309.597 21.08L316.093 29.112H319.661L321.549 17.208H317.965L316.765 24.856L310.685 17.208ZM316.13 22.4505L311.168 16.208H305.783L303.578 30.112H309.188L310.235 23.459L315.616 30.112H320.515L322.72 16.208H317.11L316.13 22.4505Z" fill="#636366"/>
<path fill-rule="evenodd" clip-rule="evenodd" d="M304.957 17.208H301.325L299.437 29.112H303.069L304.957 17.208ZM306.128 16.208L303.923 30.112H298.266L300.471 16.208H306.128Z" fill="#636366"/>
<path fill-rule="evenodd" clip-rule="evenodd" d="M289.664 29.112H293.344L294.784 20.024H299.696L300.144 17.208H286.624L286.192 20.024H291.104L289.664 29.112ZM289.934 21.024L288.494 30.112H294.198L295.638 21.024H300.55L301.316 16.208H285.766L285.027 21.024H289.934Z" fill="#636366"/>
<path fill-rule="evenodd" clip-rule="evenodd" d="M269.35 29.112L268.719 30.112H274.851L276.195 27.936H281.996L282.796 30.112H288.72L283.431 16.208H277.502L270.616 27.108L270.304 29.112H269.35ZM282.693 26.936L283.493 29.112H287.269L282.741 17.208H278.053L270.533 29.112H274.293L275.637 26.936H282.693ZM281.701 24.248H277.301L280.069 19.784L281.701 24.248ZM280.271 23.248L279.836 22.058L279.098 23.248H280.271Z" fill="#636366"/>
<path fill-rule="evenodd" clip-rule="evenodd" d="M257.406 26.2704L256.797 30.112H271.16L271.316 29.112H270.534L271.573 27.4669L271.904 25.344H271.581L272.285 20.912H272.469L273.22 16.208H259.002L257.517 25.5737C257.498 25.8133 257.462 26.0462 257.406 26.2704ZM263.008 19.912H271.616L272.048 17.208H259.856L257.968 29.112H270.304L270.736 26.344H261.984L262.304 24.392H270.72L271.152 21.672H262.736L263.008 19.912Z" fill="#636366"/>
<path fill-rule="evenodd" clip-rule="evenodd" d="M242.109 29.112H252.301C256.237 29.112 257.533 27.368 257.533 25.16C257.533 24.1598 257.099 23.4935 256.591 23.0639C256.188 22.7238 255.739 22.5319 255.421 22.44C255.76 22.347 256.217 22.1739 256.636 21.884C257.227 21.4761 257.741 20.8369 257.741 19.864C257.741 18.36 256.829 17.208 253.757 17.208H243.997L242.109 29.112ZM257.466 22.5108C257.489 22.4918 257.513 22.4724 257.536 22.4526C258.191 21.8931 258.741 21.0432 258.741 19.864C258.741 18.8964 258.435 17.8987 257.515 17.1827C256.647 16.5079 255.386 16.208 253.757 16.208H243.143L240.938 30.112H252.301C254.396 30.112 255.981 29.6504 257.05 28.7175C257.776 28.0844 258.191 27.2988 258.388 26.4615L258.51 25.6963C258.525 25.5182 258.533 25.3391 258.533 25.16C258.533 23.9422 258.055 23.091 257.466 22.5108ZM254.013 20.584C254.013 21.08 253.677 21.656 252.589 21.656H246.925L247.229 19.72H252.861C253.805 19.72 254.013 20.12 254.013 20.584ZM253.757 25.208C253.757 25.72 253.453 26.52 252.125 26.52H246.157L246.525 24.184H252.445C253.549 24.184 253.757 24.696 253.757 25.208ZM247.379 25.184L247.326 25.52H252.125C252.579 25.52 252.692 25.3905 252.701 25.3803C252.731 25.3482 252.756 25.2874 252.757 25.2104C252.694 25.197 252.594 25.184 252.445 25.184H247.379Z" fill="#636366"/>
<path fill-rule="evenodd" clip-rule="evenodd" d="M231.389 24.248H226.989L229.757 19.784L231.389 24.248ZM229.958 23.248L229.523 22.058L228.786 23.248H229.958ZM232.381 26.936L233.181 29.112H236.957L232.429 17.208H227.741L220.221 29.112H223.981L225.325 26.936H232.381ZM231.683 27.936L232.483 30.112H238.407L233.118 16.208H227.19L218.406 30.112H224.539L225.883 27.936H231.683Z" fill="#636366"/>
<path fill-rule="evenodd" clip-rule="evenodd" d="M201.94 29.112L201.781 30.112H216.144L216.889 25.344H216.566L217.27 20.912H217.453L218.205 16.208H203.986L203.828 17.208H204.11L203.79 17.4463L202.026 28.5692L202.542 29.112H201.94ZM207.992 19.912H216.6L217.032 17.208H204.84L202.952 29.112H215.288L215.72 26.344H206.968L207.288 24.392H215.704L216.136 21.672H207.72L207.992 19.912Z" fill="#636366"/>
<path fill-rule="evenodd" clip-rule="evenodd" d="M187.018 29.112L186.859 30.112H192.516L193.228 25.646L197.491 30.112H204.875L203.923 29.112H202.952L203.091 28.2378L198.061 22.9526L204.714 18.0055L204.84 17.208H205.786L207.131 16.208H198.992L194.142 19.8632L194.722 16.208H189.065L187.184 28.0654L187.582 29.112H187.018ZM192.766 22.152L193.55 17.208H189.918L188.03 29.112H191.662L192.558 23.496L197.918 29.112H202.542L196.558 22.824L204.11 17.208H199.326L192.766 22.152Z" fill="#636366"/>
<path fill-rule="evenodd" clip-rule="evenodd" d="M182.014 24.248H177.614L180.382 19.784L182.014 24.248ZM180.583 23.248L180.148 22.058L179.411 23.248H180.583ZM183.006 26.936L183.806 29.112H187.582L183.054 17.208H178.366L170.846 29.112H174.606L175.95 26.936H183.006ZM182.308 27.936L183.108 30.112H189.032L188.652 29.112H188.03L188.213 27.9589L183.743 16.208H177.815L169.031 30.112H175.164L176.508 27.936H182.308Z" fill="#636366"/>
<path fill-rule="evenodd" clip-rule="evenodd" d="M164.039 29.112H167.719L169.159 20.024H174.071L174.519 17.208H160.999L160.567 20.024H165.479L164.039 29.112ZM164.309 21.024L162.869 30.112H168.573L170.013 21.024H174.925L175.691 16.208H160.141L159.402 21.024H164.309Z" fill="#636366"/>
<path fill-rule="evenodd" clip-rule="evenodd" d="M137.377 20.024C136.893 20.9684 136.712 21.8887 136.614 22.55L136.613 22.5584C136.523 23.2028 136.523 23.6583 136.523 24.0352V24.04C136.523 25.3035 136.916 26.9207 138.31 28.2117C139.696 29.4955 141.926 30.32 145.315 30.32H146.003C149.842 30.32 152.215 29.3302 153.663 27.8831C155.096 26.4498 155.456 24.7258 155.617 23.6428L155.617 23.6374C155.691 23.1244 155.707 22.6404 155.707 22.2C155.707 20.9168 155.291 19.3175 153.884 18.0523C152.489 16.7979 150.26 16 146.899 16H146.211C142.382 16 140.012 16.9809 138.566 18.403C138.182 18.781 137.874 19.179 137.627 19.5794L137.557 20.024H137.377ZM137.523 24.04C137.523 26.168 138.835 29.32 145.315 29.32H146.003C153.347 29.32 154.323 25.544 154.627 23.496C154.691 23.048 154.707 22.616 154.707 22.2C154.707 20.056 153.331 17 146.899 17H146.211C138.883 17 137.891 20.744 137.603 22.696C137.523 23.272 137.523 23.672 137.523 24.04ZM146.435 19.88C149.971 19.88 150.867 21.272 150.867 22.584C150.867 22.808 150.851 22.984 150.819 23.224C150.627 24.664 149.683 26.424 145.795 26.424C142.195 26.424 141.411 24.84 141.411 23.544C141.411 23.368 141.411 23.208 141.427 23C141.539 21.64 142.483 19.88 146.435 19.88ZM142.424 23.0796C142.412 23.2441 142.411 23.3695 142.411 23.544C142.411 23.9874 142.539 24.395 142.907 24.7132C143.301 25.0532 144.122 25.424 145.795 25.424C147.6 25.424 148.549 25.0151 149.054 24.5949C149.548 24.1844 149.754 23.6508 149.828 23.0918C149.857 22.8783 149.867 22.7492 149.867 22.584C149.867 22.1744 149.741 21.8195 149.368 21.5328C148.95 21.2114 148.098 20.88 146.435 20.88C144.594 20.88 143.628 21.2912 143.125 21.7033C142.642 22.1001 142.464 22.5987 142.424 23.0796Z" fill="#636366"/>
<path fill-rule="evenodd" clip-rule="evenodd" d="M127.524 29.112H131.204L132.644 20.024H137.556L138.004 17.208H124.484L124.052 20.024H128.964L127.524 29.112ZM127.793 21.024L126.353 30.112H132.058L133.498 21.024H138.022C138.132 20.7406 138.269 20.4515 138.441 20.1648C138.485 20.0908 138.532 20.0169 138.581 19.9433L139.175 16.208H123.626L122.887 21.024H127.793Z" fill="#636366"/>
<path fill-rule="evenodd" clip-rule="evenodd" d="M108.618 29.112H112.298L113.738 20.024H118.65L119.098 17.208H105.578L105.146 20.024H110.058L108.618 29.112ZM108.887 21.024L107.447 30.112H113.152L114.592 21.024H119.503L120.269 16.208H104.719L103.98 21.024H108.887Z" fill="#636366"/>
<path fill-rule="evenodd" clip-rule="evenodd" d="M96.5591 17.208L94.6711 29.112H106.271L106.735 26.152H98.7671L100.191 17.208H96.5591ZM99.9389 25.152L101.363 16.208H95.7052L93.5 30.112H107.127L107.904 25.152H99.9389Z" fill="#636366"/>
<path fill-rule="evenodd" clip-rule="evenodd" d="M94.8786 17.208H91.2466L89.3586 29.112H92.9906L94.8786 17.208ZM96.0497 16.208L93.8445 30.112H88.1875L90.3927 16.208H96.0497Z" fill="#636366"/>
<path fill-rule="evenodd" clip-rule="evenodd" d="M80.773 29.288H81.317C87.077 29.288 88.3889 25.48 88.789 22.952L89.701 17.208H86.053L85.173 22.76C84.933 24.264 84.0849 26.2 81.109 26.2C77.9729 26.2 77.4289 24.28 77.685 22.664L78.549 17.208H74.901L74.005 22.856C73.621 25.256 74.629 29.288 80.773 29.288ZM73.0175 22.698L73.0173 22.6993C72.7956 24.087 72.9641 25.9883 74.1383 27.5685C75.3449 29.1921 77.4704 30.288 80.773 30.288H81.317C84.4431 30.288 86.5039 29.2412 87.8189 27.7226C89.0976 26.246 89.5656 24.4424 89.7767 23.1083L90.8722 16.208H85.199L84.1854 22.6024C84.0809 23.2574 83.8579 23.8998 83.4287 24.3695C83.0302 24.8056 82.3572 25.2 81.109 25.2C79.7442 25.2 79.182 24.7913 78.9337 24.4498C78.6551 24.0667 78.5664 23.4912 78.6726 22.8205L79.7198 16.208H74.0471L73.0175 22.698Z" fill="#636366"/>
<path fill-rule="evenodd" clip-rule="evenodd" d="M57.3742 29.112H67.5662C71.5022 29.112 72.7982 27.368 72.7982 25.16C72.7982 24.1598 72.3646 23.4935 71.8561 23.0639C71.4537 22.7238 71.0043 22.5319 70.6862 22.44C71.0252 22.347 71.4828 22.1739 71.902 21.884C72.4921 21.4761 73.0062 20.8369 73.0062 19.864C73.0062 18.36 72.0942 17.208 69.0222 17.208H59.2622L57.3742 29.112ZM72.7316 22.5108C72.755 22.4918 72.7783 22.4724 72.8014 22.4526C73.4569 21.8931 74.0062 21.0432 74.0062 19.864C74.0062 18.8964 73.7008 17.8987 72.7802 17.1827C71.9127 16.5079 70.6519 16.208 69.0222 16.208H58.4083L56.2031 30.112H67.5662C69.6613 30.112 71.2466 29.6504 72.3157 28.7175C73.4094 27.7631 73.7982 26.4622 73.7982 25.16C73.7982 23.9422 73.321 23.091 72.7316 22.5108ZM69.2782 20.584C69.2782 21.08 68.9422 21.656 67.8542 21.656H62.1902L62.4942 19.72H68.1262C69.0702 19.72 69.2782 20.12 69.2782 20.584ZM69.0222 25.208C69.0222 25.72 68.7182 26.52 67.3902 26.52H61.4222L61.7902 24.184H67.7102C68.8142 24.184 69.0222 24.696 69.0222 25.208ZM62.645 25.184L62.5921 25.52H67.3902C67.8398 25.52 67.9551 25.3934 67.9667 25.3807C67.9961 25.3486 68.0217 25.2874 68.0222 25.2104C67.9596 25.197 67.8595 25.184 67.7102 25.184H62.645Z" fill="#636366"/>
<path fill-rule="evenodd" clip-rule="evenodd" d="M35.593 29.112H43.753C50.281 29.128 51.977 26.104 52.377 23.8C52.457 23.336 52.505 22.84 52.505 22.312C52.505 19.72 50.825 17.208 44.665 17.208H37.481L35.593 29.112ZM40.649 20.024H44.441C48.009 20.024 48.665 21.448 48.665 22.664C48.665 22.872 48.633 23.144 48.585 23.384C48.345 24.616 47.513 26.248 43.449 26.248H39.657L40.649 20.024ZM40.829 25.248H43.449C45.3641 25.248 46.3425 24.861 46.8493 24.4793C47.3294 24.1176 47.5112 23.6665 47.6034 23.1928L47.6044 23.1879C47.6433 22.9932 47.665 22.789 47.665 22.664C47.665 22.2411 47.5591 21.913 47.251 21.6564C46.9005 21.3645 46.1218 21.024 44.441 21.024H41.5022L40.829 25.248ZM34.4219 30.112L36.6271 16.208H44.665C47.8565 16.208 50.0794 16.8549 51.5197 18.0071C52.9995 19.191 53.505 20.7866 53.505 22.312C53.505 22.901 53.4514 23.454 53.3624 23.9699L53.3622 23.9711C53.1338 25.2868 52.5218 26.8677 50.9913 28.1039C49.4685 29.334 47.1632 30.1201 43.7521 30.112H34.4219Z" fill="#636366"/>
<path fill-rule="evenodd" clip-rule="evenodd" d="M17.9867 29.112L17.8281 30.112H23.4382L24.4852 23.459L29.8659 30.112H34.7651L36.9703 16.208H31.3599L30.3804 22.4505L25.4177 16.208H20.0333L18.1527 28.0654L18.5509 29.112H17.9867ZM31.0152 24.856L24.9352 17.208H20.8872L18.9992 29.112H22.5832L23.8472 21.08L30.3432 29.112H33.9112L35.7992 17.208H32.2152L31.0152 24.856Z" fill="#636366"/>
<path fill-rule="evenodd" clip-rule="evenodd" d="M12.9825 24.248H8.58254L11.3505 19.784L12.9825 24.248ZM11.5522 23.248L11.1172 22.058L10.3793 23.248H11.5522ZM13.9745 26.936L14.7745 29.112H18.5505L14.0225 17.208H9.33454L1.81454 29.112H5.57454L6.91854 26.936H13.9745ZM13.2768 27.936L14.0768 30.112H20.0008L19.6204 29.112H18.9989L19.1818 27.9588L14.7121 16.208H8.78344L0 30.112H6.13226L7.47626 27.936H13.2768Z" fill="#636366"/>
<path fill-rule="evenodd" clip-rule="evenodd" d="M179.019 6.55843L179.02 6.55003C179.118 5.88867 179.299 4.96837 179.783 4.024H179.963L180.034 3.57936C180.281 3.17903 180.588 2.78097 180.973 2.40298C182.419 0.980905 184.788 0 188.618 0H189.306C192.666 0 194.895 0.797872 196.29 2.05232C197.698 3.31755 198.114 4.91677 198.114 6.2C198.114 6.64042 198.097 7.12436 198.024 7.63742L198.023 7.64283C197.862 8.72581 197.502 10.4498 196.069 11.8831C194.622 13.3302 192.249 14.32 188.41 14.32H187.722C184.332 14.32 182.102 13.4955 180.716 12.2117C179.322 10.9207 178.93 9.30355 178.93 8.04V8.03523C178.93 7.65828 178.93 7.20282 179.019 6.55843ZM191.774 5.5328C191.356 5.21139 190.504 4.88 188.842 4.88C187 4.88 186.034 5.29119 185.532 5.70331C185.048 6.10006 184.871 6.59872 184.831 7.0796C184.818 7.24406 184.818 7.36946 184.818 7.544C184.818 7.98741 184.945 8.39499 185.313 8.71323C185.707 9.05318 186.528 9.424 188.202 9.424C190.006 9.424 190.955 9.01514 191.461 8.59493C191.954 8.18441 192.16 7.65085 192.234 7.09184C192.263 6.87833 192.274 6.74922 192.274 6.584C192.274 6.17437 192.147 5.81955 191.774 5.5328ZM183.834 7C183.946 5.64 184.89 3.88 188.842 3.88C192.378 3.88 193.274 5.272 193.274 6.584C193.274 6.808 193.258 6.984 193.226 7.224C193.034 8.664 192.09 10.424 188.202 10.424C184.602 10.424 183.818 8.84 183.818 7.544C183.818 7.368 183.818 7.208 183.834 7ZM179.93 8.04C179.93 10.168 181.242 13.32 187.722 13.32H188.41C195.754 13.32 196.73 9.544 197.034 7.496C197.098 7.048 197.114 6.616 197.114 6.2C197.114 4.056 195.738 1 189.306 1H188.618C181.29 1 180.298 4.744 180.01 6.696C179.93 7.272 179.93 7.672 179.93 8.04Z" fill="#636366"/>
<path fill-rule="evenodd" clip-rule="evenodd" d="M168.759 14.112L170.199 5.02401H165.293L166.032 0.208008H181.582L180.988 3.94331C180.938 4.01689 180.892 4.09077 180.847 4.16482C180.675 4.45147 180.539 4.74056 180.429 5.02401H175.904L174.464 14.112H168.759ZM175.05 4.02401H179.962L180.41 1.20801H166.89L166.458 4.02401H171.37L169.93 13.112H173.61L175.05 4.02401Z" fill="#636366"/>
<path fill-rule="evenodd" clip-rule="evenodd" d="M148.424 0.208008H162.418L161.667 4.91201H161.467L160.756 9.39201H152.611L151.859 14.112H146.219L148.424 0.208008ZM151.758 8.39201H159.902L160.334 5.67201H152.19L152.462 3.91201H160.814L161.246 1.20801H149.278L147.39 13.112H151.006L151.758 8.39201Z" fill="#636366"/>
<path fill-rule="evenodd" clip-rule="evenodd" d="M129.059 8.82234C129.202 9.92775 129.675 11.1749 130.795 12.2117C132.181 13.4955 134.41 14.32 137.8 14.32H138.488C142.327 14.32 144.7 13.3302 146.147 11.8831C147.581 10.4498 147.941 8.72581 148.101 7.64283L148.102 7.63742C148.176 7.12436 148.192 6.64042 148.192 6.2C148.192 4.91677 147.776 3.31755 146.369 2.05232C144.973 0.797872 142.745 0 139.384 0H138.696C134.867 0 132.497 0.980905 131.051 2.40298C130.09 3.34847 129.609 4.41953 129.351 5.3377C129.404 5.63456 129.427 5.9248 129.427 6.2C129.427 6.33093 129.425 6.46344 129.421 6.59753C129.421 6.59945 129.421 6.60137 129.421 6.60328C129.412 6.89344 129.39 7.19101 129.347 7.496C129.321 7.66642 129.291 7.84882 129.254 8.04C129.204 8.28827 129.142 8.55136 129.059 8.82234ZM141.853 5.5328C141.435 5.21139 140.582 4.88 138.92 4.88C137.079 4.88 136.113 5.29119 135.61 5.70331C135.126 6.10006 134.949 6.59872 134.909 7.0796C134.897 7.24406 134.896 7.36946 134.896 7.544C134.896 7.98741 135.024 8.39499 135.392 8.71323C135.786 9.05318 136.606 9.424 138.28 9.424C140.084 9.424 141.034 9.01514 141.539 8.59493C142.033 8.18441 142.239 7.65085 142.313 7.09184C142.342 6.87833 142.352 6.74922 142.352 6.584C142.352 6.17437 142.226 5.81955 141.853 5.5328ZM133.912 7C134.024 5.64 134.968 3.88 138.92 3.88C142.456 3.88 143.352 5.272 143.352 6.584C143.352 6.808 143.336 6.984 143.304 7.224C143.112 8.664 142.168 10.424 138.28 10.424C134.68 10.424 133.896 8.84 133.896 7.544C133.896 7.368 133.896 7.208 133.912 7ZM130.008 8.04C130.008 10.168 131.32 13.32 137.8 13.32H138.488C145.832 13.32 146.808 9.544 147.112 7.496C147.176 7.048 147.192 6.616 147.192 6.2C147.192 4.056 145.816 1 139.384 1H138.696C131.368 1 130.376 4.744 130.088 6.696C130.008 7.272 130.008 7.672 130.008 8.04Z" fill="#636366"/>
<path fill-rule="evenodd" clip-rule="evenodd" d="M111.332 6.55843L111.333 6.55003C111.373 6.27823 111.427 5.96269 111.511 5.61971C111.751 5.2623 111.917 4.83185 111.955 4.31616C112.244 3.67605 112.664 3.01335 113.285 2.40298C114.731 0.980905 117.101 0 120.93 0H121.618C124.979 0 127.207 0.797872 128.603 2.05232C129.732 3.0676 130.223 4.29796 130.373 5.40752C130.286 5.68368 130.222 5.95052 130.173 6.2C130.138 6.37478 130.111 6.54104 130.088 6.696C130.039 7.04962 130.02 7.3369 130.012 7.59117C130.012 7.59241 130.012 7.59364 130.012 7.59488C130.008 7.75335 130.008 7.89902 130.008 8.04C130.008 8.31044 130.029 8.59742 130.079 8.89236C129.82 9.83311 129.341 10.9233 128.381 11.8831C126.934 13.3302 124.561 14.32 120.722 14.32H120.034C116.644 14.32 114.415 13.4955 113.029 12.2117C111.635 10.9207 111.242 9.30355 111.242 8.04V8.03542C111.242 7.65843 111.242 7.20292 111.332 6.55843ZM124.087 5.5328C123.669 5.21139 122.816 4.88 121.154 4.88C119.313 4.88 118.347 5.29119 117.844 5.70331C117.36 6.10006 117.183 6.59873 117.143 7.0796C117.13 7.24407 117.13 7.36946 117.13 7.544C117.13 7.98741 117.257 8.39499 117.626 8.71323C118.019 9.05318 118.84 9.424 120.514 9.424C122.318 9.424 123.267 9.01514 123.773 8.59493C124.267 8.18441 124.472 7.65085 124.547 7.09184C124.575 6.87833 124.586 6.74922 124.586 6.584C124.586 6.17437 124.46 5.81955 124.087 5.5328ZM112.242 8.04C112.242 10.168 113.554 13.32 120.034 13.32H120.722C128.066 13.32 129.042 9.544 129.346 7.496C129.41 7.048 129.426 6.616 129.426 6.2C129.426 4.056 128.05 1 121.618 1H120.93C113.602 1 112.61 4.744 112.322 6.696C112.242 7.272 112.242 7.672 112.242 8.04ZM121.154 3.88C124.69 3.88 125.586 5.272 125.586 6.584C125.586 6.808 125.57 6.984 125.538 7.224C125.346 8.664 124.402 10.424 120.514 10.424C116.914 10.424 116.13 8.84 116.13 7.544C116.13 7.368 116.13 7.208 116.146 7C116.258 5.64 117.202 3.88 121.154 3.88Z" fill="#636366"/>
<path fill-rule="evenodd" clip-rule="evenodd" d="M98.0435 1.20801H107.483C110.971 1.20801 111.963 2.53601 111.963 4.08801C111.963 5.26906 111.317 6.03481 110.575 6.5122C110.161 6.77855 109.718 6.95514 109.339 7.06401C109.773 7.19795 110.184 7.39799 110.506 7.68745C110.992 8.12412 111.276 8.7643 111.131 9.68801L110.811 11.688C110.787 11.8477 110.771 11.988 110.761 12.112C110.723 12.5789 110.772 12.8132 110.811 12.9689C110.814 12.9803 110.817 12.9912 110.82 13.0018C110.822 13.0122 110.825 13.0223 110.827 13.032L110.811 13.112H107.115C107.051 12.984 107.003 12.808 107.083 12.312L107.291 11C107.515 9.59201 106.987 8.88801 105.147 8.88801H100.459L99.7875 13.112H96.1555L98.0435 1.20801ZM101.313 9.88801L100.641 14.112H94.9844L97.1896 0.208008H107.483C109.325 0.208008 110.705 0.553555 111.641 1.2733C112.628 2.03257 112.963 3.08156 112.963 4.08801C112.963 4.25952 112.954 4.42425 112.935 4.58243C112.691 5.08291 112.542 5.57891 112.443 6.02753C112.161 6.4935 111.789 6.86547 111.392 7.15942C111.433 7.20357 111.472 7.2492 111.51 7.29639C112.05 7.96231 112.278 8.82729 112.119 9.84238L112.119 9.846L111.8 11.8373C111.8 11.8387 111.8 11.8401 111.8 11.8415C111.744 12.2104 111.743 12.4223 111.751 12.5382C111.757 12.6308 111.769 12.6745 111.789 12.7551C111.792 12.7658 111.795 12.7772 111.798 12.7895L111.852 13.0076L111.631 14.112H106.497L106.221 13.5592C106.025 13.1662 106 12.7495 106.096 12.1554M106.096 12.1528L106.304 10.8434C106.399 10.2429 106.278 10.1143 106.268 10.1045C106.229 10.0634 106 9.88801 105.147 9.88801H101.313M102.037 5.24801H106.395C106.815 5.24801 106.966 5.13585 107.002 5.10308C107.036 5.07183 107.059 5.02833 107.059 4.95201C107.059 4.94987 107.059 4.94778 107.059 4.94575C107.004 4.93038 106.902 4.91201 106.731 4.91201H102.093L102.037 5.24801ZM106.395 6.24801C107.595 6.24801 108.059 5.59201 108.059 4.95201C108.059 4.34401 107.707 3.91201 106.731 3.91201H101.243L100.859 6.24801H106.395Z" fill="#636366"/>
<path fill-rule="evenodd" clip-rule="evenodd" d="M85.4047 14.112H79.75L81.9552 0.208008H91.2091C93.2558 0.208008 94.8131 0.588324 95.8727 1.41592C96.9839 2.28387 97.3771 3.50459 97.3771 4.76001C97.3771 5.86632 97.11 7.25868 96.0274 8.36985C94.9403 9.48562 93.201 10.144 90.6331 10.144H86.0447L85.4047 14.112ZM85.1931 9.14401H90.6331C95.4491 9.14401 96.3771 6.68001 96.3771 4.76001C96.3771 2.68001 95.1131 1.20801 91.2091 1.20801H82.8091L80.9211 13.112H84.5531L85.1931 9.14401ZM86.7687 5.47201H90.6171C91.156 5.47201 91.3607 5.3482 91.418 5.29957C91.4495 5.27287 91.5051 5.21683 91.5051 5.01601C91.5051 5.00084 91.5046 4.98823 91.5038 4.97794C91.4861 4.97085 91.4606 4.96217 91.4256 4.9534C91.3351 4.93078 91.1979 4.91201 91.0011 4.91201H86.8597L86.7687 5.47201ZM90.6171 6.47201C91.9611 6.47201 92.5051 5.86401 92.5051 5.01601C92.5051 4.29601 92.0251 3.91201 91.0011 3.91201H86.0091L85.5931 6.47201H90.6171Z" fill="#636366"/>
<path fill-rule="evenodd" clip-rule="evenodd" d="M67.0278 1.20801H76.4678C79.9558 1.20801 80.9479 2.53601 80.9479 4.08801C80.9479 5.26906 80.3018 6.03481 79.5598 6.5122C79.1459 6.77855 78.702 6.95514 78.3239 7.06401C78.7576 7.19795 79.1684 7.39799 79.4904 7.68745C79.9763 8.12412 80.2602 8.7643 80.1159 9.68801L79.7959 11.688C79.7718 11.8477 79.7556 11.988 79.7456 12.112C79.7078 12.5789 79.7569 12.8132 79.7959 12.9689C79.7987 12.9803 79.8015 12.9912 79.8042 13.0018C79.8068 13.0122 79.8094 13.0223 79.8119 13.032L79.7959 13.112H76.0999C76.0359 12.984 75.9879 12.808 76.0678 12.312L76.2758 11C76.4999 9.59201 75.9719 8.88801 74.1319 8.88801H69.4438L68.7719 13.112H65.1399L67.0278 1.20801ZM70.2973 9.88801L69.6253 14.112H63.9688L66.174 0.208008H76.4678C78.3097 0.208008 79.6895 0.553555 80.6255 1.2733C81.6128 2.03257 81.9479 3.08156 81.9479 4.08801C81.9479 5.56342 81.2162 6.53657 80.3768 7.15942C80.4172 7.20357 80.4565 7.2492 80.4948 7.29639C81.0344 7.96231 81.2625 8.82729 81.1039 9.84238L81.1033 9.846L80.7847 11.8373C80.7844 11.8387 80.7842 11.8401 80.784 11.8415C80.7286 12.2104 80.7277 12.4223 80.7355 12.5382C80.7418 12.6308 80.7529 12.6745 80.7733 12.7551C80.776 12.7658 80.7789 12.7772 80.782 12.7895L80.8365 13.0076L80.6157 14.112H75.4818L75.2054 13.5592C75.0089 13.1662 74.9846 12.7495 75.0802 12.1554M75.0806 12.1528L75.2882 10.8434C75.3837 10.2429 75.2619 10.1143 75.2526 10.1045C75.2136 10.0634 74.9843 9.88801 74.1319 9.88801H70.2973M71.0217 5.24801H75.3799C75.7996 5.24801 75.9501 5.13585 75.9859 5.10308C76.0199 5.07183 76.0439 5.02833 76.0439 4.95201C76.0439 4.94987 76.0438 4.94778 76.0438 4.94575C75.9883 4.93038 75.8863 4.91201 75.7159 4.91201H71.0769L71.0217 5.24801ZM75.3799 6.24801C76.5798 6.24801 77.0439 5.59201 77.0439 4.95201C77.0439 4.34401 76.6918 3.91201 75.7159 3.91201H70.2279L69.8438 6.24801H75.3799Z" fill="#636366"/>
<path fill-rule="evenodd" clip-rule="evenodd" d="M52.4083 0.208008H66.6267L65.8751 4.91201H65.6915L64.9876 9.34401H65.3104L64.5663 14.112H50.2031L52.4083 0.208008ZM55.7102 8.39201H64.1262L64.5582 5.67201H56.1422L56.4142 3.91201H65.0222L65.4542 1.20801H53.2622L51.3742 13.112H63.7102L64.1422 10.344H55.3902L55.7102 8.39201Z" fill="#636366"/>
<path fill-rule="evenodd" clip-rule="evenodd" d="M40.431 14.112L41.871 5.02401H36.9648L37.7037 0.208008H53.2536L52.4874 5.02401H47.576L46.136 14.112H40.431ZM46.722 4.02401H51.634L52.082 1.20801H38.562L38.13 4.02401H43.042L41.602 13.112H45.282L46.722 4.02401Z" fill="#636366"/>
<path fill-rule="evenodd" clip-rule="evenodd" d="M22.4708 13.112L29.9908 1.20801H34.6788L39.2068 13.112H35.4308L34.6308 10.936H27.5748L26.2308 13.112H22.4708ZM28.1325 11.936L26.7885 14.112H20.6562L29.4397 0.208008H35.3683L40.6571 14.112H34.733L33.933 11.936H28.1325ZM32.0068 3.78401L29.2388 8.24801H33.6388L32.0068 3.78401ZM31.7734 6.05798L31.0355 7.24801H32.2085L31.7734 6.05798Z" fill="#636366"/>
<path fill-rule="evenodd" clip-rule="evenodd" d="M11.5419 14.112H6.09816L2.47266 0.208008H8.39506L9.86113 6.31067L12.5906 0.208008H17.9137L19.1036 6.12202L22.0785 0.208008H28.0259L20.6067 14.112H15.5201L14.2527 8.25611L11.5419 14.112ZM10.9028 13.112H6.87085L3.76685 1.20801H7.60685L9.57485 9.40001L13.2388 1.20801H17.0948L18.6948 9.16001L22.6948 1.20801H26.3588L20.0068 13.112H16.3268L14.5988 5.12801L10.9028 13.112Z" fill="#636366"/>
</svg>
