<svg width="303" height="32" viewBox="0 0 303 32" fill="none" xmlns="http://www.w3.org/2000/svg">
<path d="M285.37 12.9997L286.81 3.9117H281.898L282.33 1.0957H295.85L295.402 3.9117H290.49L289.05 12.9997H285.37Z" fill="#B3B3B3"/>
<path d="M269.216 1.0957H281.408L280.976 3.7997H272.368L272.096 5.5597H280.512L280.08 8.2797H271.664L271.344 10.2317H280.096L279.664 12.9997H267.328L269.216 1.0957Z" fill="#B3B3B3"/>
<path d="M255.451 1.0957H267.643L267.21 3.7997H258.603L258.331 5.5597H266.747L266.315 8.2797H257.899L257.578 10.2317H266.331L265.899 12.9997H253.562L255.451 1.0957Z" fill="#B3B3B3"/>
<path d="M242.044 1.0957H254.012L253.58 3.7997H245.228L244.956 5.5597H253.1L252.668 8.2797H244.524L243.772 12.9997H240.156L242.044 1.0957Z" fill="#B3B3B3"/>
<path d="M227.658 13.2077H226.922C220.586 13.2077 220.218 9.9757 220.394 8.6477H224.218C224.234 8.9517 224.25 10.4557 227.466 10.4557C230.698 10.4557 231.082 9.6077 231.082 9.0797C231.082 8.5517 230.842 8.1997 229.562 8.1997H225.466L225.914 5.43169H229.85C231.226 5.43169 231.466 4.9517 231.466 4.5517C231.466 4.1197 231.194 3.6077 228.218 3.6077C225.13 3.6077 224.89 4.7117 224.794 4.9677H221.002C221.21 3.6877 221.834 0.887695 227.994 0.887695H228.666C234.378 0.887695 235.386 2.3597 235.386 3.8157C235.386 5.3197 234.01 5.9917 233.226 6.1197C233.914 6.3757 234.986 7.0477 234.986 8.7277C234.986 10.7277 233.802 13.2077 227.658 13.2077Z" fill="#B3B3B3"/>
<path d="M212.518 13.2077H211.782C205.446 13.2077 205.078 9.9757 205.254 8.6477H209.078C209.094 8.9517 209.11 10.4557 212.326 10.4557C215.558 10.4557 215.942 9.6077 215.942 9.0797C215.942 8.5517 215.702 8.1997 214.422 8.1997H210.326L210.774 5.43169H214.71C216.086 5.43169 216.326 4.9517 216.326 4.5517C216.326 4.1197 216.054 3.6077 213.078 3.6077C209.99 3.6077 209.75 4.7117 209.654 4.9677H205.862C206.07 3.6877 206.694 0.887695 212.854 0.887695H213.526C219.238 0.887695 220.246 2.3597 220.246 3.8157C220.246 5.3197 218.87 5.9917 218.086 6.1197C218.774 6.3757 219.846 7.0477 219.846 8.7277C219.846 10.7277 218.662 13.2077 212.518 13.2077Z" fill="#B3B3B3"/>
<path fill-rule="evenodd" clip-rule="evenodd" d="M305.101 18.0957H301.469L299.581 29.9997H303.213L305.101 18.0957ZM306.272 17.0957L304.067 30.9997H298.41L300.615 17.0957H306.272Z" fill="#636366"/>
<path fill-rule="evenodd" clip-rule="evenodd" d="M289.809 29.9997H293.489L294.929 20.9117H299.841L300.289 18.0957H286.769L286.337 20.9117H291.249L289.809 29.9997ZM290.078 21.9117L288.638 30.9997H294.343L295.783 21.9117H300.694L301.461 17.0957H285.911L285.172 21.9117H290.078Z" fill="#636366"/>
<path fill-rule="evenodd" clip-rule="evenodd" d="M269.495 29.9997L268.863 30.9997H274.996L276.34 28.8237H282.14L282.94 30.9997H288.864L283.575 17.0957H277.647L270.761 27.9957L270.448 29.9997H269.495ZM282.838 27.8237L283.638 29.9997H287.414L282.886 18.0957H278.198L270.678 29.9997H274.438L275.782 27.8237H282.838ZM281.846 25.1357H277.446L280.214 20.6717L281.846 25.1357ZM280.416 24.1357L279.98 22.9457L279.243 24.1357H280.416Z" fill="#636366"/>
<path fill-rule="evenodd" clip-rule="evenodd" d="M257.551 27.1581L256.941 30.9997H271.305L271.461 29.9997H270.678L271.717 28.3546L272.049 26.2317H271.726L272.43 21.7997H272.613L273.365 17.0957H259.147L257.661 26.4614C257.642 26.701 257.606 26.9338 257.551 27.1581ZM263.153 20.7997H271.761L272.193 18.0957H260.001L258.113 29.9997H270.449L270.881 27.2317H262.129L262.449 25.2797H270.865L271.297 22.5597H262.881L263.153 20.7997Z" fill="#636366"/>
<path fill-rule="evenodd" clip-rule="evenodd" d="M242.253 29.9997H252.445C256.381 29.9997 257.677 28.2557 257.677 26.0477C257.677 25.0475 257.243 24.3812 256.735 23.9516C256.333 23.6115 255.883 23.4196 255.565 23.3277C255.904 23.2347 256.362 23.0616 256.781 22.7717C257.371 22.3638 257.885 21.7245 257.885 20.7517C257.885 19.2477 256.973 18.0957 253.901 18.0957H244.141L242.253 29.9997ZM257.611 23.3985C257.634 23.3795 257.657 23.3601 257.68 23.3403C258.336 22.7808 258.885 21.9309 258.885 20.7517C258.885 19.7841 258.58 18.7864 257.659 18.0704C256.792 17.3956 255.531 17.0957 253.901 17.0957H243.287L241.082 30.9997H252.445C254.54 30.9997 256.125 30.5381 257.195 29.6052C257.92 28.9721 258.335 28.1865 258.533 27.3492L258.654 26.584C258.67 26.4059 258.677 26.2268 258.677 26.0477C258.677 24.8299 258.2 23.9787 257.611 23.3985ZM254.157 21.4717C254.157 21.9677 253.821 22.5437 252.733 22.5437H247.069L247.373 20.6077H253.005C253.949 20.6077 254.157 21.0077 254.157 21.4717ZM253.901 26.0957C253.901 26.6077 253.597 27.4077 252.269 27.4077H246.301L246.669 25.0717H252.589C253.693 25.0717 253.901 25.5837 253.901 26.0957ZM247.524 26.0717L247.471 26.4077H252.269C252.724 26.4077 252.837 26.2782 252.846 26.268C252.875 26.2359 252.901 26.1751 252.901 26.0981C252.838 26.0847 252.738 26.0717 252.589 26.0717H247.524Z" fill="#636366"/>
<path fill-rule="evenodd" clip-rule="evenodd" d="M231.533 25.1357H227.133L229.901 20.6717L231.533 25.1357ZM230.103 24.1357L229.668 22.9457L228.93 24.1357H230.103ZM232.525 27.8237L233.325 29.9997H237.101L232.573 18.0957H227.885L220.365 29.9997H224.125L225.469 27.8237H232.525ZM231.828 28.8237L232.628 30.9997H238.552L233.263 17.0957H227.334L218.551 30.9997H224.683L226.027 28.8237H231.828Z" fill="#636366"/>
<path fill-rule="evenodd" clip-rule="evenodd" d="M202.084 29.9997L201.926 30.9997H216.289L217.033 26.2317H216.71L217.414 21.7997H217.598L218.349 17.0957H204.131L203.972 18.0957H204.255L203.935 18.334L202.17 29.4569L202.687 29.9997H202.084ZM208.137 20.7997H216.745L217.177 18.0957H204.985L203.097 29.9997H215.433L215.865 27.2317H207.113L207.433 25.2797H215.849L216.281 22.5597H207.865L208.137 20.7997Z" fill="#636366"/>
<path fill-rule="evenodd" clip-rule="evenodd" d="M187.163 29.9997L187.004 30.9997H192.66L193.373 26.5337L197.635 30.9997H205.019L204.067 29.9997H203.097L203.236 29.1255L198.206 23.8403L204.858 18.8932L204.985 18.0957H205.931L207.276 17.0957H199.136L194.286 20.7509L194.866 17.0957H189.209L187.329 28.9531L187.727 29.9997H187.163ZM192.911 23.0397L193.695 18.0957H190.063L188.175 29.9997H191.807L192.703 24.3837L198.063 29.9997H202.687L196.703 23.7117L204.255 18.0957H199.471L192.911 23.0397Z" fill="#636366"/>
<path fill-rule="evenodd" clip-rule="evenodd" d="M182.158 25.1357H177.758L180.526 20.6717L182.158 25.1357ZM180.728 24.1357L180.293 22.9457L179.555 24.1357H180.728ZM183.15 27.8237L183.95 29.9997H187.726L183.198 18.0957H178.51L170.99 29.9997H174.75L176.094 27.8237H183.15ZM182.453 28.8237L183.253 30.9997H189.177L188.796 29.9997H188.175L188.358 28.8466L183.888 17.0957H177.959L169.176 30.9997H175.308L176.652 28.8237H182.453Z" fill="#636366"/>
<path fill-rule="evenodd" clip-rule="evenodd" d="M164.184 29.9997H167.864L169.304 20.9117H174.216L174.664 18.0957H161.144L160.712 20.9117H165.624L164.184 29.9997ZM164.453 21.9117L163.013 30.9997H168.718L170.158 21.9117H175.069L175.836 17.0957H160.286L159.547 21.9117H164.453Z" fill="#636366"/>
<path fill-rule="evenodd" clip-rule="evenodd" d="M137.521 20.9117C137.037 21.8561 136.856 22.7764 136.759 23.4377L136.757 23.4461C136.668 24.0905 136.668 24.546 136.668 24.9229V24.9277C136.668 26.1912 137.061 27.8084 138.454 29.0994C139.841 30.3832 142.07 31.2077 145.46 31.2077H146.148C149.987 31.2077 152.36 30.2179 153.807 28.7708C155.24 27.3375 155.6 25.6135 155.761 24.5305L155.762 24.5251C155.835 24.0121 155.852 23.5281 155.852 23.0877C155.852 21.8045 155.436 20.2052 154.029 18.94C152.633 17.6856 150.405 16.8877 147.044 16.8877H146.356C142.526 16.8877 140.157 17.8686 138.711 19.2907C138.326 19.6687 138.019 20.0667 137.772 20.4671L137.701 20.9117H137.521ZM137.668 24.9277C137.668 27.0557 138.98 30.2077 145.46 30.2077H146.148C153.492 30.2077 154.468 26.4317 154.772 24.3837C154.836 23.9357 154.852 23.5037 154.852 23.0877C154.852 20.9437 153.476 17.8877 147.044 17.8877H146.356C139.028 17.8877 138.036 21.6317 137.748 23.5837C137.668 24.1597 137.668 24.5597 137.668 24.9277ZM146.58 20.7677C150.116 20.7677 151.012 22.1597 151.012 23.4717C151.012 23.6957 150.996 23.8717 150.964 24.1117C150.772 25.5517 149.828 27.3117 145.94 27.3117C142.34 27.3117 141.556 25.7277 141.556 24.4317C141.556 24.2557 141.556 24.0957 141.572 23.8877C141.684 22.5277 142.628 20.7677 146.58 20.7677ZM142.569 23.9673C142.556 24.1318 142.556 24.2571 142.556 24.4317C142.556 24.8751 142.683 25.2827 143.052 25.6009C143.445 25.9409 144.266 26.3117 145.94 26.3117C147.744 26.3117 148.693 25.9028 149.199 25.4826C149.693 25.0721 149.898 24.5385 149.973 23.9795C150.001 23.766 150.012 23.6369 150.012 23.4717C150.012 23.0621 149.885 22.7072 149.512 22.4205C149.094 22.0991 148.242 21.7677 146.58 21.7677C144.739 21.7677 143.773 22.1789 143.27 22.591C142.786 22.9878 142.609 23.4864 142.569 23.9673Z" fill="#636366"/>
<path fill-rule="evenodd" clip-rule="evenodd" d="M127.668 29.9997H131.348L132.788 20.9117H137.7L138.148 18.0957H124.628L124.196 20.9117H129.108L127.668 29.9997ZM127.937 21.9117L126.497 30.9997H132.202L133.642 21.9117H138.167C138.277 21.6283 138.414 21.3392 138.585 21.0525C138.63 20.9785 138.677 20.9046 138.726 20.831L139.32 17.0957H123.77L123.031 21.9117H127.937Z" fill="#636366"/>
<path fill-rule="evenodd" clip-rule="evenodd" d="M108.762 29.9997H112.442L113.882 20.9117H118.794L119.242 18.0957H105.722L105.29 20.9117H110.202L108.762 29.9997ZM109.031 21.9117L107.591 30.9997H113.296L114.736 21.9117H119.648L120.414 17.0957H104.864L104.125 21.9117H109.031Z" fill="#636366"/>
<path fill-rule="evenodd" clip-rule="evenodd" d="M96.7036 18.0957L94.8156 29.9997H106.416L106.88 27.0397H98.9116L100.336 18.0957H96.7036ZM100.083 26.0397L101.507 17.0957H95.8497L93.6445 30.9997H107.271L108.049 26.0397H100.083Z" fill="#636366"/>
<path fill-rule="evenodd" clip-rule="evenodd" d="M95.0231 18.0957H91.3911L89.5031 29.9997H93.1351L95.0231 18.0957ZM96.1942 17.0957L93.989 30.9997H88.332L90.5372 17.0957H96.1942Z" fill="#636366"/>
<path fill-rule="evenodd" clip-rule="evenodd" d="M80.9175 30.1757H81.4615C87.2215 30.1757 88.5335 26.3677 88.9335 23.8397L89.8455 18.0957H86.1975L85.3175 23.6477C85.0775 25.1517 84.2295 27.0877 81.2535 27.0877C78.1175 27.0877 77.5735 25.1677 77.8295 23.5517L78.6935 18.0957H75.0455L74.1495 23.7437C73.7655 26.1437 74.7735 30.1757 80.9175 30.1757ZM73.162 23.5857L73.1618 23.587C72.9401 24.9747 73.1086 26.876 74.2828 28.4562C75.4894 30.0798 77.6149 31.1757 80.9175 31.1757H81.4615C84.5876 31.1757 86.6485 30.1289 87.9635 28.6103C89.2421 27.1336 89.7101 25.3301 89.9212 23.996L91.0168 17.0957H85.3435L84.33 23.4901C84.2255 24.1451 84.0024 24.7875 83.5732 25.2572C83.1747 25.6933 82.5017 26.0877 81.2535 26.0877C79.8887 26.0877 79.3266 25.679 79.0782 25.3375C78.7996 24.9544 78.7109 24.3789 78.8172 23.7082L79.8643 17.0957H74.1916L73.162 23.5857Z" fill="#636366"/>
<path fill-rule="evenodd" clip-rule="evenodd" d="M57.5188 29.9997H67.7108C71.6468 29.9997 72.9428 28.2557 72.9428 26.0477C72.9428 25.0475 72.5091 24.3812 72.0007 23.9516C71.5982 23.6115 71.1489 23.4196 70.8308 23.3277C71.1697 23.2347 71.6273 23.0616 72.0466 22.7717C72.6367 22.3638 73.1508 21.7245 73.1508 20.7517C73.1508 19.2477 72.2388 18.0957 69.1668 18.0957H59.4068L57.5188 29.9997ZM72.8762 23.3985C72.8996 23.3795 72.9228 23.3601 72.946 23.3403C73.6014 22.7808 74.1508 21.9309 74.1508 20.7517C74.1508 19.7841 73.8453 18.7864 72.9247 18.0704C72.0572 17.3956 70.7964 17.0957 69.1668 17.0957H58.5529L56.3477 30.9997H67.7108C69.8059 30.9997 71.3911 30.5381 72.4602 29.6052C73.554 28.6508 73.9428 27.3498 73.9428 26.0477C73.9428 24.8299 73.4655 23.9787 72.8762 23.3985ZM69.4228 21.4717C69.4228 21.9677 69.0868 22.5437 67.9988 22.5437H62.3348L62.6388 20.6077H68.2708C69.2148 20.6077 69.4228 21.0077 69.4228 21.4717ZM69.1668 26.0957C69.1668 26.6077 68.8628 27.4077 67.5348 27.4077H61.5668L61.9348 25.0717H67.8548C68.9588 25.0717 69.1668 25.5837 69.1668 26.0957ZM62.7896 26.0717L62.7366 26.4077H67.5348C67.9844 26.4077 68.0996 26.2811 68.1112 26.2684C68.1406 26.2363 68.1662 26.1751 68.1667 26.0981C68.1041 26.0847 68.004 26.0717 67.8548 26.0717H62.7896Z" fill="#636366"/>
<path fill-rule="evenodd" clip-rule="evenodd" d="M35.7375 29.9997H43.8975C50.4255 30.0157 52.1215 26.9917 52.5215 24.6877C52.6015 24.2237 52.6495 23.7277 52.6495 23.1997C52.6495 20.6077 50.9695 18.0957 44.8095 18.0957H37.6255L35.7375 29.9997ZM40.7935 20.9117H44.5855C48.1535 20.9117 48.8095 22.3357 48.8095 23.5517C48.8095 23.7597 48.7775 24.0317 48.7295 24.2717C48.4895 25.5037 47.6575 27.1357 43.5935 27.1357H39.8015L40.7935 20.9117ZM40.9735 26.1357H43.5935C45.5086 26.1357 46.4871 25.7487 46.9938 25.367C47.4739 25.0053 47.6557 24.5542 47.748 24.0805L47.7489 24.0756C47.7879 23.8809 47.8095 23.6767 47.8095 23.5517C47.8095 23.1288 47.7036 22.8007 47.3956 22.5441C47.045 22.2522 46.2664 21.9117 44.5855 21.9117H41.6467L40.9735 26.1357ZM34.5664 30.9997L36.7716 17.0957H44.8095C48.001 17.0957 50.2239 17.7426 51.6642 18.8948C53.144 20.0787 53.6495 21.6743 53.6495 23.1997C53.6495 23.7887 53.5959 24.3417 53.507 24.8576L53.5068 24.8588C53.2783 26.1745 52.6663 27.7554 51.1359 28.9916C49.613 30.2217 47.3078 31.0078 43.8966 30.9997H34.5664Z" fill="#636366"/>
<path fill-rule="evenodd" clip-rule="evenodd" d="M18.1313 29.9997L17.9727 30.9997H23.5827L24.6297 24.3467L30.0104 30.9997H34.9097L37.1149 17.0957H31.5044L30.525 23.3382L25.5623 17.0957H20.1779L18.2973 28.953L18.6954 29.9997H18.1313ZM31.1598 25.7437L25.0798 18.0957H21.0318L19.1438 29.9997H22.7278L23.9918 21.9677L30.4878 29.9997H34.0558L35.9438 18.0957H32.3598L31.1598 25.7437Z" fill="#636366"/>
<path fill-rule="evenodd" clip-rule="evenodd" d="M13.1271 25.1357H8.72708L11.4951 20.6717L13.1271 25.1357ZM11.6968 24.1357L11.2617 22.9457L10.5238 24.1357H11.6968ZM14.1191 27.8237L14.9191 29.9997H18.6951L14.1671 18.0957H9.47908L1.95907 29.9997H5.71908L7.06308 27.8237H14.1191ZM13.4213 28.8237L14.2213 30.9997H20.1454L19.765 29.9997H19.1434L19.3263 28.8465L14.8566 17.0957H8.92797L0.144531 30.9997H6.27679L7.6208 28.8237H13.4213Z" fill="#636366"/>
<path fill-rule="evenodd" clip-rule="evenodd" d="M179.164 7.44613L179.165 7.43773C179.262 6.77637 179.444 5.85607 179.928 4.9117H180.107L180.178 4.46706C180.425 4.06672 180.733 3.66866 181.117 3.29067C182.563 1.8686 184.933 0.887695 188.762 0.887695H189.45C192.811 0.887695 195.039 1.68557 196.435 2.94001C197.842 4.20524 198.258 5.80446 198.258 7.0877C198.258 7.52812 198.241 8.01205 198.168 8.52512L198.167 8.53053C198.007 9.6135 197.647 11.3375 196.213 12.7708C194.766 14.2179 192.393 15.2077 188.554 15.2077H187.866C184.476 15.2077 182.247 14.3832 180.861 13.0994C179.467 11.8084 179.074 10.1912 179.074 8.9277V8.92292C179.074 8.54598 179.074 8.09051 179.164 7.44613ZM191.919 6.4205C191.501 6.09909 190.648 5.7677 188.986 5.7677C187.145 5.7677 186.179 6.17889 185.676 6.591C185.192 6.98775 185.015 7.48642 184.975 7.96729C184.962 8.13176 184.962 8.25715 184.962 8.4317C184.962 8.87511 185.089 9.28269 185.458 9.60093C185.851 9.94088 186.672 10.3117 188.346 10.3117C190.15 10.3117 191.099 9.90284 191.605 9.48263C192.099 9.0721 192.304 8.53854 192.379 7.97953C192.407 7.76602 192.418 7.63692 192.418 7.4717C192.418 7.06207 192.292 6.70724 191.919 6.4205ZM183.978 7.8877C184.09 6.5277 185.034 4.7677 188.986 4.7677C192.522 4.7677 193.418 6.1597 193.418 7.4717C193.418 7.6957 193.402 7.8717 193.37 8.1117C193.178 9.5517 192.234 11.3117 188.346 11.3117C184.746 11.3117 183.962 9.7277 183.962 8.4317C183.962 8.2557 183.962 8.0957 183.978 7.8877ZM180.074 8.9277C180.074 11.0557 181.386 14.2077 187.866 14.2077H188.554C195.898 14.2077 196.874 10.4317 197.178 8.3837C197.242 7.9357 197.258 7.5037 197.258 7.0877C197.258 4.9437 195.882 1.8877 189.45 1.8877H188.762C181.434 1.8877 180.442 5.6317 180.154 7.5837C180.074 8.1597 180.074 8.5597 180.074 8.9277Z" fill="#636366"/>
<path fill-rule="evenodd" clip-rule="evenodd" d="M168.904 14.9997L170.344 5.9117H165.438L166.176 1.0957H181.726L181.132 4.831C181.083 4.90458 181.036 4.97847 180.992 5.05252C180.82 5.33917 180.683 5.62826 180.573 5.9117H176.049L174.609 14.9997H168.904ZM175.195 4.9117H180.107L180.555 2.0957H167.035L166.603 4.9117H171.515L170.075 13.9997H173.755L175.195 4.9117Z" fill="#636366"/>
<path fill-rule="evenodd" clip-rule="evenodd" d="M148.568 1.0957H162.563L161.811 5.7997H161.612L160.9 10.2797H152.756L152.004 14.9997H146.363L148.568 1.0957ZM151.902 9.2797H160.046L160.478 6.5597H152.334L152.606 4.7997H160.958L161.39 2.0957H149.422L147.534 13.9997H151.15L151.902 9.2797Z" fill="#636366"/>
<path fill-rule="evenodd" clip-rule="evenodd" d="M129.203 9.71003C129.346 10.8154 129.82 12.0626 130.939 13.0994C132.325 14.3832 134.555 15.2077 137.945 15.2077H138.633C142.472 15.2077 144.845 14.2179 146.292 12.7708C147.725 11.3375 148.085 9.6135 148.246 8.53053L148.247 8.52512C148.32 8.01205 148.337 7.52812 148.337 7.0877C148.337 5.80446 147.921 4.20524 146.513 2.94001C145.118 1.68557 142.89 0.887695 139.529 0.887695H138.841C135.011 0.887695 132.642 1.8686 131.196 3.29067C130.234 4.23616 129.754 5.30722 129.495 6.22539C129.549 6.52226 129.571 6.81249 129.571 7.0877C129.571 7.21862 129.57 7.35113 129.565 7.48523C129.565 7.48715 129.565 7.48906 129.565 7.49098C129.556 7.78114 129.535 8.07871 129.491 8.3837C129.466 8.55412 129.436 8.73651 129.398 8.9277C129.349 9.17596 129.286 9.43905 129.203 9.71003ZM141.997 6.4205C141.579 6.09909 140.727 5.7677 139.065 5.7677C137.224 5.7677 136.257 6.17889 135.755 6.591C135.271 6.98775 135.094 7.48642 135.054 7.96729C135.041 8.13176 135.041 8.25715 135.041 8.4317C135.041 8.87511 135.168 9.28269 135.536 9.60093C135.93 9.94088 136.751 10.3117 138.425 10.3117C140.229 10.3117 141.178 9.90284 141.684 9.48263C142.178 9.0721 142.383 8.53854 142.458 7.97953C142.486 7.76602 142.497 7.63692 142.497 7.4717C142.497 7.06207 142.37 6.70724 141.997 6.4205ZM134.057 7.8877C134.169 6.5277 135.113 4.7677 139.065 4.7677C142.601 4.7677 143.497 6.1597 143.497 7.4717C143.497 7.6957 143.481 7.8717 143.449 8.1117C143.257 9.5517 142.313 11.3117 138.425 11.3117C134.825 11.3117 134.041 9.7277 134.041 8.4317C134.041 8.2557 134.041 8.0957 134.057 7.8877ZM130.153 8.9277C130.153 11.0557 131.465 14.2077 137.945 14.2077H138.633C145.977 14.2077 146.953 10.4317 147.257 8.3837C147.321 7.9357 147.337 7.5037 147.337 7.0877C147.337 4.9437 145.961 1.8877 139.529 1.8877H138.841C131.513 1.8877 130.521 5.6317 130.233 7.5837C130.153 8.1597 130.153 8.5597 130.153 8.9277Z" fill="#636366"/>
<path fill-rule="evenodd" clip-rule="evenodd" d="M111.476 7.44613L111.477 7.43773C111.518 7.16592 111.572 6.85038 111.655 6.50741C111.896 6.15 112.061 5.71954 112.099 5.20386C112.389 4.56374 112.809 3.90104 113.43 3.29067C114.876 1.8686 117.245 0.887695 121.075 0.887695H121.763C125.124 0.887695 127.352 1.68557 128.747 2.94001C129.877 3.9553 130.368 5.18565 130.518 6.29521C130.43 6.57137 130.366 6.83821 130.317 7.0877C130.283 7.26248 130.255 7.42873 130.232 7.5837C130.183 7.93731 130.164 8.2246 130.157 8.47887C130.157 8.4801 130.157 8.48134 130.157 8.48257C130.152 8.64104 130.152 8.78672 130.152 8.9277C130.152 9.19813 130.174 9.48511 130.224 9.78006C129.964 10.7208 129.486 11.811 128.526 12.7708C127.079 14.2179 124.706 15.2077 120.867 15.2077H120.179C116.789 15.2077 114.559 14.3832 113.173 13.0994C111.779 11.8084 111.387 10.1912 111.387 8.9277V8.92311C111.387 8.54613 111.387 8.09062 111.476 7.44613ZM124.231 6.4205C123.813 6.09909 122.961 5.7677 121.299 5.7677C119.457 5.7677 118.491 6.17889 117.989 6.591C117.505 6.98775 117.328 7.48642 117.288 7.9673C117.275 8.13176 117.275 8.25715 117.275 8.4317C117.275 8.87511 117.402 9.28269 117.77 9.60093C118.164 9.94088 118.985 10.3117 120.659 10.3117C122.463 10.3117 123.412 9.90284 123.918 9.48263C124.412 9.0721 124.617 8.53854 124.691 7.97953C124.72 7.76602 124.731 7.63692 124.731 7.4717C124.731 7.06207 124.604 6.70724 124.231 6.4205ZM112.387 8.9277C112.387 11.0557 113.699 14.2077 120.179 14.2077H120.867C128.211 14.2077 129.187 10.4317 129.491 8.3837C129.555 7.9357 129.571 7.5037 129.571 7.0877C129.571 4.9437 128.195 1.8877 121.763 1.8877H121.075C113.747 1.8877 112.755 5.6317 112.467 7.5837C112.387 8.1597 112.387 8.5597 112.387 8.9277ZM121.299 4.7677C124.835 4.7677 125.731 6.1597 125.731 7.4717C125.731 7.6957 125.715 7.8717 125.683 8.1117C125.491 9.5517 124.547 11.3117 120.659 11.3117C117.059 11.3117 116.275 9.7277 116.275 8.4317C116.275 8.2557 116.275 8.0957 116.291 7.8877C116.403 6.5277 117.347 4.7677 121.299 4.7677Z" fill="#636366"/>
<path fill-rule="evenodd" clip-rule="evenodd" d="M98.188 2.0957H107.628C111.116 2.0957 112.108 3.4237 112.108 4.9757C112.108 6.15676 111.462 6.92251 110.72 7.39989C110.306 7.66624 109.862 7.84283 109.484 7.9517C109.918 8.08564 110.329 8.28569 110.651 8.57514C111.136 9.01182 111.42 9.65199 111.276 10.5757L110.956 12.5757C110.932 12.7354 110.916 12.8757 110.906 12.9997C110.868 13.4666 110.917 13.7009 110.956 13.8566C110.959 13.868 110.962 13.8789 110.964 13.8895C110.967 13.8999 110.97 13.91 110.972 13.9197L110.956 13.9997H107.26C107.196 13.8717 107.148 13.6957 107.228 13.1997L107.436 11.8877C107.66 10.4797 107.132 9.7757 105.292 9.7757H100.604L99.932 13.9997H96.3L98.188 2.0957ZM101.457 10.7757L100.785 14.9997H95.1289L97.3341 1.0957H107.628C109.47 1.0957 110.85 1.44125 111.786 2.16099C112.773 2.92027 113.108 3.96926 113.108 4.9757C113.108 5.14722 113.098 5.31194 113.079 5.47012C112.836 5.97061 112.686 6.4666 112.588 6.91522C112.305 7.38119 111.933 7.75316 111.537 8.04711C111.577 8.09126 111.617 8.1369 111.655 8.18408C112.195 8.85 112.423 9.71498 112.264 10.7301L112.263 10.7337L111.945 12.725C111.945 12.7264 111.944 12.7278 111.944 12.7292C111.889 13.0981 111.888 13.31 111.896 13.4259C111.902 13.5185 111.913 13.5622 111.933 13.6428C111.936 13.6535 111.939 13.6649 111.942 13.6772L111.997 13.8953L111.776 14.9997H106.642L106.366 14.4469C106.169 14.0539 106.145 13.6372 106.24 13.0431M106.241 13.0405L106.448 11.7311C106.544 11.1306 106.422 11.002 106.413 10.9922C106.374 10.9511 106.144 10.7757 105.292 10.7757H101.457M102.182 6.1357H106.54C106.96 6.1357 107.11 6.02355 107.146 5.99078C107.18 5.95953 107.204 5.91603 107.204 5.8397C107.204 5.83756 107.204 5.83547 107.204 5.83345C107.148 5.81807 107.046 5.7997 106.876 5.7997H102.237L102.182 6.1357ZM106.54 7.1357C107.74 7.1357 108.204 6.4797 108.204 5.8397C108.204 5.2317 107.852 4.7997 106.876 4.7997H101.388L101.004 7.1357H106.54Z" fill="#636366"/>
<path fill-rule="evenodd" clip-rule="evenodd" d="M85.5493 14.9997H79.8945L82.0997 1.0957H91.3536C93.4004 1.0957 94.9577 1.47602 96.0172 2.30362C97.1284 3.17157 97.5216 4.39228 97.5216 5.6477C97.5216 6.75401 97.2545 8.14638 96.1719 9.25755C95.0848 10.3733 93.3456 11.0317 90.7776 11.0317H86.1893L85.5493 14.9997ZM85.3376 10.0317H90.7776C95.5936 10.0317 96.5216 7.5677 96.5216 5.6477C96.5216 3.5677 95.2576 2.0957 91.3536 2.0957H82.9536L81.0656 13.9997H84.6976L85.3376 10.0317ZM86.9133 6.3597H90.7616C91.3006 6.3597 91.5053 6.2359 91.5626 6.18727C91.594 6.16057 91.6496 6.10452 91.6496 5.9037C91.6496 5.88854 91.6491 5.87593 91.6483 5.86564C91.6306 5.85854 91.6052 5.84986 91.5701 5.84109C91.4796 5.81848 91.3424 5.7997 91.1456 5.7997H87.0042L86.9133 6.3597ZM90.7616 7.3597C92.1056 7.3597 92.6496 6.7517 92.6496 5.9037C92.6496 5.1837 92.1696 4.7997 91.1456 4.7997H86.1536L85.7376 7.3597H90.7616Z" fill="#636366"/>
<path fill-rule="evenodd" clip-rule="evenodd" d="M67.1724 2.0957H76.6124C80.1004 2.0957 81.0924 3.4237 81.0924 4.9757C81.0924 6.15676 80.4464 6.92251 79.7044 7.39989C79.2904 7.66624 78.8466 7.84283 78.4684 7.9517C78.9021 8.08564 79.3129 8.28569 79.635 8.57514C80.1208 9.01182 80.4047 9.65199 80.2604 10.5757L79.9404 12.5757C79.9163 12.7354 79.9001 12.8757 79.8901 12.9997C79.8523 13.4666 79.9014 13.7009 79.9404 13.8566C79.9432 13.868 79.946 13.8789 79.9487 13.8895C79.9514 13.8999 79.9539 13.91 79.9564 13.9197L79.9404 13.9997H76.2444C76.1804 13.8717 76.1324 13.6957 76.2124 13.1997L76.4204 11.8877C76.6444 10.4797 76.1164 9.7757 74.2764 9.7757H69.5884L68.9164 13.9997H65.2844L67.1724 2.0957ZM70.4419 10.7757L69.7699 14.9997H64.1133L66.3185 1.0957H76.6124C78.4543 1.0957 79.834 1.44125 80.77 2.16099C81.7573 2.92027 82.0924 3.96926 82.0924 4.9757C82.0924 6.45112 81.3607 7.42427 80.5213 8.04711C80.5617 8.09126 80.601 8.1369 80.6393 8.18408C81.179 8.85 81.407 9.71498 81.2484 10.7301L81.2478 10.7337L80.9292 12.725C80.929 12.7264 80.9288 12.7278 80.9285 12.7292C80.8731 13.0981 80.8722 13.31 80.8801 13.4259C80.8864 13.5185 80.8974 13.5622 80.9179 13.6428C80.9206 13.6535 80.9235 13.6649 80.9265 13.6772L80.9811 13.8953L80.7602 14.9997H75.6264L75.35 14.4469C75.1534 14.0539 75.1292 13.6372 75.2247 13.0431M75.2251 13.0405L75.4327 11.7311C75.5282 11.1306 75.4064 11.002 75.3971 10.9922C75.3581 10.9511 75.1288 10.7757 74.2764 10.7757H70.4419M71.1662 6.1357H75.5244C75.9441 6.1357 76.0947 6.02355 76.1304 5.99078C76.1645 5.95953 76.1884 5.91603 76.1884 5.8397C76.1884 5.83756 76.1884 5.83547 76.1883 5.83345C76.1328 5.81807 76.0308 5.7997 75.8604 5.7997H71.2214L71.1662 6.1357ZM75.5244 7.1357C76.7244 7.1357 77.1884 6.4797 77.1884 5.8397C77.1884 5.2317 76.8364 4.7997 75.8604 4.7997H70.3724L69.9884 7.1357H75.5244Z" fill="#636366"/>
<path fill-rule="evenodd" clip-rule="evenodd" d="M52.5529 1.0957H66.7712L66.0197 5.7997H65.836L65.1321 10.2317H65.4549L64.7108 14.9997H50.3477L52.5529 1.0957ZM55.8548 9.2797H64.2708L64.7028 6.5597H56.2868L56.5588 4.7997H65.1668L65.5988 2.0957H53.4068L51.5188 13.9997H63.8548L64.2868 11.2317H55.5348L55.8548 9.2797Z" fill="#636366"/>
<path fill-rule="evenodd" clip-rule="evenodd" d="M40.5756 14.9997L42.0156 5.9117H37.1094L37.8482 1.0957H53.3982L52.632 5.9117H47.7205L46.2805 14.9997H40.5756ZM46.8665 4.9117H51.7785L52.2265 2.0957H38.7065L38.2745 4.9117H43.1865L41.7465 13.9997H45.4265L46.8665 4.9117Z" fill="#636366"/>
<path fill-rule="evenodd" clip-rule="evenodd" d="M22.6153 13.9997L30.1353 2.0957H34.8233L39.3513 13.9997H35.5753L34.7753 11.8237H27.7193L26.3753 13.9997H22.6153ZM28.277 12.8237L26.933 14.9997H20.8008L29.5842 1.0957H35.5128L40.8016 14.9997H34.8775L34.0775 12.8237H28.277ZM32.1513 4.6717L29.3833 9.1357H33.7833L32.1513 4.6717ZM31.9179 6.94568L31.18 8.1357H32.353L31.9179 6.94568Z" fill="#636366"/>
<path fill-rule="evenodd" clip-rule="evenodd" d="M11.6864 14.9997H6.24269L2.61719 1.0957H8.53959L10.0057 7.19837L12.7352 1.0957H18.0582L19.2482 7.00971L22.223 1.0957H28.1704L20.7512 14.9997H15.6647L14.3972 9.14381L11.6864 14.9997ZM11.0474 13.9997H7.01538L3.91138 2.0957H7.75138L9.71938 10.2877L13.3834 2.0957H17.2394L18.8394 10.0477L22.8394 2.0957H26.5034L20.1514 13.9997H16.4714L14.7434 6.0157L11.0474 13.9997Z" fill="#636366"/>
</svg>
