<svg width="124" height="137" viewBox="0 0 124 137" fill="none" xmlns="http://www.w3.org/2000/svg">
<path d="M117.242 28.4623C117.464 28.0783 117.685 27.1823 117.907 25.7743C118.184 24.3343 118.323 23.1663 118.323 22.2703C118.323 21.4383 118.184 21.1023 117.907 21.2623C117.63 21.4223 117.491 22.0463 117.491 23.1343V23.7103C117.491 24.2863 117.464 24.9423 117.408 25.6783C117.353 26.4143 117.297 26.9903 117.242 27.4063C117.187 27.8223 117.159 28.1263 117.159 28.3183C117.159 28.4463 117.187 28.4943 117.242 28.4623ZM115.829 53.0863C115.884 52.9903 115.912 52.8783 115.912 52.7503C115.912 52.6223 115.884 52.4783 115.829 52.3183L115.746 52.1743C115.69 52.3343 115.662 52.5743 115.662 52.8943C115.662 53.0863 115.69 53.1663 115.746 53.1343L115.829 53.0863ZM115.496 54.8143L115.579 54.3823L115.413 53.9023C115.358 53.9343 115.33 54.1103 115.33 54.4303C115.33 54.7503 115.358 54.8943 115.413 54.8623L115.496 54.8143ZM115.08 56.8783C115.191 56.8143 115.247 56.6223 115.247 56.3023C115.247 55.8543 115.191 55.6623 115.08 55.7263C115.025 55.7583 114.997 55.9663 114.997 56.3503C114.997 56.7343 115.025 56.9103 115.08 56.8783ZM95.7923 68.5903C95.9586 68.4943 96.5128 67.7583 97.4551 66.3823C98.4527 64.9103 99.6167 63.0543 100.947 60.8143C104.217 55.1503 107.709 48.4623 111.422 40.7503C111.533 40.5583 111.644 40.3023 111.755 39.9823L112.919 37.6783C114.859 33.7423 115.829 31.4223 115.829 30.7183C115.829 30.3983 115.662 30.3343 115.33 30.5263L115.164 30.6223C114.886 30.7823 114.748 30.5743 114.748 29.9983C114.748 29.6143 114.831 28.9903 114.997 28.1263L115.08 27.3103C115.08 26.7343 115.025 26.4783 114.914 26.5423C114.692 26.4143 114.582 26.1263 114.582 25.6783C114.582 25.4863 114.526 25.4223 114.415 25.4863C114.194 25.6783 113.473 26.8303 112.254 28.9423C106.434 39.2143 101.501 50.4783 97.4551 62.7343C96.2911 66.2223 95.7091 68.1583 95.7091 68.5423C95.7091 68.6063 95.7369 68.6223 95.7923 68.5903ZM94.7946 75.4063C94.9609 75.3103 95.2103 75.1343 95.5429 74.8783C95.8754 74.6863 96.1803 74.4463 96.4574 74.1583C96.7345 73.8703 96.8731 73.6943 96.8731 73.6303C96.8731 73.5663 96.6237 73.6463 96.1248 73.8703L96.0417 73.9183C95.6537 74.1423 95.3212 74.3983 95.044 74.6863C94.7115 75.0063 94.5452 75.2303 94.5452 75.3583C94.5452 75.4223 94.6283 75.4383 94.7946 75.4063ZM115.496 21.0223C115.552 20.9903 115.579 20.8463 115.579 20.5903C115.579 19.6303 115.136 19.4063 114.249 19.9183C113.528 20.3343 112.697 21.1343 111.755 22.3183C111.201 23.0223 110.923 23.4063 110.923 23.4703C110.979 23.4383 111.062 23.3583 111.173 23.2303C111.339 23.0703 111.699 22.7983 112.254 22.4143L113.168 21.6943C114.277 21.0543 114.914 20.8143 115.08 20.9743C115.302 21.0383 115.441 21.0543 115.496 21.0223ZM113.75 65.9023L111.09 65.8063C111.145 64.7503 111.173 63.7423 111.173 62.7823C111.173 61.8863 111.284 60.6063 111.505 58.9423C111.727 57.2143 111.977 55.5343 112.254 53.9023C112.531 52.2063 112.753 50.8623 112.919 49.8703C113.085 48.8143 113.168 48.1903 113.168 47.9983V47.9023C113.057 47.9663 112.337 49.2783 111.007 51.8383C107.903 58.1103 105.021 63.1983 102.36 67.1023C101.584 68.1903 100.725 69.3263 99.7829 70.5103C97.4551 73.4543 96.014 75.0863 95.4597 75.4063C95.3489 75.4703 94.9886 75.5503 94.3789 75.6463C93.7693 75.7423 93.1319 75.7583 92.4667 75.6943C91.0257 75.6943 90.1112 75.4223 89.7232 74.8783C89.5015 74.6223 89.3906 74.1743 89.3906 73.5343C89.3906 73.0223 89.4738 72.3663 89.64 71.5663C90.5269 66.7663 92.5776 60.3343 95.7923 52.2703C99.007 44.2063 102.471 36.8303 106.185 30.1423C109.621 24.0623 112.254 20.4943 114.083 19.4383C114.803 19.0223 115.302 19.1183 115.579 19.7263C115.912 20.2383 116.189 20.4303 116.411 20.3023L116.66 20.1583C116.937 19.9983 117.353 19.9183 117.907 19.9183C118.517 19.8223 119.016 19.9503 119.404 20.3023C119.792 20.5903 119.986 20.9903 119.986 21.5023C119.986 21.9503 119.847 23.2783 119.57 25.4863L119.404 26.5423C119.404 26.7983 119.542 27.0383 119.819 27.2623C120.152 27.3903 120.54 27.3263 120.983 27.0703C121.205 26.9423 121.371 26.7823 121.482 26.5903C121.648 26.3023 121.815 26.1103 121.981 26.0143C122.092 25.9503 122.424 25.9183 122.979 25.9183C123.588 26.1423 123.893 26.3503 123.893 26.5423C123.893 27.3103 123.089 30.7823 121.482 36.9583C120.096 42.2383 118.849 47.8223 117.741 53.7103C116.799 58.4783 116.327 61.5983 116.327 63.0703C116.327 63.7103 116.217 64.0943 115.995 64.2223L115.33 64.4143L114.831 64.7023C114.72 64.7663 114.665 64.1263 114.665 62.7823V61.1503L114.831 58.3663C114.831 58.1103 114.803 57.9983 114.748 58.0303C114.637 58.0943 114.304 60.7183 113.75 65.9023Z" fill="#215FF6"/>
<path d="M80.5098 39.7819C80.676 39.6859 80.7592 39.3179 80.7592 38.6779L80.676 38.6299L80.5098 38.9179C80.3989 39.0459 80.3435 39.2059 80.3435 39.3979C80.3435 39.4619 80.3435 39.5579 80.3435 39.6859C80.3989 39.7819 80.4543 39.8139 80.5098 39.7819ZM92.648 38.4379L92.1491 37.4779C91.8166 36.9019 91.5395 36.6779 91.3178 36.8059C91.2069 36.8699 91.0683 36.9819 90.9021 37.1419C90.7358 37.3019 90.5972 37.4139 90.4864 37.4779L90.4032 37.5259C90.4032 37.7179 90.7081 37.9579 91.3178 38.2459C91.9274 38.5339 92.3709 38.5979 92.648 38.4379ZM96.1398 41.8939L96.2229 41.7499L95.4747 40.9339L95.3915 40.9819C95.3915 41.1099 95.4747 41.3179 95.641 41.6059C95.8627 41.8619 96.0012 41.9739 96.0567 41.9419L96.1398 41.8939ZM100.546 40.3099C101.156 39.9579 101.71 39.6059 102.209 39.2539C102.708 38.8379 103.04 38.5499 103.207 38.3899L103.373 38.1979C103.373 38.0699 102.68 38.4059 101.294 39.2059C99.9087 40.0059 98.9665 40.4539 98.4677 40.5499L98.052 40.6939C98.052 41.3979 98.8834 41.2699 100.546 40.3099ZM102.209 43.1899C101.987 43.1899 101.738 43.2379 101.461 43.3339C101.239 43.3339 100.99 43.3819 100.712 43.4779C100.435 43.5099 99.9919 43.7019 99.3822 44.0539C99.9919 44.0859 100.435 44.0539 100.712 43.9579C101.045 43.8299 101.544 43.5739 102.209 43.1899ZM79.9278 58.4539L80.1772 58.1179C80.2881 57.9259 80.3989 57.6699 80.5098 57.3499C80.676 56.9979 80.7592 56.7579 80.7592 56.6299C80.7592 56.5019 80.7038 56.4699 80.5929 56.5339C80.5375 56.5659 80.3989 56.7419 80.1772 57.0619C80.0109 57.3499 79.9278 57.7819 79.9278 58.3579V58.4539ZM72.7779 87.9259C72.7225 87.9579 72.6116 87.9259 72.4453 87.8299C72.0019 87.8299 71.5585 87.7019 71.1151 87.4459C70.9488 87.4139 70.838 87.4139 70.7826 87.4459C70.6717 87.5099 70.1452 87.4619 69.2029 87.3019C68.2053 87.2379 67.6233 86.9979 67.457 86.5819C67.457 84.4699 67.9281 81.0619 68.8704 76.3579C69.8126 71.6539 71.0874 66.2779 72.6947 60.2299C75.2998 50.1499 77.4336 43.6059 79.0964 40.5979C79.8169 39.2219 80.3712 38.4219 80.7592 38.1979C80.9809 38.0699 81.0917 38.1979 81.0917 38.5819C81.0917 39.2219 81.2026 39.6699 81.4243 39.9259C81.7014 40.4059 82.0617 40.5179 82.5051 40.2619C82.6159 40.1979 82.7268 40.1019 82.8376 39.9739C82.9485 39.7819 83.0871 39.6379 83.2533 39.5419C83.4196 39.4459 84.057 39.5899 85.1655 39.9739L84.7498 42.0379C84.4727 43.1579 84.251 43.7659 84.0847 43.8619C83.9184 43.9579 83.669 44.5179 83.3365 45.5419C82.6714 47.6539 82.034 50.0699 81.4243 52.7899L81.1749 54.5659L81.258 54.5179C81.646 54.2939 82.7822 52.1019 84.6667 47.9419C87.9922 40.6459 90.2093 36.6779 91.3178 36.0379C91.7612 35.9739 92.1491 36.2299 92.4817 36.8059C92.7588 37.1579 93.3962 37.4619 94.3939 37.7179C95.1698 37.7819 95.9181 38.1819 96.6386 38.9179C96.9712 39.4299 97.3037 39.7179 97.6363 39.7819C98.4122 39.9099 99.493 39.5739 100.879 38.7739C102.763 37.6859 104.287 36.6139 105.451 35.5579C105.451 35.6219 105.257 35.9259 104.869 36.4699C104.481 36.9499 104.287 37.2539 104.287 37.3819C104.287 37.6379 104.564 37.6059 105.119 37.2859C105.728 36.9339 106.227 36.8699 106.615 37.0939C106.837 37.4139 107.142 37.4619 107.53 37.2379C107.585 37.1419 107.668 37.0619 107.779 36.9979C107.89 36.9339 108.029 36.9179 108.195 36.9499C108.417 36.9499 108.611 37.0619 108.777 37.2859C108.999 37.4139 109.137 37.5579 109.193 37.7179C109.193 37.9099 109.026 38.1979 108.694 38.5819C107.862 39.6379 106.892 40.5499 105.784 41.3179C104.897 41.8299 104.454 42.1819 104.454 42.3739C104.454 42.5659 104.038 42.9019 103.207 43.3819C102.209 43.9579 101.378 44.4059 100.712 44.7259C100.103 44.9499 99.6593 45.0779 99.3822 45.1099C99.1051 45.0779 98.6339 44.9659 97.9688 44.7739C97.3037 44.5179 96.6109 44.2139 95.8904 43.8619C95.1698 43.4459 94.5602 43.1899 94.0613 43.0939C93.6179 42.9659 93.3131 42.9499 93.1468 43.0459C92.648 43.3339 90.4032 48.1179 86.4126 57.3979C83.1979 64.8859 79.8447 72.9339 76.3528 81.5419C75.7986 82.9499 75.1335 84.3259 74.3575 85.6699C73.5816 87.0139 73.055 87.7659 72.7779 87.9259Z" fill="#215FF6"/>
<path d="M59.277 101.77C59.2216 101.802 59.0276 101.786 58.695 101.722C58.4179 101.626 58.0577 101.45 57.6143 101.194C57.1708 100.938 56.7274 100.714 56.284 100.522C55.8406 100.394 55.5081 100.266 55.2864 100.138C54.3996 100.01 53.9562 98.7298 53.9562 96.2978C53.9562 93.6738 54.4827 89.7218 55.5358 84.4418C57.5311 73.9458 61.8266 59.8498 68.4222 42.1538C67.4246 42.7298 66.7318 43.1618 66.3438 43.4498C64.2376 44.7938 63.0182 45.5618 62.6857 45.7538C62.4086 45.9138 62.27 46.0578 62.27 46.1858V46.2818C62.27 46.3458 62.1592 46.4418 61.9375 46.5698C60.3855 47.4658 59.1939 48.1858 58.3625 48.7298C54.649 51.4498 51.7114 53.4338 49.5498 54.6818C47.9979 55.5778 47.1665 55.9298 47.0557 55.7378C47.0557 55.4178 47.2774 55.0018 47.7208 54.4898C48.1088 54.2018 48.3027 54.0258 48.3027 53.9618C48.3027 53.8978 48.0533 53.9778 47.5545 54.2018C47.0557 54.4258 46.6123 54.1378 46.2243 53.3378C46.0026 53.0178 45.864 52.7458 45.8086 52.5218C45.8086 52.2658 45.8363 52.0898 45.8917 51.9938C46.058 51.4498 47.8871 49.8498 51.3789 47.1938C54.0393 45.1458 56.672 43.2098 59.277 41.3858C63.1568 38.7618 67.3137 36.0738 71.7478 33.3218C73.3551 29.2578 74.7685 25.8178 75.9878 23.0018C77.2626 20.0898 78.0109 18.5698 78.2326 18.4418C78.5097 18.2818 78.7037 17.9778 78.8146 17.5298C78.9808 17.0498 79.1748 16.7458 79.3965 16.6178C79.5074 16.6178 79.5628 16.9058 79.5628 17.4818C79.5074 17.6418 79.4797 17.8178 79.4797 18.0098C79.4797 18.3298 79.5628 18.6338 79.7291 18.9218C79.8954 19.2098 80.0893 19.3858 80.311 19.4498C80.5882 19.4818 80.7822 19.4658 80.893 19.4018C81.0593 19.3058 81.1979 19.1618 81.3087 18.9698C81.475 18.7458 81.6135 18.6018 81.7244 18.5378C81.8907 18.4418 82.057 18.4418 82.2232 18.5378C82.4449 18.6018 82.6112 18.7938 82.7221 19.1138C82.8329 19.4338 82.8883 19.7858 82.8883 20.1698C82.8883 20.8098 82.0847 23.4818 80.4773 28.1858C84.6342 25.7858 88.6803 23.5778 92.6155 21.5618C101.317 17.1778 105.668 15.3698 105.668 16.1378C105.668 16.2658 105.502 16.5538 105.169 17.0018C104.892 17.3538 104.754 17.7218 104.754 18.1058C104.754 18.6178 105.031 18.8418 105.585 18.7778C106.417 18.7458 106.832 19.2738 106.832 20.3618L102.675 22.6658C97.5761 25.2898 93.6963 27.3698 91.0359 28.9058L81.7244 34.1858L77.5675 36.6818C77.512 36.7778 77.4843 36.8898 77.4843 37.0178C77.4843 37.0818 77.4566 37.1618 77.4012 37.2578L73.66 48.1538L72.1635 52.9538C72.1635 53.0178 72.1358 53.0658 72.0803 53.0978C72.0803 53.0978 72.0249 53.1618 71.9141 53.2898C71.8032 53.3538 71.7478 53.4178 71.7478 53.4818L71.8309 53.9138C71.7755 54.0738 71.6646 54.2018 71.4984 54.2978C71.3321 54.3938 71.249 54.5378 71.249 54.7298C71.249 54.9218 71.2212 55.1938 71.1658 55.5458C70.9995 56.4738 70.7778 57.0178 70.5007 57.1778C70.4453 57.2098 70.4176 57.2578 70.4176 57.3218C70.4176 57.3858 70.4176 57.4498 70.4176 57.5138L70.5007 57.7538L70.4176 57.8978C70.3621 57.9938 70.279 58.0738 70.1682 58.1378C70.0573 58.2018 70.0019 58.2978 70.0019 58.4258V58.6178C70.0019 59.0018 69.8079 59.6898 69.4199 60.6818C68.9211 62.0578 68.5331 63.3378 68.256 64.5218C67.9788 65.6418 67.7294 66.2658 67.5077 66.3938C67.3414 66.4898 67.2583 66.6018 67.2583 66.7298C67.2583 66.8578 67.2306 67.1298 67.1752 67.5458C66.8426 68.8258 66.6486 69.4818 66.5932 69.5138C66.5378 69.5458 66.4824 69.6098 66.4269 69.7058C66.3715 69.8018 66.3161 69.8978 66.2606 69.9938C66.2606 70.0578 66.2606 70.1218 66.2606 70.1858C66.2606 70.6978 65.8727 72.0738 65.0967 74.3138C64.9304 74.9858 64.6256 75.9618 64.1822 77.2418L64.0159 78.1058C64.0713 78.0738 64.0991 78.0898 64.0991 78.1538L64.0159 78.2978C63.9605 78.3938 63.9328 78.4738 63.9328 78.5378C63.7665 78.8898 63.5171 79.7698 63.1845 81.1778C62.2977 84.6338 61.6049 87.7218 61.1061 90.4418C60.9952 91.2738 60.9398 91.9138 60.9398 92.3618C60.9398 92.6818 61.0229 92.8578 61.1892 92.8898C61.3555 92.9218 61.4386 92.9698 61.4386 93.0338C61.4386 93.1618 61.2723 93.3218 60.9398 93.5138C60.6072 93.7058 60.441 93.8658 60.441 93.9938C60.441 94.1218 60.7735 93.9938 61.4386 93.6098L61.9375 93.2258C62.3254 93.0018 62.5194 92.9858 62.5194 93.1778C62.5194 93.3698 62.5471 93.4818 62.6026 93.5138L62.9351 93.2258C63.3231 93.0018 63.5171 93.5938 63.5171 95.0018C63.4617 95.6738 63.3508 96.2818 63.1845 96.8258C63.0183 97.1138 62.658 97.6098 62.1037 98.3138C61.6049 99.0498 61.0506 99.7858 60.441 100.522C59.8867 101.226 59.4987 101.642 59.277 101.77ZM59.0276 100.666C59.1939 100.57 59.3879 100.362 59.6096 100.042C59.8867 99.7538 60.0253 99.5778 60.0253 99.5138C60.0253 99.4498 59.859 99.5138 59.5264 99.7058C59.0276 99.9938 58.7782 100.266 58.7782 100.522C58.7782 100.714 58.8613 100.762 59.0276 100.666ZM104.754 17.0498C104.865 16.9858 104.92 16.8898 104.92 16.7618L104.837 16.5218L104.92 16.4738C104.754 16.4418 104.449 16.5218 104.006 16.7138C103.673 16.9058 103.507 17.0338 103.507 17.0978C103.507 17.1618 103.618 17.2258 103.839 17.2898C104.116 17.3218 104.366 17.2738 104.587 17.1458L104.754 17.0498Z" fill="#215FF6"/>
<path d="M45.6806 114.707C45.7915 114.643 45.9023 114.451 46.0132 114.131C46.1795 113.843 46.2626 113.571 46.2626 113.315L46.1795 113.267C46.124 113.299 46.0409 113.379 45.93 113.507C45.8192 113.635 45.7083 113.795 45.5975 113.987C45.4866 114.243 45.4312 114.467 45.4312 114.659C45.4312 114.787 45.5144 114.803 45.6806 114.707ZM45.8469 115.283C45.3481 115.571 44.6275 115.827 43.6853 116.051L41.108 116.579C40.4429 116.835 39.9441 116.803 39.6115 116.483C39.279 116.227 39.0573 115.523 38.9464 114.371C38.891 113.571 38.8633 111.763 38.8633 108.947C38.8633 102.419 39.8055 95.1553 41.69 87.1553C43.6299 78.6113 46.6229 67.7953 50.6689 54.7073C54.7704 41.5233 58.5671 30.5313 62.0589 21.7313C63.6108 17.6993 64.4699 15.3473 64.6362 14.6753C64.8579 14.0993 65.2459 13.2033 65.8001 11.9873C67.3521 8.7233 68.322 6.97931 68.71 6.75531C68.8208 6.69131 68.9317 6.72331 69.0425 6.85131C69.3197 7.58731 69.5968 7.8753 69.8739 7.7153C70.1511 7.5553 70.4282 7.6833 70.7053 8.0993C70.9824 8.4513 71.2041 8.5793 71.3704 8.4833C71.5367 8.3873 71.7861 8.3713 72.1187 8.4353C72.4512 8.4993 73.0886 8.8353 74.0308 9.4433C73.0886 11.5873 72.1464 13.7313 71.2041 15.8753C70.3173 17.9873 69.4028 20.3073 68.4606 22.8353C66.0218 29.1073 64.8025 32.6593 64.8025 33.4913C64.8025 33.7473 64.7471 33.9393 64.6362 34.0673C64.5253 34.1313 64.3314 34.5313 64.0542 35.2673C64.0542 35.4593 64.0265 35.6033 63.9711 35.6993V36.1793C63.9711 36.3713 63.7771 36.8673 63.3891 37.6673C62.5577 39.6833 62.142 41.1073 62.142 41.9393L61.8095 42.1313C61.6432 42.2273 61.5601 42.7233 61.5601 43.6193L61.6432 43.5713V43.6673C61.5878 43.7633 61.5324 43.8273 61.4769 43.8593C60.9227 44.7553 60.507 45.8273 60.2299 47.0753C60.119 47.4593 60.0636 47.8113 60.0636 48.1313C60.119 48.0993 60.1467 48.1153 60.1467 48.1793V48.2753C60.0913 48.3713 59.9804 48.4673 59.8142 48.5633C59.7033 48.6273 59.6479 48.7233 59.6479 48.8513L59.8142 49.1393C59.7587 49.2353 59.6756 49.3153 59.5648 49.3793C59.4539 49.4433 59.3153 49.7153 59.1491 50.1953C59.0382 50.5793 58.9551 51.0113 58.8996 51.4913C58.8442 51.9073 58.8165 52.2433 58.8165 52.4993C58.8719 52.4673 58.8996 52.4833 58.8996 52.5473L58.6502 52.5953C58.5394 52.6593 58.4285 52.8513 58.3177 53.1713C57.9297 53.9713 57.6249 54.8513 57.4032 55.8113V56.4833L57.4863 56.6273C57.4863 56.8193 57.4032 56.9633 57.2369 57.0593C57.126 57.1233 57.0429 57.2033 56.9875 57.2993V57.4913C56.9875 57.7473 56.932 57.9393 56.8212 58.0673C56.7658 58.1633 56.6826 58.3393 56.5718 58.5953C56.5163 58.8193 56.4609 59.1393 56.4055 59.5553C56.4055 59.9393 56.3224 60.1793 56.1561 60.2753C56.0452 60.3393 55.9898 60.4033 55.9898 60.4673C55.9898 60.5313 55.9898 60.5953 55.9898 60.6593L56.0729 61.0913C56.0729 61.2193 55.9898 61.3313 55.8235 61.4273C55.7127 61.4913 55.6572 61.5873 55.6572 61.7153C55.6572 61.7793 55.6572 61.8433 55.6572 61.9073L55.7404 62.2433C55.7404 62.4993 55.5741 62.7233 55.2416 62.9153L55.3247 63.1553C55.3247 63.3473 55.1861 63.7153 54.909 64.2593C54.6319 64.7393 54.4933 65.5553 54.4933 66.7073C54.5487 66.6753 54.5764 66.6913 54.5764 66.7553L54.4102 66.9473C54.133 67.4273 53.9668 67.7153 53.9113 67.8113C53.9113 67.8753 53.8559 68.2273 53.7451 68.8673C53.6342 69.4433 53.5234 69.7633 53.4125 69.8273C53.3017 69.8913 53.2462 69.9873 53.2462 70.1153L53.3294 70.4513C53.3294 70.5153 53.2739 70.5793 53.1631 70.6433C52.9968 70.9313 52.8583 71.4273 52.7474 72.1313C52.6366 72.7713 52.5257 73.1873 52.4148 73.3793C52.304 73.5713 52.2209 73.7793 52.1654 74.0033C51.9992 74.6753 51.916 75.2353 51.916 75.6833C51.8606 75.9073 51.8052 76.0673 51.7497 76.1633C51.7497 76.2273 51.6943 76.3553 51.5835 76.5473C51.5835 76.9313 51.528 77.2193 51.4172 77.4113V77.9873C51.4172 78.1793 51.334 78.3233 51.1678 78.4193C51.0015 78.5153 50.9184 78.6273 50.9184 78.7553C50.9184 78.8193 50.9184 78.8833 50.9184 78.9473L51.0015 79.2833C51.0015 79.5393 50.9184 79.8113 50.7521 80.0993C50.5858 80.3873 50.5027 80.5633 50.5027 80.6273C50.5027 80.6913 50.5304 80.7073 50.5858 80.6753C50.6967 80.6113 50.7521 80.6113 50.7521 80.6753L50.5027 81.2033C50.281 81.4593 50.1147 81.9713 50.0038 82.7393C50.0038 83.4433 49.9207 83.8433 49.7544 83.9393C49.5881 84.0353 49.505 84.3393 49.505 84.8513L49.5881 85.1873C49.5881 85.5073 49.5604 85.6833 49.505 85.7153C49.2279 86.0673 48.9507 87.0593 48.6736 88.6913C48.3965 90.0033 48.2579 90.9153 48.2579 91.4273V91.9073C48.2579 92.0353 48.2025 92.1313 48.0916 92.1953C47.9808 92.2593 47.8977 92.4033 47.8422 92.6273V93.2033L47.9254 93.4433C47.9254 93.5713 47.8977 93.7153 47.8422 93.8753C47.8422 94.0033 47.7868 94.1313 47.676 94.2593C47.6205 94.2913 47.5097 94.6433 47.3434 95.3153C47.2326 95.8913 47.1217 96.5953 47.0108 97.4273C46.9554 98.2273 46.9277 98.9153 46.9277 99.4913C46.9277 100.067 46.8723 100.387 46.7614 100.451C46.6506 100.515 46.5397 100.739 46.4289 101.123C46.4289 102.467 46.3457 104.115 46.1795 106.067L45.93 110.627L47.0108 110.387C47.7868 110.323 48.1748 110.547 48.1748 111.059C48.1748 111.379 48.0362 111.747 47.7591 112.163C47.5374 112.611 47.2603 113.283 46.9277 114.179C46.7614 114.595 46.4012 114.963 45.8469 115.283Z" fill="#215FF6"/>
<path d="M27.775 84.6288C27.8304 84.5968 27.8859 84.5328 27.9413 84.4368C27.9967 84.2768 28.2461 83.6848 28.6895 82.6608C28.5787 82.7248 28.4401 82.9328 28.2738 83.2848C27.8859 84.0208 27.6919 84.4528 27.6919 84.5808C27.6919 84.6448 27.7196 84.6608 27.775 84.6288ZM27.6919 120.581C27.4702 120.709 27.1376 120.549 26.6942 120.101C26.5279 119.941 26.2508 119.749 25.8628 119.525C25.4748 119.301 25.0869 119.045 24.6989 118.757C24.3109 118.469 23.8952 118.197 23.4518 117.941C23.6181 115.221 23.9229 112.261 24.3663 109.061C25.1423 103.173 25.9182 98.2768 26.6942 94.3728C27.0268 92.7088 27.193 91.7808 27.193 91.5888V91.4928C27.1376 91.5248 25.8351 94.7408 23.2855 101.141C16.6899 117.877 11.8956 127.109 8.90258 128.837L6.65784 130.133L5.82646 130.805C6.71327 130.997 7.15667 131.125 7.15667 131.189C7.15667 131.253 7.10125 131.317 6.9904 131.381C6.87955 131.445 6.51928 131.397 5.9096 131.237C5.35534 131.109 4.71795 130.901 3.99741 130.613C2.99975 130.293 2.27922 129.941 1.83581 129.557C1.39241 129.237 1.08757 128.741 0.92129 128.069C0.755014 127.397 0.671875 126.517 0.671875 125.429C0.671875 119.669 2.75034 108.805 6.90726 92.8368L9.23513 84.5808C11.7847 75.7488 13.586 69.7488 14.6391 66.5808C15.3042 64.7888 15.6368 63.7968 15.6368 63.6048C15.6368 63.3488 15.9139 62.4208 16.4682 60.8208C16.967 59.6368 17.2164 58.8208 17.2164 58.3728L17.1333 58.2288C17.1333 57.7168 17.6875 56.2128 18.7961 53.7168C19.2395 52.6928 19.9877 51.2688 21.0408 49.4448L20.7914 51.3168C20.7914 51.8928 20.9577 52.4368 21.2902 52.9488C21.6782 53.4288 21.9553 53.6208 22.1216 53.5248C22.2879 53.4288 22.4541 53.2048 22.6204 52.8528C22.7867 52.5008 22.9253 52.2928 23.0361 52.2288C23.2024 52.1328 23.4241 52.2928 23.7012 52.7088C24.1446 53.0928 24.3663 53.6368 24.3663 54.3408C24.3663 54.8528 24.2278 55.4768 23.9506 56.2128C22.5096 60.3088 20.0154 68.4688 16.4682 80.6928C13.1426 91.9568 10.7039 101.365 9.152 108.917C8.32061 112.981 7.68322 116.517 7.23981 119.525C6.96268 121.477 6.82412 122.773 6.82412 123.413C6.82412 123.733 6.85183 123.909 6.90726 123.941C7.62779 123.525 8.95801 121.349 10.8979 117.413C12.8378 113.477 14.8608 108.885 16.967 103.637C30.8788 68.3408 38.777 48.1328 40.6615 43.0128C41.4374 41.0288 42.0748 39.4128 42.5736 38.1648C43.1279 36.8208 43.4605 36.1168 43.5713 36.0528L43.6544 36.0048C43.7653 35.9408 44.0147 35.5088 44.4027 34.7088L44.4858 34.4688C44.763 33.8608 44.9847 33.5088 45.1509 33.4128C45.2064 33.3808 45.2341 33.4288 45.2341 33.5568C45.2341 33.7488 45.1232 34.1328 44.9015 34.7088L44.8184 35.3328C44.8184 35.7168 44.9847 36.1328 45.3172 36.5808C45.7052 36.9328 45.8992 37.4288 45.8992 38.0688C45.8992 38.1328 45.9269 38.1488 45.9823 38.1168L46.398 37.3008C46.4534 37.2688 46.4812 37.2208 46.4812 37.1568L46.98 35.8128C47.2017 36.1328 47.4511 36.5008 47.7282 36.9168C48.0054 37.3328 48.1439 37.7328 48.1439 38.1168C48.1439 38.8208 46.2872 45.6528 42.5736 58.6128C38.971 70.9968 36.6154 79.6208 35.5069 84.4848C35.2298 85.4768 35.0081 86.3728 34.8418 87.1728C34.7309 87.9408 34.5924 88.4688 34.4261 88.7568C33.9273 90.9008 33.3453 93.7648 32.6802 97.3488C30.9066 106.629 29.9089 112.677 29.6872 115.493C29.6318 117.637 29.4378 118.805 29.1052 118.997C28.9944 119.061 28.8835 118.965 28.7727 118.709C28.6618 118.453 28.5233 118.373 28.357 118.469C28.0798 118.629 27.9413 118.997 27.9413 119.573C27.9413 120.149 27.8581 120.485 27.6919 120.581Z" fill="#215FF6"/>
</svg>
