<svg width="269" height="41" viewBox="0 0 269 41" fill="none" xmlns="http://www.w3.org/2000/svg">
<path fill-rule="evenodd" clip-rule="evenodd" d="M214.008 18.5457L214.01 18.5331C214.457 15.5019 215.481 10.8294 219.434 6.94253C223.403 3.03942 230.077 0.164062 241.318 0.164062H243.382C253.247 0.164062 259.518 2.50687 263.333 5.93654C267.166 9.38238 268.306 13.7312 268.306 17.2641C268.306 18.5487 268.257 19.9226 268.051 21.3642L268.05 21.3723C267.581 24.5328 266.561 29.3028 262.611 33.2527C258.64 37.2234 251.96 40.1241 240.694 40.1241H238.63C228.685 40.1241 222.419 37.7053 218.633 34.1986C214.835 30.6811 213.754 26.2754 213.754 22.7841V22.7769C213.754 21.6597 213.754 20.3764 214.008 18.5457ZM251.702 14.0733C250.076 12.8232 247.135 11.8041 241.99 11.8041C236.264 11.8041 232.979 13.0809 231.109 14.614C229.267 16.1241 228.605 18.042 228.461 19.7834C228.418 20.3422 228.418 20.7701 228.418 21.2961C228.418 22.9332 228.903 24.6245 230.424 25.9389C231.984 27.2858 234.859 28.4361 240.07 28.4361C245.692 28.4361 248.928 27.1628 250.805 25.6025C252.665 24.0567 253.399 22.0563 253.655 20.1378C253.746 19.4576 253.786 18.9999 253.786 18.4161C253.786 16.8176 253.26 15.2714 251.702 14.0733ZM226.966 19.6641C227.302 15.5841 230.134 10.3041 241.99 10.3041C252.598 10.3041 255.286 14.4801 255.286 18.4161C255.286 19.0881 255.238 19.6161 255.142 20.3361C254.566 24.6561 251.734 29.9361 240.07 29.9361C229.27 29.9361 226.918 25.1841 226.918 21.2961C226.918 20.7681 226.918 20.2881 226.966 19.6641ZM215.254 22.7841C215.254 29.1681 219.19 38.6241 238.63 38.6241H240.694C262.726 38.6241 265.654 27.2961 266.566 21.1521C266.758 19.8081 266.806 18.5121 266.806 17.2641C266.806 10.8321 262.678 1.66406 243.382 1.66406H241.318C219.334 1.66406 216.358 12.8961 215.494 18.7521C215.254 20.4801 215.254 21.6801 215.254 22.7841Z" fill="#F8F8F8"/>
<path fill-rule="evenodd" clip-rule="evenodd" d="M153.191 39.5001L159.331 0.788086H176.806L184.786 21.3146L198.796 0.788086H216.465L210.325 39.5001H196.582L199.76 19.5426L185.925 39.5001H178.318L170.025 18.8676L166.74 39.5001H153.191ZM169.396 13.2801L179.332 38.0001H185.14L202.276 13.2801L198.34 38.0001H209.044L214.708 2.28809H199.588L184.42 24.5121L175.78 2.28809H160.612L154.948 38.0001H165.46L169.396 13.2801Z" fill="#F8F8F8"/>
<path fill-rule="evenodd" clip-rule="evenodd" d="M138.682 19.6162L137.338 27.8722H152.362L153.706 19.6162H138.682ZM137.407 18.1162H155.47L153.638 29.3722H135.574L137.407 18.1162Z" fill="#F8F8F8"/>
<path fill-rule="evenodd" clip-rule="evenodd" d="M83.2269 18.5457L83.2287 18.5331C83.6759 15.5019 84.7002 10.8294 88.6529 6.94253C92.6222 3.03942 99.2961 0.164062 110.537 0.164062H112.601C122.466 0.164062 128.736 2.50687 132.551 5.93654C136.385 9.38238 137.525 13.7312 137.525 17.2641C137.525 18.5487 137.476 19.9226 137.27 21.3642L137.268 21.3723C136.799 24.5328 135.779 29.3028 131.829 33.2527C127.859 37.2234 121.179 40.1241 109.913 40.1241H107.849C97.9038 40.1241 91.6376 37.7053 87.8514 34.1986C84.0536 30.6811 82.9727 26.2754 82.9727 22.7841V22.7768C82.9727 21.6597 82.9727 20.3764 83.2269 18.5457ZM120.92 14.0733C119.294 12.8232 116.354 11.8041 111.209 11.8041C105.483 11.8041 102.198 13.0809 100.328 14.614C98.4859 16.1241 97.824 18.042 97.6799 19.7834C97.6371 20.3422 97.6367 20.7701 97.6367 21.2961C97.6367 22.9332 98.1215 24.6245 99.6432 25.9389C101.203 27.2858 104.078 28.4361 109.289 28.4361C114.911 28.4361 118.146 27.1628 120.024 25.6025C121.884 24.0567 122.618 22.0563 122.874 20.1378C122.965 19.4576 123.005 18.9999 123.005 18.4161C123.005 16.8176 122.479 15.2714 120.92 14.0733ZM96.1847 19.6641C96.5207 15.5841 99.3527 10.3041 111.209 10.3041C121.817 10.3041 124.505 14.4801 124.505 18.4161C124.505 19.0881 124.457 19.6161 124.361 20.3361C123.785 24.6561 120.953 29.9361 109.289 29.9361C98.4887 29.9361 96.1367 25.1841 96.1367 21.2961C96.1367 20.7681 96.1367 20.2881 96.1847 19.6641ZM84.4727 22.7841C84.4727 29.1681 88.4087 38.6241 107.849 38.6241H109.913C131.945 38.6241 134.873 27.2961 135.785 21.1521C135.977 19.8081 136.025 18.5121 136.025 17.2641C136.025 10.8321 131.897 1.66406 112.601 1.66406H110.537C88.5527 1.66406 85.5767 12.8961 84.7127 18.7521C84.4727 20.4801 84.4727 21.6801 84.4727 22.7841Z" fill="#F8F8F8"/>
<path fill-rule="evenodd" clip-rule="evenodd" d="M51.4718 0.788086H65.4064L61.1344 27.6201H85.0341L83.1719 39.5001H45.332L51.4718 0.788086ZM59.3767 29.1201L63.6487 2.28809H52.7527L47.0887 38.0001H81.8887L83.2807 29.1201H59.3767Z" fill="#F8F8F8"/>
<path fill-rule="evenodd" clip-rule="evenodd" d="M0.33088 23.8281H11.4474C9.37603 23.2293 7.70338 22.4043 6.38272 21.3753C3.51679 19.1423 2.52265 16.1217 2.52265 13.0401C2.52265 12.2804 2.57836 11.6795 2.68173 10.9559L2.6826 10.9498C3.09468 8.14767 4.37816 5.32853 7.8178 3.28971C11.1383 1.32151 16.3333 0.164062 24.3747 0.164062H27.4466C35.8129 0.164062 41.1449 1.63468 44.3014 4.15851C47.5829 6.7823 48.2492 10.313 47.8476 13.6056L47.6868 14.9241H37.9344C39.7066 15.3652 41.2106 15.9561 42.4579 16.7143C44.0341 17.6726 45.2061 18.9013 45.9705 20.4118C46.7286 21.9096 47.0427 23.5988 47.0427 25.4241C47.0427 26.365 46.9408 27.5701 46.7735 28.4062L46.7725 28.4115C46.1998 31.2228 45.0207 34.2946 41.4619 36.575C38.0116 38.7859 32.5169 40.1241 23.6547 40.1241H20.5346C11.3139 40.1241 5.9482 38.0405 3.00756 34.9113C0.0413632 31.7548 -0.128873 27.8892 0.18017 25.1593L0.33088 23.8281ZM33.6966 14.1986L33.6341 13.5733C33.5736 12.968 33.5045 12.4507 32.7973 11.9407C31.9407 11.3229 29.972 10.6041 25.5267 10.6041H24.8547C20.4092 10.6041 18.3578 11.0595 17.4495 11.5137C17.0475 11.7147 16.9696 11.8669 16.9557 11.8938C16.9294 11.9453 16.8986 12.0402 16.8986 12.3201C16.8986 12.5368 16.9274 12.6287 16.9513 12.6774C16.9662 12.7077 17.0249 12.8215 17.294 12.9767C17.9203 13.3378 19.3767 13.7489 22.5729 13.7962L22.5756 13.7963L28.3334 13.8922C28.3339 13.8922 28.3345 13.8923 28.3351 13.8923C30.2823 13.9218 32.0679 14.0214 33.6966 14.1986ZM28.3106 15.3921L22.5507 15.2961C16.0707 15.2001 15.3987 13.6641 15.3987 12.3201C15.3987 10.8801 15.9267 9.10406 24.8547 9.10406H25.5267C34.5987 9.10406 34.9827 11.9841 35.1267 13.4241H46.3587C47.0787 7.52006 43.9587 1.66406 27.4466 1.66406H24.3747C8.48665 1.66406 4.88665 6.27206 4.16665 11.1681C4.07065 11.8401 4.02265 12.3681 4.02265 13.0401C4.02265 18.5121 7.47865 23.1681 19.9107 23.4561L25.8626 23.6001C32.8227 23.7921 33.8787 24.8481 33.8787 26.7681C33.8787 28.5441 33.2066 30.9921 23.2227 30.9921H22.6467C13.6706 30.9921 12.9986 27.5841 12.9507 25.3281H1.67065C1.09465 30.4161 2.43865 38.6241 20.5346 38.6241H23.6547C41.1747 38.6241 44.2467 33.2961 45.3027 28.1121C45.4467 27.3921 45.5427 26.2881 45.5427 25.4241C45.5427 18.8001 40.9827 15.5841 28.3106 15.3921ZM25.8238 25.0996C25.823 25.0995 25.8221 25.0995 25.8213 25.0995L19.8759 24.9557C19.8756 24.9557 19.8752 24.9556 19.8749 24.9556C17.8652 24.909 16.0559 24.7509 14.4331 24.4878L14.4503 25.2962C14.4716 26.2947 14.6273 27.1675 15.4384 27.8772C16.3242 28.6522 18.2857 29.4921 22.6467 29.4921H23.2227C28.171 29.4921 30.4851 28.871 31.5334 28.2536C32.0091 27.9734 32.1769 27.7212 32.2533 27.5539C32.3416 27.3608 32.3787 27.1257 32.3787 26.7681C32.3787 26.4113 32.3264 26.2772 32.2953 26.2214C32.2767 26.1881 32.2021 26.061 31.8475 25.8959C31.0274 25.514 29.3148 25.196 25.8238 25.0996Z" fill="#F8F8F8"/>
</svg>
