<svg width="461" height="301" viewBox="0 0 461 301" fill="none" xmlns="http://www.w3.org/2000/svg">
<path fill-rule="evenodd" clip-rule="evenodd" d="M426.169 20.6643L460.773 0.685928L459.097 13.7655L437.406 26.289L437.234 27.668L458.402 15.447L456.729 28.5726L435.57 40.7891L433.616 56.0771L420.715 63.5255L426.169 20.6643ZM434.092 39.6424L455.25 27.4264L456.373 18.6184L435.214 30.8344L435.921 25.1464L457.62 12.6184L458.742 3.85838L427.648 21.8104L422.743 60.3544L432.138 54.9304L434.092 39.6424Z" fill="#F8F8F8"/>
<path fill-rule="evenodd" clip-rule="evenodd" d="M376.077 67.7652L376.078 67.7562C376.47 64.4644 377.375 59.1356 380.9 53.0979C384.444 47.0276 390.349 40.7205 400.156 35.0588L401.943 34.0268C410.549 29.058 416.099 28.2135 419.511 29.7849C422.943 31.3659 423.961 35.2764 423.961 38.9148C423.961 40.2117 423.918 41.6363 423.736 43.2157L423.734 43.2273C423.324 46.654 422.424 52.0781 418.902 58.1779C415.356 64.3193 409.445 70.6558 399.615 76.3308L397.828 77.3628C389.15 82.3727 383.602 83.1392 380.215 81.4727C376.816 79.7996 375.852 75.8019 375.852 72.2108V72.2014C375.852 71.6891 375.852 71.1372 375.873 70.4988C375.971 69.6281 376.024 68.8011 376.05 68.0073C376.059 67.9306 376.067 67.8529 376.076 67.7742L376.077 67.7652ZM408.884 44.8249C407.584 44.4212 405.148 44.8166 400.738 47.3628C395.837 50.1921 393.104 53.0325 391.589 55.3414C390.107 57.6007 389.571 59.6871 389.453 61.3971C389.418 61.9546 389.417 62.3656 389.417 62.8908C389.417 64.4256 389.807 65.7355 391.005 66.2386C392.246 66.7599 394.617 66.5287 399.075 63.9548C403.883 61.1786 406.573 58.3679 408.095 56.0289C409.597 53.7208 410.199 51.5063 410.411 49.5457C410.488 48.8342 410.52 48.3813 410.52 47.8268C410.52 46.3516 410.107 45.2044 408.884 44.8249ZM387.727 62.2348C388.017 57.9868 390.47 51.2908 400.738 45.3628C409.924 40.0588 412.252 42.8908 412.252 46.8268C412.252 47.4988 412.211 48.0508 412.128 48.8188C411.629 53.4268 409.176 60.1228 399.075 65.9548C389.722 71.3548 387.685 67.7788 387.685 63.8908C387.685 63.3628 387.685 62.8828 387.727 62.2348ZM377.584 71.2108C377.584 77.5948 380.992 85.0828 397.828 75.3628L399.615 74.3308C418.696 63.3148 421.231 50.5228 422.021 43.9228C422.187 42.4828 422.229 41.1628 422.229 39.9148C422.229 33.4828 418.654 26.3788 401.943 36.0268L400.156 37.0588C381.117 48.0508 378.54 60.7708 377.791 67.0588C377.584 68.9068 377.584 70.1068 377.584 71.2108Z" fill="#F8F8F8"/>
<path fill-rule="evenodd" clip-rule="evenodd" d="M329.921 94.4136L329.922 94.4046C330.313 91.1129 331.219 85.784 334.744 79.7463C338.288 73.676 344.193 67.3689 353.999 61.7072L355.787 60.6752C364.393 55.7065 369.943 54.8619 373.354 56.4334C376.786 58.0144 377.805 61.9248 377.805 65.5633C377.805 66.0819 377.798 66.6209 377.778 67.1821C377.67 68.1714 377.622 68.9727 377.601 69.6749C377.594 69.7377 377.587 69.8008 377.58 69.8641L377.578 69.8757C377.168 73.3025 376.267 78.7265 372.746 84.8264C369.2 90.9677 363.288 97.3042 353.459 102.979L351.672 104.011C342.994 109.021 337.446 109.788 334.059 108.121C330.659 106.448 329.695 102.45 329.695 98.8593V98.8498C329.695 97.7281 329.695 96.4171 329.92 94.4226L329.921 94.4136ZM362.728 71.4733C361.427 71.0696 358.992 71.465 354.581 74.0112C349.681 76.8405 346.948 79.681 345.433 81.9898C343.95 84.2491 343.415 86.3356 343.297 88.0456C343.261 88.6031 343.261 89.014 343.261 89.5393C343.261 91.0741 343.651 92.384 344.848 92.887C346.09 93.4084 348.461 93.1771 352.919 90.6033C357.727 87.8271 360.417 85.0163 361.939 82.6773C363.44 80.3693 364.042 78.1547 364.255 76.1942C364.332 75.4827 364.364 75.0297 364.364 74.4753C364.364 73 363.951 71.8528 362.728 71.4733ZM341.57 88.8833C341.861 84.6353 344.314 77.9393 354.581 72.0112C363.768 66.7072 366.096 69.5393 366.096 73.4753C366.096 74.1473 366.055 74.6993 365.971 75.4673C365.473 80.0753 363.02 86.7713 352.919 92.6033C343.566 98.0032 341.529 94.4273 341.529 90.5393C341.529 90.0113 341.529 89.5313 341.57 88.8833ZM331.427 97.8593C331.427 104.243 334.836 111.731 351.672 102.011L353.459 100.979C372.539 89.9633 375.075 77.1712 375.865 70.5713C376.031 69.1313 376.073 67.8113 376.073 66.5633C376.073 60.1313 372.498 53.0273 355.787 62.6752L353.999 63.7072C334.961 74.6992 332.383 87.4193 331.635 93.7072C331.427 95.5553 331.427 96.7553 331.427 97.8593Z" fill="#F8F8F8"/>
<path fill-rule="evenodd" clip-rule="evenodd" d="M318.562 114.166C319.144 109.606 317.772 108.286 312.992 111.046L300.812 118.078L299.066 131.758L289.63 137.206L294.535 98.6619L319.061 84.5019C328.123 79.2699 330.7 81.7659 330.7 86.4219C330.7 90.4963 328.481 94.2045 326.215 96.8711C325.411 97.8172 324.602 98.6322 323.883 99.2859C324.684 99.109 325.456 99.0498 326.135 99.1689C327.853 99.47 328.986 100.91 328.539 104.47L327.707 110.95C327.58 111.994 327.538 112.752 327.542 113.318C327.546 114.082 327.634 114.496 327.707 114.793C327.715 114.823 327.722 114.851 327.729 114.879C327.736 114.906 327.743 114.932 327.749 114.958L327.707 115.222L318.105 120.766C317.939 120.478 317.814 120.022 318.022 118.414L318.562 114.166ZM316.312 119.083L316.311 119.088C316.076 120.908 316.16 121.869 316.556 122.555L317.034 123.384L329.127 116.402L329.524 113.884L329.429 113.503C329.422 113.473 329.415 113.445 329.408 113.417C329.352 113.194 329.307 113.015 329.285 112.658C329.259 112.235 329.267 111.518 329.419 110.269C329.419 110.266 329.42 110.263 329.42 110.26L330.249 103.798L330.25 103.791C330.629 100.774 330.081 98.7879 328.85 97.7448C328.545 97.4857 328.206 97.2925 327.844 97.1546C330.199 94.1171 332.432 89.9952 332.432 85.4219C332.432 82.633 331.637 80.2741 329.335 79.5589C327.121 78.8714 323.762 79.7881 319.061 82.5019L293.056 97.5158L287.602 140.377L300.544 132.904L302.29 119.224L312.992 113.046C315.265 111.734 316.175 111.735 316.531 111.963C316.835 112.157 317.115 112.776 316.852 114.839L316.851 114.84L316.312 119.083ZM303.891 106.38L316.234 99.2539C317.481 98.5342 318.102 97.7873 318.394 97.3091C318.684 96.8355 318.825 96.3426 318.825 95.8699C318.825 95.3472 318.705 95.2638 318.642 95.2362C318.536 95.1902 318.156 95.1365 317.107 95.7419L304.32 103.125L303.891 106.38ZM316.234 101.254C319.352 99.4539 320.557 96.7899 320.557 94.8699C320.557 93.0459 319.643 92.2779 317.107 93.7419L302.849 101.974L301.851 109.558L316.234 101.254Z" fill="#F8F8F8"/>
<path fill-rule="evenodd" clip-rule="evenodd" d="M260.963 155.758L248.023 163.229L253.478 120.367L276.781 106.913C282.016 103.891 285.833 102.816 288.364 103.638C290.985 104.488 291.94 107.267 291.94 110.817C291.94 113.99 291.276 118.254 288.679 122.832C286.074 127.424 281.818 131.814 275.284 135.585L262.626 142.894L260.963 155.758ZM261.151 141.745L275.284 133.585C287.797 126.361 290.208 117.577 290.208 111.817C290.208 105.577 286.924 103.057 276.781 108.913L254.957 121.513L250.052 160.057L259.488 154.609L261.151 141.745ZM264.226 129.954L275.243 123.593C276.758 122.719 277.522 121.878 277.884 121.314C278.202 120.819 278.416 120.219 278.416 119.393C278.416 118.801 278.271 118.714 278.153 118.679C277.94 118.618 277.404 118.666 276.24 119.337L264.744 125.975L264.226 129.954ZM275.243 125.593C278.735 123.577 280.148 120.937 280.148 118.393C280.148 116.233 278.901 115.801 276.24 117.337L263.271 124.825L262.19 133.129L275.243 125.593Z" fill="#F8F8F8"/>
<path fill-rule="evenodd" clip-rule="evenodd" d="M225.761 167.744C226.343 163.184 224.972 161.864 220.191 164.624L208.011 171.656L206.265 185.336L196.829 190.784L201.734 152.24L226.26 138.08C235.322 132.848 237.9 135.344 237.9 140C237.9 144.074 235.68 147.783 233.414 150.449C232.611 151.395 231.801 152.21 231.082 152.864C231.884 152.687 232.655 152.628 233.335 152.747C235.052 153.048 236.185 154.489 235.738 158.048L234.907 164.528C234.78 165.572 234.737 166.33 234.741 166.896C234.745 167.66 234.833 168.074 234.907 168.371C234.914 168.401 234.921 168.429 234.928 168.457C234.935 168.484 234.942 168.51 234.948 168.536L234.907 168.8L225.304 174.344C225.138 174.056 225.013 173.6 225.221 171.992L225.761 167.744ZM223.511 172.661L223.51 172.667C223.276 174.486 223.359 175.447 223.755 176.133L224.234 176.962L236.327 169.98L236.723 167.463L236.628 167.081C236.621 167.051 236.614 167.023 236.607 166.995C236.551 166.773 236.506 166.593 236.484 166.236C236.458 165.813 236.467 165.096 236.618 163.847C236.618 163.844 236.619 163.841 236.619 163.838L237.448 157.377L237.449 157.369C237.828 154.352 237.281 152.366 236.05 151.323C235.744 151.064 235.405 150.871 235.043 150.733C237.398 147.695 239.632 143.573 239.632 139C239.632 136.211 238.837 133.852 236.534 133.137C234.321 132.449 230.961 133.366 226.26 136.08L200.255 151.094L194.801 193.955L207.744 186.483L209.49 172.803L220.191 166.624C222.464 165.312 223.374 165.313 223.731 165.541C224.034 165.735 224.314 166.354 224.051 168.417L224.051 168.419L223.511 172.661ZM211.091 159.958L223.433 152.832C224.68 152.112 225.301 151.365 225.593 150.887C225.883 150.414 226.025 149.921 226.025 149.448C226.025 148.925 225.905 148.842 225.841 148.814C225.735 148.768 225.355 148.715 224.306 149.32L211.519 156.703L211.091 159.958ZM223.433 154.832C226.551 153.032 227.757 150.368 227.757 148.448C227.757 146.624 226.842 145.856 224.306 147.32L210.048 155.552L209.051 163.136L223.433 154.832Z" fill="#F8F8F8"/>
<path fill-rule="evenodd" clip-rule="evenodd" d="M164.494 171.742L199.679 151.428L198.003 164.508L175.647 177.415L175.475 178.794L197.349 166.165L195.677 179.291L173.804 191.919L173.54 193.927L196.263 180.808L194.6 194.072L159.039 214.604L164.494 171.742ZM171.501 197.105L172.333 190.769L194.198 178.145L195.32 169.337L173.455 181.961L174.162 176.272L196.526 163.361L197.648 154.601L165.973 172.889L161.067 211.433L193.117 192.929L194.24 183.977L171.501 197.105Z" fill="#F8F8F8"/>
<path fill-rule="evenodd" clip-rule="evenodd" d="M133.651 229.26L137.392 199.836L124.641 207.198L126.294 193.795L164.936 171.485L163.221 184.923L150.461 192.291L146.719 221.715L133.651 229.26ZM148.981 191.145L161.743 183.777L162.907 174.657L127.781 194.937L126.659 204.033L139.42 196.665L135.679 226.089L145.24 220.569L148.981 191.145Z" fill="#F8F8F8"/>
<path fill-rule="evenodd" clip-rule="evenodd" d="M118.437 238.045L116.359 232.717L100.201 242.045L96.7097 250.589L82.832 258.602L104.558 206.346L118.887 198.074L131.968 230.233L118.437 238.045ZM99.2355 240.603L117.568 230.019L119.646 235.347L129.456 229.683L117.692 200.763L105.512 207.795L85.9749 254.787L95.7437 249.147L99.2355 240.603ZM110.75 212.499L103.559 230.043L114.99 223.443L110.75 212.499ZM110.346 217.28L106.671 226.246L112.513 222.873L110.346 217.28Z" fill="#F8F8F8"/>
<path fill-rule="evenodd" clip-rule="evenodd" d="M57.025 273.501L44.1044 280.96L35.1367 246.426L48.7202 238.583L52.9638 256.531L60.8646 231.572L73.4237 224.321L76.8704 242.111L85.4871 217.356L98.9615 209.577L80.6101 259.884L68.6129 266.81L64.9212 249.246L57.025 273.501ZM55.9182 272.14L45.4427 278.188L37.3783 247.132L47.3549 241.372L52.4679 262.996L61.9873 232.924L72.0055 227.14L76.1624 248.596L86.5547 218.74L96.0741 213.244L79.5711 258.484L70.0102 264.004L65.5207 242.644L55.9182 272.14Z" fill="#F8F8F8"/>
<path fill-rule="evenodd" clip-rule="evenodd" d="M13.177 278.192V268.256L10.184 269.984V279.92L1.91174 284.696V288.104L10.184 283.328V293.216L13.177 291.488V281.6L21.4493 276.824V273.416L13.177 278.192ZM14.909 282.6L23.1813 277.824V270.416L14.909 275.192V265.256L8.45196 268.984V278.92L0.179688 283.696V291.104L8.45196 286.328V296.216L14.909 292.488V282.6Z" fill="#F8F8F8"/>
</svg>
