<svg width="562" height="396" viewBox="0 0 562 396" fill="none" xmlns="http://www.w3.org/2000/svg">
<path d="M498.349 36.8546L561.701 0.278564L559.456 17.7986L514.728 43.6226L513.314 54.9986L557.045 29.7506L554.8 47.3666L511.07 72.6146L509.407 85.2866L554.884 59.0306L552.639 76.9346L488.539 113.943L498.349 36.8546Z" fill="#F8F8F8"/>
<path d="M431.857 75.2452L450.73 64.3492L443.33 122.285L484.733 98.3812L482.322 117.533L422.047 152.333L431.857 75.2452Z" fill="#F8F8F8"/>
<path d="M339.637 199.911L349.447 122.823L400.162 93.5433C416.124 84.3273 420.863 88.5033 420.863 97.5273C420.863 107.511 413.048 116.151 408.808 119.943C412.549 119.031 419.782 119.175 419.782 129.927C419.782 143.175 413.048 157.527 392.596 169.335L339.637 199.911ZM394.092 123.735C399.746 120.471 401.492 116.007 401.492 113.031C401.492 110.247 400.411 108.471 395.506 111.303L366.241 128.199L364.661 140.727L394.092 123.735ZM391.681 154.311C398.582 150.327 400.162 144.615 400.162 141.543C400.162 138.471 399.081 136.023 393.344 139.335L362.583 157.095L360.671 172.215L391.681 154.311Z" fill="#F8F8F8"/>
<path d="M308.374 188.776L299.894 166.888L285.511 201.976L308.374 188.776ZM317.686 212.584L313.529 201.928L276.865 223.096L269.881 240.184L250.344 251.464L289.419 157.48L313.778 143.416L337.307 201.256L317.686 212.584Z" fill="#F8F8F8"/>
<path d="M197.802 240.615L226.568 224.007C232.803 220.407 235.214 215.079 235.214 211.239C235.214 207.591 233.385 206.055 228.314 208.983L199.797 225.447L197.802 240.615ZM195.724 257.655L192.232 285.015L173.359 295.911L183.17 218.823L232.221 190.503C250.346 180.039 255.5 185.031 255.5 194.343C255.5 205.383 247.353 215.079 241.865 220.071C247.519 218.823 252.424 220.503 251.177 230.439L249.514 243.399C248.849 248.871 249.348 250.407 249.597 251.415L249.514 251.943L230.309 263.031C229.977 262.455 229.727 261.543 230.143 258.327L231.224 249.831C232.388 240.711 229.644 238.071 220.083 243.591L195.724 257.655Z" fill="#F8F8F8"/>
<path d="M131.566 321.097L128.739 322.729C96.8139 341.161 91.5762 319.993 93.5715 304.441L98.2272 267.865L117.183 256.921L112.693 292.249C111.363 302.713 114.19 312.601 130.485 303.193C145.949 294.265 150.355 280.105 151.602 270.361L156.175 234.409L175.13 223.465L170.391 260.665C168.313 277.033 161.496 303.817 131.566 321.097Z" fill="#F8F8F8"/>
<path d="M0.832031 395.521L10.6424 318.433L47.9715 296.881C79.9798 278.401 88.7094 288.433 88.7094 303.985C88.7094 307.153 88.4599 310.273 88.0443 313.297C85.9658 328.321 77.1531 351.553 43.2326 371.041L0.832031 395.521ZM27.1038 325.825L21.9492 366.145L41.653 354.769C62.7702 342.577 67.0934 330.289 68.3404 322.177C68.5899 320.593 68.7561 318.865 68.7561 317.617C68.7561 310.321 65.3475 303.745 46.8076 314.449L27.1038 325.825Z" fill="#F8F8F8"/>
</svg>
