<svg width="91" height="53" viewBox="0 0 91 53" fill="none" xmlns="http://www.w3.org/2000/svg">
<path d="M83.2422 26.2245C83.2422 26.1605 83.1622 26.0005 83.0022 25.7445C82.4902 24.9125 82.2022 24.4965 82.1382 24.4965V24.5445C82.1382 24.6725 82.2022 24.8805 82.3302 25.1685C82.4902 25.4245 82.6662 25.6645 82.8582 25.8885C83.0502 26.1125 83.1782 26.2245 83.2422 26.2245ZM83.7702 25.3125C83.8662 25.3125 84.0902 24.9765 84.4422 24.3045C85.9782 21.3605 86.8102 18.8805 86.9382 16.8645L86.9862 15.8085C86.9862 15.5205 86.9702 15.3765 86.9382 15.3765C86.5222 15.3765 85.9782 15.7605 85.3062 16.5285C84.6342 17.2965 84.0742 18.1605 83.6262 19.1205C83.1782 20.0805 82.9542 21.1525 82.9542 22.3365C82.9542 23.1365 83.0662 23.8405 83.2902 24.4485C83.5462 25.0245 83.7062 25.3125 83.7702 25.3125ZM87.5622 13.5525L87.4182 13.2165C87.0662 12.6085 86.5382 12.3045 85.8342 12.3045H85.5462C85.1302 12.3685 84.9222 12.4325 84.9222 12.4965C84.9222 12.5605 85.1462 12.6085 85.5942 12.6405C86.0742 12.6725 86.3142 12.7365 86.3142 12.8325V12.9285C86.3142 12.9925 86.3782 13.0565 86.5062 13.1205C86.6342 13.1845 86.7622 13.2485 86.8902 13.3125C87.0182 13.3445 87.1462 13.3925 87.2742 13.4565C87.4022 13.5205 87.4822 13.5525 87.5142 13.5525H87.5622ZM87.4182 22.9125C87.5462 22.9125 87.8022 22.3685 88.1862 21.2805C88.4422 20.4165 88.5702 19.9205 88.5702 19.7925V19.6965C88.5382 19.6965 88.4742 19.7925 88.3782 19.9845C88.1542 20.4965 87.9302 21.2005 87.7062 22.0965L87.4182 22.9125ZM88.8582 16.5765C88.8902 16.5765 88.9222 16.5285 88.9542 16.4325C88.9542 16.3045 88.8902 16.0645 88.7622 15.7125C88.5702 15.2005 88.4262 14.9445 88.3302 14.9445C88.2342 14.9445 88.1862 14.9925 88.1862 15.0885C88.3462 15.4085 88.4902 15.7445 88.6182 16.0965C88.7462 16.4165 88.8262 16.5765 88.8582 16.5765ZM88.6662 19.0725C88.7302 19.0725 88.7622 18.9445 88.7622 18.6885C88.7622 18.4005 88.7302 18.2565 88.6662 18.2565C88.6342 18.2565 88.6182 18.4005 88.6182 18.6885C88.6182 18.9445 88.6342 19.0725 88.6662 19.0725ZM86.8422 24.2565C86.8742 24.2565 86.9542 24.1285 87.0822 23.8725C87.2742 23.6805 87.3702 23.4725 87.3702 23.2485V23.2005C87.3382 23.2005 87.2582 23.2965 87.1302 23.4885C87.0342 23.6805 86.9542 23.8405 86.8902 23.9685C86.8582 24.0645 86.8422 24.1445 86.8422 24.2085V24.2565ZM75.9462 32.2725C76.2022 32.2725 76.7462 32.0645 77.5782 31.6485C79.3702 30.7205 80.8582 29.5205 82.0422 28.0485L82.9062 26.9445L81.7062 25.6965C81.1622 25.0885 80.6342 24.3685 80.1222 23.5365C79.6422 22.7045 79.4022 22.1125 79.4022 21.7605C79.4022 21.6965 79.3862 21.6645 79.3542 21.6645C79.3222 21.6965 79.2422 21.7765 79.1142 21.9045C79.0182 22.0005 78.9702 22.1445 78.9702 22.3365L79.0182 22.4805C79.0182 22.5445 78.9702 22.5765 78.8742 22.5765C78.7782 22.5765 78.7302 22.6085 78.7302 22.6725L78.7782 22.8165C78.7782 22.9445 78.7142 23.0725 78.5862 23.2005C78.4582 23.3285 78.3942 23.4405 78.3942 23.5365V23.6325C78.3942 23.6965 78.3462 23.7285 78.2502 23.7285C78.1542 23.7285 78.1062 23.7605 78.1062 23.8245L78.0582 24.3045C77.9302 24.7205 77.7862 24.9285 77.6262 24.9285H77.4822C77.4822 24.9605 77.4982 24.9925 77.5302 25.0245C77.5622 25.0245 77.5782 25.0405 77.5782 25.0725C77.5782 25.2645 77.4982 25.4885 77.3382 25.7445L77.0982 26.3205H77.1462L77.0502 26.5605C76.7302 27.0725 76.5702 27.4405 76.5702 27.6645C76.5702 27.8565 76.5062 28.0165 76.3782 28.1445L76.1862 28.7685C75.9942 29.3445 75.8662 29.8565 75.8022 30.3045C75.7062 30.9765 75.6582 31.4405 75.6582 31.6965C75.6582 32.0805 75.7542 32.2725 75.9462 32.2725ZM76.9062 34.9605L76.9542 34.9125C76.9542 34.8485 76.8102 34.8165 76.5222 34.8165C76.2342 34.8165 76.0902 34.8485 76.0902 34.9125C76.0902 34.9445 76.3622 34.9605 76.9062 34.9605ZM76.0422 32.8485C76.1702 32.8485 76.2822 32.8325 76.3782 32.8005C76.4742 32.7685 76.5382 32.7365 76.5702 32.7045C76.6342 32.6405 76.6662 32.5925 76.6662 32.5605C76.6662 32.5285 76.6342 32.5125 76.5702 32.5125C76.4742 32.5125 76.2822 32.5765 75.9942 32.7045C75.8342 32.7685 75.7542 32.8165 75.7542 32.8485H76.0422ZM76.3782 35.5365C76.1862 35.5365 76.0422 35.5205 75.9462 35.4885C75.8822 35.4565 75.8022 35.4085 75.7062 35.3445C73.4982 34.0645 72.1702 33.0565 71.7222 32.3205C71.4022 31.7765 71.2422 30.9445 71.2422 29.8245C71.2422 27.7125 71.8822 25.3925 73.1622 22.8645C75.9142 17.5205 78.8742 13.9045 82.0422 12.0165C82.3942 11.8245 82.6502 11.7285 82.8102 11.7285C83.0022 11.7285 83.1302 11.7765 83.1942 11.8725C83.2902 11.9365 83.3542 12.0005 83.3862 12.0645C83.4182 12.0965 83.4502 12.2725 83.4822 12.5925C83.4502 12.5925 83.4182 12.5285 83.3862 12.4005C83.3542 12.1445 83.2102 12.0165 82.9542 12.0165C82.8262 12.0165 82.6502 12.0645 82.4262 12.1605C82.3302 12.1925 82.2822 12.2245 82.2822 12.2565C82.2822 12.3525 82.4742 12.4485 82.8582 12.5445C83.0822 12.6085 83.2582 12.6405 83.3862 12.6405C83.6102 12.6405 83.8182 12.5765 84.0102 12.4485C84.4582 12.0965 84.9382 11.9205 85.4502 11.9205C85.6422 11.9205 85.9462 11.9685 86.3622 12.0645C86.7782 12.1285 87.2102 12.5125 87.6582 13.2165C87.9782 13.6965 88.3142 14.0805 88.6662 14.3685C89.4022 15.1365 89.8662 16.0645 90.0582 17.1525C90.0902 17.3125 90.1062 17.5045 90.1062 17.7285C90.1062 18.5605 89.8982 19.6965 89.4822 21.1365C89.0662 22.5765 88.2822 24.4645 87.1302 26.8005C86.9382 27.1205 86.8422 27.3445 86.8422 27.4725C86.8422 27.5685 86.8902 27.6165 86.9862 27.6165C87.1142 27.6165 87.2582 27.6645 87.4182 27.7605C88.0262 28.1125 88.3302 28.4165 88.3302 28.6725C88.3302 28.7365 88.2982 28.8005 88.2342 28.8645C88.1702 28.9285 88.0582 28.9605 87.8982 28.9605C87.8022 28.9605 87.4342 28.8805 86.7942 28.7205C86.4742 28.6245 86.2502 28.5765 86.1222 28.5765C85.9302 28.5765 85.8342 28.6085 85.8342 28.6725C85.8342 28.7045 85.8822 28.7365 85.9782 28.7685C86.0742 28.8005 86.1542 28.8325 86.2182 28.8645C86.5062 28.9605 86.7942 29.0085 87.0822 29.0085L87.1302 29.1045C87.0342 29.2005 86.7782 29.2485 86.3622 29.2485L86.1222 29.2005C85.8022 29.2005 85.4182 29.5045 84.9702 30.1125C83.2742 32.1605 81.3062 33.7445 79.0662 34.8645C78.1062 35.3125 77.2102 35.5365 76.3782 35.5365Z" fill="#215FF6"/>
<path d="M80.6447 1.64782L80.8847 1.59982C80.8207 1.53582 80.6927 1.50382 80.5007 1.50382L80.4527 1.59982C80.4527 1.63182 80.5167 1.64782 80.6447 1.64782ZM62.6927 38.6078H62.5967C62.5647 38.6078 62.5007 38.5598 62.4047 38.4638C62.3407 38.3678 62.0207 38.2238 61.4447 38.0318C60.4207 37.8078 59.8927 37.4078 59.8607 36.8318C59.8607 34.9758 60.6607 31.4078 62.2607 26.1278C63.8927 20.8158 65.8447 15.2958 68.1167 9.56782C68.5007 8.57582 68.8207 7.75982 69.0767 7.11982C69.3327 6.47982 69.4607 6.12782 69.4607 6.06382H69.3647C69.2367 6.06382 68.8527 6.12782 68.2127 6.25582C66.9007 6.51182 65.2527 6.95982 63.2687 7.59982C62.0847 7.95182 61.4127 8.12782 61.2527 8.12782C61.0287 8.12782 60.8527 8.07982 60.7247 7.98382C60.6287 7.88782 60.5807 7.80782 60.5807 7.74382C60.5807 7.71182 60.6607 7.66382 60.8207 7.59982C60.9807 7.50382 61.0607 7.42382 61.0607 7.35982V7.31182C61.0607 7.24782 60.9967 7.21582 60.8687 7.21582H60.5807C60.1967 7.21582 59.7487 6.92782 59.2367 6.35182C58.9807 6.12782 58.8367 5.93582 58.8047 5.77582C58.8047 5.51982 59.1407 5.18382 59.8127 4.76782C60.4847 4.35182 61.3167 3.96782 62.3087 3.61582C63.3327 3.23182 64.7887 2.84782 66.6767 2.46382C70.0367 1.79182 73.6527 1.39182 77.5247 1.26382C78.9007 1.23182 81.1567 1.21582 84.2927 1.21582C86.4687 1.27982 87.9567 1.51982 88.7567 1.93582C89.0447 2.12782 89.1887 2.30382 89.1887 2.46382L89.1407 2.60782C89.1087 2.60782 89.0607 2.55982 88.9967 2.46382C88.9967 1.91982 87.4127 1.63182 84.2447 1.59982L81.0287 1.50382L85.6367 1.79182C86.3727 1.91982 87.0447 2.07982 87.6527 2.27182C88.5807 2.71982 89.0447 3.03982 89.0447 3.23182L88.9487 3.27982L89.0927 3.32782C89.1887 3.35982 89.3167 3.42382 89.4767 3.51982C89.6367 3.58382 89.8127 3.72782 90.0047 3.95182C90.2287 4.17582 90.3887 4.38382 90.4847 4.57582C90.5807 4.73582 90.6287 4.86382 90.6287 4.95982C90.6287 5.02382 90.6127 5.07182 90.5807 5.10382C89.6847 5.10382 89.0607 4.92782 88.7087 4.57582C88.6127 4.51182 88.4687 4.46382 88.2767 4.43182C88.0847 4.36782 87.7967 4.31982 87.4127 4.28782C85.0767 4.28782 83.1567 4.31982 81.6527 4.38382C78.0367 4.60782 76.0367 4.81582 75.6527 5.00782L75.5087 5.19982V5.43982C75.5087 5.66382 75.4607 5.77582 75.3647 5.77582C75.3007 5.77582 75.2687 5.79182 75.2687 5.82382C75.2687 5.82382 75.2687 5.83982 75.2687 5.87182V6.01582C75.2687 6.07982 75.2367 6.11182 75.1727 6.11182C75.1087 6.11182 75.0767 6.12782 75.0767 6.15982C75.0767 6.19182 75.0767 6.22382 75.0767 6.25582V6.39982C75.1087 6.49582 75.0927 6.54382 75.0287 6.54382C74.9647 6.54382 74.9327 6.55982 74.9327 6.59182C74.9327 6.59182 74.9327 6.60782 74.9327 6.63982L74.9807 6.78382L74.7407 7.35982C74.5807 7.58382 74.4527 7.87182 74.3567 8.22382C74.2607 8.54382 74.1487 8.70382 74.0207 8.70382H73.9727V8.84782C73.9727 9.00782 73.9247 9.18382 73.8287 9.37582C73.7327 9.53582 73.6047 9.82382 73.4447 10.2398C73.2847 10.6238 73.1567 10.8158 73.0607 10.8158C72.9967 10.8158 72.9647 10.8478 72.9647 10.9118L73.0127 11.1038C73.0127 11.1678 72.9967 11.2638 72.9647 11.3918C72.9327 11.5198 72.8687 11.6478 72.7727 11.7758C72.7087 11.9038 72.6447 11.9678 72.5807 11.9678C72.5487 11.9678 72.5327 11.9838 72.5327 12.0158C72.5327 12.0478 72.5327 12.0798 72.5327 12.1118L72.5807 12.3038C72.5807 12.3358 72.5327 12.3518 72.4367 12.3518C72.3727 12.3518 72.2607 12.5278 72.1007 12.8798C71.9727 13.2318 71.9087 13.4398 71.9087 13.5038C71.9087 13.5678 71.8607 13.7598 71.7647 14.0798C71.7007 14.3998 71.6047 14.5598 71.4767 14.5598H71.4287L71.4767 14.8478C71.4447 14.8798 71.3967 14.8958 71.3327 14.8958C71.3007 14.8958 71.2687 14.9118 71.2367 14.9438L71.2847 15.2318C71.2847 15.2638 71.2527 15.2798 71.1887 15.2798C71.1247 15.2798 71.0927 15.2958 71.0927 15.3278C71.0927 15.3278 71.0927 15.3438 71.0927 15.3758L71.1407 15.6158C71.1407 15.6478 71.0927 15.6638 70.9967 15.6638C70.9327 15.6638 70.9007 15.7118 70.9007 15.8078L70.9967 15.9998C70.9967 16.0638 70.9487 16.0958 70.8527 16.0958H70.8047L70.8527 16.3838C70.8207 16.4158 70.7727 16.4318 70.7087 16.4318C70.6447 16.4318 70.6127 16.5118 70.6127 16.6718L70.6607 16.7678C70.6607 16.7998 70.6127 16.8158 70.5167 16.8158C70.4527 16.8158 70.4207 16.8638 70.4207 16.9598L70.5167 17.1998C70.4847 17.2318 70.4367 17.2478 70.3727 17.2478C70.3407 17.2478 70.3247 17.2638 70.3247 17.2958C70.3247 17.2958 70.3247 17.3118 70.3247 17.3438L70.3727 17.4878L70.3247 17.5358C70.2607 17.5998 70.1807 17.6638 70.0847 17.7278C69.9887 17.7598 69.9407 17.8238 69.9407 17.9198L70.0367 18.3038C70.0047 18.3998 69.9567 18.4478 69.8927 18.4478H69.8447L69.8927 18.6878C69.8927 18.7518 69.8607 18.7838 69.7967 18.7838C69.7327 18.7838 69.7007 18.7998 69.7007 18.8318C69.7007 18.8638 69.7007 18.8958 69.7007 18.9278L69.7487 19.1198C69.7487 19.1518 69.7167 19.1678 69.6527 19.1678C69.5887 19.1678 69.5087 19.2638 69.4127 19.4558C69.3487 19.6158 69.3167 19.7918 69.3167 19.9838V20.2238C69.2847 20.2558 69.2367 20.3038 69.1727 20.3678C69.1087 20.3998 69.0287 20.5278 68.9327 20.7518C68.6127 21.4238 68.4207 21.9358 68.3567 22.2878L68.3087 22.6718L68.3567 22.8158C68.3247 22.8798 68.2767 22.9118 68.2127 22.9118C68.1487 22.9118 68.1167 22.9438 68.1167 23.0078L68.1647 23.1998C68.1647 23.2318 68.1487 23.2478 68.1167 23.2478C67.7647 23.5358 67.0287 25.5198 65.9087 29.1998C64.7567 32.7518 64.0687 35.3118 63.8447 36.8798C63.7807 37.2318 63.5887 37.6478 63.2687 38.1278C63.0127 38.4478 62.8207 38.6078 62.6927 38.6078Z" fill="#215FF6"/>
<path d="M30.1453 22.4321C30.2093 22.4321 30.9933 21.6961 32.4973 20.2241C33.3293 19.4241 33.7453 19.0081 33.7453 18.9761L30.7213 21.7121C30.3373 22.0961 30.1453 22.3361 30.1453 22.4321ZM33.5053 20.2241L33.9373 19.6481H33.8893C33.8573 19.6481 33.7773 19.6961 33.6493 19.7921C33.5533 19.8881 33.4733 19.9681 33.4093 20.0321C33.3453 20.0961 33.3133 20.1441 33.3133 20.1761C33.3133 20.2081 33.3293 20.2241 33.3613 20.2241H33.5053ZM30.6253 22.8161C30.6573 22.8161 30.6893 22.8001 30.7213 22.7681C30.7853 22.7041 30.8813 22.6081 31.0093 22.4801C31.1373 22.3201 31.2013 22.2241 31.2013 22.1921H31.1533L30.5773 22.6721C30.5773 22.7681 30.5933 22.8161 30.6253 22.8161ZM30.0973 23.4881C30.1613 23.4881 30.2093 23.4241 30.2413 23.2961C30.3053 23.1681 30.3373 23.0881 30.3373 23.0561C30.3373 23.0241 30.3213 23.0081 30.2893 23.0081C30.2573 23.0081 30.1933 23.0401 30.0973 23.1041C30.0333 23.1361 30.0013 23.2161 30.0013 23.3441C30.0013 23.4401 30.0173 23.4881 30.0493 23.4881H30.0973ZM25.0573 32.3201C25.2493 32.3201 25.6653 32.1121 26.3053 31.6961C27.2333 31.1841 28.1453 30.5601 29.0413 29.8241C29.9373 29.0561 31.1693 27.8721 32.7373 26.2721C36.1613 22.8481 38.4333 20.0641 39.5533 17.9201L40.1293 16.6721C40.1293 16.6401 40.1133 16.6241 40.0813 16.6241C39.9853 16.6241 39.7613 16.6881 39.4093 16.8161C37.8093 17.4881 36.1133 18.5441 34.3213 19.9841C32.5613 21.3921 30.7693 23.1681 28.9453 25.3121C27.9213 26.5281 27.2333 27.4561 26.8813 28.0961L25.8253 30.1601C25.2173 31.2801 24.9133 31.9521 24.9133 32.1761C24.9133 32.2721 24.9613 32.3201 25.0573 32.3201ZM34.3213 18.6881C34.3853 18.6881 34.4973 18.6081 34.6573 18.4481C34.8173 18.2561 34.8973 18.1441 34.8973 18.1121C34.8653 18.1121 34.7853 18.1601 34.6573 18.2561C34.5613 18.3521 34.4653 18.4321 34.3693 18.4961C34.3053 18.5601 34.2733 18.6081 34.2733 18.6401C34.2733 18.6721 34.2893 18.6881 34.3213 18.6881ZM41.3293 15.1361C41.4253 15.1361 41.4733 15.0401 41.4733 14.8481C41.4733 14.4961 41.3133 14.2241 40.9933 14.0321C40.7053 13.8401 40.4013 13.7441 40.0813 13.7441C39.9213 13.7441 39.5853 13.8081 39.0733 13.9361L39.7933 14.1281C40.2733 14.1601 40.6253 14.3361 40.8493 14.6561C41.0733 14.9761 41.2333 15.1361 41.3293 15.1361ZM41.3773 19.0241C41.4413 19.0241 41.4893 18.9601 41.5213 18.8321C41.5853 18.7041 41.6173 18.6241 41.6173 18.5921C41.6173 18.5601 41.6013 18.5441 41.5693 18.5441C41.5373 18.5441 41.4733 18.5761 41.3773 18.6401C41.3133 18.6721 41.2813 18.7521 41.2813 18.8801C41.2813 18.9761 41.2973 19.0241 41.3293 19.0241H41.3773ZM39.3133 22.3361L39.7453 21.7601C39.7133 21.7601 39.6013 21.8401 39.4093 22.0001C39.2493 22.1281 39.1693 22.2241 39.1693 22.2881C39.1693 22.3201 39.1853 22.3361 39.2173 22.3361H39.3133ZM28.5613 25.2641C28.5933 25.2641 28.6253 25.2001 28.6573 25.0721C28.7213 24.9121 28.7533 24.8161 28.7533 24.7841V24.7361C28.7213 24.7361 28.6733 24.7681 28.6093 24.8321C28.5773 24.8641 28.5453 24.9121 28.5133 24.9761C28.4813 25.0081 28.4653 25.0401 28.4653 25.0721C28.4653 25.2001 28.4973 25.2641 28.5613 25.2641ZM42.0973 17.3441C42.2253 17.3441 42.2893 17.2161 42.2893 16.9601C42.2893 16.7041 42.2253 16.5281 42.0973 16.4321H42.0493C41.9533 16.4321 41.9053 16.5601 41.9053 16.8161C41.9053 17.1681 41.9693 17.3441 42.0973 17.3441ZM16.1293 49.7921L16.1773 49.6001L16.0813 49.3121C16.0493 49.3121 16.0333 49.4241 16.0333 49.6481C16.0333 49.6801 16.0333 49.7121 16.0333 49.7441C16.0333 49.7761 16.0493 49.7921 16.0813 49.7921H16.1293ZM15.9373 50.6081C15.9693 50.5441 15.9853 50.4641 15.9853 50.3681C15.9853 50.1761 15.9533 50.0801 15.8893 50.0801C15.8573 50.0801 15.8413 50.1921 15.8413 50.4161C15.8413 50.5441 15.8733 50.6081 15.9373 50.6081ZM16.9933 52.2881C16.8973 52.2881 16.7693 52.2241 16.6093 52.0961C16.4493 52.0001 16.2893 51.9521 16.1293 51.9521C16.0333 51.9521 15.9533 51.9841 15.8893 52.0481C15.7933 52.1441 15.6813 52.1921 15.5533 52.1921C15.3613 52.1921 15.0893 52.0641 14.7373 51.8081C14.0973 51.4561 13.7773 51.0721 13.7773 50.6561C13.7773 50.4321 13.8093 50.1441 13.8733 49.7921C14.5773 46.2721 16.1613 41.5841 18.6253 35.7281C21.0573 29.9041 23.7133 24.4001 26.5933 19.2161C28.0333 16.7201 29.3613 14.6081 30.5773 12.8801C31.8253 11.1201 32.5933 10.2401 32.8813 10.2401H32.9773C33.0733 10.2401 33.1853 10.1441 33.3133 9.95206C33.4413 9.76006 33.5373 9.66406 33.6013 9.66406C33.6653 9.66406 33.7293 9.69606 33.7933 9.76006C33.8573 9.79206 33.8893 9.85606 33.8893 9.95206C33.8893 10.0161 33.8413 10.0961 33.7453 10.1921C33.6813 10.2881 33.6493 10.4001 33.6493 10.5281C33.6493 10.5921 33.6813 10.7041 33.7453 10.8641C33.8093 11.0241 33.9213 11.1841 34.0813 11.3441C34.2413 11.4721 34.3853 11.5361 34.5133 11.5361C34.5453 11.5361 34.5933 11.5201 34.6573 11.4881C34.7213 11.4241 34.7853 11.3921 34.8493 11.3921C34.9453 11.3921 35.0413 11.4401 35.1373 11.5361C35.2653 11.6001 35.3613 11.7281 35.4253 11.9201C35.5213 12.1121 35.5693 12.2881 35.5693 12.4481C35.5693 12.8641 34.9453 14.0321 33.6973 15.9521C33.6333 16.1121 33.5373 16.2881 33.4093 16.4801C33.2813 16.6401 33.1693 16.8001 33.0733 16.9601C33.0093 17.1201 32.9773 17.2321 32.9773 17.2961C33.0093 17.2961 33.1213 17.2161 33.3133 17.0561C33.5053 16.8641 33.6813 16.7681 33.8413 16.7681L34.0813 16.8641L34.0333 16.7681C34.0333 16.5441 34.6253 16.0641 35.8093 15.3281C37.6973 14.1761 39.1693 13.6001 40.2253 13.6001C40.3213 13.6001 40.5773 13.6321 40.9933 13.6961C41.4413 13.7281 41.6653 14.1281 41.6653 14.8961C41.6653 15.0241 41.6973 15.1521 41.7613 15.2801C41.8253 15.3761 41.9053 15.4241 42.0013 15.4241C42.2573 15.5841 42.4973 15.8881 42.7213 16.3361C42.9453 16.7841 43.0573 17.2161 43.0573 17.6321C43.0573 18.7201 42.4973 20.1121 41.3773 21.8081C39.5853 24.4001 37.4093 26.8961 34.8493 29.2961C32.2893 31.6961 29.9533 33.4241 27.8413 34.4801C26.9773 34.8321 26.2413 35.0081 25.6333 35.0081C25.3453 35.0081 25.1693 34.9601 25.1053 34.8641C25.0413 34.8001 24.9453 34.7521 24.8173 34.7201C24.4333 34.6241 24.1293 34.5761 23.9053 34.5761C23.8413 34.5761 23.7613 34.5921 23.6653 34.6241C23.6013 34.6561 23.5053 34.8001 23.3773 35.0561C22.9933 35.8241 22.7213 36.4001 22.5613 36.7841C22.3693 37.2001 22.1613 37.6481 21.9373 38.1281C21.7133 38.6081 21.5213 39.0401 21.3613 39.4241C21.1693 39.8401 21.0093 40.1921 20.8813 40.4801C20.7533 40.7681 20.6893 40.9281 20.6893 40.9601C20.6893 41.0241 20.6413 41.1521 20.5453 41.3441C20.4493 41.5361 20.3693 41.7121 20.3053 41.8721C19.4733 43.7601 18.7693 45.6001 18.1933 47.3921C17.6173 49.1841 17.3293 50.4481 17.3293 51.1841C17.3293 51.9201 17.2173 52.2881 16.9933 52.2881Z" fill="#215FF6"/>
<path d="M16.3043 21.0402C16.3363 21.0402 16.3683 21.0242 16.4003 20.9922C16.4323 20.9282 16.5763 20.7042 16.8323 20.3202C16.7683 20.3202 16.6883 20.3842 16.5923 20.5122C16.3683 20.7682 16.2563 20.9282 16.2563 20.9922C16.2563 21.0242 16.2723 21.0402 16.3043 21.0402ZM16.2563 38.9922C16.1283 38.9922 15.9363 38.8162 15.6803 38.4642C15.5843 38.3362 15.4243 38.1602 15.2003 37.9362C14.9763 37.7122 14.7522 37.4722 14.5282 37.2162C14.3042 36.9602 14.0643 36.7042 13.8083 36.4482C13.9043 35.1362 14.0803 33.7442 14.3363 32.2722C14.7843 29.5522 15.2323 27.3282 15.6803 25.6002C15.8723 24.8642 15.9683 24.4482 15.9683 24.3522V24.3042C15.9363 24.3042 15.1843 25.5362 13.7123 28.0002C9.90425 34.4642 7.13625 37.6962 5.40825 37.6962H4.11225L3.63225 37.7922C4.14425 38.1442 4.40025 38.3362 4.40025 38.3682C4.40025 38.4002 4.36825 38.4162 4.30425 38.4162C4.24025 38.4162 4.03225 38.2882 3.68025 38.0322C3.36025 37.8082 2.99225 37.5202 2.57625 37.1682C2.00025 36.7202 1.58425 36.3362 1.32825 36.0162C1.07225 35.7282 0.89625 35.3922 0.80025 35.0082C0.70425 34.6242 0.65625 34.1602 0.65625 33.6162C0.65625 30.7362 1.85625 25.9042 4.25625 19.1202L5.60025 15.6642C7.07225 11.9842 8.11225 9.50424 8.72025 8.22425C9.10425 7.52024 9.29625 7.12024 9.29625 7.02424C9.29625 6.89624 9.45625 6.51224 9.77625 5.87224C10.0642 5.42424 10.2083 5.08824 10.2083 4.86424L10.1602 4.76824C10.1602 4.51224 10.4803 3.92024 11.1203 2.99224C11.3763 2.60824 11.8083 2.11224 12.4163 1.50424L12.2723 2.36824C12.2723 2.65624 12.3683 2.97624 12.5603 3.32824C12.7843 3.68024 12.9443 3.85624 13.0402 3.85624C13.1363 3.85624 13.2323 3.79224 13.3283 3.66424C13.4243 3.53624 13.5043 3.47224 13.5683 3.47224C13.6643 3.47224 13.7923 3.61624 13.9523 3.90424C14.2083 4.22424 14.3363 4.56024 14.3363 4.91224C14.3363 5.16824 14.2563 5.44024 14.0963 5.72824C13.2643 7.36024 11.8243 10.7202 9.77625 15.8082C7.85625 20.4802 6.44825 24.4802 5.55225 27.8082C5.07225 29.6002 4.70425 31.1842 4.44825 32.5602C4.28825 33.4562 4.20825 34.0642 4.20825 34.3842C4.20825 34.5442 4.22425 34.6402 4.25625 34.6722C4.67225 34.6722 5.44025 33.9682 6.56025 32.5602C7.68025 31.1522 8.84825 29.4402 10.0643 27.4242C18.0963 13.7922 22.6562 5.96824 23.7442 3.95224C24.1922 3.18424 24.5602 2.56024 24.8482 2.08024C25.1683 1.56824 25.3603 1.31224 25.4243 1.31224H25.4722C25.5363 1.31224 25.6803 1.16824 25.9043 0.880242L25.9522 0.784244C26.1122 0.560243 26.2403 0.448242 26.3363 0.448242C26.3683 0.448242 26.3843 0.480243 26.3843 0.544244C26.3843 0.640244 26.3203 0.800244 26.1923 1.02424L26.1443 1.31224C26.1443 1.50424 26.2402 1.76024 26.4322 2.08024C26.6562 2.36824 26.7683 2.67224 26.7683 2.99224C26.7683 3.02424 26.7843 3.04024 26.8163 3.04024L27.0562 2.75224C27.0882 2.75224 27.1042 2.73624 27.1042 2.70424L27.3923 2.17624C27.5203 2.40024 27.6643 2.65624 27.8243 2.94424C27.9843 3.23224 28.0643 3.47224 28.0643 3.66424C28.0643 4.01624 26.9923 6.89624 24.8482 12.3042C22.7682 17.4562 21.4083 21.0882 20.7683 23.2002C20.6083 23.6162 20.4803 24.0002 20.3843 24.3522C20.3203 24.7042 20.2403 24.9282 20.1443 25.0242C19.8563 25.9522 19.5203 27.2162 19.1363 28.8162C18.1123 32.9442 17.5363 35.6802 17.4083 37.0242C17.3763 38.0802 17.2643 38.6082 17.0723 38.6082C17.0083 38.6082 16.9443 38.5282 16.8803 38.3682C16.8163 38.2082 16.7363 38.1282 16.6403 38.1282C16.4803 38.1282 16.4003 38.2722 16.4003 38.5602C16.4003 38.8482 16.3523 38.9922 16.2563 38.9922Z" fill="#215FF6"/>
</svg>
