<svg width="310" height="86" viewBox="0 0 310 86" fill="none" xmlns="http://www.w3.org/2000/svg">
<path d="M282.825 70.6662C282.788 70.9314 282.714 71.462 282.688 71.8106C282.417 73.5676 282.454 77.6568 282.707 79.0241C282.853 79.5751 282.972 80.4747 283.031 80.9244C283.184 81.7138 283.508 81.9854 284.004 81.7392C284.407 81.5135 285.421 80.9163 286.191 80.1984L286.263 80.1997C288.181 78.7207 291.684 73.6961 293.212 70.2657C294.736 66.719 296.372 60.6646 297.066 55.8402C298.563 45.7446 297.456 36.8501 294.521 35.5523C293.964 35.2434 293.419 35.1176 293.272 35.0984C292.824 35.074 289.397 43.2079 287.532 49.0755C286.117 53.3555 283.753 62.4387 283.8 63.337C283.824 63.5203 283.726 63.8676 283.578 64.3802C283.418 64.8096 283.392 65.1581 283.539 65.1773C283.611 65.1786 283.563 65.3606 283.404 65.7899C283.295 66.0539 283.159 66.1181 283.306 66.1372C283.453 66.1564 283.416 66.4217 283.379 66.687C283.27 66.951 283.183 67.3816 283.218 67.6481C283.181 67.9134 283.094 68.344 283.07 68.7092C282.922 69.2219 282.909 69.6704 282.823 70.6495L282.825 70.6662ZM290.886 27.6109C290.741 27.6084 290.521 27.671 290.401 27.8517C290.364 28.117 290.522 28.2195 290.753 28.2401C291.054 28.2454 291.262 28.1825 291.227 27.916C291.202 27.7328 291.045 27.6303 290.888 27.6275L290.886 27.6109ZM283.646 82.9296C283.694 83.2961 285.452 82.3296 286.001 81.5746C286.123 81.4105 285.646 81.6183 284.89 81.9873C284.207 82.2746 283.609 82.7461 283.631 82.9127L283.646 82.9296ZM285.222 86.6634C285.734 86.7222 286.162 86.5967 286.064 86.4953C285.869 86.1096 284.053 86.0945 284.088 86.3611C284.113 86.5443 284.625 86.6031 285.21 86.6632L285.222 86.6634ZM299.313 37.8963C298.731 36.8557 298.171 36.0814 297.955 36.0776C297.654 36.0724 298.234 37.0963 299.617 39.0152C300.636 40.4457 300.455 39.7112 299.325 37.8965L299.313 37.8963ZM300.979 51.554C301.041 52.0204 301.124 52.105 301.199 52.1229C301.332 52.0421 301.272 51.5924 301.163 51.3079C300.981 51.0222 301.005 51.2054 300.969 51.5704L300.979 51.554ZM288.516 86.7708C286.074 88.1076 285.415 88.0296 282.151 85.7954C277.405 82.5215 276.545 80.9276 275.712 74.6472C274.987 68.6346 275.727 61.8 278.231 52.9519C280.655 44.5013 283.785 36.761 287.028 31.3163C289.733 26.7099 291.479 25.3775 291.819 27.943C291.951 28.9425 292.109 29.045 292.643 29.0875C293.178 29.1301 293.249 29.2144 292.934 29.558C292.644 29.636 292.668 29.8192 292.897 29.8232C293.042 29.8258 293.32 29.6644 293.382 29.5824C293.588 28.8713 294.218 29.1815 295.175 30.2453C296.037 31.1246 296.144 31.3924 295.914 31.9202C295.721 32.7312 295.818 32.9157 296.836 33.7978C299.541 36.1718 301.604 38.6842 302.249 40.7398C304.706 47.946 303.069 62.7925 298.549 73.1013C296.133 78.8928 291.627 84.8639 288.513 86.7541L288.516 86.7708Z" fill="#215FF6"/>
<path d="M267.736 79.8106C267.018 79.1997 266.303 78.6055 266.121 78.3198C265.842 77.8496 266.301 73.3369 266.857 71.6347C267.708 68.9903 269.173 67.7195 269.044 70.0108C269.006 70.8079 269.078 70.8092 269.298 70.2978C269.519 69.7864 269.593 69.8044 270.344 70.6651C270.853 71.2391 271.485 71.7487 271.704 71.7691C271.995 71.7908 272.641 72.4004 273.221 72.9757C274.071 74.0376 274.156 74.1388 273.957 75.2655C273.809 75.7781 273.293 77.2317 272.716 78.3186C272.237 79.5069 271.89 80.6975 271.976 80.7987C272.158 81.0844 271.742 81.2101 271.073 80.9657C270.854 80.9453 270.682 81.1916 270.643 81.4402C270.519 82.1361 269.8 82.0571 269.376 81.4846C269.193 81.1988 268.454 80.4214 267.736 79.8106Z" fill="#215FF6"/>
<path d="M253.866 60.7374C249.79 60.7992 240.999 64.7177 240.522 66.7371C239.884 69.086 240.1 76.3362 240.823 77.7117C241.173 78.2663 244.161 78.335 245.798 77.8152C249.134 76.6102 252.434 73.4934 254.195 70.0173C255.33 67.6105 256.398 63.524 256.21 62.108L256.047 60.8752L253.881 60.7543L253.866 60.7374ZM255.81 56.5498C255.071 55.6893 254.72 55.6665 252.229 55.274C250.454 55.1101 250.161 55.1715 251.353 55.4582C253.212 55.8895 255.833 57.2649 255.901 57.7813C255.912 57.8646 256.083 58.067 256.362 58.0885C256.567 58.0921 256.764 57.9459 256.753 57.8626C256.729 57.6794 256.307 57.1236 255.81 56.5498ZM244.472 79.1382L244.496 79.3215L245.39 78.905L244.439 78.8884C243.975 79.0132 243.013 78.9133 242.329 78.8349C241.574 78.7553 241.171 78.7981 241.279 79.0659C241.629 79.6205 243.41 79.7346 244.486 79.1551L244.472 79.1382ZM242.567 82.7116C242.931 82.9174 243.639 83.0959 244.187 83.1554C244.789 83.2213 244.871 83.1451 244.434 82.927C243.984 82.62 243.289 82.5414 242.802 82.3999C242.119 82.3215 242.055 82.3869 242.567 82.7116ZM259.221 65.9665C259.196 65.7833 259.052 65.7808 258.977 66.2116C258.865 66.4589 258.779 66.8065 258.804 66.9897C258.839 67.2562 258.961 67.0922 259.061 66.8446C259.16 66.597 259.258 66.2497 259.223 65.9832L259.221 65.9665ZM259.308 62.9099C259.334 62.5614 259.106 61.9258 258.913 61.4737C258.274 60.3656 258.199 60.7964 258.824 62.3364C259.136 63.1563 259.294 63.2587 259.32 62.9101L259.308 62.9099ZM233.087 67.2056C232.686 66.5338 232.7 65.7917 233.129 64.9793C233.474 64.5033 233.928 62.4005 234.223 60.5441C235.827 48.7219 244.262 30.055 250.815 24.1197C251.68 23.3037 252.334 22.9828 252.516 23.2685C253.011 23.8256 252.658 24.3346 252.064 24.0251C251.724 23.9416 251.744 24.0916 252.124 24.4749C252.449 24.8462 252.871 25.4021 253.075 25.8544C253.353 26.4077 253.666 26.596 254.128 26.4545C254.663 26.2311 254.892 26.4179 255.277 27.239C255.662 28.0602 255.563 28.3077 253.829 31.0863C252.79 32.7634 251.554 34.9523 251.015 36.1396C250.475 37.3268 249.531 39.0887 249.003 40.3592C248.401 41.5288 247.971 42.452 248.033 42.4697C248.166 42.472 248.069 42.7362 247.908 43.0658C247.443 43.7225 246.213 46.4102 246.27 46.8433C246.281 46.9266 245.963 47.6024 245.58 48.3437C245.2 49.1016 244.989 49.5965 245.136 49.6157C245.283 49.6349 245.293 49.8013 245.171 49.8822C244.989 50.0452 244.741 50.8054 244.555 51.4836C244.307 52.2438 243.972 53.2518 243.678 53.6622C243.407 54.1561 243.197 54.651 243.27 54.752C243.367 54.9365 243.266 55.2672 243.119 55.6967C242.589 56.8675 242.796 56.8878 244.723 55.9242C247.321 54.7729 249.524 54.2628 251.834 54.4694C254.291 54.6951 255.587 55.4988 256.746 57.447C257.265 58.1874 257.847 58.8623 257.979 58.8646C258.111 58.867 258.801 59.8097 259.491 60.7525C260.53 62.2498 260.734 62.7021 260.97 64.4846C261.441 68.033 259.625 73.3696 256.472 77.4031C254.384 79.9594 252.705 81.3429 249.536 82.8997C246.78 84.3142 243.718 84.3272 242.151 83.286C241.69 82.8957 240.127 81.3394 238.784 79.8201C235.784 76.4936 234.799 74.6814 234.085 70.7466C233.817 69.2627 233.342 67.6755 233.078 67.2221L233.087 67.2056Z" fill="#215FF6"/>
<path d="M199.386 44.5961C199.325 44.595 198.993 44.9881 198.732 45.4655C198.4 45.8586 198.26 46.2551 198.335 46.273C198.409 46.2909 198.727 45.8809 198.999 45.4868C199.32 45.0104 199.458 44.5973 199.386 44.5961ZM200.162 43.7454C200.423 43.2679 200.401 43.1013 200.016 43.6431C199.794 43.8719 199.635 44.1184 199.635 44.1184C199.69 44.5349 199.852 44.305 200.162 43.7454ZM202.413 42.4218C202.268 41.3223 201.9 41.4489 201.136 42.4826L200.482 43.3521L201.204 42.999C201.621 42.7902 202.081 42.8149 202.226 43.0002C202.358 43.0025 202.459 42.8547 202.401 42.4216L202.413 42.4218ZM204.446 61.6536C204.441 62.0691 204.536 62.3367 204.647 62.1724C204.696 62.0901 204.652 61.757 204.556 61.4894C204.46 61.2218 204.388 61.2205 204.446 61.6536ZM205.556 72.4762C205.611 72.8926 205.768 73.0782 205.89 73.097C206.085 73.117 206.198 72.9694 206.14 72.5362C206.107 72.2864 205.939 72.0175 205.745 71.9975C205.612 71.9952 205.523 72.2263 205.556 72.4762ZM205.514 70.7137C205.508 70.215 205.44 69.6986 205.295 69.5132C204.91 69.0578 204.878 69.722 205.219 70.8415L205.598 71.7955L205.512 70.697L205.514 70.7137ZM205 48.4336C205.027 48.1848 204.97 47.7517 204.876 47.5007C204.781 47.2331 204.744 47.4984 204.799 47.9149C204.868 48.4313 204.95 48.5989 205 48.4336ZM204.895 45.7393C204.835 45.7383 204.736 45.9858 204.72 46.318C204.715 46.7334 204.788 46.8344 204.921 46.8367C205.053 46.839 205.165 46.7745 205.107 46.3413C205.063 46.0082 204.967 45.7406 204.895 45.7393ZM187.881 78.1676C187.693 78.6463 187.57 78.6275 186.604 77.8627C185.842 77.2843 185.642 76.6825 185.983 75.9904C186.272 75.3639 186.244 74.6986 185.957 72.533C185.63 70.5162 185.973 64.2231 186.723 58.1864C187.815 49.9286 191.365 29.7638 193.094 22.7802C193.424 21.4564 193.695 20.1481 193.695 20.1481C193.661 19.8982 196.592 9.74454 197.203 8.09317C197.516 7.10142 198.182 5.78344 198.674 5.14384C199.485 4.0112 199.557 4.01246 199.535 4.84308C199.559 6.02354 200.997 7.62756 201.438 7.05354C201.708 6.64275 201.985 6.8304 202.535 7.53806C203.302 8.43232 203.313 8.51562 203.024 9.7737C201.466 15.5137 199.493 23.4736 198.95 25.6248C197.686 31.5029 197.162 33.804 197.184 33.9706C197.184 33.9706 196.981 34.8811 196.749 35.9408C196.579 37.0181 195.751 41.3748 194.935 45.7317C194.179 50.0896 193.477 53.767 193.438 54.0156C193.351 54.2634 193.493 54.4321 193.726 54.2866C193.97 54.2244 194.132 53.9945 194.088 53.6613C194.033 53.2449 196.831 48.075 197.319 47.9505C197.492 47.804 197.58 47.5562 197.508 47.4718C197.258 47.0353 200.51 42.2058 201.392 41.6062C202.114 41.2532 202.535 41.5264 202.683 42.6426C202.806 43.5755 203.647 44.5707 203.812 43.9088C204.048 43.2481 204.872 43.6614 205.773 44.6577C206.614 45.653 206.709 45.9206 206.812 47.601C206.814 48.6149 206.797 51.3901 206.723 53.7323C206.58 58.0012 206.492 65.1297 207.066 69.461C207.307 70.8281 207.528 71.9455 207.648 71.9476C208.164 71.4913 210.559 67.6273 211.082 66.6724C210.425 67.6083 209.782 68.5611 209.125 69.497C208.469 70.3498 206.484 72.4093 208.414 69.9333C208.587 69.7867 208.686 69.5392 208.859 69.3926C209.455 68.5388 210.631 66.7144 211.332 66.1117C212.022 65.4257 211.519 65.5333 211.98 64.6605C212.241 64.183 213.036 63.8313 212.491 64.6195C211.653 65.6353 212.769 64.7241 213.283 64.6998C214.308 64.5515 214.264 65.2156 214.494 65.5021C215.098 66.1608 215.454 65.8513 215.613 67.0507C215.619 67.5494 216.025 67.1742 216.072 67.5241C216.182 68.8058 211.748 74.1466 210.875 74.8127C209.695 75.6065 206.807 75.2071 205.33 74.2174C203.503 72.9389 202.759 71.6794 202.218 69.044C201.663 66.3086 201.302 60.6847 201.43 55.8504C201.654 49.8378 201.69 50.1043 200.647 51.8479C197.929 56.3544 194.497 64.2722 192.074 71.6425C189.876 78.1691 189.748 78.5658 188.814 78.134C188.363 77.9932 187.936 78.0356 187.886 78.2009L187.881 78.1676Z" fill="#215FF6"/>
<path d="M210.317 34.449C210.873 34.7413 211.555 35.9 211.573 36.5817C211.524 36.664 210.068 36.5554 208.272 36.2416C205.301 35.7576 199.805 35.0799 197.888 35.0299C197.45 35.0721 195.958 34.8798 194.611 34.7732C192.997 34.5622 190.898 34.4092 188.748 34.3218C188.699 34.4041 188.721 34.5707 188.683 34.7362C187.239 40.4284 186.134 45.2289 186.156 45.3955C186.227 45.4799 186.129 45.6444 185.994 45.6254C185.801 45.622 185.81 45.6887 185.907 45.8732C186 46.1241 186.022 46.2907 185.841 46.2875C185.721 46.2854 185.597 46.3498 185.619 46.5163C185.746 47.0172 185.536 48.2434 185.281 48.2223C185.161 48.2202 185.108 48.3689 185.276 48.6377C185.347 48.7221 185.309 48.8876 185.114 48.8676C184.994 48.8655 184.93 48.9309 185.027 49.1154C185.098 49.1997 185.017 49.9462 184.799 50.6571C184.594 51.4679 184.299 52.5098 184.289 53.3406C184.172 53.9037 184.017 54.5492 183.897 54.5471C183.776 54.545 183.716 54.5439 183.725 54.6106C183.851 55.1114 183.636 56.753 183.454 56.7332C183.393 56.7322 183.304 56.9633 183.326 57.1299C183.359 57.3797 183.169 58.7559 182.848 60.0467C182.559 61.5873 182.336 62.7136 182.396 62.7147C182.517 62.7168 182.468 62.799 182.38 63.0468C182.129 63.5078 181.515 69.1147 181.442 71.7394C181.418 73.3678 181.451 73.6176 181.789 73.9061C182.065 74.1768 182.088 74.3434 181.722 74.3038C181.479 74.2829 181.295 74.3462 181.306 74.4295C181.328 74.5961 181.728 74.8025 182.072 74.6756C182.55 74.5676 182.889 74.7729 182.922 75.0228C182.956 75.2727 183.038 75.4403 183.138 75.2925C183.572 74.8513 184.17 77.4545 183.875 78.4964C183.687 78.9751 181.745 80.5534 181.245 80.4948C181.185 80.4938 180.556 79.9177 179.896 79.1084C179.165 78.2148 178.249 77.2847 177.805 76.7451C176.168 75.0046 175.747 71.3741 176.208 63.3379C176.666 55.2851 178.479 45.7601 181.868 33.9857L181.177 33.9404C179.258 33.9567 177.593 33.9942 177.399 33.8911C177.278 33.889 177.227 33.9545 177.311 34.1388C177.383 34.2232 176.896 34.2645 176.204 34.1195C175.574 33.9922 173.87 34.0954 172.351 34.2351C168.908 34.4575 166.284 34.3286 166.098 33.8268C166.064 33.5769 166.214 33.3468 166.484 33.1188C166.826 32.9808 166.795 32.8971 166.391 32.8679C165.894 32.7429 165.609 32.4055 165.15 31.3006C164.757 30.4516 164.704 29.9022 164.992 29.6524C165.715 29.2163 170.718 28.4393 174.302 28.2027C177.12 28.0691 180.266 28.0575 183.579 28.132C185.27 22.9428 186.836 18.7153 187.224 18.7387C187.416 18.7421 187.638 18.5132 187.665 18.2644C187.797 17.3526 188.228 17.7922 188.22 18.6397C188.121 19.8014 189.363 21.5516 189.842 20.9118C190.333 20.3553 191.372 21.9357 191.345 23.1818C191.34 23.5972 190.915 25.6507 190.227 28.5306C193.416 28.7524 196.57 29.0734 199.636 29.5424C208.253 30.8397 210.955 31.5516 209.851 32.5628C209.265 33.0346 209.595 34.0708 210.368 34.4665L210.317 34.449ZM181.393 79.1678C181.678 78.9567 181.592 78.8555 181.167 78.8148C180.849 78.776 180.617 78.8385 180.65 79.0884C180.705 79.5048 180.948 79.5257 181.393 79.1678ZM208.64 32.1262C209.217 32.585 209.752 32.6275 209.405 32.0065L209.465 32.0076C209.322 31.922 209.056 31.8176 208.703 31.6951C208.355 31.6669 208.329 31.8049 208.626 32.1093L208.64 32.1262Z" fill="#215FF6"/>
<path d="M166.789 57.7054C166.849 57.7064 166.684 57.3711 166.375 56.8505C165.283 54.9534 164.976 54.4494 165.006 54.6826C165.093 55.3323 166.483 57.6668 166.786 57.6887L166.789 57.7054ZM169.036 39.4956C167.992 39.4109 166.341 42.4568 165.613 45.5687C165.022 48.3672 165.401 52.13 166.53 54.7591C167.235 56.45 167.306 56.5344 167.512 55.8233C167.7 55.4277 168.052 54.0045 168.414 52.5648C169.328 48.4922 169.648 44.9245 169.386 42.0446C169.321 40.6474 169.109 39.4968 169.046 39.4791L169.036 39.4956ZM169.163 35.8247C168.524 34.6335 167.514 33.9012 166.563 34.0675C165.491 34.2316 165.585 34.4825 166.832 34.737C167.318 34.7787 167.704 34.8852 167.677 35.134C167.639 35.2995 167.782 35.4682 168.036 35.5724C168.301 35.7598 168.71 36.0329 168.964 36.137C169.325 36.4425 169.391 36.3384 169.163 35.8247ZM172.146 47.2783C172.091 46.8618 171.898 47.6728 171.757 48.9668C171.64 50.3442 171.45 51.7203 171.431 52.0358C171.368 52.4668 171.416 52.5231 171.574 52.2045C171.641 51.8068 171.875 50.7638 171.986 49.7851C172.088 48.7398 172.199 47.6781 172.144 47.2616L172.146 47.2783ZM171.458 40.2691C171.166 39.4331 170.857 38.9124 170.723 38.8935C170.588 38.8745 170.562 39.0402 170.573 39.1235C170.655 39.2912 170.998 40.0617 171.278 40.7314C171.924 42.3382 172.101 41.8593 171.455 40.2525L171.458 40.2691ZM171.955 45.3802C172.043 46.0466 172.136 46.2975 172.141 45.8821C172.168 45.6333 172.104 45.1502 171.987 44.716C171.893 44.465 171.866 44.7139 171.953 45.3636L171.955 45.3802ZM170.942 54.6865C170.964 54.8531 171.062 54.6886 171.17 54.142C171.369 53.8297 171.425 53.3487 171.392 53.0988C171.37 52.9322 171.272 53.0967 171.093 53.559C170.976 54.0389 170.92 54.5199 170.942 54.6865ZM160.869 66.2446C162.805 65.0817 164.609 62.9193 165.693 60.6779L166.538 58.8977L164.733 56.6058C163.132 54.5003 161.095 50.8249 160.934 49.6088C160.901 49.359 160.841 49.3579 160.662 49.8202C160.452 50.0492 160.456 50.5312 160.538 50.6989C160.609 50.7832 160.571 50.9488 160.388 50.9289C160.268 50.9268 160.217 50.9924 160.299 51.1601C160.392 51.411 160.363 51.6432 160.175 52.0388C160.025 52.2688 159.996 52.501 160.07 52.602C160.152 52.7697 160.103 52.8519 159.98 52.8331C159.799 52.83 159.697 52.9612 159.77 53.0622C159.908 53.6463 159.643 54.8217 159.4 54.8008C159.279 54.7987 159.242 54.8202 159.288 54.8653C159.371 55.033 159.396 55.6816 159.217 56.1439C159.101 56.6238 159.042 57.0882 159.042 57.0882C159.103 57.0892 159.046 57.5702 158.847 57.8825C158.74 58.4291 158.634 58.9924 158.656 59.159C158.689 59.4088 158.633 59.8898 158.543 60.121C158.458 60.8341 158.447 60.7508 158.3 62.2773C158.286 63.0749 158.278 64.3711 158.357 65.4196C158.517 67.5331 158.699 67.5529 160.844 66.2441L160.869 66.2446ZM159.791 71.5276C159.63 71.6744 159.813 71.6942 160.299 71.7359C160.725 71.7766 160.958 71.8139 160.705 71.6266C160.451 71.5225 160.035 71.4654 159.803 71.5278L159.791 71.5276ZM159.902 67.9229C160.029 67.5263 159.786 67.5054 159.122 67.8429C158.859 67.9712 158.89 68.0549 159.216 68.0938C159.521 68.1324 159.79 67.9875 159.902 67.9229ZM163.842 34.02C163.633 33.3515 163.258 33.2453 162.573 33.5158C162.292 33.6605 162.446 33.9125 163.206 34.2083C164.039 34.6051 164.22 34.6083 164.64 34.1502C165.952 32.6275 168.043 33.362 169.464 35.83C169.844 36.4349 170.595 37.4785 171.014 37.9179C172.03 39.149 173.023 41.1109 173.435 42.8632C174.145 45.9503 173.659 51.8919 172.311 57.4029C171.497 60.4135 171.508 60.4968 171.996 60.5552C172.176 60.5584 172.732 61.0334 173.142 61.4062C173.791 62.1322 173.966 62.5508 173.744 62.7796C173.545 63.0919 173.288 63.0542 172.452 62.6407C171.882 62.4147 171.228 62.1041 170.985 62.0833C170.559 62.0426 170.581 62.2092 170.918 62.481C171.172 62.5851 171.632 62.7926 171.948 62.9145C172.314 62.9541 172.497 62.9739 172.396 63.1217C172.347 63.204 171.881 63.3122 171.443 63.2713C170.677 63.0252 170.467 63.2543 169.861 64.5733C168.275 67.6536 165.888 70.4872 163.445 71.9072C162.297 72.6683 160.362 72.9337 159.6 72.5381C159.395 72.3517 158.072 71.2483 156.714 69.9781C153.587 67.231 153.022 66.1408 152.514 62.3093C152.04 58.7277 152.295 55.3084 153.338 50.756C155.265 42.546 158.736 35.5596 162.03 33.2238C162.854 32.6399 163.097 32.6607 163.453 33.0825C163.718 33.2699 163.905 33.7718 163.938 34.0216C164.004 34.5214 163.942 34.5037 163.818 34.0195L163.842 34.02Z" fill="#215FF6"/>
<path d="M145.648 55.6413C145.648 55.6413 145.544 55.307 145.249 54.8033C144.185 52.9399 143.89 52.4361 143.923 52.686C144.009 53.3357 145.357 55.6195 145.648 55.6413ZM147.769 37.745C146.761 37.661 145.176 40.6582 144.474 43.7041C143.914 46.4532 144.284 50.1494 145.382 52.7281C146.07 54.3855 146.142 54.4698 146.338 53.7752C146.516 53.3961 146.858 51.9893 147.2 50.5826C148.075 46.5757 148.367 43.074 148.112 40.2441C148.052 38.8802 147.839 37.7297 147.779 37.7286L147.769 37.745ZM147.88 34.1404C147.256 32.9661 146.284 32.2511 145.369 32.4179C144.346 32.5829 144.427 32.8336 145.638 33.0874C146.112 33.1289 146.475 33.235 146.445 33.4672C146.407 33.6327 146.55 33.8014 146.79 33.8887C147.043 34.0759 147.439 34.3488 147.679 34.436C148.03 34.7303 148.097 34.6262 147.878 34.1237L147.88 34.1404ZM150.777 45.393C150.724 44.9932 150.539 45.7711 150.408 47.0486C150.3 48.4095 150.118 49.7526 150.099 50.0681C150.035 50.488 150.082 50.5442 150.242 50.2368C150.309 49.8391 150.521 48.8123 150.636 47.867C150.74 46.8383 150.83 45.7928 150.777 45.393ZM150.104 38.5005C149.815 37.681 149.518 37.1606 149.397 37.1585C149.277 37.1564 149.237 37.3053 149.248 37.3886C149.33 37.5562 149.658 38.3099 149.927 38.9794C150.544 40.5524 150.723 40.0902 150.106 38.5171L150.104 38.5005ZM150.59 43.5283C150.676 44.178 150.769 44.4289 150.777 44.0301C150.806 43.798 150.74 43.2982 150.627 42.8973C150.533 42.6464 150.506 42.8952 150.592 43.5449L150.59 43.5283ZM149.627 52.6692C149.649 52.8358 149.748 52.6713 149.843 52.1245C150.044 51.8289 150.089 51.3476 150.056 51.0978C150.033 50.9312 149.935 51.0957 149.768 51.5581C149.649 52.0214 149.605 52.5026 149.627 52.6692ZM139.939 64.0512C141.805 62.9037 143.541 60.7734 144.582 58.5644L145.395 56.8169L143.645 54.5758C142.099 52.5212 140.119 48.9133 139.958 47.6972C139.927 47.464 139.865 47.4463 139.698 47.9087C139.498 48.1213 139.501 48.6033 139.584 48.771C139.655 48.8553 139.615 49.0042 139.446 49.0012C139.326 48.9991 139.286 49.0649 139.357 49.2324C139.45 49.4833 139.421 49.7155 139.243 50.0946C139.105 50.3249 139.076 50.5571 139.147 50.6414C139.229 50.8091 139.178 50.8747 139.057 50.8726C138.889 50.8696 138.786 51.0008 138.857 51.0851C138.993 51.6526 138.74 52.8282 138.507 52.7909C138.394 52.7889 138.357 52.8104 138.395 52.8554C138.477 53.0231 138.501 53.655 138.334 54.1175C138.227 54.581 138.169 55.0453 138.169 55.0453C138.229 55.0464 138.173 55.5274 137.984 55.8233C137.888 56.3701 137.78 56.9166 137.8 57.0666C137.831 57.2998 137.775 57.7808 137.697 58.0121C137.621 58.7089 137.612 58.6422 137.46 60.1187C137.445 60.9163 137.445 62.1794 137.521 63.2112C137.677 65.2914 137.857 65.2946 139.923 64.0176L139.939 64.0512ZM138.908 69.2353C138.76 69.3823 138.93 69.4019 139.392 69.4432C139.794 69.4835 140.039 69.521 139.774 69.3335C139.532 69.2296 139.13 69.1893 138.896 69.2351L138.908 69.2353ZM139.014 65.6804C139.132 65.3002 138.901 65.2796 138.258 65.6007C138.011 65.7294 138.042 65.813 138.352 65.8517C138.645 65.89 138.914 65.7452 139.014 65.6804ZM142.744 32.3721C142.538 31.7203 142.175 31.6143 141.512 31.8686C141.243 32.0135 141.397 32.2655 142.12 32.5607C142.928 32.9404 143.098 32.96 143.506 32.5017C144.76 30.9946 146.789 31.7114 148.169 34.1454C148.535 34.7335 149.26 35.76 149.679 36.1995C150.669 37.4134 151.621 39.3413 152.029 41.0603C152.732 44.0975 152.266 49.9231 150.978 55.3354C150.193 58.2967 150.204 58.38 150.68 58.4382C150.861 58.4413 151.392 58.916 151.788 59.2719C152.41 59.9808 152.586 60.3994 152.374 60.6118C152.173 60.9074 151.942 60.8868 151.12 60.4902C150.564 60.281 149.934 59.9708 149.703 59.9502C149.289 59.9097 149.311 60.0763 149.636 60.3479C149.878 60.4518 150.326 60.6591 150.628 60.7641C150.982 60.8035 151.164 60.8233 151.064 60.9712C151.015 61.0534 150.561 61.1618 150.147 61.1214C149.42 60.8926 149.207 61.105 148.623 62.4078C147.103 65.4393 144.805 68.2247 142.444 69.6294C141.33 70.3745 139.479 70.6414 138.742 70.2462C138.549 70.06 137.264 68.9739 135.957 67.7212C132.932 65.0258 132.394 63.9527 131.897 60.2045C131.431 56.6895 131.669 53.3197 132.662 48.8496C134.501 40.7876 137.843 33.9153 141.009 31.6105C141.797 31.026 142.04 31.0468 142.386 31.485C142.639 31.6722 142.824 32.1574 142.857 32.4073C142.921 32.8904 142.861 32.8894 142.737 32.4052L142.744 32.3721Z" fill="#215FF6"/>
<path d="M115.117 70.1162C115.015 69.7987 114.726 69.6108 114.445 69.5726C114.226 69.5522 114.075 69.6825 114.227 70.0176C114.309 70.1852 114.599 70.3731 114.83 70.3938C115.111 70.4319 115.2 70.2839 115.117 70.1162ZM120.418 49.2008C121.976 50.4413 124.124 52.6893 125.102 53.7202C127.283 56.218 127.652 56.0084 125.65 53.2311C124.153 51.277 118.713 46.3955 118.364 46.755C118.215 46.902 118.165 46.8845 118.256 46.7531C118.274 46.4377 117.779 45.6977 117.098 45.0875C116.192 44.141 115.853 44.0353 115.906 44.4351C116.001 45.1515 117.218 46.3527 120.42 49.2175L120.418 49.2008ZM121.252 52.9549C122.892 54.363 124.424 55.7692 124.748 56.1239C125.393 56.7335 125.564 56.7531 125.089 56.1631L125.067 55.9965C124.805 55.7426 123.535 54.5903 122.075 53.2684C120.687 52.0476 118.997 50.6219 118.366 50.0292C117.743 49.5031 117.49 49.3159 117.763 49.6531C118.095 50.0744 119.624 51.547 121.252 52.9549ZM127.982 58.9559C127.808 58.7867 127.785 58.8916 127.916 59.2706C128.029 59.6714 128.159 59.8399 128.248 59.6919C128.299 59.6263 128.195 59.2921 127.982 58.9559ZM133.596 14.6613C133.468 13.6951 133.033 13.0393 132.14 12.7412L131.408 12.3794L132.318 13.6251C132.803 14.2984 133.2 15.1198 133.253 15.5196C133.295 15.8361 133.427 15.9215 133.526 15.8567C133.627 15.7089 133.671 15.2277 133.596 14.6613ZM133.462 23.1685C133.994 22.0144 134.485 20.4607 134.518 19.8961C134.636 18.1531 134.226 18.5947 133.903 20.4172C133.75 21.445 132.907 23.6907 131.959 25.6021C130.695 28.1229 130.58 28.5198 131.42 27.155C132.034 26.1685 132.942 24.406 133.462 23.1685ZM128.594 31.2108C128.594 31.2108 129.003 30.8523 129.427 30.2448C129.854 29.5708 130.178 29.028 130.158 28.8781C130.139 28.7281 129.801 29.171 129.374 29.845C128.946 30.5189 128.571 31.0442 128.594 31.2108ZM127.809 32.1777C127.862 32.5775 128.051 32.2817 128.255 31.7368C128.399 31.3736 128.355 31.3175 128.124 31.5683C127.935 31.8642 127.809 32.1777 127.809 32.1777ZM114.33 70.8836C114.117 70.5475 113.908 70.145 113.886 69.9784C113.844 69.6619 113.399 68.7566 112.934 67.7845C112.41 66.7283 112.076 65.8416 112.093 65.6092C112.134 65.4604 112.511 65.5002 113.031 65.7087C113.771 65.9377 113.833 65.9554 113.37 65.3656C112.979 64.8602 113.027 64.861 114.116 64.8302C115.567 64.9884 120.98 63.3212 122.886 62.1079C124.343 61.319 125.857 59.6003 125.961 58.7545C125.977 58.0567 125.773 57.7872 121.595 54.0911C117.392 50.4776 115.975 48.9404 115.056 46.9964C112.108 40.9783 111.834 40.1758 111.443 38.0415C111.083 36.1406 111.12 35.6094 111.485 33.372C112.275 28.9149 115.469 23.3697 120.206 18.6823C125.569 13.1916 130.927 10.6591 133.048 12.7903C133.583 13.3813 133.747 13.7166 133.857 14.9983C133.925 15.9634 134.049 16.4476 134.393 16.8691C135.111 17.4799 135.686 20.5481 135.42 22.4382C135.086 24.7259 132.745 29.0894 129.261 33.7986C127.646 36.1139 126.179 38.2821 126.061 38.6624L125.817 39.3561L125.491 38.6192C124.921 37.3128 124.951 37.0807 125.988 35.121C126.561 34.0673 126.607 33.8354 126.124 34.4253C125.709 35.0995 125.105 36.0695 124.861 36.7633C124.438 37.8362 124.376 37.8185 124.002 37.0807C123.8 36.8279 123.534 36.092 123.472 35.6255C123.441 35.3923 123.289 35.0572 123.188 35.2051C122.94 35.4168 122.845 34.7005 122.998 33.7724C123.127 33.4755 124.589 30.9082 126.342 28.3627C129.885 23.0064 131.949 19.1865 131.02 19.5193C130.432 19.7916 126.612 22.783 125.879 23.6012C123.816 25.8921 120.399 30.2035 119.717 31.4049C119.225 32.3104 118.504 33.5776 118.066 34.0852C117.147 35.5816 115.911 39.2165 115.733 41.2244C115.559 42.4513 115.592 42.7011 116.016 43.3567C116.217 43.6095 118.269 45.673 120.458 47.5062C124.907 51.5229 126.906 53.9178 127.451 55.8553C127.606 56.5727 128.074 57.5614 128.439 58.2326C129.29 59.5771 130.07 62.0173 130.018 63.346C129.96 66.7189 126.293 69.5966 119.808 71.0624C116.207 71.8139 115.008 71.8262 114.332 70.9003L114.33 70.8836Z" fill="#215FF6"/>
<path d="M98.3014 30.9802C98.4113 31.4475 98.4998 31.2995 98.5376 30.7683C98.4956 30.4518 98.4868 30.3852 98.3872 30.4499C98.2987 30.5979 98.2102 30.746 98.3014 30.9802ZM106.582 35.446C106.199 34.6416 105.949 34.3879 105.75 34.5174C105.59 34.5811 105.431 34.5617 105.323 34.5598C105.263 34.5588 105.604 35.0467 106.115 35.6373C106.566 36.1438 106.996 36.4837 107.044 36.4846C107.033 36.4013 106.811 35.9985 106.582 35.446ZM109.958 41.1558C109.958 41.1558 109.844 40.755 109.635 40.3524C109.235 39.7804 109.205 40.0125 109.625 40.7345C109.787 41.1362 109.906 41.2214 109.958 41.1558ZM113.55 41.7005C112.662 41.6186 111.694 41.3856 111.512 41.2827C111.211 41.0946 111.102 41.0927 111.324 41.4955C111.557 41.9815 111.955 42.0882 113.014 42.1898C113.791 42.2532 114.552 42.1003 114.76 42.0374C115.008 41.8257 114.669 41.8032 113.562 41.7007L113.55 41.7005ZM113.121 45.0836C113.36 45.2539 113.821 45.3783 114.04 45.3988L114.538 45.4407L114.009 45.1655C113.699 44.9108 113.227 44.7031 113.008 44.6827L112.558 44.6416L113.109 45.0834L113.121 45.0836ZM100.032 46.0351C100.032 46.0351 100.22 45.8224 100.326 45.4419C100.432 45.0615 100.463 44.846 100.293 44.8264C100.184 44.8245 99.9963 45.0373 99.9989 45.4196C99.9413 45.8009 99.9722 46.0341 100.032 46.0351ZM96.6196 33.6101C96.9778 31.8713 97.9708 30.0271 98.4569 30.0688C98.6134 30.0716 98.7067 30.3225 98.7686 30.789C98.8529 31.7876 99.8319 33.1011 100.137 32.5912C100.314 32.2951 100.553 32.4655 101.111 33.057L101.799 33.8002L101.716 35.2614C101.65 35.9417 101.495 36.4043 101.384 36.3858C101.086 36.1313 100.235 43.2132 100.494 43.5335C100.692 43.8528 101.363 42.3853 102.297 40.0083C103.847 35.7473 105.237 33.5445 105.814 33.8205C106.044 33.9242 106.433 34.413 106.748 35.0667C107.029 35.5536 107.682 36.3129 108.242 36.8212C108.793 37.263 109.585 38.2574 110.008 38.9961C110.663 40.2208 110.973 40.4755 111.792 40.8554C112.722 41.2539 114.328 41.3152 115.733 41.0406C116.2 40.8493 116.211 40.9326 115.703 41.2727C115.147 41.6952 115.368 42.0979 116.16 42.1782C116.439 42.1997 116.86 42.473 117.133 42.8101C117.354 43.2129 117.666 43.4843 117.826 43.4206C118.063 43.1256 118.99 44.222 119.114 44.7062C119.238 45.1903 117.981 45.7667 116.993 45.8326C116.494 45.7906 116.124 45.9836 116.135 46.0669C116.248 46.4678 113.478 46.0538 112.699 45.525C112.339 45.2527 111.125 43.985 110.001 42.5693C108.257 40.5611 107.945 40.2897 107.768 40.5858C106.721 42.1132 102.964 53.017 99.9626 62.8204C99.543 64.4584 98.4754 66.1018 98.0955 66.0453C97.9871 66.0434 97.6758 65.689 97.3668 65.3512C96.9864 64.929 96.6774 64.5912 96.6292 64.5904C96.581 64.5896 96.042 64.148 95.4437 63.6224C94.7371 63.0948 94.2755 62.4219 94.1876 62.1212C93.4014 58.9995 94.9039 41.0593 96.6459 33.6272L96.6196 33.6101Z" fill="#215FF6"/>
<path d="M88.3008 37.1886C88.2464 36.7777 88.1241 36.7921 87.9342 37.232C87.7289 37.6772 87.5125 38.0391 87.3538 38.0197C86.9279 37.979 84.568 43.9211 84.6784 44.754C84.7093 44.9873 84.6296 45.2019 84.5815 45.2011C84.3768 45.1975 84.0324 46.5876 84.1313 46.9716C84.1512 47.1215 84.0517 47.1863 83.8951 47.1835C83.7868 47.1817 83.8669 47.3326 84.0848 47.4362C84.6096 47.8608 85.132 47.0888 87.5522 43.1422C88.329 41.8427 89.1546 40.0954 89.3856 39.1188C89.5794 38.2247 89.6575 37.5447 89.5778 37.7593C89.2934 37.9704 89.1808 37.1208 89.406 36.8256C89.4857 36.6109 89.66 35.9326 89.715 35.169C89.8611 34.6397 89.8103 34.2565 89.6925 34.6367C89.6239 34.9347 89.2332 35.975 88.9288 36.8505C88.5862 37.8916 88.2531 38.5506 88.1545 38.5323C87.7973 38.1936 87.7748 37.6614 88.0901 37.6835C88.2467 37.6862 88.3263 37.4716 88.2866 37.1717L88.3008 37.1886ZM85.3903 64.6276C85.2032 64.7573 84.6778 64.7814 84.2618 64.7243C83.6772 64.6642 83.5185 64.6448 83.8165 64.8993C84.1848 65.3213 84.9957 65.1858 85.4703 64.7786C85.6293 64.6484 85.6066 64.5982 85.4023 64.6278L85.3903 64.6276ZM84.7277 68.2393C84.5208 68.2191 84.6994 68.3884 85.1132 68.4288C85.527 68.4693 85.6779 68.339 85.459 68.3185C85.2322 68.1484 84.9147 68.1096 84.7156 68.2391L84.7277 68.2393ZM95.8092 54.9537C95.641 55.3164 95.882 55.5035 95.829 55.1036C95.818 55.0203 95.8684 55.0378 95.8092 54.9537ZM88.4141 30.7918C88.0825 29.9217 87.3807 29.7931 86.8601 30.2162C86.6239 30.4281 86.6327 30.4948 87.0104 30.5346C87.2776 30.5559 87.7321 30.8131 88.1004 31.235C88.4687 31.657 88.9945 31.9986 89.3098 32.0207C89.5769 32.042 89.9142 32.2307 89.9833 32.2984C90.3321 32.936 90.5683 32.7241 90.3672 32.0225C90.1771 31.4043 90.2373 31.4053 90.4469 31.8079C90.6365 32.0605 90.8067 32.5288 90.8685 32.9952C90.9193 33.3784 91.0895 33.8467 91.3273 34.1002C91.815 34.6073 92.1528 37.1561 91.9323 38.6647C91.7951 39.2606 91.7694 39.792 91.8175 39.7929C92.1354 40.1973 92.3298 36.86 92.1355 35.3941C92.0119 34.4612 91.9695 33.779 92.0779 33.7809C92.1261 33.7817 92.456 34.1864 92.7849 34.6741C94.7706 37.6007 92.7099 44.8942 88.677 49.544C86.9321 51.4248 85.4412 52.4127 84.2128 52.2084C83.1541 52.1068 83.1038 52.0893 82.9408 53.2167C82.8156 53.8128 82.7474 54.4764 82.7584 54.5597C82.75 54.8587 82.7127 55.7556 82.6262 56.7346C82.5249 59.1428 82.711 62.0878 83.0022 63.1068C83.2515 63.8092 83.382 63.9776 84.0148 64.0385C85.1238 64.1576 86.7866 63.2892 88.3961 61.6552C89.1856 60.9045 89.8677 60.0687 90.4676 59.0654C91.5332 57.5882 92.5998 56.0279 93.604 54.4498C94.3044 53.2987 94.4501 52.4037 95.6952 53.8215C96.2027 54.4786 96.9523 55.2396 97.0047 56.0881C97.1398 57.47 94.9993 60.9893 94.3963 62.0591C90.7032 68.0943 87.6289 70.5503 85.0771 69.4254C84.0849 69.0092 79.8577 64.3981 78.9825 62.8704C75.0251 55.8541 78.0832 38.9548 84.8153 31.1943C86.2321 29.557 87.2267 29.1755 88.0014 29.8538C88.3105 30.1916 88.578 30.5786 88.62 30.8951C88.6707 31.2782 88.6226 31.2774 88.3922 30.808L88.4141 30.7918Z" fill="#215FF6"/>
<path d="M66.2693 41.9228C66.0062 42.5664 68.2671 39.0491 69.294 37.1889C69.7933 36.3334 68.7156 37.8104 67.5902 39.6522C66.9924 40.4894 66.4144 41.4765 66.2693 41.9228ZM69.2005 38.7496C69.2314 38.9828 69.4273 38.9198 69.6029 38.3411C69.7332 38.0553 69.6937 37.9992 69.4845 38.1728C69.3173 38.4525 69.1895 38.6663 69.2005 38.7496ZM67.0947 41.987C66.9669 42.2009 66.7909 42.4139 66.7909 42.4139C66.8417 42.797 67.0177 42.584 67.2021 42.072C67.3865 41.56 67.3865 41.56 67.0947 41.987ZM66.4686 42.9733C66.3811 43.0383 66.3015 43.2529 66.3213 43.4029C66.381 43.8527 66.5198 43.7221 66.6047 43.2748C66.6131 42.9758 66.5933 42.8259 66.4664 42.9567L66.4686 42.9733ZM75.8307 33.846C75.7799 33.4629 73.5606 34.9366 72.2834 36.1774C71.4578 36.9275 69.1941 39.8797 68.4119 41.2289C66.4024 44.468 64.4085 48.8209 63.9901 50.5587C63.8627 51.1382 63.5314 52.4454 63.2974 53.6712C62.4379 57.429 62.449 57.5123 64.1277 56.1289C65.9935 54.6158 67.0525 53.0886 69.868 48.3179C72.7403 43.4318 74.8152 38.9639 75.4772 35.801C75.7015 34.7745 75.856 33.9462 75.8472 33.8795L75.8307 33.846ZM70.3151 36.0101C70.4454 35.7243 70.4256 35.6962 70.2559 35.926C70.0799 36.1389 69.9039 36.3519 69.9127 36.4186C69.9436 36.6518 70.1174 36.4222 70.3151 36.0101ZM76.9047 31.0726C76.7524 29.9231 75.7564 29.0249 74.7035 29.2392L74.1137 29.4117L74.9307 29.775C75.4136 29.8831 75.9153 30.2243 76.2049 30.7778C76.8004 31.7356 77.0073 31.7558 76.9146 31.0561L76.9047 31.0726ZM77.5479 37.466C77.6075 37.9157 77.7464 37.7852 77.8433 37.3382C77.8517 37.0391 77.8319 36.8892 77.693 37.0198C77.5934 37.0845 77.5258 37.2994 77.5479 37.466ZM75.9676 42.6737C75.9985 42.907 76.1462 42.8431 76.3196 42.2478C76.4499 41.962 76.4302 41.9339 76.2604 42.1636C76.0844 42.3766 75.9566 42.5905 75.9654 42.6571L75.9676 42.6737ZM65.2865 45.9277C65.3342 45.5629 65.275 45.4788 65.1875 45.5437C65.111 45.692 65.0314 45.9066 65.0402 45.9733C65.0998 46.423 65.2475 46.3591 65.2865 45.9277ZM78.2386 34.5196C78.1878 34.1365 78.0375 33.8181 77.9213 33.6665C77.7537 33.5804 77.7343 33.7961 77.7961 34.2626C77.8579 34.729 77.9568 35.113 78.1134 35.1158C78.2218 35.1177 78.2894 34.9028 78.2386 34.5196ZM56.9798 82.5965C56.9714 82.8955 57.0483 83.1129 57.1358 83.048C57.1641 82.8989 57.1354 82.6823 57.0563 82.4483C56.9772 82.2142 56.929 82.2134 56.9776 82.5798L56.9798 82.5965ZM56.9417 83.7593C56.9421 84.1249 57.0102 84.2757 57.1087 84.294C57.137 84.1449 57.0884 83.7784 57.0093 83.5444C56.9303 83.3103 56.902 83.4594 56.9417 83.7593ZM67.0566 22.5739C67.2017 22.1277 67.2892 22.0628 67.4766 22.2987C67.6641 22.5347 67.695 22.7679 67.587 23.1317C67.2438 23.6243 68.4173 25.5893 68.8317 25.1811C69.1638 24.6051 70.074 26.0337 70.0566 27.0805C69.9883 27.7441 69.3574 30.3259 68.7334 32.1432C68.6364 32.5903 68.4215 33.2347 68.3246 33.6818C68.2149 34.123 68.2744 34.1795 68.5032 33.8511C68.7185 33.5723 69.0029 33.3612 69.1695 33.5303C69.3569 33.7663 69.3852 33.6172 69.2658 33.532C69.0585 33.1461 70.8034 31.2652 72.4922 30.0482C74.732 28.2757 76.8003 28.7439 77.1227 31.1761C77.1735 31.5592 77.3918 32.0284 77.5988 32.0487C78.1717 32.4742 79.0452 34.3509 79.2174 35.6503C79.4603 37.4827 79.2181 39.1904 78.2624 42.1321C75.6613 49.6988 70.2293 58.1135 66.3276 60.6714C65.1471 61.2824 63.7714 61.5076 63.4346 60.8702C63.3754 60.7861 62.9418 60.5957 62.5771 60.473C61.7416 60.2423 61.8695 60.0285 61.1665 63.789C61.0002 64.7999 60.6902 66.5396 60.4331 67.682C60.2385 68.842 60.0721 69.8529 60.092 70.0028C60.1008 70.0695 59.9734 70.649 59.8668 71.2953C58.9097 76.7633 58.3325 83.2849 58.6687 85.3683C58.8961 87.0842 58.7891 87.3649 58.1076 86.7546C57.7624 86.4162 57.5083 86.3121 57.2797 86.4909C57.0853 86.8365 56.76 86.648 56.0816 85.9714C54.9114 84.9371 54.7753 84.6356 54.7644 82.7407C54.6723 72.8002 57.9673 51.4342 61.8071 36.6261C63.7616 29.3473 66.1469 22.5082 66.6795 23.0826C66.7869 23.1676 66.9629 22.9546 67.0227 22.59L67.0566 22.5739Z" fill="#215FF6"/>
<path d="M38.4288 24.7339C38.4964 24.519 38.4195 24.3016 38.321 24.2833C38.2224 24.2649 38.0585 24.4781 37.9909 24.693C37.8446 25.0395 37.8644 25.1894 38.1075 25.2103C38.252 25.2128 38.4093 24.9496 38.4288 24.7339ZM57.3023 50.8413C57.2828 51.057 57.1439 51.1876 56.9994 51.185C56.9031 51.1834 56.8329 51.0159 56.9005 50.801C56.9288 50.652 57.0787 50.6047 57.175 50.6064C57.3195 50.6089 57.3306 50.6922 57.3023 50.8413ZM34.5205 56.6097C34.665 56.6123 34.8223 56.3491 34.9098 56.2841C34.9492 56.2183 34.7649 55.916 34.5678 55.8793C34.3248 55.8584 34.1675 56.1216 34.1785 56.2049C34.1895 56.2882 34.3738 56.5906 34.5205 56.6097ZM51.1743 26.2694L50.5317 26.2249L51.245 26.8024C51.6953 27.2092 52.1063 27.6817 52.1942 27.9824C52.3413 28.3673 52.3895 28.3681 52.5368 27.9385C52.5846 27.5737 52.4967 27.273 52.205 26.8857C51.9704 26.5658 51.54 26.309 51.1885 26.2862L51.1743 26.2694ZM43.6184 78.3915C43.6184 78.3915 43.7452 78.2607 43.7757 78.1283C43.8434 77.9134 43.7864 77.8459 43.6878 77.8276C43.5433 77.8251 43.4536 77.8734 43.4823 78.0899C43.5022 78.2399 43.5702 78.3906 43.6184 78.3915ZM33.5948 33.4915C35.0117 29.0454 36.0424 26.67 37.168 25.011C38.0227 23.8459 38.5941 23.806 38.6435 24.9038C38.6841 25.935 39.1886 26.8413 39.5669 26.4324C39.7812 26.2367 39.9849 26.3234 40.4038 26.9456C41.055 27.8711 41.1239 28.7532 40.5909 29.8076L40.2523 30.5163L40.2997 29.7859L40.347 29.0554L39.9581 29.7466C39.4817 30.5029 37.7702 35.8081 37.4611 37.4647C37.3935 37.6796 37.2083 38.4575 37.0536 39.103C36.5563 40.7896 34.9911 48.74 34.992 49.4713C34.9516 50.6174 36.3339 48.4476 41.6692 38.6683C46.6418 29.5974 47.6537 27.9863 49.4691 26.4557C50.7956 25.3154 51.4984 25.3609 52.3592 26.6889C52.722 27.1606 53.0446 27.7812 53.0733 27.9978C53.102 28.2143 53.4957 28.9193 53.9266 29.5417C54.3968 30.0984 55.0035 31.3223 55.3098 32.0921C56.0357 34.2156 56.5727 38.6293 56.5603 42.2523C56.5411 43.6481 56.4968 45.1265 56.3812 46.5206C56.3222 47.6165 56.0883 48.8423 56.406 50.0611C56.8116 51.5806 56.2878 51.0729 56.3783 51.7559C56.4976 52.6555 57.4361 51.1262 57.4644 50.9771C57.8548 50.5684 58.1969 50.1589 58.6695 49.9178C59.9736 49.2425 60.487 51.2127 60.9087 51.4029C61.234 51.5914 61.8146 52.981 61.4725 53.3905C60.6687 54.1244 59.934 54.926 59.2465 55.8114C58.1806 57.1058 57.0127 58.0827 55.8854 59.2763C54.4443 60.7303 53.8176 61.1681 53.0562 63.5814C50.6401 71.1845 45.7816 79.576 43.8767 79.3433C43.5351 79.3041 43.1145 79.0309 42.9192 78.6452C42.7438 78.4094 42.119 77.6839 41.5513 77.0258C40.7206 76.1969 40.4091 75.6596 40.3407 75.1432C40.0404 72.8776 43.5968 65.9924 47.281 61.7022C48.9512 59.6206 49.4026 58.947 49.8027 57.5247C52.1753 49.1396 53.3079 39.1042 52.5373 33.2903C52.2812 31.3578 52.2503 31.1246 51.9386 31.4017C51.2649 31.9384 49.1682 35.4253 46.4209 40.5296C40.4862 51.678 38.9849 54.1282 36.6275 56.4637C35.1852 57.818 34.8075 57.7782 33.3968 56.1081C30.5128 52.5676 30.8442 53.2548 30.6708 50.8584C30.3552 46.6646 31.3368 40.5655 33.5894 33.5412L33.5948 33.4915Z" fill="#215FF6"/>
<path d="M23.7 33.7002C23.7 33.7002 23.4601 33.6129 23.3223 33.6604C23.1954 33.7911 23.2436 33.792 23.4977 33.8961C23.6903 33.8995 23.768 33.851 23.7 33.7002ZM24.8142 33.5867C24.8142 33.5867 24.5623 33.4992 24.4758 33.4811C24.292 33.5443 24.3578 33.6784 24.6008 33.6993C24.7935 33.7027 24.9105 33.5884 24.824 33.5703L24.8142 33.5867ZM26.3627 33.2148C25.8012 33.2383 25.2485 33.3284 25.161 33.3933C25.043 33.5907 26.8654 33.4729 27.1945 33.1463C27.2909 33.1479 26.9033 33.1246 26.3506 33.2146L26.3627 33.2148ZM27.4514 60.1919C27.5 60.5583 27.5769 60.7757 27.6555 60.6442C27.6949 60.5784 27.6662 60.3618 27.5893 60.1444C27.5124 59.927 27.4621 59.9095 27.4536 60.2085L27.4514 60.1919ZM27.4968 61.622C27.5454 61.9885 27.6134 62.1393 27.6417 61.9902C27.6524 61.7078 27.6126 61.4079 27.5358 61.1905C27.4589 60.9731 27.4394 61.1889 27.4968 61.622ZM6.50839 42.3086L5.67511 41.0974L6.15916 40.3081C7.01907 38.9103 9.79214 37.2635 13.3383 35.8296C14.5145 35.3681 15.0353 35.1279 15.0764 34.7131C15.1264 34.3649 15.4073 32.043 15.7392 29.2899C16.4996 23.1536 16.7801 21.4633 17.8459 16.18C18.8432 11.3776 20.2531 6.51583 21.0051 5.48188L21.4871 4.85872L21.4375 5.57252C21.4468 6.00481 21.5435 6.37215 21.8801 6.82677C22.1695 7.19746 22.4097 7.65041 22.4384 7.86697C22.4958 8.3001 22.544 8.30094 22.6311 7.87033C22.8043 7.09221 23.2117 7.26551 23.6056 8.15326C23.9149 8.67389 23.9153 9.03955 23.5768 10.7455C23.404 11.8893 23.1711 13.032 23.1048 13.5295C23.046 13.811 22.7858 15.0197 22.5251 15.8628C21.9149 18.3286 20.6647 25.1211 19.8976 30.2101C19.6639 31.6187 19.4301 33.0273 19.3833 33.3091C19.1903 33.9373 19.276 34.2213 19.5658 33.9604C19.7376 33.897 21.5466 33.4964 23.5571 33.1659C25.6189 32.7697 27.3109 32.4835 27.3414 32.3511C27.3414 32.3511 27.5836 30.6434 27.8254 28.5701C28.824 20.0613 30.933 7.96539 31.3099 8.27113C31.4742 8.42358 31.6886 8.22788 31.8808 7.86559C32.1006 7.34866 32.1878 7.6438 32.1423 8.75102C32.1229 8.96675 32.2501 9.20165 32.3354 9.12004C32.4799 9.12256 32.5391 9.20669 32.5395 9.57234C32.5006 10.0038 32.5487 10.0046 32.7829 9.95886C33.0826 9.68155 33.1024 9.83148 33.0944 10.4961C33.1009 11.0281 33.1425 11.1009 33.2195 10.7144C33.3936 9.85318 33.5381 9.8557 34.1107 10.9128C34.4112 11.3668 34.5278 11.884 34.5286 12.6153C34.5493 13.4966 33.0787 24.7893 32.5664 27.7221C32.3228 29.1472 31.9745 31.8668 32.0032 32.0834C32.0231 32.2333 32.3231 32.3217 32.7489 32.3623L33.4859 32.5746L32.6791 32.5606C31.4782 32.4731 31.7989 33.4427 33.0502 33.5476C33.2933 33.5685 33.7117 33.8251 34.0306 34.1465C34.3222 34.5338 34.848 34.8754 35.0967 35.0293C35.8655 35.3918 36.5653 36.6837 36.3032 37.2442C36.2356 37.4591 36.0213 37.6548 35.8264 37.6348C35.5834 37.6139 35.5635 37.464 35.8653 37.2034C36.1473 36.7928 36.0991 36.7919 35.2322 36.7768C34.7156 36.8675 34.1735 36.6752 33.95 36.4386C33.6981 36.3511 33.2042 36.1597 32.4534 36.2962L31.279 36.4086L30.8007 40.3227C30.1973 45.0157 29.1375 56.5981 28.9486 60.8828C28.8902 62.5272 28.8282 63.8723 28.7801 63.8715C28.6819 64.2188 27.8382 63.4728 27.6165 62.8872C27.4745 62.5412 27.4162 62.5845 27.4415 63.0171C27.5673 63.9667 27.3341 63.9294 26.2867 63.0967C25.8123 62.6895 25.4934 62.3682 25.4647 62.1516C25.2439 60.4857 25.683 51.8342 26.4089 43.1712L26.8687 37.3954L26.2767 37.5512C25.9582 37.5955 24.0695 38.2107 22.0462 38.807L18.4407 39.974L17.9192 46.4634C17.6135 50.048 17.3651 53.0685 17.3938 53.2851C17.4225 53.5017 17.3721 54.4814 17.3601 55.4784C17.3208 56.5414 17.3084 58.17 17.4016 59.2353C17.5238 60.8828 17.466 61.0813 17.106 61.1747C16.7853 61.2023 16.6723 60.9843 16.47 60.183C15.9519 57.9967 15.8861 57.8626 16.1705 59.6459C16.3534 60.663 16.398 61.3618 16.3498 61.3609C16.3016 61.3601 15.8481 61.0198 15.3375 60.612L14.3734 59.8638L14.0705 57.216C13.7282 54.6338 13.7769 50.1971 14.2705 44.2224C14.3421 42.678 14.4097 41.4659 14.4097 41.4659C14.3505 41.3818 11.0608 43.1193 9.02707 44.1808C8.35317 44.5346 8.17035 44.5148 7.94998 44.2118C7.72079 43.8422 7.70975 43.7589 7.87491 43.6454C8.21187 43.4685 8.07017 43.0339 7.68505 43.21C7.47172 43.3226 7.05971 42.9331 6.51382 42.2588L6.50839 42.3086Z" fill="#215FF6"/>
</svg>
