<svg width="1920" height="713" viewBox="0 0 1920 713" fill="none" xmlns="http://www.w3.org/2000/svg">
<mask id="path-1-outside-1_820_13405" maskUnits="userSpaceOnUse" x="291" y="27" width="1635" height="340" fill="black">
<rect fill="white" x="291" y="27" width="1635" height="340"/>
<path d="M334.8 38.6L601.5 38.6L592.05 97.75L403.75 97.75L397.8 136.25L581.9 136.25L572.45 195.75L388.35 195.75L381.35 238.45L572.8 238.45L563.35 299H293.5L334.8 38.6ZM667.423 299H591.123L620.873 110.7L696.473 110.7L691.223 142.9C697.173 136.25 725.523 106.5 773.823 106.5H775.923C814.073 106.5 836.123 122.95 846.273 143.6C858.873 131.35 889.673 106.5 935.523 106.5H937.973C1007.62 106.5 1025.47 153.05 1020.22 186.3L1002.37 299H925.723L940.773 204.15C944.273 182.1 936.573 159 904.373 159C869.373 159 853.623 181.4 849.773 206.25L835.073 299L758.423 299L773.473 203.45C776.973 181.05 768.573 159 737.073 159C702.423 159 685.973 181.4 682.123 205.55L667.423 299ZM1108 299H1031.7L1061.45 110.7H1137.05L1131.8 142.9C1137.75 136.25 1166.1 106.5 1214.4 106.5H1216.5C1254.65 106.5 1276.7 122.95 1286.85 143.6C1299.45 131.35 1330.25 106.5 1376.1 106.5H1378.55C1448.2 106.5 1466.05 153.05 1460.8 186.3L1442.95 299H1366.3L1381.35 204.15C1384.85 182.1 1377.15 159 1344.95 159C1309.95 159 1294.2 181.4 1290.35 206.25L1275.65 299H1199L1214.05 203.45C1217.55 181.05 1209.15 159 1177.65 159C1143 159 1126.55 181.4 1122.7 205.55L1108 299ZM1470.94 364.8L1480.04 308.8H1522.39C1530.44 308.8 1532.89 304.95 1532.89 300.75C1532.89 296.55 1530.44 290.25 1527.29 281.85L1462.89 110.7H1543.39L1585.39 238.45L1659.59 110.7L1737.64 110.7L1613.74 311.25C1592.04 346.25 1575.24 364.8 1542.34 364.8H1470.94ZM1816.64 154.933H1795.62L1812.36 75.4648H1852.52C1859.82 75.4648 1865.91 77.8005 1870.81 82.4717C1875.71 87.029 1878.16 92.6686 1878.16 99.3906C1878.16 105.771 1876.11 111.41 1872.01 116.31C1867.91 121.209 1862.61 124.456 1856.11 126.051L1869.61 154.933H1845.18L1833.73 127.931H1822.45L1816.64 154.933ZM1829.97 92.5547L1825.69 112.208H1841.76C1845.86 112.208 1849.16 111.183 1851.67 109.132C1854.29 106.967 1855.6 104.29 1855.6 101.1C1855.6 98.4792 1854.69 96.4284 1852.87 94.9473C1851.16 93.3522 1848.65 92.5547 1845.35 92.5547H1829.97ZM1837.14 202.955C1820.85 202.955 1806.1 199.138 1792.88 191.505C1779.78 183.871 1769.35 173.504 1761.61 160.401C1753.97 147.299 1750.16 132.602 1750.16 116.31C1750.16 99.9033 1753.97 85.1491 1761.61 72.0469C1769.35 58.9447 1779.78 48.5768 1792.88 40.9434C1805.98 33.3099 1820.74 29.4932 1837.14 29.4932C1853.44 29.4932 1868.13 33.3099 1881.24 40.9434C1894.45 48.5768 1904.88 58.9447 1912.51 72.0469C1920.26 85.1491 1924.13 99.9033 1924.13 116.31C1924.13 132.602 1920.26 147.299 1912.51 160.401C1904.88 173.504 1894.45 183.871 1881.24 191.505C1868.13 199.138 1853.44 202.955 1837.14 202.955ZM1837.14 180.567C1849.22 180.567 1859.99 177.776 1869.44 172.193C1879.01 166.497 1886.53 158.806 1892 149.122C1897.58 139.438 1900.38 128.5 1900.38 116.31C1900.38 104.005 1897.58 93.0104 1892 83.3262C1886.53 73.6419 1879.01 66.0085 1869.44 60.4258C1859.99 54.8431 1849.22 52.0518 1837.14 52.0518C1825.18 52.0518 1814.41 54.8431 1804.84 60.4258C1795.27 66.0085 1787.7 73.6419 1782.11 83.3262C1776.53 93.0104 1773.74 104.005 1773.74 116.31C1773.74 128.5 1776.53 139.438 1782.11 149.122C1787.7 158.806 1795.27 166.497 1804.84 172.193C1814.41 177.776 1825.18 180.567 1837.14 180.567Z"/>
</mask>
<path d="M334.8 38.6V37.1H333.519L333.319 38.365L334.8 38.6ZM601.5 38.6L602.981 38.8366L603.259 37.1H601.5V38.6ZM592.05 97.75V99.25H593.329L593.531 97.9866L592.05 97.75ZM403.75 97.75V96.25H402.464L402.268 97.5209L403.75 97.75ZM397.8 136.25L396.318 136.021L396.05 137.75H397.8V136.25ZM581.9 136.25L583.381 136.485L583.657 134.75H581.9V136.25ZM572.45 195.75V197.25H573.731L573.931 195.985L572.45 195.75ZM388.35 195.75V194.25H387.076L386.87 195.507L388.35 195.75ZM381.35 238.45L379.87 238.207L379.584 239.95H381.35V238.45ZM572.8 238.45L574.282 238.681L574.552 236.95H572.8V238.45ZM563.35 299V300.5H564.634L564.832 299.231L563.35 299ZM293.5 299L292.019 298.765L291.743 300.5H293.5V299ZM334.8 40.1L601.5 40.1V37.1L334.8 37.1V40.1ZM600.019 38.3633L590.569 97.5133L593.531 97.9866L602.981 38.8366L600.019 38.3633ZM592.05 96.25L403.75 96.25V99.25L592.05 99.25V96.25ZM402.268 97.5209L396.318 136.021L399.282 136.479L405.232 97.9791L402.268 97.5209ZM397.8 137.75L581.9 137.75V134.75L397.8 134.75V137.75ZM580.419 136.015L570.969 195.515L573.931 195.985L583.381 136.485L580.419 136.015ZM572.45 194.25L388.35 194.25V197.25L572.45 197.25V194.25ZM386.87 195.507L379.87 238.207L382.83 238.693L389.83 195.993L386.87 195.507ZM381.35 239.95L572.8 239.95V236.95L381.35 236.95V239.95ZM571.318 238.219L561.868 298.769L564.832 299.231L574.282 238.681L571.318 238.219ZM563.35 297.5H293.5V300.5H563.35V297.5ZM294.981 299.235L336.281 38.835L333.319 38.365L292.019 298.765L294.981 299.235ZM667.423 299V300.5H668.706L668.905 299.233L667.423 299ZM591.123 299L589.641 298.766L589.367 300.5H591.123V299ZM620.873 110.7V109.2H619.591L619.391 110.466L620.873 110.7ZM696.473 110.7L697.954 110.941L698.237 109.2H696.473V110.7ZM691.223 142.9L689.743 142.659L688.916 147.728L692.341 143.9L691.223 142.9ZM846.273 143.6L844.927 144.262L845.838 146.115L847.319 144.675L846.273 143.6ZM1020.22 186.3L1021.7 186.535L1021.7 186.534L1020.22 186.3ZM1002.37 299V300.5H1003.65L1003.85 299.235L1002.37 299ZM925.723 299L924.242 298.765L923.966 300.5H925.723V299ZM940.773 204.15L939.292 203.915L939.292 203.915L940.773 204.15ZM849.773 206.25L851.255 206.485L851.255 206.48L849.773 206.25ZM835.073 299V300.5H836.354L836.555 299.235L835.073 299ZM758.423 299L756.941 298.767L756.668 300.5H758.423V299ZM773.473 203.45L774.955 203.683L774.955 203.682L773.473 203.45ZM682.123 205.55L680.642 205.314L680.641 205.317L682.123 205.55ZM667.423 297.5H591.123V300.5H667.423V297.5ZM592.605 299.234L622.355 110.934L619.391 110.466L589.641 298.766L592.605 299.234ZM620.873 112.2L696.473 112.2V109.2L620.873 109.2V112.2ZM694.993 110.459L689.743 142.659L692.704 143.141L697.954 110.941L694.993 110.459ZM692.341 143.9C698.2 137.352 726.172 108 773.823 108V105C724.874 105 696.147 135.148 690.105 141.9L692.341 143.9ZM773.823 108H775.923V105H773.823V108ZM775.923 108C813.578 108 835.061 124.19 844.927 144.262L847.619 142.938C837.185 121.71 814.568 105 775.923 105V108ZM847.319 144.675C859.795 132.546 890.237 108 935.523 108V105C889.109 105 857.952 130.154 845.227 142.524L847.319 144.675ZM935.523 108H937.973V105H935.523V108ZM937.973 108C972.445 108 993.841 119.503 1006.01 134.863C1018.21 150.268 1021.31 169.773 1018.74 186.066L1021.7 186.534C1024.38 169.577 1021.18 149.182 1008.36 133C995.505 116.772 973.151 105 937.973 105V108ZM1018.74 186.065L1000.89 298.765L1003.85 299.235L1021.7 186.535L1018.74 186.065ZM1002.37 297.5H925.723V300.5H1002.37V297.5ZM927.205 299.235L942.255 204.385L939.292 203.915L924.242 298.765L927.205 299.235ZM942.255 204.385C944.037 193.156 943.007 181.448 937.22 172.492C931.374 163.445 920.867 157.5 904.373 157.5V160.5C920.079 160.5 929.522 166.105 934.701 174.12C939.939 182.227 941.009 193.094 939.292 203.915L942.255 204.385ZM904.373 157.5C886.528 157.5 873.445 163.223 864.336 172.24C855.255 181.231 850.25 193.371 848.291 206.02L851.255 206.48C853.146 194.279 857.941 182.794 866.447 174.372C874.926 165.977 887.218 160.5 904.373 160.5V157.5ZM848.292 206.015L833.592 298.765L836.555 299.235L851.255 206.485L848.292 206.015ZM835.073 297.5L758.423 297.5V300.5L835.073 300.5V297.5ZM759.905 299.233L774.955 203.683L771.991 203.217L756.941 298.767L759.905 299.233ZM774.955 203.682C776.739 192.267 775.529 180.725 769.642 171.987C763.702 163.169 753.201 157.5 737.073 157.5V160.5C752.445 160.5 761.894 165.856 767.154 173.663C772.467 181.55 773.708 192.233 771.991 203.218L774.955 203.682ZM737.073 157.5C719.4 157.5 706.239 163.224 697.006 172.14C687.797 181.033 682.606 192.994 680.642 205.314L683.604 205.786C685.49 193.956 690.449 182.642 699.09 174.298C707.707 165.976 720.096 160.5 737.073 160.5V157.5ZM680.641 205.317L665.941 298.767L668.905 299.233L683.605 205.783L680.641 205.317ZM1108 299V300.5H1109.28L1109.48 299.233L1108 299ZM1031.7 299L1030.22 298.766L1029.94 300.5H1031.7V299ZM1061.45 110.7V109.2H1060.17L1059.97 110.466L1061.45 110.7ZM1137.05 110.7L1138.53 110.941L1138.81 109.2H1137.05V110.7ZM1131.8 142.9L1130.32 142.659L1129.49 147.728L1132.92 143.9L1131.8 142.9ZM1286.85 143.6L1285.5 144.262L1286.41 146.115L1287.89 144.675L1286.85 143.6ZM1460.8 186.3L1462.28 186.535L1462.28 186.534L1460.8 186.3ZM1442.95 299V300.5H1444.23L1444.43 299.235L1442.95 299ZM1366.3 299L1364.82 298.765L1364.54 300.5H1366.3V299ZM1381.35 204.15L1379.87 203.915L1379.87 203.915L1381.35 204.15ZM1290.35 206.25L1291.83 206.485L1291.83 206.48L1290.35 206.25ZM1275.65 299V300.5H1276.93L1277.13 299.235L1275.65 299ZM1199 299L1197.52 298.767L1197.24 300.5H1199V299ZM1214.05 203.45L1215.53 203.683L1215.53 203.682L1214.05 203.45ZM1122.7 205.55L1121.22 205.314L1121.22 205.317L1122.7 205.55ZM1108 297.5H1031.7V300.5H1108V297.5ZM1033.18 299.234L1062.93 110.934L1059.97 110.466L1030.22 298.766L1033.18 299.234ZM1061.45 112.2H1137.05V109.2H1061.45V112.2ZM1135.57 110.459L1130.32 142.659L1133.28 143.141L1138.53 110.941L1135.57 110.459ZM1132.92 143.9C1138.78 137.352 1166.75 108 1214.4 108V105C1165.45 105 1136.72 135.148 1130.68 141.9L1132.92 143.9ZM1214.4 108H1216.5V105H1214.4V108ZM1216.5 108C1254.15 108 1275.64 124.19 1285.5 144.262L1288.2 142.938C1277.76 121.71 1255.14 105 1216.5 105V108ZM1287.89 144.675C1300.37 132.546 1330.81 108 1376.1 108V105C1329.69 105 1298.53 130.154 1285.8 142.524L1287.89 144.675ZM1376.1 108H1378.55V105H1376.1V108ZM1378.55 108C1413.02 108 1434.42 119.503 1446.59 134.863C1458.79 150.268 1461.89 169.773 1459.32 186.066L1462.28 186.534C1464.96 169.577 1461.76 149.182 1448.94 133C1436.08 116.772 1413.73 105 1378.55 105V108ZM1459.32 186.065L1441.47 298.765L1444.43 299.235L1462.28 186.535L1459.32 186.065ZM1442.95 297.5H1366.3V300.5H1442.95V297.5ZM1367.78 299.235L1382.83 204.385L1379.87 203.915L1364.82 298.765L1367.78 299.235ZM1382.83 204.385C1384.61 193.156 1383.58 181.448 1377.8 172.492C1371.95 163.445 1361.44 157.5 1344.95 157.5V160.5C1360.66 160.5 1370.1 166.105 1375.28 174.12C1380.52 182.227 1381.59 193.094 1379.87 203.915L1382.83 204.385ZM1344.95 157.5C1327.1 157.5 1314.02 163.223 1304.91 172.24C1295.83 181.231 1290.83 193.371 1288.87 206.02L1291.83 206.48C1293.72 194.279 1298.52 182.794 1307.02 174.372C1315.5 165.977 1327.79 160.5 1344.95 160.5V157.5ZM1288.87 206.015L1274.17 298.765L1277.13 299.235L1291.83 206.485L1288.87 206.015ZM1275.65 297.5H1199V300.5H1275.65V297.5ZM1200.48 299.233L1215.53 203.683L1212.57 203.217L1197.52 298.767L1200.48 299.233ZM1215.53 203.682C1217.31 192.267 1216.11 180.725 1210.22 171.987C1204.28 163.169 1193.78 157.5 1177.65 157.5V160.5C1193.02 160.5 1202.47 165.856 1207.73 173.663C1213.04 181.55 1214.28 192.233 1212.57 203.218L1215.53 203.682ZM1177.65 157.5C1159.98 157.5 1146.82 163.224 1137.58 172.14C1128.37 181.033 1123.18 192.994 1121.22 205.314L1124.18 205.786C1126.07 193.956 1131.03 182.642 1139.67 174.298C1148.28 165.976 1160.67 160.5 1177.65 160.5V157.5ZM1121.22 205.317L1106.52 298.767L1109.48 299.233L1124.18 205.783L1121.22 205.317ZM1470.94 364.8L1469.46 364.559L1469.18 366.3H1470.94V364.8ZM1480.04 308.8V307.3H1478.77L1478.56 308.559L1480.04 308.8ZM1527.29 281.85L1528.7 281.323L1528.7 281.322L1527.29 281.85ZM1462.89 110.7V109.2H1460.73L1461.49 111.228L1462.89 110.7ZM1543.39 110.7L1544.82 110.232L1544.48 109.2H1543.39V110.7ZM1585.39 238.45L1583.97 238.918L1585.01 242.093L1586.69 239.203L1585.39 238.45ZM1659.59 110.7V109.2H1658.73L1658.3 109.947L1659.59 110.7ZM1737.64 110.7L1738.92 111.488L1740.33 109.2H1737.64V110.7ZM1613.74 311.25L1615.02 312.04L1615.02 312.038L1613.74 311.25ZM1472.42 365.041L1481.52 309.041L1478.56 308.559L1469.46 364.559L1472.42 365.041ZM1480.04 310.3H1522.39V307.3H1480.04V310.3ZM1522.39 310.3C1526.64 310.3 1529.68 309.286 1531.68 307.454C1533.69 305.605 1534.39 303.139 1534.39 300.75H1531.39C1531.39 302.561 1530.87 304.12 1529.65 305.246C1528.4 306.389 1526.2 307.3 1522.39 307.3V310.3ZM1534.39 300.75C1534.39 298.404 1533.72 295.592 1532.7 292.419C1531.68 289.224 1530.27 285.504 1528.7 281.323L1525.89 282.377C1527.47 286.596 1528.85 290.226 1529.85 293.331C1530.84 296.458 1531.39 298.896 1531.39 300.75H1534.39ZM1528.7 281.322L1464.3 110.172L1461.49 111.228L1525.89 282.378L1528.7 281.322ZM1462.89 112.2H1543.39V109.2H1462.89V112.2ZM1541.97 111.168L1583.97 238.918L1586.82 237.982L1544.82 110.232L1541.97 111.168ZM1586.69 239.203L1660.89 111.453L1658.3 109.947L1584.1 237.697L1586.69 239.203ZM1659.59 112.2L1737.64 112.2V109.2L1659.59 109.2V112.2ZM1736.37 109.912L1612.47 310.462L1615.02 312.038L1738.92 111.488L1736.37 109.912ZM1612.47 310.46C1601.63 327.948 1592.11 341.146 1581.29 349.989C1570.55 358.774 1558.46 363.3 1542.34 363.3V366.3C1559.13 366.3 1571.89 361.551 1583.19 352.311C1594.43 343.129 1604.16 329.552 1615.02 312.04L1612.47 310.46ZM1542.34 363.3H1470.94V366.3H1542.34V363.3ZM1816.64 154.933V156.433H1817.85L1818.1 155.248L1816.64 154.933ZM1795.62 154.933L1794.15 154.623L1793.77 156.433H1795.62V154.933ZM1812.36 75.4648V73.9648H1811.15L1810.9 75.1555L1812.36 75.4648ZM1870.81 82.4717L1869.78 83.5573L1869.78 83.5637L1869.79 83.57L1870.81 82.4717ZM1856.11 126.051L1855.76 124.594L1853.98 125.03L1854.75 126.686L1856.11 126.051ZM1869.61 154.933V156.433H1871.97L1870.97 154.297L1869.61 154.933ZM1845.18 154.933L1843.79 155.518L1844.18 156.433H1845.18V154.933ZM1833.73 127.931L1835.11 127.345L1834.72 126.431H1833.73V127.931ZM1822.45 127.931V126.431H1821.23L1820.98 127.615L1822.45 127.931ZM1829.97 92.5547V91.0547H1828.76L1828.5 92.236L1829.97 92.5547ZM1825.69 112.208L1824.23 111.889L1823.83 113.708H1825.69V112.208ZM1851.67 109.132L1852.62 110.293L1852.63 110.288L1851.67 109.132ZM1852.87 94.9473L1851.84 96.0438L1851.88 96.079L1851.92 96.1114L1852.87 94.9473ZM1792.88 191.505L1792.13 192.801L1792.13 192.804L1792.88 191.505ZM1761.61 160.401L1760.31 161.156L1760.32 161.165L1761.61 160.401ZM1761.61 72.0469L1760.32 71.2834L1760.31 71.2918L1761.61 72.0469ZM1881.24 40.9434L1880.48 42.2394L1880.49 42.2423L1881.24 40.9434ZM1912.51 72.0469L1911.21 72.802L1911.22 72.8103L1912.51 72.0469ZM1912.51 160.401L1911.22 159.638L1911.21 159.646L1912.51 160.401ZM1881.24 191.505L1880.49 190.206L1880.48 190.209L1881.24 191.505ZM1869.44 172.193L1870.21 173.485L1870.21 173.482L1869.44 172.193ZM1892 149.122L1890.7 148.373L1890.7 148.384L1892 149.122ZM1892 83.3262L1890.7 84.0638L1890.7 84.0753L1892 83.3262ZM1869.44 60.4258L1868.68 61.7175L1868.69 61.7214L1869.44 60.4258ZM1804.84 172.193L1804.08 173.482L1804.09 173.489L1804.84 172.193ZM1816.64 153.433H1795.62V156.433H1816.64V153.433ZM1797.08 155.242L1813.83 75.7742L1810.9 75.1555L1794.15 154.623L1797.08 155.242ZM1812.36 76.9648H1852.52V73.9648H1812.36V76.9648ZM1852.52 76.9648C1859.46 76.9648 1865.18 79.1738 1869.78 83.5573L1871.85 81.3861C1866.64 76.4271 1860.17 73.9648 1852.52 73.9648V76.9648ZM1869.79 83.57C1874.38 87.842 1876.66 93.0831 1876.66 99.3906H1879.66C1879.66 92.2542 1877.04 86.216 1871.83 81.3734L1869.79 83.57ZM1876.66 99.3906C1876.66 105.418 1874.73 110.717 1870.86 115.347L1873.16 117.272C1877.48 112.104 1879.66 106.123 1879.66 99.3906H1876.66ZM1870.86 115.347C1866.97 119.989 1861.96 123.071 1855.76 124.594L1856.47 127.507C1863.26 125.84 1868.84 122.428 1873.16 117.272L1870.86 115.347ZM1854.75 126.686L1868.26 155.568L1870.97 154.297L1857.47 125.416L1854.75 126.686ZM1869.61 153.433H1845.18V156.433H1869.61V153.433ZM1846.56 154.347L1835.11 127.345L1832.34 128.516L1843.79 155.518L1846.56 154.347ZM1833.73 126.431H1822.45V129.431H1833.73V126.431ZM1820.98 127.615L1815.17 154.617L1818.1 155.248L1823.91 128.246L1820.98 127.615ZM1828.5 92.236L1824.23 111.889L1827.16 112.527L1831.43 92.8733L1828.5 92.236ZM1825.69 113.708H1841.76V110.708H1825.69V113.708ZM1841.76 113.708C1846.11 113.708 1849.78 112.616 1852.62 110.293L1850.72 107.971C1848.55 109.749 1845.61 110.708 1841.76 110.708V113.708ZM1852.63 110.288C1855.56 107.86 1857.1 104.77 1857.1 101.1H1854.1C1854.1 103.81 1853.02 106.074 1850.71 107.975L1852.63 110.288ZM1857.1 101.1C1857.1 98.0867 1856.03 95.5844 1853.81 93.7831L1851.92 96.1114C1853.35 97.2724 1854.1 98.8717 1854.1 101.1H1857.1ZM1853.89 93.8507C1851.81 91.906 1848.87 91.0547 1845.35 91.0547V94.0547C1848.43 94.0547 1850.51 94.7984 1851.84 96.0438L1853.89 93.8507ZM1845.35 91.0547H1829.97V94.0547H1845.35V91.0547ZM1837.14 201.455C1821.1 201.455 1806.6 197.699 1793.63 190.206L1792.13 192.804C1805.59 200.578 1820.61 204.455 1837.14 204.455V201.455ZM1793.64 190.209C1780.76 182.705 1770.52 172.521 1762.9 159.638L1760.32 161.165C1768.19 174.487 1778.8 185.038 1792.13 192.801L1793.64 190.209ZM1762.9 159.646C1755.41 146.79 1751.66 132.357 1751.66 116.31H1748.66C1748.66 132.847 1752.53 147.808 1760.31 161.156L1762.9 159.646ZM1751.66 116.31C1751.66 100.146 1755.41 85.6563 1762.9 72.802L1760.31 71.2918C1752.53 84.6419 1748.66 99.6605 1748.66 116.31H1751.66ZM1762.9 72.8103C1770.52 59.9276 1780.76 49.7435 1793.64 42.2394L1792.13 39.6473C1778.8 47.4101 1768.19 57.9617 1760.32 71.2834L1762.9 72.8103ZM1793.64 42.2394C1806.49 34.7504 1820.98 30.9932 1837.14 30.9932V27.9932C1820.49 27.9932 1805.48 31.8694 1792.13 39.6473L1793.64 42.2394ZM1837.14 30.9932C1853.19 30.9932 1867.62 34.7495 1880.48 42.2394L1881.99 39.6473C1868.64 31.8703 1853.68 27.9932 1837.14 27.9932V30.9932ZM1880.49 42.2423C1893.48 49.746 1903.71 59.927 1911.21 72.802L1913.81 71.2918C1906.04 57.9623 1895.43 47.4077 1881.99 39.6445L1880.49 42.2423ZM1911.22 72.8103C1918.82 85.6634 1922.63 100.15 1922.63 116.31H1925.63C1925.63 99.6564 1921.7 84.6348 1913.8 71.2834L1911.22 72.8103ZM1922.63 116.31C1922.63 132.353 1918.82 146.783 1911.22 159.638L1913.8 161.165C1921.69 147.815 1925.63 132.851 1925.63 116.31H1922.63ZM1911.21 159.646C1903.71 172.521 1893.48 182.702 1880.49 190.206L1881.99 192.804C1895.43 185.041 1906.04 174.486 1913.81 161.156L1911.21 159.646ZM1880.48 190.209C1867.62 197.699 1853.19 201.455 1837.14 201.455V204.455C1853.68 204.455 1868.64 200.578 1881.99 192.801L1880.48 190.209ZM1837.14 182.067C1849.46 182.067 1860.5 179.217 1870.21 173.485L1868.68 170.902C1859.48 176.335 1848.98 179.067 1837.14 179.067V182.067ZM1870.21 173.482C1880.01 167.652 1887.71 159.772 1893.31 149.86L1890.7 148.384C1885.36 157.841 1878.02 165.341 1868.68 170.904L1870.21 173.482ZM1893.3 149.871C1899.03 139.939 1901.88 128.739 1901.88 116.31H1898.88C1898.88 128.262 1896.14 138.937 1890.7 148.373L1893.3 149.871ZM1901.88 116.31C1901.88 103.769 1899.03 92.5116 1893.3 82.577L1890.7 84.0753C1896.14 93.5093 1898.88 104.241 1898.88 116.31H1901.88ZM1893.31 82.5886C1887.71 72.6738 1880 64.8473 1870.2 59.1301L1868.69 61.7214C1878.03 67.1696 1885.36 74.6101 1890.7 84.0638L1893.31 82.5886ZM1870.21 59.1341C1860.5 53.4017 1849.46 50.5518 1837.14 50.5518V53.5518C1848.98 53.5518 1859.48 56.2845 1868.68 61.7175L1870.21 59.1341ZM1837.14 50.5518C1824.94 50.5518 1813.91 53.403 1804.09 59.1301L1805.6 61.7214C1814.92 56.2832 1825.42 53.5518 1837.14 53.5518V50.5518ZM1804.09 59.1301C1794.29 64.8457 1786.53 72.6685 1780.81 82.577L1783.41 84.0753C1788.87 74.6154 1796.26 67.1712 1805.6 61.7214L1804.09 59.1301ZM1780.81 82.577C1775.09 92.5116 1772.24 103.769 1772.24 116.31H1775.24C1775.24 104.241 1777.98 93.5093 1783.41 84.0753L1780.81 82.577ZM1772.24 116.31C1772.24 128.739 1775.09 139.939 1780.81 149.871L1783.41 148.373C1777.97 138.937 1775.24 128.262 1775.24 116.31H1772.24ZM1780.81 149.871C1786.53 159.777 1794.28 167.654 1804.08 173.482L1805.61 170.904C1796.26 165.34 1788.87 157.835 1783.41 148.373L1780.81 149.871ZM1804.09 173.489C1813.91 179.216 1824.94 182.067 1837.14 182.067V179.067C1825.42 179.067 1814.92 176.336 1805.6 170.898L1804.09 173.489Z" fill="#1C1C1E" mask="url(#path-1-outside-1_820_13405)"/>
<mask id="path-3-outside-2_820_13405" maskUnits="userSpaceOnUse" x="-32" y="382" width="1953" height="332" fill="black">
<rect fill="white" x="-32" y="382" width="1953" height="332"/>
<path d="M-19.45 509.95H90.1L80.3 570.15H-29.25L-19.45 509.95ZM238.538 644H150.338L82.4383 383.6H166.438L209.488 562.8L289.638 383.6H373.988L408.988 557.55L496.488 383.6L576.638 383.6L437.688 644H357.188L319.388 469.35L238.538 644ZM661.68 383.6L652.93 437.5L576.63 437.5L585.38 383.6H661.68ZM650.13 455.7L620.38 644H544.08L573.83 455.7L650.13 455.7ZM650.037 644L679.787 455.7H755.387L750.137 487.9C756.437 481.25 786.187 451.5 838.337 451.5H840.787C907.287 451.5 928.987 494.55 922.687 533.75L905.187 644H828.537L843.237 550.9C847.437 523.6 836.587 504 801.587 504C766.937 504 745.237 524.65 740.687 553.35L726.337 644H650.037ZM934.754 644L964.504 455.7H1040.1L1034.85 487.9C1041.15 481.25 1070.9 451.5 1123.05 451.5H1125.5C1192 451.5 1213.7 494.55 1207.4 533.75L1189.9 644H1113.25L1127.95 550.9C1132.15 523.6 1121.3 504 1086.3 504C1051.65 504 1029.95 524.65 1025.4 553.35L1011.05 644H934.754ZM1337.07 383.6L1328.32 437.5H1252.02L1260.77 383.6H1337.07ZM1325.52 455.7L1295.77 644H1219.47L1249.22 455.7H1325.52ZM1325.43 644L1355.18 455.7L1430.78 455.7L1425.53 487.9C1431.83 481.25 1461.58 451.5 1513.73 451.5H1516.18C1582.68 451.5 1604.38 494.55 1598.08 533.75L1580.58 644H1503.93L1518.63 550.9C1522.83 523.6 1511.98 504 1476.98 504C1442.33 504 1420.63 524.65 1416.08 553.35L1401.73 644H1325.43ZM1754.02 587.65C1802.32 587.65 1825.07 567 1828.57 546C1828.92 543.9 1829.27 541.1 1829.27 538.65C1829.27 517.65 1809.32 500.15 1765.22 500.15H1762.77C1704.67 500.15 1694.17 526.75 1694.17 548.1C1694.17 569.45 1708.87 587.65 1751.57 587.65H1754.02ZM1755.77 712.25H1734.07C1616.12 712.25 1611.57 661.85 1613.32 644H1689.27C1689.97 648.9 1693.12 661.5 1745.97 661.5H1746.67C1801.97 661.5 1815.62 631.4 1819.12 608.3C1812.47 615.65 1787.97 635.6 1730.92 635.6H1728.12C1646.57 635.6 1616.12 596.4 1616.12 551.95C1616.12 545.65 1616.47 539.35 1617.52 532.7C1624.52 488.95 1656.72 451.15 1735.82 451.15H1740.02C1803.37 451.15 1829.27 472.15 1838.72 481.25L1842.92 455.7H1919.22L1895.42 606.9C1888.42 650.65 1869.52 712.25 1755.77 712.25Z"/>
</mask>
<path d="M-19.45 509.95V508.45H-20.7256L-20.9305 509.709L-19.45 509.95ZM90.1 509.95L91.5805 510.191L91.8639 508.45H90.1V509.95ZM80.3 570.15V571.65H81.5756L81.7805 570.391L80.3 570.15ZM-29.25 570.15L-30.7305 569.909L-31.0139 571.65H-29.25V570.15ZM-19.45 511.45H90.1V508.45H-19.45V511.45ZM88.6195 509.709L78.8195 569.909L81.7805 570.391L91.5805 510.191L88.6195 509.709ZM80.3 568.65H-29.25V571.65H80.3V568.65ZM-27.7695 570.391L-17.9695 510.191L-20.9305 509.709L-30.7305 569.909L-27.7695 570.391ZM238.538 644V645.5H239.497L239.9 644.63L238.538 644ZM150.338 644L148.887 644.378L149.179 645.5H150.338V644ZM82.4383 383.6V382.1H80.497L80.9868 383.978L82.4383 383.6ZM166.438 383.6L167.897 383.25L167.621 382.1H166.438V383.6ZM209.488 562.8L208.03 563.15L209.059 567.434L210.858 563.412L209.488 562.8ZM289.638 383.6V382.1H288.666L288.269 382.988L289.638 383.6ZM373.988 383.6L375.459 383.304L375.217 382.1H373.988V383.6ZM408.988 557.55L407.518 557.846L408.375 562.107L410.328 558.224L408.988 557.55ZM496.488 383.6V382.1H495.564L495.148 382.926L496.488 383.6ZM576.638 383.6L577.962 384.306L579.139 382.1H576.638V383.6ZM437.688 644V645.5H438.588L439.012 644.706L437.688 644ZM357.188 644L355.722 644.317L355.978 645.5H357.188V644ZM319.388 469.35L320.854 469.033L319.907 464.658L318.027 468.72L319.388 469.35ZM238.538 642.5H150.338V645.5H238.538V642.5ZM151.79 643.622L83.8897 383.222L80.9868 383.978L148.887 644.378L151.79 643.622ZM82.4383 385.1H166.438V382.1H82.4383V385.1ZM164.98 383.95L208.03 563.15L210.947 562.45L167.897 383.25L164.98 383.95ZM210.858 563.412L291.008 384.212L288.269 382.988L208.119 562.188L210.858 563.412ZM289.638 385.1H373.988V382.1H289.638V385.1ZM372.518 383.896L407.518 557.846L410.459 557.254L375.459 383.304L372.518 383.896ZM410.328 558.224L497.828 384.274L495.148 382.926L407.648 556.876L410.328 558.224ZM496.488 385.1L576.638 385.1V382.1L496.488 382.1V385.1ZM575.315 382.894L436.365 643.294L439.012 644.706L577.962 384.306L575.315 382.894ZM437.688 642.5H357.188V645.5H437.688V642.5ZM358.654 643.683L320.854 469.033L317.922 469.667L355.722 644.317L358.654 643.683ZM318.027 468.72L237.177 643.37L239.9 644.63L320.75 469.98L318.027 468.72ZM661.68 383.6L663.161 383.84L663.443 382.1H661.68V383.6ZM652.93 437.5V439H654.206L654.411 437.74L652.93 437.5ZM576.63 437.5L575.149 437.26L574.867 439H576.63V437.5ZM585.38 383.6V382.1H584.104L583.899 383.36L585.38 383.6ZM650.13 455.7L651.612 455.934L651.886 454.2H650.13V455.7ZM620.38 644V645.5H621.662L621.862 644.234L620.38 644ZM544.08 644L542.598 643.766L542.324 645.5H544.08V644ZM573.83 455.7V454.2H572.548L572.348 455.466L573.83 455.7ZM660.199 383.36L651.449 437.26L654.411 437.74L663.161 383.84L660.199 383.36ZM652.93 436L576.63 436V439L652.93 439V436ZM578.111 437.74L586.861 383.84L583.899 383.36L575.149 437.26L578.111 437.74ZM585.38 385.1H661.68V382.1H585.38V385.1ZM648.648 455.466L618.898 643.766L621.862 644.234L651.612 455.934L648.648 455.466ZM620.38 642.5H544.08V645.5H620.38V642.5ZM545.562 644.234L575.312 455.934L572.348 455.466L542.598 643.766L545.562 644.234ZM573.83 457.2L650.13 457.2V454.2L573.83 454.2V457.2ZM650.037 644L648.555 643.766L648.281 645.5H650.037V644ZM679.787 455.7V454.2H678.505L678.305 455.466L679.787 455.7ZM755.387 455.7L756.868 455.941L757.151 454.2H755.387V455.7ZM750.137 487.9L748.657 487.659L747.872 492.472L751.226 488.932L750.137 487.9ZM922.687 533.75L921.206 533.512L921.206 533.515L922.687 533.75ZM905.187 644V645.5H906.468L906.669 644.235L905.187 644ZM828.537 644L827.055 643.766L826.782 645.5H828.537V644ZM843.237 550.9L844.719 551.134L844.72 551.128L843.237 550.9ZM740.687 553.35L739.206 553.115L739.206 553.115L740.687 553.35ZM726.337 644V645.5H727.618L727.819 644.235L726.337 644ZM651.519 644.234L681.269 455.934L678.305 455.466L648.555 643.766L651.519 644.234ZM679.787 457.2H755.387V454.2H679.787V457.2ZM753.907 455.459L748.657 487.659L751.618 488.141L756.868 455.941L753.907 455.459ZM751.226 488.932C757.419 482.395 786.799 453 838.337 453V450C785.575 450 755.456 480.105 749.048 486.868L751.226 488.932ZM838.337 453H840.787V450H838.337V453ZM840.787 453C873.705 453 895.282 463.643 907.881 478.881C920.502 494.145 924.302 514.246 921.206 533.512L924.168 533.988C927.372 514.054 923.472 493.03 910.193 476.969C896.892 460.882 874.37 450 840.787 450V453ZM921.206 533.515L903.706 643.765L906.669 644.235L924.169 533.985L921.206 533.515ZM905.187 642.5H828.537V645.5H905.187V642.5ZM830.019 644.234L844.719 551.134L841.755 550.666L827.055 643.766L830.019 644.234ZM844.72 551.128C846.851 537.275 845.217 525.058 838.289 516.283C831.338 507.478 819.345 502.5 801.587 502.5V505.5C818.829 505.5 829.762 510.322 835.935 518.142C842.133 525.992 843.823 537.225 841.755 550.672L844.72 551.128ZM801.587 502.5C783.956 502.5 769.511 507.759 758.88 516.768C748.251 525.775 741.53 538.451 739.206 553.115L742.169 553.585C744.394 539.549 750.798 527.55 760.819 519.057C770.838 510.566 784.568 505.5 801.587 505.5V502.5ZM739.206 553.115L724.856 643.765L727.819 644.235L742.169 553.585L739.206 553.115ZM726.337 642.5H650.037V645.5H726.337V642.5ZM934.754 644L933.272 643.766L932.998 645.5H934.754V644ZM964.504 455.7V454.2H963.222L963.022 455.466L964.504 455.7ZM1040.1 455.7L1041.58 455.941L1041.87 454.2H1040.1V455.7ZM1034.85 487.9L1033.37 487.659L1032.59 492.472L1035.94 488.932L1034.85 487.9ZM1207.4 533.75L1205.92 533.512L1205.92 533.515L1207.4 533.75ZM1189.9 644V645.5H1191.18L1191.39 644.235L1189.9 644ZM1113.25 644L1111.77 643.766L1111.5 645.5H1113.25V644ZM1127.95 550.9L1129.44 551.134L1129.44 551.128L1127.95 550.9ZM1025.4 553.35L1023.92 553.115V553.115L1025.4 553.35ZM1011.05 644V645.5H1012.34L1012.54 644.235L1011.05 644ZM936.236 644.234L965.986 455.934L963.022 455.466L933.272 643.766L936.236 644.234ZM964.504 457.2H1040.1V454.2H964.504V457.2ZM1038.62 455.459L1033.37 487.659L1036.33 488.141L1041.58 455.941L1038.62 455.459ZM1035.94 488.932C1042.14 482.395 1071.52 453 1123.05 453V450C1070.29 450 1040.17 480.105 1033.77 486.868L1035.94 488.932ZM1123.05 453H1125.5V450H1123.05V453ZM1125.5 453C1158.42 453 1180 463.643 1192.6 478.881C1205.22 494.145 1209.02 514.246 1205.92 533.512L1208.88 533.988C1212.09 514.054 1208.19 493.03 1194.91 476.969C1181.61 460.882 1159.09 450 1125.5 450V453ZM1205.92 533.515L1188.42 643.765L1191.39 644.235L1208.89 533.985L1205.92 533.515ZM1189.9 642.5H1113.25V645.5H1189.9V642.5ZM1114.74 644.234L1129.44 551.134L1126.47 550.666L1111.77 643.766L1114.74 644.234ZM1129.44 551.128C1131.57 537.275 1129.93 525.058 1123.01 516.283C1116.05 507.478 1104.06 502.5 1086.3 502.5V505.5C1103.55 505.5 1114.48 510.322 1120.65 518.142C1126.85 525.992 1128.54 537.225 1126.47 550.672L1129.44 551.128ZM1086.3 502.5C1068.67 502.5 1054.23 507.759 1043.6 516.768C1032.97 525.775 1026.25 538.451 1023.92 553.115L1026.89 553.585C1029.11 539.549 1035.51 527.55 1045.54 519.057C1055.56 510.566 1069.29 505.5 1086.3 505.5V502.5ZM1023.92 553.115L1009.57 643.765L1012.54 644.235L1026.89 553.585L1023.92 553.115ZM1011.05 642.5H934.754V645.5H1011.05V642.5ZM1337.07 383.6L1338.55 383.84L1338.83 382.1H1337.07V383.6ZM1328.32 437.5V439H1329.6L1329.8 437.74L1328.32 437.5ZM1252.02 437.5L1250.54 437.26L1250.26 439H1252.02V437.5ZM1260.77 383.6V382.1H1259.49L1259.29 383.36L1260.77 383.6ZM1325.52 455.7L1327 455.934L1327.28 454.2H1325.52V455.7ZM1295.77 644V645.5H1297.05L1297.25 644.234L1295.77 644ZM1219.47 644L1217.99 643.766L1217.72 645.5H1219.47V644ZM1249.22 455.7V454.2H1247.94L1247.74 455.466L1249.22 455.7ZM1335.59 383.36L1326.84 437.26L1329.8 437.74L1338.55 383.84L1335.59 383.36ZM1328.32 436H1252.02V439H1328.32V436ZM1253.5 437.74L1262.25 383.84L1259.29 383.36L1250.54 437.26L1253.5 437.74ZM1260.77 385.1H1337.07V382.1H1260.77V385.1ZM1324.04 455.466L1294.29 643.766L1297.25 644.234L1327 455.934L1324.04 455.466ZM1295.77 642.5H1219.47V645.5H1295.77V642.5ZM1220.95 644.234L1250.7 455.934L1247.74 455.466L1217.99 643.766L1220.95 644.234ZM1249.22 457.2H1325.52V454.2H1249.22V457.2ZM1325.43 644L1323.95 643.766L1323.67 645.5H1325.43V644ZM1355.18 455.7V454.2H1353.9L1353.7 455.466L1355.18 455.7ZM1430.78 455.7L1432.26 455.941L1432.54 454.2H1430.78V455.7ZM1425.53 487.9L1424.05 487.659L1423.26 492.472L1426.62 488.932L1425.53 487.9ZM1598.08 533.75L1596.6 533.512L1596.6 533.515L1598.08 533.75ZM1580.58 644V645.5H1581.86L1582.06 644.235L1580.58 644ZM1503.93 644L1502.45 643.766L1502.17 645.5H1503.93V644ZM1518.63 550.9L1520.11 551.134L1520.11 551.128L1518.63 550.9ZM1416.08 553.35L1414.6 553.115V553.115L1416.08 553.35ZM1401.73 644V645.5H1403.01L1403.21 644.235L1401.73 644ZM1326.91 644.234L1356.66 455.934L1353.7 455.466L1323.95 643.766L1326.91 644.234ZM1355.18 457.2L1430.78 457.2V454.2L1355.18 454.2V457.2ZM1429.3 455.459L1424.05 487.659L1427.01 488.141L1432.26 455.941L1429.3 455.459ZM1426.62 488.932C1432.81 482.395 1462.19 453 1513.73 453V450C1460.97 450 1430.85 480.105 1424.44 486.868L1426.62 488.932ZM1513.73 453H1516.18V450H1513.73V453ZM1516.18 453C1549.1 453 1570.67 463.643 1583.27 478.881C1595.89 494.145 1599.69 514.246 1596.6 533.512L1599.56 533.988C1602.76 514.054 1598.86 493.03 1585.58 476.969C1572.28 460.882 1549.76 450 1516.18 450V453ZM1596.6 533.515L1579.1 643.765L1582.06 644.235L1599.56 533.985L1596.6 533.515ZM1580.58 642.5H1503.93V645.5H1580.58V642.5ZM1505.41 644.234L1520.11 551.134L1517.15 550.666L1502.45 643.766L1505.41 644.234ZM1520.11 551.128C1522.24 537.275 1520.61 525.058 1513.68 516.283C1506.73 507.478 1494.74 502.5 1476.98 502.5V505.5C1494.22 505.5 1505.15 510.322 1511.33 518.142C1517.52 525.992 1519.21 537.225 1517.15 550.672L1520.11 551.128ZM1476.98 502.5C1459.35 502.5 1444.9 507.759 1434.27 516.768C1423.64 525.775 1416.92 538.451 1414.6 553.115L1417.56 553.585C1419.78 539.549 1426.19 527.55 1436.21 519.057C1446.23 510.566 1459.96 505.5 1476.98 505.5V502.5ZM1414.6 553.115L1400.25 643.765L1403.21 644.235L1417.56 553.585L1414.6 553.115ZM1401.73 642.5H1325.43V645.5H1401.73V642.5ZM1828.57 546L1830.05 546.247L1828.57 546ZM1613.32 644V642.5H1611.96L1611.83 643.854L1613.32 644ZM1689.27 644L1690.75 643.788L1690.57 642.5H1689.27V644ZM1819.12 608.3L1820.6 608.525L1821.35 603.6L1818.01 607.294L1819.12 608.3ZM1617.52 532.7L1616.04 532.463L1616.04 532.466L1617.52 532.7ZM1838.72 481.25L1837.68 482.33L1839.74 484.312L1840.2 481.493L1838.72 481.25ZM1842.92 455.7V454.2H1841.65L1841.44 455.457L1842.92 455.7ZM1919.22 455.7L1920.7 455.933L1920.97 454.2H1919.22V455.7ZM1895.42 606.9L1896.9 607.137L1896.9 607.133L1895.42 606.9ZM1754.02 589.15C1802.68 589.15 1826.38 568.286 1830.05 546.247L1827.09 545.753C1823.76 565.714 1801.96 586.15 1754.02 586.15V589.15ZM1830.05 546.247C1830.4 544.111 1830.77 541.219 1830.77 538.65H1827.77C1827.77 540.981 1827.43 543.689 1827.09 545.753L1830.05 546.247ZM1830.77 538.65C1830.77 527.611 1825.5 517.533 1814.61 510.277C1803.78 503.055 1787.44 498.65 1765.22 498.65V501.65C1787.1 501.65 1802.78 505.995 1812.95 512.773C1823.06 519.516 1827.77 528.689 1827.77 538.65H1830.77ZM1765.22 498.65H1762.77V501.65H1765.22V498.65ZM1762.77 498.65C1733.52 498.65 1715.93 505.342 1705.65 515.027C1695.35 524.733 1692.67 537.192 1692.67 548.1H1695.67C1695.67 537.658 1698.23 526.142 1707.71 517.21C1717.21 508.258 1733.92 501.65 1762.77 501.65V498.65ZM1692.67 548.1C1692.67 559.143 1696.49 569.498 1705.92 577.052C1715.3 584.565 1730.04 589.15 1751.57 589.15V586.15C1730.4 586.15 1716.44 581.635 1707.79 574.71C1699.2 567.827 1695.67 558.407 1695.67 548.1H1692.67ZM1751.57 589.15H1754.02V586.15H1751.57V589.15ZM1755.77 710.75H1734.07V713.75H1755.77V710.75ZM1734.07 710.75C1675.26 710.75 1645.09 698.176 1629.84 683.73C1614.64 669.335 1613.96 652.814 1614.81 644.146L1611.83 643.854C1610.93 653.036 1611.65 670.64 1627.78 685.908C1643.84 701.124 1674.93 713.75 1734.07 713.75V710.75ZM1613.32 645.5H1689.27V642.5H1613.32V645.5ZM1687.78 644.212C1687.97 645.53 1688.34 647.485 1689.74 649.621C1691.13 651.753 1693.46 653.951 1697.39 655.928C1705.19 659.852 1719.48 663 1745.97 663V660C1719.61 660 1705.9 656.849 1698.74 653.247C1695.19 651.462 1693.3 649.591 1692.25 647.982C1691.2 646.377 1690.92 644.921 1690.75 643.788L1687.78 644.212ZM1745.97 663H1746.67V660H1745.97V663ZM1746.67 663C1774.6 663 1792.25 655.392 1803.36 644.641C1814.45 633.912 1818.83 620.247 1820.6 608.525L1817.64 608.075C1815.91 619.453 1811.71 632.388 1801.28 642.484C1790.86 652.558 1774.04 660 1746.67 660V663ZM1818.01 607.294C1811.67 614.297 1787.59 634.1 1730.92 634.1V637.1C1788.35 637.1 1813.27 617.003 1820.23 609.306L1818.01 607.294ZM1730.92 634.1H1728.12V637.1H1730.92V634.1ZM1728.12 634.1C1687.57 634.1 1659.96 624.353 1642.52 609.308C1625.1 594.285 1617.62 573.819 1617.62 551.95H1614.62C1614.62 574.531 1622.36 595.89 1640.56 611.58C1658.73 627.247 1687.12 637.1 1728.12 637.1V634.1ZM1617.62 551.95C1617.62 545.707 1617.97 539.488 1619 532.934L1616.04 532.466C1614.97 539.212 1614.62 545.593 1614.62 551.95H1617.62ZM1619 532.937C1622.45 511.357 1632.1 491.336 1650.56 476.694C1669.04 462.043 1696.5 452.65 1735.82 452.65V449.65C1696.04 449.65 1667.85 459.157 1648.7 474.343C1629.54 489.539 1619.59 510.293 1616.04 532.463L1619 532.937ZM1735.82 452.65H1740.02V449.65H1735.82V452.65ZM1740.02 452.65C1802.97 452.65 1828.5 473.491 1837.68 482.33L1839.76 480.17C1830.04 470.809 1803.77 449.65 1740.02 449.65V452.65ZM1840.2 481.493L1844.4 455.943L1841.44 455.457L1837.24 481.007L1840.2 481.493ZM1842.92 457.2H1919.22V454.2H1842.92V457.2ZM1917.74 455.467L1893.94 606.667L1896.9 607.133L1920.7 455.933L1917.74 455.467ZM1893.94 606.663C1890.45 628.468 1884.03 654.422 1864.54 674.948C1845.08 695.432 1812.37 710.75 1755.77 710.75V713.75C1812.92 713.75 1846.53 698.268 1866.71 677.014C1886.86 655.803 1893.39 629.082 1896.9 607.137L1893.94 606.663Z" fill="#1C1C1E" mask="url(#path-3-outside-2_820_13405)"/>
</svg>
