<svg width="779" height="118" viewBox="0 0 779 118" fill="none" xmlns="http://www.w3.org/2000/svg">
<path d="M643.695 13.5919L674.797 13.7692L732.65 79.1824L734.102 14.0897L765.023 14.2638L762.237 117.144L731.816 115.034L670.52 45.489L669.435 110.721L642.25 108.834L643.693 13.5753L643.695 13.5919Z" fill="#F8F8F8"/>
<path d="M574.275 105.719C531.602 102.714 520.192 78.8974 518.114 63.2215C517.754 60.5061 517.363 57.5575 517.308 53.335C517.209 38.9901 519.806 11.3627 567.854 11.5864L572.541 11.6018C617.871 11.8113 631.183 36.2926 633.458 53.4511C633.899 56.7829 634.236 60.2291 634.241 63.8026C634.163 80.0724 630.968 109.717 578.971 106.067L574.289 105.736L574.275 105.719ZM605.975 55.5641C604.61 45.269 596.814 34.2134 572.301 33.7191C545.861 33.1911 541.445 46.2772 542.076 56.4765C542.175 58.0405 542.334 59.2399 542.508 60.556C543.798 70.2847 550.516 82.4516 574.598 83.7695C601.548 85.2537 606.422 71.8099 606.29 60.5723C606.269 58.6939 606.194 57.3131 605.963 55.5639L605.975 55.5641Z" fill="#F8F8F8"/>
<path d="M510.332 12.843L510.155 99.6972L488.027 98.1642L488.007 12.7192L510.332 12.843Z" fill="#F8F8F8"/>
<path d="M431.904 94.2928L431.538 31.8941L404.904 31.3461L404.669 12.262L480.928 12.6956L480.944 32.9393L452.248 32.3387L452.493 95.7325L431.918 94.3097L431.904 94.2928Z" fill="#F8F8F8"/>
<path d="M385.21 58.9745L372.984 29.094L363.049 58.0059L385.222 58.9747L385.21 58.9745ZM398.79 92.0032L392.691 77.1713L357.16 75.1217L352.486 88.8017L334.529 87.5575L360.64 12.009L384.312 12.1396L418.819 93.3833L398.778 92.003L398.79 92.0032Z" fill="#F8F8F8"/>
<path d="M273.9 11.5249L332.123 11.8431L332.31 25.7575L297.149 67.7414L333.56 69.7232L333.827 87.5115L274.888 83.4246L274.634 70.3567L307.801 28.9197L274.277 28.2348L273.898 11.5082L273.9 11.5249Z" fill="#F8F8F8"/>
<path d="M267.84 11.4855L269.408 83.0463L254.349 82.0023L252.692 11.4039L267.84 11.4855Z" fill="#F8F8F8"/>
<path d="M202.453 11.1253L216.242 11.1998L217.612 62.5968L249.045 64.2757L249.489 81.6682L204.374 78.5538L202.465 11.1255L202.453 11.1253Z" fill="#F8F8F8"/>
<path d="M196.187 11.0822L198.127 78.1123L184.9 77.1999L182.891 11.0164L196.177 11.0987L196.187 11.0822Z" fill="#F8F8F8"/>
<path d="M130.858 73.4477L128.621 10.7005L161.334 10.8893C172.081 10.9439 176.164 17.3641 177.272 25.7268C178.498 34.9724 173.66 38.6276 170.953 39.777C173.641 41.0205 179.119 45.1881 180.437 55.1334C182.062 67.3942 178.726 76.7597 164.928 75.8042L130.858 73.4477ZM160.526 35.1573C164.29 35.2729 165.04 32.1448 164.678 29.4127C164.34 26.8639 163.326 24.6524 160.063 24.5954L141.01 24.2296L141.374 34.5904L160.526 35.1573ZM162.45 61.6337C167.049 61.8968 167.521 57.5672 167.148 54.7518C166.775 51.9365 165.679 49.1086 161.861 48.9422L141.84 48.0775L142.275 60.517L162.437 61.6335L162.45 61.6337Z" fill="#F8F8F8"/>
<path d="M108.453 46.9803L100.381 23.7872L95.0164 46.3968L108.453 46.9803ZM117.39 72.532L113.382 61.0606L91.846 59.8204L89.3076 70.5793L78.287 69.8218L92.5176 10.5033L106.849 10.5873L129.416 73.3569L117.402 72.5322L117.39 72.532Z" fill="#F8F8F8"/>
<path d="M58.9975 68.4876L57.0945 24.1283L43.6257 23.8433L42.9854 10.2202L81.0967 10.4367L81.6676 24.6237L67.4643 24.3259L69.3372 69.1833L58.9953 68.471L58.9975 68.4876Z" fill="#F8F8F8"/>
<path d="M25.1047 67.1149C9.83651 66.034 7.05829 53.3209 6.49016 45.4995L15.8958 45.9462C16.3978 49.4618 17.6703 54.8025 25.3322 55.2354L25.8259 55.244C34.5081 55.7612 34.5837 51.89 34.2105 49.0747C33.8065 46.0261 32.6518 44.2941 26.5595 43.739L21.4175 43.2836C10.8707 42.3848 7.04221 35.0716 5.92057 26.6089C5.78367 25.5761 5.71161 24.7604 5.65679 23.7124C5.2444 16.1596 7.28122 9.04849 20.695 9.0998L23.3397 9.11272C37.8131 9.18254 41.852 18.6268 42.4724 28.1112L32.5032 27.8541C32.078 25.5531 31.1337 20.966 23.2466 20.8284L22.6687 20.8183C15.0586 20.6854 14.9796 23.443 15.2776 25.692C15.5558 27.791 16.4397 30.1997 21.9833 30.5125L26.9731 30.8157C38.1325 31.4426 42.8958 36.7445 44.3067 47.3895C44.49 48.7721 44.6419 50.5531 44.6618 51.7003C44.8222 59.98 43.1918 68.3447 27.8032 67.2617L25.1101 67.0651L25.1047 67.1149Z" fill="#F8F8F8"/>
</svg>
