<svg width="1963" height="713" viewBox="0 0 1963 713" fill="none" xmlns="http://www.w3.org/2000/svg">
<mask id="path-1-outside-1_893_13025" maskUnits="userSpaceOnUse" x="329" y="27" width="1635" height="340" fill="black">
<rect fill="white" x="329" y="27" width="1635" height="340"/>
<path d="M372.8 38.6L639.5 38.6L630.05 97.75L441.75 97.75L435.8 136.25L619.9 136.25L610.45 195.75L426.35 195.75L419.35 238.45L610.8 238.45L601.35 299H331.5L372.8 38.6ZM705.423 299H629.123L658.873 110.7L734.473 110.7L729.223 142.9C735.173 136.25 763.523 106.5 811.823 106.5H813.923C852.073 106.5 874.123 122.95 884.273 143.6C896.873 131.35 927.673 106.5 973.523 106.5H975.973C1045.62 106.5 1063.47 153.05 1058.22 186.3L1040.37 299H963.723L978.773 204.15C982.273 182.1 974.573 159 942.373 159C907.373 159 891.623 181.4 887.773 206.25L873.073 299L796.423 299L811.473 203.45C814.973 181.05 806.573 159 775.073 159C740.423 159 723.973 181.4 720.123 205.55L705.423 299ZM1146 299H1069.7L1099.45 110.7H1175.05L1169.8 142.9C1175.75 136.25 1204.1 106.5 1252.4 106.5H1254.5C1292.65 106.5 1314.7 122.95 1324.85 143.6C1337.45 131.35 1368.25 106.5 1414.1 106.5H1416.55C1486.2 106.5 1504.05 153.05 1498.8 186.3L1480.95 299H1404.3L1419.35 204.15C1422.85 182.1 1415.15 159 1382.95 159C1347.95 159 1332.2 181.4 1328.35 206.25L1313.65 299H1237L1252.05 203.45C1255.55 181.05 1247.15 159 1215.65 159C1181 159 1164.55 181.4 1160.7 205.55L1146 299ZM1508.94 364.8L1518.04 308.8H1560.39C1568.44 308.8 1570.89 304.95 1570.89 300.75C1570.89 296.55 1568.44 290.25 1565.29 281.85L1500.89 110.7H1581.39L1623.39 238.45L1697.59 110.7L1775.64 110.7L1651.74 311.25C1630.04 346.25 1613.24 364.8 1580.34 364.8H1508.94ZM1854.64 154.933H1833.62L1850.36 75.4648H1890.52C1897.82 75.4648 1903.91 77.8005 1908.81 82.4717C1913.71 87.029 1916.16 92.6686 1916.16 99.3906C1916.16 105.771 1914.11 111.41 1910.01 116.31C1905.91 121.209 1900.61 124.456 1894.11 126.051L1907.61 154.933H1883.18L1871.73 127.931H1860.45L1854.64 154.933ZM1867.97 92.5547L1863.69 112.208H1879.76C1883.86 112.208 1887.16 111.183 1889.67 109.132C1892.29 106.967 1893.6 104.29 1893.6 101.1C1893.6 98.4792 1892.69 96.4284 1890.87 94.9473C1889.16 93.3522 1886.65 92.5547 1883.35 92.5547H1867.97ZM1875.14 202.955C1858.85 202.955 1844.1 199.138 1830.88 191.505C1817.78 183.871 1807.35 173.504 1799.61 160.401C1791.97 147.299 1788.16 132.602 1788.16 116.31C1788.16 99.9033 1791.97 85.1491 1799.61 72.0469C1807.35 58.9447 1817.78 48.5768 1830.88 40.9434C1843.98 33.3099 1858.74 29.4932 1875.14 29.4932C1891.44 29.4932 1906.13 33.3099 1919.24 40.9434C1932.45 48.5768 1942.88 58.9447 1950.51 72.0469C1958.26 85.1491 1962.13 99.9033 1962.13 116.31C1962.13 132.602 1958.26 147.299 1950.51 160.401C1942.88 173.504 1932.45 183.871 1919.24 191.505C1906.13 199.138 1891.44 202.955 1875.14 202.955ZM1875.14 180.567C1887.22 180.567 1897.99 177.776 1907.44 172.193C1917.01 166.497 1924.53 158.806 1930 149.122C1935.58 139.438 1938.38 128.5 1938.38 116.31C1938.38 104.005 1935.58 93.0104 1930 83.3262C1924.53 73.6419 1917.01 66.0085 1907.44 60.4258C1897.99 54.8431 1887.22 52.0518 1875.14 52.0518C1863.18 52.0518 1852.41 54.8431 1842.84 60.4258C1833.27 66.0085 1825.7 73.6419 1820.11 83.3262C1814.53 93.0104 1811.74 104.005 1811.74 116.31C1811.74 128.5 1814.53 139.438 1820.11 149.122C1825.7 158.806 1833.27 166.497 1842.84 172.193C1852.41 177.776 1863.18 180.567 1875.14 180.567Z"/>
</mask>
<path d="M372.8 38.6V37.1H371.519L371.319 38.365L372.8 38.6ZM639.5 38.6L640.981 38.8366L641.259 37.1H639.5V38.6ZM630.05 97.75V99.25H631.329L631.531 97.9866L630.05 97.75ZM441.75 97.75V96.25H440.464L440.268 97.5209L441.75 97.75ZM435.8 136.25L434.318 136.021L434.05 137.75H435.8V136.25ZM619.9 136.25L621.381 136.485L621.657 134.75H619.9V136.25ZM610.45 195.75V197.25H611.731L611.931 195.985L610.45 195.75ZM426.35 195.75V194.25H425.076L424.87 195.507L426.35 195.75ZM419.35 238.45L417.87 238.207L417.584 239.95H419.35V238.45ZM610.8 238.45L612.282 238.681L612.552 236.95H610.8V238.45ZM601.35 299V300.5H602.634L602.832 299.231L601.35 299ZM331.5 299L330.019 298.765L329.743 300.5H331.5V299ZM372.8 40.1L639.5 40.1V37.1L372.8 37.1V40.1ZM638.019 38.3633L628.569 97.5133L631.531 97.9866L640.981 38.8366L638.019 38.3633ZM630.05 96.25L441.75 96.25V99.25L630.05 99.25V96.25ZM440.268 97.5209L434.318 136.021L437.282 136.479L443.232 97.9791L440.268 97.5209ZM435.8 137.75L619.9 137.75V134.75L435.8 134.75V137.75ZM618.419 136.015L608.969 195.515L611.931 195.985L621.381 136.485L618.419 136.015ZM610.45 194.25L426.35 194.25V197.25L610.45 197.25V194.25ZM424.87 195.507L417.87 238.207L420.83 238.693L427.83 195.993L424.87 195.507ZM419.35 239.95L610.8 239.95V236.95L419.35 236.95V239.95ZM609.318 238.219L599.868 298.769L602.832 299.231L612.282 238.681L609.318 238.219ZM601.35 297.5H331.5V300.5H601.35V297.5ZM332.981 299.235L374.281 38.835L371.319 38.365L330.019 298.765L332.981 299.235ZM705.423 299V300.5H706.706L706.905 299.233L705.423 299ZM629.123 299L627.641 298.766L627.367 300.5H629.123V299ZM658.873 110.7V109.2H657.591L657.391 110.466L658.873 110.7ZM734.473 110.7L735.954 110.941L736.237 109.2H734.473V110.7ZM729.223 142.9L727.743 142.659L726.916 147.728L730.341 143.9L729.223 142.9ZM884.273 143.6L882.927 144.262L883.838 146.115L885.319 144.675L884.273 143.6ZM1058.22 186.3L1059.7 186.535L1059.7 186.534L1058.22 186.3ZM1040.37 299V300.5H1041.65L1041.85 299.235L1040.37 299ZM963.723 299L962.242 298.765L961.966 300.5H963.723V299ZM978.773 204.15L977.292 203.915L977.292 203.915L978.773 204.15ZM887.773 206.25L889.255 206.485L889.255 206.48L887.773 206.25ZM873.073 299V300.5H874.354L874.555 299.235L873.073 299ZM796.423 299L794.941 298.767L794.668 300.5H796.423V299ZM811.473 203.45L812.955 203.683L812.955 203.682L811.473 203.45ZM720.123 205.55L718.642 205.314L718.641 205.317L720.123 205.55ZM705.423 297.5H629.123V300.5H705.423V297.5ZM630.605 299.234L660.355 110.934L657.391 110.466L627.641 298.766L630.605 299.234ZM658.873 112.2L734.473 112.2V109.2L658.873 109.2V112.2ZM732.993 110.459L727.743 142.659L730.704 143.141L735.954 110.941L732.993 110.459ZM730.341 143.9C736.2 137.352 764.172 108 811.823 108V105C762.874 105 734.147 135.148 728.105 141.9L730.341 143.9ZM811.823 108H813.923V105H811.823V108ZM813.923 108C851.578 108 873.061 124.19 882.927 144.262L885.619 142.938C875.185 121.71 852.568 105 813.923 105V108ZM885.319 144.675C897.795 132.546 928.237 108 973.523 108V105C927.109 105 895.952 130.154 883.227 142.524L885.319 144.675ZM973.523 108H975.973V105H973.523V108ZM975.973 108C1010.45 108 1031.84 119.503 1044.01 134.863C1056.21 150.268 1059.31 169.773 1056.74 186.066L1059.7 186.534C1062.38 169.577 1059.18 149.182 1046.36 133C1033.5 116.772 1011.15 105 975.973 105V108ZM1056.74 186.065L1038.89 298.765L1041.85 299.235L1059.7 186.535L1056.74 186.065ZM1040.37 297.5H963.723V300.5H1040.37V297.5ZM965.205 299.235L980.255 204.385L977.292 203.915L962.242 298.765L965.205 299.235ZM980.255 204.385C982.037 193.156 981.007 181.448 975.22 172.492C969.374 163.445 958.867 157.5 942.373 157.5V160.5C958.079 160.5 967.522 166.105 972.701 174.12C977.939 182.227 979.009 193.094 977.292 203.915L980.255 204.385ZM942.373 157.5C924.528 157.5 911.445 163.223 902.336 172.24C893.255 181.231 888.25 193.371 886.291 206.02L889.255 206.48C891.146 194.279 895.941 182.794 904.447 174.372C912.926 165.977 925.218 160.5 942.373 160.5V157.5ZM886.292 206.015L871.592 298.765L874.555 299.235L889.255 206.485L886.292 206.015ZM873.073 297.5L796.423 297.5V300.5L873.073 300.5V297.5ZM797.905 299.233L812.955 203.683L809.991 203.217L794.941 298.767L797.905 299.233ZM812.955 203.682C814.739 192.267 813.529 180.725 807.642 171.987C801.702 163.169 791.201 157.5 775.073 157.5V160.5C790.445 160.5 799.894 165.856 805.154 173.663C810.467 181.55 811.708 192.233 809.991 203.218L812.955 203.682ZM775.073 157.5C757.4 157.5 744.239 163.224 735.006 172.14C725.797 181.033 720.606 192.994 718.642 205.314L721.604 205.786C723.49 193.956 728.449 182.642 737.09 174.298C745.707 165.976 758.096 160.5 775.073 160.5V157.5ZM718.641 205.317L703.941 298.767L706.905 299.233L721.605 205.783L718.641 205.317ZM1146 299V300.5H1147.28L1147.48 299.233L1146 299ZM1069.7 299L1068.22 298.766L1067.94 300.5H1069.7V299ZM1099.45 110.7V109.2H1098.17L1097.97 110.466L1099.45 110.7ZM1175.05 110.7L1176.53 110.941L1176.81 109.2H1175.05V110.7ZM1169.8 142.9L1168.32 142.659L1167.49 147.728L1170.92 143.9L1169.8 142.9ZM1324.85 143.6L1323.5 144.262L1324.41 146.115L1325.89 144.675L1324.85 143.6ZM1498.8 186.3L1500.28 186.535L1500.28 186.534L1498.8 186.3ZM1480.95 299V300.5H1482.23L1482.43 299.235L1480.95 299ZM1404.3 299L1402.82 298.765L1402.54 300.5H1404.3V299ZM1419.35 204.15L1417.87 203.915L1417.87 203.915L1419.35 204.15ZM1328.35 206.25L1329.83 206.485L1329.83 206.48L1328.35 206.25ZM1313.65 299V300.5H1314.93L1315.13 299.235L1313.65 299ZM1237 299L1235.52 298.767L1235.24 300.5H1237V299ZM1252.05 203.45L1253.53 203.683L1253.53 203.682L1252.05 203.45ZM1160.7 205.55L1159.22 205.314L1159.22 205.317L1160.7 205.55ZM1146 297.5H1069.7V300.5H1146V297.5ZM1071.18 299.234L1100.93 110.934L1097.97 110.466L1068.22 298.766L1071.18 299.234ZM1099.45 112.2H1175.05V109.2H1099.45V112.2ZM1173.57 110.459L1168.32 142.659L1171.28 143.141L1176.53 110.941L1173.57 110.459ZM1170.92 143.9C1176.78 137.352 1204.75 108 1252.4 108V105C1203.45 105 1174.72 135.148 1168.68 141.9L1170.92 143.9ZM1252.4 108H1254.5V105H1252.4V108ZM1254.5 108C1292.15 108 1313.64 124.19 1323.5 144.262L1326.2 142.938C1315.76 121.71 1293.14 105 1254.5 105V108ZM1325.89 144.675C1338.37 132.546 1368.81 108 1414.1 108V105C1367.69 105 1336.53 130.154 1323.8 142.524L1325.89 144.675ZM1414.1 108H1416.55V105H1414.1V108ZM1416.55 108C1451.02 108 1472.42 119.503 1484.59 134.863C1496.79 150.268 1499.89 169.773 1497.32 186.066L1500.28 186.534C1502.96 169.577 1499.76 149.182 1486.94 133C1474.08 116.772 1451.73 105 1416.55 105V108ZM1497.32 186.065L1479.47 298.765L1482.43 299.235L1500.28 186.535L1497.32 186.065ZM1480.95 297.5H1404.3V300.5H1480.95V297.5ZM1405.78 299.235L1420.83 204.385L1417.87 203.915L1402.82 298.765L1405.78 299.235ZM1420.83 204.385C1422.61 193.156 1421.58 181.448 1415.8 172.492C1409.95 163.445 1399.44 157.5 1382.95 157.5V160.5C1398.66 160.5 1408.1 166.105 1413.28 174.12C1418.52 182.227 1419.59 193.094 1417.87 203.915L1420.83 204.385ZM1382.95 157.5C1365.1 157.5 1352.02 163.223 1342.91 172.24C1333.83 181.231 1328.83 193.371 1326.87 206.02L1329.83 206.48C1331.72 194.279 1336.52 182.794 1345.02 174.372C1353.5 165.977 1365.79 160.5 1382.95 160.5V157.5ZM1326.87 206.015L1312.17 298.765L1315.13 299.235L1329.83 206.485L1326.87 206.015ZM1313.65 297.5H1237V300.5H1313.65V297.5ZM1238.48 299.233L1253.53 203.683L1250.57 203.217L1235.52 298.767L1238.48 299.233ZM1253.53 203.682C1255.31 192.267 1254.11 180.725 1248.22 171.987C1242.28 163.169 1231.78 157.5 1215.65 157.5V160.5C1231.02 160.5 1240.47 165.856 1245.73 173.663C1251.04 181.55 1252.28 192.233 1250.57 203.218L1253.53 203.682ZM1215.65 157.5C1197.98 157.5 1184.82 163.224 1175.58 172.14C1166.37 181.033 1161.18 192.994 1159.22 205.314L1162.18 205.786C1164.07 193.956 1169.03 182.642 1177.67 174.298C1186.28 165.976 1198.67 160.5 1215.65 160.5V157.5ZM1159.22 205.317L1144.52 298.767L1147.48 299.233L1162.18 205.783L1159.22 205.317ZM1508.94 364.8L1507.46 364.559L1507.18 366.3H1508.94V364.8ZM1518.04 308.8V307.3H1516.77L1516.56 308.559L1518.04 308.8ZM1565.29 281.85L1566.7 281.323L1566.7 281.322L1565.29 281.85ZM1500.89 110.7V109.2H1498.73L1499.49 111.228L1500.89 110.7ZM1581.39 110.7L1582.82 110.232L1582.48 109.2H1581.39V110.7ZM1623.39 238.45L1621.97 238.918L1623.01 242.093L1624.69 239.203L1623.39 238.45ZM1697.59 110.7V109.2H1696.73L1696.3 109.947L1697.59 110.7ZM1775.64 110.7L1776.92 111.488L1778.33 109.2H1775.64V110.7ZM1651.74 311.25L1653.02 312.04L1653.02 312.038L1651.74 311.25ZM1510.42 365.041L1519.52 309.041L1516.56 308.559L1507.46 364.559L1510.42 365.041ZM1518.04 310.3H1560.39V307.3H1518.04V310.3ZM1560.39 310.3C1564.64 310.3 1567.68 309.286 1569.68 307.454C1571.69 305.605 1572.39 303.139 1572.39 300.75H1569.39C1569.39 302.561 1568.87 304.12 1567.65 305.246C1566.4 306.389 1564.2 307.3 1560.39 307.3V310.3ZM1572.39 300.75C1572.39 298.404 1571.72 295.592 1570.7 292.419C1569.68 289.224 1568.27 285.504 1566.7 281.323L1563.89 282.377C1565.47 286.596 1566.85 290.226 1567.85 293.331C1568.84 296.458 1569.39 298.896 1569.39 300.75H1572.39ZM1566.7 281.322L1502.3 110.172L1499.49 111.228L1563.89 282.378L1566.7 281.322ZM1500.89 112.2H1581.39V109.2H1500.89V112.2ZM1579.97 111.168L1621.97 238.918L1624.82 237.982L1582.82 110.232L1579.97 111.168ZM1624.69 239.203L1698.89 111.453L1696.3 109.947L1622.1 237.697L1624.69 239.203ZM1697.59 112.2L1775.64 112.2V109.2L1697.59 109.2V112.2ZM1774.37 109.912L1650.47 310.462L1653.02 312.038L1776.92 111.488L1774.37 109.912ZM1650.47 310.46C1639.63 327.948 1630.11 341.146 1619.29 349.989C1608.55 358.774 1596.46 363.3 1580.34 363.3V366.3C1597.13 366.3 1609.89 361.551 1621.19 352.311C1632.43 343.129 1642.16 329.552 1653.02 312.04L1650.47 310.46ZM1580.34 363.3H1508.94V366.3H1580.34V363.3ZM1854.64 154.933V156.433H1855.85L1856.1 155.248L1854.64 154.933ZM1833.62 154.933L1832.15 154.623L1831.77 156.433H1833.62V154.933ZM1850.36 75.4648V73.9648H1849.15L1848.9 75.1555L1850.36 75.4648ZM1908.81 82.4717L1907.78 83.5573L1907.78 83.5637L1907.79 83.57L1908.81 82.4717ZM1894.11 126.051L1893.76 124.594L1891.98 125.03L1892.75 126.686L1894.11 126.051ZM1907.61 154.933V156.433H1909.97L1908.97 154.297L1907.61 154.933ZM1883.18 154.933L1881.79 155.518L1882.18 156.433H1883.18V154.933ZM1871.73 127.931L1873.11 127.345L1872.72 126.431H1871.73V127.931ZM1860.45 127.931V126.431H1859.23L1858.98 127.615L1860.45 127.931ZM1867.97 92.5547V91.0547H1866.76L1866.5 92.236L1867.97 92.5547ZM1863.69 112.208L1862.23 111.889L1861.83 113.708H1863.69V112.208ZM1889.67 109.132L1890.62 110.293L1890.63 110.288L1889.67 109.132ZM1890.87 94.9473L1889.84 96.0438L1889.88 96.079L1889.92 96.1114L1890.87 94.9473ZM1830.88 191.505L1830.13 192.801L1830.13 192.804L1830.88 191.505ZM1799.61 160.401L1798.31 161.156L1798.32 161.165L1799.61 160.401ZM1799.61 72.0469L1798.32 71.2834L1798.31 71.2918L1799.61 72.0469ZM1919.24 40.9434L1918.48 42.2394L1918.49 42.2423L1919.24 40.9434ZM1950.51 72.0469L1949.21 72.802L1949.22 72.8103L1950.51 72.0469ZM1950.51 160.401L1949.22 159.638L1949.21 159.646L1950.51 160.401ZM1919.24 191.505L1918.49 190.206L1918.48 190.209L1919.24 191.505ZM1907.44 172.193L1908.21 173.485L1908.21 173.482L1907.44 172.193ZM1930 149.122L1928.7 148.373L1928.7 148.384L1930 149.122ZM1930 83.3262L1928.7 84.0638L1928.7 84.0753L1930 83.3262ZM1907.44 60.4258L1906.68 61.7175L1906.69 61.7214L1907.44 60.4258ZM1842.84 172.193L1842.08 173.482L1842.09 173.489L1842.84 172.193ZM1854.64 153.433H1833.62V156.433H1854.64V153.433ZM1835.08 155.242L1851.83 75.7742L1848.9 75.1555L1832.15 154.623L1835.08 155.242ZM1850.36 76.9648H1890.52V73.9648H1850.36V76.9648ZM1890.52 76.9648C1897.46 76.9648 1903.18 79.1738 1907.78 83.5573L1909.85 81.3861C1904.64 76.4271 1898.17 73.9648 1890.52 73.9648V76.9648ZM1907.79 83.57C1912.38 87.842 1914.66 93.0831 1914.66 99.3906H1917.66C1917.66 92.2542 1915.04 86.216 1909.83 81.3734L1907.79 83.57ZM1914.66 99.3906C1914.66 105.418 1912.73 110.717 1908.86 115.347L1911.16 117.272C1915.48 112.104 1917.66 106.123 1917.66 99.3906H1914.66ZM1908.86 115.347C1904.97 119.989 1899.96 123.071 1893.76 124.594L1894.47 127.507C1901.26 125.84 1906.84 122.428 1911.16 117.272L1908.86 115.347ZM1892.75 126.686L1906.26 155.568L1908.97 154.297L1895.47 125.416L1892.75 126.686ZM1907.61 153.433H1883.18V156.433H1907.61V153.433ZM1884.56 154.347L1873.11 127.345L1870.34 128.516L1881.79 155.518L1884.56 154.347ZM1871.73 126.431H1860.45V129.431H1871.73V126.431ZM1858.98 127.615L1853.17 154.617L1856.1 155.248L1861.91 128.246L1858.98 127.615ZM1866.5 92.236L1862.23 111.889L1865.16 112.527L1869.43 92.8733L1866.5 92.236ZM1863.69 113.708H1879.76V110.708H1863.69V113.708ZM1879.76 113.708C1884.11 113.708 1887.78 112.616 1890.62 110.293L1888.72 107.971C1886.55 109.749 1883.61 110.708 1879.76 110.708V113.708ZM1890.63 110.288C1893.56 107.86 1895.1 104.77 1895.1 101.1H1892.1C1892.1 103.81 1891.02 106.074 1888.71 107.975L1890.63 110.288ZM1895.1 101.1C1895.1 98.0867 1894.03 95.5844 1891.81 93.7831L1889.92 96.1114C1891.35 97.2724 1892.1 98.8717 1892.1 101.1H1895.1ZM1891.89 93.8507C1889.81 91.906 1886.87 91.0547 1883.35 91.0547V94.0547C1886.43 94.0547 1888.51 94.7984 1889.84 96.0438L1891.89 93.8507ZM1883.35 91.0547H1867.97V94.0547H1883.35V91.0547ZM1875.14 201.455C1859.1 201.455 1844.6 197.699 1831.63 190.206L1830.13 192.804C1843.59 200.578 1858.61 204.455 1875.14 204.455V201.455ZM1831.64 190.209C1818.76 182.705 1808.52 172.521 1800.9 159.638L1798.32 161.165C1806.19 174.487 1816.8 185.038 1830.13 192.801L1831.64 190.209ZM1800.9 159.646C1793.41 146.79 1789.66 132.357 1789.66 116.31H1786.66C1786.66 132.847 1790.53 147.808 1798.31 161.156L1800.9 159.646ZM1789.66 116.31C1789.66 100.146 1793.41 85.6563 1800.9 72.802L1798.31 71.2918C1790.53 84.6419 1786.66 99.6605 1786.66 116.31H1789.66ZM1800.9 72.8103C1808.52 59.9276 1818.76 49.7435 1831.64 42.2394L1830.13 39.6473C1816.8 47.4101 1806.19 57.9617 1798.32 71.2834L1800.9 72.8103ZM1831.64 42.2394C1844.49 34.7504 1858.98 30.9932 1875.14 30.9932V27.9932C1858.49 27.9932 1843.48 31.8694 1830.13 39.6473L1831.64 42.2394ZM1875.14 30.9932C1891.19 30.9932 1905.62 34.7495 1918.48 42.2394L1919.99 39.6473C1906.64 31.8703 1891.68 27.9932 1875.14 27.9932V30.9932ZM1918.49 42.2423C1931.48 49.746 1941.71 59.927 1949.21 72.802L1951.81 71.2918C1944.04 57.9623 1933.43 47.4077 1919.99 39.6445L1918.49 42.2423ZM1949.22 72.8103C1956.82 85.6634 1960.63 100.15 1960.63 116.31H1963.63C1963.63 99.6564 1959.7 84.6348 1951.8 71.2834L1949.22 72.8103ZM1960.63 116.31C1960.63 132.353 1956.82 146.783 1949.22 159.638L1951.8 161.165C1959.69 147.815 1963.63 132.851 1963.63 116.31H1960.63ZM1949.21 159.646C1941.71 172.521 1931.48 182.702 1918.49 190.206L1919.99 192.804C1933.43 185.041 1944.04 174.486 1951.81 161.156L1949.21 159.646ZM1918.48 190.209C1905.62 197.699 1891.19 201.455 1875.14 201.455V204.455C1891.68 204.455 1906.64 200.578 1919.99 192.801L1918.48 190.209ZM1875.14 182.067C1887.46 182.067 1898.5 179.217 1908.21 173.485L1906.68 170.902C1897.48 176.335 1886.98 179.067 1875.14 179.067V182.067ZM1908.21 173.482C1918.01 167.652 1925.71 159.772 1931.31 149.86L1928.7 148.384C1923.36 157.841 1916.02 165.341 1906.68 170.904L1908.21 173.482ZM1931.3 149.871C1937.03 139.939 1939.88 128.739 1939.88 116.31H1936.88C1936.88 128.262 1934.14 138.937 1928.7 148.373L1931.3 149.871ZM1939.88 116.31C1939.88 103.769 1937.03 92.5116 1931.3 82.577L1928.7 84.0753C1934.14 93.5093 1936.88 104.241 1936.88 116.31H1939.88ZM1931.31 82.5886C1925.71 72.6738 1918 64.8473 1908.2 59.1301L1906.69 61.7214C1916.03 67.1696 1923.36 74.6101 1928.7 84.0638L1931.31 82.5886ZM1908.21 59.1341C1898.5 53.4017 1887.46 50.5518 1875.14 50.5518V53.5518C1886.98 53.5518 1897.48 56.2845 1906.68 61.7175L1908.21 59.1341ZM1875.14 50.5518C1862.94 50.5518 1851.91 53.403 1842.09 59.1301L1843.6 61.7214C1852.92 56.2832 1863.42 53.5518 1875.14 53.5518V50.5518ZM1842.09 59.1301C1832.29 64.8457 1824.53 72.6685 1818.81 82.577L1821.41 84.0753C1826.87 74.6154 1834.26 67.1712 1843.6 61.7214L1842.09 59.1301ZM1818.81 82.577C1813.09 92.5116 1810.24 103.769 1810.24 116.31H1813.24C1813.24 104.241 1815.98 93.5093 1821.41 84.0753L1818.81 82.577ZM1810.24 116.31C1810.24 128.739 1813.09 139.939 1818.81 149.871L1821.41 148.373C1815.97 138.937 1813.24 128.262 1813.24 116.31H1810.24ZM1818.81 149.871C1824.53 159.777 1832.28 167.654 1842.08 173.482L1843.61 170.904C1834.26 165.34 1826.87 157.835 1821.41 148.373L1818.81 149.871ZM1842.09 173.489C1851.91 179.216 1862.94 182.067 1875.14 182.067V179.067C1863.42 179.067 1852.92 176.336 1843.6 170.898L1842.09 173.489Z" fill="#1C1C1E" mask="url(#path-1-outside-1_893_13025)"/>
<mask id="path-3-outside-2_893_13025" maskUnits="userSpaceOnUse" x="6" y="382" width="1953" height="332" fill="black">
<rect fill="white" x="6" y="382" width="1953" height="332"/>
<path d="M18.55 509.95H128.1L118.3 570.15H8.75L18.55 509.95ZM276.538 644H188.338L120.438 383.6H204.438L247.488 562.8L327.638 383.6H411.988L446.988 557.55L534.488 383.6L614.638 383.6L475.688 644H395.188L357.388 469.35L276.538 644ZM699.68 383.6L690.93 437.5L614.63 437.5L623.38 383.6H699.68ZM688.13 455.7L658.38 644H582.08L611.83 455.7L688.13 455.7ZM688.037 644L717.787 455.7H793.387L788.137 487.9C794.437 481.25 824.187 451.5 876.337 451.5H878.787C945.287 451.5 966.987 494.55 960.687 533.75L943.187 644H866.537L881.237 550.9C885.437 523.6 874.587 504 839.587 504C804.937 504 783.237 524.65 778.687 553.35L764.337 644H688.037ZM972.754 644L1002.5 455.7H1078.1L1072.85 487.9C1079.15 481.25 1108.9 451.5 1161.05 451.5H1163.5C1230 451.5 1251.7 494.55 1245.4 533.75L1227.9 644H1151.25L1165.95 550.9C1170.15 523.6 1159.3 504 1124.3 504C1089.65 504 1067.95 524.65 1063.4 553.35L1049.05 644H972.754ZM1375.07 383.6L1366.32 437.5H1290.02L1298.77 383.6H1375.07ZM1363.52 455.7L1333.77 644H1257.47L1287.22 455.7H1363.52ZM1363.43 644L1393.18 455.7L1468.78 455.7L1463.53 487.9C1469.83 481.25 1499.58 451.5 1551.73 451.5H1554.18C1620.68 451.5 1642.38 494.55 1636.08 533.75L1618.58 644H1541.93L1556.63 550.9C1560.83 523.6 1549.98 504 1514.98 504C1480.33 504 1458.63 524.65 1454.08 553.35L1439.73 644H1363.43ZM1792.02 587.65C1840.32 587.65 1863.07 567 1866.57 546C1866.92 543.9 1867.27 541.1 1867.27 538.65C1867.27 517.65 1847.32 500.15 1803.22 500.15H1800.77C1742.67 500.15 1732.17 526.75 1732.17 548.1C1732.17 569.45 1746.87 587.65 1789.57 587.65H1792.02ZM1793.77 712.25H1772.07C1654.12 712.25 1649.57 661.85 1651.32 644H1727.27C1727.97 648.9 1731.12 661.5 1783.97 661.5H1784.67C1839.97 661.5 1853.62 631.4 1857.12 608.3C1850.47 615.65 1825.97 635.6 1768.92 635.6H1766.12C1684.57 635.6 1654.12 596.4 1654.12 551.95C1654.12 545.65 1654.47 539.35 1655.52 532.7C1662.52 488.95 1694.72 451.15 1773.82 451.15H1778.02C1841.37 451.15 1867.27 472.15 1876.72 481.25L1880.92 455.7H1957.22L1933.42 606.9C1926.42 650.65 1907.52 712.25 1793.77 712.25Z"/>
</mask>
<path d="M18.55 509.95V508.45H17.2744L17.0695 509.709L18.55 509.95ZM128.1 509.95L129.581 510.191L129.864 508.45H128.1V509.95ZM118.3 570.15V571.65H119.576L119.781 570.391L118.3 570.15ZM8.75 570.15L7.26949 569.909L6.98607 571.65H8.75V570.15ZM18.55 511.45H128.1V508.45H18.55V511.45ZM126.619 509.709L116.819 569.909L119.781 570.391L129.581 510.191L126.619 509.709ZM118.3 568.65H8.75V571.65H118.3V568.65ZM10.2305 570.391L20.0305 510.191L17.0695 509.709L7.26949 569.909L10.2305 570.391ZM276.538 644V645.5H277.497L277.9 644.63L276.538 644ZM188.338 644L186.887 644.378L187.179 645.5H188.338V644ZM120.438 383.6V382.1H118.497L118.987 383.978L120.438 383.6ZM204.438 383.6L205.897 383.25L205.621 382.1H204.438V383.6ZM247.488 562.8L246.03 563.15L247.059 567.434L248.858 563.412L247.488 562.8ZM327.638 383.6V382.1H326.666L326.269 382.988L327.638 383.6ZM411.988 383.6L413.459 383.304L413.217 382.1H411.988V383.6ZM446.988 557.55L445.518 557.846L446.375 562.107L448.328 558.224L446.988 557.55ZM534.488 383.6V382.1H533.564L533.148 382.926L534.488 383.6ZM614.638 383.6L615.962 384.306L617.139 382.1H614.638V383.6ZM475.688 644V645.5H476.588L477.012 644.706L475.688 644ZM395.188 644L393.722 644.317L393.978 645.5H395.188V644ZM357.388 469.35L358.854 469.033L357.907 464.658L356.027 468.72L357.388 469.35ZM276.538 642.5H188.338V645.5H276.538V642.5ZM189.79 643.622L121.89 383.222L118.987 383.978L186.887 644.378L189.79 643.622ZM120.438 385.1H204.438V382.1H120.438V385.1ZM202.98 383.95L246.03 563.15L248.947 562.45L205.897 383.25L202.98 383.95ZM248.858 563.412L329.008 384.212L326.269 382.988L246.119 562.188L248.858 563.412ZM327.638 385.1H411.988V382.1H327.638V385.1ZM410.518 383.896L445.518 557.846L448.459 557.254L413.459 383.304L410.518 383.896ZM448.328 558.224L535.828 384.274L533.148 382.926L445.648 556.876L448.328 558.224ZM534.488 385.1L614.638 385.1V382.1L534.488 382.1V385.1ZM613.315 382.894L474.365 643.294L477.012 644.706L615.962 384.306L613.315 382.894ZM475.688 642.5H395.188V645.5H475.688V642.5ZM396.654 643.683L358.854 469.033L355.922 469.667L393.722 644.317L396.654 643.683ZM356.027 468.72L275.177 643.37L277.9 644.63L358.75 469.98L356.027 468.72ZM699.68 383.6L701.161 383.84L701.443 382.1H699.68V383.6ZM690.93 437.5V439H692.206L692.411 437.74L690.93 437.5ZM614.63 437.5L613.149 437.26L612.867 439H614.63V437.5ZM623.38 383.6V382.1H622.104L621.899 383.36L623.38 383.6ZM688.13 455.7L689.612 455.934L689.886 454.2H688.13V455.7ZM658.38 644V645.5H659.662L659.862 644.234L658.38 644ZM582.08 644L580.598 643.766L580.324 645.5H582.08V644ZM611.83 455.7V454.2H610.548L610.348 455.466L611.83 455.7ZM698.199 383.36L689.449 437.26L692.411 437.74L701.161 383.84L698.199 383.36ZM690.93 436L614.63 436V439L690.93 439V436ZM616.111 437.74L624.861 383.84L621.899 383.36L613.149 437.26L616.111 437.74ZM623.38 385.1H699.68V382.1H623.38V385.1ZM686.648 455.466L656.898 643.766L659.862 644.234L689.612 455.934L686.648 455.466ZM658.38 642.5H582.08V645.5H658.38V642.5ZM583.562 644.234L613.312 455.934L610.348 455.466L580.598 643.766L583.562 644.234ZM611.83 457.2L688.13 457.2V454.2L611.83 454.2V457.2ZM688.037 644L686.555 643.766L686.282 645.5H688.037V644ZM717.787 455.7V454.2H716.505L716.305 455.466L717.787 455.7ZM793.387 455.7L794.868 455.941L795.151 454.2H793.387V455.7ZM788.137 487.9L786.657 487.659L785.872 492.472L789.226 488.932L788.137 487.9ZM960.687 533.75L959.206 533.512L959.206 533.515L960.687 533.75ZM943.187 644V645.5H944.468L944.669 644.235L943.187 644ZM866.537 644L865.055 643.766L864.782 645.5H866.537V644ZM881.237 550.9L882.719 551.134L882.72 551.128L881.237 550.9ZM778.687 553.35L777.206 553.115L777.206 553.115L778.687 553.35ZM764.337 644V645.5H765.618L765.819 644.235L764.337 644ZM689.519 644.234L719.269 455.934L716.305 455.466L686.555 643.766L689.519 644.234ZM717.787 457.2H793.387V454.2H717.787V457.2ZM791.907 455.459L786.657 487.659L789.618 488.141L794.868 455.941L791.907 455.459ZM789.226 488.932C795.419 482.395 824.799 453 876.337 453V450C823.575 450 793.456 480.105 787.048 486.868L789.226 488.932ZM876.337 453H878.787V450H876.337V453ZM878.787 453C911.705 453 933.282 463.643 945.881 478.881C958.502 494.145 962.302 514.246 959.206 533.512L962.168 533.988C965.372 514.054 961.472 493.03 948.193 476.969C934.892 460.882 912.37 450 878.787 450V453ZM959.206 533.515L941.706 643.765L944.669 644.235L962.169 533.985L959.206 533.515ZM943.187 642.5H866.537V645.5H943.187V642.5ZM868.019 644.234L882.719 551.134L879.755 550.666L865.055 643.766L868.019 644.234ZM882.72 551.128C884.851 537.275 883.217 525.058 876.289 516.283C869.338 507.478 857.345 502.5 839.587 502.5V505.5C856.829 505.5 867.762 510.322 873.935 518.142C880.133 525.992 881.823 537.225 879.755 550.672L882.72 551.128ZM839.587 502.5C821.956 502.5 807.511 507.759 796.88 516.768C786.251 525.775 779.53 538.451 777.206 553.115L780.169 553.585C782.394 539.549 788.798 527.55 798.819 519.057C808.838 510.566 822.568 505.5 839.587 505.5V502.5ZM777.206 553.115L762.856 643.765L765.819 644.235L780.169 553.585L777.206 553.115ZM764.337 642.5H688.037V645.5H764.337V642.5ZM972.754 644L971.272 643.766L970.998 645.5H972.754V644ZM1002.5 455.7V454.2H1001.22L1001.02 455.466L1002.5 455.7ZM1078.1 455.7L1079.58 455.941L1079.87 454.2H1078.1V455.7ZM1072.85 487.9L1071.37 487.659L1070.59 492.472L1073.94 488.932L1072.85 487.9ZM1245.4 533.75L1243.92 533.512L1243.92 533.515L1245.4 533.75ZM1227.9 644V645.5H1229.18L1229.39 644.235L1227.9 644ZM1151.25 644L1149.77 643.766L1149.5 645.5H1151.25V644ZM1165.95 550.9L1167.44 551.134L1167.44 551.128L1165.95 550.9ZM1063.4 553.35L1061.92 553.115L1061.92 553.115L1063.4 553.35ZM1049.05 644V645.5H1050.34L1050.54 644.235L1049.05 644ZM974.236 644.234L1003.99 455.934L1001.02 455.466L971.272 643.766L974.236 644.234ZM1002.5 457.2H1078.1V454.2H1002.5V457.2ZM1076.62 455.459L1071.37 487.659L1074.33 488.141L1079.58 455.941L1076.62 455.459ZM1073.94 488.932C1080.14 482.395 1109.52 453 1161.05 453V450C1108.29 450 1078.17 480.105 1071.76 486.868L1073.94 488.932ZM1161.05 453H1163.5V450H1161.05V453ZM1163.5 453C1196.42 453 1218 463.643 1230.6 478.881C1243.22 494.145 1247.02 514.246 1243.92 533.512L1246.88 533.988C1250.09 514.054 1246.19 493.03 1232.91 476.969C1219.61 460.882 1197.09 450 1163.5 450V453ZM1243.92 533.515L1226.42 643.765L1229.39 644.235L1246.89 533.985L1243.92 533.515ZM1227.9 642.5H1151.25V645.5H1227.9V642.5ZM1152.74 644.234L1167.44 551.134L1164.47 550.666L1149.77 643.766L1152.74 644.234ZM1167.44 551.128C1169.57 537.275 1167.93 525.058 1161.01 516.283C1154.05 507.478 1142.06 502.5 1124.3 502.5V505.5C1141.55 505.5 1152.48 510.322 1158.65 518.142C1164.85 525.992 1166.54 537.225 1164.47 550.672L1167.44 551.128ZM1124.3 502.5C1106.67 502.5 1092.23 507.759 1081.6 516.768C1070.97 525.775 1064.25 538.451 1061.92 553.115L1064.89 553.585C1067.11 539.549 1073.51 527.55 1083.54 519.057C1093.56 510.566 1107.29 505.5 1124.3 505.5V502.5ZM1061.92 553.115L1047.57 643.765L1050.54 644.235L1064.89 553.585L1061.92 553.115ZM1049.05 642.5H972.754V645.5H1049.05V642.5ZM1375.07 383.6L1376.55 383.84L1376.83 382.1H1375.07V383.6ZM1366.32 437.5V439H1367.6L1367.8 437.74L1366.32 437.5ZM1290.02 437.5L1288.54 437.26L1288.26 439H1290.02V437.5ZM1298.77 383.6V382.1H1297.49L1297.29 383.36L1298.77 383.6ZM1363.52 455.7L1365 455.934L1365.28 454.2H1363.52V455.7ZM1333.77 644V645.5H1335.05L1335.25 644.234L1333.77 644ZM1257.47 644L1255.99 643.766L1255.72 645.5H1257.47V644ZM1287.22 455.7V454.2H1285.94L1285.74 455.466L1287.22 455.7ZM1373.59 383.36L1364.84 437.26L1367.8 437.74L1376.55 383.84L1373.59 383.36ZM1366.32 436H1290.02V439H1366.32V436ZM1291.5 437.74L1300.25 383.84L1297.29 383.36L1288.54 437.26L1291.5 437.74ZM1298.77 385.1H1375.07V382.1H1298.77V385.1ZM1362.04 455.466L1332.29 643.766L1335.25 644.234L1365 455.934L1362.04 455.466ZM1333.77 642.5H1257.47V645.5H1333.77V642.5ZM1258.95 644.234L1288.7 455.934L1285.74 455.466L1255.99 643.766L1258.95 644.234ZM1287.22 457.2H1363.52V454.2H1287.22V457.2ZM1363.43 644L1361.95 643.766L1361.67 645.5H1363.43V644ZM1393.18 455.7V454.2H1391.9L1391.7 455.466L1393.18 455.7ZM1468.78 455.7L1470.26 455.941L1470.54 454.2H1468.78V455.7ZM1463.53 487.9L1462.05 487.659L1461.26 492.472L1464.62 488.932L1463.53 487.9ZM1636.08 533.75L1634.6 533.512L1634.6 533.515L1636.08 533.75ZM1618.58 644V645.5H1619.86L1620.06 644.235L1618.58 644ZM1541.93 644L1540.45 643.766L1540.17 645.5H1541.93V644ZM1556.63 550.9L1558.11 551.134L1558.11 551.128L1556.63 550.9ZM1454.08 553.35L1452.6 553.115L1452.6 553.115L1454.08 553.35ZM1439.73 644V645.5H1441.01L1441.21 644.235L1439.73 644ZM1364.91 644.234L1394.66 455.934L1391.7 455.466L1361.95 643.766L1364.91 644.234ZM1393.18 457.2L1468.78 457.2V454.2L1393.18 454.2V457.2ZM1467.3 455.459L1462.05 487.659L1465.01 488.141L1470.26 455.941L1467.3 455.459ZM1464.62 488.932C1470.81 482.395 1500.19 453 1551.73 453V450C1498.97 450 1468.85 480.105 1462.44 486.868L1464.62 488.932ZM1551.73 453H1554.18V450H1551.73V453ZM1554.18 453C1587.1 453 1608.67 463.643 1621.27 478.881C1633.89 494.145 1637.69 514.246 1634.6 533.512L1637.56 533.988C1640.76 514.054 1636.86 493.03 1623.58 476.969C1610.28 460.882 1587.76 450 1554.18 450V453ZM1634.6 533.515L1617.1 643.765L1620.06 644.235L1637.56 533.985L1634.6 533.515ZM1618.58 642.5H1541.93V645.5H1618.58V642.5ZM1543.41 644.234L1558.11 551.134L1555.15 550.666L1540.45 643.766L1543.41 644.234ZM1558.11 551.128C1560.24 537.275 1558.61 525.058 1551.68 516.283C1544.73 507.478 1532.74 502.5 1514.98 502.5V505.5C1532.22 505.5 1543.15 510.322 1549.33 518.142C1555.52 525.992 1557.21 537.225 1555.15 550.672L1558.11 551.128ZM1514.98 502.5C1497.35 502.5 1482.9 507.759 1472.27 516.768C1461.64 525.775 1454.92 538.451 1452.6 553.115L1455.56 553.585C1457.78 539.549 1464.19 527.55 1474.21 519.057C1484.23 510.566 1497.96 505.5 1514.98 505.5V502.5ZM1452.6 553.115L1438.25 643.765L1441.21 644.235L1455.56 553.585L1452.6 553.115ZM1439.73 642.5H1363.43V645.5H1439.73V642.5ZM1866.57 546L1868.05 546.247L1868.05 546.247L1866.57 546ZM1651.32 644V642.5H1649.96L1649.83 643.854L1651.32 644ZM1727.27 644L1728.75 643.788L1728.57 642.5H1727.27V644ZM1857.12 608.3L1858.6 608.525L1859.35 603.6L1856.01 607.294L1857.12 608.3ZM1655.52 532.7L1654.04 532.463L1654.04 532.466L1655.52 532.7ZM1876.72 481.25L1875.68 482.33L1877.74 484.312L1878.2 481.493L1876.72 481.25ZM1880.92 455.7V454.2H1879.65L1879.44 455.457L1880.92 455.7ZM1957.22 455.7L1958.7 455.933L1958.97 454.2H1957.22V455.7ZM1933.42 606.9L1934.9 607.137L1934.9 607.133L1933.42 606.9ZM1792.02 589.15C1840.68 589.15 1864.38 568.286 1868.05 546.247L1865.09 545.753C1861.76 565.714 1839.96 586.15 1792.02 586.15V589.15ZM1868.05 546.247C1868.4 544.111 1868.77 541.219 1868.77 538.65H1865.77C1865.77 540.981 1865.43 543.689 1865.09 545.753L1868.05 546.247ZM1868.77 538.65C1868.77 527.611 1863.5 517.533 1852.61 510.277C1841.78 503.055 1825.44 498.65 1803.22 498.65V501.65C1825.1 501.65 1840.78 505.995 1850.95 512.773C1861.06 519.516 1865.77 528.689 1865.77 538.65H1868.77ZM1803.22 498.65H1800.77V501.65H1803.22V498.65ZM1800.77 498.65C1771.52 498.65 1753.93 505.342 1743.65 515.027C1733.35 524.733 1730.67 537.192 1730.67 548.1H1733.67C1733.67 537.658 1736.23 526.142 1745.71 517.21C1755.21 508.258 1771.92 501.65 1800.77 501.65V498.65ZM1730.67 548.1C1730.67 559.143 1734.49 569.498 1743.92 577.052C1753.3 584.565 1768.04 589.15 1789.57 589.15V586.15C1768.4 586.15 1754.44 581.635 1745.79 574.71C1737.2 567.827 1733.67 558.407 1733.67 548.1H1730.67ZM1789.57 589.15H1792.02V586.15H1789.57V589.15ZM1793.77 710.75H1772.07V713.75H1793.77V710.75ZM1772.07 710.75C1713.26 710.75 1683.09 698.176 1667.84 683.73C1652.64 669.335 1651.96 652.814 1652.81 644.146L1649.83 643.854C1648.93 653.036 1649.65 670.64 1665.78 685.908C1681.84 701.124 1712.93 713.75 1772.07 713.75V710.75ZM1651.32 645.5H1727.27V642.5H1651.32V645.5ZM1725.78 644.212C1725.97 645.529 1726.34 647.485 1727.74 649.621C1729.13 651.753 1731.46 653.951 1735.39 655.928C1743.19 659.851 1757.48 663 1783.97 663V660C1757.61 660 1743.9 656.849 1736.74 653.247C1733.19 651.462 1731.3 649.591 1730.25 647.982C1729.2 646.377 1728.92 644.921 1728.75 643.788L1725.78 644.212ZM1783.97 663H1784.67V660H1783.97V663ZM1784.67 663C1812.6 663 1830.25 655.392 1841.36 644.641C1852.45 633.912 1856.83 620.247 1858.6 608.525L1855.64 608.075C1853.91 619.453 1849.71 632.388 1839.28 642.484C1828.86 652.558 1812.04 660 1784.67 660V663ZM1856.01 607.294C1849.67 614.297 1825.59 634.1 1768.92 634.1V637.1C1826.35 637.1 1851.27 617.003 1858.23 609.306L1856.01 607.294ZM1768.92 634.1H1766.12V637.1H1768.92V634.1ZM1766.12 634.1C1725.57 634.1 1697.96 624.353 1680.52 609.308C1663.1 594.285 1655.62 573.819 1655.62 551.95H1652.62C1652.62 574.531 1660.36 595.89 1678.56 611.58C1696.73 627.247 1725.12 637.1 1766.12 637.1V634.1ZM1655.62 551.95C1655.62 545.707 1655.97 539.488 1657 532.934L1654.04 532.466C1652.97 539.212 1652.62 545.593 1652.62 551.95H1655.62ZM1657 532.937C1660.45 511.357 1670.1 491.336 1688.56 476.694C1707.04 462.043 1734.5 452.65 1773.82 452.65V449.65C1734.04 449.65 1705.85 459.157 1686.7 474.343C1667.54 489.539 1657.59 510.293 1654.04 532.463L1657 532.937ZM1773.82 452.65H1778.02V449.65H1773.82V452.65ZM1778.02 452.65C1840.97 452.65 1866.5 473.491 1875.68 482.33L1877.76 480.17C1868.04 470.809 1841.77 449.65 1778.02 449.65V452.65ZM1878.2 481.493L1882.4 455.943L1879.44 455.457L1875.24 481.007L1878.2 481.493ZM1880.92 457.2H1957.22V454.2H1880.92V457.2ZM1955.74 455.467L1931.94 606.667L1934.9 607.133L1958.7 455.933L1955.74 455.467ZM1931.94 606.663C1928.45 628.468 1922.03 654.422 1902.54 674.948C1883.08 695.432 1850.37 710.75 1793.77 710.75V713.75C1850.92 713.75 1884.53 698.268 1904.71 677.014C1924.86 655.803 1931.39 629.082 1934.9 607.137L1931.94 606.663Z" fill="#1C1C1E" mask="url(#path-3-outside-2_893_13025)"/>
</svg>
