<svg width="477" height="78" viewBox="0 0 477 78" fill="none" xmlns="http://www.w3.org/2000/svg">
<path fill-rule="evenodd" clip-rule="evenodd" d="M460.581 64.4212C460.389 63.1547 460.134 61.6876 459.835 60.3362C459.618 59.3352 459.374 58.4002 459.118 57.6478C458.828 58.1746 458.422 58.8323 457.881 59.5542C455.389 62.868 450.007 67.5772 439.567 67.5778L438.375 67.557C417.623 67.6103 410.14 53.5686 408.682 42.5738C408.45 40.8246 408.308 39.293 408.276 37.3313C408.073 26.7407 411.379 11.2585 435.738 10.138L437.589 10.054C460.133 9.01812 466.859 20.3376 468.357 28.1918C468.366 28.2585 468.375 28.3251 468.383 28.3917C468.51 29.0754 468.598 29.7417 468.644 30.3575L453.781 30.7961C453.422 29.4436 451.62 22.8305 438.073 23.3087C425.098 23.7637 421.956 31.055 422.129 38.0717C422.157 39.1858 422.194 39.9177 422.331 40.9505C423.278 48.0972 428.079 54.2307 438.911 54.104C448.195 54.0001 452.766 50.5066 454.536 47.9115C455.139 47.0245 455.421 46.2483 455.451 45.7502L438.145 46.0631L438.07 35.5245L469.22 34.7054L469.309 66.5513L460.866 66.5701C460.8 65.9873 460.715 65.2545 460.581 64.4212ZM451.732 47.9623L436.448 48.2107L436.341 33.4501L471.029 32.4933L471.123 68.727L459.339 68.7373L459.103 66.5061C458.998 65.4406 458.743 63.7908 458.443 62.1567C455.431 65.6276 449.772 69.7005 439.848 69.6935L438.656 69.6727C427.893 69.6843 420.359 66.0459 415.286 60.6721C410.255 55.3489 407.837 48.5257 407.053 42.6118C406.813 40.796 406.657 39.1645 406.619 37.0697C406.518 31.5002 407.318 24.4838 411.419 18.7217C415.551 12.9102 422.875 8.61707 435.446 8.02211L437.297 7.93808C449.784 7.34165 457.902 10.4916 463.055 15.202C468.28 19.9967 470.083 26.0779 470.447 30.4554L470.622 32.5028L452.596 33.0025L452.103 31.1823C451.983 30.7315 451.626 29.3956 450.039 28.1214C448.319 26.7451 444.91 25.223 438.357 25.4577C432.066 25.6637 428.444 27.5284 426.393 29.9025C424.382 32.2275 423.726 35.2575 423.812 38.3504C423.845 39.4147 423.881 40.0469 424 40.9464C424.406 44.0117 425.602 46.6918 427.759 48.6407C429.97 50.6405 433.441 52.0806 438.647 52.0219C444.631 51.9435 448.463 50.3982 450.768 48.7598C451.13 48.5002 451.456 48.24 451.734 47.9789L451.732 47.9623Z" fill="#F8F8F8"/>
<path fill-rule="evenodd" clip-rule="evenodd" d="M351.743 12.8935L367.122 12.1814L390.21 42.7169L389.854 11.1156L405.686 10.3781L406.189 68.7405L391.582 68.7515L366.888 36.1603L367.316 68.76L352.517 68.7677L351.745 12.9102L351.743 12.8935ZM365.286 31.4122L392.055 66.6988L404.533 66.6673L404.059 12.5103L391.459 13.0716L391.852 47.582L366.645 14.2007L353.269 14.7983L353.982 66.7655L365.751 66.7383L365.271 31.3953L365.286 31.4122Z" fill="#F8F8F8"/>
<path fill-rule="evenodd" clip-rule="evenodd" d="M349.275 13.0164L350.055 68.7577L335.521 68.7699L334.662 13.7087L349.265 13.0329L349.275 13.0164ZM347.805 15.0683L336.162 15.5963L336.944 66.8169L348.545 66.7867L347.805 15.0683Z" fill="#F8F8F8"/>
<path fill-rule="evenodd" clip-rule="evenodd" d="M284.325 16.0542L298.019 15.4124L318.767 44.245L318.221 14.4686L332.274 13.8164L333.143 68.7781L320.182 68.7845L297.99 38.032L298.606 68.7902L285.416 68.7926L284.337 16.0544L284.325 16.0542ZM296.519 33.5521L320.586 66.847L331.659 66.8242L330.848 15.8358L319.67 16.3388L320.266 48.8417L297.613 17.3332L285.707 17.8733L286.706 66.9204L297.203 66.9042L296.531 33.5523L296.519 33.5521Z" fill="#F8F8F8"/>
<path fill-rule="evenodd" clip-rule="evenodd" d="M238.055 18.2054L250.65 17.6108L269.873 45.27L269.215 16.7382L282.109 16.1323L283.2 68.771L271.295 68.7792L250.736 39.2851L251.462 68.7821L239.329 68.7863L238.067 18.2056L238.055 18.2054ZM249.364 35.0064L271.652 66.9406L281.825 66.9187L280.807 18.0874L270.549 18.5565L271.265 49.6987L250.283 19.4659L239.332 19.9562L240.499 67.0118L250.156 66.9975L249.366 35.023L249.364 35.0064Z" fill="#F8F8F8"/>
<path fill-rule="evenodd" clip-rule="evenodd" d="M236.037 18.3029L237.312 68.8008L225.359 68.8083L224.039 18.8747L236.039 18.3196L236.037 18.3029ZM234.853 20.1604L225.288 20.5917L226.506 67.0333L236.042 67.0169L234.853 20.1604Z" fill="#F8F8F8"/>
<path fill-rule="evenodd" clip-rule="evenodd" d="M191.894 68.8221L180.626 68.8249L166.457 21.5589L177.75 21.0248L185.512 47.9521L189.774 20.4701L200.938 19.9503L208.035 46.6666L213.427 19.3706L225.582 18.8016L214.527 68.8183L203.644 68.8278L196.35 42.2577L191.894 68.8221ZM190.959 67.1106L181.242 67.1238L168.051 23.1657L177.115 22.7588L185.897 53.2108L190.718 22.1486L200.235 21.7164L208.268 51.9559L214.375 21.0824L223.832 20.6491L213.597 67.057L204.325 67.0779L196.018 36.8503L190.959 67.1106Z" fill="#F8F8F8"/>
<path fill-rule="evenodd" clip-rule="evenodd" d="M160.053 44.7657L160.356 54.8428L171.987 54.6802L171.693 44.4869L160.053 44.7657ZM158.948 43.1342L172.74 42.7766L173.133 56.3456L159.365 56.5208L158.96 43.1344L158.948 43.1342Z" fill="#F8F8F8"/>
<path fill-rule="evenodd" clip-rule="evenodd" d="M148.415 38.9119L150.18 43.3471L152.705 43.2748L150.67 38.5192C150.999 38.3753 151.293 38.1478 151.53 37.8528C151.758 37.5742 151.942 37.245 152.094 36.8488C152.417 36.0234 152.496 35.0774 152.355 34.0113C152.207 32.8951 151.832 31.9745 151.217 31.2324C150.612 30.474 149.928 30.113 149.176 30.1497L145.053 30.3104L145.077 43.4575L147.219 43.3951L147.227 38.9244L148.389 38.8949L148.415 38.9119ZM145.25 45.1225C144.822 44.6164 144.436 44.0612 144.078 43.44C143.92 43.1547 143.762 42.8694 143.614 42.5677C142.84 40.9919 142.315 39.2043 142.05 37.2053C141.785 35.2062 141.829 33.3622 142.181 31.7561C142.53 30.1335 143.141 28.8477 144 27.8988C144.857 26.9331 145.897 26.436 147.126 26.3744C148.355 26.3127 149.54 26.7323 150.63 27.6156C151.744 28.4993 152.69 29.7457 153.476 31.3217C154.276 32.9146 154.805 34.7355 155.077 36.7845C155.348 38.8335 155.3 40.6443 154.926 42.2665C154.771 42.9951 154.558 43.6562 154.288 44.2498C154.187 44.4807 154.071 44.6948 153.955 44.9088C153.704 45.3698 153.41 45.7802 153.085 46.1401C152.226 47.0891 151.172 47.5693 149.939 47.5977C148.705 47.626 147.542 47.1902 146.438 46.29C146.02 45.9503 145.63 45.5447 145.26 45.1061L145.25 45.1225ZM147.259 33.0913L148.838 33.0357C149.173 33.025 149.453 33.1462 149.667 33.3992C149.89 33.6358 150.031 33.9707 150.088 34.4038C150.159 34.9369 150.086 35.3844 149.858 35.746C149.639 36.0912 149.326 36.2686 148.909 36.2946L147.258 36.3488L147.271 33.0915L147.259 33.0913ZM145.312 50.9407C143.64 49.5653 142.215 47.6955 141.025 45.3313C139.842 42.934 139.053 40.2443 138.664 37.3124C138.276 34.3805 138.345 31.6393 138.885 29.189C139.44 26.7555 140.359 24.8103 141.653 23.3371C142.97 21.8476 144.562 21.0776 146.401 20.9934C148.239 20.9092 150.027 21.5221 151.744 22.8817C153.46 24.2246 154.921 26.095 156.14 28.4929L155.356 29.3767L156.143 28.5096C157.378 30.9411 158.197 33.6811 158.597 36.6963C158.997 39.7116 158.904 42.4523 158.32 44.9351C157.755 47.3851 156.79 49.346 155.443 50.7851C154.098 52.2408 152.488 52.9606 150.642 52.9949C148.796 53.0292 147.013 52.3498 145.316 50.974L145.312 50.9407Z" fill="#F8F8F8"/>
<path fill-rule="evenodd" clip-rule="evenodd" d="M118.015 68.8457L117.388 51.5164L103.737 26.9295L103.707 26.0648L103.278 26.0905L102.424 24.5466L113.694 24.012L121.469 38.2583L128.391 23.3212L140.461 22.7507L127.105 51.6861L127.706 68.8154L118.022 68.8126L118.015 68.8457ZM126.073 50.97L138.27 24.524L129.003 24.944L121.648 40.7877L113.395 25.6522L104.415 26.0605L118.358 51.1345L118.947 67.2664L126.669 67.2516L126.099 50.9871L126.073 50.97Z" fill="#F8F8F8"/>
<path fill-rule="evenodd" clip-rule="evenodd" d="M68.8703 68.8689L67.0842 26.2068L78.1636 25.6856L86.5131 48.8005L92.7785 25.0099L104.598 24.4517L104.663 26.0318L104.422 26.0276L104.691 26.5142L106.3 68.8408L97.1711 68.8477L96.2737 45.5803L89.9159 68.854L85.014 68.8515L76.4134 45.3832L77.3614 68.8509L68.8922 68.8527L68.8703 68.8689ZM75.2676 39.729L85.3889 67.329L89.2092 67.3292L96.921 39.0432L98.0134 67.3167L105.269 67.3104L103.701 26.1147L93.4556 26.584L86.7139 52.128L77.7516 27.2905L68.0196 27.7356L69.6732 67.4037L76.3866 67.3879L75.2599 39.7621L75.2676 39.729Z" fill="#F8F8F8"/>
<path fill-rule="evenodd" clip-rule="evenodd" d="M32.9138 68.8732L31.0617 27.8886L41.2829 27.4188L49.0896 49.6101L54.7386 26.7894L65.6276 26.2815L67.4169 68.8771L59.0078 68.8799L58.0655 46.5425L52.3283 68.8797L47.8119 68.8839L39.7541 46.3392L40.7492 68.8936L32.928 68.89L32.9138 68.8732ZM38.6686 40.8688L48.155 67.3941L51.6743 67.389L58.6353 40.2367L59.7801 67.3643L66.4694 67.3481L64.8094 27.8129L55.3762 28.2465L49.3022 52.7551L40.9135 28.8916L31.9335 29.2999L33.6565 67.4069L39.8543 67.3988L38.6807 40.869L38.6686 40.8688Z" fill="#F8F8F8"/>
<path fill-rule="evenodd" clip-rule="evenodd" d="M7.54288 28.9902L29.9184 27.9514L30.4316 39.528L15.6239 40.0175L15.7505 42.6956L30.2278 42.2502L30.7553 53.8437L16.2877 54.0898L16.4336 57.3665L31.4716 57.1636L32.0145 68.8738L9.42989 68.8784L7.53084 28.99L7.54288 28.9902ZM15.7226 58.8001L15.452 52.6791L29.8911 52.3993L29.4971 43.7167L15.0516 44.1293L14.7761 38.6066L29.5554 38.0834L29.1658 29.4341L8.36213 30.3673L10.1311 67.4613L31.1481 67.4127L30.7365 58.5968L15.7204 58.7834L15.7226 58.8001Z" fill="#F8F8F8"/>
</svg>
