<svg width="1022" height="258" viewBox="0 0 1022 258" fill="none" xmlns="http://www.w3.org/2000/svg">
<path fill-rule="evenodd" clip-rule="evenodd" d="M761.855 253H679.094L718.44 4.91992H801.205L786.547 97.3558L909.196 4.91992H1021.65L863.023 122.883L986.85 253H880.57L778.857 146.43L761.855 253ZM757.589 248H684.949L722.709 9.91992H795.349L779.669 108.8L910.869 9.91992H1006.55L855.509 122.24L975.189 248H882.709L775.509 135.68L757.589 248Z" fill="#F8F8F8"/>
<path fill-rule="evenodd" clip-rule="evenodd" d="M379.354 155.96H464.959L465.208 160.697C465.213 160.799 465.219 160.907 465.224 161.02C465.378 164.111 465.729 171.187 472.256 177.81C479.087 184.741 493.672 192.12 525.175 192.12C557.25 192.12 574.281 187.878 583.145 182.95C587.478 180.541 589.723 178.043 590.927 175.903C592.135 173.757 592.495 171.615 592.495 169.6C592.495 165.104 591.522 162.682 589.028 160.936C585.966 158.793 579.718 157 567.095 157H479.301L489.879 91.6398H572.855C586.209 91.6398 593.007 89.2777 596.38 86.8066C599.398 84.5948 600.175 81.915 600.175 79.0398C600.175 77.4238 599.924 76.2601 599.226 75.205C598.501 74.1108 596.904 72.5522 593.104 70.9801C585.285 67.7461 569.91 65.1598 540.215 65.1598C509.823 65.1598 494.322 70.611 486.325 75.9888C482.368 78.6497 480.16 81.3489 478.84 83.5346C477.75 85.34 477.246 86.7755 476.781 88.1002C476.66 88.4445 476.542 88.7814 476.416 89.1154L475.2 92.3598H390.017L390.96 86.5578C393.086 73.4728 397.475 51.6315 417.823 33.2495C438.127 14.9078 473.457 0.759766 535.735 0.759766H549.175C606.513 0.759766 641.202 8.1102 661.689 19.7747C672.046 25.6715 678.865 32.7228 683.047 40.5223C687.213 48.2944 688.575 56.4627 688.575 64.3198C688.575 81.0943 680.829 93.2958 671.074 101.505C665.76 105.978 659.822 109.3 654.122 111.614C658.502 114.367 662.947 117.931 666.919 122.532C674.804 131.664 680.575 144.592 680.575 162.56C680.575 183.592 674.3 207.62 651.54 226.231C628.984 244.674 590.992 257.16 529.015 257.16H514.295C450.189 257.16 414.995 240.81 396.431 219.833C377.885 198.878 376.909 174.406 378.778 160.303L379.354 155.96ZM647.906 113.785C645.269 112.378 642.711 111.269 640.375 110.4C642.804 110.003 645.518 109.345 648.369 108.405C663.922 103.276 683.575 89.7393 683.575 64.3198C683.575 35.1998 663.415 5.75977 549.175 5.75977H535.735C420.044 5.75977 401.987 55.1416 396.771 82.3598C396.433 84.1263 396.148 85.7995 395.895 87.3598H471.735C471.821 87.1305 471.913 86.8673 472.015 86.5735C474.199 80.3069 481.22 60.1598 540.215 60.1598C599.735 60.1598 605.175 70.3998 605.175 79.0398C605.175 87.0398 600.375 96.6398 572.855 96.6398H494.135L485.175 152H567.095C592.695 152 597.495 159.04 597.495 169.6C597.495 180.16 589.815 197.12 525.175 197.12C461.994 197.12 460.566 168.096 460.232 161.305C460.226 161.183 460.221 161.067 460.215 160.96H383.735C380.215 187.52 387.575 252.16 514.295 252.16H529.015C651.895 252.16 675.575 202.56 675.575 162.56C675.575 134.665 660.798 120.665 647.906 113.785Z" fill="#F8F8F8"/>
<path fill-rule="evenodd" clip-rule="evenodd" d="M368.945 192H293.425L284.465 248H359.985L368.945 192ZM374.809 187L364.249 253H278.602L289.162 187H374.809Z" fill="#F8F8F8"/>
<path fill-rule="evenodd" clip-rule="evenodd" d="M1.40612 168.44H86.7682L87.4312 172.749C87.5779 173.705 87.7811 175.029 88.5963 176.67C89.4216 178.331 90.9873 180.523 94.1545 182.75C100.61 187.289 113.953 192.12 141.359 192.12C169.711 192.12 184.567 186.892 192.256 181.057C199.632 175.459 200.999 168.836 200.999 163.84C200.999 159.326 199.755 154.386 193.515 150.247C186.792 145.787 173.839 141.96 149.359 141.96C96.713 141.96 89.0557 157.992 88.9677 158.191L87.648 161.16H7.49651L32.4539 4.91992H296.033L285.454 70.2799H103.423L99.3655 97.262C111.986 90.1569 136.112 80.7599 174.319 80.7599H177.199C220.859 80.7599 248.757 89.0557 265.761 103.24C282.999 117.619 288.119 137.245 288.119 157.44C288.119 163.536 287.445 170.584 286.102 177.301L286.099 177.313L286.096 177.326C283.569 189.624 277.189 209.816 256.629 226.85C236.1 243.859 202.113 257.16 145.519 257.16H131.119C71.1339 257.16 37.2705 243.434 18.9411 225.493C0.502865 207.445 -1.36423 185.985 0.73977 172.66L1.40612 168.44ZM98.4034 103.66C95.4352 105.547 93.568 107.061 92.7186 107.84L99.1186 65.2799H281.199L290.159 9.91992H36.7186L13.3586 156.16H84.3986C85.6786 153.28 95.9186 136.96 149.359 136.96C198.959 136.96 205.999 152.32 205.999 163.84C205.999 176 198.959 197.12 141.359 197.12C86.103 197.12 83.1607 177.896 82.4936 173.538L82.4786 173.44H5.67859C1.83859 197.76 12.3986 252.16 131.119 252.16H145.519C257.199 252.16 276.399 199.68 281.199 176.32C282.479 169.92 283.119 163.2 283.119 157.44C283.119 118.72 263.599 85.7599 177.199 85.7599H174.319C132.949 85.7599 108.853 97.0169 98.4034 103.66Z" fill="#F8F8F8"/>
</svg>
