<svg width="489" height="91" viewBox="0 0 489 91" fill="none" xmlns="http://www.w3.org/2000/svg">
<path d="M431.841 79.0143C431.974 78.9476 432.041 78.8809 432.041 78.8143C432.041 78.6809 431.841 78.5143 431.441 78.3143L430.141 78.2143C429.541 78.2809 429.241 78.3476 429.241 78.4143C429.241 78.4809 429.374 78.5809 429.641 78.7143C429.974 78.8476 430.307 78.9143 430.641 78.9143C430.974 78.9809 431.207 79.0143 431.341 79.0143H431.841ZM430.341 74.9143C430.807 74.9143 432.007 74.5476 433.941 73.8143C435.607 73.2809 436.874 72.7143 437.741 72.1143L437.841 71.8143L437.341 72.0143C433.474 73.4143 431.241 74.1143 430.641 74.1143C430.107 74.1143 429.841 74.2809 429.841 74.6143C429.841 74.8143 430.007 74.9143 430.341 74.9143ZM438.541 71.8143C438.874 71.8143 439.241 71.6143 439.641 71.2143L440.341 70.7143L439.541 71.1143C438.674 71.3809 438.241 71.5809 438.241 71.7143C438.241 71.7809 438.341 71.8143 438.541 71.8143ZM441.041 70.6143C441.374 70.6143 441.741 70.3476 442.141 69.8143L442.741 69.5143L441.941 69.8143C441.141 70.1476 440.741 70.3809 440.741 70.5143C440.741 70.5809 440.841 70.6143 441.041 70.6143ZM473.941 32.0143C474.407 32.0143 474.641 31.9476 474.641 31.8143L474.541 31.7143H473.441V31.8143C473.441 31.9476 473.607 32.0143 473.941 32.0143ZM460.841 83.4143H460.741V83.2143C460.674 83.1476 460.441 82.9809 460.041 82.7143C459.707 82.4476 459.274 82.1476 458.741 81.8143C458.207 81.4809 457.707 81.1143 457.241 80.7143C456.841 80.3143 456.574 79.9809 456.441 79.7143C456.307 79.4476 456.241 78.9143 456.241 78.1143C456.241 77.5143 456.274 76.4809 456.341 75.0143C456.474 73.6143 456.907 71.0143 457.641 67.2143C456.241 68.4809 452.407 70.7476 446.141 74.0143C439.074 77.8809 434.107 79.8143 431.241 79.8143C430.307 79.8143 429.541 79.6143 428.941 79.2143L425.541 76.9143C422.941 75.3809 421.641 73.3143 421.641 70.7143C421.641 65.3809 425.407 57.3476 432.941 46.6143C439.941 36.0143 448.041 25.9143 457.241 16.3143C459.441 14.0476 461.774 11.8476 464.241 9.71426C466.774 7.51426 469.041 5.71426 471.041 4.31426C473.041 2.84759 474.407 2.11426 475.141 2.11426C475.341 2.11426 475.441 2.14759 475.441 2.21426L473.941 2.91426L475.041 4.21426C475.841 5.14759 476.474 5.61426 476.941 5.61426C477.407 5.61426 477.807 5.88093 478.141 6.41426C478.474 6.88093 478.641 7.24759 478.641 7.51426C478.641 7.71426 478.441 7.98093 478.041 8.31426C477.707 8.58093 477.474 8.71426 477.341 8.71426C477.274 8.71426 477.241 8.64759 477.241 8.51426C477.241 8.38093 477.174 8.31426 477.041 8.31426C476.374 8.31426 473.374 11.0143 468.041 16.4143C456.907 27.3476 446.641 40.2809 437.241 55.2143C435.374 58.1476 433.741 61.2143 432.341 64.4143C430.941 67.5476 430.141 69.9809 429.941 71.7143L429.641 73.8143L431.641 73.2143C433.041 72.8809 434.774 72.2809 436.841 71.4143C438.974 70.5476 440.641 69.7809 441.841 69.1143C443.041 68.4476 443.807 68.1143 444.141 68.1143C444.274 68.1143 444.341 68.1809 444.341 68.3143L444.241 68.7143H444.341C444.407 68.7143 444.541 68.6809 444.741 68.6143C444.941 68.5476 445.041 68.4809 445.041 68.4143C445.041 68.3476 444.974 68.2809 444.841 68.2143C444.707 68.1476 444.641 68.0809 444.641 68.0143C444.641 67.7476 445.007 67.4476 445.741 67.1143C446.474 66.7809 446.974 66.6143 447.241 66.6143L447.541 66.7143C447.607 66.7143 447.641 66.6809 447.641 66.6143L447.541 66.5143C447.541 66.1809 448.441 65.4143 450.241 64.2143C451.441 63.5476 454.974 61.0143 460.841 56.6143L462.441 52.5143C462.774 51.5143 463.274 50.3476 463.941 49.0143L466.241 43.9143C467.707 41.1143 468.441 39.5809 468.441 39.3143L463.441 40.4143C462.507 40.6143 462.041 40.8476 462.041 41.1143C462.041 41.3143 462.107 41.5809 462.241 41.9143C462.441 42.1809 462.541 42.3476 462.541 42.4143C462.541 42.4809 462.507 42.5143 462.441 42.5143H462.241C462.107 42.5143 461.841 42.4809 461.441 42.4143C461.041 42.2809 460.541 42.1809 459.941 42.1143H457.941C456.541 42.1143 455.841 41.9809 455.841 41.7143L456.041 41.3143C456.041 41.1143 455.941 41.0143 455.741 41.0143C455.541 41.0143 455.241 40.8476 454.841 40.5143C454.441 40.1809 453.507 39.2809 452.041 37.8143L453.741 36.4143C455.474 35.2143 458.307 34.1143 462.241 33.1143C466.241 32.0476 470.774 31.2809 475.841 30.8143C478.041 30.6143 479.774 30.5143 481.041 30.5143C481.641 30.5143 482.341 30.5809 483.141 30.7143C484.007 30.8476 484.441 31.2809 484.441 32.0143L484.541 32.7143C484.541 32.8476 484.507 32.9143 484.441 32.9143C484.374 32.9143 484.274 32.7143 484.141 32.3143C484.007 31.9143 483.841 31.6476 483.641 31.5143C483.507 31.3809 483.207 31.2809 482.741 31.2143C479.607 31.2143 478.041 31.2809 478.041 31.4143C478.041 31.4809 478.941 31.6143 480.741 31.8143C482.141 32.1476 483.041 32.5476 483.441 33.0143C483.907 33.4143 484.307 33.7143 484.641 33.9143C485.041 34.0476 485.341 34.1143 485.541 34.1143C485.807 34.1143 486.141 34.2809 486.541 34.6143C487.607 35.4809 488.141 36.1809 488.141 36.7143C488.141 36.9809 487.974 37.1143 487.641 37.1143C486.974 37.1143 486.274 37.0809 485.541 37.0143C484.807 36.9476 484.041 36.9143 483.241 36.9143C482.241 36.9143 480.907 37.0476 479.241 37.3143L477.441 41.2143C476.174 43.7476 475.507 45.6476 475.441 46.9143C475.374 48.1143 474.974 49.4476 474.241 50.9143C473.574 52.3809 472.741 53.6476 471.741 54.7143C470.407 56.3143 468.874 59.4809 467.141 64.2143C465.407 68.9476 464.174 73.4809 463.441 77.8143L463.341 79.4143C463.341 80.2143 463.474 80.8476 463.741 81.3143C464.007 81.7809 464.141 82.1809 464.141 82.5143C464.141 82.8476 463.941 83.0143 463.541 83.0143C463.341 83.0143 463.041 82.8809 462.641 82.6143C462.241 82.4143 461.874 82.3143 461.541 82.3143H461.241C461.107 82.3809 461.007 82.5476 460.941 82.8143C460.874 83.1476 460.841 83.3476 460.841 83.4143Z" fill="#F8F8F8"/>
<path d="M406.444 49.6139C406.644 49.6139 406.744 48.8805 406.744 47.4139L406.544 43.3139L406.244 48.9139C406.244 49.3805 406.31 49.6139 406.444 49.6139ZM407.044 41.3139L407.144 40.9139C407.21 40.6472 407.244 40.2472 407.244 39.7139C407.244 39.2472 407.177 38.8139 407.044 38.4139H407.144L407.044 38.0139C406.977 38.0139 406.944 38.5472 406.944 39.6139C406.944 40.7472 406.977 41.3139 407.044 41.3139ZM407.444 35.1139C407.577 35.1139 407.644 34.6805 407.644 33.8139C407.644 32.9472 407.577 32.5139 407.444 32.5139C407.377 32.5139 407.344 32.9805 407.344 33.9139C407.344 34.7139 407.377 35.1139 407.444 35.1139ZM407.944 30.5139C408.077 30.5139 408.144 30.1805 408.144 29.5139C408.144 29.1805 408.11 28.8805 408.044 28.6139L407.944 28.2139C407.877 28.2139 407.844 28.5805 407.844 29.3139C407.844 30.1139 407.877 30.5139 407.944 30.5139ZM408.344 26.1139C408.544 26.1139 408.644 25.8472 408.644 25.3139L408.344 24.4139C408.277 24.4139 408.244 24.6472 408.244 25.1139C408.244 25.7805 408.277 26.1139 408.344 26.1139ZM411.744 83.1139C411.077 83.1139 410.21 83.0139 409.144 82.8139L407.144 82.0139C406.677 81.6805 406.41 74.6472 406.344 60.9139C406.344 53.9805 406.277 50.5139 406.144 50.5139C405.877 50.9805 405.744 55.6472 405.744 64.5139C405.744 68.8472 405.777 72.0805 405.844 74.2139L406.244 79.8139C406.244 80.0805 406.21 80.2139 406.144 80.2139C406.077 80.2139 406.01 80.2139 405.944 80.2139C405.744 80.2139 405.41 80.0139 404.944 79.6139C403.744 78.5472 402.844 77.2805 402.244 75.8139C401.644 74.0139 401.344 68.5805 401.344 59.5139C401.344 47.5139 401.844 37.2139 402.844 28.6139L403.044 26.5139L401.944 28.9139C399.477 34.1139 396.644 41.0472 393.444 49.7139C390.31 58.3805 387.977 65.5472 386.444 71.2139L386.344 71.7139C385.144 76.6472 384.377 79.2139 384.044 79.4139C383.777 79.6139 383.477 79.7472 383.144 79.8139H383.044C382.377 79.9472 381.744 80.0139 381.144 80.0139C380.41 79.8139 379.61 79.3139 378.744 78.5139C377.877 77.7139 377.277 76.8805 376.944 76.0139C376.877 75.6139 376.844 75.1139 376.844 74.5139C376.844 69.5805 379.844 58.5472 385.844 41.4139C390.177 29.4805 394.577 18.8805 399.044 9.61387C400.977 5.68054 402.277 3.51387 402.944 3.11387C403.344 2.98054 403.71 2.71387 404.044 2.31387C404.377 1.91387 404.644 1.71387 404.844 1.71387C404.977 1.71387 405.077 1.8472 405.144 2.11387C405.144 2.2472 405.077 2.48054 404.944 2.81387C404.81 3.08054 404.744 3.3472 404.744 3.61387C404.744 3.9472 404.91 4.28054 405.244 4.61387C405.644 4.9472 405.91 5.11387 406.044 5.11387C406.177 5.11387 406.244 5.01387 406.244 4.81387C406.31 4.61387 406.377 4.51387 406.444 4.51387C406.51 4.51387 406.644 4.68054 406.844 5.01387C407.11 5.28054 407.41 5.41387 407.744 5.41387L408.044 5.31387C408.177 5.31387 408.377 5.48053 408.644 5.81387C408.977 6.1472 409.277 6.61387 409.544 7.21387C409.81 7.7472 409.944 8.21387 409.944 8.61387C409.944 9.1472 409.744 9.91387 409.344 10.9139C408.877 11.6472 408.644 12.1139 408.644 12.3139C408.644 12.5139 408.71 12.6139 408.844 12.6139C409.044 12.6139 409.277 12.5139 409.544 12.3139C409.877 12.1139 410.177 12.0139 410.444 12.0139C410.91 12.0139 411.41 12.2139 411.944 12.6139C412.544 13.0139 412.844 13.6805 412.844 14.6139L412.644 17.0139C412.244 20.8139 411.91 23.4472 411.644 24.9139C411.31 27.3805 411.077 29.5139 410.944 31.3139L410.544 36.2139C410.41 37.0805 410.31 37.9805 410.244 38.9139C410.11 41.1805 409.944 43.0805 409.744 44.6139C409.41 48.8805 409.044 56.5472 408.644 67.6139C411.11 59.2139 412.944 53.1805 414.144 49.5139C417.677 38.9139 421.377 29.2472 425.244 20.5139C429.71 10.3805 432.71 5.31387 434.244 5.31387C434.444 5.31387 434.544 5.48053 434.544 5.81387L434.444 6.81387C434.444 7.41387 434.61 7.8472 434.944 8.11387C435.277 8.31387 435.577 8.41387 435.844 8.41387C436.11 8.41387 436.344 8.31387 436.544 8.11387C436.744 7.8472 436.877 7.71387 436.944 7.71387H437.044L436.744 8.91387V9.01387L437.144 8.81387C437.477 8.41387 437.877 8.21387 438.344 8.21387C438.41 8.21387 438.577 8.2472 438.844 8.31387C439.177 8.31387 439.544 8.5472 439.944 9.01387C440.344 9.41387 440.577 9.81387 440.644 10.2139C440.644 10.6139 440.444 11.2805 440.044 12.2139C439.71 13.1472 439.077 14.5805 438.144 16.5139C437.01 18.9139 435.744 21.7472 434.344 25.0139C432.944 28.2805 431.71 31.2805 430.644 34.0139C429.577 36.6805 429.01 38.1805 428.944 38.5139C428.944 38.8472 428.844 39.1139 428.644 39.3139C428.51 39.5139 428.344 39.6139 428.144 39.6139C427.677 39.8805 426.81 41.5472 425.544 44.6139C424.344 47.6805 422.977 51.5139 421.444 56.1139C419.91 60.6472 418.51 65.2139 417.244 69.8139C416.777 71.5472 416.444 72.7805 416.244 73.5139C416.044 74.3139 415.944 74.9139 415.944 75.3139C415.944 75.9139 416.044 76.3139 416.244 76.5139C416.977 77.3139 417.344 78.1805 417.344 79.1139C417.344 79.3805 417.244 79.9139 417.044 80.7139C416.91 81.5139 416.21 81.9805 414.944 82.1139C414.01 82.2472 413.41 82.4472 413.144 82.7139C412.877 82.9805 412.41 83.1139 411.744 83.1139Z" fill="#F8F8F8"/>
<path d="M354.22 82.4145C353.953 82.4145 353.82 82.3145 353.82 82.1145C353.82 81.9811 353.886 81.8145 354.02 81.6145C354.153 81.4145 354.353 81.2478 354.62 81.1145C354.82 81.0478 354.92 80.9811 354.92 80.9145C354.92 80.8478 354.586 80.8145 353.92 80.8145L353.42 80.9145C353.153 80.9145 352.82 80.8145 352.42 80.6145C352.02 80.4811 351.053 79.7478 349.52 78.4145L350.72 77.3145C351.986 76.1145 354.72 74.6811 358.92 73.0145C360.386 72.4811 361.186 72.1145 361.32 71.9145C361.453 71.6478 361.52 71.3478 361.52 71.0145C361.52 69.3478 362.553 65.0478 364.62 58.1145C369.286 42.1811 374.153 29.2145 379.22 19.2144C380.886 15.8144 381.72 13.9145 381.72 13.5145C381.72 13.4478 381.686 13.4145 381.62 13.4145L381.42 13.5145C381.22 13.6478 380.92 13.7478 380.52 13.8145C380.186 13.8811 379.886 13.9478 379.62 14.0145C379.02 14.1478 378.72 14.3144 378.72 14.5145V14.6145C378.72 14.7478 378.386 14.8811 377.72 15.0145C376.72 15.2145 375.52 15.3145 374.12 15.3145C373.986 15.3145 373.886 15.2811 373.82 15.2145V15.1144L374.22 14.4145C374.553 14.1478 374.72 13.9478 374.72 13.8145C374.72 13.7478 374.453 13.7144 373.92 13.7144C373.386 13.7144 372.92 13.3811 372.52 12.7145C371.986 12.1811 371.586 11.5811 371.32 10.9144C371.186 10.7145 371.12 10.4811 371.12 10.2145C371.12 9.94779 371.853 9.51445 373.32 8.91445C374.053 8.51445 374.92 8.11445 375.92 7.71445C378.52 6.58112 382.853 5.44779 388.92 4.31445C396.586 2.98112 402.02 2.31445 405.22 2.31445C406.353 2.31445 407.153 2.38112 407.62 2.51445L408.32 2.81445C408.32 2.88112 408.12 2.91445 407.72 2.91445H405.02L403.02 3.01445C402.153 3.08112 401.72 3.14778 401.72 3.21445C401.72 3.28112 402.353 3.34778 403.62 3.41445C404.953 3.48112 405.986 3.68112 406.72 4.01445C407.453 4.28112 408.086 4.74778 408.62 5.41445C409.353 6.14778 409.82 6.58112 410.02 6.71445C410.62 7.31445 410.92 7.68112 410.92 7.81445C410.92 7.94778 410.453 8.11445 409.52 8.31445C408.586 8.44778 407.386 8.58112 405.92 8.71445C404.453 8.84779 402.52 9.08112 400.12 9.41445C394.52 10.3478 390.786 11.0478 388.92 11.5145C388.52 11.6478 388.32 11.8478 388.32 12.1145C388.32 12.3145 388.453 12.4145 388.72 12.4145C389.053 12.4145 389.386 12.6145 389.72 13.0145C390.053 13.4145 390.353 13.8478 390.62 14.3145C390.953 14.7811 391.12 15.1478 391.12 15.4145C391.12 15.6145 390.786 16.5145 390.12 18.1145C388.586 22.0478 387.02 25.7145 385.42 29.1145L384.52 31.0145C383.386 33.5478 382.62 35.3811 382.22 36.5145C381.82 37.6478 381.486 38.2145 381.22 38.2145H381.12L381.22 38.6145C381.22 38.6811 381.186 38.8145 381.12 39.0145C381.053 39.2145 380.953 39.4478 380.82 39.7145C380.686 39.9145 380.553 40.1145 380.42 40.3145C380.353 40.4478 380.32 40.5478 380.32 40.6144C380.386 40.6144 380.42 40.6478 380.42 40.7145C380.42 40.9811 380.186 41.4811 379.72 42.2145C379.453 42.5478 379.253 42.8811 379.12 43.2145V43.6144C379.186 43.6144 379.22 43.6478 379.22 43.7145L378.72 44.6145C377.786 46.4811 376.686 49.3145 375.42 53.1145L374.82 54.3145C374.62 54.7811 374.186 56.0478 373.52 58.1145L370.22 68.7145L370.12 69.6145C370.186 69.6811 370.286 69.7145 370.42 69.7145C370.553 69.7145 370.753 69.6811 371.02 69.6145C371.286 69.4811 371.82 69.3811 372.62 69.3145C374.02 69.1145 374.886 69.0145 375.22 69.0145C375.42 69.0145 375.52 69.0478 375.52 69.1145C375.52 69.1811 374.886 69.3478 373.62 69.6145C373.42 69.6145 373.253 69.6478 373.12 69.7145C370.72 70.3145 369.52 70.7145 369.52 70.9145L370.82 70.8145C371.553 70.6811 373.386 70.5478 376.32 70.4145C377.453 70.2811 378.32 70.2145 378.92 70.2145C380.053 70.2145 380.753 70.4145 381.02 70.8145C381.286 71.2145 381.786 71.4145 382.52 71.4145C383.32 71.4145 383.886 71.6811 384.22 72.2145L384.42 72.9145C384.353 72.9811 383.986 73.0145 383.32 73.0145C382.72 73.0145 381.286 73.2811 379.02 73.8145C373.02 75.3478 369.553 76.4478 368.62 77.1145C368.286 77.4478 367.853 77.6145 367.32 77.6145C366.853 77.6145 366.52 77.7478 366.32 78.0145C366.186 78.2811 366.053 78.4478 365.92 78.5145H365.42C364.82 78.5145 361.52 79.7145 355.52 82.1145C354.986 82.3145 354.553 82.4145 354.22 82.4145Z" fill="#F8F8F8"/>
<path d="M324.323 77.9137C324.456 77.7803 324.523 77.647 324.523 77.5137C324.523 77.1803 324.456 77.0137 324.323 77.0137C324.189 77.0137 324.123 77.147 324.123 77.4137C324.123 77.747 324.156 77.9137 324.223 77.9137H324.323ZM373.923 11.5137L373.823 11.1137C372.689 8.51367 369.623 6.547 364.623 5.21367C360.823 4.21367 356.556 3.71367 351.823 3.71367H349.423C345.489 3.98034 343.523 4.14701 343.523 4.21367C343.523 4.28034 344.489 4.31367 346.423 4.31367H348.823C354.023 4.31367 358.256 4.68034 361.523 5.41367C364.856 6.14701 367.956 7.51367 370.823 9.51367C372.823 10.847 373.856 11.5137 373.923 11.5137ZM373.823 23.2137C373.956 23.2137 374.223 22.8137 374.623 22.0137C374.756 21.8137 374.856 21.547 374.923 21.2137C375.056 20.8803 375.123 20.647 375.123 20.5137L375.023 20.4137C374.889 20.4137 374.656 20.847 374.323 21.7137C373.989 22.5137 373.823 22.9803 373.823 23.1137V23.2137ZM375.823 18.9137L376.023 17.2137C376.023 16.4803 375.856 15.8137 375.523 15.2137C375.256 14.547 375.089 14.2137 375.023 14.2137C374.956 14.2137 374.923 14.3137 374.923 14.5137C374.923 14.9137 375.023 15.6803 375.223 16.8137L375.323 17.2137L375.823 18.9137ZM325.923 82.5137L324.923 82.0137C324.323 81.747 324.023 81.2137 324.023 80.4137V78.2137C323.623 79.8803 323.423 80.8803 323.423 81.2137V82.0137L323.523 82.4137C323.523 82.4803 323.456 82.5137 323.323 82.5137L321.423 81.5137C320.289 81.047 319.723 80.1137 319.723 78.7137C319.723 76.7137 320.756 72.4803 322.823 66.0137C323.289 64.347 323.656 63.1803 323.923 62.5137L324.023 62.2137C324.023 62.0803 323.956 62.0137 323.823 62.0137H323.323C322.656 62.0137 321.823 61.5137 320.823 60.5137C320.289 60.1137 320.023 59.8137 320.023 59.6137C320.023 59.2137 320.356 58.947 321.023 58.8137C321.623 58.6137 321.923 58.447 321.923 58.3137C321.923 58.1803 322.056 58.0137 322.323 57.8137C322.589 57.6137 323.956 56.7803 326.423 55.3137L328.123 50.6137C331.256 41.947 334.456 34.1803 337.723 27.3137C340.989 20.447 343.623 15.8803 345.623 13.6137C346.356 12.8137 346.823 12.4137 347.023 12.4137C347.089 12.4137 347.123 12.4803 347.123 12.6137L346.923 13.8137C346.923 14.147 347.256 14.6137 347.923 15.2137L348.923 15.7137C349.256 15.7137 349.489 15.647 349.623 15.5137C349.756 15.3803 349.889 15.3137 350.023 15.3137C350.223 15.3137 350.456 15.447 350.723 15.7137C351.056 15.9803 351.289 16.2137 351.423 16.4137C351.623 16.6137 351.723 16.747 351.723 16.8137C351.723 17.147 350.856 19.047 349.123 22.5137C344.856 31.3803 342.723 35.947 342.723 36.2137C342.723 36.4137 342.423 37.1137 341.823 38.3137C340.023 42.247 338.823 45.0137 338.223 46.6137L338.023 47.5137C338.089 47.5137 339.289 46.8137 341.623 45.4137C362.023 31.347 372.223 21.047 372.223 14.5137C372.223 13.5803 372.056 12.947 371.723 12.6137C371.389 12.2803 370.856 11.9137 370.123 11.5137C368.923 10.9137 367.956 10.6137 367.223 10.6137C366.489 10.6137 366.023 10.5137 365.823 10.3137C365.556 9.84701 361.856 9.51367 354.723 9.31367H352.423C347.689 9.31367 344.189 9.68034 341.923 10.4137L340.623 10.9137C341.156 11.1137 341.623 11.347 342.023 11.6137C342.489 11.8803 342.856 12.1137 343.123 12.3137C343.389 12.5137 343.523 12.6803 343.523 12.8137C343.523 12.8803 343.589 12.9137 343.723 12.9137C343.856 12.9137 343.956 12.9137 344.023 12.9137L344.723 12.8137C344.723 13.147 344.489 13.3137 344.023 13.3137C343.156 13.3137 341.989 13.1137 340.523 12.7137C337.523 12.1137 335.456 10.947 334.323 9.21367C333.989 8.81367 333.823 8.51367 333.823 8.31367C333.823 7.84701 334.323 7.24701 335.323 6.51367C336.389 5.71367 337.556 5.08034 338.823 4.61368C341.889 3.54701 346.056 3.01367 351.323 3.01367C357.656 3.01367 363.189 3.947 367.923 5.81367C370.389 6.88034 372.056 8.01367 372.923 9.21367C376.323 13.8803 378.023 17.1803 378.023 19.1137L377.923 19.9137C376.856 28.447 362.956 41.0137 336.223 57.6137C335.223 58.2137 334.489 58.7137 334.023 59.1137C333.556 59.447 333.189 59.8137 332.923 60.2137C332.056 61.6803 330.856 65.047 329.323 70.3137C328.389 73.3137 327.256 77.3803 325.923 82.5137Z" fill="#F8F8F8"/>
<path d="M286.725 77.9137C286.858 77.7803 286.925 77.647 286.925 77.5137C286.925 77.1803 286.858 77.0137 286.725 77.0137C286.592 77.0137 286.525 77.147 286.525 77.4137C286.525 77.747 286.558 77.9137 286.625 77.9137H286.725ZM336.325 11.5137L336.225 11.1137C335.092 8.51367 332.025 6.547 327.025 5.21367C323.225 4.21367 318.958 3.71367 314.225 3.71367H311.825C307.892 3.98034 305.925 4.14701 305.925 4.21367C305.925 4.28034 306.892 4.31367 308.825 4.31367H311.225C316.425 4.31367 320.658 4.68034 323.925 5.41367C327.258 6.14701 330.358 7.51367 333.225 9.51367C335.225 10.847 336.258 11.5137 336.325 11.5137ZM336.225 23.2137C336.358 23.2137 336.625 22.8137 337.025 22.0137C337.158 21.8137 337.258 21.547 337.325 21.2137C337.458 20.8803 337.525 20.647 337.525 20.5137L337.425 20.4137C337.292 20.4137 337.058 20.847 336.725 21.7137C336.392 22.5137 336.225 22.9803 336.225 23.1137V23.2137ZM338.225 18.9137L338.425 17.2137C338.425 16.4803 338.258 15.8137 337.925 15.2137C337.658 14.547 337.492 14.2137 337.425 14.2137C337.358 14.2137 337.325 14.3137 337.325 14.5137C337.325 14.9137 337.425 15.6803 337.625 16.8137L337.725 17.2137L338.225 18.9137ZM288.325 82.5137L287.325 82.0137C286.725 81.747 286.425 81.2137 286.425 80.4137V78.2137C286.025 79.8803 285.825 80.8803 285.825 81.2137V82.0137L285.925 82.4137C285.925 82.4803 285.858 82.5137 285.725 82.5137L283.825 81.5137C282.692 81.047 282.125 80.1137 282.125 78.7137C282.125 76.7137 283.158 72.4803 285.225 66.0137C285.692 64.347 286.058 63.1803 286.325 62.5137L286.425 62.2137C286.425 62.0803 286.358 62.0137 286.225 62.0137H285.725C285.058 62.0137 284.225 61.5137 283.225 60.5137C282.692 60.1137 282.425 59.8137 282.425 59.6137C282.425 59.2137 282.758 58.947 283.425 58.8137C284.025 58.6137 284.325 58.447 284.325 58.3137C284.325 58.1803 284.458 58.0137 284.725 57.8137C284.992 57.6137 286.358 56.7803 288.825 55.3137L290.525 50.6137C293.658 41.947 296.858 34.1803 300.125 27.3137C303.392 20.447 306.025 15.8803 308.025 13.6137C308.758 12.8137 309.225 12.4137 309.425 12.4137C309.492 12.4137 309.525 12.4803 309.525 12.6137L309.325 13.8137C309.325 14.147 309.658 14.6137 310.325 15.2137L311.325 15.7137C311.658 15.7137 311.892 15.647 312.025 15.5137C312.158 15.3803 312.292 15.3137 312.425 15.3137C312.625 15.3137 312.858 15.447 313.125 15.7137C313.458 15.9803 313.692 16.2137 313.825 16.4137C314.025 16.6137 314.125 16.747 314.125 16.8137C314.125 17.147 313.258 19.047 311.525 22.5137C307.258 31.3803 305.125 35.947 305.125 36.2137C305.125 36.4137 304.825 37.1137 304.225 38.3137C302.425 42.247 301.225 45.0137 300.625 46.6137L300.425 47.5137C300.492 47.5137 301.692 46.8137 304.025 45.4137C324.425 31.347 334.625 21.047 334.625 14.5137C334.625 13.5803 334.458 12.947 334.125 12.6137C333.792 12.2803 333.258 11.9137 332.525 11.5137C331.325 10.9137 330.358 10.6137 329.625 10.6137C328.892 10.6137 328.425 10.5137 328.225 10.3137C327.958 9.84701 324.258 9.51367 317.125 9.31367H314.825C310.092 9.31367 306.592 9.68034 304.325 10.4137L303.025 10.9137C303.558 11.1137 304.025 11.347 304.425 11.6137C304.892 11.8803 305.258 12.1137 305.525 12.3137C305.792 12.5137 305.925 12.6803 305.925 12.8137C305.925 12.8803 305.992 12.9137 306.125 12.9137C306.258 12.9137 306.358 12.9137 306.425 12.9137L307.125 12.8137C307.125 13.147 306.892 13.3137 306.425 13.3137C305.558 13.3137 304.392 13.1137 302.925 12.7137C299.925 12.1137 297.858 10.947 296.725 9.21367C296.392 8.81367 296.225 8.51367 296.225 8.31367C296.225 7.84701 296.725 7.24701 297.725 6.51367C298.792 5.71367 299.958 5.08034 301.225 4.61368C304.292 3.54701 308.458 3.01367 313.725 3.01367C320.058 3.01367 325.592 3.947 330.325 5.81367C332.792 6.88034 334.458 8.01367 335.325 9.21367C338.725 13.8803 340.425 17.1803 340.425 19.1137L340.325 19.9137C339.258 28.447 325.358 41.0137 298.625 57.6137C297.625 58.2137 296.892 58.7137 296.425 59.1137C295.958 59.447 295.592 59.8137 295.325 60.2137C294.458 61.6803 293.258 65.047 291.725 70.3137C290.792 73.3137 289.658 77.3803 288.325 82.5137Z" fill="#F8F8F8"/>
<path d="M252.87 73.8139C253.203 73.7472 254.17 73.3472 255.77 72.6139C258.57 70.9472 261.77 68.1472 265.37 64.2139C268.97 60.2805 271.97 56.2472 274.37 52.1139C278.37 44.9805 281.37 37.9139 283.37 30.9139C284.77 25.9139 285.47 21.6139 285.47 18.0139C285.47 16.6139 285.37 15.3472 285.17 14.2139C285.036 13.3472 284.836 12.7472 284.57 12.4139C284.37 12.0805 283.936 11.8805 283.27 11.8139C282.67 11.6805 281.903 11.6139 280.97 11.6139C278.503 11.7472 277.203 12.0805 277.07 12.6139C277.07 12.8805 276.703 13.6139 275.97 14.8139C275.236 16.0139 274.87 16.7139 274.87 16.9139C274.603 17.6472 274.37 18.0139 274.17 18.0139C274.103 18.0139 274.07 17.9805 274.07 17.9139C274.07 17.7805 274.07 17.6805 274.07 17.6139L274.27 16.2139C274.136 16.2805 273.47 17.1805 272.27 18.9139C272.736 17.1805 273.303 15.6805 273.97 14.4139C274.17 14.0139 274.303 13.6805 274.37 13.4139C274.37 13.2805 274.336 13.2139 274.27 13.2139C274.07 13.2139 273.603 14.0472 272.87 15.7139C272.136 17.3805 271.536 18.4805 271.07 19.0139L270.37 19.8139L270.47 19.2139C270.203 19.2139 269.37 20.5472 267.97 23.2139C267.436 24.1472 266.936 25.0472 266.47 25.9139C266.07 26.7139 265.77 27.2472 265.57 27.5139C263.37 31.5805 261.67 35.1472 260.47 38.2139C259.87 39.6139 259.57 40.4805 259.57 40.8139V40.9139C259.57 41.0472 259.536 41.1472 259.47 41.2139C259.47 41.2805 259.403 41.3139 259.27 41.3139C258.736 42.1139 258.17 43.3139 257.57 44.9139C257.036 46.4472 256.77 47.3805 256.77 47.7139C256.77 47.7805 256.77 47.8139 256.77 47.8139H256.87L256.77 47.9139C256.17 48.3805 255.87 48.9805 255.87 49.7139C255.736 50.3805 255.603 50.7139 255.47 50.7139C255.403 50.7139 255.303 50.8805 255.17 51.2139C254.903 51.9472 254.636 52.9139 254.37 54.1139L254.07 55.4139C254.003 55.5472 253.97 55.7805 253.97 56.1139C253.97 56.3805 253.87 56.5139 253.67 56.5139C253.47 56.5139 253.203 57.0472 252.87 58.1139C252.67 59.5139 252.47 60.5472 252.27 61.2139C251.87 63.0139 251.57 64.4472 251.37 65.5139C251.236 66.5139 251.17 67.7139 251.17 69.1139C251.17 71.0472 251.236 72.3139 251.37 72.9139C251.503 73.5139 251.77 73.8139 252.17 73.8139H252.87ZM266.17 8.61386C266.236 8.61386 266.37 8.58053 266.57 8.51386C266.836 8.38053 267.036 8.21387 267.17 8.01387C267.17 7.9472 267.136 7.91387 267.07 7.91387C267.003 7.8472 266.903 7.81387 266.77 7.81387C266.636 7.88053 266.47 8.01387 266.27 8.21386C266.136 8.3472 266.07 8.4472 266.07 8.51386V8.61386C266.07 8.61386 266.103 8.61386 266.17 8.61386ZM271.87 4.91386C272.003 4.91386 272.236 4.88053 272.57 4.81386C272.903 4.68053 273.07 4.5472 273.07 4.41386C273.07 4.28053 272.97 4.18053 272.77 4.11387C272.436 4.11387 272.17 4.2472 271.97 4.51386C271.836 4.71386 271.77 4.8472 271.77 4.91386H271.87ZM274.87 15.4139C275.203 15.1472 275.37 14.8139 275.37 14.4139C275.37 14.2805 275.336 14.2139 275.27 14.2139C275.27 14.1472 275.236 14.1139 275.17 14.1139L274.97 14.2139C274.636 14.4805 274.47 14.8139 274.47 15.2139C274.47 15.3472 274.603 15.4139 274.87 15.4139ZM282.97 10.7139C283.436 10.7139 283.67 10.6805 283.67 10.6139C283.67 10.5472 283.603 10.4805 283.47 10.4139C283.403 10.3472 283.27 10.3139 283.07 10.3139C282.87 10.3139 282.703 10.3472 282.57 10.4139C282.436 10.4805 282.37 10.5472 282.37 10.6139C282.37 10.6805 282.57 10.7139 282.97 10.7139ZM285.27 8.21386C285.403 8.21386 285.47 8.1472 285.47 8.01387L285.07 7.21386C283.936 5.5472 281.903 4.71387 278.97 4.71387C277.303 4.71387 276.003 4.81387 275.07 5.01387C274.136 5.1472 273.67 5.31387 273.67 5.51387C273.67 5.71387 274.47 5.81386 276.07 5.81386L277.27 5.71387C278.736 5.71387 280.27 6.1472 281.87 7.01387C283.136 7.48053 283.97 7.81386 284.37 8.01387C284.836 8.1472 285.136 8.21386 285.27 8.21386ZM289.77 18.1139L289.67 16.5139C289.603 15.9805 289.436 15.3472 289.17 14.6139C288.57 12.8805 288.07 12.0139 287.67 12.0139V12.1139C287.67 12.3805 287.97 13.4472 288.57 15.3139C289.236 17.1805 289.636 18.1139 289.77 18.1139ZM287.67 33.1139L287.97 32.1139C288.17 31.4472 288.37 30.5805 288.57 29.5139C288.836 28.4472 289.07 27.2805 289.27 26.0139C289.47 24.7472 289.636 23.5472 289.77 22.4139C289.903 21.2805 289.97 20.3805 289.97 19.7139C289.97 19.2472 289.936 19.0139 289.87 19.0139L289.77 19.1139C289.37 20.1139 289.17 21.4139 289.17 23.0139L288.87 26.1139C288.536 28.2472 288.17 30.0139 287.77 31.4139C287.636 32.0139 287.57 32.4805 287.57 32.8139C287.57 33.0139 287.603 33.1139 287.67 33.1139ZM252.97 75.4139C253.57 75.4139 254.87 74.7805 256.87 73.5139L258.67 72.3139C259.003 72.0472 259.236 71.8139 259.37 71.6139C258.97 71.6139 258.17 71.9805 256.97 72.7139C255.77 73.5139 254.57 74.1139 253.37 74.5139C252.636 74.6472 252.27 74.8139 252.27 75.0139L252.47 75.2139C252.536 75.3472 252.703 75.4139 252.97 75.4139ZM253.97 80.1139C254.17 80.1139 254.436 80.0805 254.77 80.0139C255.17 79.9472 255.57 79.8472 255.97 79.7139C256.37 79.6472 256.57 79.6139 256.57 79.6139C256.636 79.6139 256.67 79.5805 256.67 79.5139C256.67 79.4472 256.403 79.4139 255.87 79.4139C255.07 79.4139 254.503 79.5139 254.17 79.7139C253.903 79.9139 253.77 80.0472 253.77 80.1139H253.97ZM255.97 81.2139H255.27C253.403 81.2139 251.336 80.5472 249.07 79.2139C246.003 77.4805 243.97 75.6805 242.97 73.8139C242.17 72.2139 241.77 69.9805 241.77 67.1139C241.77 63.1805 242.37 59.0805 243.57 54.8139C245.303 48.4139 248.17 41.1472 252.17 33.0139C253.836 29.6805 255.903 25.7472 258.37 21.2139C257.903 20.7472 257.436 20.3472 256.97 20.0139C256.57 19.6139 256.236 19.2472 255.97 18.9139C255.77 18.5139 255.67 18.1805 255.67 17.9139C255.67 17.5805 255.903 17.0472 256.37 16.3139C257.77 14.1139 259.37 12.2805 261.17 10.8139C262.17 9.9472 263.603 8.98053 265.47 7.91387C268.936 5.71387 270.903 4.38053 271.37 3.91386C271.836 3.4472 272.236 3.21387 272.57 3.21387C272.77 3.21387 272.97 3.31387 273.17 3.51386C273.97 3.71386 275.536 3.81387 277.87 3.81387C279.536 3.81387 280.77 3.91387 281.57 4.11387C282.436 4.31387 283.303 4.88053 284.17 5.81386C285.103 6.68053 286.303 8.08053 287.77 10.0139C289.303 11.9472 290.336 13.3805 290.87 14.3139C291.736 15.9139 292.17 18.2805 292.17 21.4139C292.17 25.8805 291.07 31.6472 288.87 38.7139C286.67 45.7139 283.07 53.1472 278.07 61.0139C276.27 63.6139 273.803 66.7139 270.67 70.3139C267.536 73.9139 265.07 76.4139 263.27 77.8139C260.403 79.8805 257.97 81.0139 255.97 81.2139Z" fill="#F8F8F8"/>
<path d="M211.81 48.0139C212.143 48.0139 215.343 45.9805 221.41 41.9139C223.477 40.3805 225.31 39.1472 226.91 38.2139L232.21 34.4139C243.61 26.3472 249.843 20.0139 250.91 15.4139L251.01 14.8139C251.01 14.4805 250.944 14.2139 250.81 14.0139C250.677 13.8139 250.243 13.5472 249.51 13.2139C247.177 12.2805 243.81 11.5472 239.41 11.0139C236.21 10.6139 233.077 10.4139 230.01 10.4139C228.343 10.4139 225.677 10.5805 222.01 10.9139C222.21 11.3139 222.41 11.8139 222.61 12.4139C222.877 12.9472 223.044 13.2472 223.11 13.3139C223.177 13.3139 223.243 13.3139 223.31 13.3139C223.443 13.3139 223.61 13.1139 223.81 12.7139C224.077 12.3139 224.277 12.1139 224.41 12.1139C224.543 12.1805 224.777 12.5139 225.11 13.1139L225.21 13.2139C225.61 13.6805 225.81 14.1472 225.81 14.6139C225.81 15.6139 224.843 18.2805 222.91 22.6139C215.91 38.4805 212.21 46.9472 211.81 48.0139ZM221.41 4.81386C222.01 4.81386 222.31 4.7472 222.31 4.61387L222.01 4.51386C221.877 4.4472 221.677 4.41386 221.41 4.41386C221.143 4.41386 220.943 4.4472 220.81 4.51386L220.51 4.61387C220.51 4.7472 220.81 4.81386 221.41 4.81386ZM253.11 12.9139C253.177 12.9139 253.21 12.8472 253.21 12.7139C253.21 12.3139 252.844 11.3472 252.11 9.81387C252.044 9.81387 252.01 9.78053 252.01 9.71387C251.01 8.58053 248.977 7.51387 245.91 6.51387C241.044 4.98053 235.41 4.21387 229.01 4.21387C228.41 4.21387 228.11 4.2472 228.11 4.31387C228.11 4.51387 228.71 4.61387 229.91 4.61387C238.044 5.1472 243.944 6.4472 247.61 8.51386C249.344 9.38053 250.61 10.3472 251.41 11.4139C252.277 12.4139 252.844 12.9139 253.11 12.9139ZM250.61 25.1139L250.71 25.0139C251.31 24.6139 252.044 23.5805 252.91 21.9139C253.844 20.1805 254.31 18.5472 254.31 17.0139C254.31 16.4139 254.177 16.0139 253.91 15.8139H253.81C253.61 15.8139 253.51 16.4139 253.51 17.6139C253.51 19.5472 252.71 21.7472 251.11 24.2139C250.844 24.6139 250.677 24.8805 250.61 25.0139V25.1139ZM214.91 58.2139C216.043 58.2139 216.61 58.1805 216.61 58.1139L216.31 58.0139C215.843 57.8805 215.377 57.8139 214.91 57.8139C214.443 57.8139 214.077 57.8472 213.81 57.9139L213.31 58.0139C213.31 58.1472 213.843 58.2139 214.91 58.2139ZM198.11 81.9139C198.044 81.9139 198.01 81.8472 198.01 81.7139C197.943 81.5805 197.877 81.4472 197.81 81.3139C197.743 81.1805 197.643 81.1139 197.51 81.1139C197.377 81.1139 197.11 80.9805 196.71 80.7139C196.243 80.4472 195.743 80.1139 195.21 79.7139C194.61 79.3139 194.01 78.8805 193.41 78.4139C193.543 77.6139 193.643 76.8472 193.71 76.1139C193.777 75.3805 193.977 74.3472 194.31 73.0139C194.577 71.7472 194.91 70.4472 195.31 69.1139L196.61 64.6139C195.077 62.6805 194.31 61.4472 194.31 60.9139C194.31 60.6472 194.443 60.5139 194.71 60.5139C194.91 60.5139 195.277 60.2472 195.81 59.7139C196.143 59.0472 196.81 58.3805 197.81 57.7139C198.277 57.3805 198.677 57.0139 199.01 56.6139C199.61 55.7472 200.377 53.9472 201.31 51.2139C206.243 37.9472 211.443 26.0139 216.91 15.4139L218.91 11.4139L218.61 11.3139C218.277 11.3139 216.677 11.6472 213.81 12.3139C213.21 12.4472 212.843 12.5139 212.71 12.5139C212.643 12.5139 212.61 12.5472 212.61 12.6139C212.61 12.6805 212.71 12.8139 212.91 13.0139C213.377 13.4805 213.61 13.7472 213.61 13.8139C213.61 13.8805 213.51 13.9139 213.31 13.9139C213.177 13.9139 213.11 13.9472 213.11 14.0139C213.11 14.0805 213.21 14.1472 213.41 14.2139C213.677 14.2805 213.81 14.3472 213.81 14.4139C213.81 14.4805 213.677 14.5139 213.41 14.5139C213.143 14.5139 212.71 14.5139 212.11 14.5139C211.51 14.4472 210.943 14.3805 210.41 14.3139C209.943 14.1805 209.61 14.0139 209.41 13.8139C209.21 13.6139 208.843 13.4472 208.31 13.3139L208.11 13.2139C207.71 13.0139 207.243 12.6805 206.71 12.2139C206.243 11.7472 205.81 11.2472 205.41 10.7139C205.01 10.1139 204.81 9.6472 204.81 9.31387C204.81 8.78053 205.643 8.0472 207.31 7.11386C211.377 4.8472 217.677 3.71387 226.21 3.71387C242.21 3.71387 251.243 6.31387 253.31 11.5139L254.41 14.5139L254.71 15.1139C255.444 16.7139 255.81 18.2472 255.81 19.7139C255.81 20.9805 255.543 22.2139 255.01 23.4139C252.743 30.0139 240.377 40.3472 217.91 54.4139C215.777 55.6805 214.71 56.4805 214.71 56.8139L217.81 57.1139C223.743 57.7139 229.043 58.3805 233.71 59.1139C238.443 59.7805 241.51 60.3805 242.91 60.9139L243.91 61.4139L242.91 61.2139C233.643 59.2805 226.477 58.3139 221.41 58.3139C219.877 58.3139 219.11 58.3472 219.11 58.4139L228.51 59.5139C234.243 60.3139 238.977 61.3472 242.71 62.6139C244.11 63.1472 245.11 63.7472 245.71 64.4139C246.377 65.0805 246.81 65.4139 247.01 65.4139C247.21 65.4139 247.477 65.5472 247.81 65.8139C248.61 66.6805 249.01 67.2805 249.01 67.6139C249.01 67.6805 248.843 67.7139 248.51 67.7139C248.177 67.7139 247.743 67.6472 247.21 67.5139C241.877 65.9805 233.81 65.2139 223.01 65.2139C217.61 65.2139 212.81 65.3805 208.61 65.7139C206.41 65.9139 205.143 66.1805 204.81 66.5139C204.477 66.8472 204.244 67.2139 204.11 67.6139C202.177 73.2139 201.043 76.9805 200.71 78.9139C200.443 80.4472 200.244 81.2139 200.11 81.2139H199.91L199.51 81.1139C199.11 80.8472 198.843 80.7139 198.71 80.7139C198.643 80.7139 198.577 80.7139 198.51 80.7139C198.377 80.7805 198.277 80.9805 198.21 81.3139L198.11 81.9139Z" fill="#F8F8F8"/>
<path d="M161.002 72.6139C161.069 72.6139 161.602 72.2139 162.602 71.4139C181.402 56.6139 194.769 41.3472 202.702 25.6139C204.969 20.6805 206.102 16.8805 206.102 14.2139C206.102 12.6139 205.702 11.4139 204.902 10.6139C203.702 9.88053 201.602 9.48053 198.602 9.41387C195.002 9.41387 191.636 9.68053 188.502 10.2139L185.602 10.5139L180.302 22.5139L178.202 27.1139C177.402 28.7139 177.002 29.6472 177.002 29.9139L174.202 36.3139C174.202 36.5805 174.002 37.1139 173.602 37.9139C172.269 40.5805 170.302 45.4472 167.702 52.5139C165.502 58.3805 163.602 63.8139 162.002 68.8139C161.536 70.3472 161.169 71.4139 160.902 72.0139V72.2139C160.902 72.2805 160.902 72.3472 160.902 72.4139C160.902 72.5472 160.936 72.6139 161.002 72.6139ZM209.602 19.3139C209.669 19.3139 209.736 18.9472 209.802 18.2139L209.902 17.4139C209.902 16.4805 209.736 15.6139 209.402 14.8139C209.136 13.9472 208.969 13.5139 208.902 13.5139C208.836 13.5139 208.802 13.6472 208.802 13.9139C208.802 14.3805 208.902 15.3805 209.102 16.9139C209.369 18.3805 209.536 19.1805 209.602 19.3139ZM156.902 77.3139L157.002 77.1139C157.069 76.9805 157.102 76.8472 157.102 76.7139C157.102 76.2472 157.036 76.0139 156.902 76.0139C156.836 76.0139 156.802 76.2139 156.802 76.6139C156.802 77.0805 156.836 77.3139 156.902 77.3139ZM155.602 81.2139C155.269 81.2139 154.769 81.0472 154.102 80.7139C153.369 80.3805 152.902 80.0472 152.702 79.7139C152.502 79.4472 152.402 79.1139 152.402 78.7139C152.402 77.7805 152.769 75.8472 153.502 72.9139C155.569 64.9805 158.602 55.4472 162.602 44.3139C166.669 33.1139 170.269 24.3139 173.402 17.9139C174.336 15.9805 174.802 14.7805 174.802 14.3139V14.2139H174.702C174.436 14.2139 173.602 14.7139 172.202 15.7139C171.402 16.1805 171.002 16.6472 171.002 17.1139C171.002 17.2472 171.036 17.3805 171.102 17.5139C171.169 17.6472 171.202 17.7472 171.202 17.8139C171.202 17.9472 171.169 18.0139 171.102 18.0139C170.969 18.0139 170.669 17.8139 170.202 17.4139C169.736 17.0139 169.502 16.5139 169.502 15.9139L169.602 15.3139C169.602 15.1805 169.569 15.1139 169.502 15.1139C169.436 15.1139 169.269 15.2472 169.002 15.5139C168.736 15.7805 168.602 16.0472 168.602 16.3139C168.602 16.5139 168.702 16.7805 168.902 17.1139C169.102 17.3805 169.202 17.5805 169.202 17.7139C168.802 17.7139 168.169 17.2139 167.302 16.2139C166.769 15.7472 166.502 15.4139 166.502 15.2139C166.502 15.0139 166.302 14.7139 165.902 14.3139C165.636 14.3139 165.502 14.1139 165.502 13.7139V13.6139C165.636 13.3472 165.969 12.9472 166.502 12.4139C167.102 11.8139 167.736 11.2805 168.402 10.8139C169.069 10.3472 169.536 10.0805 169.802 10.0139C170.469 9.68053 170.936 9.3472 171.202 9.01386C171.536 8.68053 171.902 8.51386 172.302 8.51386L172.502 8.61386C172.636 8.61386 172.736 8.61386 172.802 8.61386C172.936 8.5472 173.002 8.48053 173.002 8.41387C173.002 8.28053 173.036 8.18053 173.102 8.11386C173.302 8.11386 173.469 8.1472 173.602 8.21386C173.936 8.21386 174.102 8.18053 174.102 8.11386L173.902 7.61386L174.902 7.81387L174.802 7.61386C174.802 7.28053 175.502 6.9472 176.902 6.61387C177.302 6.5472 177.802 6.51387 178.402 6.51387L178.902 6.71386V6.61387L178.702 6.41387C178.569 6.3472 178.502 6.28053 178.502 6.21387C178.502 6.01386 178.936 5.8472 179.802 5.71387C180.669 5.58053 181.169 5.3472 181.302 5.01387C181.436 4.61387 181.536 4.41386 181.602 4.41386C181.736 4.41386 181.836 4.51386 181.902 4.71387C181.969 4.91387 182.169 5.01387 182.502 5.01387C182.836 5.01387 183.236 4.9472 183.702 4.81386C184.169 4.68053 184.636 4.5472 185.102 4.41386L186.302 4.31387C186.302 4.38053 185.869 4.5472 185.002 4.81386C184.202 5.08053 183.802 5.2472 183.802 5.31386L184.102 5.21387C186.769 4.9472 189.836 4.81386 193.302 4.81386C198.436 4.81386 202.269 5.88053 204.802 8.01387L208.002 10.2139L207.202 8.81387C205.536 5.9472 201.936 4.41386 196.402 4.21387C195.336 4.08053 194.236 4.01386 193.102 4.01386C191.969 4.01386 190.936 4.08053 190.002 4.21387C189.069 4.3472 188.402 4.41386 188.002 4.41386C187.669 4.41386 187.502 4.38053 187.502 4.31387L187.702 4.11387C187.769 4.0472 188.369 3.98053 189.502 3.91386C190.702 3.78053 192.136 3.71387 193.802 3.71387C196.069 3.71387 197.769 3.78053 198.902 3.91386C203.436 4.4472 206.502 6.3472 208.102 9.61387C209.236 11.8805 210.036 13.5472 210.502 14.6139C211.036 15.6805 211.336 16.5472 211.402 17.2139C211.536 17.8139 211.602 18.6472 211.602 19.7139C211.336 25.9139 207.936 33.5472 201.402 42.6139C194.936 51.6139 186.269 60.7472 175.402 70.0139C168.936 75.4139 164.869 78.1139 163.202 78.1139C163.069 78.1139 162.936 78.0805 162.802 78.0139C162.669 77.9472 162.402 77.8805 162.002 77.8139C161.602 77.7472 161.169 77.7139 160.702 77.7139C160.036 77.7139 159.602 77.7805 159.402 77.9139C159.202 78.0472 159.102 78.2805 159.102 78.6139C159.102 79.3472 159.069 79.7805 159.002 79.9139C158.936 80.0472 158.902 80.1805 158.902 80.3139C158.902 80.5139 158.869 80.6472 158.802 80.7139C158.802 80.8472 158.702 80.9139 158.502 80.9139C157.569 80.9139 156.969 80.3139 156.702 79.1139L156.502 77.7139L156.402 79.1139C156.402 80.5139 156.136 81.2139 155.602 81.2139Z" fill="#F8F8F8"/>
<path d="M137.548 43.1137C138.148 43.1137 138.448 43.047 138.448 42.9137C138.448 42.847 138.148 42.8137 137.548 42.8137C136.948 42.8137 136.648 42.847 136.648 42.9137C136.648 43.047 136.948 43.1137 137.548 43.1137ZM132.748 50.8137C132.682 50.8137 132.515 50.747 132.248 50.6137C132.048 50.4137 131.848 50.2137 131.648 50.0137C131.448 49.747 131.348 49.547 131.348 49.4137C131.348 49.347 131.348 49.2803 131.348 49.2137C131.348 49.147 131.582 49.047 132.048 48.9137C132.515 48.7137 132.915 48.547 133.248 48.4137H131.848C131.315 48.4137 130.848 48.2803 130.448 48.0137C130.048 47.747 129.548 47.2803 128.948 46.6137C128.082 45.547 127.648 44.7803 127.648 44.3137C127.648 43.9803 127.915 43.8137 128.448 43.8137C128.648 43.8137 129.048 43.6137 129.648 43.2137C129.982 42.747 130.982 42.4137 132.648 42.2137C134.382 42.0137 137.382 41.847 141.648 41.7137C143.648 41.5803 145.248 41.5137 146.448 41.5137C148.182 41.5137 149.082 41.5803 149.148 41.7137V42.0137C149.148 42.2137 147.882 42.3137 145.348 42.3137L141.448 42.5137C144.048 42.5803 145.748 42.7137 146.548 42.9137C147.415 43.047 148.182 43.447 148.848 44.1137C149.515 44.7137 150.048 45.0137 150.448 45.0137C150.915 45.0137 151.448 45.247 152.048 45.7137C152.648 46.1137 152.948 46.547 152.948 47.0137C152.948 47.147 152.848 47.2803 152.648 47.4137C152.515 47.4803 152.348 47.5137 152.148 47.5137C151.948 47.5137 151.682 47.5803 151.348 47.7137C151.015 47.7803 150.715 47.8803 150.448 48.0137C150.182 48.0803 149.215 48.2803 147.548 48.6137C145.882 48.8803 143.948 49.1803 141.748 49.5137C139.615 49.847 137.648 50.147 135.848 50.4137C134.115 50.6803 133.082 50.8137 132.748 50.8137Z" fill="#F8F8F8"/>
<path d="M103.528 64.8141C103.595 64.8141 103.628 64.7141 103.628 64.5141C103.695 64.3141 103.728 64.0474 103.728 63.7141C103.595 63.0474 103.495 62.7141 103.428 62.7141V63.1141C103.428 64.2474 103.461 64.8141 103.528 64.8141ZM103.528 29.2141C103.661 29.2141 103.795 28.9807 103.928 28.5141C103.928 28.2474 103.895 28.0141 103.828 27.8141C103.828 27.5474 103.795 27.4141 103.728 27.4141C103.661 27.4141 103.561 27.6807 103.428 28.2141V28.7141C103.428 29.0474 103.461 29.2141 103.528 29.2141ZM107.228 69.4141C107.295 69.4141 107.395 69.1807 107.528 68.7141L107.628 68.3141C107.628 68.1807 107.528 68.1141 107.328 68.1141C107.128 68.3807 107.028 68.7141 107.028 69.1141C107.028 69.3141 107.061 69.4141 107.128 69.4141H107.228ZM130.728 8.61406C130.861 8.54739 131.028 8.28073 131.228 7.81406C131.495 7.28073 131.628 6.88073 131.628 6.61406L131.528 6.51406C131.461 6.51406 131.395 6.58073 131.328 6.71406C131.261 6.78072 131.161 6.91406 131.028 7.11406C130.961 7.2474 130.861 7.44739 130.728 7.71406C130.661 7.98073 130.628 8.18073 130.628 8.31406C130.628 8.51406 130.661 8.61406 130.728 8.61406ZM102.228 90.7141L101.628 90.4141C99.4281 89.6807 98.3281 88.4141 98.3281 86.6141C98.3281 85.5474 98.6948 83.3807 99.4281 80.1141C99.8948 78.2474 100.195 76.8474 100.328 75.9141C100.528 74.9807 100.628 74.1141 100.628 73.3141L100.228 70.0141C99.6281 66.0807 99.1948 59.9141 98.9281 51.5141L98.8281 49.7141C98.3615 41.5807 98.0948 37.5141 98.0281 37.5141C97.8948 37.5141 97.3615 38.3807 96.4281 40.1141L90.5281 50.8141C89.4615 52.9474 88.4281 54.9141 87.4281 56.7141C87.2948 56.9807 87.0948 57.3807 86.8281 57.9141C86.6281 58.3807 86.3615 58.8474 86.0281 59.3141L84.9281 61.4141C84.9281 61.6141 84.5615 62.4807 83.8281 64.0141C81.4948 68.4807 79.6281 71.8474 78.2281 74.1141C76.1615 77.7141 74.5281 79.5141 73.3281 79.5141L72.7281 79.4141C71.9281 79.4141 71.3948 79.4807 71.1281 79.6141C70.9281 79.7474 70.6948 79.8141 70.4281 79.8141C70.2281 79.8141 69.8615 79.7474 69.3281 79.6141C68.7948 79.4807 68.1615 79.2141 67.4281 78.8141C66.6948 78.4807 66.1615 78.0807 65.8281 77.6141C65.4948 77.1474 65.3281 76.3141 65.3281 75.1141C65.3281 71.0474 67.0948 63.1807 70.6281 51.5141C72.3615 46.1141 74.7948 39.2474 77.9281 30.9141C84.5281 13.0474 88.5948 4.11406 90.1281 4.11406H90.2281L90.3281 4.51406C90.2615 4.71406 90.1615 4.88073 90.0281 5.01406C89.9615 5.14739 89.9281 5.28073 89.9281 5.41406C89.9281 5.68072 90.0615 6.04739 90.3281 6.51406C90.6615 6.91406 91.0948 7.28073 91.6281 7.61406C91.8948 7.81406 92.1615 7.91406 92.4281 7.91406C92.5615 7.91406 92.6948 7.84739 92.8281 7.71406C92.9615 7.51406 93.1281 7.41406 93.3281 7.41406L93.7281 7.61406C93.9281 7.7474 94.4281 8.28073 95.2281 9.21406L93.2281 13.9141C89.8281 21.5807 86.2615 30.6474 82.5281 41.1141C80.1281 47.9807 78.9281 51.5474 78.9281 51.8141C78.9281 52.0141 78.5615 53.0807 77.8281 55.0141L76.2281 60.2141L74.3281 66.9141C74.3948 66.9141 74.6615 66.5141 75.1281 65.7141C76.9948 62.5141 78.5615 59.6474 79.8281 57.1141C80.4281 55.7141 80.9615 54.6807 81.4281 54.0141C81.8948 53.3474 82.1948 53.0141 82.3281 53.0141C82.3948 53.0141 82.4281 53.0474 82.4281 53.1141H82.7281L82.5281 52.3141C82.5281 52.1141 82.5948 51.8474 82.7281 51.5141C82.8615 51.1141 83.0281 50.7807 83.2281 50.5141C83.4948 50.1807 83.6948 50.0141 83.8281 50.0141L84.1281 50.1141C84.1948 50.1141 84.2281 50.0807 84.2281 50.0141V49.9141L84.1281 49.7141C84.1281 49.0474 84.2948 48.4141 84.6281 47.8141C84.9615 47.2141 85.2281 46.9141 85.4281 46.9141L85.7281 47.1141C85.7948 47.1141 85.8281 47.0807 85.8281 47.0141L85.7281 46.7141C85.7281 45.8474 87.4281 42.3141 90.8281 36.1141C93.0281 31.9807 94.7615 28.8141 96.0281 26.6141C98.0281 23.0141 99.3948 21.2141 100.128 21.2141L100.528 21.3141C100.861 21.3141 101.061 21.0141 101.128 20.4141L101.228 19.6141C101.295 19.6141 101.328 19.9474 101.328 20.6141C101.528 22.2807 101.995 23.1141 102.728 23.1141C102.995 23.1141 103.195 23.0141 103.328 22.8141C103.528 22.6141 103.728 22.5141 103.928 22.5141C104.195 22.5141 104.628 22.7807 105.228 23.3141L106.428 24.8141V38.0141C106.228 40.2807 106.128 44.3474 106.128 50.2141L106.228 57.0141C119.628 21.2141 127.061 2.94739 128.528 2.21406C128.861 2.21406 129.261 1.84739 129.728 1.11406C130.061 0.647395 130.261 0.414062 130.328 0.414062C130.395 0.414062 130.428 0.447395 130.428 0.514061C130.495 0.580727 130.528 0.647393 130.528 0.714059C130.528 0.980726 130.395 1.34739 130.128 1.81406C130.061 1.88073 130.028 1.98073 130.028 2.11406C130.028 2.51406 130.328 3.11406 130.928 3.91406C131.128 4.18073 131.295 4.44739 131.428 4.71406C131.628 4.91406 131.761 5.08073 131.828 5.21406C131.895 5.34739 131.928 5.44739 131.928 5.51406L132.428 5.01406C132.628 4.54739 132.795 4.28073 132.928 4.21406C133.061 4.21406 133.295 4.38073 133.628 4.71406C133.961 4.98073 134.195 5.2474 134.328 5.51406C134.528 5.78073 134.628 5.98072 134.628 6.11406C134.628 6.31406 134.428 6.98073 134.028 8.11406C133.028 11.1807 132.228 13.2141 131.628 14.2141L130.228 17.4141L128.228 22.3141C120.028 41.7807 113.795 58.0141 109.528 71.0141C108.528 73.8807 108.028 75.7807 108.028 76.7141C108.028 77.5807 108.161 78.5141 108.428 79.5141C108.828 81.5141 109.028 82.7474 109.028 83.2141C109.028 83.8141 108.795 84.1141 108.328 84.1141C107.728 84.1141 107.295 83.5141 107.028 82.3141C106.828 81.4474 106.695 81.0141 106.628 81.0141C106.495 81.0141 106.428 81.3141 106.428 81.9141C106.428 82.5807 106.495 83.0807 106.628 83.4141L106.828 84.1141L106.428 84.0141C106.095 84.0141 105.861 84.0807 105.728 84.2141C105.595 84.4141 105.461 84.8474 105.328 85.5141L105.028 88.3141C105.028 89.7807 104.728 90.5141 104.128 90.5141C103.795 90.5141 103.528 90.3807 103.328 90.1141C103.128 89.8474 103.028 89.2474 103.028 88.3141C103.028 86.7807 103.061 85.6141 103.128 84.8141C103.195 84.0141 103.228 83.4141 103.228 83.0141C102.695 84.9474 102.395 86.3474 102.328 87.2141C102.261 87.8141 102.228 88.4807 102.228 89.2141L102.328 89.9141C102.328 90.4474 102.295 90.7141 102.228 90.7141Z" fill="#F8F8F8"/>
<path d="M42.2734 62.0139C42.5401 62.0139 43.0734 61.9472 43.8734 61.8139C44.6734 61.6139 45.7734 61.3805 47.1734 61.1139L56.3734 59.3139C57.2401 55.1805 58.3068 50.6472 59.5734 45.7139C62.5068 33.9805 64.4068 26.6805 65.2734 23.8139C65.9401 20.9472 66.2734 19.3472 66.2734 19.0139C66.2734 18.8805 66.2401 18.8139 66.1734 18.8139C66.1734 18.8139 66.1734 18.7139 66.1734 18.5139C66.1734 18.2472 66.2734 17.7805 66.4734 17.1139C66.7401 16.3805 67.1401 15.4805 67.6734 14.4139L68.1734 13.1139L68.0734 13.0139C68.0068 13.0139 67.8068 13.3472 67.4734 14.0139C67.1401 14.6139 66.7401 15.4139 66.2734 16.4139C65.8068 17.3472 65.3401 18.1805 64.8734 18.9139C64.4734 19.5805 64.1734 19.9805 63.9734 20.1139C63.7734 20.2472 63.6401 20.3139 63.5734 20.3139C63.5734 20.1139 63.8068 19.7805 64.2734 19.3139L64.4734 18.8139C63.8734 18.8139 61.2068 23.1805 56.4734 31.9139C55.0734 34.7139 54.2734 36.2139 54.0734 36.4139C53.4734 37.2139 50.1734 43.8139 44.1734 56.2139C42.5734 59.6139 41.7734 61.4472 41.7734 61.7139C41.7734 61.9139 41.9401 62.0139 42.2734 62.0139ZM59.1734 67.7139C59.3068 67.7139 59.3734 67.5472 59.3734 67.2139C59.3734 67.1472 59.3401 67.0472 59.2734 66.9139C59.2068 66.7805 59.1401 66.7139 59.0734 66.7139C59.0068 66.7139 58.9734 66.8805 58.9734 67.2139C58.9734 67.5472 59.0068 67.7139 59.0734 67.7139H59.1734ZM58.7734 69.8139L58.9734 69.4139C58.9734 69.2805 58.9401 69.1472 58.8734 69.0139C58.8068 68.8139 58.7401 68.7139 58.6734 68.7139C58.6068 68.7139 58.5734 68.8805 58.5734 69.2139L58.6734 69.8139H58.7734ZM58.2734 72.1139L58.3734 71.9139C58.5068 71.8472 58.5734 71.7139 58.5734 71.5139C58.5734 71.3805 58.5068 71.2472 58.3734 71.1139L58.2734 70.9139C58.2068 70.9139 58.1734 71.1139 58.1734 71.5139C58.1734 71.9139 58.2068 72.1139 58.2734 72.1139ZM57.8734 74.5139C58.0068 74.5139 58.0734 74.3139 58.0734 73.9139L57.9734 73.1139H58.0734L57.9734 73.0139C57.9068 73.0139 57.8734 73.2805 57.8734 73.8139V74.5139ZM52.3734 60.9139C52.5734 60.9139 52.9068 60.8472 53.3734 60.7139C53.9068 60.5805 54.5734 60.5139 55.3734 60.5139C55.8401 60.5139 56.0734 60.4139 56.0734 60.2139C56.0734 60.0805 55.8734 60.0139 55.4734 60.0139C54.5401 60.0139 53.6734 60.1472 52.8734 60.4139C52.3401 60.6139 52.0734 60.7472 52.0734 60.8139C52.0734 60.8805 52.1734 60.9139 52.3734 60.9139ZM49.9734 61.4139C50.3068 61.4139 50.6401 61.3805 50.9734 61.3139C51.3068 61.1805 51.4734 61.0472 51.4734 60.9139C51.4734 60.8472 51.4068 60.8139 51.2734 60.8139C50.2068 60.8139 49.6734 60.9805 49.6734 61.3139C49.6734 61.3805 49.7734 61.4139 49.9734 61.4139ZM48.6734 61.7139L48.7734 61.6139C48.7068 61.4805 48.5734 61.4139 48.3734 61.4139C47.9734 61.4139 47.7734 61.4472 47.7734 61.5139C47.7734 61.6472 48.0734 61.7139 48.6734 61.7139ZM71.8734 3.01387C72.2068 3.01387 72.3734 2.91387 72.3734 2.71387C72.3734 2.38053 72.2068 2.21387 71.8734 2.21387C71.4734 2.21387 71.2734 2.3472 71.2734 2.61387C71.2734 2.7472 71.3401 2.8472 71.4734 2.91387C71.6734 2.98053 71.8068 3.01387 71.8734 3.01387ZM56.5734 84.9139C56.3068 84.9139 55.9734 84.8139 55.5734 84.6139C55.2401 84.4139 54.9068 84.1139 54.5734 83.7139C54.2401 83.3805 54.0068 83.2139 53.8734 83.2139H53.7734L53.9734 83.9139C53.9068 83.9139 53.7068 83.7805 53.3734 83.5139C53.1068 83.3139 52.9734 82.7472 52.9734 81.8139C52.9734 81.2805 53.0068 80.5139 53.0734 79.5139C53.1401 78.5805 53.2734 77.3139 53.4734 75.7139C53.6734 74.1139 53.8734 72.6139 54.0734 71.2139C54.3401 69.7472 54.5401 68.5472 54.6734 67.6139C54.8068 66.6139 54.8734 66.0805 54.8734 66.0139C54.2734 66.0139 51.5734 66.5805 46.7734 67.7139C41.3734 68.9805 38.5401 69.8139 38.2734 70.2139C37.6068 71.0805 36.9401 72.6139 36.2734 74.8139C34.3401 79.9472 32.9734 82.5139 32.1734 82.5139C32.0401 82.5139 31.9734 82.5805 31.9734 82.7139V82.9139C31.9734 83.0472 31.9068 83.2139 31.7734 83.4139C31.6401 83.6805 31.4068 83.8139 31.0734 83.8139C31.0068 83.8139 30.9401 83.7805 30.8734 83.7139L30.7734 83.6139C30.7068 83.6139 30.6734 83.6139 30.6734 83.6139C30.6734 83.6805 30.6734 83.7472 30.6734 83.8139L30.7734 84.2139C30.7734 84.2805 30.7401 84.3805 30.6734 84.5139C30.5401 84.6472 30.3734 84.7139 30.1734 84.7139C29.8401 84.7139 29.4734 84.2472 29.0734 83.3139C28.6734 82.4472 28.4734 81.3805 28.4734 80.1139C28.4734 78.5805 28.8068 76.8139 29.4734 74.8139C29.8734 73.4139 30.0734 72.5472 30.0734 72.2139V72.1139L26.4734 73.1139C25.0734 73.5139 24.1734 73.7139 23.7734 73.7139C23.5068 73.7139 23.2401 73.5472 22.9734 73.2139C22.6401 72.8805 22.1734 72.7139 21.5734 72.7139C20.9734 72.7139 20.2068 72.2472 19.2734 71.3139C18.6068 70.6472 18.2734 70.1805 18.2734 69.9139C18.2734 69.8472 18.3068 69.8139 18.3734 69.8139C18.7734 69.8139 19.1734 69.5472 19.5734 69.0139C20.0401 68.6805 21.4401 68.1139 23.7734 67.3139C26.9068 66.2472 30.1401 65.2805 33.4734 64.4139C38.0068 53.4805 43.0734 42.6472 48.6734 31.9139C55.3401 19.1805 60.8068 10.1805 65.0734 4.91387C67.3401 2.11387 68.7401 0.713867 69.2734 0.713867C69.3401 0.713867 69.3734 0.7472 69.3734 0.813866C69.3734 1.01387 69.1734 1.31387 68.7734 1.71387C68.3734 2.0472 68.1734 2.28053 68.1734 2.41387C68.1734 2.48053 68.2068 2.51387 68.2734 2.51387C68.4068 2.4472 68.5734 2.41387 68.7734 2.41387C69.0401 2.5472 69.2734 2.6472 69.4734 2.71387C69.7401 2.78054 69.9401 2.81387 70.0734 2.81387C70.4068 2.81387 70.7734 2.61387 71.1734 2.21387C71.6401 1.81387 72.0068 1.61387 72.2734 1.61387C72.6068 1.61387 72.7734 1.91387 72.7734 2.51387C72.7734 2.78053 72.9068 3.08053 73.1734 3.41387C73.4401 3.7472 73.7068 3.98054 73.9734 4.11387C74.3068 4.2472 74.5734 4.31387 74.7734 4.31387H75.2734L75.7734 4.41387C77.0401 5.01387 77.6734 6.08053 77.6734 7.61387C77.6734 8.81387 77.3734 10.3139 76.7734 12.1139C76.1734 14.2472 75.8401 15.5139 75.7734 15.9139C75.7068 16.3139 75.4068 17.3805 74.8734 19.1139L68.0734 41.8139C64.8068 53.4805 63.1734 60.0472 63.1734 61.5139V61.7139C63.5068 62.0472 63.8734 62.2139 64.2734 62.2139C64.6734 62.2139 65.0401 62.3472 65.3734 62.6139C65.9068 63.2139 66.1734 63.7139 66.1734 64.1139C66.1734 64.2472 66.1401 64.3472 66.0734 64.4139L65.9734 64.5139C65.9068 64.5139 65.8734 64.4472 65.8734 64.3139C65.8734 64.1139 65.5068 64.0139 64.7734 64.0139L62.2734 64.3139L60.8734 71.8139C60.2068 75.5472 59.8401 77.7472 59.7734 78.4139C59.5734 79.3472 59.4401 80.9805 59.3734 83.3139C59.3068 83.9805 59.2401 84.3139 59.1734 84.3139L58.9734 84.2139C58.7734 84.1472 58.5068 84.0805 58.1734 84.0139C57.9068 83.9472 57.7068 83.8139 57.5734 83.6139C57.4401 83.4139 57.3734 82.9805 57.3734 82.3139L57.4734 78.4139L57.6734 75.3139L57.5734 75.1139C57.5068 75.2472 57.4068 75.6805 57.2734 76.4139C57.1401 77.2139 57.0068 78.2472 56.8734 79.5139C56.7401 80.8472 56.6734 81.8472 56.6734 82.5139C56.6734 83.1805 56.7401 83.5805 56.8734 83.7139C57.2068 84.0472 57.3734 84.3139 57.3734 84.5139C57.3734 84.7805 57.1068 84.9139 56.5734 84.9139Z" fill="#F8F8F8"/>
<path d="M5.6 77.0139C5.93333 77.0139 6.1 76.8805 6.1 76.6139C6.1 76.2805 5.93333 76.1139 5.6 76.1139C5.33333 76.1139 5.2 76.2805 5.2 76.6139C5.2 76.8805 5.33333 77.0139 5.6 77.0139ZM9.6 80.4139C9.73333 80.4139 9.86667 80.3472 10 80.2139C10.2 80.1472 10.3 80.0805 10.3 80.0139C10.3 79.6805 10.0667 79.5139 9.6 79.5139C9.46667 79.5139 9.23333 79.5472 8.9 79.6139C8.63333 79.6805 8.36667 79.7805 8.1 79.9139C7.9 80.1139 7.8 80.2472 7.8 80.3139C7.8 80.3805 8.26667 80.4139 9.2 80.4139H9.6ZM38.3 5.51387C38.6333 5.51387 38.8 5.4472 38.8 5.31386C38.8 5.11387 38.7 5.01387 38.5 5.01387C38.3667 5.01387 38.2333 5.08053 38.1 5.21387C37.9667 5.28053 37.9 5.3472 37.9 5.41386C37.9 5.48053 38.0333 5.51387 38.3 5.51387ZM9.2 80.8139H8.3C7.9 80.8139 7.63333 80.7139 7.5 80.5139C7.36667 80.3139 7.03333 80.0472 6.5 79.7139C6.03333 79.4472 5.46667 79.1472 4.8 78.8139C3.46667 78.1472 2.5 77.3805 1.9 76.5139C1.3 75.6472 0.833333 74.3472 0.5 72.6139C0.166667 70.9472 0 68.9139 0 66.5139C0 57.9805 1.23333 49.3805 3.7 40.7139C4.7 37.5139 5.4 35.8139 5.8 35.6139C6.2 35.0805 6.5 34.6472 6.7 34.3139C6.96667 33.9805 7.13333 33.8139 7.2 33.8139L6.8 34.8139C6.8 34.8805 6.83333 34.9805 6.9 35.1139C6.96667 35.1805 7.33333 35.2139 8 35.2139L9.5 35.5139L9.2 36.7139C7.6 40.7805 6.3 45.9805 5.3 52.3139C4.5 57.5805 4.1 62.5472 4.1 67.2139C4.1 72.2805 4.43333 74.9472 5.1 75.2139H5.2C5.26667 75.2139 5.3 75.1139 5.3 74.9139C5.3 74.5805 5.2 73.9805 5 73.1139C4.6 71.3139 4.4 69.1139 4.4 66.5139C4.4 63.5139 4.76667 59.1139 5.5 53.3139C6.3 46.8472 7.86667 40.9805 10.2 35.7139C10.4667 36.0472 10.7 36.3805 10.9 36.7139C11.1667 36.9805 11.3333 37.1805 11.4 37.3139C11.4667 37.4472 11.5 37.6139 11.5 37.8139L11.4 38.5139C10.6667 40.2472 9.83333 43.4472 8.9 48.1139C8.16667 51.7139 7.63333 54.9805 7.3 57.9139C7.16667 59.6472 7.1 62.7805 7.1 67.3139C7.1 71.9805 7.26667 74.3139 7.6 74.3139C8.26667 74.3139 9.63333 72.3472 11.7 68.4139C13.8333 64.4139 16.4 58.8472 19.4 51.7139C19.9333 50.4472 20.6667 48.5805 21.6 46.1139C22.5333 43.6472 23.4667 41.0805 24.4 38.4139C25.4 35.7472 26.2333 33.4139 26.9 31.4139C27.6333 29.4139 28 28.3472 28 28.2139C28 27.9472 27.9333 27.6805 27.8 27.4139C27.6667 27.0805 27.5333 26.8139 27.4 26.6139L27.1 26.3139C27.1667 26.3139 27.2667 26.3472 27.4 26.4139C27.5333 26.4805 27.6667 26.5139 27.8 26.5139C27.9333 26.5139 28 26.3805 28 26.1139C28 25.6472 27.9 25.4139 27.7 25.4139C27.5667 25.4139 27.5 25.3472 27.5 25.2139C27.5 24.0139 29.1333 20.0472 32.4 13.3139C30.6667 13.6472 29 14.1805 27.4 14.9139C26.0667 15.4472 25.4 15.7805 25.4 15.9139L25.6 16.0139C25.6 16.1472 24.8333 16.3472 23.3 16.6139C22.2333 16.8805 21.4667 17.0139 21 17.0139C20.6 17.0139 20.3333 16.9472 20.2 16.8139C20.1333 16.6805 20.1 16.5139 20.1 16.3139C20.1 16.1139 20.1667 15.8805 20.3 15.6139C20.4333 15.3472 20.5 15.1805 20.5 15.1139C20.5 15.0472 20.3333 15.0139 20 15.0139C19.7333 15.0139 19.3333 14.7805 18.8 14.3139C18.3333 13.8472 17.9 13.3139 17.5 12.7139C17.1 12.1139 16.8667 11.6139 16.8 11.2139C16.8 10.6139 18 9.6472 20.4 8.31387C22.8667 6.98053 27.2333 5.88053 33.5 5.01387C40.3 4.1472 45.4333 3.71387 48.9 3.71387C50.5667 3.71387 51.6333 3.81387 52.1 4.01386V4.11387C52.1 4.18053 51.9 4.2472 51.5 4.31387C51.1 4.38053 49.5667 4.41386 46.9 4.41386L42.9 4.71387C42.9 4.78053 44.0333 4.88053 46.3 5.01387L49.8 5.31386C50.4667 5.4472 50.9333 5.61387 51.2 5.81386C51.5333 5.9472 51.8333 6.18053 52.1 6.51387C52.3667 6.8472 52.6333 7.11387 52.9 7.31387C53.2333 7.51387 53.5333 7.61386 53.8 7.61386C54.0667 7.61386 54.7667 8.4472 55.9 10.1139L53 10.3139C50.6667 10.3139 48.3667 10.4472 46.1 10.7139C43.8333 10.9805 42.6333 11.2805 42.5 11.6139C42.5 11.8139 42.5333 12.0139 42.6 12.2139C42.7333 12.4139 42.8 12.7139 42.8 13.1139C42.8 14.7139 40.2667 22.1139 35.2 35.3139C32.7333 41.9139 30.8333 46.6139 29.5 49.4139L28.4 52.0139C27.8 53.4139 27 55.1805 26 57.3139C25 59.4472 24.0333 61.5139 23.1 63.5139C22.2333 65.4472 21.5667 66.8472 21.1 67.7139C20.7667 68.1805 20.5 68.6472 20.3 69.1139C18.0333 73.5805 15.2667 77.1805 12 79.9139C11.2667 80.5139 10.3333 80.8139 9.2 80.8139Z" fill="#F8F8F8"/>
</svg>
