<svg width="308" height="197" viewBox="0 0 308 197" fill="none" xmlns="http://www.w3.org/2000/svg">
<path d="M279.219 130.1C279.219 129.834 278.885 129.167 278.219 128.1C276.085 124.634 274.885 122.9 274.619 122.9V123.1C274.619 123.634 274.885 124.5 275.419 125.7C276.085 126.767 276.819 127.767 277.619 128.7C278.419 129.634 278.952 130.1 279.219 130.1ZM281.419 126.3C281.819 126.3 282.752 124.9 284.219 122.1C290.619 109.834 294.085 99.5002 294.619 91.1002L294.819 86.7002C294.819 85.5002 294.752 84.9002 294.619 84.9002C292.885 84.9002 290.619 86.5002 287.819 89.7002C285.019 92.9002 282.685 96.5002 280.819 100.5C278.952 104.5 278.019 108.967 278.019 113.9C278.019 117.234 278.485 120.167 279.419 122.7C280.485 125.1 281.152 126.3 281.419 126.3ZM297.219 77.3002L296.619 75.9002C295.152 73.3669 292.952 72.1002 290.019 72.1002H288.819C287.085 72.3669 286.219 72.6335 286.219 72.9002C286.219 73.1669 287.152 73.3669 289.019 73.5002C291.019 73.6335 292.019 73.9002 292.019 74.3002V74.7002C292.019 74.9669 292.285 75.2335 292.819 75.5002C293.352 75.7669 293.885 76.0335 294.419 76.3002C294.952 76.4335 295.485 76.6335 296.019 76.9002C296.552 77.1669 296.885 77.3002 297.019 77.3002H297.219ZM296.619 116.3C297.152 116.3 298.219 114.034 299.819 109.5C300.885 105.9 301.419 103.834 301.419 103.3V102.9C301.285 102.9 301.019 103.3 300.619 104.1C299.685 106.234 298.752 109.167 297.819 112.9L296.619 116.3ZM302.619 89.9002C302.752 89.9002 302.885 89.7002 303.019 89.3002C303.019 88.7669 302.752 87.7669 302.219 86.3002C301.419 84.1669 300.819 83.1002 300.419 83.1002C300.019 83.1002 299.819 83.3002 299.819 83.7002C300.485 85.0335 301.085 86.4335 301.619 87.9002C302.152 89.2335 302.485 89.9002 302.619 89.9002ZM301.819 100.3C302.085 100.3 302.219 99.7669 302.219 98.7002C302.219 97.5002 302.085 96.9002 301.819 96.9002C301.685 96.9002 301.619 97.5002 301.619 98.7002C301.619 99.7669 301.685 100.3 301.819 100.3ZM294.219 121.9C294.352 121.9 294.685 121.367 295.219 120.3C296.019 119.5 296.419 118.634 296.419 117.7V117.5C296.285 117.5 295.952 117.9 295.419 118.7C295.019 119.5 294.685 120.167 294.419 120.7C294.285 121.1 294.219 121.434 294.219 121.7V121.9ZM248.819 155.3C249.885 155.3 252.152 154.434 255.619 152.7C263.085 148.834 269.285 143.834 274.219 137.7L277.819 133.1L272.819 127.9C270.552 125.367 268.352 122.367 266.219 118.9C264.219 115.434 263.219 112.967 263.219 111.5C263.219 111.234 263.152 111.1 263.019 111.1C262.885 111.234 262.552 111.567 262.019 112.1C261.619 112.5 261.419 113.1 261.419 113.9L261.619 114.5C261.619 114.767 261.419 114.9 261.019 114.9C260.619 114.9 260.419 115.034 260.419 115.3L260.619 115.9C260.619 116.434 260.352 116.967 259.819 117.5C259.285 118.034 259.019 118.5 259.019 118.9V119.3C259.019 119.567 258.819 119.7 258.419 119.7C258.019 119.7 257.819 119.834 257.819 120.1L257.619 122.1C257.085 123.834 256.485 124.7 255.819 124.7H255.219C255.219 124.834 255.285 124.967 255.419 125.1C255.552 125.1 255.619 125.167 255.619 125.3C255.619 126.1 255.285 127.034 254.619 128.1L253.619 130.5H253.819L253.419 131.5C252.085 133.634 251.419 135.167 251.419 136.1C251.419 136.9 251.152 137.567 250.619 138.1L249.819 140.7C249.019 143.1 248.485 145.234 248.219 147.1C247.819 149.9 247.619 151.834 247.619 152.9C247.619 154.5 248.019 155.3 248.819 155.3ZM252.819 166.5L253.019 166.3C253.019 166.034 252.419 165.9 251.219 165.9C250.019 165.9 249.419 166.034 249.419 166.3C249.419 166.434 250.552 166.5 252.819 166.5ZM249.219 157.7C249.752 157.7 250.219 157.634 250.619 157.5C251.019 157.367 251.285 157.234 251.419 157.1C251.685 156.834 251.819 156.634 251.819 156.5C251.819 156.367 251.685 156.3 251.419 156.3C251.019 156.3 250.219 156.567 249.019 157.1C248.352 157.367 248.019 157.567 248.019 157.7H249.219ZM250.619 168.9C249.819 168.9 249.219 168.834 248.819 168.7C248.552 168.567 248.219 168.367 247.819 168.1C238.619 162.767 233.085 158.567 231.219 155.5C229.885 153.234 229.219 149.767 229.219 145.1C229.219 136.3 231.885 126.634 237.219 116.1C248.685 93.8335 261.019 78.7669 274.219 70.9002C275.685 70.1002 276.752 69.7002 277.419 69.7002C278.219 69.7002 278.752 69.9002 279.019 70.3002C279.419 70.5669 279.685 70.8335 279.819 71.1002C279.952 71.2335 280.085 71.9669 280.219 73.3002C280.085 73.3002 279.952 73.0335 279.819 72.5002C279.685 71.4335 279.085 70.9002 278.019 70.9002C277.485 70.9002 276.752 71.1002 275.819 71.5002C275.419 71.6335 275.219 71.7669 275.219 71.9002C275.219 72.3002 276.019 72.7002 277.619 73.1002C278.552 73.3669 279.285 73.5002 279.819 73.5002C280.752 73.5002 281.619 73.2335 282.419 72.7002C284.285 71.2335 286.285 70.5002 288.419 70.5002C289.219 70.5002 290.485 70.7002 292.219 71.1002C293.952 71.3669 295.752 72.9669 297.619 75.9002C298.952 77.9002 300.352 79.5002 301.819 80.7002C304.885 83.9002 306.819 87.7669 307.619 92.3002C307.752 92.9669 307.819 93.7669 307.819 94.7002C307.819 98.1669 306.952 102.9 305.219 108.9C303.485 114.9 300.219 122.767 295.419 132.5C294.619 133.834 294.219 134.767 294.219 135.3C294.219 135.7 294.419 135.9 294.819 135.9C295.352 135.9 295.952 136.1 296.619 136.5C299.152 137.967 300.419 139.234 300.419 140.3C300.419 140.567 300.285 140.834 300.019 141.1C299.752 141.367 299.285 141.5 298.619 141.5C298.219 141.5 296.685 141.167 294.019 140.5C292.685 140.1 291.752 139.9 291.219 139.9C290.419 139.9 290.019 140.034 290.019 140.3C290.019 140.434 290.219 140.567 290.619 140.7C291.019 140.834 291.352 140.967 291.619 141.1C292.819 141.5 294.019 141.7 295.219 141.7L295.419 142.1C295.019 142.5 293.952 142.7 292.219 142.7L291.219 142.5C289.885 142.5 288.285 143.767 286.419 146.3C279.352 154.834 271.152 161.434 261.819 166.1C257.819 167.967 254.085 168.9 250.619 168.9Z" fill="#F8F8F8"/>
<path d="M190.327 124.5C190.727 124.5 191.327 124.3 192.127 123.9C193.327 123.1 197.594 119.166 204.927 112.1C208.927 108.1 211.927 104.433 213.927 101.1C214.994 99.2331 215.527 98.0998 215.527 97.6998L215.327 97.4998H214.927C214.661 97.4998 214.527 97.2998 214.527 96.8998C214.527 95.9665 214.727 95.3665 215.127 95.0998C215.927 94.2998 216.594 92.8331 217.127 90.6998L217.727 88.8998C217.594 88.8998 217.461 89.0331 217.327 89.2998C217.194 89.5665 216.461 90.6998 215.127 92.6998C214.461 93.4998 213.861 94.3665 213.327 95.2998C211.327 98.3665 210.061 99.8998 209.527 99.8998C209.127 99.6331 208.927 99.2998 208.927 98.8998C208.927 98.0998 209.194 97.6998 209.727 97.6998C210.394 97.6998 210.727 97.2331 210.727 96.2998C210.727 95.4998 210.661 95.0998 210.527 95.0998C210.394 95.0998 209.994 95.5665 209.327 96.4998C208.127 97.9665 207.127 98.6998 206.327 98.6998C205.661 98.6998 203.261 101.566 199.127 107.3C195.127 113.033 193.127 116.3 193.127 117.1C193.127 117.9 192.927 118.3 192.527 118.3C192.261 118.3 191.927 118.633 191.527 119.3C190.461 120.633 189.927 121.9 189.927 123.1C189.927 123.5 189.594 123.7 188.927 123.7V123.9C188.927 124.033 189.061 124.166 189.327 124.3C189.727 124.433 190.061 124.5 190.327 124.5ZM181.327 171.3C182.927 171.3 184.461 170.833 185.927 169.9L186.727 169.5L186.527 169.3L185.727 169.5C184.527 169.9 183.127 170.1 181.527 170.1C179.927 170.1 179.127 170.166 179.127 170.3C179.127 170.433 179.261 170.633 179.527 170.9C179.927 171.166 180.527 171.3 181.327 171.3ZM182.727 179.7C183.927 179.7 184.527 179.566 184.527 179.3L183.927 179.1C183.661 178.966 183.261 178.9 182.727 178.9C182.194 178.9 181.794 178.966 181.527 179.1L180.927 179.3C180.927 179.566 181.527 179.7 182.727 179.7ZM229.927 142.1V141.9C230.061 141.9 230.127 141.766 230.127 141.5V141.3V141.1L229.727 141.7L229.927 142.1ZM185.327 182.7C184.261 182.7 183.127 182.5 181.927 182.1C180.727 181.833 178.661 180.7 175.727 178.7C172.927 176.7 170.194 174.5 167.527 172.1C164.861 169.833 162.994 168.033 161.927 166.7C159.661 163.1 158.527 158.633 158.527 153.3C158.527 149.833 159.461 144.433 161.327 137.1C163.061 129.633 167.461 120.366 174.527 109.3C181.727 98.2331 190.394 88.8998 200.527 81.2998C204.927 77.9665 208.394 76.2998 210.927 76.2998C211.861 76.2998 212.594 76.5665 213.127 77.0998C213.794 77.4998 214.261 77.9665 214.527 78.4998C214.927 78.8998 215.127 79.2998 215.127 79.6998C215.127 80.0998 215.061 80.2998 214.927 80.2998C214.794 80.2998 214.594 80.0331 214.327 79.4998C213.794 78.1665 212.727 77.4998 211.127 77.4998C210.327 77.4998 209.594 77.6998 208.927 78.0998C208.261 78.4998 207.927 78.7665 207.927 78.8998C207.927 79.0331 208.394 79.0998 209.327 79.0998C210.394 79.0998 211.594 79.6998 212.927 80.8998C214.394 81.9665 215.727 82.4998 216.927 82.4998C218.261 82.4998 219.127 82.7665 219.527 83.2998C219.927 83.6998 220.261 83.8998 220.527 83.8998C220.927 83.8998 221.127 83.6331 221.127 83.0998L220.927 81.0998C221.061 81.0998 221.261 81.2998 221.527 81.6998C222.194 82.4998 222.527 83.5665 222.527 84.8998C222.527 86.0998 222.927 86.9665 223.727 87.4998C224.527 88.4331 224.927 90.0331 224.927 92.2998C224.927 94.5665 224.527 96.8998 223.727 99.2998C223.061 100.766 222.727 101.766 222.727 102.3H222.927C223.461 102.3 224.127 100.966 224.927 98.2998C225.727 94.8331 226.127 92.2998 226.127 90.6998C226.127 87.8998 226.327 86.4998 226.727 86.4998C226.861 86.4998 227.127 86.6998 227.527 87.0998C229.527 89.0998 230.527 91.4331 230.527 94.0998C230.527 97.5665 228.661 102.5 224.927 108.9C221.327 115.166 214.994 121.766 205.927 128.7C198.327 134.166 192.194 136.9 187.527 136.9C186.194 136.9 185.194 136.966 184.527 137.1C183.994 137.1 183.594 137.3 183.327 137.7C182.127 139.433 181.061 142.1 180.127 145.7L179.127 149.3C177.794 154.9 177.127 159.566 177.127 163.3C177.127 165.966 177.394 167.433 177.927 167.7C178.594 168.1 179.527 168.3 180.727 168.3C184.994 168.3 190.994 165.766 198.727 160.7C202.061 158.566 205.127 156.1 207.927 153.3C217.394 144.9 222.527 140.1 223.327 138.9C224.794 137.3 225.994 136.5 226.927 136.5C228.127 136.5 229.594 137.3 231.327 138.9C233.194 140.5 234.127 142.1 234.127 143.7C233.861 145.833 231.594 149.166 227.327 153.7C209.594 173.033 195.594 182.7 185.327 182.7Z" fill="#F8F8F8"/>
<path d="M98.6172 157.9C100.751 156.434 102.751 155.034 104.617 153.7C106.617 152.367 109.084 150.434 112.017 147.9C119.351 141.634 126.151 134.634 132.417 126.9C135.884 122.634 139.284 117.7 142.617 112.1C141.684 113.034 140.684 114.034 139.617 115.1C138.551 116.167 137.751 116.767 137.217 116.9C136.817 117.034 136.484 117.1 136.217 117.1C135.817 117.1 135.351 116.967 134.817 116.7C134.284 116.434 133.751 116.3 133.217 116.3C132.417 116.3 131.884 116.367 131.617 116.5C131.484 116.634 131.351 116.7 131.217 116.7C130.817 116.7 130.284 116.567 129.617 116.3C129.084 116.034 128.551 115.7 128.017 115.3C127.617 114.767 127.417 114.3 127.417 113.9L127.617 113.3C127.617 113.167 127.551 113.034 127.417 112.9C127.417 112.634 127.284 112.5 127.017 112.5L127.217 111.3C127.351 110.767 128.551 108.7 130.817 105.1L135.217 97.5002L132.617 99.9002C129.951 102.567 126.817 106.234 123.217 110.9C119.617 115.434 117.817 118.034 117.817 118.7L118.017 118.9C118.017 119.167 117.484 119.567 116.417 120.1C115.484 120.634 114.684 121.967 114.017 124.1C113.751 124.9 112.884 126.234 111.417 128.1C111.017 128.5 110.751 128.834 110.617 129.1C110.617 129.234 110.551 129.567 110.417 130.1L110.617 130.7C110.617 130.967 110.484 131.1 110.217 131.1C109.951 131.1 109.551 131.434 109.017 132.1C108.617 132.767 108.217 133.567 107.817 134.5C107.551 135.3 107.417 135.834 107.417 136.1C107.417 136.367 107.351 136.567 107.217 136.7C107.217 136.7 107.084 136.767 106.817 136.9C106.551 136.9 106.417 136.967 106.417 137.1L106.617 137.9V138.1C106.484 138.234 106.284 138.3 106.017 138.3C105.884 138.3 105.684 138.367 105.417 138.5C105.284 138.634 105.217 138.967 105.217 139.5C105.217 139.9 105.151 140.367 105.017 140.9C104.617 142.5 104.084 143.3 103.417 143.3C103.284 143.3 103.217 143.367 103.217 143.5C103.217 143.5 103.217 143.567 103.217 143.7L103.417 144.5H103.217C103.217 144.634 103.017 144.7 102.617 144.7C102.217 144.7 102.017 144.967 102.017 145.5C102.151 145.5 102.217 145.567 102.217 145.7C102.217 145.967 101.884 146.7 101.217 147.9C100.951 148.434 100.817 148.967 100.817 149.5L101.017 149.9L100.217 150.3C99.6839 150.7 99.1505 153.234 98.6172 157.9ZM98.6172 171.3C98.6172 171.167 98.4839 171.034 98.2172 170.9C97.9505 170.767 97.5505 170.7 97.0172 170.7C96.4839 170.7 96.0839 170.767 95.8172 170.9C95.5505 171.034 95.4172 171.167 95.4172 171.3H98.6172ZM135.417 116.5C135.684 116.5 136.151 116.1 136.817 115.3L137.617 114.1C137.484 114.1 137.017 114.434 136.217 115.1C135.551 115.767 135.217 116.167 135.217 116.3C135.217 116.434 135.284 116.5 135.417 116.5ZM136.617 79.7002C138.217 79.4335 139.284 79.0335 139.817 78.5002L137.617 78.1002C137.084 78.1002 136.284 78.2335 135.217 78.5002C134.284 78.7669 133.817 79.0335 133.817 79.3002C133.817 79.5669 134.284 79.7002 135.217 79.7002H136.617ZM144.217 196.7C143.551 196.7 143.217 196.367 143.217 195.7C143.217 195.034 143.151 194.634 143.017 194.5V194.3L142.617 194.5C141.551 194.5 140.417 194.1 139.217 193.3C138.017 192.634 137.151 192.1 136.617 191.7C136.084 191.3 135.751 190.7 135.617 189.9L135.217 186.7C135.217 183.767 135.684 178.9 136.617 172.1C137.551 165.3 138.817 158.234 140.417 150.9C141.751 146.1 142.417 143.034 142.417 141.7C142.151 141.7 140.417 143.434 137.217 146.9C134.417 149.967 130.484 153.7 125.417 158.1C117.017 165.3 110.217 170.034 105.017 172.3C102.351 173.5 100.217 174.1 98.6172 174.1C97.5505 174.1 96.6172 174.034 95.8172 173.9C95.0172 173.767 91.8172 171.967 86.2172 168.5C85.2839 167.834 84.2172 167.167 83.0172 166.5C80.0839 164.634 78.6172 161.5 78.6172 157.1C78.6172 151.634 80.8172 144.367 85.2172 135.3C93.8839 117.7 104.684 102.434 117.617 89.5002C126.151 80.8335 132.684 76.5002 137.217 76.5002C139.617 76.5002 141.484 77.7002 142.817 80.1002C144.284 81.8335 145.551 82.9002 146.617 83.3002C147.684 83.5669 149.017 84.5669 150.617 86.3002C152.351 87.9002 153.217 89.7669 153.217 91.9002C153.217 94.8335 151.884 98.5002 149.217 102.9L147.617 105.7C148.417 105.7 150.417 102.5 153.617 96.1002L169.017 64.5002C172.217 57.7002 176.017 50.5002 180.417 42.9002C184.817 35.3002 188.951 28.7002 192.817 23.1002C201.617 10.5669 207.084 3.90019 209.217 3.10019C210.684 2.70019 211.751 2.10019 212.417 1.30019C213.084 0.900193 213.684 0.700195 214.217 0.700195C214.751 0.833527 215.084 1.10019 215.217 1.50019V1.70019C215.217 2.10019 215.084 2.56685 214.817 3.10019C214.551 3.50019 214.417 3.76686 214.417 3.90019C214.417 4.03352 214.417 4.16686 214.417 4.3002C214.417 4.43353 214.684 4.50019 215.217 4.50019L215.817 4.3002C215.951 4.3002 216.084 4.43353 216.217 4.70019C216.484 4.83352 216.617 5.03352 216.617 5.3002C216.617 5.56686 216.817 5.96686 217.217 6.50019C217.617 7.03353 218.084 7.56686 218.617 8.1002C219.284 8.50019 219.951 9.10019 220.617 9.9002C221.284 10.7002 221.817 11.4335 222.217 12.1002C222.751 12.7669 223.217 13.4335 223.617 14.1002L216.417 25.5002C200.951 49.6335 187.884 74.0335 177.217 98.7002C173.884 106.967 171.951 111.567 171.417 112.5L170.417 115.5C170.284 116.567 169.951 117.5 169.417 118.3C169.017 119.1 168.617 120.034 168.217 121.1C167.817 122.034 167.484 122.9 167.217 123.7C167.084 123.834 167.017 124.1 167.017 124.5C163.684 131.167 159.284 146.634 153.817 170.9C151.817 179.3 150.551 185.634 150.017 189.9C149.884 192.7 149.417 194.1 148.617 194.1C148.351 194.1 148.084 194.034 147.817 193.9C147.551 193.767 147.351 193.7 147.217 193.7C146.551 193.7 146.084 194.167 145.817 195.1C145.551 196.167 145.017 196.7 144.217 196.7Z" fill="#F8F8F8"/>
<path d="M107.504 49.9004C106.971 49.9004 106.037 49.8337 104.704 49.7004C103.371 49.5671 101.971 48.9671 100.504 47.9004C99.1706 46.7004 98.5039 45.5671 98.5039 44.5004C98.5039 42.9004 100.237 38.9671 103.704 32.7004C106.104 28.1671 107.971 25.9004 109.304 25.9004C109.704 25.9004 109.904 26.3671 109.904 27.3004C109.904 28.1004 109.704 28.5004 109.304 28.5004L108.304 28.1004C108.171 28.1004 108.104 28.1671 108.104 28.3004C108.104 28.8337 108.971 29.8337 110.704 31.3004C111.771 32.2337 112.637 32.7004 113.304 32.7004C113.571 32.7004 113.904 32.5671 114.304 32.3004C114.704 32.0337 115.171 31.9004 115.704 31.9004C116.104 32.0337 116.837 32.4337 117.904 33.1004C118.971 33.6337 119.504 34.3671 119.504 35.3004C119.504 36.1004 118.904 37.1004 117.704 38.3004C116.637 39.3671 115.371 41.2337 113.904 43.9004C113.237 45.1004 112.504 46.2337 111.704 47.3004C111.037 48.2337 110.571 48.9004 110.304 49.3004C109.637 49.7004 108.704 49.9004 107.504 49.9004ZM66.7039 183.5C65.2372 182.967 64.5039 182.7 64.5039 182.7L54.5039 177.7V171.7C54.6372 167.434 55.9706 160.567 58.5039 151.1C60.9039 141.5 64.1039 130.767 68.1039 118.9C69.5706 115.034 70.3039 112.767 70.3039 112.1C70.3039 111.967 70.2372 111.9 70.1039 111.9L69.5039 112.1C68.9706 112.1 68.7039 111.9 68.7039 111.5C68.7039 109.9 70.0372 106.767 72.7039 102.1C73.5039 100.9 74.3706 99.3671 75.3039 97.5004L80.3039 87.7004C84.5706 79.5671 87.5706 75.5004 89.3039 75.5004C89.9706 75.5004 90.3039 75.7671 90.3039 76.3004C90.3039 76.5671 90.1706 76.9671 89.9039 77.5004C89.6372 78.0337 89.5039 78.4337 89.5039 78.7004L89.7039 79.5004H90.5039C90.6372 79.3671 90.7706 79.1004 90.9039 78.7004C91.0372 78.1671 91.3706 77.9004 91.9039 77.9004L93.5039 79.3004C94.4372 80.2337 95.3039 80.7004 96.1039 80.7004C97.0372 80.7004 98.3039 81.6337 99.9039 83.5004C101.371 84.8337 102.104 85.9671 102.104 86.9004C102.104 87.3004 102.037 87.7671 101.904 88.3004C101.771 88.8337 101.704 89.3004 101.704 89.7004C101.704 89.9671 101.704 90.1671 101.704 90.3004L101.904 90.9004C101.904 91.1671 101.704 91.3004 101.304 91.3004C100.904 91.3004 100.637 91.3671 100.504 91.5004L100.704 92.5004C100.704 92.7671 100.504 93.1004 100.104 93.5004C99.8372 93.7671 99.7039 94.0337 99.7039 94.3004C99.7039 94.4337 99.7706 94.5004 99.9039 94.5004C100.037 94.5004 100.104 94.5671 100.104 94.7004L99.9039 95.1004C99.3706 96.1671 98.9706 97.1004 98.7039 97.9004V98.5004C98.5706 99.0337 98.2372 99.3004 97.7039 99.3004C97.3039 99.3004 97.1039 99.4337 97.1039 99.7004L97.3039 99.9004C97.3039 100.567 97.1706 101.3 96.9039 102.1C96.6372 102.367 96.4372 102.7 96.3039 103.1C96.1706 103.367 96.1039 103.767 96.1039 104.3C96.1039 104.834 95.9039 105.1 95.5039 105.1C95.2372 105.1 95.1039 105.167 95.1039 105.3C95.1039 105.434 95.1039 105.567 95.1039 105.7L95.3039 106.3V106.5C95.1706 106.634 94.9039 106.7 94.5039 106.7C94.2372 106.7 94.1039 106.9 94.1039 107.3L94.3039 108.1C94.1706 108.367 93.9706 108.634 93.7039 108.9C93.4372 109.034 93.3039 109.167 93.3039 109.3C93.3039 109.567 93.3706 109.767 93.5039 109.9C93.6372 110.034 93.7039 110.167 93.7039 110.3V110.5C93.5706 110.634 93.1706 110.767 92.5039 110.9L92.7039 111.5L92.5039 112.3C91.5706 114.167 91.1039 115.367 91.1039 115.9C91.2372 115.9 91.3039 115.967 91.3039 116.1L91.1039 116.3C90.9706 116.434 90.7039 116.5 90.3039 116.5C90.0372 116.5 89.9039 116.7 89.9039 117.1C89.9039 117.5 89.1706 119.3 87.7039 122.5C82.3706 134.234 77.5706 147.967 73.3039 163.7C71.3039 170.634 70.3039 175.3 70.3039 177.7C70.3039 179.034 70.2372 179.767 70.1039 179.9C69.9706 180.167 69.5039 180.3 68.7039 180.3L67.9039 180.1C67.3706 180.1 67.1039 180.634 67.1039 181.7C67.1039 182.767 66.9706 183.367 66.7039 183.5Z" fill="#F8F8F8"/>
<path d="M9.69922 178.701C8.76589 178.701 7.63255 178.367 6.29922 177.701C2.56589 176.234 0.699219 172.367 0.699219 166.101C0.699219 155.701 4.23255 136.634 11.2992 108.901C15.2992 93.3006 19.5659 78.6339 24.0992 64.9006C27.9659 53.3006 30.3659 46.3006 31.2992 43.9006C32.4992 40.8339 33.3659 39.1673 33.8992 38.9006C34.4326 38.6339 34.8326 38.3006 35.0992 37.9006C35.3659 37.5006 35.4992 37.2339 35.4992 37.1006C35.4992 36.8339 35.6326 36.5006 35.8992 36.1006C36.2992 35.5673 36.6326 35.3006 36.8992 35.3006C37.1659 35.3006 37.2992 35.5006 37.2992 35.9006L36.8992 38.1006C36.8992 38.6339 37.0326 39.1006 37.2992 39.5006C37.5659 39.9006 38.0992 40.3673 38.8992 40.9006C39.6992 41.3006 40.3659 41.7673 40.8992 42.3006C41.4326 42.7006 41.6992 42.9673 41.6992 43.1006C41.6992 43.2339 41.7659 43.3006 41.8992 43.3006C42.1659 43.3006 42.8326 42.2339 43.8992 40.1006C44.6992 40.7673 45.4326 41.4339 46.0992 42.1006C46.8992 42.6339 47.4992 43.1673 47.8992 43.7006C48.4326 44.2339 48.6992 44.7006 48.6992 45.1006C48.6992 45.3673 48.2992 46.8339 47.4992 49.5006C46.6992 52.0339 45.8326 54.9673 44.8992 58.3006C42.6326 65.7673 40.9659 70.7006 39.8992 73.1006C38.1659 76.9673 34.6326 87.9006 29.2992 105.901C24.0992 123.767 21.4992 133.634 21.4992 135.501C21.7659 135.501 23.0326 133.834 25.2992 130.501C27.5659 127.167 30.3659 122.701 33.6992 117.101C54.2326 84.0339 72.6992 56.6339 89.0992 34.9006C93.0992 29.7006 96.6326 25.4339 99.6992 22.1006C102.766 18.7673 104.633 17.1006 105.299 17.1006C105.433 17.2339 105.499 17.4339 105.499 17.7006C105.366 18.1006 105.166 18.4339 104.899 18.7006C104.766 18.8339 104.699 19.0339 104.699 19.3006C104.699 19.9673 105.299 21.0339 106.499 22.5006C107.833 23.9673 108.766 24.7006 109.299 24.7006H109.499C109.899 24.0339 110.366 23.7006 110.899 23.7006C111.166 23.7006 111.499 23.8339 111.899 24.1006C112.299 24.2339 112.766 24.7006 113.299 25.5006C113.833 26.3006 114.099 26.9673 114.099 27.5006C114.099 28.3006 113.366 29.5673 111.899 31.3006C91.8992 57.5673 73.4326 83.8339 56.4992 110.101C54.3659 113.301 52.4992 116.034 50.8992 118.301C49.4326 120.567 48.4992 122.034 48.0992 122.701C47.8326 123.234 47.4992 123.767 47.0992 124.301C45.7659 126.967 44.5659 128.967 43.4992 130.301C39.6326 136.434 35.6992 142.901 31.6992 149.701C22.0992 165.967 17.2992 174.767 17.2992 176.101C17.2992 177.434 16.7659 178.101 15.6992 178.101C15.0326 178.101 14.3659 177.967 13.6992 177.701C13.1659 177.567 12.6992 177.501 12.2992 177.501C11.6326 177.501 11.0992 177.701 10.6992 178.101C10.4326 178.501 10.0992 178.701 9.69922 178.701Z" fill="#F8F8F8"/>
</svg>
