<svg width="2262" height="1120" viewBox="0 0 2262 1120" fill="none" xmlns="http://www.w3.org/2000/svg">
<path d="M1915 335.321C1917.01 335.321 1918.02 331.974 1918.02 325.281L1917.01 324.277L1915 326.285C1913.66 326.954 1913 328.293 1913 330.301C1913 330.97 1913 331.974 1913 333.313C1913.66 334.651 1914.33 335.321 1915 335.321ZM2061.59 394.557L2055.56 381.505C2051.55 373.473 2048.2 369.457 2045.52 369.457C2044.18 369.457 2042.51 369.791 2040.5 370.461C2038.5 371.13 2036.82 371.465 2035.48 371.465H2034.48C2034.48 373.473 2038.16 377.823 2045.52 384.517C2052.89 391.21 2058.24 394.557 2061.59 394.557ZM2103.76 451.785L2104.76 450.781L2095.72 437.729H2094.72C2094.72 439.067 2095.72 441.745 2097.73 445.761C2100.41 449.777 2102.08 451.785 2102.75 451.785H2103.76ZM2156.97 461.825C2164.33 461.825 2171.02 461.49 2177.05 460.821C2183.07 459.482 2187.09 458.478 2189.1 457.809L2191.1 456.805C2191.1 455.466 2182.74 454.797 2166 454.797C2149.27 454.797 2137.89 453.793 2131.87 451.785L2126.85 450.781C2126.85 458.143 2136.89 461.825 2156.97 461.825ZM2177.05 501.985C2174.37 500.646 2171.36 499.642 2168.01 498.973C2165.33 497.634 2162.32 496.63 2158.98 495.961C2155.63 494.622 2150.27 493.953 2142.91 493.953C2150.27 497.969 2155.63 500.311 2158.98 500.981C2162.99 501.65 2169.02 501.985 2177.05 501.985ZM1907.98 527.085L1910.99 525.077C1912.33 523.738 1913.66 521.73 1915 519.053C1917.01 516.375 1918.02 514.367 1918.02 513.029C1918.02 511.69 1917.35 511.021 1916.01 511.021C1915.34 511.021 1913.66 512.025 1910.99 514.033C1908.98 516.041 1907.98 520.057 1907.98 526.081V527.085ZM1821.63 792.141C1820.96 792.141 1819.62 791.137 1817.62 789.129C1812.26 786.451 1806.91 782.436 1801.55 777.081C1799.54 775.742 1798.2 775.073 1797.54 775.073C1796.2 775.073 1789.84 771.392 1778.46 764.029C1766.41 757.336 1759.38 751.311 1757.38 745.957C1757.38 723.869 1763.06 691.071 1774.44 647.565C1785.82 604.058 1801.22 555.531 1820.63 501.985C1852.09 412.294 1877.86 356.739 1897.94 335.321C1906.64 325.281 1913.33 320.261 1918.02 320.261C1920.69 320.261 1922.03 322.269 1922.03 326.285C1922.03 332.978 1923.37 338.333 1926.05 342.349C1929.39 349.042 1933.74 352.389 1939.1 352.389C1940.44 352.389 1941.78 352.054 1943.12 351.385C1944.45 350.046 1946.13 349.377 1948.14 349.377C1950.14 349.377 1957.84 354.731 1971.23 365.441L1966.21 384.517C1962.86 394.557 1960.18 399.577 1958.18 399.577C1956.17 399.577 1953.16 403.927 1949.14 412.629C1941.11 430.701 1933.41 452.119 1926.05 476.885L1923.04 493.953H1924.04C1928.72 493.953 1942.45 477.889 1965.2 445.761C2005.36 389.537 2032.14 361.425 2045.52 361.425C2050.88 363.433 2055.56 368.453 2059.58 376.485C2062.93 381.839 2070.62 388.867 2082.67 397.569C2092.04 402.923 2101.08 411.625 2109.78 423.673C2113.8 431.035 2117.81 436.055 2121.83 438.733C2131.2 444.757 2144.25 447.769 2160.98 447.769C2183.74 447.769 2202.15 445.761 2216.2 441.745C2216.2 442.414 2213.86 444.422 2209.18 447.769C2204.49 450.446 2202.15 452.454 2202.15 453.793C2202.15 456.47 2205.49 457.809 2212.19 457.809C2219.55 457.809 2225.57 460.151 2230.26 464.837C2232.94 469.522 2236.62 471.865 2241.3 471.865C2241.97 471.195 2242.98 470.861 2244.32 470.861C2245.65 470.861 2247.33 471.53 2249.34 472.869C2252.01 474.207 2254.36 476.55 2256.36 479.897C2259.04 482.574 2260.71 484.917 2261.38 486.925C2261.38 488.933 2259.38 490.941 2255.36 492.949C2245.32 498.973 2233.61 502.654 2220.22 503.993C2209.51 503.993 2204.16 504.997 2204.16 507.005C2204.16 509.013 2199.14 510.017 2189.1 510.017C2177.05 510.017 2167.01 509.682 2158.98 509.013C2151.61 507.674 2146.26 506.335 2142.91 504.997C2139.56 502.989 2133.88 498.973 2125.84 492.949C2117.81 486.255 2109.44 478.893 2100.74 470.861C2092.04 462.159 2084.68 455.801 2078.66 451.785C2073.3 447.769 2069.62 445.761 2067.61 445.761C2061.59 445.761 2034.48 482.239 1986.29 555.197C1947.47 614.098 1906.97 678.02 1864.8 746.961C1858.11 758.34 1850.08 768.714 1840.71 778.085C1831.34 787.455 1824.98 792.141 1821.63 792.141Z" fill="black"/>
<path d="M1572.19 566.24C1574.19 566.24 1577.21 565.236 1581.22 563.228C1587.25 559.212 1608.67 539.467 1645.48 503.992C1665.56 483.912 1680.62 465.506 1690.66 448.772C1696.01 439.402 1698.69 433.712 1698.69 431.704L1697.69 430.7H1695.68C1694.34 430.7 1693.67 429.696 1693.67 427.688C1693.67 423.003 1694.67 419.991 1696.68 418.652C1700.7 414.636 1704.05 407.274 1706.72 396.564L1709.73 387.528C1709.07 387.528 1708.4 388.198 1707.73 389.536C1707.06 390.875 1703.38 396.564 1696.68 406.604C1693.34 410.62 1690.32 414.971 1687.65 419.656C1677.61 435.051 1671.25 442.748 1668.57 442.748C1666.56 441.41 1665.56 439.736 1665.56 437.728C1665.56 433.712 1666.9 431.704 1669.57 431.704C1672.92 431.704 1674.59 429.362 1674.59 424.676C1674.59 420.66 1674.26 418.652 1673.59 418.652C1672.92 418.652 1670.91 420.995 1667.57 425.68C1661.54 433.043 1656.52 436.724 1652.51 436.724C1649.16 436.724 1637.11 451.115 1616.36 479.896C1596.28 508.678 1586.24 525.076 1586.24 529.092C1586.24 533.108 1585.24 535.116 1583.23 535.116C1581.89 535.116 1580.22 536.79 1578.21 540.136C1572.86 546.83 1570.18 553.188 1570.18 559.212C1570.18 561.22 1568.51 562.224 1565.16 562.224V563.228C1565.16 563.898 1565.83 564.567 1567.17 565.236C1569.17 565.906 1570.85 566.24 1572.19 566.24ZM1527.01 801.176C1535.04 801.176 1542.74 798.834 1550.1 794.148L1554.11 792.14L1553.11 791.136L1549.09 792.14C1543.07 794.148 1536.04 795.152 1528.01 795.152C1519.98 795.152 1515.96 795.487 1515.96 796.156C1515.96 796.826 1516.63 797.83 1517.97 799.168C1519.98 800.507 1522.99 801.176 1527.01 801.176ZM1534.03 843.344C1540.06 843.344 1543.07 842.675 1543.07 841.336L1540.06 840.333C1538.72 839.663 1536.71 839.328 1534.03 839.328C1531.36 839.328 1529.35 839.663 1528.01 840.333L1525 841.336C1525 842.675 1528.01 843.344 1534.03 843.344ZM1770.98 654.592V653.588C1771.65 653.588 1771.98 652.919 1771.98 651.58V650.576V649.572L1769.97 652.584L1770.98 654.592ZM1547.09 858.404C1541.73 858.404 1536.04 857.4 1530.02 855.392C1523.99 854.054 1513.62 848.364 1498.89 838.324C1484.84 828.284 1471.12 817.24 1457.73 805.192C1444.34 793.814 1434.97 784.778 1429.62 778.084C1418.24 760.012 1412.55 737.59 1412.55 710.816C1412.55 693.414 1417.24 666.306 1426.61 629.492C1435.31 592.01 1457.4 545.491 1492.87 489.936C1529.01 434.382 1572.52 387.528 1623.39 349.376C1645.48 332.643 1662.88 324.276 1675.6 324.276C1680.28 324.276 1683.97 325.615 1686.64 328.292C1689.99 330.3 1692.33 332.643 1693.67 335.32C1695.68 337.328 1696.68 339.336 1696.68 341.344C1696.68 343.352 1696.35 344.356 1695.68 344.356C1695.01 344.356 1694.01 343.018 1692.67 340.34C1689.99 333.647 1684.63 330.3 1676.6 330.3C1672.59 330.3 1668.91 331.304 1665.56 333.312C1662.21 335.32 1660.54 336.659 1660.54 337.328C1660.54 337.998 1662.88 338.332 1667.57 338.332C1672.92 338.332 1678.95 341.344 1685.64 347.368C1693 352.723 1699.69 355.4 1705.72 355.4C1712.41 355.4 1716.76 356.739 1718.77 359.416C1720.78 361.424 1722.45 362.428 1723.79 362.428C1725.8 362.428 1726.8 361.09 1726.8 358.412L1725.8 348.372C1726.47 348.372 1727.47 349.376 1728.81 351.384C1732.16 355.4 1733.83 360.755 1733.83 367.448C1733.83 373.472 1735.84 377.823 1739.85 380.5C1743.87 385.186 1745.88 393.218 1745.88 404.596C1745.88 415.975 1743.87 427.688 1739.85 439.736C1736.51 447.099 1734.83 452.119 1734.83 454.796H1735.84C1738.52 454.796 1741.86 448.103 1745.88 434.716C1749.89 417.314 1751.9 404.596 1751.9 396.564C1751.9 382.508 1752.91 375.48 1754.91 375.48C1755.58 375.48 1756.92 376.484 1758.93 378.492C1768.97 388.532 1773.99 400.246 1773.99 413.632C1773.99 431.035 1764.62 455.8 1745.88 487.928C1727.81 519.387 1696.01 552.519 1650.5 587.324C1612.35 614.767 1581.56 628.488 1558.13 628.488C1551.44 628.488 1546.42 628.823 1543.07 629.492C1540.39 629.492 1538.39 630.496 1537.05 632.504C1531.02 641.206 1525.67 654.592 1520.98 672.664L1515.96 690.736C1509.27 718.848 1505.92 742.275 1505.92 761.016C1505.92 774.403 1507.26 781.766 1509.94 783.104C1513.29 785.112 1517.97 786.116 1523.99 786.116C1545.41 786.116 1575.53 773.399 1614.35 747.964C1631.09 737.255 1646.48 724.872 1660.54 710.816C1708.06 668.648 1733.83 644.552 1737.85 638.528C1745.21 630.496 1751.23 626.48 1755.92 626.48C1761.94 626.48 1769.31 630.496 1778.01 638.528C1787.38 646.56 1792.06 654.592 1792.06 662.624C1790.72 673.334 1779.35 690.067 1757.93 712.824C1668.91 809.878 1598.63 858.404 1547.09 858.404Z" fill="black"/>
<path d="M1467.01 406.605C1467.68 406.605 1468.01 405.935 1468.01 404.597C1468.01 399.242 1467.34 396.565 1466 396.565C1465.33 396.565 1464.66 398.238 1464 401.585C1464 404.931 1464.66 406.605 1466 406.605H1467.01ZM1460.98 436.725C1462.99 436.055 1464 432.709 1464 426.685C1464 417.983 1463.33 413.633 1461.99 413.633C1461.32 413.633 1460.65 417.314 1459.98 424.677L1458.98 433.713C1458.98 435.721 1459.31 436.725 1459.98 436.725H1460.98ZM1454.96 459.817L1456.97 457.809C1458.98 455.801 1459.98 453.123 1459.98 449.777C1459.31 447.769 1458.64 446.765 1457.97 446.765C1457.3 446.765 1456.63 447.099 1455.96 447.769C1455.96 448.438 1455.63 450.111 1454.96 452.789C1454.29 454.797 1453.96 456.47 1453.96 457.809C1453.96 459.147 1454.29 459.817 1454.96 459.817ZM1406.77 322.269C1409.44 322.269 1410.78 321.599 1410.78 320.261C1410.78 318.253 1409.44 315.575 1406.77 312.229C1404.09 308.213 1399.74 306.205 1393.72 306.205C1385.68 306.205 1373.3 310.555 1356.57 319.257L1370.62 315.241C1374.64 315.241 1378.99 315.91 1383.68 317.249C1389.03 317.918 1393.72 318.922 1397.73 320.261C1401.75 321.599 1404.76 322.269 1406.77 322.269ZM1072.44 724.873C1073.77 724.873 1078.46 721.526 1086.49 714.833C1104.56 704.123 1131.34 681.366 1166.81 646.561C1211.66 603.054 1252.15 557.205 1288.3 509.013L1362.59 409.617C1373.3 395.561 1378.66 386.19 1378.66 381.505L1377.65 380.501L1374.64 381.505C1346.53 398.907 1311.05 429.027 1268.22 471.865C1207.98 532.105 1154.43 596.361 1107.58 664.633C1083.48 699.438 1071.43 719.183 1071.43 723.869L1072.44 724.873ZM1047.34 806.197V805.193C1047.34 804.523 1046.67 803.519 1045.33 802.181C1043.99 800.842 1041.31 800.173 1037.3 800.173L1034.28 801.177C1030.94 802.515 1029.26 803.519 1029.26 804.189C1029.26 805.527 1035.29 806.197 1047.34 806.197ZM1339.5 805.193C1340.17 805.193 1341.84 802.515 1344.52 797.161C1347.87 792.475 1349.54 788.125 1349.54 784.109V783.105C1348.87 783.105 1346.86 786.117 1343.52 792.141C1340.17 798.165 1338.5 802.181 1338.5 804.189C1338.5 804.858 1338.83 805.193 1339.5 805.193ZM1303.36 879.489C1304.02 879.489 1305.7 877.146 1308.38 872.461C1311.05 867.775 1314.06 861.751 1317.41 854.389C1320.76 847.695 1323.44 842.006 1325.44 837.321C1327.45 833.305 1328.46 830.627 1328.46 829.289C1327.79 829.289 1326.11 831.297 1323.44 835.313C1320.76 839.998 1317.75 846.022 1314.4 853.385C1311.05 860.747 1308.38 866.437 1306.37 870.453C1304.36 875.138 1303.36 878.15 1303.36 879.489ZM1105.57 1056.19C1116.95 1048.83 1126.99 1041.8 1135.69 1035.11C1179.19 999.634 1223.04 939.059 1267.21 853.385C1281.27 829.958 1288.3 815.902 1288.3 811.217C1288.3 809.878 1287.63 809.209 1286.29 809.209C1282.27 809.209 1265.87 825.942 1237.09 859.409C1172.17 932.366 1130 993.61 1110.59 1043.14L1105.57 1056.19ZM1111.59 1115.43L1112.6 1114.42C1112.6 1113.76 1111.26 1112.75 1108.58 1111.41C1106.57 1110.07 1103.89 1109.07 1100.55 1108.4C1097.2 1107.73 1094.52 1107.4 1092.52 1107.4C1086.49 1108.07 1083.48 1109.4 1083.48 1111.41L1084.48 1113.42C1085.82 1114.76 1094.86 1115.43 1111.59 1115.43ZM1100.55 1119.44H1091.51C1086.83 1119.44 1080.13 1115.09 1071.43 1106.39C1068.08 1103.72 1064.07 1100.7 1059.38 1097.36C1055.37 1094.01 1051.69 1090.66 1048.34 1087.32C1040.98 1082.63 1036.29 1077.61 1034.28 1072.26C1032.28 1067.57 1031.27 1061.55 1031.27 1054.18C1033.28 1015.36 1061.39 958.805 1115.61 884.509C1137.03 856.397 1167.82 822.261 1207.98 782.101C1248.14 741.941 1282.27 711.151 1310.38 689.733L1349.54 660.617L1369.62 597.365C1393.05 529.093 1404.76 490.271 1404.76 480.901C1404.76 480.231 1404.42 479.897 1403.76 479.897C1403.09 479.897 1398.4 485.586 1389.7 496.965C1381.67 507.674 1371.96 520.391 1360.58 535.117C1250.14 675.677 1158.11 765.033 1084.48 803.185C1067.08 813.225 1053.69 818.245 1044.32 818.245C1042.98 818.245 1039.97 817.91 1035.29 817.241C1029.93 816.571 1018.55 808.205 1001.15 792.141L971.031 765.033L972.035 741.941C976.721 702.45 1005.84 647.899 1059.38 578.289C1112.93 508.678 1175.85 443.083 1248.14 381.505C1294.32 342.683 1333.81 317.583 1366.61 306.205C1377.99 302.189 1387.02 300.181 1393.72 300.181C1407.77 300.181 1414.8 307.543 1414.8 322.269C1414.8 327.623 1416.81 330.301 1420.82 330.301L1436.89 328.293C1442.91 328.293 1446.59 330.97 1447.93 336.325C1449.27 341.01 1451.95 345.361 1455.96 349.377C1459.98 353.393 1463.33 355.401 1466 355.401H1467.01C1469.02 355.401 1473.7 359.417 1481.06 367.449C1488.43 375.481 1492.11 382.843 1492.11 389.537C1492.11 446.43 1470.69 536.79 1427.85 660.617H1437.89C1441.24 660.617 1444.92 661.955 1448.94 664.633C1453.62 667.31 1455.96 669.987 1455.96 672.665C1455.96 674.003 1455.29 675.007 1453.96 675.677C1452.62 675.677 1449.94 676.681 1445.92 678.689C1431.87 686.721 1422.5 693.749 1417.81 699.773C1413.13 705.127 1405.76 720.187 1395.72 744.953C1339.5 880.827 1280.6 981.897 1219.02 1048.16C1201.62 1067.57 1186.56 1081.96 1173.84 1091.33C1161.79 1100.7 1148.74 1107.73 1134.68 1112.42C1120.63 1117.1 1109.25 1119.44 1100.55 1119.44Z" fill="black"/>
<path d="M870.804 335.321C872.812 335.321 873.816 331.974 873.816 325.281L872.812 324.277L870.804 326.285C869.465 326.954 868.796 328.293 868.796 330.301C868.796 330.97 868.796 331.974 868.796 333.313C869.465 334.651 870.134 335.321 870.804 335.321ZM1017.39 394.557L1011.36 381.505C1007.35 373.473 1004 369.457 1001.32 369.457C999.985 369.457 998.312 369.791 996.304 370.461C994.296 371.13 992.622 371.465 991.284 371.465H990.28C990.28 373.473 993.961 377.823 1001.32 384.517C1008.69 391.21 1014.04 394.557 1017.39 394.557ZM1059.56 451.785L1060.56 450.781L1051.52 437.729H1050.52C1050.52 439.067 1051.52 441.745 1053.53 445.761C1056.21 449.777 1057.88 451.785 1058.55 451.785H1059.56ZM1112.77 461.825C1120.13 461.825 1126.82 461.49 1132.85 460.821C1138.87 459.482 1142.89 458.478 1144.9 457.809L1146.9 456.805C1146.9 455.466 1138.54 454.797 1121.8 454.797C1105.07 454.797 1093.69 453.793 1087.67 451.785L1082.65 450.781C1082.65 458.143 1092.69 461.825 1112.77 461.825ZM1132.85 501.985C1130.17 500.646 1127.16 499.642 1123.81 498.973C1121.13 497.634 1118.12 496.63 1114.78 495.961C1111.43 494.622 1106.07 493.953 1098.71 493.953C1106.07 497.969 1111.43 500.311 1114.78 500.981C1118.79 501.65 1124.82 501.985 1132.85 501.985ZM863.776 527.085L866.788 525.077C868.126 523.738 869.465 521.73 870.804 519.053C872.812 516.375 873.816 514.367 873.816 513.029C873.816 511.69 873.146 511.021 871.808 511.021C871.138 511.021 869.465 512.025 866.788 514.033C864.78 516.041 863.776 520.057 863.776 526.081V527.085ZM777.432 792.141C776.762 792.141 775.424 791.137 773.416 789.129C768.061 786.451 762.706 782.436 757.352 777.081C755.344 775.742 754.005 775.073 753.336 775.073C751.997 775.073 745.638 771.392 734.26 764.029C722.212 757.336 715.184 751.311 713.176 745.957C713.176 723.869 718.865 691.071 730.244 647.565C741.622 604.058 757.017 555.531 776.428 501.985C807.886 412.294 833.656 356.739 853.736 335.321C862.437 325.281 869.13 320.261 873.816 320.261C876.493 320.261 877.832 322.269 877.832 326.285C877.832 332.978 879.17 338.333 881.848 342.349C885.194 349.042 889.545 352.389 894.9 352.389C896.238 352.389 897.577 352.054 898.916 351.385C900.254 350.046 901.928 349.377 903.936 349.377C905.944 349.377 913.641 354.731 927.028 365.441L922.008 384.517C918.661 394.557 915.984 399.577 913.976 399.577C911.968 399.577 908.956 403.927 904.94 412.629C896.908 430.701 889.21 452.119 881.848 476.885L878.836 493.953H879.84C884.525 493.953 898.246 477.889 921.004 445.761C961.164 389.537 987.937 361.425 1001.32 361.425C1006.68 363.433 1011.36 368.453 1015.38 376.485C1018.73 381.839 1026.42 388.867 1038.47 397.569C1047.84 402.923 1056.88 411.625 1065.58 423.673C1069.6 431.035 1073.61 436.055 1077.63 438.733C1087 444.757 1100.05 447.769 1116.78 447.769C1139.54 447.769 1157.95 445.761 1172 441.745C1172 442.414 1169.66 444.422 1164.98 447.769C1160.29 450.446 1157.95 452.454 1157.95 453.793C1157.95 456.47 1161.29 457.809 1167.99 457.809C1175.35 457.809 1181.37 460.151 1186.06 464.837C1188.74 469.522 1192.42 471.865 1197.1 471.865C1197.77 471.195 1198.78 470.861 1200.12 470.861C1201.45 470.861 1203.13 471.53 1205.14 472.869C1207.81 474.207 1210.16 476.55 1212.16 479.897C1214.84 482.574 1216.51 484.917 1217.18 486.925C1217.18 488.933 1215.18 490.941 1211.16 492.949C1201.12 498.973 1189.41 502.654 1176.02 503.993C1165.31 503.993 1159.96 504.997 1159.96 507.005C1159.96 509.013 1154.94 510.017 1144.9 510.017C1132.85 510.017 1122.81 509.682 1114.78 509.013C1107.41 507.674 1102.06 506.335 1098.71 504.997C1095.37 502.989 1089.68 498.973 1081.64 492.949C1073.61 486.255 1065.25 478.893 1056.54 470.861C1047.84 462.159 1040.48 455.801 1034.46 451.785C1029.1 447.769 1025.42 445.761 1023.41 445.761C1017.39 445.761 990.28 482.239 942.088 555.197C903.266 614.098 862.772 678.02 820.604 746.961C813.91 758.34 805.878 768.714 796.508 778.085C787.137 787.455 780.778 792.141 777.432 792.141Z" fill="black"/>
<path d="M664.352 438.732C667.029 436.055 669.706 428.023 672.384 414.636C675.73 401.25 677.404 389.871 677.404 380.5C677.404 371.799 675.73 367.448 672.384 367.448C669.037 367.448 667.364 373.138 667.364 384.516V390.54C667.364 396.564 667.029 403.258 666.36 410.62C665.69 417.983 665.021 423.672 664.352 427.688C663.682 431.704 663.348 434.716 663.348 436.724C663.348 438.063 663.682 438.732 664.352 438.732ZM647.284 687.724C647.953 687.055 648.288 686.051 648.288 684.712C648.288 683.374 647.953 681.7 647.284 679.692L646.28 677.684C645.61 679.023 645.276 681.366 645.276 684.712C645.276 686.72 645.61 687.724 646.28 687.724H647.284ZM643.268 703.788L644.272 699.772L642.264 693.748C641.594 693.748 641.26 695.422 641.26 698.768C641.26 702.115 641.594 703.788 642.264 703.788H643.268ZM638.248 722.864C639.586 722.864 640.256 721.191 640.256 717.844C640.256 713.159 639.586 710.816 638.248 710.816C637.578 710.816 637.244 712.824 637.244 716.84C637.244 720.856 637.578 722.864 638.248 722.864ZM405.32 728.888C407.328 728.888 414.021 724.538 425.4 715.836C437.448 706.466 451.504 694.083 467.568 678.688C507.058 639.198 549.226 590.336 594.072 532.104C595.41 530.766 596.749 528.758 598.088 526.08L612.144 509.012C635.57 479.562 647.284 461.155 647.284 453.792C647.284 450.446 645.276 448.772 641.26 448.772H639.252C635.905 448.772 634.232 445.76 634.232 439.736C634.232 435.72 635.236 429.696 637.244 421.664L638.248 413.632C638.248 407.608 637.578 404.596 636.24 404.596C633.562 401.919 632.224 398.238 632.224 393.552C632.224 391.544 631.554 390.54 630.216 390.54C627.538 391.21 618.837 398.907 604.112 413.632C533.832 485.92 474.261 573.938 425.4 677.684C411.344 707.135 404.316 723.868 404.316 727.884C404.316 728.554 404.65 728.888 405.32 728.888ZM393.272 794.148C395.28 794.148 398.292 793.814 402.308 793.144C406.324 793.144 410.005 792.475 413.352 791.136C416.698 789.798 418.372 788.794 418.372 788.124C418.372 787.455 415.36 786.786 409.336 786.116H408.332C403.646 786.116 399.63 786.786 396.284 788.124C392.268 789.463 390.26 790.802 390.26 792.14C390.26 792.81 391.264 793.479 393.272 794.148ZM643.268 350.38C643.937 350.38 644.272 349.042 644.272 346.364C644.272 336.324 638.917 331.304 628.208 331.304C619.506 331.304 609.466 334.651 598.088 341.344C591.394 345.36 588.048 347.703 588.048 348.372C588.717 348.372 589.721 348.038 591.06 347.368C593.068 346.699 597.418 346.03 604.112 345.36L615.156 343.352C628.542 343.352 636.24 344.691 638.248 347.368C640.925 349.376 642.598 350.38 643.268 350.38ZM622.184 809.208L590.056 792.14C590.725 781.431 591.06 771.056 591.06 761.016C591.06 751.646 592.398 738.928 595.076 722.864C597.753 706.131 600.765 690.067 604.112 674.672C607.458 658.608 610.136 645.891 612.144 636.52C614.152 626.48 615.156 620.456 615.156 618.448V617.444C613.817 617.444 605.116 626.815 589.052 645.556C551.569 692.41 516.764 728.219 484.636 752.984C475.265 759.678 464.89 766.371 453.512 773.064C425.4 789.798 407.997 798.164 401.304 798.164C399.965 798.164 395.614 796.826 388.252 794.148C380.889 791.471 373.192 787.79 365.16 783.104C347.757 774.403 336.713 766.036 332.028 758.004C329.35 753.988 328.012 748.634 328.012 741.94C328.012 736.586 329.016 730.227 331.024 722.864C341.733 678.019 366.498 623.134 405.32 558.208C444.141 493.283 485.974 437.059 530.82 389.536C572.318 346.699 604.112 325.28 626.2 325.28C634.901 325.28 640.925 329.296 644.272 337.328C648.288 344.691 651.634 348.372 654.312 348.372H657.324C660.67 348.372 665.69 350.046 672.384 353.392C679.746 356.07 685.77 360.42 690.456 366.444C695.141 371.799 697.484 377.154 697.484 382.508C697.484 387.194 695.81 400.246 692.464 421.664L690.456 431.704C690.456 434.382 692.129 437.728 695.476 441.744C699.492 445.091 704.177 446.764 709.532 446.764C712.209 446.764 714.217 446.095 715.556 444.756C717.564 442.748 719.572 441.744 721.58 441.744C722.918 441.744 726.934 443.418 733.628 446.764C740.99 452.788 744.672 456.804 744.672 458.812C744.672 466.844 734.967 498.303 715.556 553.188C698.823 600.042 683.762 650.911 670.376 705.796C658.997 749.972 653.308 779.758 653.308 795.152C653.308 801.846 651.969 805.192 649.292 805.192L641.26 803.184H635.236C633.897 803.184 633.228 796.156 633.228 782.1V765.032L635.236 736.92C635.236 734.243 634.901 732.904 634.232 732.904C632.893 732.904 628.877 758.339 622.184 809.208Z" fill="black"/>
<path d="M225.9 883.504C227.239 883.504 227.908 882.835 227.908 881.496L224.896 879.488C223.557 879.488 221.884 879.823 219.876 880.492C218.537 881.162 217.868 881.831 217.868 882.5L225.9 883.504ZM344.372 789.128C344.372 788.459 343.703 787.79 342.364 787.12C341.695 786.451 340.356 786.116 338.348 786.116L332.324 788.124L338.348 789.128H344.372ZM383.528 785.112L384.532 784.108C384.532 782.77 381.52 782.1 375.496 782.1C369.472 782.1 366.46 782.77 366.46 784.108C366.46 784.778 372.149 785.112 383.528 785.112ZM51.204 923.664C47.8573 923.664 45.18 922.326 43.172 919.648C40.4947 916.971 39.156 914.294 39.156 911.616C39.8253 910.947 42.5027 909.608 47.188 907.6C51.204 906.262 53.212 905.258 53.212 904.588H44.176C39.4907 904.588 34.136 902.58 28.112 898.564C21.4187 895.218 15.7293 890.867 11.044 885.512C5.68934 880.827 2.00799 876.811 0 873.464C0 869.448 1.67334 867.44 5.02 867.44C7.69734 867.44 11.3787 865.098 16.064 860.412C18.7413 857.735 26.7733 853.719 40.16 848.364C70.9493 835.647 98.7267 826.276 123.492 820.252C130.185 818.914 134.871 815.567 137.548 810.212C140.225 805.527 141.899 797.495 142.568 786.116C145.915 717.175 181.389 598.703 248.992 430.7C287.144 335.655 325.631 248.307 364.452 168.656C403.943 88.3363 434.397 36.7976 455.816 14.0403C464.517 5.33895 470.541 0.988281 473.888 0.988281C475.227 0.988281 475.896 1.99227 475.896 4.00024L473.888 17.0523C473.888 19.7296 474.557 21.0683 475.896 21.0683C476.565 21.0683 477.235 20.7336 477.904 20.0643C479.243 19.3949 480.581 19.0603 481.92 19.0603C483.259 19.0603 484.932 19.7296 486.94 21.0683C488.948 21.7376 490.956 23.0763 492.964 25.0843C495.641 27.0923 496.98 29.4349 496.98 32.1122C496.98 34.1203 496.98 35.1243 496.98 35.1243C497.649 35.1243 498.319 35.1243 498.988 35.1243C499.657 35.1243 500.661 34.4549 502 33.1163C504.008 31.7776 505.681 31.1083 507.02 31.1083C510.367 31.1083 514.383 33.7856 519.068 39.1403C526.431 43.8256 530.112 48.1763 530.112 52.1923C530.112 56.8776 524.423 68.9256 513.044 88.3363C504.343 105.739 499.992 115.779 499.992 118.456H500.996V119.46L498.988 121.468C496.98 122.807 494.637 125.819 491.96 130.504C484.597 141.883 478.573 153.262 473.888 164.64L471.88 173.676C472.549 173.676 472.884 174.011 472.884 174.68H469.872C469.203 174.68 465.521 180.37 458.828 191.748C452.804 202.458 446.111 215.175 438.748 229.9C420.007 269.391 410.636 289.806 410.636 291.144C410.636 292.483 410.301 293.487 409.632 294.156H404.612C403.943 294.826 403.608 295.83 403.608 297.168C403.608 297.838 401.935 302.188 398.588 310.22C390.556 330.3 382.859 347.368 375.496 361.424L353.408 409.616C350.731 416.31 348.388 422.668 346.38 428.692C344.372 434.716 339.017 446.095 330.316 462.828C322.953 473.538 305.885 517.044 279.112 593.348C259.032 648.234 244.976 692.075 236.944 724.872C228.912 757.67 224.896 778.419 224.896 787.12C224.896 789.798 225.231 791.471 225.9 792.14C237.279 792.14 251.335 791.136 268.068 789.128C345.711 776.411 417.664 770.052 483.928 770.052C495.307 770.052 500.996 773.399 500.996 780.092C500.996 782.77 499.992 785.112 497.984 787.12C495.976 789.128 494.637 790.132 493.968 790.132V785.112C493.968 781.766 493.299 779.423 491.96 778.084C491.291 776.746 484.932 775.407 472.884 774.068C450.127 774.068 423.688 776.746 393.568 782.1H466.86C477.569 783.439 485.936 786.786 491.96 792.14C498.653 797.495 506.351 801.176 515.052 803.184C524.423 805.862 530.781 812.22 534.128 822.26C535.467 824.268 536.136 826.276 536.136 828.284C536.136 832.3 532.789 834.308 526.096 834.308C522.08 834.308 516.056 833.639 508.024 832.3C500.661 830.962 491.625 830.292 480.916 830.292C470.207 830.962 453.808 833.304 431.72 837.32C317.933 856.731 253.677 871.791 238.952 882.5C232.928 887.186 228.243 890.198 224.896 891.536C220.211 891.536 216.529 890.867 213.852 889.528C211.175 888.859 205.82 888.524 197.788 888.524C191.764 888.524 170.011 893.879 132.528 904.588C88.352 917.306 61.244 923.664 51.204 923.664Z" fill="black"/>
</svg>
