<svg width="1920" height="1120" viewBox="0 0 1920 1120" fill="none" xmlns="http://www.w3.org/2000/svg">
<path d="M1730.26 335.321C1732.27 335.321 1733.27 331.974 1733.27 325.281L1732.27 324.277L1730.26 326.285C1728.92 326.954 1728.25 328.293 1728.25 330.301C1728.25 330.97 1728.25 331.974 1728.25 333.313C1728.92 334.651 1729.59 335.321 1730.26 335.321ZM1876.84 394.557L1870.82 381.505C1866.8 373.473 1863.46 369.457 1860.78 369.457C1859.44 369.457 1857.77 369.791 1855.76 370.461C1853.75 371.13 1852.08 371.465 1850.74 371.465H1849.74C1849.74 373.473 1853.42 377.823 1860.78 384.517C1868.14 391.21 1873.5 394.557 1876.84 394.557ZM1919.01 451.785L1920.02 450.781L1910.98 437.729H1909.98C1909.98 439.067 1910.98 441.745 1912.99 445.761C1915.67 449.777 1917.34 451.785 1918.01 451.785H1919.01ZM1972.22 461.825C1979.59 461.825 1986.28 461.49 1992.3 460.821C1998.33 459.482 2002.34 458.478 2004.35 457.809L2006.36 456.805C2006.36 455.466 1997.99 454.797 1981.26 454.797C1964.53 454.797 1953.15 453.793 1947.12 451.785L1942.1 450.781C1942.1 458.143 1952.14 461.825 1972.22 461.825ZM1992.3 501.985C1989.63 500.646 1986.62 499.642 1983.27 498.973C1980.59 497.634 1977.58 496.63 1974.23 495.961C1970.89 494.622 1965.53 493.953 1958.17 493.953C1965.53 497.969 1970.89 500.311 1974.23 500.981C1978.25 501.65 1984.27 501.985 1992.3 501.985ZM1723.23 527.085L1726.24 525.077C1727.58 523.738 1728.92 521.73 1730.26 519.053C1732.27 516.375 1733.27 514.367 1733.27 513.029C1733.27 511.69 1732.6 511.021 1731.26 511.021C1730.6 511.021 1728.92 512.025 1726.24 514.033C1724.24 516.041 1723.23 520.057 1723.23 526.081V527.085ZM1636.89 792.141C1636.22 792.141 1634.88 791.137 1632.87 789.129C1627.52 786.451 1622.16 782.436 1616.81 777.081C1614.8 775.742 1613.46 775.073 1612.79 775.073C1611.45 775.073 1605.1 771.392 1593.72 764.029C1581.67 757.336 1574.64 751.311 1572.63 745.957C1572.63 723.869 1578.32 691.071 1589.7 647.565C1601.08 604.058 1616.47 555.531 1635.88 501.985C1667.34 412.294 1693.11 356.739 1713.19 335.321C1721.89 325.281 1728.59 320.261 1733.27 320.261C1735.95 320.261 1737.29 322.269 1737.29 326.285C1737.29 332.978 1738.63 338.333 1741.3 342.349C1744.65 349.042 1749 352.389 1754.36 352.389C1755.7 352.389 1757.03 352.054 1758.37 351.385C1759.71 350.046 1761.38 349.377 1763.39 349.377C1765.4 349.377 1773.1 354.731 1786.48 365.441L1781.46 384.517C1778.12 394.557 1775.44 399.577 1773.43 399.577C1771.42 399.577 1768.41 403.927 1764.4 412.629C1756.36 430.701 1748.67 452.119 1741.3 476.885L1738.29 493.953H1739.3C1743.98 493.953 1757.7 477.889 1780.46 445.761C1820.62 389.537 1847.39 361.425 1860.78 361.425C1866.14 363.433 1870.82 368.453 1874.84 376.485C1878.18 381.839 1885.88 388.867 1897.93 397.569C1907.3 402.923 1916.34 411.625 1925.04 423.673C1929.05 431.035 1933.07 436.055 1937.08 438.733C1946.46 444.757 1959.51 447.769 1976.24 447.769C1999 447.769 2017.4 445.761 2031.46 441.745C2031.46 442.414 2029.12 444.422 2024.43 447.769C2019.75 450.446 2017.4 452.454 2017.4 453.793C2017.4 456.47 2020.75 457.809 2027.44 457.809C2034.81 457.809 2040.83 460.151 2045.52 464.837C2048.19 469.522 2051.88 471.865 2056.56 471.865C2057.23 471.195 2058.23 470.861 2059.57 470.861C2060.91 470.861 2062.58 471.53 2064.59 472.869C2067.27 474.207 2069.61 476.55 2071.62 479.897C2074.3 482.574 2075.97 484.917 2076.64 486.925C2076.64 488.933 2074.63 490.941 2070.62 492.949C2060.58 498.973 2048.86 502.654 2035.48 503.993C2024.77 503.993 2019.41 504.997 2019.41 507.005C2019.41 509.013 2014.39 510.017 2004.35 510.017C1992.3 510.017 1982.26 509.682 1974.23 509.013C1966.87 507.674 1961.52 506.335 1958.17 504.997C1954.82 502.989 1949.13 498.973 1941.1 492.949C1933.07 486.255 1924.7 478.893 1916 470.861C1907.3 462.159 1899.94 455.801 1893.91 451.785C1888.56 447.769 1884.88 445.761 1882.87 445.761C1876.84 445.761 1849.74 482.239 1801.54 555.197C1762.72 614.098 1722.23 678.02 1680.06 746.961C1673.37 758.34 1665.34 768.714 1655.96 778.085C1646.59 787.455 1640.24 792.141 1636.89 792.141Z" fill="black"/>
<path d="M1387.44 566.24C1389.45 566.24 1392.46 565.236 1396.48 563.228C1402.5 559.212 1423.92 539.467 1460.74 503.992C1480.82 483.912 1495.88 465.506 1505.92 448.772C1511.27 439.402 1513.95 433.712 1513.95 431.704L1512.94 430.7H1510.94C1509.6 430.7 1508.93 429.696 1508.93 427.688C1508.93 423.003 1509.93 419.991 1511.94 418.652C1515.96 414.636 1519.3 407.274 1521.98 396.564L1524.99 387.528C1524.32 387.528 1523.65 388.198 1522.98 389.536C1522.32 390.875 1518.63 396.564 1511.94 406.604C1508.59 410.62 1505.58 414.971 1502.9 419.656C1492.86 435.051 1486.51 442.748 1483.83 442.748C1481.82 441.41 1480.82 439.736 1480.82 437.728C1480.82 433.712 1482.16 431.704 1484.83 431.704C1488.18 431.704 1489.85 429.362 1489.85 424.676C1489.85 420.66 1489.52 418.652 1488.85 418.652C1488.18 418.652 1486.17 420.995 1482.82 425.68C1476.8 433.043 1471.78 436.724 1467.76 436.724C1464.42 436.724 1452.37 451.115 1431.62 479.896C1411.54 508.678 1401.5 525.076 1401.5 529.092C1401.5 533.108 1400.5 535.116 1398.49 535.116C1397.15 535.116 1395.48 536.79 1393.47 540.136C1388.11 546.83 1385.44 553.188 1385.44 559.212C1385.44 561.22 1383.76 562.224 1380.42 562.224V563.228C1380.42 563.898 1381.09 564.567 1382.42 565.236C1384.43 565.906 1386.11 566.24 1387.44 566.24ZM1342.26 801.176C1350.3 801.176 1357.99 798.834 1365.36 794.148L1369.37 792.14L1368.37 791.136L1364.35 792.14C1358.33 794.148 1351.3 795.152 1343.27 795.152C1335.24 795.152 1331.22 795.487 1331.22 796.156C1331.22 796.826 1331.89 797.83 1333.23 799.168C1335.24 800.507 1338.25 801.176 1342.26 801.176ZM1349.29 843.344C1355.32 843.344 1358.33 842.675 1358.33 841.336L1355.32 840.333C1353.98 839.663 1351.97 839.328 1349.29 839.328C1346.62 839.328 1344.61 839.663 1343.27 840.333L1340.26 841.336C1340.26 842.675 1343.27 843.344 1349.29 843.344ZM1586.24 654.592V653.588C1586.91 653.588 1587.24 652.919 1587.24 651.58V650.576V649.572L1585.23 652.584L1586.24 654.592ZM1362.34 858.404C1356.99 858.404 1351.3 857.4 1345.28 855.392C1339.25 854.054 1328.88 848.364 1314.15 838.324C1300.1 828.284 1286.38 817.24 1272.99 805.192C1259.6 793.814 1250.23 784.778 1244.88 778.084C1233.5 760.012 1227.81 737.59 1227.81 710.816C1227.81 693.414 1232.49 666.306 1241.86 629.492C1250.57 592.01 1272.65 545.491 1308.13 489.936C1344.27 434.382 1387.78 387.528 1438.65 349.376C1460.74 332.643 1478.14 324.276 1490.86 324.276C1495.54 324.276 1499.22 325.615 1501.9 328.292C1505.25 330.3 1507.59 332.643 1508.93 335.32C1510.94 337.328 1511.94 339.336 1511.94 341.344C1511.94 343.352 1511.61 344.356 1510.94 344.356C1510.27 344.356 1509.26 343.018 1507.92 340.34C1505.25 333.647 1499.89 330.3 1491.86 330.3C1487.84 330.3 1484.16 331.304 1480.82 333.312C1477.47 335.32 1475.8 336.659 1475.8 337.328C1475.8 337.998 1478.14 338.332 1482.82 338.332C1488.18 338.332 1494.2 341.344 1500.9 347.368C1508.26 352.723 1514.95 355.4 1520.98 355.4C1527.67 355.4 1532.02 356.739 1534.03 359.416C1536.04 361.424 1537.71 362.428 1539.05 362.428C1541.06 362.428 1542.06 361.09 1542.06 358.412L1541.06 348.372C1541.73 348.372 1542.73 349.376 1544.07 351.384C1547.42 355.4 1549.09 360.755 1549.09 367.448C1549.09 373.472 1551.1 377.823 1555.11 380.5C1559.13 385.186 1561.14 393.218 1561.14 404.596C1561.14 415.975 1559.13 427.688 1555.11 439.736C1551.77 447.099 1550.09 452.119 1550.09 454.796H1551.1C1553.77 454.796 1557.12 448.103 1561.14 434.716C1565.15 417.314 1567.16 404.596 1567.16 396.564C1567.16 382.508 1568.16 375.48 1570.17 375.48C1570.84 375.48 1572.18 376.484 1574.19 378.492C1584.23 388.532 1589.25 400.246 1589.25 413.632C1589.25 431.035 1579.88 455.8 1561.14 487.928C1543.06 519.387 1511.27 552.519 1465.76 587.324C1427.6 614.767 1396.82 628.488 1373.39 628.488C1366.7 628.488 1361.68 628.823 1358.33 629.492C1355.65 629.492 1353.64 630.496 1352.3 632.504C1346.28 641.206 1340.93 654.592 1336.24 672.664L1331.22 690.736C1324.53 718.848 1321.18 742.275 1321.18 761.016C1321.18 774.403 1322.52 781.766 1325.2 783.104C1328.54 785.112 1333.23 786.116 1339.25 786.116C1360.67 786.116 1390.79 773.399 1429.61 747.964C1446.35 737.255 1461.74 724.872 1475.8 710.816C1523.32 668.648 1549.09 644.552 1553.1 638.528C1560.47 630.496 1566.49 626.48 1571.18 626.48C1577.2 626.48 1584.56 630.496 1593.26 638.528C1602.64 646.56 1607.32 654.592 1607.32 662.624C1605.98 673.334 1594.6 690.067 1573.18 712.824C1484.16 809.878 1413.88 858.404 1362.34 858.404Z" fill="black"/>
<path d="M1282.27 406.605C1282.93 406.605 1283.27 405.935 1283.27 404.597C1283.27 399.242 1282.6 396.565 1281.26 396.565C1280.59 396.565 1279.92 398.238 1279.25 401.585C1279.25 404.931 1279.92 406.605 1281.26 406.605H1282.27ZM1276.24 436.725C1278.25 436.055 1279.25 432.709 1279.25 426.685C1279.25 417.983 1278.58 413.633 1277.25 413.633C1276.58 413.633 1275.91 417.314 1275.24 424.677L1274.23 433.713C1274.23 435.721 1274.57 436.725 1275.24 436.725H1276.24ZM1270.22 459.817L1272.23 457.809C1274.23 455.801 1275.24 453.123 1275.24 449.777C1274.57 447.769 1273.9 446.765 1273.23 446.765C1272.56 446.765 1271.89 447.099 1271.22 447.769C1271.22 448.438 1270.89 450.111 1270.22 452.789C1269.55 454.797 1269.21 456.47 1269.21 457.809C1269.21 459.147 1269.55 459.817 1270.22 459.817ZM1222.03 322.269C1224.7 322.269 1226.04 321.599 1226.04 320.261C1226.04 318.253 1224.7 315.575 1222.03 312.229C1219.35 308.213 1215 306.205 1208.97 306.205C1200.94 306.205 1188.56 310.555 1171.83 319.257L1185.88 315.241C1189.9 315.241 1194.25 315.91 1198.93 317.249C1204.29 317.918 1208.97 318.922 1212.99 320.261C1217.01 321.599 1220.02 322.269 1222.03 322.269ZM887.693 724.873C889.032 724.873 893.717 721.526 901.749 714.833C919.821 704.123 946.594 681.366 982.069 646.561C1026.91 603.054 1067.41 557.205 1103.55 509.013L1177.85 409.617C1188.56 395.561 1193.91 386.19 1193.91 381.505L1192.91 380.501L1189.9 381.505C1161.79 398.907 1126.31 429.027 1083.47 471.865C1023.23 532.105 969.686 596.361 922.833 664.633C898.737 699.438 886.689 719.183 886.689 723.869L887.693 724.873ZM862.593 806.197V805.193C862.593 804.523 861.924 803.519 860.585 802.181C859.246 800.842 856.569 800.173 852.553 800.173L849.541 801.177C846.194 802.515 844.521 803.519 844.521 804.189C844.521 805.527 850.545 806.197 862.593 806.197ZM1154.76 805.193C1155.43 805.193 1157.1 802.515 1159.78 797.161C1163.12 792.475 1164.8 788.125 1164.8 784.109V783.105C1164.13 783.105 1162.12 786.117 1158.77 792.141C1155.43 798.165 1153.75 802.181 1153.75 804.189C1153.75 804.858 1154.09 805.193 1154.76 805.193ZM1118.61 879.489C1119.28 879.489 1120.96 877.146 1123.63 872.461C1126.31 867.775 1129.32 861.751 1132.67 854.389C1136.02 847.695 1138.69 842.006 1140.7 837.321C1142.71 833.305 1143.71 830.627 1143.71 829.289C1143.04 829.289 1141.37 831.297 1138.69 835.313C1136.02 839.998 1133 846.022 1129.66 853.385C1126.31 860.747 1123.63 866.437 1121.63 870.453C1119.62 875.138 1118.61 878.15 1118.61 879.489ZM920.825 1056.19C932.204 1048.83 942.244 1041.8 950.945 1035.11C994.452 999.634 1038.29 939.059 1082.47 853.385C1096.53 829.958 1103.55 815.902 1103.55 811.217C1103.55 809.878 1102.88 809.209 1101.55 809.209C1097.53 809.209 1081.13 825.942 1052.35 859.409C987.424 932.366 945.256 993.61 925.845 1043.14L920.825 1056.19ZM926.849 1115.43L927.853 1114.42C927.853 1113.76 926.514 1112.75 923.837 1111.41C921.829 1110.07 919.152 1109.07 915.805 1108.4C912.458 1107.73 909.781 1107.4 907.773 1107.4C901.749 1108.07 898.737 1109.4 898.737 1111.41L899.741 1113.42C901.08 1114.76 910.116 1115.43 926.849 1115.43ZM915.805 1119.44H906.769C902.084 1119.44 895.39 1115.09 886.689 1106.39C883.342 1103.72 879.326 1100.7 874.641 1097.36C870.625 1094.01 866.944 1090.66 863.597 1087.32C856.234 1082.63 851.549 1077.61 849.541 1072.26C847.533 1067.57 846.529 1061.55 846.529 1054.18C848.537 1015.36 876.649 958.805 930.865 884.509C952.284 856.397 983.073 822.261 1023.23 782.101C1063.39 741.941 1097.53 711.151 1125.64 689.733L1164.8 660.617L1184.88 597.365C1208.3 529.093 1220.02 490.271 1220.02 480.901C1220.02 480.231 1219.68 479.897 1219.01 479.897C1218.34 479.897 1213.66 485.586 1204.96 496.965C1196.93 507.674 1187.22 520.391 1175.84 535.117C1065.4 675.677 973.368 765.033 899.741 803.185C882.338 813.225 868.952 818.245 859.581 818.245C858.242 818.245 855.23 817.91 850.545 817.241C845.19 816.571 833.812 808.205 816.409 792.141L786.289 765.033L787.293 741.941C791.978 702.45 821.094 647.899 874.641 578.289C928.188 508.678 991.105 443.083 1063.39 381.505C1109.58 342.683 1149.07 317.583 1181.87 306.205C1193.24 302.189 1202.28 300.181 1208.97 300.181C1223.03 300.181 1230.06 307.543 1230.06 322.269C1230.06 327.623 1232.07 330.301 1236.08 330.301L1252.15 328.293C1258.17 328.293 1261.85 330.97 1263.19 336.325C1264.53 341.01 1267.21 345.361 1271.22 349.377C1275.24 353.393 1278.58 355.401 1281.26 355.401H1282.27C1284.27 355.401 1288.96 359.417 1296.32 367.449C1303.68 375.481 1307.37 382.843 1307.37 389.537C1307.37 446.43 1285.95 536.79 1243.11 660.617H1253.15C1256.5 660.617 1260.18 661.955 1264.19 664.633C1268.88 667.31 1271.22 669.987 1271.22 672.665C1271.22 674.003 1270.55 675.007 1269.21 675.677C1267.87 675.677 1265.2 676.681 1261.18 678.689C1247.13 686.721 1237.75 693.749 1233.07 699.773C1228.38 705.127 1221.02 720.187 1210.98 744.953C1154.76 880.827 1095.86 981.897 1034.28 1048.16C1016.87 1067.57 1001.81 1081.96 989.097 1091.33C977.049 1100.7 963.997 1107.73 949.941 1112.42C935.885 1117.1 924.506 1119.44 915.805 1119.44Z" fill="black"/>
<path d="M686.062 335.321C688.07 335.321 689.074 331.974 689.074 325.281L688.07 324.277L686.062 326.285C684.723 326.954 684.054 328.293 684.054 330.301C684.054 330.97 684.054 331.974 684.054 333.313C684.723 334.651 685.392 335.321 686.062 335.321ZM832.646 394.557L826.622 381.505C822.606 373.473 819.259 369.457 816.582 369.457C815.243 369.457 813.57 369.791 811.562 370.461C809.554 371.13 807.88 371.465 806.542 371.465H805.538C805.538 373.473 809.219 377.823 816.582 384.517C823.944 391.21 829.299 394.557 832.646 394.557ZM874.814 451.785L875.818 450.781L866.782 437.729H865.778C865.778 439.067 866.782 441.745 868.79 445.761C871.467 449.777 873.14 451.785 873.81 451.785H874.814ZM928.026 461.825C935.388 461.825 942.082 461.49 948.106 460.821C954.13 459.482 958.146 458.478 960.154 457.809L962.162 456.805C962.162 455.466 953.795 454.797 937.062 454.797C920.328 454.797 908.95 453.793 902.926 451.785L897.906 450.781C897.906 458.143 907.946 461.825 928.026 461.825ZM948.106 501.985C945.428 500.646 942.416 499.642 939.07 498.973C936.392 497.634 933.38 496.63 930.034 495.961C926.687 494.622 921.332 493.953 913.97 493.953C921.332 497.969 926.687 500.311 930.034 500.981C934.05 501.65 940.074 501.985 948.106 501.985ZM679.034 527.085L682.046 525.077C683.384 523.738 684.723 521.73 686.062 519.053C688.07 516.375 689.074 514.367 689.074 513.029C689.074 511.69 688.404 511.021 687.066 511.021C686.396 511.021 684.723 512.025 682.046 514.033C680.038 516.041 679.034 520.057 679.034 526.081V527.085ZM592.69 792.141C592.02 792.141 590.682 791.137 588.674 789.129C583.319 786.451 577.964 782.436 572.61 777.081C570.602 775.742 569.263 775.073 568.594 775.073C567.255 775.073 560.896 771.392 549.518 764.029C537.47 757.336 530.442 751.311 528.434 745.957C528.434 723.869 534.123 691.071 545.502 647.565C556.88 604.058 572.275 555.531 591.686 501.985C623.144 412.294 648.914 356.739 668.994 335.321C677.695 325.281 684.388 320.261 689.074 320.261C691.751 320.261 693.09 322.269 693.09 326.285C693.09 332.978 694.428 338.333 697.106 342.349C700.452 349.042 704.803 352.389 710.158 352.389C711.496 352.389 712.835 352.054 714.174 351.385C715.512 350.046 717.186 349.377 719.194 349.377C721.202 349.377 728.899 354.731 742.286 365.441L737.266 384.517C733.919 394.557 731.242 399.577 729.234 399.577C727.226 399.577 724.214 403.927 720.198 412.629C712.166 430.701 704.468 452.119 697.106 476.885L694.094 493.953H695.098C699.783 493.953 713.504 477.889 736.262 445.761C776.422 389.537 803.195 361.425 816.582 361.425C821.936 363.433 826.622 368.453 830.638 376.485C833.984 381.839 841.682 388.867 853.73 397.569C863.1 402.923 872.136 411.625 880.838 423.673C884.854 431.035 888.87 436.055 892.886 438.733C902.256 444.757 915.308 447.769 932.042 447.769C954.799 447.769 973.206 445.761 987.262 441.745C987.262 442.414 984.919 444.422 980.234 447.769C975.548 450.446 973.206 452.454 973.206 453.793C973.206 456.47 976.552 457.809 983.246 457.809C990.608 457.809 996.632 460.151 1001.32 464.837C1004 469.522 1007.68 471.865 1012.36 471.865C1013.03 471.195 1014.03 470.861 1015.37 470.861C1016.71 470.861 1018.39 471.53 1020.39 472.869C1023.07 474.207 1025.41 476.55 1027.42 479.897C1030.1 482.574 1031.77 484.917 1032.44 486.925C1032.44 488.933 1030.43 490.941 1026.42 492.949C1016.38 498.973 1004.66 502.654 991.278 503.993C980.568 503.993 975.214 504.997 975.214 507.005C975.214 509.013 970.194 510.017 960.154 510.017C948.106 510.017 938.066 509.682 930.034 509.013C922.671 507.674 917.316 506.335 913.97 504.997C910.623 502.989 904.934 498.973 896.902 492.949C888.87 486.255 880.503 478.893 871.802 470.861C863.1 462.159 855.738 455.801 849.714 451.785C844.359 447.769 840.678 445.761 838.67 445.761C832.646 445.761 805.538 482.239 757.346 555.197C718.524 614.098 678.03 678.02 635.862 746.961C629.168 758.34 621.136 768.714 611.766 778.085C602.395 787.455 596.036 792.141 592.69 792.141Z" fill="black"/>
<path d="M479.61 438.732C482.287 436.055 484.964 428.023 487.642 414.636C490.988 401.25 492.662 389.871 492.662 380.5C492.662 371.799 490.988 367.448 487.642 367.448C484.295 367.448 482.622 373.138 482.622 384.516V390.54C482.622 396.564 482.287 403.258 481.618 410.62C480.948 417.983 480.279 423.672 479.61 427.688C478.94 431.704 478.606 434.716 478.606 436.724C478.606 438.063 478.94 438.732 479.61 438.732ZM462.542 687.724C463.211 687.055 463.546 686.051 463.546 684.712C463.546 683.374 463.211 681.7 462.542 679.692L461.538 677.684C460.868 679.023 460.534 681.366 460.534 684.712C460.534 686.72 460.868 687.724 461.538 687.724H462.542ZM458.526 703.788L459.53 699.772L457.522 693.748C456.852 693.748 456.518 695.422 456.518 698.768C456.518 702.115 456.852 703.788 457.522 703.788H458.526ZM453.506 722.864C454.844 722.864 455.514 721.191 455.514 717.844C455.514 713.159 454.844 710.816 453.506 710.816C452.836 710.816 452.502 712.824 452.502 716.84C452.502 720.856 452.836 722.864 453.506 722.864ZM220.578 728.888C222.586 728.888 229.279 724.538 240.658 715.836C252.706 706.466 266.762 694.083 282.826 678.688C322.316 639.198 364.484 590.336 409.33 532.104C410.668 530.766 412.007 528.758 413.346 526.08L427.402 509.012C450.828 479.562 462.542 461.155 462.542 453.792C462.542 450.446 460.534 448.772 456.518 448.772H454.51C451.163 448.772 449.49 445.76 449.49 439.736C449.49 435.72 450.494 429.696 452.502 421.664L453.506 413.632C453.506 407.608 452.836 404.596 451.498 404.596C448.82 401.919 447.482 398.238 447.482 393.552C447.482 391.544 446.812 390.54 445.474 390.54C442.796 391.21 434.095 398.907 419.37 413.632C349.09 485.92 289.519 573.938 240.658 677.684C226.602 707.135 219.574 723.868 219.574 727.884C219.574 728.554 219.908 728.888 220.578 728.888ZM208.53 794.148C210.538 794.148 213.55 793.814 217.566 793.144C221.582 793.144 225.263 792.475 228.61 791.136C231.956 789.798 233.63 788.794 233.63 788.124C233.63 787.455 230.618 786.786 224.594 786.116H223.59C218.904 786.116 214.888 786.786 211.542 788.124C207.526 789.463 205.518 790.802 205.518 792.14C205.518 792.81 206.522 793.479 208.53 794.148ZM458.526 350.38C459.195 350.38 459.53 349.042 459.53 346.364C459.53 336.324 454.175 331.304 443.466 331.304C434.764 331.304 424.724 334.651 413.346 341.344C406.652 345.36 403.306 347.703 403.306 348.372C403.975 348.372 404.979 348.038 406.318 347.368C408.326 346.699 412.676 346.03 419.37 345.36L430.414 343.352C443.8 343.352 451.498 344.691 453.506 347.368C456.183 349.376 457.856 350.38 458.526 350.38ZM437.442 809.208L405.314 792.14C405.983 781.431 406.318 771.056 406.318 761.016C406.318 751.646 407.656 738.928 410.334 722.864C413.011 706.131 416.023 690.067 419.37 674.672C422.716 658.608 425.394 645.891 427.402 636.52C429.41 626.48 430.414 620.456 430.414 618.448V617.444C429.075 617.444 420.374 626.815 404.31 645.556C366.827 692.41 332.022 728.219 299.894 752.984C290.523 759.678 280.148 766.371 268.77 773.064C240.658 789.798 223.255 798.164 216.562 798.164C215.223 798.164 210.872 796.826 203.51 794.148C196.147 791.471 188.45 787.79 180.418 783.104C163.015 774.403 151.971 766.036 147.286 758.004C144.608 753.988 143.27 748.634 143.27 741.94C143.27 736.586 144.274 730.227 146.282 722.864C156.991 678.019 181.756 623.134 220.578 558.208C259.399 493.283 301.232 437.059 346.078 389.536C387.576 346.699 419.37 325.28 441.458 325.28C450.159 325.28 456.183 329.296 459.53 337.328C463.546 344.691 466.892 348.372 469.57 348.372H472.582C475.928 348.372 480.948 350.046 487.642 353.392C495.004 356.07 501.028 360.42 505.714 366.444C510.399 371.799 512.742 377.154 512.742 382.508C512.742 387.194 511.068 400.246 507.722 421.664L505.714 431.704C505.714 434.382 507.387 437.728 510.734 441.744C514.75 445.091 519.435 446.764 524.79 446.764C527.467 446.764 529.475 446.095 530.814 444.756C532.822 442.748 534.83 441.744 536.838 441.744C538.176 441.744 542.192 443.418 548.886 446.764C556.248 452.788 559.93 456.804 559.93 458.812C559.93 466.844 550.224 498.303 530.814 553.188C514.08 600.042 499.02 650.911 485.634 705.796C474.255 749.972 468.566 779.758 468.566 795.152C468.566 801.846 467.227 805.192 464.55 805.192L456.518 803.184H450.494C449.155 803.184 448.486 796.156 448.486 782.1V765.032L450.494 736.92C450.494 734.243 450.159 732.904 449.49 732.904C448.151 732.904 444.135 758.339 437.442 809.208Z" fill="black"/>
<path d="M41.1579 883.504C42.4965 883.504 43.1658 882.835 43.1658 881.496L40.1539 879.488C38.8152 879.488 37.1419 879.823 35.1339 880.492C33.7952 881.162 33.1259 881.831 33.1259 882.5L41.1579 883.504ZM159.63 789.128C159.63 788.459 158.961 787.79 157.622 787.12C156.953 786.451 155.614 786.116 153.606 786.116L147.582 788.124L153.606 789.128H159.63ZM198.786 785.112L199.79 784.108C199.79 782.77 196.778 782.1 190.754 782.1C184.73 782.1 181.718 782.77 181.718 784.108C181.718 784.778 187.407 785.112 198.786 785.112ZM-133.538 923.664C-136.885 923.664 -139.562 922.326 -141.57 919.648C-144.248 916.971 -145.586 914.294 -145.586 911.616C-144.917 910.947 -142.24 909.608 -137.554 907.6C-133.538 906.262 -131.53 905.258 -131.53 904.588H-140.566C-145.252 904.588 -150.606 902.58 -156.63 898.564C-163.324 895.218 -169.013 890.867 -173.698 885.512C-179.053 880.827 -182.734 876.811 -184.742 873.464C-184.742 869.448 -183.069 867.44 -179.722 867.44C-177.045 867.44 -173.364 865.098 -168.678 860.412C-166.001 857.735 -157.969 853.719 -144.582 848.364C-113.793 835.647 -86.0155 826.276 -61.2502 820.252C-54.5568 818.914 -49.8715 815.567 -47.1942 810.212C-44.5168 805.527 -42.8435 797.495 -42.1742 786.116C-38.8275 717.175 -3.35283 598.703 64.2498 430.7C102.402 335.655 140.889 248.307 179.71 168.656C219.201 88.3363 249.655 36.7976 271.074 14.0403C279.775 5.33895 285.799 0.988281 289.146 0.988281C290.485 0.988281 291.154 1.99227 291.154 4.00024L289.146 17.0523C289.146 19.7296 289.815 21.0683 291.154 21.0683C291.823 21.0683 292.493 20.7336 293.162 20.0643C294.501 19.3949 295.839 19.0603 297.178 19.0603C298.517 19.0603 300.19 19.7296 302.198 21.0683C304.206 21.7376 306.214 23.0763 308.222 25.0843C310.899 27.0923 312.238 29.4349 312.238 32.1122C312.238 34.1203 312.238 35.1243 312.238 35.1243C312.907 35.1243 313.577 35.1243 314.246 35.1243C314.915 35.1243 315.919 34.4549 317.258 33.1163C319.266 31.7776 320.939 31.1083 322.278 31.1083C325.625 31.1083 329.641 33.7856 334.326 39.1403C341.689 43.8256 345.37 48.1763 345.37 52.1923C345.37 56.8776 339.681 68.9256 328.302 88.3363C319.601 105.739 315.25 115.779 315.25 118.456H316.254V119.46L314.246 121.468C312.238 122.807 309.895 125.819 307.218 130.504C299.855 141.883 293.831 153.262 289.146 164.64L287.138 173.676C287.807 173.676 288.142 174.011 288.142 174.68H285.13C284.461 174.68 280.779 180.37 274.086 191.748C268.062 202.458 261.369 215.175 254.006 229.9C235.265 269.391 225.894 289.806 225.894 291.144C225.894 292.483 225.559 293.487 224.89 294.156H219.87C219.201 294.826 218.866 295.83 218.866 297.168C218.866 297.838 217.193 302.188 213.846 310.22C205.814 330.3 198.117 347.368 190.754 361.424L168.666 409.616C165.989 416.31 163.646 422.668 161.638 428.692C159.63 434.716 154.275 446.095 145.574 462.828C138.211 473.538 121.143 517.044 94.3699 593.348C74.2899 648.234 60.2339 692.075 52.2019 724.872C44.1699 757.67 40.1539 778.419 40.1539 787.12C40.1539 789.798 40.4885 791.471 41.1579 792.14C52.5365 792.14 66.5925 791.136 83.3259 789.128C160.969 776.411 232.922 770.052 299.186 770.052C310.565 770.052 316.254 773.399 316.254 780.092C316.254 782.77 315.25 785.112 313.242 787.12C311.234 789.128 309.895 790.132 309.226 790.132V785.112C309.226 781.766 308.557 779.423 307.218 778.084C306.549 776.746 300.19 775.407 288.142 774.068C265.385 774.068 238.946 776.746 208.826 782.1H282.118C292.827 783.439 301.194 786.786 307.218 792.14C313.911 797.495 321.609 801.176 330.31 803.184C339.681 805.862 346.039 812.22 349.386 822.26C350.725 824.268 351.394 826.276 351.394 828.284C351.394 832.3 348.047 834.308 341.354 834.308C337.338 834.308 331.314 833.639 323.282 832.3C315.919 830.962 306.883 830.292 296.174 830.292C285.465 830.962 269.066 833.304 246.978 837.32C133.191 856.731 68.9352 871.791 54.2099 882.5C48.1859 887.186 43.5005 890.198 40.1539 891.536C35.4685 891.536 31.7872 890.867 29.1098 889.528C26.4325 888.859 21.0779 888.524 13.0459 888.524C7.02185 888.524 -14.7315 893.879 -52.2142 904.588C-96.3902 917.306 -123.498 923.664 -133.538 923.664Z" fill="black"/>
</svg>
