<svg width="348" height="108" viewBox="0 0 348 108" fill="none" xmlns="http://www.w3.org/2000/svg">
<path d="M319.571 67.68C319.827 67.68 320.211 67.552 320.723 67.296C321.491 66.784 324.221 64.2667 328.915 59.744C331.475 57.184 333.395 54.8374 334.675 52.704C335.357 51.5094 335.699 50.784 335.699 50.528L335.571 50.4H335.315C335.144 50.4 335.059 50.272 335.059 50.016C335.059 49.4187 335.187 49.0347 335.443 48.864C335.955 48.352 336.381 47.4134 336.723 46.048L337.107 44.896C337.021 44.896 336.936 44.9814 336.851 45.152C336.765 45.3227 336.296 46.048 335.443 47.328C335.016 47.84 334.632 48.3947 334.291 48.992C333.011 50.9547 332.2 51.936 331.859 51.936C331.603 51.7654 331.475 51.552 331.475 51.296C331.475 50.784 331.645 50.528 331.987 50.528C332.413 50.528 332.627 50.2294 332.627 49.632C332.627 49.12 332.584 48.864 332.499 48.864C332.413 48.864 332.157 49.1627 331.731 49.76C330.963 50.6987 330.323 51.168 329.811 51.168C329.384 51.168 327.848 53.0027 325.203 56.672C322.643 60.3414 321.363 62.432 321.363 62.944C321.363 63.456 321.235 63.712 320.979 63.712C320.808 63.712 320.595 63.9254 320.339 64.352C319.656 65.2054 319.315 66.016 319.315 66.784C319.315 67.04 319.101 67.168 318.675 67.168V67.296C318.675 67.3814 318.76 67.4667 318.931 67.552C319.187 67.6374 319.4 67.68 319.571 67.68ZM313.811 97.632C314.835 97.632 315.816 97.3334 316.755 96.736L317.267 96.48L317.139 96.352L316.627 96.48C315.859 96.736 314.963 96.864 313.939 96.864C312.915 96.864 312.403 96.9067 312.403 96.992C312.403 97.0774 312.488 97.2054 312.659 97.376C312.915 97.5467 313.299 97.632 313.811 97.632ZM314.707 103.008C315.475 103.008 315.859 102.923 315.859 102.752L315.475 102.624C315.304 102.539 315.048 102.496 314.707 102.496C314.365 102.496 314.109 102.539 313.939 102.624L313.555 102.752C313.555 102.923 313.939 103.008 314.707 103.008ZM344.915 78.944V78.816C345 78.816 345.043 78.7307 345.043 78.56V78.432V78.304L344.787 78.688L344.915 78.944ZM316.371 104.928C315.688 104.928 314.963 104.8 314.195 104.544C313.427 104.373 312.104 103.648 310.227 102.368C308.435 101.088 306.685 99.68 304.979 98.144C303.272 96.6934 302.077 95.5414 301.395 94.688C299.944 92.384 299.219 89.5254 299.219 86.112C299.219 83.8934 299.816 80.4374 301.011 75.744C302.12 70.9654 304.936 65.0347 309.459 57.952C314.067 50.8694 319.613 44.896 326.099 40.032C328.915 37.8987 331.133 36.832 332.755 36.832C333.352 36.832 333.821 37.0027 334.163 37.344C334.589 37.6 334.888 37.8987 335.059 38.24C335.315 38.496 335.443 38.752 335.443 39.008C335.443 39.264 335.4 39.392 335.315 39.392C335.229 39.392 335.101 39.2214 334.931 38.88C334.589 38.0267 333.907 37.6 332.883 37.6C332.371 37.6 331.901 37.728 331.475 37.984C331.048 38.24 330.835 38.4107 330.835 38.496C330.835 38.5814 331.133 38.624 331.731 38.624C332.413 38.624 333.181 39.008 334.035 39.776C334.973 40.4587 335.827 40.8 336.595 40.8C337.448 40.8 338.003 40.9707 338.259 41.312C338.515 41.568 338.728 41.696 338.899 41.696C339.155 41.696 339.283 41.5254 339.283 41.184L339.155 39.904C339.24 39.904 339.368 40.032 339.539 40.288C339.965 40.8 340.179 41.4827 340.179 42.336C340.179 43.104 340.435 43.6587 340.947 44C341.459 44.5974 341.715 45.6214 341.715 47.072C341.715 48.5227 341.459 50.016 340.947 51.552C340.52 52.4907 340.307 53.1307 340.307 53.472H340.435C340.776 53.472 341.203 52.6187 341.715 50.912C342.227 48.6934 342.483 47.072 342.483 46.048C342.483 44.256 342.611 43.36 342.867 43.36C342.952 43.36 343.123 43.488 343.379 43.744C344.659 45.024 345.299 46.5174 345.299 48.224C345.299 50.4427 344.104 53.6 341.715 57.696C339.411 61.7067 335.357 65.9307 329.555 70.368C324.691 73.8667 320.765 75.616 317.779 75.616C316.925 75.616 316.285 75.6587 315.859 75.744C315.517 75.744 315.261 75.872 315.091 76.128C314.323 77.2374 313.64 78.944 313.043 81.248L312.403 83.552C311.549 87.136 311.123 90.1227 311.123 92.512C311.123 94.2187 311.293 95.1574 311.635 95.328C312.061 95.584 312.659 95.712 313.427 95.712C316.157 95.712 319.997 94.0907 324.947 90.848C327.08 89.4827 329.043 87.904 330.835 86.112C336.893 80.736 340.179 77.664 340.691 76.896C341.629 75.872 342.397 75.36 342.995 75.36C343.763 75.36 344.701 75.872 345.811 76.896C347.005 77.92 347.603 78.944 347.603 79.968C347.432 81.3334 345.981 83.4667 343.251 86.368C331.901 98.7414 322.941 104.928 316.371 104.928Z" fill="#215FF6"/>
<path d="M284.776 38.2393C285.032 38.2393 285.16 37.8127 285.16 36.9593L285.032 36.8313L284.776 37.0873C284.605 37.1727 284.52 37.3433 284.52 37.5993C284.52 37.6847 284.52 37.8127 284.52 37.9833C284.605 38.154 284.69 38.2393 284.776 38.2393ZM303.464 45.7913L302.696 44.1273C302.184 43.1033 301.757 42.5913 301.416 42.5913C301.245 42.5913 301.032 42.634 300.776 42.7193C300.52 42.8047 300.306 42.8473 300.136 42.8473H300.008C300.008 43.1033 300.477 43.658 301.416 44.5113C302.354 45.3647 303.037 45.7913 303.464 45.7913ZM308.84 53.0873L308.968 52.9593L307.816 51.2953H307.688C307.688 51.466 307.816 51.8073 308.072 52.3193C308.413 52.8313 308.626 53.0873 308.712 53.0873H308.84ZM315.624 54.3673C316.562 54.3673 317.416 54.3247 318.184 54.2393C318.952 54.0687 319.464 53.9407 319.72 53.8553L319.976 53.7273C319.976 53.5567 318.909 53.4713 316.776 53.4713C314.642 53.4713 313.192 53.3433 312.424 53.0873L311.784 52.9593C311.784 53.898 313.064 54.3673 315.624 54.3673ZM318.184 59.4873C317.842 59.3167 317.458 59.1887 317.032 59.1033C316.69 58.9327 316.306 58.8047 315.88 58.7193C315.453 58.5487 314.77 58.4633 313.832 58.4633C314.77 58.9753 315.453 59.274 315.88 59.3593C316.392 59.4447 317.16 59.4873 318.184 59.4873ZM283.88 62.6873L284.264 62.4313C284.434 62.2607 284.605 62.0047 284.776 61.6633C285.032 61.322 285.16 61.066 285.16 60.8953C285.16 60.7247 285.074 60.6393 284.904 60.6393C284.818 60.6393 284.605 60.7673 284.264 61.0233C284.008 61.2793 283.88 61.7913 283.88 62.5593V62.6873ZM272.872 96.4793C272.786 96.4793 272.616 96.3513 272.36 96.0953C271.677 95.754 270.994 95.242 270.312 94.5593C270.056 94.3887 269.885 94.3033 269.8 94.3033C269.629 94.3033 268.818 93.834 267.368 92.8953C265.832 92.042 264.936 91.274 264.68 90.5913C264.68 87.7753 265.405 83.594 266.856 78.0473C268.306 72.5007 270.269 66.314 272.744 59.4873C276.754 48.0527 280.04 40.97 282.6 38.2393C283.709 36.9593 284.562 36.3193 285.16 36.3193C285.501 36.3193 285.672 36.5753 285.672 37.0873C285.672 37.9407 285.842 38.6233 286.184 39.1353C286.61 39.9887 287.165 40.4153 287.848 40.4153C288.018 40.4153 288.189 40.3727 288.36 40.2873C288.53 40.1167 288.744 40.0313 289 40.0313C289.256 40.0313 290.237 40.714 291.944 42.0793L291.304 44.5113C290.877 45.7913 290.536 46.4313 290.28 46.4313C290.024 46.4313 289.64 46.986 289.128 48.0953C288.104 50.3993 287.122 53.13 286.184 56.2873L285.8 58.4633H285.928C286.525 58.4633 288.274 56.4153 291.176 52.3193C296.296 45.1513 299.709 41.5673 301.416 41.5673C302.098 41.8233 302.696 42.4633 303.208 43.4873C303.634 44.17 304.616 45.066 306.152 46.1753C307.346 46.858 308.498 47.9673 309.608 49.5033C310.12 50.442 310.632 51.082 311.144 51.4233C312.338 52.1913 314.002 52.5753 316.136 52.5753C319.037 52.5753 321.384 52.3193 323.176 51.8073C323.176 51.8927 322.877 52.1487 322.28 52.5753C321.682 52.9167 321.384 53.1727 321.384 53.3433C321.384 53.6847 321.81 53.8553 322.664 53.8553C323.602 53.8553 324.37 54.154 324.968 54.7513C325.309 55.3487 325.778 55.6473 326.376 55.6473C326.461 55.562 326.589 55.5193 326.76 55.5193C326.93 55.5193 327.144 55.6047 327.4 55.7753C327.741 55.946 328.04 56.2447 328.296 56.6713C328.637 57.0127 328.85 57.3113 328.936 57.5673C328.936 57.8233 328.68 58.0793 328.168 58.3353C326.888 59.1033 325.394 59.5727 323.688 59.7433C322.322 59.7433 321.64 59.8713 321.64 60.1273C321.64 60.3833 321 60.5113 319.72 60.5113C318.184 60.5113 316.904 60.4687 315.88 60.3833C314.941 60.2127 314.258 60.042 313.832 59.8713C313.405 59.6153 312.68 59.1033 311.656 58.3353C310.632 57.482 309.565 56.5433 308.456 55.5193C307.346 54.41 306.408 53.5993 305.64 53.0873C304.957 52.5753 304.488 52.3193 304.232 52.3193C303.464 52.3193 300.008 56.97 293.864 66.2713C288.914 73.7807 283.752 81.93 278.376 90.7193C277.522 92.17 276.498 93.4927 275.304 94.6873C274.109 95.882 273.298 96.4793 272.872 96.4793Z" fill="#215FF6"/>
<path d="M252.832 71.2634C252.832 71.0928 252.619 70.6661 252.192 69.9834C250.827 67.7648 250.059 66.6554 249.888 66.6554V66.7834C249.888 67.1248 250.059 67.6794 250.4 68.4474C250.827 69.1301 251.296 69.7701 251.808 70.3674C252.32 70.9648 252.661 71.2634 252.832 71.2634ZM254.24 68.8314C254.496 68.8314 255.093 67.9354 256.032 66.1434C260.128 58.2928 262.347 51.6794 262.688 46.3034L262.816 43.4874C262.816 42.7194 262.773 42.3354 262.688 42.3354C261.579 42.3354 260.128 43.3594 258.336 45.4074C256.544 47.4554 255.051 49.7594 253.856 52.3194C252.661 54.8794 252.064 57.7381 252.064 60.8954C252.064 63.0288 252.363 64.9061 252.96 66.5274C253.643 68.0634 254.069 68.8314 254.24 68.8314ZM264.352 37.4714L263.968 36.5754C263.029 34.9541 261.621 34.1434 259.744 34.1434H258.976C257.867 34.3141 257.312 34.4848 257.312 34.6554C257.312 34.8261 257.909 34.9541 259.104 35.0394C260.384 35.1248 261.024 35.2954 261.024 35.5514V35.8074C261.024 35.9781 261.195 36.1488 261.536 36.3194C261.877 36.4901 262.219 36.6608 262.56 36.8314C262.901 36.9168 263.243 37.0448 263.584 37.2154C263.925 37.3861 264.139 37.4714 264.224 37.4714H264.352ZM263.968 62.4314C264.309 62.4314 264.992 60.9808 266.016 58.0794C266.699 55.7754 267.04 54.4528 267.04 54.1114V53.8554C266.955 53.8554 266.784 54.1114 266.528 54.6234C265.931 55.9888 265.333 57.8661 264.736 60.2554L263.968 62.4314ZM267.808 45.5354C267.893 45.5354 267.979 45.4074 268.064 45.1514C268.064 44.8101 267.893 44.1701 267.552 43.2314C267.04 41.8661 266.656 41.1834 266.4 41.1834C266.144 41.1834 266.016 41.3114 266.016 41.5674C266.443 42.4208 266.827 43.3168 267.168 44.2554C267.509 45.1088 267.723 45.5354 267.808 45.5354ZM267.296 52.1914C267.467 52.1914 267.552 51.8501 267.552 51.1674C267.552 50.3994 267.467 50.0154 267.296 50.0154C267.211 50.0154 267.168 50.3994 267.168 51.1674C267.168 51.8501 267.211 52.1914 267.296 52.1914ZM262.432 66.0154C262.517 66.0154 262.731 65.6741 263.072 64.9914C263.584 64.4794 263.84 63.9248 263.84 63.3274V63.1994C263.755 63.1994 263.541 63.4554 263.2 63.9674C262.944 64.4794 262.731 64.9061 262.56 65.2474C262.475 65.5034 262.432 65.7168 262.432 65.8874V66.0154ZM233.376 87.3914C234.059 87.3914 235.509 86.8368 237.728 85.7274C242.507 83.2528 246.475 80.0528 249.632 76.1274L251.936 73.1834L248.736 69.8554C247.285 68.2341 245.877 66.3141 244.512 64.0954C243.232 61.8768 242.592 60.2981 242.592 59.3594C242.592 59.1888 242.549 59.1034 242.464 59.1034C242.379 59.1888 242.165 59.4021 241.824 59.7434C241.568 59.9994 241.44 60.3834 241.44 60.8954L241.568 61.2794C241.568 61.4501 241.44 61.5354 241.184 61.5354C240.928 61.5354 240.8 61.6208 240.8 61.7914L240.928 62.1754C240.928 62.5168 240.757 62.8581 240.416 63.1994C240.075 63.5408 239.904 63.8394 239.904 64.0954V64.3514C239.904 64.5221 239.776 64.6074 239.52 64.6074C239.264 64.6074 239.136 64.6928 239.136 64.8634L239.008 66.1434C238.667 67.2528 238.283 67.8074 237.856 67.8074H237.472C237.472 67.8928 237.515 67.9781 237.6 68.0634C237.685 68.0634 237.728 68.1061 237.728 68.1914C237.728 68.7034 237.515 69.3008 237.088 69.9834L236.448 71.5194H236.576L236.32 72.1594C235.467 73.5248 235.04 74.5061 235.04 75.1034C235.04 75.6154 234.869 76.0421 234.528 76.3834L234.016 78.0474C233.504 79.5834 233.163 80.9488 232.992 82.1434C232.736 83.9354 232.608 85.1728 232.608 85.8554C232.608 86.8794 232.864 87.3914 233.376 87.3914ZM235.936 94.5594L236.064 94.4314C236.064 94.2608 235.68 94.1754 234.912 94.1754C234.144 94.1754 233.76 94.2608 233.76 94.4314C233.76 94.5168 234.485 94.5594 235.936 94.5594ZM233.632 88.9274C233.973 88.9274 234.272 88.8848 234.528 88.7994C234.784 88.7141 234.955 88.6288 235.04 88.5434C235.211 88.3728 235.296 88.2448 235.296 88.1594C235.296 88.0741 235.211 88.0314 235.04 88.0314C234.784 88.0314 234.272 88.2021 233.504 88.5434C233.077 88.7141 232.864 88.8421 232.864 88.9274H233.632ZM234.528 96.0954C234.016 96.0954 233.632 96.0528 233.376 95.9674C233.205 95.8821 232.992 95.7541 232.736 95.5834C226.848 92.1701 223.307 89.4821 222.112 87.5194C221.259 86.0688 220.832 83.8501 220.832 80.8634C220.832 75.2314 222.539 69.0448 225.952 62.3034C233.291 48.0528 241.184 38.4101 249.632 33.3754C250.571 32.8634 251.253 32.6074 251.68 32.6074C252.192 32.6074 252.533 32.7354 252.704 32.9914C252.96 33.1621 253.131 33.3328 253.216 33.5034C253.301 33.5888 253.387 34.0581 253.472 34.9114C253.387 34.9114 253.301 34.7408 253.216 34.3994C253.131 33.7168 252.747 33.3754 252.064 33.3754C251.723 33.3754 251.253 33.5034 250.656 33.7594C250.4 33.8448 250.272 33.9301 250.272 34.0154C250.272 34.2714 250.784 34.5274 251.808 34.7834C252.405 34.9541 252.875 35.0394 253.216 35.0394C253.813 35.0394 254.368 34.8688 254.88 34.5274C256.075 33.5888 257.355 33.1194 258.72 33.1194C259.232 33.1194 260.043 33.2474 261.152 33.5034C262.261 33.6741 263.413 34.6981 264.608 36.5754C265.461 37.8554 266.357 38.8794 267.296 39.6474C269.259 41.6954 270.496 44.1701 271.008 47.0714C271.093 47.4981 271.136 48.0101 271.136 48.6074C271.136 50.8261 270.581 53.8554 269.472 57.6954C268.363 61.5354 266.272 66.5701 263.2 72.7994C262.688 73.6528 262.432 74.2501 262.432 74.5914C262.432 74.8474 262.56 74.9754 262.816 74.9754C263.157 74.9754 263.541 75.1034 263.968 75.3594C265.589 76.2981 266.4 77.1088 266.4 77.7914C266.4 77.9621 266.315 78.1328 266.144 78.3034C265.973 78.4741 265.675 78.5594 265.248 78.5594C264.992 78.5594 264.011 78.3461 262.304 77.9194C261.451 77.6634 260.853 77.5354 260.512 77.5354C260 77.5354 259.744 77.6208 259.744 77.7914C259.744 77.8768 259.872 77.9621 260.128 78.0474C260.384 78.1328 260.597 78.2181 260.768 78.3034C261.536 78.5594 262.304 78.6874 263.072 78.6874L263.2 78.9434C262.944 79.1994 262.261 79.3274 261.152 79.3274L260.512 79.1994C259.659 79.1994 258.635 80.0101 257.44 81.6314C252.917 87.0928 247.669 91.3168 241.696 94.3034C239.136 95.4981 236.747 96.0954 234.528 96.0954Z" fill="#215FF6"/>
<path d="M151.463 97.1196C151.548 97.1196 151.634 97.0342 151.719 96.8636C151.89 96.7782 151.975 96.3089 151.975 95.4556C151.89 94.9436 151.804 94.6876 151.719 94.6876C151.548 94.6876 151.42 94.9862 151.335 95.5836C151.335 96.2662 151.335 96.7356 151.335 96.9916L151.463 97.1196ZM178.215 93.2796C178.386 93.1942 178.556 92.9382 178.727 92.5116V92.3836C178.727 92.2129 178.599 92.0849 178.343 91.9996C177.746 91.9996 177.362 92.0849 177.191 92.2556C177.106 92.5116 177.063 92.6822 177.063 92.7676L177.191 93.0236C177.276 93.1942 177.447 93.2796 177.703 93.2796H178.215ZM210.471 107.104C210.13 107.104 209.575 106.933 208.807 106.592C207.527 105.909 206.418 105.013 205.479 103.904C204.626 102.794 204.199 101.77 204.199 100.832C204.199 93.1516 207.314 79.9676 213.543 61.2796C217.98 47.5409 221.308 37.7702 223.527 31.9676C224.807 28.5542 225.447 26.6769 225.447 26.3356C225.447 26.2502 225.404 26.2076 225.319 26.2076C225.234 26.2076 224.935 26.7196 224.423 27.7436C223.655 29.1942 222.93 30.4316 222.247 31.4556C221.479 32.9916 220.327 34.9116 218.791 37.2156C217.938 38.7516 217.127 40.1169 216.359 41.3116L214.183 45.0236C212.988 46.8156 211.964 48.5649 211.111 50.2716C210.514 51.2102 210.087 51.8076 209.831 52.0636C209.66 52.3196 209.404 52.7462 209.063 53.3436L205.351 59.6156C204.412 60.8956 203.858 61.7489 203.687 62.1756C203.516 62.5169 203.218 62.9862 202.791 63.5836C202.45 64.1809 201.255 66.1862 199.207 69.5996L194.087 77.7916C194.087 77.9622 192.935 79.6262 190.631 82.7836C187.815 86.7942 185.34 89.7382 183.207 91.6156C181.074 93.4076 179.452 94.3036 178.343 94.3036C177.746 94.3036 177.063 94.0476 176.295 93.5356L174.503 92.2556C171.858 90.9756 170.279 89.9516 169.767 89.1836C168.487 87.9036 167.847 84.6182 167.847 79.3276C167.847 78.1329 167.932 75.8716 168.103 72.5436C168.274 69.2156 168.956 64.3942 170.151 58.0796C170.663 55.8609 170.919 54.4529 170.919 53.8556L168.999 57.8236C165.159 66.9542 162.386 73.6956 160.679 78.0476C156.839 88.4582 154.919 94.9862 154.919 97.6316C154.919 98.0582 155.004 98.2716 155.175 98.2716L155.431 98.1436C155.516 98.1436 155.559 98.3142 155.559 98.6556C155.559 99.5089 155.431 100.021 155.175 100.192C154.919 100.362 154.023 100.448 152.487 100.448C152.146 100.533 151.975 100.661 151.975 100.832C151.975 101.002 151.804 101.088 151.463 101.088C150.439 101.088 149.415 100.874 148.391 100.448C147.367 100.021 146.77 99.6369 146.599 99.2956C146.343 99.0396 146.215 98.3996 146.215 97.3756C146.215 94.6449 147.367 89.4396 149.671 81.7596C151.975 74.0796 155.047 65.3329 158.887 55.5196C170.578 25.7382 177.831 10.8476 180.647 10.8476C180.818 10.8476 180.903 10.9756 180.903 11.2316L180.775 12.2556C180.775 13.7062 181.927 14.4316 184.231 14.4316C185.255 14.4316 186.236 15.1142 187.175 16.4796C187.346 16.9062 187.431 17.4609 187.431 18.1436C187.431 18.8262 187.644 19.3809 188.071 19.8076C188.583 20.2342 188.839 21.0449 188.839 22.2396C188.839 22.7516 188.626 24.0742 188.199 26.2076C187.175 31.7542 186.066 36.7462 184.871 41.1836C184.188 43.8289 183.292 47.5409 182.183 52.3196C181.159 57.0982 180.434 60.7676 180.007 63.3276C178.983 68.2769 178.428 71.5622 178.343 73.1836C178.002 75.5729 177.831 78.2182 177.831 81.1196C177.831 82.1436 177.916 82.6556 178.087 82.6556L178.215 82.5276C179.068 82.0156 183.506 75.1889 191.527 62.0476C195.538 55.1356 198.183 50.7836 199.463 48.9916C199.463 48.8209 199.975 47.9249 200.999 46.3036C202.108 44.5969 203.303 42.6342 204.583 40.4156C217.554 19.3382 225.063 7.73289 227.111 5.59956C228.476 4.4049 229.415 3.80756 229.927 3.80756C229.927 3.97823 229.756 4.27689 229.415 4.70356C229.074 5.04489 228.903 5.30089 228.903 5.47156C228.903 5.72756 228.988 5.9409 229.159 6.11156C229.415 6.28223 229.628 6.36756 229.799 6.36756C229.97 6.36756 230.183 6.28223 230.439 6.11156C233.34 3.21023 234.834 1.75956 234.919 1.75956C235.09 1.75956 235.388 1.54623 235.815 1.11956C236.242 0.607562 236.626 0.351562 236.967 0.351562C237.82 0.351562 238.247 0.778229 238.247 1.63156L237.991 4.31956L238.375 3.55156C238.631 3.03956 238.844 2.7409 239.015 2.65556H239.143C239.228 2.65556 239.271 2.7409 239.271 2.91156C239.271 2.99689 239.442 3.29556 239.783 3.80756C240.21 4.31956 240.679 4.83156 241.191 5.34356C241.703 5.85556 242.172 6.41023 242.599 7.00756C243.111 7.6049 243.452 8.1169 243.623 8.54356C243.794 8.8849 243.879 9.35423 243.879 9.95156C243.879 12.2556 242.599 17.1622 240.039 24.6716C239.015 27.6582 237.991 30.5596 236.967 33.3756C236.028 36.1916 235.346 38.0262 234.919 38.8796C233.98 40.5862 233.511 41.9089 233.511 42.8476L232.231 45.9196C231.804 46.7729 231.463 47.5409 231.207 48.2236C231.036 48.8209 230.951 49.2902 230.951 49.6316C230.951 49.8876 230.567 50.6982 229.799 52.0636C229.287 53.0876 228.86 54.2822 228.519 55.6476C228.348 56.2449 228.135 56.7996 227.879 57.3116C227.794 57.3969 227.623 57.7809 227.367 58.4636C226.087 61.8769 225.447 63.7969 225.447 64.2236C225.447 64.5649 225.319 64.8636 225.063 65.1196C224.38 67.1676 224.039 68.4902 224.039 69.0876C224.039 69.3436 223.868 69.6422 223.527 69.9836C223.186 70.6662 221.223 76.7676 217.639 88.2876C216.7 91.0182 215.89 94.5169 215.207 98.7836C214.439 102.624 213.97 104.672 213.799 104.928C213.458 105.525 212.903 105.994 212.135 106.336C211.452 106.848 210.898 107.104 210.471 107.104Z" fill="#215FF6"/>
<path d="M88.332 71.2634C88.332 71.0928 88.1187 70.6661 87.692 69.9834C86.3267 67.7648 85.5587 66.6554 85.388 66.6554V66.7834C85.388 67.1248 85.5587 67.6794 85.9 68.4474C86.3267 69.1301 86.796 69.7701 87.308 70.3674C87.82 70.9648 88.1614 71.2634 88.332 71.2634ZM89.74 68.8314C89.996 68.8314 90.5934 67.9354 91.532 66.1434C95.628 58.2928 97.8467 51.6794 98.188 46.3034L98.316 43.4874C98.316 42.7194 98.2734 42.3354 98.188 42.3354C97.0787 42.3354 95.628 43.3594 93.836 45.4074C92.044 47.4554 90.5507 49.7594 89.356 52.3194C88.1614 54.8794 87.564 57.7381 87.564 60.8954C87.564 63.0288 87.8627 64.9061 88.46 66.5274C89.1427 68.0634 89.5694 68.8314 89.74 68.8314ZM99.852 37.4714L99.468 36.5754C98.5294 34.9541 97.1214 34.1434 95.244 34.1434H94.476C93.3667 34.3141 92.812 34.4848 92.812 34.6554C92.812 34.8261 93.4094 34.9541 94.604 35.0394C95.884 35.1248 96.524 35.2954 96.524 35.5514V35.8074C96.524 35.9781 96.6947 36.1488 97.036 36.3194C97.3774 36.4901 97.7187 36.6608 98.06 36.8314C98.4014 36.9168 98.7427 37.0448 99.084 37.2154C99.4254 37.3861 99.6387 37.4714 99.724 37.4714H99.852ZM99.468 62.4314C99.8094 62.4314 100.492 60.9808 101.516 58.0794C102.199 55.7754 102.54 54.4528 102.54 54.1114V53.8554C102.455 53.8554 102.284 54.1114 102.028 54.6234C101.431 55.9888 100.833 57.8661 100.236 60.2554L99.468 62.4314ZM103.308 45.5354C103.393 45.5354 103.479 45.4074 103.564 45.1514C103.564 44.8101 103.393 44.1701 103.052 43.2314C102.54 41.8661 102.156 41.1834 101.9 41.1834C101.644 41.1834 101.516 41.3114 101.516 41.5674C101.943 42.4208 102.327 43.3168 102.668 44.2554C103.009 45.1088 103.223 45.5354 103.308 45.5354ZM102.796 52.1914C102.967 52.1914 103.052 51.8501 103.052 51.1674C103.052 50.3994 102.967 50.0154 102.796 50.0154C102.711 50.0154 102.668 50.3994 102.668 51.1674C102.668 51.8501 102.711 52.1914 102.796 52.1914ZM97.932 66.0154C98.0174 66.0154 98.2307 65.6741 98.572 64.9914C99.084 64.4794 99.34 63.9248 99.34 63.3274V63.1994C99.2547 63.1994 99.0414 63.4554 98.7 63.9674C98.444 64.4794 98.2307 64.9061 98.06 65.2474C97.9747 65.5034 97.932 65.7168 97.932 65.8874V66.0154ZM68.876 87.3914C69.5587 87.3914 71.0094 86.8368 73.228 85.7274C78.0067 83.2528 81.9747 80.0528 85.132 76.1274L87.436 73.1834L84.236 69.8554C82.7854 68.2341 81.3774 66.3141 80.012 64.0954C78.732 61.8768 78.092 60.2981 78.092 59.3594C78.092 59.1888 78.0494 59.1034 77.964 59.1034C77.8787 59.1888 77.6654 59.4021 77.324 59.7434C77.068 59.9994 76.94 60.3834 76.94 60.8954L77.068 61.2794C77.068 61.4501 76.94 61.5354 76.684 61.5354C76.428 61.5354 76.3 61.6208 76.3 61.7914L76.428 62.1754C76.428 62.5168 76.2574 62.8581 75.916 63.1994C75.5747 63.5408 75.404 63.8394 75.404 64.0954V64.3514C75.404 64.5221 75.276 64.6074 75.02 64.6074C74.764 64.6074 74.636 64.6928 74.636 64.8634L74.508 66.1434C74.1667 67.2528 73.7827 67.8074 73.356 67.8074H72.972C72.972 67.8928 73.0147 67.9781 73.1 68.0634C73.1854 68.0634 73.228 68.1061 73.228 68.1914C73.228 68.7034 73.0147 69.3008 72.588 69.9834L71.948 71.5194H72.076L71.82 72.1594C70.9667 73.5248 70.54 74.5061 70.54 75.1034C70.54 75.6154 70.3694 76.0421 70.028 76.3834L69.516 78.0474C69.004 79.5834 68.6627 80.9488 68.492 82.1434C68.236 83.9354 68.108 85.1728 68.108 85.8554C68.108 86.8794 68.364 87.3914 68.876 87.3914ZM71.436 94.5594L71.564 94.4314C71.564 94.2608 71.18 94.1754 70.412 94.1754C69.644 94.1754 69.26 94.2608 69.26 94.4314C69.26 94.5168 69.9854 94.5594 71.436 94.5594ZM69.132 88.9274C69.4734 88.9274 69.772 88.8848 70.028 88.7994C70.284 88.7141 70.4547 88.6288 70.54 88.5434C70.7107 88.3728 70.796 88.2448 70.796 88.1594C70.796 88.0741 70.7107 88.0314 70.54 88.0314C70.284 88.0314 69.772 88.2021 69.004 88.5434C68.5774 88.7141 68.364 88.8421 68.364 88.9274H69.132ZM70.028 96.0954C69.516 96.0954 69.132 96.0528 68.876 95.9674C68.7054 95.8821 68.492 95.7541 68.236 95.5834C62.348 92.1701 58.8067 89.4821 57.612 87.5194C56.7587 86.0688 56.332 83.8501 56.332 80.8634C56.332 75.2314 58.0387 69.0448 61.452 62.3034C68.7907 48.0528 76.684 38.4101 85.132 33.3754C86.0707 32.8634 86.7534 32.6074 87.18 32.6074C87.692 32.6074 88.0334 32.7354 88.204 32.9914C88.46 33.1621 88.6307 33.3328 88.716 33.5034C88.8014 33.5888 88.8867 34.0581 88.972 34.9114C88.8867 34.9114 88.8014 34.7408 88.716 34.3994C88.6307 33.7168 88.2467 33.3754 87.564 33.3754C87.2227 33.3754 86.7534 33.5034 86.156 33.7594C85.9 33.8448 85.772 33.9301 85.772 34.0154C85.772 34.2714 86.284 34.5274 87.308 34.7834C87.9054 34.9541 88.3747 35.0394 88.716 35.0394C89.3134 35.0394 89.868 34.8688 90.38 34.5274C91.5747 33.5888 92.8547 33.1194 94.22 33.1194C94.732 33.1194 95.5427 33.2474 96.652 33.5034C97.7614 33.6741 98.9134 34.6981 100.108 36.5754C100.961 37.8554 101.857 38.8794 102.796 39.6474C104.759 41.6954 105.996 44.1701 106.508 47.0714C106.593 47.4981 106.636 48.0101 106.636 48.6074C106.636 50.8261 106.081 53.8554 104.972 57.6954C103.863 61.5354 101.772 66.5701 98.7 72.7994C98.188 73.6528 97.932 74.2501 97.932 74.5914C97.932 74.8474 98.06 74.9754 98.316 74.9754C98.6574 74.9754 99.0414 75.1034 99.468 75.3594C101.089 76.2981 101.9 77.1088 101.9 77.7914C101.9 77.9621 101.815 78.1328 101.644 78.3034C101.473 78.4741 101.175 78.5594 100.748 78.5594C100.492 78.5594 99.5107 78.3461 97.804 77.9194C96.9507 77.6634 96.3534 77.5354 96.012 77.5354C95.5 77.5354 95.244 77.6208 95.244 77.7914C95.244 77.8768 95.372 77.9621 95.628 78.0474C95.884 78.1328 96.0974 78.2181 96.268 78.3034C97.036 78.5594 97.804 78.6874 98.572 78.6874L98.7 78.9434C98.444 79.1994 97.7614 79.3274 96.652 79.3274L96.012 79.1994C95.1587 79.1994 94.1347 80.0101 92.94 81.6314C88.4174 87.0928 83.1694 91.3168 77.196 94.3034C74.636 95.4981 72.2467 96.0954 70.028 96.0954Z" fill="#215FF6"/>
<path d="M11.5197 92.6393C11.6051 92.6393 12.2877 92.1273 13.5677 91.1033C37.6317 72.1593 54.7411 52.6179 64.8957 32.4793C67.7971 26.1646 69.2477 21.3006 69.2477 17.8873C69.2477 15.8393 68.7357 14.3033 67.7117 13.2793C66.1757 12.3406 63.4877 11.8286 59.6477 11.7433C55.0397 11.7433 50.7304 12.0846 46.7197 12.7673L43.0077 13.1513L36.2237 28.5113L33.5357 34.3993C32.5117 36.4473 31.9997 37.6419 31.9997 37.9833L28.4157 46.1753C28.4157 46.5166 28.1597 47.1993 27.6477 48.2233C25.9411 51.6366 23.4237 57.8659 20.0957 66.9113C17.2797 74.4206 14.8477 81.3753 12.7997 87.7753C12.2024 89.7379 11.7331 91.1033 11.3917 91.8713V92.1273C11.3917 92.2126 11.3917 92.2979 11.3917 92.3833C11.3917 92.5539 11.4344 92.6393 11.5197 92.6393ZM73.7277 24.4153C73.8131 24.4153 73.8984 23.9459 73.9837 23.0073L74.1117 21.9833C74.1117 20.7886 73.8984 19.6793 73.4717 18.6553C73.1304 17.5459 72.9171 16.9913 72.8317 16.9913C72.7464 16.9913 72.7037 17.1619 72.7037 17.5033C72.7037 18.1006 72.8317 19.3806 73.0877 21.3433C73.4291 23.2206 73.6424 24.2446 73.7277 24.4153ZM6.27172 98.6553L6.39972 98.3993C6.48505 98.2286 6.52772 98.0579 6.52772 97.8873C6.52772 97.2899 6.44239 96.9913 6.27172 96.9913C6.18639 96.9913 6.14372 97.2473 6.14372 97.7593C6.14372 98.3566 6.18639 98.6553 6.27172 98.6553ZM4.60772 103.647C4.18105 103.647 3.54105 103.434 2.68772 103.007C1.74905 102.581 1.15172 102.154 0.895719 101.727C0.639719 101.386 0.511719 100.959 0.511719 100.447C0.511719 99.2526 0.981052 96.7779 1.91972 93.0233C4.56505 82.8686 8.44772 70.6659 13.5677 56.4153C18.7731 42.0793 23.3811 30.8153 27.3917 22.6233C28.5864 20.1486 29.1837 18.6126 29.1837 18.0153V17.8873H29.0557C28.7144 17.8873 27.6477 18.5273 25.8557 19.8073C24.8317 20.4046 24.3197 21.0019 24.3197 21.5993C24.3197 21.7699 24.3624 21.9406 24.4477 22.1113C24.5331 22.2819 24.5757 22.4099 24.5757 22.4953C24.5757 22.6659 24.5331 22.7513 24.4477 22.7513C24.2771 22.7513 23.8931 22.4953 23.2957 21.9833C22.6984 21.4713 22.3997 20.8313 22.3997 20.0633L22.5277 19.2953C22.5277 19.1246 22.4851 19.0393 22.3997 19.0393C22.3144 19.0393 22.1011 19.2099 21.7597 19.5513C21.4184 19.8926 21.2477 20.2339 21.2477 20.5753C21.2477 20.8313 21.3757 21.1726 21.6317 21.5993C21.8877 21.9406 22.0157 22.1966 22.0157 22.3673C21.5037 22.3673 20.6931 21.7273 19.5837 20.4473C18.9011 19.8499 18.5597 19.4233 18.5597 19.1673C18.5597 18.9113 18.3037 18.5273 17.7917 18.0153C17.4504 18.0153 17.2797 17.7593 17.2797 17.2473V17.1193C17.4504 16.7779 17.8771 16.2659 18.5597 15.5833C19.3277 14.8153 20.1384 14.1326 20.9917 13.5353C21.8451 12.9379 22.4424 12.5966 22.7837 12.5113C23.6371 12.0846 24.2344 11.6579 24.5757 11.2313C25.0024 10.8046 25.4717 10.5913 25.9837 10.5913L26.2397 10.7193C26.4104 10.7193 26.5384 10.7193 26.6237 10.7193C26.7944 10.6339 26.8797 10.5486 26.8797 10.4633C26.8797 10.2926 26.9224 10.1646 27.0077 10.0793C27.2637 10.0793 27.4771 10.1219 27.6477 10.2073C28.0744 10.2073 28.2877 10.1646 28.2877 10.0793L28.0317 9.43926L29.3117 9.69527L29.1837 9.43926C29.1837 9.0126 30.0797 8.58593 31.8717 8.15926C32.3837 8.07393 33.0237 8.03127 33.7917 8.03127L34.4317 8.28726V8.15926L34.1757 7.90327C34.0051 7.81793 33.9197 7.73259 33.9197 7.64726C33.9197 7.39126 34.4744 7.17793 35.5837 7.00726C36.6931 6.8366 37.3331 6.53793 37.5037 6.11127C37.6744 5.59926 37.8024 5.34326 37.8877 5.34326C38.0584 5.34326 38.1864 5.47126 38.2717 5.72726C38.3571 5.98327 38.6131 6.11127 39.0397 6.11127C39.4664 6.11127 39.9784 6.02593 40.5757 5.85526C41.1731 5.6846 41.7704 5.51393 42.3677 5.34326L43.9037 5.21526C43.9037 5.3006 43.3491 5.51393 42.2397 5.85526C41.2157 6.1966 40.7037 6.40993 40.7037 6.49526L41.0877 6.36726C44.5011 6.02593 48.4264 5.85526 52.8637 5.85526C59.4344 5.85526 64.3411 7.2206 67.5837 9.95126L71.6797 12.7673L70.6557 10.9753C68.5224 7.30593 63.9144 5.34326 56.8317 5.08727C55.4664 4.9166 54.0584 4.83126 52.6077 4.83126C51.1571 4.83126 49.8344 4.9166 48.6397 5.08727C47.4451 5.25793 46.5917 5.34326 46.0797 5.34326C45.6531 5.34326 45.4397 5.3006 45.4397 5.21526L45.6957 4.95927C45.7811 4.87393 46.5491 4.78859 47.9997 4.70326C49.5357 4.5326 51.3704 4.44727 53.5037 4.44727C56.4051 4.44727 58.5811 4.5326 60.0317 4.70326C65.8344 5.38593 69.7597 7.81793 71.8077 11.9993C73.2584 14.9006 74.2824 17.0339 74.8797 18.3993C75.5624 19.7646 75.9464 20.8739 76.0317 21.7273C76.2024 22.4953 76.2877 23.5619 76.2877 24.9273C75.9464 32.8633 71.5944 42.6339 63.2317 54.2393C54.9544 65.7593 43.8611 77.4499 29.9517 89.3113C21.6744 96.2233 16.4691 99.6793 14.3357 99.6793C14.1651 99.6793 13.9944 99.6366 13.8237 99.5513C13.6531 99.4659 13.3117 99.3806 12.7997 99.2953C12.2877 99.2099 11.7331 99.1673 11.1357 99.1673C10.2824 99.1673 9.72772 99.2526 9.47172 99.4233C9.21572 99.5939 9.08772 99.8926 9.08772 100.319C9.08772 101.258 9.04505 101.813 8.95972 101.983C8.87439 102.154 8.83172 102.325 8.83172 102.495C8.83172 102.751 8.78905 102.922 8.70372 103.007C8.70372 103.178 8.57572 103.263 8.31972 103.263C7.12505 103.263 6.35705 102.495 6.01572 100.959L5.75972 99.1673L5.63172 100.959C5.63172 102.751 5.29039 103.647 4.60772 103.647Z" fill="#215FF6"/>
</svg>
