<svg width="628" height="105" viewBox="0 0 628 105" fill="none" xmlns="http://www.w3.org/2000/svg">
<path d="M8.63392 14.872H0.521922L1.62592 8.152C7.76992 7.624 10.6499 5.08 12.6659 1.288H21.5939L15.9299 37H5.12992L8.63392 14.872ZM42.7979 37.624H40.6379C22.8299 37.624 21.2459 29.464 21.8219 25.816H33.3419C33.4379 26.44 33.8219 29.368 42.1739 29.368C50.8139 29.368 51.8699 26.2 51.8699 24.376C51.8699 22.648 50.8139 20.344 43.3739 20.344C35.3579 20.344 33.8219 22.792 33.6299 23.224H22.9739L26.4779 1.288H64.4939L63.1499 9.592H35.8379L34.8779 15.976C35.4539 15.448 39.1499 12.664 47.1179 12.664H47.5499C60.5099 12.664 63.4379 17.608 63.4379 23.416C63.4379 24.28 63.3419 25.288 63.1499 26.248C62.4299 29.752 59.5499 37.624 42.7979 37.624ZM88.0773 37.72H86.0133C70.9893 37.72 65.7573 31.288 65.7573 22.552C65.7573 21.16 65.8533 19.768 66.0453 18.28C67.1013 10.12 72.1893 0.663999 88.8933 0.663999H90.7173C106.509 0.663999 109.773 7 109.773 12.04H98.5413C98.3493 11.512 97.5333 8.92 89.6613 8.92C79.5813 8.92 77.6613 14.776 77.3253 17.464C78.3813 16.696 81.2613 14.008 91.6293 14.008H92.1573C105.693 14.008 109.245 18.712 109.245 24.184C109.245 24.76 109.245 25.384 109.101 26.296C108.429 30.904 105.501 37.72 88.0773 37.72ZM77.4213 25.72C77.4213 27.4 79.1013 29.608 87.0213 29.608C97.1013 29.608 97.7733 26.536 97.7733 25C97.7733 23.56 96.7653 21.496 88.2213 21.496C78.5253 21.496 77.4213 24.136 77.4213 25.72ZM120.473 16.984C118.937 16.984 117.593 16.68 116.441 16.072C115.321 15.432 114.441 14.568 113.801 13.48C113.161 12.36 112.841 11.08 112.841 9.64C112.841 8.168 113.145 6.888 113.753 5.8C114.393 4.68 115.273 3.816 116.393 3.208C117.545 2.568 118.905 2.248 120.473 2.248C121.977 2.248 123.305 2.568 124.457 3.208C125.609 3.816 126.505 4.68 127.145 5.8C127.785 6.888 128.105 8.168 128.105 9.64C128.105 11.08 127.785 12.36 127.145 13.48C126.505 14.568 125.609 15.432 124.457 16.072C123.305 16.68 121.977 16.984 120.473 16.984ZM120.521 14.152C121.545 14.152 122.377 13.96 123.017 13.576C123.689 13.192 124.185 12.664 124.505 11.992C124.825 11.32 124.985 10.536 124.985 9.64C124.985 8.232 124.601 7.112 123.833 6.28C123.097 5.448 121.993 5.032 120.521 5.032C118.953 5.032 117.801 5.448 117.065 6.28C116.329 7.112 115.961 8.232 115.961 9.64C115.961 10.984 116.329 12.072 117.065 12.904C117.801 13.736 118.953 14.152 120.521 14.152ZM150.986 1.288H186.89L185.594 9.4H160.538L159.722 14.68H184.154L182.858 22.84H158.426L156.17 37H145.322L150.986 1.288ZM202.101 1.288L196.437 37H185.541L191.205 1.288H202.101ZM207.142 1.288H243.718L242.422 9.4H216.598L215.782 14.68H241.03L239.734 22.84H214.486L213.526 28.696H239.782L238.486 37H201.478L207.142 1.288ZM248.439 1.288H259.335L255.063 28.12H278.967L277.575 37H242.775L248.439 1.288ZM281.166 37L286.83 1.288H308.382C326.862 1.288 331.902 8.824 331.902 16.6C331.902 18.184 331.758 19.672 331.518 21.064C330.318 27.976 325.23 37.048 305.646 37H281.166ZM296.334 9.736L293.358 28.408H304.734C316.926 28.408 319.422 23.512 320.142 19.816C320.286 19.096 320.382 18.28 320.382 17.656C320.382 14.008 318.414 9.736 307.71 9.736H296.334ZM371.037 37.624C351.597 37.624 347.661 28.168 347.661 21.784C347.661 20.68 347.661 19.48 347.901 17.752C348.765 11.896 351.741 0.663999 373.725 0.663999H375.789C395.085 0.663999 399.213 9.832 399.213 16.264C399.213 17.512 399.165 18.808 398.973 20.152C398.061 26.296 395.133 37.624 373.101 37.624H371.037ZM387.693 17.416C387.693 13.48 385.005 9.304 374.397 9.304C362.541 9.304 359.709 14.584 359.373 18.664C359.325 19.288 359.325 19.768 359.325 20.296C359.325 24.184 361.677 28.936 372.477 28.936C384.141 28.936 386.973 23.656 387.549 19.336C387.645 18.616 387.693 18.088 387.693 17.416ZM405.47 1.288H441.374L440.078 9.4H415.022L414.206 14.68H438.638L437.342 22.84H412.91L410.654 37H399.806L405.47 1.288ZM469.206 37L456.102 1.288H468.054L477.222 27.736L493.062 1.288H504.63L482.838 37H469.206ZM517.194 1.288L511.53 37H500.634L506.298 1.288H517.194ZM522.236 1.288H558.812L557.516 9.4H531.692L530.876 14.68H556.124L554.828 22.84H529.58L528.62 28.696H554.876L553.58 37H516.572L522.236 1.288ZM581.533 37H569.437L560.125 1.288H571.645L577.549 25.864L588.541 1.288H600.109L604.909 25.144L616.909 1.288H627.901L608.845 37H597.805L592.621 13.048L581.533 37ZM147.749 68.288L142.085 104H131.189L136.853 68.288H147.749ZM152.79 68.288H164.934L183.174 91.232L186.774 68.288H197.526L191.862 104H181.158L161.67 79.904L157.878 104H147.126L152.79 68.288ZM216.681 68.288H252.585L251.289 76.4H226.233L225.417 81.68H249.849L248.553 89.84H224.121L221.865 104H211.017L216.681 68.288ZM275.716 104.528H274.084C255.652 104.528 252.628 92.432 253.78 85.232L256.468 68.288H267.412L264.82 84.656C264.052 89.504 265.684 95.264 275.092 95.264C284.02 95.264 286.564 89.456 287.284 84.944L289.924 68.288H300.868L298.132 85.52C296.932 93.104 292.996 104.528 275.716 104.528ZM305.509 68.288H316.405L312.133 95.12H336.037L334.645 104H299.845L305.509 68.288ZM343.9 68.288H354.796L350.524 95.12H374.428L373.036 104H338.236L343.9 68.288ZM435.856 76.736C435.856 82.016 430.48 84.752 427.456 85.184C430.336 85.856 434.176 87.968 434.176 92.768C434.176 97.52 430.72 104.72 412.624 104.72H410.56C394.336 104.72 390.688 99.632 390.688 94.544C390.688 88.016 397.12 85.664 400.144 85.184C397.36 84.416 394.096 82.352 394.096 78.176C394.096 74.048 396.016 67.664 414.688 67.664H416.752C432.496 67.664 435.856 72.032 435.856 76.736ZM414.352 81.776C423.424 81.776 424.48 79.472 424.48 77.84C424.48 76.448 423.328 74.816 415.36 74.816C406.288 74.816 405.28 76.976 405.28 78.656C405.28 80.144 406.528 81.776 414.352 81.776ZM411.904 96.896C422.272 96.896 423.088 94.16 423.088 92.576C423.088 90.992 421.792 89.408 413.104 89.408C402.784 89.408 402.016 91.76 402.016 93.44C402.016 94.976 403.12 96.896 411.904 96.896ZM442.644 84.08C441.844 84.08 441.22 83.872 440.772 83.456C440.356 83.008 440.148 82.4 440.148 81.632C440.148 80.896 440.276 80.224 440.532 79.616C440.788 79.008 441.188 78.528 441.732 78.176C442.308 77.792 443.012 77.6 443.844 77.6C444.548 77.6 445.108 77.808 445.524 78.224C445.972 78.64 446.196 79.28 446.196 80.144C446.196 81.136 445.908 82.048 445.332 82.88C444.756 83.68 443.86 84.08 442.644 84.08ZM438.852 104.672C438.052 104.672 437.428 104.448 436.98 104C436.564 103.584 436.356 102.976 436.356 102.176C436.356 101.472 436.484 100.816 436.74 100.208C436.996 99.6 437.396 99.12 437.94 98.768C438.516 98.384 439.22 98.192 440.052 98.192C440.756 98.192 441.316 98.416 441.732 98.864C442.18 99.28 442.404 99.904 442.404 100.736C442.404 101.376 442.276 102 442.02 102.608C441.764 103.216 441.364 103.712 440.82 104.096C440.308 104.48 439.652 104.672 438.852 104.672ZM452.814 68.288H493.422L492.222 75.92C490.878 77.264 486.126 82.064 482.814 86.288C477.87 92.624 476.574 97.424 475.902 103.568L475.854 104H462.894L463.614 99.488C464.526 93.728 466.494 90.464 473.934 83.504C478.734 78.992 480.702 77.168 480.75 76.352H462.51L461.358 83.696H450.366L452.814 68.288Z" fill="#B3B3B3"/>
</svg>
