<svg width="629" height="86" viewBox="0 0 629 86" fill="none" xmlns="http://www.w3.org/2000/svg">
<path d="M453.01 49.2881H493.619L492.419 56.9201C491.075 58.2641 486.323 63.0641 483.011 67.2881C478.067 73.6241 476.771 78.4241 476.099 84.5681L476.051 85.0001H463.091L463.811 80.4881C464.723 74.7281 466.691 71.4641 474.131 64.5041C478.931 59.9921 480.899 58.1681 480.947 57.3521H462.707L461.555 64.6961H450.562L453.01 49.2881Z" fill="#B3B3B3"/>
<path d="M442.843 65.0796C442.043 65.0796 441.419 64.8716 440.971 64.4556C440.555 64.0076 440.347 63.3996 440.347 62.6316C440.347 61.8956 440.475 61.2236 440.731 60.6156C440.987 60.0076 441.387 59.5276 441.931 59.1756C442.507 58.7916 443.211 58.5996 444.043 58.5996C444.747 58.5996 445.307 58.8076 445.723 59.2236C446.171 59.6396 446.395 60.2796 446.395 61.1436C446.395 62.1356 446.107 63.0476 445.531 63.8796C444.955 64.6796 444.059 65.0796 442.843 65.0796ZM439.051 85.6716C438.251 85.6716 437.627 85.4476 437.179 84.9996C436.763 84.5836 436.555 83.9756 436.555 83.1756C436.555 82.4716 436.683 81.8156 436.939 81.2076C437.195 80.5996 437.595 80.1196 438.139 79.7676C438.715 79.3836 439.419 79.1916 440.251 79.1916C440.955 79.1916 441.515 79.4156 441.931 79.8636C442.379 80.2796 442.603 80.9036 442.603 81.7356C442.603 82.3756 442.475 82.9996 442.219 83.6076C441.963 84.2156 441.563 84.7116 441.019 85.0956C440.507 85.4796 439.851 85.6716 439.051 85.6716Z" fill="#B3B3B3"/>
<path d="M436.051 57.7361C436.051 63.0161 430.675 65.7521 427.651 66.1841C430.531 66.8561 434.371 68.9681 434.371 73.7681C434.371 78.5201 430.915 85.7201 412.819 85.7201H410.755C394.531 85.7201 390.883 80.6321 390.883 75.5441C390.883 69.0161 397.315 66.6641 400.339 66.1841C397.555 65.4161 394.291 63.3521 394.291 59.1761C394.291 55.0481 396.211 48.6641 414.883 48.6641H416.947C432.691 48.6641 436.051 53.0321 436.051 57.7361ZM414.547 62.7761C423.619 62.7761 424.675 60.4721 424.675 58.8401C424.675 57.4481 423.523 55.8161 415.555 55.8161C406.483 55.8161 405.475 57.9761 405.475 59.6561C405.475 61.1441 406.723 62.7761 414.547 62.7761ZM412.099 77.8961C422.467 77.8961 423.283 75.1601 423.283 73.5761C423.283 71.9921 421.987 70.4081 413.299 70.4081C402.979 70.4081 402.211 72.7601 402.211 74.4401C402.211 75.9761 403.315 77.8961 412.099 77.8961Z" fill="#B3B3B3"/>
<path d="M344.098 49.2881H354.994L350.722 76.1201H374.626L373.234 85.0001H338.434L344.098 49.2881Z" fill="#B3B3B3"/>
<path d="M305.707 49.2881H316.603L312.331 76.1201H336.235L334.843 85.0001H300.043L305.707 49.2881Z" fill="#B3B3B3"/>
<path d="M275.913 85.5281H274.281C255.849 85.5281 252.825 73.4321 253.977 66.2321L256.665 49.2881H267.609L265.017 65.6561C264.249 70.5041 265.881 76.2641 275.289 76.2641C284.217 76.2641 286.761 70.4561 287.481 65.9441L290.121 49.2881H301.065L298.329 66.5201C297.129 74.1041 293.193 85.5281 275.913 85.5281Z" fill="#B3B3B3"/>
<path d="M216.879 49.2881H252.783L251.487 57.4001H226.431L225.615 62.6801H250.047L248.751 70.8401H224.319L222.063 85.0001H211.215L216.879 49.2881Z" fill="#B3B3B3"/>
<path d="M152.988 49.2881H165.132L183.372 72.2321L186.972 49.2881H197.724L192.06 85.0001H181.356L161.868 60.9041L158.076 85.0001H147.324L152.988 49.2881Z" fill="#B3B3B3"/>
<path d="M147.947 49.2881L142.283 85.0001H131.387L137.051 49.2881H147.947Z" fill="#B3B3B3"/>
<path d="M581.728 37.0001H569.632L560.32 1.28809H571.84L577.744 25.8641L588.736 1.28809H600.304L605.104 25.1441L617.104 1.28809H628.096L609.04 37.0001H598L592.816 13.0481L581.728 37.0001Z" fill="#B3B3B3"/>
<path d="M522.434 1.28809H559.01L557.714 9.40008H531.89L531.074 14.6801H556.322L555.026 22.8401H529.778L528.818 28.6961H555.074L553.778 37.0001H516.77L522.434 1.28809Z" fill="#B3B3B3"/>
<path d="M517.392 1.28809L511.728 37.0001H500.832L506.496 1.28809H517.392Z" fill="#B3B3B3"/>
<path d="M469.405 37.0001L456.301 1.28809H468.253L477.421 27.7361L493.261 1.28809H504.829L483.037 37.0001H469.405Z" fill="#B3B3B3"/>
<path d="M405.668 1.28809H441.572L440.276 9.40008H415.22L414.404 14.6801H438.836L437.54 22.8401H413.108L410.852 37.0001H400.004L405.668 1.28809Z" fill="#B3B3B3"/>
<path d="M371.235 37.6241C351.795 37.6241 347.859 28.1681 347.859 21.7841C347.859 20.6801 347.859 19.4801 348.099 17.7521C348.963 11.8961 351.939 0.664062 373.923 0.664062H375.987C395.283 0.664062 399.411 9.83206 399.411 16.2641C399.411 17.5121 399.363 18.8081 399.171 20.1521C398.259 26.2961 395.331 37.6241 373.299 37.6241H371.235ZM387.891 17.4161C387.891 13.4801 385.203 9.30406 374.595 9.30406C362.739 9.30406 359.907 14.5841 359.571 18.6641C359.523 19.2881 359.523 19.7681 359.523 20.2961C359.523 24.1841 361.875 28.9361 372.675 28.9361C384.339 28.9361 387.171 23.6561 387.747 19.3361C387.843 18.6161 387.891 18.0881 387.891 17.4161Z" fill="#B3B3B3"/>
<path d="M281.363 37.0001L287.027 1.28809H308.579C327.059 1.28809 332.099 8.82409 332.099 16.6001C332.099 18.1841 331.955 19.6721 331.715 21.0641C330.515 27.9761 325.427 37.0481 305.843 37.0001H281.363ZM296.531 9.73609L293.555 28.4081H304.931C317.123 28.4081 319.619 23.5121 320.339 19.8161C320.483 19.0961 320.579 18.2801 320.579 17.6561C320.579 14.0081 318.611 9.73609 307.907 9.73609H296.531Z" fill="#B3B3B3"/>
<path d="M248.637 1.28809H259.533L255.261 28.1201H279.165L277.773 37.0001H242.973L248.637 1.28809Z" fill="#B3B3B3"/>
<path d="M207.34 1.28809H243.916L242.62 9.40008H216.796L215.98 14.6801H241.228L239.932 22.8401H214.684L213.724 28.6961H239.98L238.684 37.0001H201.676L207.34 1.28809Z" fill="#B3B3B3"/>
<path d="M202.298 1.28809L196.634 37.0001H185.738L191.402 1.28809H202.298Z" fill="#B3B3B3"/>
<path d="M151.184 1.28809H187.088L185.792 9.40008H160.736L159.92 14.6801H184.352L183.056 22.8401H158.624L156.368 37.0001H145.52L151.184 1.28809Z" fill="#B3B3B3"/>
<path d="M120.671 16.984C119.135 16.984 117.791 16.68 116.639 16.072C115.519 15.432 114.639 14.568 113.999 13.48C113.359 12.36 113.039 11.08 113.039 9.64005C113.039 8.16805 113.343 6.88805 113.951 5.80005C114.591 4.68005 115.471 3.81605 116.591 3.20805C117.743 2.56805 119.103 2.24805 120.671 2.24805C122.175 2.24805 123.503 2.56805 124.655 3.20805C125.807 3.81605 126.703 4.68005 127.343 5.80005C127.983 6.88805 128.303 8.16805 128.303 9.64005C128.303 11.08 127.983 12.36 127.343 13.48C126.703 14.568 125.807 15.432 124.655 16.072C123.503 16.68 122.175 16.984 120.671 16.984ZM120.719 14.152C121.743 14.152 122.575 13.96 123.215 13.576C123.887 13.192 124.383 12.664 124.703 11.992C125.023 11.32 125.183 10.536 125.183 9.64005C125.183 8.23205 124.799 7.11205 124.031 6.28005C123.295 5.44805 122.191 5.03205 120.719 5.03205C119.151 5.03205 117.999 5.44805 117.263 6.28005C116.527 7.11205 116.159 8.23205 116.159 9.64005C116.159 10.984 116.527 12.072 117.263 12.904C117.999 13.736 119.151 14.152 120.719 14.152Z" fill="#B3B3B3"/>
<path d="M88.2731 37.7201H86.2091C71.1851 37.7201 65.9531 31.2881 65.9531 22.5521C65.9531 21.1601 66.0491 19.7681 66.2411 18.2801C67.2971 10.1201 72.3851 0.664062 89.0891 0.664062H90.9131C106.705 0.664062 109.969 7.00006 109.969 12.0401H98.7371C98.5451 11.5121 97.7291 8.92006 89.8571 8.92006C79.7771 8.92006 77.8571 14.7761 77.5211 17.4641C78.5771 16.6961 81.4571 14.0081 91.8251 14.0081H92.3531C105.889 14.0081 109.441 18.7121 109.441 24.1841C109.441 24.7601 109.441 25.3841 109.297 26.2961C108.625 30.9041 105.697 37.7201 88.2731 37.7201ZM77.6171 25.7201C77.6171 27.4001 79.2971 29.6081 87.2171 29.6081C97.2971 29.6081 97.9691 26.5361 97.9691 25.0001C97.9691 23.5601 96.9611 21.4961 88.4171 21.4961C78.7211 21.4961 77.6171 24.1361 77.6171 25.7201Z" fill="#B3B3B3"/>
<path d="M42.9957 37.6241H40.8357C23.0277 37.6241 21.4437 29.4641 22.0197 25.8161H33.5397C33.6357 26.4401 34.0197 29.3681 42.3717 29.3681C51.0117 29.3681 52.0677 26.2001 52.0677 24.3761C52.0677 22.6481 51.0117 20.3441 43.5717 20.3441C35.5557 20.3441 34.0197 22.7921 33.8277 23.2241H23.1717L26.6757 1.28809H64.6917L63.3477 9.59208H36.0357L35.0757 15.9761C35.6517 15.4481 39.3477 12.6641 47.3157 12.6641H47.7477C60.7077 12.6641 63.6357 17.6081 63.6357 23.4161C63.6357 24.2801 63.5397 25.2881 63.3477 26.2481C62.6277 29.7521 59.7477 37.6241 42.9957 37.6241Z" fill="#B3B3B3"/>
<path d="M8.83075 14.8721H0.71875L1.82275 8.15209C7.96675 7.62408 10.8468 5.08009 12.8628 1.28809H21.7908L16.1267 37.0001H5.32675L8.83075 14.8721Z" fill="#B3B3B3"/>
</svg>
