<svg width="874" height="103" viewBox="0 0 874 103" fill="none" xmlns="http://www.w3.org/2000/svg">
<path fill-rule="evenodd" clip-rule="evenodd" d="M800.521 100.408H804.873C850.953 100.408 861.449 69.9436 864.649 49.7196L871.945 3.76758H842.761L835.721 48.1836C833.801 60.2156 827.017 75.7036 803.209 75.7036C778.121 75.7036 773.769 60.3436 775.817 47.4156L782.729 3.76758H753.545L746.377 48.9516C743.305 68.1516 751.369 100.408 800.521 100.408ZM744.896 48.7146L752.265 2.26758H784.486L777.299 47.6503C776.308 53.9084 776.909 60.5176 780.551 65.5253C784.147 70.4705 790.97 74.2036 803.209 74.2036C814.754 74.2036 821.977 70.466 826.566 65.4438C831.201 60.3712 833.303 53.8177 834.24 47.9472L841.48 2.26758H873.702L866.131 49.954C866.131 49.9543 866.131 49.9537 866.131 49.954C864.514 60.1711 861.03 73.1728 851.975 83.6295C842.866 94.1494 828.283 101.908 804.873 101.908H800.521C775.6 101.908 760.789 93.7117 752.661 82.7743C744.582 71.9013 743.315 58.5962 744.896 48.7146Z" fill="#F8F8F8"/>
<path fill-rule="evenodd" clip-rule="evenodd" d="M600.318 47.4652L600.32 47.4526C601.487 39.5414 604.112 27.7489 614.064 17.962C624.034 8.15887 641.108 0.603516 670.668 0.603516H676.172C702.117 0.603516 718.148 6.76632 727.703 15.356C737.276 23.9618 740.136 34.8107 740.136 43.7035C740.136 47.0682 740.007 50.6021 739.481 54.2836L739.48 54.2918C738.251 62.5722 735.631 74.6223 725.681 84.5722C715.71 94.5429 698.631 102.164 669.004 102.164H663.5C637.355 102.164 621.349 95.8047 611.873 87.028C602.385 78.2406 599.664 67.2348 599.664 58.4235V58.4161C599.664 55.4592 599.664 52.1759 600.318 47.4652ZM699.882 33.2127C694.926 29.4026 686.445 26.6435 672.46 26.6435C656.854 26.6435 647.449 30.1203 641.859 34.7035C636.299 39.2622 634.317 45.0781 633.892 50.2186C633.768 51.8194 633.768 53.0482 633.768 54.4555C633.768 59.3326 635.233 64.624 639.985 68.7284C644.774 72.8653 653.129 75.9955 667.34 75.9955C682.682 75.9955 691.958 72.5222 697.565 67.8619C703.155 63.2161 705.309 57.2158 706.045 51.6973C706.296 49.817 706.416 48.4793 706.416 46.7755C706.416 41.8971 704.77 36.9708 699.882 33.2127ZM632.396 50.1035C633.292 39.2235 640.844 25.1435 672.46 25.1435C700.748 25.1435 707.916 36.2795 707.916 46.7755C707.916 48.5675 707.788 49.9755 707.532 51.8955C705.996 63.4155 698.444 77.4955 667.34 77.4955C638.54 77.4955 632.268 64.8235 632.268 54.4555C632.268 53.0475 632.268 51.7675 632.396 50.1035ZM601.164 58.4235C601.164 75.4475 611.66 100.664 663.5 100.664H669.004C727.756 100.664 735.564 70.4555 737.996 54.0715C738.508 50.4875 738.636 47.0315 738.636 43.7035C738.636 26.5515 727.628 2.10352 676.172 2.10352H670.668C612.044 2.10352 604.108 32.0555 601.804 47.6715C601.164 52.2795 601.164 55.4795 601.164 58.4235Z" fill="#F8F8F8"/>
<path fill-rule="evenodd" clip-rule="evenodd" d="M525.507 98.9996H554.563L560.451 62.1356L617.923 3.76758H584.003L548.931 38.8396L525.379 3.76758H490.819L531.395 62.1356L525.507 98.9996ZM529.818 62.4957L523.748 100.5H555.842L561.856 62.846L621.505 2.26758H583.382L549.16 36.4896L526.178 2.26758H487.949L529.818 62.4957Z" fill="#F8F8F8"/>
<path fill-rule="evenodd" clip-rule="evenodd" d="M326.389 63.7075H359.278L359.309 65.1756C359.37 68.0542 359.826 71.287 362.797 73.8867C365.843 76.5517 371.824 78.8115 383.665 78.8115H385.201C398.47 78.8115 405.224 77.1705 408.632 75.163C410.288 74.1879 411.116 73.1481 411.557 72.1821C412.01 71.1902 412.117 70.1451 412.117 69.0475C412.117 67.8908 411.955 67.0466 411.578 66.3709C411.213 65.7176 410.556 65.0605 409.256 64.4553C406.546 63.1935 401.493 62.3554 392.202 62.099C392.201 62.099 392.201 62.099 392.2 62.0989L376.335 61.7151C359.619 61.3279 348.647 58.0052 341.831 52.6948C334.935 47.3217 332.501 40.0812 332.501 32.4395C332.501 30.5598 332.637 29.0789 332.9 27.2354L332.901 27.2293C333.913 20.3471 336.997 13.568 345.396 8.58916C353.677 3.68096 366.992 0.603516 388.273 0.603516H396.465C418.591 0.603516 432.103 4.51413 439.85 10.708C447.722 17.0017 449.388 25.4324 448.386 33.6451L448.225 34.9635H415.588L415.453 33.6128C415.272 31.8075 414.983 29.4902 412.196 27.4801C409.259 25.3624 403.351 23.4435 391.345 23.4435H389.553C377.668 23.4435 371.676 24.639 368.688 26.1332C367.246 26.8542 366.593 27.6014 366.264 28.2433C365.923 28.9097 365.837 29.6397 365.837 30.5195C365.837 31.2963 365.936 31.9682 366.234 32.5744C366.522 33.1622 367.058 33.8109 368.143 34.4361C370.399 35.7373 374.835 36.8283 383.431 36.9557L383.434 36.9557L398.792 37.2117C415.744 37.4685 427.574 39.74 435.196 44.3738C439.043 46.712 441.825 49.6557 443.632 53.2262C445.432 56.7841 446.221 60.8783 446.221 65.4635C446.221 67.8445 445.959 70.8895 445.552 72.9257L445.551 72.9309C444.098 80.0622 441.199 87.5141 432.491 93.0945C423.89 98.6054 409.816 102.164 386.353 102.164H378.033C353.733 102.164 340.267 96.66 333.116 89.0507C325.94 81.4143 325.45 72.0087 326.239 65.0388L326.389 63.7075ZM398.769 38.7115L383.409 38.4555C366.129 38.1995 364.337 34.1035 364.337 30.5195C364.337 26.6795 365.745 21.9435 389.553 21.9435H391.345C415.537 21.9435 416.561 29.6235 416.945 33.4635H446.897C448.817 17.7195 440.497 2.10352 396.465 2.10352H388.273C345.905 2.10352 336.305 14.3915 334.385 27.4475C334.129 29.2395 334.001 30.6475 334.001 32.4395C334.001 47.0315 343.217 59.4475 376.369 60.2155L392.241 60.5995C410.801 61.1115 413.617 63.9275 413.617 69.0475C413.617 73.7835 411.825 80.3115 385.201 80.3115H383.665C359.729 80.3115 357.937 71.2235 357.809 65.2075H327.729C326.193 78.7755 329.777 100.664 378.033 100.664H386.353C433.073 100.664 441.265 86.4555 444.081 72.6315C444.465 70.7115 444.721 67.7675 444.721 65.4635C444.721 47.7995 432.561 39.2235 398.769 38.7115Z" fill="#F8F8F8"/>
<path fill-rule="evenodd" clip-rule="evenodd" d="M249.047 98.9996H278.487L290.007 26.2956H329.303L332.887 3.76758H224.727L221.271 26.2956H260.567L249.047 98.9996ZM258.811 27.7956L247.291 100.5H279.768L291.288 27.7956H330.583L334.645 2.26758H223.44L219.523 27.7956H258.811Z" fill="#F8F8F8"/>
<path fill-rule="evenodd" clip-rule="evenodd" d="M119.822 3.76758L104.718 98.9996H203.406L206.862 76.8556H136.846L139.406 61.2396H206.734L210.19 39.4796H142.862L145.038 25.3996H213.902L217.358 3.76758H119.822ZM146.324 26.8996H215.181L219.116 2.26758H118.541L102.961 100.5H204.69L208.614 75.3556H138.612L140.68 62.7396H208.014L211.947 37.9796H144.611L146.324 26.8996Z" fill="#F8F8F8"/>
<path fill-rule="evenodd" clip-rule="evenodd" d="M17.4466 3.76758L2.34259 98.9996H95.1426L98.8546 75.3196H35.1106L46.5026 3.76758H17.4466ZM36.8683 73.8196L48.2603 2.26758H16.1657L0.585938 100.5H96.4258L100.608 73.8196H36.8683Z" fill="#F8F8F8"/>
</svg>
