<svg width="734" height="99" viewBox="0 0 734 99" fill="none" xmlns="http://www.w3.org/2000/svg">
<path d="M644.538 42.0876H688.826C698.426 42.0876 702.138 36.8396 702.138 31.7196C702.138 26.8556 699.322 23.3996 691.514 23.3996H647.61L644.538 42.0876ZM641.338 63.2076L635.962 96.9996H606.906L622.01 1.76758H697.53C725.434 1.76758 733.37 12.3916 733.37 24.8076C733.37 39.5276 720.826 46.1836 712.378 48.6156C721.082 51.3036 728.634 57.3196 726.714 69.6076L724.154 85.6076C723.13 92.3916 723.898 94.8236 724.282 96.3596L724.154 96.9996H694.586C694.074 95.9756 693.69 94.5676 694.33 90.5996L695.994 80.1036C697.786 68.8396 693.562 63.2076 678.842 63.2076H641.338Z" fill="#F8F8F8"/>
<path d="M511.885 1.76758H609.421L605.965 23.3996H537.101L534.925 37.4796H602.253L598.797 59.2396H531.469L528.909 74.8556H598.925L595.469 96.9996H496.781L511.885 1.76758Z" fill="#F8F8F8"/>
<path d="M421.643 98.6635H419.083C373.771 98.6635 361.227 73.9595 361.227 54.6315C361.227 51.5595 361.355 48.8715 361.867 45.4155C364.555 26.8555 376.459 0.103516 429.707 0.103516H433.675C485.643 0.103516 493.451 23.3995 492.683 36.3275H461.963C461.579 34.0235 459.659 22.7595 430.987 22.7595C402.955 22.7595 393.995 35.1755 392.331 47.3355C392.075 49.2555 391.947 50.5355 391.947 52.3275C391.947 64.7435 400.651 75.4955 424.075 75.4955C450.571 75.4955 460.555 64.9995 461.323 61.6715H424.715L427.531 43.6235H492.683L484.235 96.9995H466.827C466.955 93.4155 466.699 85.9915 465.675 81.8955C461.451 86.8875 448.651 98.6635 421.643 98.6635Z" fill="#F8F8F8"/>
<path d="M270.163 42.0876H314.451C324.051 42.0876 327.763 36.8396 327.763 31.7196C327.763 26.8556 324.947 23.3996 317.139 23.3996H273.235L270.163 42.0876ZM266.963 63.2076L261.587 96.9996H232.531L247.635 1.76758H323.155C351.059 1.76758 358.995 12.3916 358.995 24.8076C358.995 39.5276 346.451 46.1836 338.003 48.6156C346.707 51.3036 354.259 57.3196 352.339 69.6076L349.779 85.6076C348.755 92.3916 349.523 94.8236 349.907 96.3596L349.779 96.9996H320.211C319.699 95.9756 319.315 94.5676 319.955 90.5996L321.619 80.1036C323.411 68.8396 319.187 63.2076 304.467 63.2076H266.963Z" fill="#F8F8F8"/>
<path d="M184.399 58.0876L171.343 22.3756L149.199 58.0876H184.399ZM198.735 96.9996L192.335 79.5916H135.887L125.135 96.9996H95.0547L155.215 1.76758H192.719L228.943 96.9996H198.735Z" fill="#F8F8F8"/>
<path d="M15.5103 1.76758H44.5663L33.1743 73.3196H96.9183L93.2063 96.9996H0.40625L15.5103 1.76758Z" fill="#F8F8F8"/>
</svg>
