<svg width="874" height="86" viewBox="0 0 874 86" fill="none" xmlns="http://www.w3.org/2000/svg">
<path d="M836.84 49.2881H873.416L872.12 57.4001H846.296L845.48 62.6801H870.728L869.432 70.8401H844.184L843.224 76.6961H869.48L868.184 85.0001H831.176L836.84 49.2881Z" fill="#B3B3B3"/>
<path d="M772.02 85.0001L777.684 49.2881H792.852L801.492 71.5121L816.66 49.2881H831.78L826.116 85.0001H815.412L819.348 60.2801L802.212 85.0001H796.404L786.468 60.2801L782.532 85.0001H772.02Z" fill="#B3B3B3"/>
<path d="M753.973 70.4081L749.077 57.0161L740.773 70.4081H753.973ZM759.349 85.0001L756.949 78.4721H735.781L731.749 85.0001H720.469L743.029 49.2881H757.093L770.677 85.0001H759.349Z" fill="#B3B3B3"/>
<path d="M690.132 64.4081H706.74C710.34 64.4081 711.732 62.4401 711.732 60.5201C711.732 58.6961 710.676 57.4001 707.748 57.4001H691.284L690.132 64.4081ZM688.932 72.3281L686.916 85.0001H676.02L681.684 49.2881H710.004C720.468 49.2881 723.444 53.2721 723.444 57.9281C723.444 63.4481 718.74 65.9441 715.572 66.8561C718.836 67.8641 721.668 70.1201 720.948 74.7281L719.988 80.7281C719.604 83.2721 719.892 84.1841 720.036 84.7601L719.988 85.0001H708.9C708.708 84.6161 708.564 84.0881 708.804 82.6001L709.428 78.6641C710.1 74.4401 708.516 72.3281 702.996 72.3281H688.932Z" fill="#B3B3B3"/>
<path d="M641.465 49.2881H677.369L676.073 57.4001H651.017L650.201 62.6801H674.633L673.337 70.8401H648.905L646.649 85.0001H635.801L641.465 49.2881Z" fill="#B3B3B3"/>
<path d="M588.965 49.2881H599.861L595.589 76.1201H619.493L618.101 85.0001H583.301L588.965 49.2881Z" fill="#B3B3B3"/>
<path d="M550.574 49.2881H561.47L557.198 76.1201H581.102L579.71 85.0001H544.91L550.574 49.2881Z" fill="#B3B3B3"/>
<path d="M520.78 85.5281H519.148C500.716 85.5281 497.692 73.4321 498.844 66.2321L501.532 49.2881H512.476L509.884 65.6561C509.116 70.5041 510.748 76.2641 520.156 76.2641C529.084 76.2641 531.628 70.4561 532.348 65.9441L534.988 49.2881H545.932L543.196 66.5201C541.996 74.1041 538.06 85.5281 520.78 85.5281Z" fill="#B3B3B3"/>
<path d="M461.746 49.2881H497.65L496.354 57.4001H471.298L470.482 62.6801H494.914L493.618 70.8401H469.186L466.93 85.0001H456.082L461.746 49.2881Z" fill="#B3B3B3"/>
<path d="M408.741 64.4081H425.349C428.949 64.4081 430.341 62.4401 430.341 60.5201C430.341 58.6961 429.285 57.4001 426.357 57.4001H409.893L408.741 64.4081ZM407.541 72.3281L405.525 85.0001H394.629L400.293 49.2881H428.613C439.077 49.2881 442.053 53.2721 442.053 57.9281C442.053 63.4481 437.349 65.9441 434.181 66.8561C437.445 67.8641 440.277 70.1201 439.557 74.7281L438.597 80.7281C438.213 83.2721 438.501 84.1841 438.645 84.7601L438.597 85.0001H427.509C427.317 84.6161 427.173 84.0881 427.413 82.6001L428.037 78.6641C428.709 74.4401 427.125 72.3281 421.605 72.3281H407.541Z" fill="#B3B3B3"/>
<path d="M365.86 85.6241C346.42 85.6241 342.484 76.1681 342.484 69.7841C342.484 68.6801 342.484 67.4801 342.724 65.7521C343.588 59.8961 346.564 48.6641 368.548 48.6641H370.612C389.908 48.6641 394.036 57.8321 394.036 64.2641C394.036 65.5121 393.988 66.8081 393.796 68.1521C392.884 74.2961 389.956 85.6241 367.924 85.6241H365.86ZM382.516 65.4161C382.516 61.4801 379.828 57.3041 369.22 57.3041C357.364 57.3041 354.532 62.5841 354.196 66.6641C354.148 67.2881 354.148 67.7681 354.148 68.2961C354.148 72.1841 356.5 76.9361 367.3 76.9361C378.964 76.9361 381.796 71.6561 382.372 67.3361C382.468 66.6161 382.516 66.0881 382.516 65.4161Z" fill="#B3B3B3"/>
<path d="M294.496 49.2881H305.392L301.12 76.1201H325.024L323.632 85.0001H288.832L294.496 49.2881Z" fill="#B3B3B3"/>
<path d="M270.785 70.4081L265.889 57.0161L257.585 70.4081H270.785ZM276.161 85.0001L273.761 78.4721H252.593L248.561 85.0001H237.281L259.841 49.2881H273.905L287.489 85.0001H276.161Z" fill="#B3B3B3"/>
<path d="M216.344 85.6241H214.424C196.616 85.6241 192.344 76.0241 192.344 69.0641C192.344 67.9121 192.392 66.8561 192.632 65.1281C193.448 59.0801 197.912 48.6641 217.688 48.6641H219.56C240.248 48.6641 242.504 58.3601 241.784 63.2561H230.216C230.072 62.2001 229.112 57.3041 218.024 57.3041C207.8 57.3041 204.776 62.1041 204.2 65.7521C204.056 66.6641 204.008 67.4321 204.008 68.2961C204.008 72.5681 206.696 76.9361 215.816 76.9361C227.144 76.9361 228.776 71.4161 229.112 70.6001H240.68C240.2 75.7361 236.216 85.6241 216.344 85.6241Z" fill="#B3B3B3"/>
<path d="M191.861 49.2881L186.197 85.0001H175.301L180.965 49.2881H191.861Z" fill="#B3B3B3"/>
<path d="M145.986 85.0001L150.306 57.7361H135.57L136.866 49.2881H177.426L176.082 57.7361H161.346L157.026 85.0001H145.986Z" fill="#B3B3B3"/>
<path d="M100.397 64.4081H117.005C120.605 64.4081 121.997 62.4401 121.997 60.5201C121.997 58.6961 120.941 57.4001 118.013 57.4001H101.549L100.397 64.4081ZM99.1972 72.3281L97.1812 85.0001H86.2852L91.9492 49.2881H120.269C130.733 49.2881 133.709 53.2721 133.709 57.9281C133.709 63.4481 129.005 65.9441 125.837 66.8561C129.101 67.8641 131.933 70.1201 131.213 74.7281L130.253 80.7281C129.869 83.2721 130.157 84.1841 130.301 84.7601L130.253 85.0001H119.165C118.973 84.6161 118.829 84.0881 119.069 82.6001L119.693 78.6641C120.365 74.4401 118.781 72.3281 113.261 72.3281H99.1972Z" fill="#B3B3B3"/>
<path d="M50.6523 49.2881H87.2283L85.9323 57.4001H60.1083L59.2923 62.6801H84.5403L83.2443 70.8401H57.9963L57.0363 76.6961H83.2923L81.9963 85.0001H44.9883L50.6523 49.2881Z" fill="#B3B3B3"/>
<path d="M13.561 85.0001L0.457031 49.2881H12.409L21.577 75.7361L37.417 49.2881H48.985L27.193 85.0001H13.561Z" fill="#B3B3B3"/>
<path d="M795.817 41.7036H789.865C790.921 40.1676 791.881 38.3436 792.361 36.9996H787.465L788.809 28.5996H800.137L799.033 35.5116C798.745 37.3836 797.065 40.2636 795.817 41.7036Z" fill="#B3B3B3"/>
<path d="M744.449 1.28809H756.593L774.833 24.2321L778.433 1.28809H789.185L783.521 37.0001H772.817L753.329 12.9041L749.537 37.0001H738.785L744.449 1.28809Z" fill="#B3B3B3"/>
<path d="M703.152 1.28809H739.728L738.432 9.40008H712.608L711.792 14.6801H737.04L735.744 22.8401H710.496L709.536 28.6961H735.792L734.496 37.0001H697.488L703.152 1.28809Z" fill="#B3B3B3"/>
<path d="M661.855 1.28809H698.431L697.135 9.40008H671.311L670.495 14.6801H695.743L694.447 22.8401H669.199L668.239 28.6961H694.495L693.199 37.0001H656.191L661.855 1.28809Z" fill="#B3B3B3"/>
<path d="M622.96 16.4081H639.568C643.168 16.4081 644.56 14.4401 644.56 12.5201C644.56 10.6961 643.504 9.40008 640.576 9.40008H624.112L622.96 16.4081ZM621.76 24.3281L619.744 37.0001H608.848L614.512 1.28809H642.832C653.296 1.28809 656.272 5.27209 656.272 9.92809C656.272 15.4481 651.568 17.9441 648.4 18.8561C651.664 19.8641 654.496 22.1201 653.776 26.7281L652.816 32.7281C652.432 35.2721 652.72 36.1841 652.864 36.7601L652.816 37.0001H641.728C641.536 36.6161 641.392 36.0881 641.632 34.6001L642.256 30.6641C642.928 26.4401 641.344 24.3281 635.824 24.3281H621.76Z" fill="#B3B3B3"/>
<path d="M583.375 37.6241H581.455C563.647 37.6241 559.375 28.0241 559.375 21.0641C559.375 19.9121 559.423 18.8561 559.663 17.1281C560.479 11.0801 564.943 0.664062 584.719 0.664062H586.591C607.279 0.664062 609.535 10.3601 608.815 15.2561H597.247C597.103 14.2001 596.143 9.30406 585.055 9.30406C574.831 9.30406 571.807 14.1041 571.231 17.7521C571.087 18.6641 571.039 19.4321 571.039 20.2961C571.039 24.5681 573.727 28.9361 582.847 28.9361C594.175 28.9361 595.807 23.4161 596.143 22.6001H607.711C607.231 27.7361 603.247 37.6241 583.375 37.6241Z" fill="#B3B3B3"/>
<path d="M531.812 37.6241C513.716 37.6241 512.372 29.4161 512.948 24.3281H524.228C524.276 26.5841 524.948 29.9921 533.924 29.9921H534.5C544.484 29.9921 545.156 27.5441 545.156 25.7681C545.156 23.8481 544.1 22.7921 537.14 22.6001L531.188 22.4561C518.756 22.1681 515.3 17.5121 515.3 12.0401C515.3 11.3681 515.348 10.8401 515.444 10.1681C516.164 5.27206 519.764 0.664062 535.652 0.664062H538.724C555.236 0.664062 558.356 6.52006 557.636 12.4241H546.404C546.26 10.9841 545.876 8.10406 536.804 8.10406H536.132C527.204 8.10406 526.676 9.88006 526.676 11.3201C526.676 12.6641 527.348 14.2001 533.828 14.2961L539.588 14.3921C552.26 14.5841 556.82 17.8001 556.82 24.4241C556.82 25.2881 556.724 26.3921 556.58 27.1121C555.524 32.2961 552.452 37.6241 534.932 37.6241H531.812Z" fill="#B3B3B3"/>
<path d="M463.012 1.28809H499.588L498.292 9.40008H472.468L471.652 14.6801H496.9L495.604 22.8401H470.356L469.396 28.6961H495.652L494.356 37.0001H457.348L463.012 1.28809Z" fill="#B3B3B3"/>
<path d="M406.113 37.0001L411.777 1.28809H433.329C451.809 1.28809 456.849 8.82409 456.849 16.6001C456.849 18.1841 456.705 19.6721 456.465 21.0641C455.265 27.9761 450.177 37.0481 430.593 37.0001H406.113ZM421.281 9.73609L418.305 28.4081H429.681C441.873 28.4081 444.369 23.5121 445.089 19.8161C445.233 19.0961 445.329 18.2801 445.329 17.6561C445.329 14.0081 443.361 9.73609 432.657 9.73609H421.281Z" fill="#B3B3B3"/>
<path d="M406.736 1.28809L401.072 37.0001H390.176L395.84 1.28809H406.736Z" fill="#B3B3B3"/>
<path d="M347.795 37.0001H335.699L326.387 1.28809H337.907L343.811 25.8641L354.803 1.28809H366.371L371.171 25.1441L383.171 1.28809H394.163L375.107 37.0001H364.067L358.883 13.0481L347.795 37.0001Z" fill="#B3B3B3"/>
<path d="M280.705 37.0001L285.025 9.73609H270.289L271.585 1.28809H312.145L310.801 9.73609H296.065L291.745 37.0001H280.705Z" fill="#B3B3B3"/>
<path d="M241.407 37.6241C221.967 37.6241 218.031 28.1681 218.031 21.7841C218.031 20.6801 218.031 19.4801 218.271 17.7521C219.135 11.8961 222.111 0.664062 244.095 0.664062H246.159C265.455 0.664062 269.583 9.83206 269.583 16.2641C269.583 17.5121 269.535 18.8081 269.343 20.1521C268.431 26.2961 265.503 37.6241 243.471 37.6241H241.407ZM258.063 17.4161C258.063 13.4801 255.375 9.30406 244.767 9.30406C232.911 9.30406 230.079 14.5841 229.743 18.6641C229.695 19.2881 229.695 19.7681 229.695 20.2961C229.695 24.1841 232.047 28.9361 242.847 28.9361C254.511 28.9361 257.343 23.6561 257.919 19.3361C258.015 18.6161 258.063 18.0881 258.063 17.4161Z" fill="#B3B3B3"/>
<path d="M188.11 37.6241C168.67 37.6241 164.734 28.1681 164.734 21.7841C164.734 20.6801 164.734 19.4801 164.974 17.7521C165.838 11.8961 168.814 0.664062 190.798 0.664062H192.862C212.158 0.664062 216.286 9.83206 216.286 16.2641C216.286 17.5121 216.238 18.8081 216.046 20.1521C215.134 26.2961 212.206 37.6241 190.174 37.6241H188.11ZM204.766 17.4161C204.766 13.4801 202.078 9.30406 191.47 9.30406C179.614 9.30406 176.782 14.5841 176.446 18.6641C176.398 19.2881 176.398 19.7681 176.398 20.2961C176.398 24.1841 178.75 28.9361 189.55 28.9361C201.214 28.9361 204.046 23.6561 204.622 19.3361C204.718 18.6161 204.766 18.0881 204.766 17.4161Z" fill="#B3B3B3"/>
<path d="M113.754 37.0001L119.418 1.28809H130.314L128.25 14.2961H151.242L153.306 1.28809H164.202L158.538 37.0001H147.642L149.85 22.9361H126.858L124.65 37.0001H113.754Z" fill="#B3B3B3"/>
<path d="M87.2031 37.6241C69.1071 37.6241 67.7631 29.4161 68.3391 24.3281H79.6191C79.6671 26.5841 80.3391 29.9921 89.3151 29.9921H89.8911C99.8751 29.9921 100.547 27.5441 100.547 25.7681C100.547 23.8481 99.4911 22.7921 92.5311 22.6001L86.5791 22.4561C74.1471 22.1681 70.6911 17.5121 70.6911 12.0401C70.6911 11.3681 70.7391 10.8401 70.8351 10.1681C71.5551 5.27206 75.1551 0.664062 91.0431 0.664062H94.1151C110.627 0.664062 113.747 6.52006 113.027 12.4241H101.795C101.651 10.9841 101.267 8.10406 92.1951 8.10406H91.5231C82.5951 8.10406 82.0671 9.88006 82.0671 11.3201C82.0671 12.6641 82.7391 14.2001 89.2191 14.2961L94.9791 14.3921C107.651 14.5841 112.211 17.8001 112.211 24.4241C112.211 25.2881 112.115 26.3921 111.971 27.1121C110.915 32.2961 107.843 37.6241 90.3231 37.6241H87.2031Z" fill="#B3B3B3"/>
</svg>
