<svg width="874" height="105" viewBox="0 0 874 105" fill="none" xmlns="http://www.w3.org/2000/svg">
<path d="M87.6356 37.624C69.5396 37.624 68.1956 29.416 68.7716 24.328H80.0516C80.0996 26.584 80.7716 29.992 89.7476 29.992H90.3236C100.308 29.992 100.98 27.544 100.98 25.768C100.98 23.848 99.9236 22.792 92.9636 22.6L87.0116 22.456C74.5796 22.168 71.1236 17.512 71.1236 12.04C71.1236 11.368 71.1716 10.84 71.2676 10.168C71.9876 5.272 75.5876 0.663999 91.4756 0.663999H94.5476C111.06 0.663999 114.18 6.52 113.46 12.424H102.228C102.084 10.984 101.7 8.104 92.6276 8.104H91.9556C83.0276 8.104 82.4996 9.88 82.4996 11.32C82.4996 12.664 83.1716 14.2 89.6516 14.296L95.4116 14.392C108.084 14.584 112.644 17.8 112.644 24.424C112.644 25.288 112.548 26.392 112.404 27.112C111.348 32.296 108.276 37.624 90.7556 37.624H87.6356ZM114.189 37L119.853 1.288H130.749L128.685 14.296H151.677L153.741 1.288H164.637L158.973 37H148.077L150.285 22.936H127.293L125.085 37H114.189ZM188.545 37.624C169.105 37.624 165.169 28.168 165.169 21.784C165.169 20.68 165.169 19.48 165.409 17.752C166.273 11.896 169.249 0.663999 191.233 0.663999H193.297C212.593 0.663999 216.721 9.832 216.721 16.264C216.721 17.512 216.673 18.808 216.481 20.152C215.569 26.296 212.641 37.624 190.609 37.624H188.545ZM205.201 17.416C205.201 13.48 202.513 9.304 191.905 9.304C180.049 9.304 177.217 14.584 176.881 18.664C176.833 19.288 176.833 19.768 176.833 20.296C176.833 24.184 179.185 28.936 189.985 28.936C201.649 28.936 204.481 23.656 205.057 19.336C205.153 18.616 205.201 18.088 205.201 17.416ZM241.842 37.624C222.402 37.624 218.466 28.168 218.466 21.784C218.466 20.68 218.466 19.48 218.706 17.752C219.57 11.896 222.546 0.663999 244.53 0.663999H246.594C265.89 0.663999 270.018 9.832 270.018 16.264C270.018 17.512 269.97 18.808 269.778 20.152C268.866 26.296 265.938 37.624 243.906 37.624H241.842ZM258.498 17.416C258.498 13.48 255.81 9.304 245.202 9.304C233.346 9.304 230.514 14.584 230.178 18.664C230.13 19.288 230.13 19.768 230.13 20.296C230.13 24.184 232.482 28.936 243.282 28.936C254.946 28.936 257.778 23.656 258.354 19.336C258.45 18.616 258.498 18.088 258.498 17.416ZM281.141 37L285.461 9.736H270.725L272.021 1.288H312.581L311.237 9.736H296.501L292.181 37H281.141ZM348.228 37H336.132L326.82 1.288H338.34L344.244 25.864L355.236 1.288H366.804L371.604 25.144L383.604 1.288H394.596L375.54 37H364.5L359.316 13.048L348.228 37ZM407.171 1.288L401.507 37H390.611L396.275 1.288H407.171ZM406.548 37L412.212 1.288H433.764C452.244 1.288 457.284 8.824 457.284 16.6C457.284 18.184 457.14 19.672 456.9 21.064C455.7 27.976 450.612 37.048 431.028 37H406.548ZM421.716 9.736L418.74 28.408H430.116C442.308 28.408 444.804 23.512 445.524 19.816C445.668 19.096 445.764 18.28 445.764 17.656C445.764 14.008 443.796 9.736 433.092 9.736H421.716ZM463.447 1.288H500.023L498.727 9.4H472.903L472.087 14.68H497.335L496.039 22.84H470.791L469.831 28.696H496.087L494.791 37H457.783L463.447 1.288ZM532.245 37.624C514.149 37.624 512.805 29.416 513.381 24.328H524.661C524.709 26.584 525.381 29.992 534.357 29.992H534.933C544.917 29.992 545.589 27.544 545.589 25.768C545.589 23.848 544.533 22.792 537.573 22.6L531.621 22.456C519.189 22.168 515.733 17.512 515.733 12.04C515.733 11.368 515.781 10.84 515.877 10.168C516.597 5.272 520.197 0.663999 536.085 0.663999H539.157C555.669 0.663999 558.789 6.52 558.069 12.424H546.837C546.693 10.984 546.309 8.104 537.237 8.104H536.565C527.637 8.104 527.109 9.88 527.109 11.32C527.109 12.664 527.781 14.2 534.261 14.296L540.021 14.392C552.693 14.584 557.253 17.8 557.253 24.424C557.253 25.288 557.157 26.392 557.013 27.112C555.957 32.296 552.885 37.624 535.365 37.624H532.245ZM583.809 37.624H581.889C564.081 37.624 559.809 28.024 559.809 21.064C559.809 19.912 559.857 18.856 560.097 17.128C560.913 11.08 565.377 0.663999 585.153 0.663999H587.025C607.713 0.663999 609.969 10.36 609.249 15.256H597.681C597.537 14.2 596.577 9.304 585.489 9.304C575.265 9.304 572.241 14.104 571.665 17.752C571.521 18.664 571.473 19.432 571.473 20.296C571.473 24.568 574.161 28.936 583.281 28.936C594.609 28.936 596.241 23.416 596.577 22.6H608.145C607.665 27.736 603.681 37.624 583.809 37.624ZM623.395 16.408H640.003C643.603 16.408 644.995 14.44 644.995 12.52C644.995 10.696 643.939 9.4 641.011 9.4H624.547L623.395 16.408ZM622.195 24.328L620.179 37H609.283L614.947 1.288H643.267C653.731 1.288 656.707 5.272 656.707 9.928C656.707 15.448 652.003 17.944 648.835 18.856C652.099 19.864 654.931 22.12 654.211 26.728L653.251 32.728C652.867 35.272 653.155 36.184 653.299 36.76L653.251 37H642.163C641.971 36.616 641.827 36.088 642.067 34.6L642.691 30.664C643.363 26.44 641.779 24.328 636.259 24.328H622.195ZM662.29 1.288H698.866L697.57 9.4H671.746L670.93 14.68H696.178L694.882 22.84H669.634L668.674 28.696H694.93L693.634 37H656.626L662.29 1.288ZM703.587 1.288H740.163L738.867 9.4H713.043L712.227 14.68H737.475L736.179 22.84H710.931L709.971 28.696H736.227L734.931 37H697.923L703.587 1.288ZM744.884 1.288H757.028L775.268 24.232L778.868 1.288H789.62L783.956 37H773.252L753.764 12.904L749.972 37H739.22L744.884 1.288ZM796.249 41.704H790.297C791.353 40.168 792.313 38.344 792.793 37H787.897L789.241 28.6H800.569L799.465 35.512C799.177 37.384 797.497 40.264 796.249 41.704ZM13.9954 104L0.89136 68.288H12.8434L22.0114 94.736L37.8514 68.288H49.4194L27.6274 104H13.9954ZM51.0874 68.288H87.6634L86.3674 76.4H60.5434L59.7274 81.68H84.9754L83.6794 89.84H58.4314L57.4714 95.696H83.7274L82.4314 104H45.4234L51.0874 68.288ZM100.832 83.408H117.44C121.04 83.408 122.432 81.44 122.432 79.52C122.432 77.696 121.376 76.4 118.448 76.4H101.984L100.832 83.408ZM99.6322 91.328L97.6162 104H86.7202L92.3842 68.288H120.704C131.168 68.288 134.144 72.272 134.144 76.928C134.144 82.448 129.44 84.944 126.272 85.856C129.536 86.864 132.368 89.12 131.648 93.728L130.688 99.728C130.304 102.272 130.592 103.184 130.736 103.76L130.688 104H119.6C119.408 103.616 119.264 103.088 119.504 101.6L120.128 97.664C120.8 93.44 119.216 91.328 113.696 91.328H99.6322ZM146.422 104L150.742 76.736H136.006L137.302 68.288H177.862L176.518 76.736H161.782L157.462 104H146.422ZM192.296 68.288L186.632 104H175.736L181.4 68.288H192.296ZM216.777 104.624H214.857C197.049 104.624 192.777 95.024 192.777 88.064C192.777 86.912 192.825 85.856 193.065 84.128C193.881 78.08 198.345 67.664 218.121 67.664H219.993C240.681 67.664 242.937 77.36 242.217 82.256H230.649C230.505 81.2 229.545 76.304 218.457 76.304C208.233 76.304 205.209 81.104 204.633 84.752C204.489 85.664 204.441 86.432 204.441 87.296C204.441 91.568 207.129 95.936 216.249 95.936C227.577 95.936 229.209 90.416 229.545 89.6H241.113C240.633 94.736 236.649 104.624 216.777 104.624ZM271.218 89.408L266.322 76.016L258.018 89.408H271.218ZM276.594 104L274.194 97.472H253.026L248.994 104H237.714L260.274 68.288H274.338L287.922 104H276.594ZM294.931 68.288H305.827L301.555 95.12H325.459L324.067 104H289.267L294.931 68.288ZM366.295 104.624C346.855 104.624 342.919 95.168 342.919 88.784C342.919 87.68 342.919 86.48 343.159 84.752C344.023 78.896 346.999 67.664 368.983 67.664H371.047C390.343 67.664 394.471 76.832 394.471 83.264C394.471 84.512 394.423 85.808 394.231 87.152C393.319 93.296 390.391 104.624 368.359 104.624H366.295ZM382.951 84.416C382.951 80.48 380.263 76.304 369.655 76.304C357.799 76.304 354.967 81.584 354.631 85.664C354.583 86.288 354.583 86.768 354.583 87.296C354.583 91.184 356.935 95.936 367.735 95.936C379.399 95.936 382.231 90.656 382.807 86.336C382.903 85.616 382.951 85.088 382.951 84.416ZM409.176 83.408H425.784C429.384 83.408 430.776 81.44 430.776 79.52C430.776 77.696 429.72 76.4 426.792 76.4H410.328L409.176 83.408ZM407.976 91.328L405.96 104H395.064L400.728 68.288H429.048C439.512 68.288 442.488 72.272 442.488 76.928C442.488 82.448 437.784 84.944 434.616 85.856C437.88 86.864 440.712 89.12 439.992 93.728L439.032 99.728C438.648 102.272 438.936 103.184 439.08 103.76L439.032 104H427.944C427.752 103.616 427.608 103.088 427.848 101.6L428.472 97.664C429.144 93.44 427.56 91.328 422.04 91.328H407.976ZM462.181 68.288H498.085L496.789 76.4H471.733L470.917 81.68H495.349L494.053 89.84H469.621L467.365 104H456.517L462.181 68.288ZM521.216 104.528H519.584C501.152 104.528 498.128 92.432 499.28 85.232L501.968 68.288H512.912L510.32 84.656C509.552 89.504 511.184 95.264 520.592 95.264C529.52 95.264 532.064 89.456 532.784 84.944L535.424 68.288H546.368L543.632 85.52C542.432 93.104 538.496 104.528 521.216 104.528ZM551.009 68.288H561.905L557.633 95.12H581.537L580.145 104H545.345L551.009 68.288ZM589.4 68.288H600.296L596.024 95.12H619.928L618.536 104H583.736L589.4 68.288ZM641.9 68.288H677.804L676.508 76.4H651.452L650.636 81.68H675.068L673.772 89.84H649.34L647.084 104H636.236L641.9 68.288ZM690.567 83.408H707.175C710.775 83.408 712.167 81.44 712.167 79.52C712.167 77.696 711.111 76.4 708.183 76.4H691.719L690.567 83.408ZM689.367 91.328L687.351 104H676.455L682.119 68.288H710.439C720.903 68.288 723.879 72.272 723.879 76.928C723.879 82.448 719.175 84.944 716.007 85.856C719.271 86.864 722.103 89.12 721.383 93.728L720.423 99.728C720.039 102.272 720.327 103.184 720.471 103.76L720.423 104H709.335C709.143 103.616 708.999 103.088 709.239 101.6L709.863 97.664C710.535 93.44 708.951 91.328 703.431 91.328H689.367ZM754.405 89.408L749.509 76.016L741.205 89.408H754.405ZM759.781 104L757.381 97.472H736.213L732.181 104H720.901L743.461 68.288H757.525L771.109 104H759.781ZM772.455 104L778.119 68.288H793.287L801.927 90.512L817.095 68.288H832.215L826.551 104H815.847L819.783 79.28L802.647 104H796.839L786.903 79.28L782.967 104H772.455ZM837.275 68.288H873.851L872.555 76.4H846.731L845.915 81.68H871.163L869.867 89.84H844.619L843.659 95.696H869.915L868.619 104H831.611L837.275 68.288Z" fill="#B3B3B3"/>
</svg>
