<svg width="570" height="137" viewBox="0 0 570 137" fill="none" xmlns="http://www.w3.org/2000/svg">
<path d="M524.897 36.2403C525.153 36.2403 525.281 35.8136 525.281 34.9603L525.153 34.8323L524.897 35.0883C524.726 35.1736 524.641 35.3443 524.641 35.6003C524.641 35.6856 524.641 35.8136 524.641 35.9843C524.726 36.155 524.811 36.2403 524.897 36.2403ZM543.585 43.7923L542.817 42.1283C542.305 41.1043 541.878 40.5923 541.537 40.5923C541.366 40.5923 541.153 40.635 540.897 40.7203C540.641 40.8056 540.427 40.8483 540.257 40.8483H540.129C540.129 41.1043 540.598 41.659 541.537 42.5123C542.475 43.3656 543.158 43.7923 543.585 43.7923ZM548.961 51.0883L549.089 50.9603L547.937 49.2963H547.809C547.809 49.467 547.937 49.8083 548.193 50.3203C548.534 50.8323 548.747 51.0883 548.833 51.0883H548.961ZM555.745 52.3683C556.683 52.3683 557.537 52.3256 558.305 52.2403C559.073 52.0696 559.585 51.9417 559.841 51.8563L560.097 51.7283C560.097 51.5576 559.03 51.4723 556.897 51.4723C554.763 51.4723 553.313 51.3443 552.545 51.0883L551.905 50.9603C551.905 51.899 553.185 52.3683 555.745 52.3683ZM558.305 57.4883C557.963 57.3176 557.579 57.1897 557.153 57.1043C556.811 56.9337 556.427 56.8057 556.001 56.7203C555.574 56.5497 554.891 56.4643 553.953 56.4643C554.891 56.9763 555.574 57.275 556.001 57.3603C556.513 57.4457 557.281 57.4883 558.305 57.4883ZM524.001 60.6883L524.385 60.4323C524.555 60.2616 524.726 60.0057 524.897 59.6643C525.153 59.323 525.281 59.067 525.281 58.8963C525.281 58.7256 525.195 58.6403 525.025 58.6403C524.939 58.6403 524.726 58.7683 524.385 59.0243C524.129 59.2803 524.001 59.7923 524.001 60.5603V60.6883ZM512.993 94.4803C512.907 94.4803 512.737 94.3523 512.481 94.0963C511.798 93.755 511.115 93.243 510.433 92.5603C510.177 92.3896 510.006 92.3043 509.921 92.3043C509.75 92.3043 508.939 91.835 507.489 90.8963C505.953 90.043 505.057 89.275 504.801 88.5923C504.801 85.7763 505.526 81.595 506.977 76.0483C508.427 70.5016 510.39 64.315 512.865 57.4883C516.875 46.0536 520.161 38.971 522.721 36.2403C523.83 34.9603 524.683 34.3203 525.281 34.3203C525.622 34.3203 525.793 34.5763 525.793 35.0883C525.793 35.9416 525.963 36.6243 526.305 37.1363C526.731 37.9896 527.286 38.4163 527.969 38.4163C528.139 38.4163 528.31 38.3736 528.481 38.2883C528.651 38.1176 528.865 38.0323 529.121 38.0323C529.377 38.0323 530.358 38.715 532.065 40.0803L531.425 42.5123C530.998 43.7923 530.657 44.4323 530.401 44.4323C530.145 44.4323 529.761 44.987 529.249 46.0963C528.225 48.4003 527.243 51.131 526.305 54.2883L525.921 56.4643H526.049C526.646 56.4643 528.395 54.4163 531.297 50.3203C536.417 43.1523 539.83 39.5683 541.537 39.5683C542.219 39.8243 542.817 40.4643 543.329 41.4883C543.755 42.171 544.737 43.067 546.273 44.1763C547.467 44.859 548.619 45.9683 549.729 47.5043C550.241 48.443 550.753 49.083 551.265 49.4243C552.459 50.1923 554.123 50.5763 556.257 50.5763C559.158 50.5763 561.505 50.3203 563.297 49.8083C563.297 49.8936 562.998 50.1496 562.401 50.5763C561.803 50.9176 561.505 51.1736 561.505 51.3443C561.505 51.6856 561.931 51.8563 562.785 51.8563C563.723 51.8563 564.491 52.155 565.089 52.7523C565.43 53.3496 565.899 53.6483 566.497 53.6483C566.582 53.563 566.71 53.5203 566.881 53.5203C567.051 53.5203 567.265 53.6056 567.521 53.7763C567.862 53.947 568.161 54.2456 568.417 54.6723C568.758 55.0136 568.971 55.3123 569.057 55.5683C569.057 55.8243 568.801 56.0803 568.289 56.3363C567.009 57.1043 565.515 57.5737 563.809 57.7443C562.443 57.7443 561.761 57.8723 561.761 58.1283C561.761 58.3843 561.121 58.5123 559.841 58.5123C558.305 58.5123 557.025 58.4697 556.001 58.3843C555.062 58.2137 554.379 58.043 553.953 57.8723C553.526 57.6163 552.801 57.1043 551.777 56.3363C550.753 55.483 549.686 54.5443 548.577 53.5203C547.467 52.411 546.529 51.6003 545.761 51.0883C545.078 50.5763 544.609 50.3203 544.353 50.3203C543.585 50.3203 540.129 54.971 533.985 64.2723C529.035 71.7817 523.873 79.931 518.497 88.7203C517.643 90.171 516.619 91.4937 515.425 92.6883C514.23 93.883 513.419 94.4803 512.993 94.4803Z" fill="#215FF6"/>
<path d="M492.957 69.2644C492.957 69.0937 492.744 68.6671 492.317 67.9844C490.952 65.7657 490.184 64.6564 490.013 64.6564V64.7844C490.013 65.1257 490.184 65.6804 490.525 66.4484C490.952 67.1311 491.421 67.7711 491.933 68.3684C492.445 68.9657 492.786 69.2644 492.957 69.2644ZM494.365 66.8324C494.621 66.8324 495.218 65.9364 496.157 64.1444C500.253 56.2937 502.472 49.6804 502.813 44.3044L502.941 41.4884C502.941 40.7204 502.898 40.3364 502.813 40.3364C501.704 40.3364 500.253 41.3604 498.461 43.4084C496.669 45.4564 495.176 47.7604 493.981 50.3204C492.786 52.8804 492.189 55.7391 492.189 58.8964C492.189 61.0297 492.488 62.9071 493.085 64.5284C493.768 66.0644 494.194 66.8324 494.365 66.8324ZM504.477 35.4724L504.093 34.5764C503.154 32.9551 501.746 32.1444 499.869 32.1444H499.101C497.992 32.3151 497.437 32.4857 497.437 32.6564C497.437 32.8271 498.034 32.9551 499.229 33.0404C500.509 33.1257 501.149 33.2964 501.149 33.5524V33.8084C501.149 33.9791 501.32 34.1497 501.661 34.3204C502.002 34.4911 502.344 34.6617 502.685 34.8324C503.026 34.9177 503.368 35.0457 503.709 35.2164C504.05 35.3871 504.264 35.4724 504.349 35.4724H504.477ZM504.093 60.4324C504.434 60.4324 505.117 58.9817 506.141 56.0804C506.824 53.7764 507.165 52.4537 507.165 52.1124V51.8564C507.08 51.8564 506.909 52.1124 506.653 52.6244C506.056 53.9897 505.458 55.8671 504.861 58.2564L504.093 60.4324ZM507.933 43.5364C508.018 43.5364 508.104 43.4084 508.189 43.1524C508.189 42.8111 508.018 42.1711 507.677 41.2324C507.165 39.8671 506.781 39.1844 506.525 39.1844C506.269 39.1844 506.141 39.3124 506.141 39.5684C506.568 40.4217 506.952 41.3177 507.293 42.2564C507.634 43.1097 507.848 43.5364 507.933 43.5364ZM507.421 50.1924C507.592 50.1924 507.677 49.8511 507.677 49.1684C507.677 48.4004 507.592 48.0164 507.421 48.0164C507.336 48.0164 507.293 48.4004 507.293 49.1684C507.293 49.8511 507.336 50.1924 507.421 50.1924ZM502.557 64.0164C502.642 64.0164 502.856 63.6751 503.197 62.9924C503.709 62.4804 503.965 61.9257 503.965 61.3284V61.2004C503.88 61.2004 503.666 61.4564 503.325 61.9684C503.069 62.4804 502.856 62.9071 502.685 63.2484C502.6 63.5044 502.557 63.7177 502.557 63.8884V64.0164ZM473.501 85.3924C474.184 85.3924 475.634 84.8377 477.853 83.7284C482.632 81.2537 486.6 78.0537 489.757 74.1284L492.061 71.1844L488.861 67.8564C487.41 66.2351 486.002 64.3151 484.637 62.0964C483.357 59.8777 482.717 58.2991 482.717 57.3604C482.717 57.1897 482.674 57.1044 482.589 57.1044C482.504 57.1897 482.29 57.4031 481.949 57.7444C481.693 58.0004 481.565 58.3844 481.565 58.8964L481.693 59.2804C481.693 59.4511 481.565 59.5364 481.309 59.5364C481.053 59.5364 480.925 59.6217 480.925 59.7924L481.053 60.1764C481.053 60.5177 480.882 60.8591 480.541 61.2004C480.2 61.5417 480.029 61.8404 480.029 62.0964V62.3524C480.029 62.5231 479.901 62.6084 479.645 62.6084C479.389 62.6084 479.261 62.6937 479.261 62.8644L479.133 64.1444C478.792 65.2537 478.408 65.8084 477.981 65.8084H477.597C477.597 65.8937 477.64 65.9791 477.725 66.0644C477.81 66.0644 477.853 66.1071 477.853 66.1924C477.853 66.7044 477.64 67.3017 477.213 67.9844L476.573 69.5204H476.701L476.445 70.1604C475.592 71.5257 475.165 72.5071 475.165 73.1044C475.165 73.6164 474.994 74.0431 474.653 74.3844L474.141 76.0484C473.629 77.5844 473.288 78.9497 473.117 80.1444C472.861 81.9364 472.733 83.1737 472.733 83.8564C472.733 84.8804 472.989 85.3924 473.501 85.3924ZM476.061 92.5604L476.189 92.4324C476.189 92.2617 475.805 92.1764 475.037 92.1764C474.269 92.1764 473.885 92.2617 473.885 92.4324C473.885 92.5177 474.61 92.5604 476.061 92.5604ZM473.757 86.9284C474.098 86.9284 474.397 86.8857 474.653 86.8004C474.909 86.7151 475.08 86.6297 475.165 86.5444C475.336 86.3737 475.421 86.2457 475.421 86.1604C475.421 86.0751 475.336 86.0324 475.165 86.0324C474.909 86.0324 474.397 86.2031 473.629 86.5444C473.202 86.7151 472.989 86.8431 472.989 86.9284H473.757ZM474.653 94.0964C474.141 94.0964 473.757 94.0537 473.501 93.9684C473.33 93.8831 473.117 93.7551 472.861 93.5844C466.973 90.1711 463.432 87.4831 462.237 85.5204C461.384 84.0697 460.957 81.8511 460.957 78.8644C460.957 73.2324 462.664 67.0457 466.077 60.3044C473.416 46.0537 481.309 36.4111 489.757 31.3764C490.696 30.8644 491.378 30.6084 491.805 30.6084C492.317 30.6084 492.658 30.7364 492.829 30.9924C493.085 31.1631 493.256 31.3337 493.341 31.5044C493.426 31.5897 493.512 32.0591 493.597 32.9124C493.512 32.9124 493.426 32.7417 493.341 32.4004C493.256 31.7177 492.872 31.3764 492.189 31.3764C491.848 31.3764 491.378 31.5044 490.781 31.7604C490.525 31.8457 490.397 31.9311 490.397 32.0164C490.397 32.2724 490.909 32.5284 491.933 32.7844C492.53 32.9551 493 33.0404 493.341 33.0404C493.938 33.0404 494.493 32.8697 495.005 32.5284C496.2 31.5897 497.48 31.1204 498.845 31.1204C499.357 31.1204 500.168 31.2484 501.277 31.5044C502.386 31.6751 503.538 32.6991 504.733 34.5764C505.586 35.8564 506.482 36.8804 507.421 37.6484C509.384 39.6964 510.621 42.1711 511.133 45.0724C511.218 45.4991 511.261 46.0111 511.261 46.6084C511.261 48.8271 510.706 51.8564 509.597 55.6964C508.488 59.5364 506.397 64.5711 503.325 70.8004C502.813 71.6537 502.557 72.2511 502.557 72.5924C502.557 72.8484 502.685 72.9764 502.941 72.9764C503.282 72.9764 503.666 73.1044 504.093 73.3604C505.714 74.2991 506.525 75.1097 506.525 75.7924C506.525 75.9631 506.44 76.1337 506.269 76.3044C506.098 76.4751 505.8 76.5604 505.373 76.5604C505.117 76.5604 504.136 76.3471 502.429 75.9204C501.576 75.6644 500.978 75.5364 500.637 75.5364C500.125 75.5364 499.869 75.6217 499.869 75.7924C499.869 75.8777 499.997 75.9631 500.253 76.0484C500.509 76.1337 500.722 76.2191 500.893 76.3044C501.661 76.5604 502.429 76.6884 503.197 76.6884L503.325 76.9444C503.069 77.2004 502.386 77.3284 501.277 77.3284L500.637 77.2004C499.784 77.2004 498.76 78.0111 497.565 79.6324C493.042 85.0937 487.794 89.3177 481.821 92.3044C479.261 93.4991 476.872 94.0964 474.653 94.0964Z" fill="#215FF6"/>
<path d="M420.799 107.28C421.653 107.28 423.402 106.939 426.047 106.256C436.799 103.014 444.479 96.9976 449.087 88.2083C449.514 87.2696 449.898 86.1602 450.239 84.8802C450.581 83.2589 450.751 81.9789 450.751 81.0403C450.751 80.5283 450.666 80.2723 450.495 80.2723C449.898 80.2723 447.466 81.5522 443.199 84.1123C436.799 88.0376 431.551 92.0909 427.455 96.2723C424.213 99.6003 422.037 102.544 420.927 105.104L420.159 107.024C420.159 107.195 420.373 107.28 420.799 107.28ZM421.439 108.944C421.781 108.859 422.421 108.731 423.359 108.56C424.213 108.39 425.151 108.134 426.175 107.792C427.199 107.451 428.01 107.11 428.607 106.768C429.205 106.512 429.589 106.342 429.759 106.256L429.887 106H429.759C425.578 107.195 422.847 107.792 421.567 107.792C420.714 107.792 420.245 108.048 420.159 108.56C420.159 108.731 420.245 108.859 420.415 108.944H421.439ZM465.983 34.8322C466.325 34.7469 466.495 34.6616 466.495 34.5762C466.495 34.3202 465.599 34.1922 463.807 34.1922C462.783 34.1922 462.271 34.2349 462.271 34.3202C462.271 34.4056 462.442 34.4909 462.783 34.5762C463.21 34.6616 463.722 34.7469 464.319 34.8322C465.002 34.8322 465.557 34.8322 465.983 34.8322ZM452.543 93.7122C452.714 93.7122 452.927 93.4136 453.183 92.8163C453.525 92.3043 453.738 91.9629 453.823 91.7923H453.695C453.61 91.7923 453.482 91.8776 453.311 92.0482C453.141 92.2189 452.97 92.4749 452.799 92.8163C452.629 93.2429 452.543 93.4989 452.543 93.5843V93.7122ZM455.871 82.1923V81.9362C455.871 81.5949 455.701 80.9549 455.359 80.0163C455.103 79.0776 454.847 78.6083 454.591 78.6083C454.506 78.6083 454.463 78.7362 454.463 78.9922C454.463 79.3336 454.634 79.9736 454.975 80.9123C455.402 81.7656 455.658 82.1923 455.743 82.1923H455.871ZM416.703 105.872C416.789 105.872 416.917 105.744 417.087 105.488C417.343 104.891 417.471 104.336 417.471 103.824V103.696L416.959 104.336C416.703 104.678 416.575 105.104 416.575 105.616C416.575 105.787 416.618 105.872 416.703 105.872ZM425.023 113.296C423.658 113.296 422.378 113.168 421.183 112.912C419.989 112.742 419.135 112.656 418.623 112.656H418.495C418.325 112.656 417.941 112.443 417.343 112.016C416.746 111.59 414.698 109.67 411.199 106.256L411.455 103.824C412.309 98.8749 416.362 93.1576 423.615 86.6722C428.821 82.0642 434.538 78.3522 440.767 75.5362L446.143 72.9762L441.791 67.7282L440.127 65.8083C438.591 64.1016 437.567 62.6083 437.055 61.3283C436.543 60.0483 436.287 58.5976 436.287 56.9762C436.287 54.3309 437.482 51.3443 439.871 48.0163C442.346 44.6029 445.503 41.6162 449.343 39.0562C455.743 34.7896 460.65 32.6562 464.063 32.6562C464.917 32.6562 465.599 32.8269 466.111 33.1682C466.965 33.7656 467.391 34.4056 467.391 35.0882C467.391 35.6856 467.946 36.4536 469.055 37.3923C470.165 38.2456 471.018 39.1416 471.615 40.0802C472.298 41.0189 472.639 41.8296 472.639 42.5122C472.639 43.6216 470.975 45.4989 467.647 48.1442C466.794 48.9122 466.282 49.2962 466.111 49.2962C466.026 49.2962 465.983 49.2536 465.983 49.1683L466.111 48.5283C466.111 48.3576 466.026 48.2723 465.855 48.2723L464.959 48.5283C464.874 48.5283 464.831 48.4856 464.831 48.4002C464.831 48.1442 465.429 47.2483 466.623 45.7122C467.818 44.0909 468.415 43.2376 468.415 43.1522V43.0243C468.159 43.0243 467.605 43.6216 466.751 44.8162C465.983 46.0109 464.917 47.0776 463.551 48.0163C462.954 48.6136 462.57 48.9123 462.399 48.9123C462.229 48.9123 462.143 48.6562 462.143 48.1442C462.143 47.5469 461.93 47.2482 461.503 47.2482C460.479 47.2482 458.346 48.7843 455.103 51.8563C449.301 57.4883 446.399 61.8403 446.399 64.9123C446.399 65.5096 447.125 66.5336 448.575 67.9843L451.007 70.8003L455.231 69.6482C457.45 68.7949 459.157 68.3682 460.351 68.3682H460.479C460.479 68.4536 460.223 68.5816 459.711 68.7523C454.677 70.3736 452.159 71.3123 452.159 71.5683H452.287C452.714 71.5683 453.311 71.4829 454.079 71.3122C455.871 70.7149 457.365 70.4163 458.559 70.4163C459.839 70.4163 460.693 70.7149 461.119 71.3122C461.631 71.8242 462.186 72.0803 462.783 72.0803H463.039C463.722 72.0803 464.831 72.7629 466.367 74.1283L463.935 75.0243C463.167 75.1096 462.314 75.3229 461.375 75.6643C460.522 75.9203 459.711 76.2189 458.943 76.5602C458.175 76.8162 457.365 77.1149 456.511 77.4563L457.663 79.8883C458.431 81.3389 458.815 83.0883 458.815 85.1363V87.3122C458.815 88.5922 458.389 90.1283 457.535 91.9202C455.999 94.9922 453.653 98.1069 450.495 101.264C447.423 104.507 444.223 107.024 440.895 108.816C435.093 111.803 429.802 113.296 425.023 113.296Z" fill="#215FF6"/>
<path d="M427.335 75.4079C427.165 75.4079 427.079 75.3652 427.079 75.2799C427.079 75.1946 427.207 75.0239 427.463 74.7679C427.719 74.5119 427.975 74.3839 428.231 74.3839L428.359 74.5119C428.359 74.5972 428.274 74.7679 428.103 75.0239C428.018 75.2799 427.762 75.4079 427.335 75.4079ZM377.799 92.5599C377.97 92.3892 378.055 92.2186 378.055 92.0479C378.055 91.6212 377.97 91.4079 377.799 91.4079C377.629 91.4079 377.543 91.5786 377.543 91.9199C377.543 92.3466 377.586 92.5599 377.671 92.5599H377.799ZM424.775 33.6799C424.946 33.5092 425.117 33.1252 425.287 32.5279C425.287 32.3572 425.202 32.2292 425.031 32.1439C424.861 32.1439 424.519 32.2719 424.007 32.5279C423.581 32.7839 423.367 32.9972 423.367 33.1679C423.367 33.5092 423.751 33.6799 424.519 33.6799H424.775ZM380.999 95.2479C380.829 95.2479 380.146 94.8639 378.951 94.0959V94.3519C378.354 94.0106 377.927 93.7119 377.671 93.4559C377.33 93.1999 377.159 92.8159 377.159 92.3039C377.074 91.7919 377.031 91.0239 377.031 89.9999C377.373 82.6612 380.402 71.5679 386.119 56.7199C389.789 47.2479 392.69 41.1039 394.823 38.2879C395.933 37.0079 396.914 36.3679 397.767 36.3679C398.45 36.3679 399.218 36.5812 400.071 37.0079C401.778 37.9466 403.57 38.6292 405.447 39.0559L407.367 39.5679L406.727 40.5919C406.301 41.5306 405.789 42.5119 405.191 43.5359C404.679 44.5599 404.338 45.2852 404.167 45.7119C404.082 46.1386 403.869 46.8212 403.527 47.7599C403.186 48.6132 402.802 49.5519 402.375 50.5759C401.693 52.1972 401.053 53.6906 400.455 55.0559C399.943 56.3359 399.687 57.1892 399.687 57.6159L399.815 57.7439C399.815 57.9146 399.645 57.9999 399.303 57.9999C399.047 57.9999 398.919 58.0852 398.919 58.2559V58.3839L398.151 60.5599C397.639 61.5839 397.383 62.1812 397.383 62.3519C397.639 62.3519 398.962 60.6452 401.351 57.2319C402.034 56.3786 402.674 55.4826 403.271 54.5439C403.527 54.2879 403.741 53.9892 403.911 53.6479C406.813 49.7226 409.842 46.2239 412.999 43.1519C416.498 39.6532 418.759 37.2212 419.783 35.8559C421.746 32.9546 423.41 31.5039 424.775 31.5039C425.629 31.5039 426.055 32.1866 426.055 33.5519L426.183 34.3199C426.269 35.0026 426.866 35.3439 427.975 35.3439L428.359 35.2159C429.042 35.2159 429.81 35.6852 430.663 36.6239C431.517 37.4772 431.943 38.2452 431.943 38.9279C431.943 41.1466 430.791 46.6506 428.487 55.4399C428.146 56.5492 427.335 59.8346 426.055 65.2959C425.287 68.7092 424.861 71.6959 424.775 74.2559C424.775 76.0479 424.989 76.9439 425.415 76.9439C425.671 76.9439 425.97 76.8586 426.311 76.6879C426.653 76.5172 426.994 76.3892 427.335 76.3039C428.189 76.1332 428.743 75.7919 428.999 75.2799C428.999 75.1946 429.17 75.0666 429.511 74.8959C430.706 74.5546 431.901 74.1279 433.095 73.6159C433.607 73.3599 433.991 73.2319 434.247 73.2319C434.503 73.3172 434.845 73.5732 435.271 73.9999C435.698 74.4266 436.082 74.7252 436.423 74.8959C436.765 74.9812 437.063 75.0239 437.319 75.0239C437.661 75.0239 437.917 75.0666 438.087 75.1519C437.831 75.5786 437.362 76.0479 436.679 76.5599C437.277 76.5599 437.575 76.7306 437.575 77.0719C437.575 77.2426 437.447 77.4132 437.191 77.5839C436.423 78.0106 435.741 78.4372 435.143 78.8639C433.607 79.8879 432.199 80.6559 430.919 81.1679C429.639 81.6799 428.103 81.9359 426.311 81.9359C424.178 81.9359 422.215 81.4666 420.423 80.5279C418.631 79.5039 417.437 78.3519 416.839 77.0719C416.242 75.7919 415.943 73.9999 415.943 71.6959C415.943 67.5999 416.797 61.7972 418.503 54.2879C418.589 53.8612 418.717 53.1786 418.887 52.2399C419.143 51.3012 419.357 50.3626 419.527 49.4239C419.783 48.4852 419.911 47.8879 419.911 47.6319C419.143 47.6319 416.071 51.3012 410.695 58.6399C405.746 65.4666 402.546 70.0746 401.095 72.4639C392.818 85.0079 388.039 92.0052 386.759 93.4559C385.906 94.3946 385.309 94.8639 384.967 94.8639C384.711 94.8639 384.498 94.7786 384.327 94.6079C384.157 94.5226 383.943 94.4799 383.687 94.4799C383.346 94.4799 382.962 94.5652 382.535 94.7359C382.023 94.9066 381.639 95.0346 381.383 95.1199L380.999 95.2479ZM429.383 74.1279H429.127L430.407 73.2319V73.4879C430.407 73.5732 430.237 73.7012 429.895 73.8719L429.383 74.1279Z" fill="#215FF6"/>
<path d="M354.317 65.68C354.573 65.68 354.957 65.552 355.469 65.296C356.237 64.784 358.967 62.2667 363.661 57.744C366.221 55.184 368.141 52.8374 369.421 50.704C370.104 49.5094 370.445 48.784 370.445 48.528L370.317 48.4H370.061C369.89 48.4 369.805 48.272 369.805 48.016C369.805 47.4187 369.933 47.0347 370.189 46.864C370.701 46.352 371.128 45.4134 371.469 44.048L371.853 42.896C371.768 42.896 371.682 42.9814 371.597 43.152C371.511 43.3227 371.042 44.048 370.189 45.328C369.762 45.84 369.378 46.3947 369.037 46.992C367.757 48.9547 366.946 49.936 366.605 49.936C366.349 49.7654 366.221 49.552 366.221 49.296C366.221 48.784 366.391 48.528 366.733 48.528C367.159 48.528 367.373 48.2294 367.373 47.632C367.373 47.12 367.33 46.864 367.245 46.864C367.16 46.864 366.904 47.1627 366.477 47.76C365.709 48.6987 365.069 49.168 364.557 49.168C364.13 49.168 362.594 51.0027 359.949 54.672C357.389 58.3414 356.109 60.432 356.109 60.944C356.109 61.456 355.981 61.712 355.725 61.712C355.554 61.712 355.341 61.9254 355.085 62.352C354.402 63.2054 354.061 64.016 354.061 64.784C354.061 65.04 353.848 65.168 353.421 65.168V65.296C353.421 65.3814 353.506 65.4667 353.677 65.552C353.933 65.6374 354.146 65.68 354.317 65.68ZM348.557 95.632C349.581 95.632 350.562 95.3334 351.501 94.736L352.013 94.48L351.885 94.352L351.373 94.48C350.605 94.736 349.709 94.864 348.685 94.864C347.661 94.864 347.149 94.9067 347.149 94.992C347.149 95.0774 347.234 95.2054 347.405 95.376C347.661 95.5467 348.045 95.632 348.557 95.632ZM349.453 101.008C350.221 101.008 350.605 100.923 350.605 100.752L350.221 100.624C350.05 100.539 349.794 100.496 349.453 100.496C349.111 100.496 348.855 100.539 348.685 100.624L348.301 100.752C348.301 100.923 348.685 101.008 349.453 101.008ZM379.661 76.944V76.816C379.746 76.816 379.789 76.7307 379.789 76.56V76.432V76.304L379.533 76.688L379.661 76.944ZM351.117 102.928C350.434 102.928 349.709 102.8 348.941 102.544C348.173 102.373 346.85 101.648 344.973 100.368C343.181 99.088 341.431 97.68 339.725 96.144C338.018 94.6934 336.824 93.5414 336.141 92.688C334.69 90.384 333.965 87.5254 333.965 84.112C333.965 81.8934 334.562 78.4374 335.757 73.744C336.866 68.9654 339.682 63.0347 344.205 55.952C348.813 48.8694 354.359 42.896 360.845 38.032C363.661 35.8987 365.879 34.832 367.501 34.832C368.098 34.832 368.568 35.0027 368.909 35.344C369.336 35.6 369.634 35.8987 369.805 36.24C370.061 36.496 370.189 36.752 370.189 37.008C370.189 37.264 370.146 37.392 370.061 37.392C369.975 37.392 369.847 37.2214 369.677 36.88C369.335 36.0267 368.653 35.6 367.629 35.6C367.117 35.6 366.647 35.728 366.221 35.984C365.794 36.24 365.581 36.4107 365.581 36.496C365.581 36.5814 365.88 36.624 366.477 36.624C367.16 36.624 367.927 37.008 368.781 37.776C369.719 38.4587 370.573 38.8 371.341 38.8C372.194 38.8 372.749 38.9707 373.005 39.312C373.261 39.568 373.474 39.696 373.645 39.696C373.901 39.696 374.029 39.5254 374.029 39.184L373.901 37.904C373.986 37.904 374.114 38.032 374.285 38.288C374.711 38.8 374.925 39.4827 374.925 40.336C374.925 41.104 375.181 41.6587 375.693 42C376.205 42.5974 376.461 43.6214 376.461 45.072C376.461 46.5227 376.205 48.016 375.693 49.552C375.266 50.4907 375.053 51.1307 375.053 51.472H375.181C375.522 51.472 375.949 50.6187 376.461 48.912C376.973 46.6934 377.229 45.072 377.229 44.048C377.229 42.256 377.357 41.36 377.613 41.36C377.698 41.36 377.869 41.488 378.125 41.744C379.405 43.024 380.045 44.5174 380.045 46.224C380.045 48.4427 378.85 51.6 376.461 55.696C374.157 59.7067 370.104 63.9307 364.301 68.368C359.437 71.8667 355.512 73.616 352.525 73.616C351.672 73.616 351.031 73.6587 350.605 73.744C350.263 73.744 350.007 73.872 349.837 74.128C349.069 75.2374 348.386 76.944 347.789 79.248L347.149 81.552C346.296 85.136 345.869 88.1227 345.869 90.512C345.869 92.2187 346.039 93.1574 346.381 93.328C346.807 93.584 347.405 93.712 348.173 93.712C350.903 93.712 354.744 92.0907 359.693 88.848C361.826 87.4827 363.789 85.904 365.581 84.112C371.64 78.736 374.925 75.664 375.437 74.896C376.375 73.872 377.144 73.36 377.741 73.36C378.509 73.36 379.447 73.872 380.557 74.896C381.751 75.92 382.349 76.944 382.349 77.968C382.178 79.3334 380.727 81.4667 377.997 84.368C366.647 96.7414 357.687 102.928 351.117 102.928Z" fill="#215FF6"/>
<path d="M296.387 98.576C296.899 98.576 297.155 98.448 297.155 98.192V97.936C297.07 97.7654 296.899 97.5947 296.643 97.424C296.387 97.3387 296.089 97.296 295.747 97.296C295.491 97.296 295.321 97.3387 295.235 97.424C295.15 97.5094 295.107 97.5947 295.107 97.68C295.107 98.2774 295.534 98.576 296.387 98.576ZM328.771 71.952C328.857 71.952 328.899 71.9094 328.899 71.824C328.899 71.4827 328.131 70.3734 326.595 68.496C325.571 67.472 323.95 66.192 321.731 64.656C319.513 63.0347 317.465 61.712 315.587 60.688C313.795 59.5787 312.643 59.024 312.131 59.024L311.491 59.152L311.619 58.896C311.619 58.2134 310.894 57.4027 309.443 56.464C308.334 55.6107 307.566 55.184 307.139 55.184C306.969 55.184 306.883 55.312 306.883 55.568C306.883 56.1654 307.566 57.0187 308.931 58.128C310.297 59.152 312.601 60.688 315.843 62.736C318.489 64.1867 321.603 66.4054 325.187 69.392C327.235 71.0987 328.43 71.952 328.771 71.952ZM324.931 74C324.931 73.9147 324.761 73.7014 324.419 73.36V73.104L322.627 71.824C320.153 70.1174 317.507 68.4534 314.691 66.832C312.985 65.808 311.705 65.04 310.851 64.528C310.083 63.9307 309.614 63.632 309.443 63.632L309.699 64.016C309.955 64.272 310.723 64.8694 312.003 65.808C313.369 66.7467 314.905 67.728 316.611 68.752C318.318 69.776 319.811 70.7574 321.091 71.696C322.457 72.5494 323.31 73.104 323.651 73.36C324.334 73.7867 324.761 74 324.931 74ZM330.307 78.736C330.478 78.736 330.606 78.6507 330.691 78.48C330.691 78.224 330.521 77.968 330.179 77.712L329.795 77.2V77.328C329.795 77.4987 329.838 77.7974 329.923 78.224C330.009 78.5654 330.137 78.736 330.307 78.736ZM355.523 6.92804C355.865 6.58671 356.035 5.94671 356.035 5.00804C356.035 3.47204 355.139 2.49071 353.347 2.06404L351.811 1.55204C352.409 2.14938 352.921 2.74671 353.347 3.34404C353.859 3.94138 354.243 4.53871 354.499 5.13604C354.841 5.64804 355.011 6.07471 355.011 6.41604C355.011 6.67204 355.054 6.84271 355.139 6.92804H355.267H355.523ZM346.051 26.64C346.137 26.64 346.606 26.2134 347.459 25.36C350.617 22.2027 353.262 18.96 355.395 15.632C356.334 14.096 356.803 12.8587 356.803 11.92C356.803 11.7494 356.761 11.664 356.675 11.664C356.334 11.664 355.779 12.6027 355.011 14.48C354.243 16.3574 352.281 19.1307 349.123 22.8C347.075 25.2747 346.051 26.5547 346.051 26.64ZM339.907 32.272L342.083 30.608C343.449 29.2427 344.131 28.4747 344.131 28.304L344.003 28.176C343.918 28.176 343.278 28.7734 342.083 29.968C340.633 31.4187 339.907 32.1867 339.907 32.272ZM337.987 34.32C338.073 34.32 338.158 34.2347 338.243 34.064C338.414 33.8934 338.67 33.6374 339.011 33.296C339.353 32.8694 339.523 32.6134 339.523 32.528L339.395 32.4C339.31 32.4 339.097 32.5707 338.755 32.912C338.499 33.168 338.286 33.3814 338.115 33.552L337.859 33.936C337.859 34.192 337.902 34.32 337.987 34.32ZM298.691 100.368H298.051C296.515 100.368 295.491 100.027 294.979 99.344C294.553 98.6614 294.339 98.2347 294.339 98.064C294.339 97.8934 294.254 97.552 294.083 97.04C293.571 95.9307 293.145 95.12 292.803 94.608C291.95 92.816 291.523 91.7067 291.523 91.28C291.523 91.024 291.779 90.896 292.291 90.896C292.633 90.896 293.102 90.9387 293.699 91.024C294.297 91.1947 294.681 91.28 294.851 91.28H295.107C295.107 91.1094 294.937 90.8534 294.595 90.512C294.339 90.2561 294.211 90.0854 294.211 90C294.211 89.8294 294.382 89.7014 294.723 89.616H296.515C297.625 89.5307 299.587 89.1467 302.403 88.464C312.046 86.0747 318.873 83.3867 322.883 80.4C324.846 78.9494 325.827 77.84 325.827 77.072C325.827 76.7307 325.486 76.304 324.803 75.792C324.206 75.1947 321.646 73.4454 317.123 70.544C312.942 67.984 309.913 65.9361 308.035 64.4C306.158 62.864 304.878 61.3707 304.195 59.92C301.294 54.3734 299.587 50.7467 299.075 49.04C298.649 47.3334 298.435 45.6694 298.435 44.048C298.435 43.3654 298.521 42.64 298.691 41.872C298.862 41.104 299.331 39.824 300.099 38.032C303.769 30.0107 311.961 21.648 324.675 12.944C331.758 8.16537 338.115 4.75204 343.747 2.70404C346.819 1.59471 349.422 1.04004 351.555 1.04004C353.177 1.04004 354.414 1.38137 355.267 2.06404C356.121 2.74671 356.547 3.60004 356.547 4.62404V6.54404C356.547 7.31204 356.761 7.95204 357.187 8.46404C358.041 9.23204 358.467 10.8534 358.467 13.328C358.467 14.6934 358.254 16.016 357.827 17.296C356.035 21.4774 350.318 27.8347 340.675 36.368C338.457 38.416 336.494 40.2507 334.787 41.872C333.081 43.4934 331.886 44.816 331.203 45.84C330.521 44.304 330.179 43.3654 330.179 43.024C330.179 42.5974 330.393 42.0854 330.819 41.488C331.246 40.8907 331.971 39.9947 332.995 38.8C334.105 37.6054 334.702 36.9227 334.787 36.752C334.702 36.752 334.233 37.0934 333.379 37.776C331.673 39.4827 330.478 40.8054 329.795 41.744C329.113 42.6827 328.643 43.152 328.387 43.152C328.217 43.152 328.003 42.9814 327.747 42.64C327.577 42.2134 327.406 41.7867 327.235 41.36C327.065 40.848 326.979 40.464 326.979 40.208C326.979 39.952 326.937 39.7814 326.851 39.696C326.851 39.5254 326.809 39.44 326.723 39.44C326.723 39.3547 326.681 39.312 326.595 39.312L326.211 39.568C326.041 39.568 325.955 39.3974 325.955 39.056C325.955 38.6294 326.126 37.9894 326.467 37.136C327.577 35.6854 330.606 32.656 335.555 28.048C340.505 23.3547 344.217 19.6 346.691 16.784C348.483 14.8214 349.379 13.6267 349.379 13.2C349.379 13.1147 349.294 13.072 349.123 13.072C348.526 13.072 345.497 14.6507 340.035 17.808C336.622 19.856 332.142 23.1414 326.595 27.664C322.755 30.8214 319.641 33.6374 317.251 36.112C316.398 37.0507 315.673 37.776 315.075 38.288C313.71 39.7387 312.259 41.6587 310.723 44.048C309.187 46.4374 308.121 48.528 307.523 50.32C307.182 51.2587 307.011 51.9414 307.011 52.368C307.011 52.88 307.182 53.3494 307.523 53.776C308.462 54.7147 311.449 56.7627 316.483 59.92C325.102 65.4667 329.582 69.648 329.923 72.464C330.094 73.6587 330.563 74.8534 331.331 76.048C332.185 77.2427 332.825 78.608 333.251 80.144C333.507 81.0827 333.635 81.9787 333.635 82.832C333.635 89.232 325.017 94.5227 307.779 98.704C303.598 99.6427 300.569 100.197 298.691 100.368Z" fill="#215FF6"/>
<path d="M219.317 65.68C219.573 65.68 219.957 65.552 220.469 65.296C221.237 64.784 223.968 62.2667 228.661 57.744C231.221 55.184 233.141 52.8374 234.421 50.704C235.104 49.5094 235.445 48.784 235.445 48.528L235.317 48.4H235.061C234.89 48.4 234.805 48.272 234.805 48.016C234.805 47.4187 234.933 47.0347 235.189 46.864C235.701 46.352 236.128 45.4134 236.469 44.048L236.853 42.896C236.768 42.896 236.682 42.9814 236.597 43.152C236.512 43.3227 236.042 44.048 235.189 45.328C234.762 45.84 234.378 46.3947 234.037 46.992C232.757 48.9547 231.946 49.936 231.605 49.936C231.349 49.7654 231.221 49.552 231.221 49.296C231.221 48.784 231.392 48.528 231.733 48.528C232.16 48.528 232.373 48.2294 232.373 47.632C232.373 47.12 232.33 46.864 232.245 46.864C232.16 46.864 231.904 47.1627 231.477 47.76C230.709 48.6987 230.069 49.168 229.557 49.168C229.13 49.168 227.594 51.0027 224.949 54.672C222.389 58.3414 221.109 60.432 221.109 60.944C221.109 61.456 220.981 61.712 220.725 61.712C220.554 61.712 220.341 61.9254 220.085 62.352C219.402 63.2054 219.061 64.016 219.061 64.784C219.061 65.04 218.848 65.168 218.421 65.168V65.296C218.421 65.3814 218.506 65.4667 218.677 65.552C218.933 65.6374 219.146 65.68 219.317 65.68ZM213.557 95.632C214.581 95.632 215.562 95.3334 216.501 94.736L217.013 94.48L216.885 94.352L216.373 94.48C215.605 94.736 214.709 94.864 213.685 94.864C212.661 94.864 212.149 94.9067 212.149 94.992C212.149 95.0774 212.234 95.2054 212.405 95.376C212.661 95.5467 213.045 95.632 213.557 95.632ZM214.453 101.008C215.221 101.008 215.605 100.923 215.605 100.752L215.221 100.624C215.05 100.539 214.794 100.496 214.453 100.496C214.112 100.496 213.856 100.539 213.685 100.624L213.301 100.752C213.301 100.923 213.685 101.008 214.453 101.008ZM244.661 76.944V76.816C244.746 76.816 244.789 76.7307 244.789 76.56V76.432V76.304L244.533 76.688L244.661 76.944ZM216.117 102.928C215.434 102.928 214.709 102.8 213.941 102.544C213.173 102.373 211.85 101.648 209.973 100.368C208.181 99.088 206.432 97.68 204.725 96.144C203.018 94.6934 201.824 93.5414 201.141 92.688C199.69 90.384 198.965 87.5254 198.965 84.112C198.965 81.8934 199.562 78.4374 200.757 73.744C201.866 68.9654 204.682 63.0347 209.205 55.952C213.813 48.8694 219.36 42.896 225.845 38.032C228.661 35.8987 230.88 34.832 232.501 34.832C233.098 34.832 233.568 35.0027 233.909 35.344C234.336 35.6 234.634 35.8987 234.805 36.24C235.061 36.496 235.189 36.752 235.189 37.008C235.189 37.264 235.146 37.392 235.061 37.392C234.976 37.392 234.848 37.2214 234.677 36.88C234.336 36.0267 233.653 35.6 232.629 35.6C232.117 35.6 231.648 35.728 231.221 35.984C230.794 36.24 230.581 36.4107 230.581 36.496C230.581 36.5814 230.88 36.624 231.477 36.624C232.16 36.624 232.928 37.008 233.781 37.776C234.72 38.4587 235.573 38.8 236.341 38.8C237.194 38.8 237.749 38.9707 238.005 39.312C238.261 39.568 238.474 39.696 238.645 39.696C238.901 39.696 239.029 39.5254 239.029 39.184L238.901 37.904C238.986 37.904 239.114 38.032 239.285 38.288C239.712 38.8 239.925 39.4827 239.925 40.336C239.925 41.104 240.181 41.6587 240.693 42C241.205 42.5974 241.461 43.6214 241.461 45.072C241.461 46.5227 241.205 48.016 240.693 49.552C240.266 50.4907 240.053 51.1307 240.053 51.472H240.181C240.522 51.472 240.949 50.6187 241.461 48.912C241.973 46.6934 242.229 45.072 242.229 44.048C242.229 42.256 242.357 41.36 242.613 41.36C242.698 41.36 242.869 41.488 243.125 41.744C244.405 43.024 245.045 44.5174 245.045 46.224C245.045 48.4427 243.85 51.6 241.461 55.696C239.157 59.7067 235.104 63.9307 229.301 68.368C224.437 71.8667 220.512 73.616 217.525 73.616C216.672 73.616 216.032 73.6587 215.605 73.744C215.264 73.744 215.008 73.872 214.837 74.128C214.069 75.2374 213.386 76.944 212.789 79.248L212.149 81.552C211.296 85.136 210.869 88.1227 210.869 90.512C210.869 92.2187 211.04 93.1574 211.381 93.328C211.808 93.584 212.405 93.712 213.173 93.712C215.904 93.712 219.744 92.0907 224.693 88.848C226.826 87.4827 228.789 85.904 230.581 84.112C236.64 78.736 239.925 75.664 240.437 74.896C241.376 73.872 242.144 73.36 242.741 73.36C243.509 73.36 244.448 73.872 245.557 74.896C246.752 75.92 247.349 76.944 247.349 77.968C247.178 79.3334 245.728 81.4667 242.997 84.368C231.648 96.7414 222.688 102.928 216.117 102.928Z" fill="#215FF6"/>
<path d="M205.908 45.3278C205.993 45.3278 206.036 45.2424 206.036 45.0718C206.036 44.3891 205.95 44.0478 205.78 44.0478C205.694 44.0478 205.609 44.2611 205.524 44.6878C205.524 45.1144 205.609 45.3278 205.78 45.3278H205.908ZM205.14 49.1678C205.396 49.0824 205.524 48.6558 205.524 47.8878C205.524 46.7784 205.438 46.2238 205.268 46.2238C205.182 46.2238 205.097 46.6931 205.012 47.6318L204.884 48.7838C204.884 49.0398 204.926 49.1678 205.012 49.1678H205.14ZM204.372 52.1118L204.628 51.8558C204.884 51.5998 205.012 51.2584 205.012 50.8318C204.926 50.5758 204.841 50.4478 204.756 50.4478C204.67 50.4478 204.585 50.4904 204.5 50.5758C204.5 50.6611 204.457 50.8744 204.372 51.2158C204.286 51.4718 204.244 51.6851 204.244 51.8558C204.244 52.0264 204.286 52.1118 204.372 52.1118ZM198.228 34.5758C198.569 34.5758 198.74 34.4904 198.74 34.3198C198.74 34.0638 198.569 33.7224 198.228 33.2958C197.886 32.7838 197.332 32.5278 196.564 32.5278C195.54 32.5278 193.961 33.0824 191.828 34.1918L193.62 33.6798C194.132 33.6798 194.686 33.7651 195.284 33.9358C195.966 34.0211 196.564 34.1491 197.076 34.3198C197.588 34.4904 197.972 34.5758 198.228 34.5758ZM155.604 85.9038C155.774 85.9038 156.372 85.4771 157.396 84.6238C159.7 83.2584 163.113 80.3571 167.636 75.9198C173.353 70.3731 178.516 64.5278 183.124 58.3838L192.596 45.7118C193.961 43.9198 194.644 42.7251 194.644 42.1278L194.516 41.9998L194.132 42.1278C190.548 44.3464 186.025 48.1864 180.564 53.6478C172.884 61.3278 166.057 69.5198 160.084 78.2238C157.012 82.6611 155.476 85.1784 155.476 85.7758L155.604 85.9038ZM152.404 96.2718V96.1438C152.404 96.0584 152.318 95.9304 152.148 95.7598C151.977 95.5891 151.636 95.5038 151.124 95.5038L150.74 95.6318C150.313 95.8024 150.1 95.9304 150.1 96.0158C150.1 96.1864 150.868 96.2718 152.404 96.2718ZM189.652 96.1438C189.737 96.1438 189.95 95.8024 190.292 95.1198C190.718 94.5224 190.932 93.9678 190.932 93.4558V93.3278C190.846 93.3278 190.59 93.7118 190.164 94.4798C189.737 95.2478 189.524 95.7598 189.524 96.0158C189.524 96.1011 189.566 96.1438 189.652 96.1438ZM185.044 105.616C185.129 105.616 185.342 105.317 185.684 104.72C186.025 104.122 186.409 103.354 186.836 102.416C187.262 101.562 187.604 100.837 187.86 100.24C188.116 99.7278 188.244 99.3864 188.244 99.2158C188.158 99.2158 187.945 99.4718 187.604 99.9838C187.262 100.581 186.878 101.349 186.452 102.288C186.025 103.226 185.684 103.952 185.428 104.464C185.172 105.061 185.044 105.445 185.044 105.616ZM159.828 128.144C161.278 127.205 162.558 126.309 163.668 125.456C169.214 120.933 174.804 113.21 180.436 102.288C182.228 99.3011 183.124 97.5091 183.124 96.9118C183.124 96.7411 183.038 96.6558 182.868 96.6558C182.356 96.6558 180.265 98.7891 176.596 103.056C168.318 112.357 162.942 120.165 160.468 126.48L159.828 128.144ZM160.596 135.696L160.724 135.568C160.724 135.482 160.553 135.354 160.212 135.184C159.956 135.013 159.614 134.885 159.188 134.8C158.761 134.714 158.42 134.672 158.164 134.672C157.396 134.757 157.012 134.928 157.012 135.184L157.14 135.44C157.31 135.61 158.462 135.696 160.596 135.696ZM159.188 136.208H158.036C157.438 136.208 156.585 135.653 155.476 134.544C155.049 134.202 154.537 133.818 153.94 133.392C153.428 132.965 152.958 132.538 152.532 132.112C151.593 131.514 150.996 130.874 150.74 130.192C150.484 129.594 150.356 128.826 150.356 127.888C150.612 122.938 154.196 115.728 161.108 106.256C163.838 102.672 167.764 98.3198 172.884 93.1998C178.004 88.0798 182.356 84.1544 185.94 81.4238L190.932 77.7118L193.492 69.6478C196.478 60.9438 197.972 55.9944 197.972 54.7998C197.972 54.7144 197.929 54.6718 197.844 54.6718C197.758 54.6718 197.161 55.3971 196.052 56.8478C195.028 58.2131 193.79 59.8344 192.34 61.7118C178.26 79.6318 166.526 91.0238 157.14 95.8878C154.921 97.1678 153.214 97.8078 152.02 97.8078C151.849 97.8078 151.465 97.7651 150.868 97.6798C150.185 97.5944 148.734 96.5278 146.516 94.4798L142.676 91.0238L142.804 88.0798C143.401 83.0451 147.113 76.0904 153.94 67.2158C160.766 58.3411 168.788 49.9784 178.004 42.1278C183.892 37.1784 188.926 33.9784 193.108 32.5278C194.558 32.0158 195.71 31.7598 196.564 31.7598C198.356 31.7598 199.252 32.6984 199.252 34.5758C199.252 35.2584 199.508 35.5998 200.02 35.5998L202.068 35.3438C202.836 35.3438 203.305 35.6851 203.476 36.3678C203.646 36.9651 203.988 37.5198 204.5 38.0318C205.012 38.5438 205.438 38.7998 205.78 38.7998H205.908C206.164 38.7998 206.761 39.3118 207.7 40.3358C208.638 41.3598 209.108 42.2984 209.108 43.1518C209.108 50.4051 206.377 61.9251 200.916 77.7118H202.196C202.622 77.7118 203.092 77.8824 203.604 78.2238C204.201 78.5651 204.5 78.9064 204.5 79.2478C204.5 79.4184 204.414 79.5464 204.244 79.6318C204.073 79.6318 203.732 79.7598 203.22 80.0158C201.428 81.0398 200.233 81.9358 199.636 82.7038C199.038 83.3864 198.1 85.3064 196.82 88.4638C189.652 105.786 182.142 118.672 174.292 127.12C172.073 129.594 170.153 131.429 168.532 132.624C166.996 133.818 165.332 134.714 163.54 135.312C161.748 135.909 160.297 136.208 159.188 136.208Z" fill="#215FF6"/>
<path d="M141.825 49.424C142.167 49.0826 142.508 48.0586 142.849 46.352C143.276 44.6453 143.489 43.1946 143.489 42C143.489 40.8906 143.276 40.336 142.849 40.336C142.423 40.336 142.209 41.0613 142.209 42.512V43.28C142.209 44.048 142.167 44.9013 142.081 45.84C141.996 46.7786 141.911 47.504 141.825 48.016C141.74 48.528 141.697 48.912 141.697 49.168C141.697 49.3386 141.74 49.424 141.825 49.424ZM139.649 81.168C139.735 81.0826 139.777 80.9546 139.777 80.784C139.777 80.6133 139.735 80.4 139.649 80.144L139.521 79.888C139.436 80.0586 139.393 80.3573 139.393 80.784C139.393 81.04 139.436 81.168 139.521 81.168H139.649ZM139.137 83.216L139.265 82.704L139.009 81.936C138.924 81.936 138.881 82.1493 138.881 82.576C138.881 83.0026 138.924 83.216 139.009 83.216H139.137ZM138.497 85.648C138.668 85.648 138.753 85.4346 138.753 85.008C138.753 84.4106 138.668 84.112 138.497 84.112C138.412 84.112 138.369 84.368 138.369 84.88C138.369 85.392 138.412 85.648 138.497 85.648ZM108.801 86.416C109.057 86.416 109.911 85.8613 111.361 84.752C112.897 83.5573 114.689 81.9786 116.737 80.016C121.772 74.9813 127.148 68.752 132.865 61.328C133.036 61.1573 133.207 60.9013 133.377 60.56L135.169 58.384C138.156 54.6293 139.649 52.2826 139.649 51.344C139.649 50.9173 139.393 50.704 138.881 50.704H138.625C138.199 50.704 137.985 50.32 137.985 49.552C137.985 49.04 138.113 48.272 138.369 47.248L138.497 46.224C138.497 45.456 138.412 45.072 138.241 45.072C137.9 44.7306 137.729 44.2613 137.729 43.664C137.729 43.408 137.644 43.28 137.473 43.28C137.132 43.3653 136.023 44.3466 134.145 46.224C125.185 55.44 117.591 66.6613 111.361 79.888C109.569 83.6426 108.673 85.776 108.673 86.288C108.673 86.3733 108.716 86.416 108.801 86.416ZM107.265 94.736C107.521 94.736 107.905 94.6933 108.417 94.608C108.929 94.608 109.399 94.5226 109.825 94.352C110.252 94.1813 110.465 94.0533 110.465 93.968C110.465 93.8826 110.081 93.7973 109.313 93.712H109.185C108.588 93.712 108.076 93.7973 107.649 93.968C107.137 94.1386 106.881 94.3093 106.881 94.48C106.881 94.5653 107.009 94.6506 107.265 94.736ZM139.137 38.16C139.223 38.16 139.265 37.9893 139.265 37.648C139.265 36.368 138.583 35.728 137.217 35.728C136.108 35.728 134.828 36.1546 133.377 37.008C132.524 37.52 132.097 37.8186 132.097 37.904C132.183 37.904 132.311 37.8613 132.481 37.776C132.737 37.6906 133.292 37.6053 134.145 37.52L135.553 37.264C137.26 37.264 138.241 37.4346 138.497 37.776C138.839 38.032 139.052 38.16 139.137 38.16ZM136.449 96.656L132.353 94.48C132.439 93.1146 132.481 91.792 132.481 90.512C132.481 89.3173 132.652 87.696 132.993 85.648C133.335 83.5146 133.719 81.4666 134.145 79.504C134.572 77.456 134.913 75.8346 135.169 74.64C135.425 73.36 135.553 72.592 135.553 72.336V72.208C135.383 72.208 134.273 73.4026 132.225 75.792C127.447 81.7653 123.009 86.3306 118.913 89.488C117.719 90.3413 116.396 91.1946 114.945 92.048C111.361 94.1813 109.143 95.248 108.289 95.248C108.119 95.248 107.564 95.0773 106.625 94.736C105.687 94.3946 104.705 93.9253 103.681 93.328C101.463 92.2186 100.055 91.152 99.4573 90.128C99.116 89.616 98.9453 88.9333 98.9453 88.08C98.9453 87.3973 99.0733 86.5866 99.3293 85.648C100.695 79.9306 103.852 72.9333 108.801 64.656C113.751 56.3786 119.084 49.2106 124.801 43.152C130.092 37.6906 134.145 34.96 136.961 34.96C138.071 34.96 138.839 35.472 139.265 36.496C139.777 37.4346 140.204 37.904 140.545 37.904H140.929C141.356 37.904 141.996 38.1173 142.849 38.544C143.788 38.8853 144.556 39.44 145.153 40.208C145.751 40.8906 146.049 41.5733 146.049 42.256C146.049 42.8533 145.836 44.5173 145.409 47.248L145.153 48.528C145.153 48.8693 145.367 49.296 145.793 49.808C146.305 50.2346 146.903 50.448 147.585 50.448C147.927 50.448 148.183 50.3626 148.353 50.192C148.609 49.936 148.865 49.808 149.121 49.808C149.292 49.808 149.804 50.0213 150.657 50.448C151.596 51.216 152.065 51.728 152.065 51.984C152.065 53.008 150.828 57.0186 148.353 64.016C146.22 69.9893 144.3 76.4746 142.593 83.472C141.143 89.104 140.417 92.9013 140.417 94.864C140.417 95.7173 140.247 96.144 139.905 96.144L138.881 95.888H138.113C137.943 95.888 137.857 94.992 137.857 93.2V91.024L138.113 87.44C138.113 87.0986 138.071 86.928 137.985 86.928C137.815 86.928 137.303 90.1706 136.449 96.656Z" fill="#215FF6"/>
<path d="M57.8204 34.5764C58.2471 34.5764 58.4604 34.3204 58.4604 33.8084C58.4604 33.6377 58.4177 33.5524 58.3324 33.5524C58.3324 33.4671 58.2897 33.4244 58.2044 33.4244L57.9484 33.5524C57.4364 33.8937 57.1804 34.1497 57.1804 34.3204C57.1804 34.4911 57.3084 34.5764 57.5644 34.5764H57.8204ZM86.2364 29.3284C86.3217 29.2431 86.3644 29.0297 86.3644 28.6884C86.3644 28.1764 86.2791 27.9204 86.1084 27.9204C86.0231 27.9204 85.8951 28.0057 85.7244 28.1764C85.6391 28.2617 85.5964 28.3471 85.5964 28.4324C85.5964 28.5177 85.5964 28.6031 85.5964 28.6884V28.8164C85.8524 29.1577 86.0231 29.3284 86.1084 29.3284H86.2364ZM95.1964 60.1764L97.2444 59.9204C99.0364 59.3231 99.9324 58.8538 99.9324 58.5124C99.9324 58.1711 99.7617 58.0004 99.4204 58.0004C99.3351 58.0004 99.2071 58.0431 99.0364 58.1284C98.8657 58.2137 98.6097 58.2991 98.2684 58.3844C98.0124 58.4698 97.7991 58.5124 97.6284 58.5124C97.4577 58.5124 97.1591 58.5977 96.7324 58.7684C96.3911 58.9391 96.0071 59.1951 95.5804 59.5364C95.2391 59.7924 95.0684 59.9631 95.0684 60.0484C95.0684 60.1337 95.1111 60.1764 95.1964 60.1764ZM102.492 81.1684C102.748 81.1684 102.876 80.9977 102.876 80.6564C102.876 80.4857 102.791 80.2298 102.62 79.8884C102.535 79.4618 102.492 78.3951 102.492 76.6884C102.492 75.4938 102.407 74.8964 102.236 74.8964C102.151 74.8964 102.023 74.9818 101.852 75.1524C101.767 75.3231 101.724 75.7497 101.724 76.4324L101.852 78.2244C101.852 80.1871 102.066 81.1684 102.492 81.1684ZM102.236 71.8244C102.407 71.7391 102.492 71.5684 102.492 71.3124C102.492 70.8004 102.364 70.5444 102.108 70.5444C102.023 70.5444 101.98 70.7151 101.98 71.0564C101.98 71.3977 102.023 71.6111 102.108 71.6964V71.8244H102.236ZM39.5164 92.1764L39.3884 92.0484C39.2177 91.9631 39.0471 91.8778 38.8764 91.7924C38.7057 91.7071 38.4924 91.5791 38.2364 91.4084C37.8951 91.3231 37.6391 91.1524 37.4684 90.8964C37.2124 90.7258 37.0844 90.5551 37.0844 90.3844C37.0844 90.2991 37.0417 90.2564 36.9564 90.2564L36.3164 90.3844V90.2564C36.3164 90.1711 36.4871 89.9151 36.8284 89.4884C37.0844 89.0617 37.2124 88.7204 37.2124 88.4644C37.2124 88.1231 37.1271 87.8244 36.9564 87.5684C36.7857 87.2271 36.7004 86.5017 36.7004 85.3924L36.8284 81.0404C37.4257 74.0431 39.9431 65.2537 44.3804 54.6724C47.1964 47.8457 50.1404 42.0431 53.2124 37.2644C54.0657 35.8137 54.8337 34.7471 55.5164 34.0644C56.2844 32.9551 56.9671 32.4004 57.5644 32.4004C57.9911 32.4004 58.4604 32.6991 58.9724 33.2964L60.2524 34.3204C60.2524 34.4911 60.2097 34.6191 60.1244 34.7044L59.6124 35.2164C59.6124 35.3017 59.7831 35.3444 60.1244 35.3444C61.9164 35.3444 64.3057 36.2831 67.2924 38.1604C65.8417 41.1471 64.8177 42.7684 64.2204 43.0244L64.0924 43.2804C64.0924 43.4511 64.0924 43.5364 64.0924 43.5364L64.2204 43.6644C64.2204 43.7497 64.1777 43.7924 64.0924 43.7924C63.1537 44.3044 62.4284 45.5417 61.9164 47.5044C61.9164 47.7604 61.7884 47.9311 61.5324 48.0164L61.2764 48.1444L61.1484 48.2724L61.4044 48.7844C61.4044 48.8697 61.3617 48.9551 61.2764 49.0404C61.2764 49.0404 61.0631 49.0831 60.6364 49.1684L60.7644 49.5524C60.7644 49.8084 60.5937 50.1071 60.2524 50.4484C59.9111 50.7897 59.7404 51.2164 59.7404 51.7284C59.7404 52.1551 59.6551 52.3684 59.4844 52.3684C59.3991 52.3684 58.8871 53.1791 57.9484 54.8004C57.0951 56.4218 56.1564 58.2991 55.1324 60.4324C52.4871 65.5524 51.1644 68.3257 51.1644 68.7524C51.3351 68.7524 53.1271 66.5337 56.5404 62.0964C58.5031 59.3657 60.5084 56.7204 62.5564 54.1604L63.9644 52.2404C66.3537 49.2537 68.9137 46.3097 71.6444 43.4084C73.8631 41.1897 75.9537 38.7577 77.9164 36.1124C79.8791 33.3817 81.9271 30.9924 84.0604 28.9444L84.4444 28.6884C85.5537 27.5791 86.2791 27.0244 86.6204 27.0244C86.7057 27.0244 86.8337 27.1097 87.0044 27.2804C87.1751 27.3657 87.2604 27.8777 87.2604 28.8164C87.3457 29.6697 87.5164 30.2671 87.7724 30.6084C88.1137 30.9497 88.4551 31.1204 88.7964 31.1204C88.9671 31.1204 89.1804 31.0351 89.4364 30.8644C89.7777 30.6937 90.0764 30.6084 90.3324 30.6084C90.5884 30.6084 90.9297 30.7364 91.3564 30.9924C91.8684 31.1631 92.3804 31.5471 92.8924 32.1444C93.4044 32.7417 93.6604 33.3391 93.6604 33.9364C93.6604 35.5577 91.5697 41.7017 87.3884 52.3684C81.5004 67.3017 78.5564 75.6218 78.5564 77.3284V77.4564L78.8124 77.5844C78.9831 77.5844 79.1111 77.5418 79.1964 77.4564C79.1964 76.7738 79.8364 75.9631 81.1164 75.0244C81.9697 74.3418 82.3964 73.9151 82.3964 73.7444H82.1404C82.1404 73.4884 83.1217 72.2511 85.0844 70.0324C86.5351 68.4964 88.0711 66.7044 89.6924 64.6564C92.5937 61.1577 94.4284 59.1524 95.1964 58.6404C95.9644 58.1284 97.0737 57.8298 98.5244 57.7444C99.2071 57.7444 99.6764 57.8724 99.9324 58.1284C100.188 58.2991 100.359 58.7257 100.444 59.4084C100.53 60.0057 100.658 60.3897 100.828 60.5604C101.084 60.6457 101.596 60.6884 102.364 60.6884C103.644 60.6884 104.754 61.0297 105.692 61.7124C106.29 62.0537 106.674 62.4804 106.844 62.9924C107.015 63.4191 107.1 63.9311 107.1 64.5284C107.1 65.8084 106.844 67.6431 106.332 70.0324C105.82 73.3604 105.564 76.0484 105.564 78.0964C105.564 79.2911 105.564 80.2298 105.564 80.9124C105.65 81.5098 105.778 81.9791 105.948 82.3204C106.119 82.5764 106.375 82.8324 106.716 83.0884C107.143 83.2591 107.356 83.3871 107.356 83.4724C107.356 83.5578 107.271 83.6431 107.1 83.7284C107.015 83.7284 106.247 83.7284 104.796 83.7284C101.81 83.7284 99.7191 83.0031 98.5244 81.5524C97.4151 80.1017 96.8604 77.5844 96.8604 74.0004L96.7324 70.0324L91.3564 75.5364C88.7964 78.0964 85.7244 81.4244 82.1404 85.5204C80.5191 87.3977 79.2817 88.7631 78.4284 89.6164C77.2337 90.8964 76.2524 91.5364 75.4844 91.5364L73.9484 91.2804C73.3511 91.2804 72.9244 91.3658 72.6684 91.5364C72.4124 91.7924 72.1564 91.9204 71.9004 91.9204C71.2177 91.9204 70.3217 91.6644 69.2124 91.1524C67.7617 90.5551 66.9511 90.0431 66.7804 89.6164C66.6951 89.1044 66.6524 88.4644 66.6524 87.6964C66.6524 82.8324 69.6817 71.9951 75.7404 55.1844L76.1244 54.1604C77.6604 50.0644 78.4284 47.7177 78.4284 47.1204L76.1244 49.8084C69.1271 58.8537 64.1777 65.3391 61.2764 69.2644C53.6817 79.5044 48.7324 86.0324 46.4284 88.8484C44.7217 90.8964 43.5697 91.9204 42.9724 91.9204C42.7164 91.9204 42.4604 91.7924 42.2044 91.5364C42.0337 91.2804 41.8204 91.1524 41.5644 91.1524L39.5164 92.1764Z" fill="#215FF6"/>
<path d="M6.58631 103.184C6.24498 103.184 6.07431 103.056 6.07431 102.8C6.07431 102.63 6.15965 102.416 6.33031 102.16C6.50098 101.904 6.75698 101.691 7.09831 101.52C7.35431 101.435 7.48231 101.35 7.48231 101.264C7.48231 101.179 7.05565 101.136 6.20231 101.136L5.56231 101.264C5.22098 101.264 4.79431 101.136 4.28231 100.88C3.77031 100.71 2.53298 99.7709 0.570312 98.0643L2.10631 96.6562C3.72765 95.1202 7.22631 93.2856 12.6023 91.1523C14.4796 90.4696 15.5036 90.0003 15.6743 89.7443C15.845 89.4029 15.9303 89.0189 15.9303 88.5923C15.9303 86.4589 17.253 80.9549 19.8983 72.0803C25.8716 51.6856 32.101 35.0882 38.5863 22.2882C40.7196 17.9362 41.7863 15.5042 41.7863 14.9922C41.7863 14.9069 41.7436 14.8643 41.6583 14.8643L41.4023 14.9922C41.1463 15.1629 40.7623 15.2909 40.2503 15.3763C39.8236 15.4616 39.4396 15.5469 39.0983 15.6322C38.3303 15.8029 37.9463 16.0162 37.9463 16.2722V16.4002C37.9463 16.5709 37.5196 16.7416 36.6663 16.9122C35.3863 17.1682 33.8503 17.2962 32.0583 17.2962C31.8876 17.2962 31.7596 17.2536 31.6743 17.1683V17.0402L32.1863 16.1442C32.613 15.8029 32.8263 15.5469 32.8263 15.3763C32.8263 15.2909 32.485 15.2482 31.8023 15.2482C31.1196 15.2482 30.5223 14.8216 30.0103 13.9682C29.3276 13.2856 28.8156 12.5176 28.4743 11.6642C28.3036 11.4082 28.2183 11.1096 28.2183 10.7682C28.2183 10.4269 29.157 9.87225 31.0343 9.10425C31.973 8.59225 33.0823 8.08025 34.3623 7.56824C37.6903 6.11758 43.237 4.66692 51.0023 3.21625C60.8157 1.50958 67.7703 0.65625 71.8663 0.65625C73.317 0.65625 74.341 0.741582 74.9383 0.912247L75.8343 1.29625C75.8343 1.38158 75.5783 1.42425 75.0663 1.42425H71.6103L69.0503 1.55225C67.941 1.63758 67.3863 1.72291 67.3863 1.80825C67.3863 1.89358 68.197 1.97891 69.8183 2.06425C71.525 2.14958 72.8476 2.40558 73.7863 2.83224C74.725 3.17358 75.5357 3.77091 76.2183 4.62424C77.157 5.56291 77.7543 6.11758 78.0103 6.28825C78.7783 7.05625 79.1623 7.52558 79.1623 7.69625C79.1623 7.86692 78.565 8.08025 77.3703 8.33625C76.1757 8.50691 74.6396 8.67758 72.7623 8.84825C70.885 9.01892 68.4103 9.31758 65.3383 9.74425C58.1703 10.9389 53.3916 11.8349 51.0023 12.4323C50.4903 12.6029 50.2343 12.8589 50.2343 13.2002C50.2343 13.4563 50.405 13.5843 50.7463 13.5843C51.173 13.5843 51.5996 13.8403 52.0263 14.3522C52.453 14.8642 52.837 15.4189 53.1783 16.0163C53.605 16.6136 53.8183 17.0829 53.8183 17.4242C53.8183 17.6803 53.3916 18.8323 52.5383 20.8802C50.5756 25.9149 48.5703 30.6082 46.5223 34.9603L45.3703 37.3923C43.9196 40.6349 42.9383 42.9816 42.4263 44.4323C41.9143 45.8829 41.4877 46.6082 41.1463 46.6082H41.0183L41.1463 47.1203C41.1463 47.2056 41.1036 47.3762 41.0183 47.6322C40.933 47.8882 40.805 48.1869 40.6343 48.5283C40.4636 48.7843 40.293 49.0402 40.1223 49.2962C40.037 49.4669 39.9943 49.5949 39.9943 49.6802C40.0797 49.6802 40.1223 49.7229 40.1223 49.8083C40.1223 50.1496 39.8236 50.7896 39.2263 51.7282C38.885 52.1549 38.629 52.5816 38.4583 53.0082V53.5202C38.5436 53.5202 38.5863 53.5629 38.5863 53.6482L37.9463 54.8003C36.7516 57.1896 35.3436 60.8163 33.7223 65.6803L32.9543 67.2163C32.6983 67.8136 32.1436 69.4349 31.2903 72.0803L27.0663 85.6483L26.9383 86.8003C27.0236 86.8856 27.1516 86.9283 27.3223 86.9283C27.493 86.9283 27.749 86.8856 28.0903 86.8003C28.4316 86.6296 29.1143 86.5016 30.1383 86.4163C31.9303 86.1603 33.0396 86.0322 33.4663 86.0322C33.7223 86.0322 33.8503 86.0749 33.8503 86.1603C33.8503 86.2456 33.0396 86.4589 31.4183 86.8003C31.1623 86.8003 30.949 86.8429 30.7783 86.9283C27.7063 87.6963 26.1703 88.2083 26.1703 88.4642L27.8343 88.3363C28.773 88.1656 31.1196 87.9949 34.8743 87.8242C36.325 87.6536 37.4343 87.5683 38.2023 87.5683C39.653 87.5683 40.549 87.8242 40.8903 88.3363C41.2316 88.8483 41.8716 89.1042 42.8103 89.1042C43.8343 89.1042 44.5596 89.4456 44.9863 90.1283L45.2423 91.0243C45.157 91.1096 44.6876 91.1523 43.8343 91.1523C43.0663 91.1523 41.2316 91.4936 38.3303 92.1763C30.6503 94.1389 26.213 95.5469 25.0183 96.4003C24.5916 96.8269 24.037 97.0403 23.3543 97.0403C22.757 97.0403 22.3303 97.2109 22.0743 97.5523C21.9036 97.8936 21.733 98.1069 21.5623 98.1923H20.9223C20.1543 98.1923 15.9303 99.7283 8.25031 102.8C7.56765 103.056 7.01298 103.184 6.58631 103.184Z" fill="#215FF6"/>
</svg>
