<svg width="650" height="105" viewBox="0 0 650 105" fill="none" xmlns="http://www.w3.org/2000/svg">
<path d="M23.5284 37.528H21.8964C3.46436 37.528 0.440359 25.432 1.59236 18.232L4.28036 1.288H15.2244L12.6324 17.656C11.8644 22.504 13.4964 28.264 22.9044 28.264C31.8324 28.264 34.3764 22.456 35.0964 17.944L37.7364 1.288H48.6804L45.9444 18.52C44.7444 26.104 40.8084 37.528 23.5284 37.528ZM53.3217 1.288H64.2177L59.9457 28.12H83.8497L82.4577 37H47.6577L53.3217 1.288ZM89.5006 37L93.8206 9.736H79.0846L80.3806 1.288H120.941L119.597 9.736H104.861L100.541 37H89.5006ZM132.926 16.408H149.534C153.134 16.408 154.526 14.44 154.526 12.52C154.526 10.696 153.47 9.4 150.542 9.4H134.078L132.926 16.408ZM131.726 24.328L129.71 37H118.814L124.478 1.288H152.798C163.262 1.288 166.238 5.272 166.238 9.928C166.238 15.448 161.534 17.944 158.366 18.856C161.63 19.864 164.462 22.12 163.742 26.728L162.782 32.728C162.398 35.272 162.686 36.184 162.83 36.76L162.782 37H151.694C151.502 36.616 151.358 36.088 151.598 34.6L152.222 30.664C152.894 26.44 151.31 24.328 145.79 24.328H131.726ZM196.765 22.408L191.869 9.016L183.565 22.408H196.765ZM202.141 37L199.741 30.472H178.573L174.541 37H163.261L185.821 1.288H199.885L213.469 37H202.141ZM252.587 37H240.491L231.179 1.288H242.699L248.603 25.864L259.595 1.288H271.163L275.963 25.144L287.963 1.288H298.955L279.899 37H268.859L263.675 13.048L252.587 37ZM311.53 1.288L305.866 37H294.97L300.634 1.288H311.53ZM310.908 37L316.572 1.288H338.124C356.604 1.288 361.644 8.824 361.644 16.6C361.644 18.184 361.5 19.672 361.26 21.064C360.06 27.976 354.972 37.048 335.388 37H310.908ZM326.076 9.736L323.1 28.408H334.476C346.668 28.408 349.164 23.512 349.884 19.816C350.028 19.096 350.124 18.28 350.124 17.656C350.124 14.008 348.156 9.736 337.452 9.736H326.076ZM367.806 1.288H404.382L403.086 9.4H377.262L376.446 14.68H401.694L400.398 22.84H375.15L374.19 28.696H400.446L399.15 37H362.142L367.806 1.288ZM405.269 18.616H420.293L418.949 26.872H403.925L405.269 18.616ZM449.28 22.408L444.384 9.016L436.08 22.408H449.28ZM454.656 37L452.256 30.472H431.088L427.056 37H415.776L438.336 1.288H452.4L465.984 37H454.656ZM472.994 1.288H485.138L503.378 24.232L506.978 1.288H517.73L512.066 37H501.362L481.874 12.904L478.082 37H467.33L472.994 1.288ZM540.919 37.624H539.959C522.967 37.624 518.263 28.36 518.263 21.112C518.263 19.96 518.311 18.952 518.503 17.656C519.511 10.696 523.975 0.663999 543.943 0.663999H545.431C564.919 0.663999 567.847 9.4 567.559 14.248H556.039C555.895 13.384 555.175 9.16 544.423 9.16C533.911 9.16 530.551 13.816 529.927 18.376C529.831 19.096 529.783 19.576 529.783 20.248C529.783 24.904 533.047 28.936 541.831 28.936C551.767 28.936 555.511 25 555.799 23.752H542.071L543.127 16.984H567.559L564.391 37H557.863C557.911 35.656 557.815 32.872 557.431 31.336C555.847 33.208 551.047 37.624 540.919 37.624ZM574.759 1.288H585.655L581.383 28.12H605.287L603.895 37H569.095L574.759 1.288ZM613.15 1.288H649.726L648.43 9.4H622.606L621.79 14.68H647.038L645.742 22.84H620.494L619.534 28.696H645.79L644.494 37H607.486L613.15 1.288ZM56.4937 104L62.1577 68.288H83.7097C102.19 68.288 107.23 75.824 107.23 83.6C107.23 85.184 107.086 86.672 106.846 88.064C105.646 94.976 100.558 104.048 80.9737 104H56.4937ZM71.6617 76.736L68.6857 95.408H80.0617C92.2537 95.408 94.7497 90.512 95.4697 86.816C95.6137 86.096 95.7097 85.28 95.7097 84.656C95.7097 81.008 93.7417 76.736 83.0377 76.736H71.6617ZM124.288 68.288L118.624 104H107.728L113.392 68.288H124.288ZM147.474 104.624H146.514C129.522 104.624 124.818 95.36 124.818 88.112C124.818 86.96 124.866 85.952 125.058 84.656C126.066 77.696 130.53 67.664 150.498 67.664H151.986C171.474 67.664 174.402 76.4 174.114 81.248H162.594C162.45 80.384 161.73 76.16 150.978 76.16C140.466 76.16 137.106 80.816 136.482 85.376C136.386 86.096 136.338 86.576 136.338 87.248C136.338 91.904 139.602 95.936 148.386 95.936C158.322 95.936 162.066 92 162.354 90.752H148.626L149.682 83.984H174.114L170.946 104H164.418C164.466 102.656 164.37 99.872 163.986 98.336C162.402 100.208 157.602 104.624 147.474 104.624ZM192.21 68.288L186.546 104H175.65L181.314 68.288H192.21ZM204.883 104L209.203 76.736H194.467L195.763 68.288H236.323L234.979 76.736H220.243L215.923 104H204.883ZM258.804 89.408L253.908 76.016L245.604 89.408H258.804ZM264.18 104L261.78 97.472H240.612L236.58 104H225.3L247.86 68.288H261.924L275.508 104H264.18ZM282.517 68.288H293.413L289.141 95.12H313.045L311.653 104H276.853L282.517 68.288ZM335.017 68.288H345.913L341.641 95.12H365.545L364.153 104H329.353L335.017 68.288ZM373.408 68.288H409.984L408.688 76.4H382.864L382.048 81.68H407.296L406 89.84H380.752L379.792 95.696H406.048L404.752 104H367.744L373.408 68.288ZM414.705 68.288H426.849L445.089 91.232L448.689 68.288H459.441L453.777 104H443.073L423.585 79.904L419.793 104H409.041L414.705 68.288ZM477.878 104.624C459.782 104.624 458.438 96.416 459.014 91.328H470.294C470.342 93.584 471.014 96.992 479.99 96.992H480.566C490.55 96.992 491.222 94.544 491.222 92.768C491.222 90.848 490.166 89.792 483.206 89.6L477.254 89.456C464.822 89.168 461.366 84.512 461.366 79.04C461.366 78.368 461.414 77.84 461.51 77.168C462.23 72.272 465.83 67.664 481.718 67.664H484.79C501.302 67.664 504.422 73.52 503.702 79.424H492.47C492.326 77.984 491.942 75.104 482.87 75.104H482.198C473.27 75.104 472.742 76.88 472.742 78.32C472.742 79.664 473.414 81.2 479.894 81.296L485.654 81.392C498.326 81.584 502.886 84.8 502.886 91.424C502.886 92.288 502.79 93.392 502.646 94.112C501.59 99.296 498.518 104.624 480.998 104.624H477.878ZM510.095 68.288H546.671L545.375 76.4H519.551L518.735 81.68H543.983L542.687 89.84H517.439L516.479 95.696H542.735L541.439 104H504.431L510.095 68.288ZM564.784 104.624C546.688 104.624 545.344 96.416 545.92 91.328H557.2C557.248 93.584 557.92 96.992 566.896 96.992H567.472C577.456 96.992 578.128 94.544 578.128 92.768C578.128 90.848 577.072 89.792 570.112 89.6L564.16 89.456C551.728 89.168 548.272 84.512 548.272 79.04C548.272 78.368 548.32 77.84 548.416 77.168C549.136 72.272 552.736 67.664 568.624 67.664H571.696C588.208 67.664 591.328 73.52 590.608 79.424H579.376C579.232 77.984 578.848 75.104 569.776 75.104H569.104C560.176 75.104 559.648 76.88 559.648 78.32C559.648 79.664 560.32 81.2 566.8 81.296L572.56 81.392C585.232 81.584 589.792 84.8 589.792 91.424C589.792 92.288 589.696 93.392 589.552 94.112C588.496 99.296 585.424 104.624 567.904 104.624H564.784Z" fill="#B3B3B3"/>
</svg>
