<svg width="650" height="86" viewBox="0 0 650 86" fill="none" xmlns="http://www.w3.org/2000/svg">
<path d="M564.348 85.6241C546.252 85.6241 544.908 77.4161 545.484 72.3281H556.764C556.812 74.5841 557.484 77.9921 566.46 77.9921H567.036C577.02 77.9921 577.692 75.5441 577.692 73.7681C577.692 71.8481 576.636 70.7921 569.676 70.6001L563.724 70.4561C551.292 70.1681 547.836 65.5121 547.836 60.0401C547.836 59.3681 547.884 58.8401 547.98 58.1681C548.7 53.2721 552.3 48.6641 568.188 48.6641H571.26C587.772 48.6641 590.892 54.5201 590.172 60.4241H578.94C578.796 58.9841 578.412 56.1041 569.34 56.1041H568.668C559.74 56.1041 559.212 57.8801 559.212 59.3201C559.212 60.6641 559.884 62.2001 566.364 62.2961L572.124 62.3921C584.796 62.5841 589.356 65.8001 589.356 72.4241C589.356 73.2881 589.26 74.3921 589.116 75.1121C588.06 80.2961 584.988 85.6241 567.468 85.6241H564.348Z" fill="#B3B3B3"/>
<path d="M509.66 49.2881H546.236L544.94 57.4001H519.116L518.3 62.6801H543.548L542.252 70.8401H517.004L516.044 76.6961H542.3L541.004 85.0001H503.996L509.66 49.2881Z" fill="#B3B3B3"/>
<path d="M477.441 85.6241C459.345 85.6241 458.001 77.4161 458.577 72.3281H469.857C469.905 74.5841 470.577 77.9921 479.553 77.9921H480.129C490.113 77.9921 490.785 75.5441 490.785 73.7681C490.785 71.8481 489.729 70.7921 482.769 70.6001L476.817 70.4561C464.385 70.1681 460.929 65.5121 460.929 60.0401C460.929 59.3681 460.977 58.8401 461.073 58.1681C461.793 53.2721 465.393 48.6641 481.281 48.6641H484.353C500.865 48.6641 503.985 54.5201 503.265 60.4241H492.033C491.889 58.9841 491.505 56.1041 482.433 56.1041H481.761C472.833 56.1041 472.305 57.8801 472.305 59.3201C472.305 60.6641 472.977 62.2001 479.457 62.2961L485.217 62.3921C497.889 62.5841 502.449 65.8001 502.449 72.4241C502.449 73.2881 502.353 74.3921 502.209 75.1121C501.153 80.2961 498.081 85.6241 480.561 85.6241H477.441Z" fill="#B3B3B3"/>
<path d="M414.269 49.2881H426.413L444.653 72.2321L448.253 49.2881H459.005L453.341 85.0001H442.637L423.149 60.9041L419.357 85.0001H408.605L414.269 49.2881Z" fill="#B3B3B3"/>
<path d="M372.973 49.2881H409.549L408.253 57.4001H382.429L381.613 62.6801H406.861L405.565 70.8401H380.317L379.357 76.6961H405.613L404.317 85.0001H367.309L372.973 49.2881Z" fill="#B3B3B3"/>
<path d="M334.582 49.2881H345.478L341.206 76.1201H365.11L363.718 85.0001H328.918L334.582 49.2881Z" fill="#B3B3B3"/>
<path d="M282.082 49.2881H292.978L288.706 76.1201H312.61L311.218 85.0001H276.418L282.082 49.2881Z" fill="#B3B3B3"/>
<path d="M258.367 70.4081L253.471 57.0161L245.167 70.4081H258.367ZM263.743 85.0001L261.343 78.4721H240.175L236.143 85.0001H224.863L247.423 49.2881H261.487L275.071 85.0001H263.743Z" fill="#B3B3B3"/>
<path d="M204.447 85.0001L208.767 57.7361H194.031L195.327 49.2881H235.887L234.543 57.7361H219.807L215.487 85.0001H204.447Z" fill="#B3B3B3"/>
<path d="M191.775 49.2881L186.111 85.0001H175.215L180.879 49.2881H191.775Z" fill="#B3B3B3"/>
<path d="M147.039 85.6241H146.079C129.087 85.6241 124.383 76.3601 124.383 69.1121C124.383 67.9601 124.431 66.9521 124.623 65.6561C125.631 58.6961 130.095 48.6641 150.063 48.6641H151.551C171.039 48.6641 173.967 57.4001 173.679 62.2481H162.159C162.015 61.3841 161.295 57.1601 150.543 57.1601C140.031 57.1601 136.671 61.8161 136.047 66.3761C135.951 67.0961 135.903 67.5761 135.903 68.2481C135.903 72.9041 139.167 76.9361 147.951 76.9361C157.887 76.9361 161.631 73.0001 161.919 71.7521H148.191L149.247 64.9841H173.679L170.511 85.0001H163.983C164.031 83.6561 163.935 80.8721 163.551 79.3361C161.967 81.2081 157.167 85.6241 147.039 85.6241Z" fill="#B3B3B3"/>
<path d="M123.853 49.2881L118.189 85.0001H107.293L112.957 49.2881H123.853Z" fill="#B3B3B3"/>
<path d="M56.0586 85.0001L61.7226 49.2881H83.2746C101.755 49.2881 106.795 56.8241 106.795 64.6001C106.795 66.1841 106.651 67.6721 106.411 69.0641C105.211 75.9761 100.123 85.0481 80.5386 85.0001H56.0586ZM71.2266 57.7361L68.2506 76.4081H79.6266C91.8186 76.4081 94.3146 71.5121 95.0346 67.8161C95.1786 67.0961 95.2746 66.2801 95.2746 65.6561C95.2746 62.0081 93.3066 57.7361 82.6026 57.7361H71.2266Z" fill="#B3B3B3"/>
<path d="M612.715 1.28809H649.291L647.995 9.40008H622.171L621.355 14.6801H646.603L645.307 22.8401H620.059L619.099 28.6961H645.355L644.059 37.0001H607.051L612.715 1.28809Z" fill="#B3B3B3"/>
<path d="M574.324 1.28809H585.22L580.948 28.1201H604.852L603.46 37.0001H568.66L574.324 1.28809Z" fill="#B3B3B3"/>
<path d="M540.484 37.6241H539.524C522.532 37.6241 517.828 28.3601 517.828 21.1121C517.828 19.9601 517.876 18.9521 518.068 17.6561C519.076 10.6961 523.54 0.664062 543.508 0.664062H544.996C564.484 0.664062 567.412 9.40006 567.124 14.2481H555.604C555.46 13.3841 554.74 9.16006 543.988 9.16006C533.476 9.16006 530.116 13.8161 529.492 18.3761C529.396 19.0961 529.348 19.5761 529.348 20.2481C529.348 24.9041 532.612 28.9361 541.396 28.9361C551.332 28.9361 555.076 25.0001 555.364 23.7521H541.636L542.692 16.9841H567.124L563.956 37.0001H557.428C557.476 35.6561 557.38 32.8721 556.996 31.3361C555.412 33.2081 550.612 37.6241 540.484 37.6241Z" fill="#B3B3B3"/>
<path d="M472.559 1.28809H484.703L502.943 24.2321L506.543 1.28809H517.295L511.631 37.0001H500.927L481.439 12.9041L477.647 37.0001H466.895L472.559 1.28809Z" fill="#B3B3B3"/>
<path d="M448.844 22.4081L443.948 9.01609L435.644 22.4081H448.844ZM454.22 37.0001L451.82 30.4721H430.652L426.62 37.0001H415.34L437.9 1.28809H451.964L465.548 37.0001H454.22Z" fill="#B3B3B3"/>
<path d="M404.832 18.6162H419.856L418.512 26.8722H403.488L404.832 18.6162Z" fill="#B3B3B3"/>
<path d="M367.371 1.28809H403.947L402.651 9.40008H376.827L376.011 14.6801H401.259L399.963 22.8401H374.715L373.755 28.6961H400.011L398.715 37.0001H361.707L367.371 1.28809Z" fill="#B3B3B3"/>
<path d="M310.473 37.0001L316.137 1.28809H337.689C356.169 1.28809 361.209 8.82409 361.209 16.6001C361.209 18.1841 361.065 19.6721 360.825 21.0641C359.625 27.9761 354.537 37.0481 334.953 37.0001H310.473ZM325.641 9.73609L322.665 28.4081H334.041C346.233 28.4081 348.729 23.5121 349.449 19.8161C349.593 19.0961 349.689 18.2801 349.689 17.6561C349.689 14.0081 347.721 9.73609 337.017 9.73609H325.641Z" fill="#B3B3B3"/>
<path d="M311.095 1.28809L305.431 37.0001H294.535L300.199 1.28809H311.095Z" fill="#B3B3B3"/>
<path d="M252.15 37.0001H240.054L230.742 1.28809H242.262L248.166 25.8641L259.158 1.28809H270.726L275.526 25.1441L287.526 1.28809H298.518L279.462 37.0001H268.422L263.238 13.0481L252.15 37.0001Z" fill="#B3B3B3"/>
<path d="M196.328 22.4081L191.432 9.01609L183.128 22.4081H196.328ZM201.704 37.0001L199.304 30.4721H178.136L174.104 37.0001H162.824L185.384 1.28809H199.448L213.032 37.0001H201.704Z" fill="#B3B3B3"/>
<path d="M132.491 16.4081H149.099C152.699 16.4081 154.091 14.4401 154.091 12.5201C154.091 10.6961 153.035 9.40008 150.107 9.40008H133.643L132.491 16.4081ZM131.291 24.3281L129.275 37.0001H118.379L124.043 1.28809H152.363C162.827 1.28809 165.803 5.27209 165.803 9.92809C165.803 15.4481 161.099 17.9441 157.931 18.8561C161.195 19.8641 164.027 22.1201 163.307 26.7281L162.347 32.7281C161.963 35.2721 162.251 36.1841 162.395 36.7601L162.347 37.0001H151.259C151.067 36.6161 150.923 36.0881 151.163 34.6001L151.787 30.6641C152.459 26.4401 150.875 24.3281 145.355 24.3281H131.291Z" fill="#B3B3B3"/>
<path d="M89.0644 37.0001L93.3844 9.73609H78.6484L79.9444 1.28809H120.504L119.16 9.73609H104.424L100.104 37.0001H89.0644Z" fill="#B3B3B3"/>
<path d="M52.8867 1.28809H63.7827L59.5107 28.1201H83.4147L82.0227 37.0001H47.2227L52.8867 1.28809Z" fill="#B3B3B3"/>
<path d="M23.0923 37.5281H21.4603C3.02833 37.5281 0.0043337 25.4321 1.15633 18.2321L3.84433 1.28809H14.7883L12.1963 17.6561C11.4283 22.5041 13.0603 28.2641 22.4683 28.2641C31.3963 28.2641 33.9403 22.4561 34.6603 17.9441L37.3003 1.28809H48.2443L45.5083 18.5201C44.3083 26.1041 40.3723 37.5281 23.0923 37.5281Z" fill="#B3B3B3"/>
</svg>
