<svg width="1566" height="75" viewBox="0 0 1566 75" fill="none" xmlns="http://www.w3.org/2000/svg">
<path d="M16.928 28.744L18.4095 28.9786L18.6842 27.244H16.928V28.744ZM0.704 28.744L-0.776158 28.5008L-1.06254 30.244H0.704V28.744ZM2.912 15.304L2.78357 13.8095L1.621 13.9094L1.43184 15.0608L2.912 15.304ZM24.992 1.576V0.0759983H24.0907L23.6675 0.871857L24.992 1.576ZM42.848 1.576L44.3295 1.81096L44.6047 0.0759983H42.848V1.576ZM31.52 73V74.5H32.8008L33.0015 73.235L31.52 73ZM9.92 73L8.43846 72.7654L8.16378 74.5H9.92V73ZM16.928 27.244H0.704V30.244H16.928V27.244ZM2.18416 28.9872L4.39216 15.5472L1.43184 15.0608L-0.776158 28.5008L2.18416 28.9872ZM3.04043 16.7985C9.37138 16.2544 14.1461 14.6598 17.8879 12.1308C21.6312 9.60083 24.2252 6.21377 26.3165 2.28014L23.6675 0.871857C21.7268 4.52223 19.4248 7.47116 16.2081 9.64522C12.9899 11.8202 8.74062 13.2976 2.78357 13.8095L3.04043 16.7985ZM24.992 3.076H42.848V0.0759983H24.992V3.076ZM41.3665 1.34103L30.0385 72.765L33.0015 73.235L44.3295 1.81096L41.3665 1.34103ZM31.52 71.5H9.92V74.5H31.52V71.5ZM11.4015 73.2346L18.4095 28.9786L15.4465 28.5094L8.43846 72.7654L11.4015 73.2346ZM147.944 39.688L149.423 39.9402L149.424 39.9346L147.944 39.688ZM49.544 34.696L51.0297 34.9024L51.0305 34.8966L49.544 34.696ZM72.68 35.56L71.1994 35.3194L71.1984 35.3261L72.68 35.56ZM125.192 37.768L126.677 37.9824L126.677 37.9801L125.192 37.768ZM147.02 31.528C147.02 34.0841 146.925 36.6788 146.464 39.4414L149.424 39.9346C149.923 36.9372 150.02 34.1559 150.02 31.528H147.02ZM146.465 39.4358C145.423 45.5456 143.4 53.8029 136.725 60.5577C130.08 67.2828 118.587 72.748 98.12 72.748V75.748C119.125 75.748 131.488 70.1252 138.859 62.6663C146.2 55.2371 148.353 46.2144 149.423 39.9402L146.465 39.4358ZM98.12 72.748H93.992V75.748H98.12V72.748ZM93.992 72.748C75.8057 72.748 64.9976 68.0855 58.7398 62.1111C52.4822 56.1368 50.564 48.65 50.564 42.568H47.564C47.564 49.254 49.6778 57.6072 56.6682 64.2809C63.6584 70.9545 75.3143 75.748 93.992 75.748V72.748ZM50.564 42.568C50.564 40.4743 50.5643 38.2534 51.0297 34.9024L48.0583 34.4896C47.5637 38.0506 47.564 40.4377 47.564 42.568H50.564ZM51.0305 34.8966C51.8281 28.9855 53.8468 20.7791 60.5998 14.0376C67.3306 7.31813 78.996 1.828 99.56 1.828V-1.172C78.46 -1.172 65.9334 4.47386 58.4802 11.9144C51.0492 19.3329 48.8919 28.3105 48.0575 34.4954L51.0305 34.8966ZM99.56 1.828H103.592V-1.172H99.56V1.828ZM103.592 1.828C121.544 1.828 132.361 6.34994 138.681 12.2044C144.995 18.0539 147.02 25.4188 147.02 31.528H150.02C150.02 24.7732 147.773 16.5381 140.719 10.0036C133.671 3.47405 122.024 -1.172 103.592 -1.172V1.828ZM126.98 33.832C126.98 29.5312 125.471 25.0137 121.306 21.6069C117.182 18.2344 110.647 16.108 100.904 16.108V19.108C110.265 19.108 116.018 21.1576 119.406 23.9291C122.753 26.6663 123.98 30.2608 123.98 33.832H126.98ZM100.904 16.108C89.6441 16.108 82.507 18.7276 78.0071 22.5623C73.4991 26.4039 71.8559 31.2795 71.1994 35.3194L74.1606 35.8006C74.7521 32.1605 76.1809 28.0601 79.9529 24.8457C83.733 21.6244 90.0839 19.108 100.904 19.108V16.108ZM71.1984 35.3261C70.8925 37.263 70.892 38.3126 70.892 39.592H73.892C73.892 38.3754 73.8915 37.505 74.1616 35.7939L71.1984 35.3261ZM70.892 39.592C70.892 43.7779 72.1644 48.5478 76.2018 52.2531C80.223 55.9436 86.764 58.372 96.872 58.372V55.372C87.204 55.372 81.505 53.0484 78.2302 50.0429C74.9716 47.0522 73.892 43.1821 73.892 39.592H70.892ZM96.872 58.372C107.86 58.372 115.022 55.6966 119.614 51.6903C124.207 47.6828 126.021 42.5242 126.677 37.9824L123.707 37.5536C123.115 41.6518 121.521 46.0452 117.642 49.4297C113.762 52.8154 107.388 55.372 96.872 55.372V58.372ZM126.677 37.9801C126.878 36.5719 126.98 35.2528 126.98 33.832H123.98C123.98 35.0992 123.89 36.2761 123.707 37.5559L126.677 37.9801ZM158.626 36.232V34.732H157.35L157.145 35.991L158.626 36.232ZM188.674 36.232L190.154 36.473L190.437 34.732H188.674V36.232ZM185.986 52.744V54.244H187.261L187.466 52.985L185.986 52.744ZM155.938 52.744L154.457 52.503L154.174 54.244H155.938V52.744ZM158.626 37.732H188.674V34.732H158.626V37.732ZM187.193 35.991L184.505 52.503L187.466 52.985L190.154 36.473L187.193 35.991ZM185.986 51.244H155.938V54.244H185.986V51.244ZM157.418 52.985L160.106 36.473L157.145 35.991L154.457 52.503L157.418 52.985ZM195.954 73L194.472 72.765L194.197 74.5H195.954V73ZM207.282 1.576V0.0759983H206.001L205.8 1.34103L207.282 1.576ZM275.826 32.968L275.429 31.5215L270.294 32.9311L275.409 34.4091L275.826 32.968ZM226.674 16.648V15.148H225.391L225.192 16.4153L226.674 16.648ZM224.85 28.264L223.368 28.0313L223.096 29.764H224.85V28.264ZM222.45 43.432V41.932H221.168L220.968 43.1986L222.45 43.432ZM220.242 57.448L218.76 57.2146L218.487 58.948H220.242V57.448ZM197.435 73.235L208.763 1.81096L205.8 1.34103L194.472 72.765L197.435 73.235ZM207.282 3.076H265.842V0.0759983H207.282V3.076ZM265.842 3.076C274.917 3.076 280.496 4.78612 283.785 7.34403C286.994 9.84 288.246 13.3235 288.246 17.512H291.246C291.246 12.6765 289.762 8.19199 285.627 4.97597C281.571 1.82188 275.198 0.0759983 265.842 0.0759983V3.076ZM288.246 17.512C288.246 21.9832 286.25 25.1183 283.648 27.3391C281.007 29.5934 277.755 30.8828 275.429 31.5215L276.223 34.4145C278.792 33.7092 282.501 32.2626 285.596 29.6209C288.73 26.9457 291.246 23.0248 291.246 17.512H288.246ZM275.409 34.4091C279.482 35.5857 286.998 39.5403 286.998 49.288H289.998C289.998 37.5316 280.809 32.8463 276.242 31.5269L275.409 34.4091ZM286.998 49.288C286.998 55.6148 285.151 61.0733 280.672 64.9818C276.155 68.9225 268.723 71.5 257.106 71.5V74.5C269.104 74.5 277.368 71.8455 282.644 67.2422C287.957 62.6067 289.998 56.2092 289.998 49.288H286.998ZM257.106 71.5H195.954V74.5H257.106V71.5ZM258.834 29.764C262.356 29.764 264.903 28.8282 266.579 27.2589C268.256 25.6885 268.878 23.6541 268.878 21.832H265.878C265.878 22.9859 265.491 24.1675 264.528 25.0691C263.564 25.9718 261.839 26.764 258.834 26.764V29.764ZM268.878 21.832C268.878 20.2375 268.52 18.4479 267.067 17.0973C265.646 15.7766 263.465 15.148 260.466 15.148V18.148C263.13 18.148 264.406 18.7194 265.025 19.2947C265.611 19.8401 265.878 20.6425 265.878 21.832H268.878ZM260.466 15.148H226.674V18.148H260.466V15.148ZM225.192 16.4153L223.368 28.0313L226.332 28.4967L228.156 16.8807L225.192 16.4153ZM224.85 29.764H258.834V26.764H224.85V29.764ZM256.05 58.948C260.348 58.948 263.239 57.6423 265.039 55.6776C266.81 53.7461 267.342 51.3787 267.342 49.576H264.342C264.342 50.8453 263.962 52.4139 262.828 53.6504C261.725 54.8537 259.72 55.948 256.05 55.948V58.948ZM267.342 49.576C267.342 47.8682 266.999 45.8562 265.456 44.2969C263.918 42.7425 261.479 41.932 257.97 41.932V44.932C261.084 44.932 262.582 45.6575 263.324 46.4071C264.06 47.1518 264.342 48.2118 264.342 49.576H267.342ZM257.97 41.932H222.45V44.932H257.97V41.932ZM220.968 43.1986L218.76 57.2146L221.723 57.6814L223.931 43.6654L220.968 43.1986ZM220.242 58.948H256.05V55.948H220.242V58.948ZM329.03 1.576L330.511 1.81096L330.787 0.0759983H329.03V1.576ZM317.702 73V74.5H318.983L319.183 73.235L317.702 73ZM295.91 73L294.429 72.765L294.153 74.5H295.91V73ZM307.238 1.576V0.0759983H305.957L305.757 1.34103L307.238 1.576ZM327.549 1.34103L316.221 72.765L319.183 73.235L330.511 1.81096L327.549 1.34103ZM317.702 71.5H295.91V74.5H317.702V71.5ZM297.391 73.235L308.719 1.81096L305.757 1.34103L294.429 72.765L297.391 73.235ZM307.238 3.076H329.03V0.0759983H307.238V3.076ZM359.177 73L357.695 72.7653L357.421 74.5H359.177V73ZM367.817 18.472L369.299 18.7067L369.573 16.972H367.817V18.472ZM338.345 18.472L336.862 18.2445L336.597 19.972H338.345V18.472ZM340.937 1.576V0.0759983H339.65L339.454 1.34855L340.937 1.576ZM422.057 1.576L423.538 1.81167L423.815 0.0759983H422.057V1.576ZM419.369 18.472V19.972H420.649L420.85 18.7077L419.369 18.472ZM389.897 18.472V16.972H388.616L388.415 18.2373L389.897 18.472ZM381.257 73V74.5H382.538L382.739 73.2347L381.257 73ZM360.659 73.2347L369.299 18.7067L366.335 18.2373L357.695 72.7653L360.659 73.2347ZM367.817 16.972H338.345V19.972H367.817V16.972ZM339.828 18.6995L342.42 1.80345L339.454 1.34855L336.862 18.2445L339.828 18.6995ZM340.937 3.076H422.057V0.0759983H340.937V3.076ZM420.576 1.34033L417.888 18.2363L420.85 18.7077L423.538 1.81167L420.576 1.34033ZM419.369 16.972H389.897V19.972H419.369V16.972ZM388.415 18.2373L379.775 72.7653L382.739 73.2347L391.379 18.7067L388.415 18.2373ZM381.257 71.5H359.177V74.5H381.257V71.5ZM458.407 33.256L459.892 33.4624L459.893 33.4566L458.407 33.256ZM556.711 29.512V31.012H558.006L558.195 29.7302L556.711 29.512ZM533.575 29.512L532.088 29.7147L532.265 31.012H533.575V29.512ZM481.543 34.504L480.061 34.2701L480.061 34.2701L481.543 34.504ZM531.367 44.2V42.7H530.362L529.979 43.6289L531.367 44.2ZM554.503 44.2L555.996 44.3396L556.149 42.7H554.503V44.2ZM505.831 72.748H501.991V75.748H505.831V72.748ZM501.991 72.748C484.448 72.748 473.837 68.0242 467.611 61.8435C461.376 55.6539 459.331 47.7978 459.331 41.128H456.331C456.331 48.3782 458.557 57.0821 465.498 63.9725C472.448 70.8718 483.917 75.748 501.991 75.748V72.748ZM459.331 41.128C459.331 38.8894 459.422 36.8465 459.892 33.4623L456.921 33.0496C456.431 36.5775 456.331 38.7586 456.331 41.128H459.331ZM459.893 33.4566C460.677 27.6425 463.208 19.7795 470.252 13.3651C477.286 6.96094 489.008 1.828 508.519 1.828V-1.172C488.477 -1.172 475.959 4.11105 468.233 11.1469C460.517 18.1725 457.768 26.7735 456.92 33.0554L459.893 33.4566ZM508.519 1.828H512.263V-1.172H508.519V1.828ZM512.263 1.828C532.754 1.828 543.762 6.63413 549.486 12.3128C555.183 17.9649 555.897 24.7364 555.226 29.2938L558.195 29.7302C558.964 24.4956 558.142 16.6751 551.599 10.1832C545.083 3.71786 533.147 -1.172 512.263 -1.172V1.828ZM556.711 28.012H533.575V31.012H556.711V28.012ZM535.061 29.3093C534.888 28.046 534.232 24.6517 530.545 21.6108C526.892 18.5979 520.478 16.108 509.191 16.108V19.108C520.08 19.108 525.713 21.5141 528.636 23.9252C531.525 26.3083 531.973 28.866 532.088 29.7147L535.061 29.3093ZM509.191 16.108C498.739 16.108 491.754 18.5624 487.203 22.1409C482.642 25.7275 480.685 30.319 480.061 34.2701L483.024 34.7379C483.552 31.393 485.195 27.5365 489.058 24.4991C492.931 21.4536 499.194 19.108 509.191 19.108V16.108ZM480.061 34.2701C479.759 36.1828 479.659 37.7981 479.659 39.592H482.659C482.659 37.9299 482.75 36.4732 483.024 34.7379L480.061 34.2701ZM479.659 39.592C479.659 44.1806 481.11 48.9502 485.125 52.5524C489.118 56.1361 495.435 58.372 504.775 58.372V55.372C495.874 55.372 490.383 53.2399 487.128 50.3196C483.895 47.4178 482.659 43.5474 482.659 39.592H479.659ZM504.775 58.372C516.348 58.372 523.185 55.5488 527.247 52.3226C531.317 49.0904 532.422 45.5773 532.754 44.7711L529.979 43.6289C529.639 44.4547 528.776 47.2776 525.382 49.9734C521.98 52.6752 515.857 55.372 504.775 55.372V58.372ZM531.367 45.7H554.503V42.7H531.367V45.7ZM553.009 44.0604C552.555 48.9142 550.446 56.0332 543.72 61.9497C536.993 67.8666 525.46 72.748 505.831 72.748V75.748C525.945 75.748 538.268 70.7414 545.701 64.2023C553.135 57.6628 555.49 49.7578 555.996 44.3396L553.009 44.0604ZM564.363 34.504L562.879 34.285L562.877 34.2976L564.363 34.504ZM666.507 39.304L667.991 39.5242L667.992 39.5161L666.507 39.304ZM587.307 36.328L585.812 36.2049L585.811 36.213L587.307 36.328ZM643.659 37.672L645.146 37.8702L645.146 37.8702L643.659 37.672ZM610.635 72.748C591.42 72.748 580.154 68.0748 573.698 62.0955C567.254 56.1269 565.383 48.6527 565.383 42.568H562.383C562.383 49.2513 564.448 57.6171 571.66 64.2965C578.86 70.9652 590.97 75.748 610.635 75.748V72.748ZM565.383 42.568C565.383 40.3748 565.383 38.0597 565.849 34.7104L562.877 34.2976C562.382 37.8603 562.383 40.3452 562.383 42.568H565.383ZM565.847 34.7229C566.695 28.9701 568.551 20.8266 575.398 14.0935C582.229 7.37664 594.275 1.828 616.011 1.828V-1.172C593.778 -1.172 580.864 4.51136 573.295 11.9545C565.742 19.3813 563.758 28.3259 562.879 34.2851L565.847 34.7229ZM616.011 1.828H620.139V-1.172H616.011V1.828ZM620.139 1.828C639.218 1.828 650.515 6.36119 657.032 12.2195C663.531 18.0617 665.487 25.4128 665.487 31.528H668.487C668.487 24.7791 666.315 16.5303 659.038 9.98848C651.778 3.46281 639.652 -1.172 620.139 -1.172V1.828ZM665.487 31.528C665.487 33.9874 665.392 36.5015 665.022 39.0919L667.992 39.5161C668.39 36.7305 668.487 34.0606 668.487 31.528H665.487ZM665.023 39.0838C664.124 45.1393 662.264 53.4733 655.414 60.3233C648.585 67.1527 636.544 72.748 614.763 72.748V75.748C637.045 75.748 649.965 70.0153 657.535 62.4447C665.085 54.8947 667.065 45.7567 667.991 39.5242L665.023 39.0838ZM614.763 72.748H610.635V75.748H614.763V72.748ZM645.447 33.832C645.447 29.5264 643.957 24.9887 639.521 21.5788C635.153 18.2209 628.121 16.108 617.355 16.108V19.108C627.804 19.108 634.068 21.1711 637.693 23.9572C641.249 26.6913 642.447 30.2656 642.447 33.832H645.447ZM617.355 16.108C605.297 16.108 597.566 18.7912 592.74 22.748C587.887 26.7269 586.172 31.8273 585.812 36.2049L588.802 36.4511C589.113 32.6687 590.567 28.4091 594.642 25.068C598.744 21.7048 605.701 19.108 617.355 19.108V16.108ZM585.811 36.213C585.71 37.5241 585.711 38.5353 585.711 39.592H588.711C588.711 38.5366 588.711 37.6279 588.802 36.443L585.811 36.213ZM585.711 39.592C585.711 43.7869 586.99 48.5755 591.282 52.2832C595.537 55.9582 602.526 58.372 613.515 58.372V55.372C602.904 55.372 596.741 53.0338 593.243 50.0128C589.784 47.0245 588.711 43.1731 588.711 39.592H585.711ZM613.515 58.372C625.388 58.372 633.025 55.6853 637.862 51.6656C642.716 47.6314 644.537 42.4317 645.146 37.8702L642.172 37.4738C641.628 41.5523 640.042 45.9526 635.944 49.3584C631.829 52.7787 624.969 55.372 613.515 55.372V58.372ZM645.146 37.8702C645.343 36.3905 645.447 35.2642 645.447 33.832H642.447C642.447 35.0878 642.359 36.0735 642.172 37.4738L645.146 37.8702ZM684.301 1.576V0.0759983H683.02L682.819 1.34103L684.301 1.576ZM706.093 1.576L707.574 1.81185L707.85 0.0759983H706.093V1.576ZM697.549 55.24L696.067 55.0042L695.791 56.74H697.549V55.24ZM745.357 55.24L746.838 55.4723L747.11 53.74H745.357V55.24ZM742.573 73V74.5H743.856L744.054 73.2323L742.573 73ZM672.973 73L671.491 72.765L671.216 74.5H672.973V73ZM684.301 3.076H706.093V0.0759983H684.301V3.076ZM704.611 1.34015L696.067 55.0042L699.03 55.4758L707.574 1.81185L704.611 1.34015ZM697.549 56.74H745.357V53.74H697.549V56.74ZM743.875 55.0077L741.091 72.7677L744.054 73.2323L746.838 55.4723L743.875 55.0077ZM742.573 71.5H672.973V74.5H742.573V71.5ZM674.454 73.235L685.782 1.81096L682.819 1.34103L671.491 72.765L674.454 73.235ZM753.025 34.504L751.541 34.285L751.54 34.2976L753.025 34.504ZM855.169 39.304L856.653 39.5242L856.654 39.5161L855.169 39.304ZM775.969 36.328L774.474 36.2049L774.474 36.213L775.969 36.328ZM832.321 37.672L833.808 37.8702L833.808 37.8702L832.321 37.672ZM799.297 72.748C780.082 72.748 768.816 68.0748 762.361 62.0955C755.916 56.1269 754.045 48.6527 754.045 42.568H751.045C751.045 49.2513 753.11 57.6171 760.322 64.2965C767.522 70.9652 779.632 75.748 799.297 75.748V72.748ZM754.045 42.568C754.045 40.3748 754.046 38.0597 754.511 34.7104L751.54 34.2976C751.045 37.8603 751.045 40.3452 751.045 42.568H754.045ZM754.509 34.7229C755.358 28.9701 757.214 20.8266 764.061 14.0935C770.892 7.37664 782.938 1.828 804.673 1.828V-1.172C782.441 -1.172 769.527 4.51136 761.958 11.9545C754.405 19.3813 752.421 28.3259 751.541 34.2851L754.509 34.7229ZM804.673 1.828H808.801V-1.172H804.673V1.828ZM808.801 1.828C827.88 1.828 839.178 6.36119 845.694 12.2195C852.193 18.0617 854.149 25.4128 854.149 31.528H857.149C857.149 24.7791 854.977 16.5303 847.7 9.98848C840.441 3.46281 828.314 -1.172 808.801 -1.172V1.828ZM854.149 31.528C854.149 33.9874 854.054 36.5015 853.684 39.0919L856.654 39.5161C857.052 36.7305 857.149 34.0606 857.149 31.528H854.149ZM853.686 39.0838C852.787 45.1393 850.927 53.4733 844.077 60.3233C837.247 67.1527 825.207 72.748 803.425 72.748V75.748C825.708 75.748 838.627 70.0153 846.198 62.4447C853.748 54.8947 855.728 45.7567 856.653 39.5242L853.686 39.0838ZM803.425 72.748H799.297V75.748H803.425V72.748ZM834.109 33.832C834.109 29.5264 832.619 24.9887 828.183 21.5788C823.816 18.2209 816.784 16.108 806.017 16.108V19.108C816.467 19.108 822.731 21.1711 826.355 23.9572C829.912 26.6913 831.109 30.2656 831.109 33.832H834.109ZM806.017 16.108C793.959 16.108 786.228 18.7912 781.402 22.748C776.549 26.7269 774.835 31.8273 774.474 36.2049L777.464 36.4511C777.776 32.6687 779.229 28.4091 783.304 25.068C787.406 21.7048 794.363 19.108 806.017 19.108V16.108ZM774.474 36.213C774.373 37.5241 774.373 38.5353 774.373 39.592H777.373C777.373 38.5366 777.374 37.6279 777.465 36.443L774.474 36.213ZM774.373 39.592C774.373 43.7869 775.652 48.5755 779.945 52.2832C784.199 55.9582 791.188 58.372 802.177 58.372V55.372C791.566 55.372 785.403 53.0338 781.906 50.0128C778.446 47.0245 777.373 43.1731 777.373 39.592H774.373ZM802.177 58.372C814.051 58.372 821.687 55.6853 826.524 51.6656C831.378 47.6314 833.2 42.4317 833.808 37.8702L830.834 37.4738C830.291 41.5523 828.704 45.9526 824.606 49.3584C820.491 52.7787 813.632 55.372 802.177 55.372V58.372ZM833.808 37.8702C834.005 36.3905 834.109 35.2642 834.109 33.832H831.109C831.109 35.0878 831.021 36.0735 830.834 37.4738L833.808 37.8702ZM889.859 31.816L888.379 31.5727L888.092 33.316H889.859V31.816ZM892.163 17.8V16.3H890.889L890.683 17.5567L892.163 17.8ZM887.459 47.656V46.156H886.179L885.978 47.4203L887.459 47.656ZM883.427 73V74.5H884.707L884.908 73.2357L883.427 73ZM861.635 73L860.154 72.765L859.878 74.5H861.635V73ZM872.963 1.576V0.0759983H871.682L871.482 1.34103L872.963 1.576ZM940.739 36.712L940.324 35.2705L935.492 36.6615L940.296 38.1452L940.739 36.712ZM951.491 52.456L952.972 52.693L952.973 52.6876L951.491 52.456ZM949.571 64.456L948.09 64.219L948.088 64.2321L949.571 64.456ZM949.667 72.52L951.138 72.8142L951.204 72.4834L951.122 72.1562L949.667 72.52ZM949.571 73V74.5H950.801L951.042 73.2942L949.571 73ZM927.395 73L926.053 73.6708L926.468 74.5H927.395V73ZM927.203 68.2L928.684 68.4388L928.684 68.4349L927.203 68.2ZM928.451 60.328L926.97 60.0923L926.969 60.0931L928.451 60.328ZM889.859 33.316H923.075V30.316H889.859V33.316ZM923.075 33.316C926.945 33.316 929.84 32.2542 931.781 30.4734C933.725 28.6903 934.559 26.3255 934.559 24.04H931.559C931.559 25.5945 931.001 27.1177 929.753 28.2626C928.502 29.4098 926.405 30.316 923.075 30.316V33.316ZM934.559 24.04C934.559 21.924 933.937 19.8936 932.26 18.4238C930.619 16.9862 928.209 16.3 925.091 16.3V19.3C927.829 19.3 929.403 19.9098 930.282 20.6802C931.125 21.4184 931.559 22.508 931.559 24.04H934.559ZM925.091 16.3H892.163V19.3H925.091V16.3ZM890.683 17.5567L888.379 31.5727L891.339 32.0593L893.643 18.0433L890.683 17.5567ZM885.978 47.4203L881.946 72.7643L884.908 73.2357L888.94 47.8917L885.978 47.4203ZM883.427 71.5H861.635V74.5H883.427V71.5ZM863.116 73.235L874.444 1.81096L871.482 1.34103L860.154 72.765L863.116 73.235ZM872.963 3.076H929.603V0.0759983H872.963V3.076ZM929.603 3.076C939.92 3.076 946.251 5.04768 949.977 7.91306C953.626 10.7191 954.983 14.5457 954.983 18.856H957.983C957.983 13.8543 956.364 9.04085 951.805 5.53493C947.323 2.08832 940.214 0.0759983 929.603 0.0759983V3.076ZM954.983 18.856C954.983 28.8179 946.524 33.4858 940.324 35.2705L941.154 38.1535C947.626 36.2902 957.983 30.9741 957.983 18.856H954.983ZM940.296 38.1452C943.401 39.1039 946.141 40.6112 947.938 42.8284C949.693 44.9945 950.671 47.9871 950.009 52.2244L952.973 52.6876C953.751 47.7089 952.617 43.8374 950.268 40.9396C947.961 38.0928 944.605 36.3361 941.182 35.2788L940.296 38.1452ZM950.01 52.219L948.09 64.219L951.052 64.693L952.972 52.693L950.01 52.219ZM948.088 64.2321C947.692 66.8549 947.633 68.6953 947.726 70.0657C947.821 71.4532 948.071 72.32 948.212 72.8838L951.122 72.1562C950.975 71.568 950.793 70.9468 950.72 69.8623C950.645 68.7607 950.682 67.1451 951.054 64.6799L948.088 64.2321ZM948.196 72.2258L948.1 72.7058L951.042 73.2942L951.138 72.8142L948.196 72.2258ZM949.571 71.5H927.395V74.5H949.571V71.5ZM928.737 72.3292C928.552 71.9596 928.228 71.2656 928.684 68.4388L925.722 67.9612C925.218 71.0864 925.47 72.5044 926.053 73.6708L928.737 72.3292ZM928.684 68.4349L929.932 60.5629L926.969 60.0931L925.721 67.9651L928.684 68.4349ZM929.932 60.5637C930.628 56.1894 930.244 52.4187 927.751 49.7915C925.305 47.2132 921.208 46.156 915.587 46.156V49.156C921.006 49.156 924.013 50.2108 925.575 51.8565C927.09 53.4533 927.618 56.0186 926.97 60.0923L929.932 60.5637ZM915.587 46.156H887.459V49.156H915.587V46.156ZM988.765 73L987.454 72.2711L986.215 74.5H988.765V73ZM1026.88 4.456V2.956H1026L1025.57 3.72706L1026.88 4.456ZM1035.52 4.456L1036.83 5.18352L1038.06 2.956H1035.52V4.456ZM997.501 73V74.5H998.385L998.813 73.7275L997.501 73ZM990.076 73.7289L1028.19 5.18493L1025.57 3.72706L987.454 72.2711L990.076 73.7289ZM1026.88 5.956H1035.52V2.956H1026.88V5.956ZM1034.21 3.72847L996.19 72.2725L998.813 73.7275L1036.83 5.18352L1034.21 3.72847ZM997.501 71.5H988.765V74.5H997.501V71.5ZM1027.78 73L1026.47 72.2711L1025.23 74.5H1027.78V73ZM1065.9 4.456V2.956H1065.01L1064.58 3.72706L1065.9 4.456ZM1074.54 4.456L1075.85 5.18352L1077.08 2.956H1074.54V4.456ZM1036.52 73V74.5H1037.4L1037.83 73.7275L1036.52 73ZM1029.09 73.7289L1067.21 5.18493L1064.58 3.72706L1026.47 72.2711L1029.09 73.7289ZM1065.9 5.956H1074.54V2.956H1065.9V5.956ZM1073.22 3.72847L1035.21 72.2725L1037.83 73.7275L1075.85 5.18352L1073.22 3.72847ZM1036.52 71.5H1027.78V74.5H1036.52V71.5ZM1105.2 73L1103.72 72.765L1103.44 74.5H1105.2V73ZM1116.53 1.576V0.0759983H1115.24L1115.04 1.34103L1116.53 1.576ZM1205.9 41.128L1207.38 41.3846L1207.38 41.3829L1205.9 41.128ZM1154.16 73L1154.16 71.5H1154.16V73ZM1135.53 18.472V16.972H1134.25L1134.05 18.2359L1135.53 18.472ZM1129.58 55.816L1128.1 55.5799L1127.82 57.316H1129.58V55.816ZM1183.15 38.632L1181.68 38.3378L1181.68 38.3452L1183.15 38.632ZM1106.68 73.235L1118.01 1.81096L1115.04 1.34103L1103.72 72.765L1106.68 73.235ZM1116.53 3.076H1159.63V0.0759983H1116.53V3.076ZM1159.63 3.076C1177.94 3.076 1189.31 6.81567 1196.07 12.2273C1202.78 17.5915 1205.17 24.7681 1205.17 32.2H1208.17C1208.17 24.0799 1205.52 15.9444 1197.95 9.8847C1190.43 3.87233 1178.28 0.0759983 1159.63 0.0759983V3.076ZM1205.17 32.2C1205.17 35.2764 1204.89 38.167 1204.42 40.8731L1207.38 41.3829C1207.87 38.5209 1208.17 35.4595 1208.17 32.2H1205.17ZM1204.42 40.8714C1203.27 47.5378 1200.25 55.1565 1192.88 61.1171C1185.48 67.0867 1173.52 71.5475 1154.16 71.5L1154.15 74.5C1173.96 74.5485 1186.67 69.9853 1194.76 63.4509C1202.86 56.9075 1206.14 48.5422 1207.38 41.3846L1204.42 40.8714ZM1154.16 71.5H1105.2V74.5H1154.16V71.5ZM1134.05 18.2359L1128.1 55.5799L1131.06 56.0521L1137.01 18.7081L1134.05 18.2359ZM1129.58 57.316H1152.33V54.316H1129.58V57.316ZM1152.33 57.316C1164.7 57.316 1172.41 54.8364 1177.25 51.1941C1182.12 47.5216 1183.86 42.8283 1184.62 38.9188L1181.68 38.3452C1181 41.8277 1179.52 45.7264 1175.44 48.7979C1171.33 51.8996 1164.35 54.316 1152.33 54.316V57.316ZM1184.62 38.9262C1184.92 37.4182 1185.13 35.6845 1185.13 34.312H1182.13C1182.13 35.4355 1181.95 36.9658 1181.68 38.3378L1184.62 38.9262ZM1185.13 34.312C1185.13 30.3863 1184.06 25.9286 1179.95 22.5034C1175.9 19.1312 1169.14 16.972 1158.29 16.972V19.972C1168.83 19.972 1174.75 22.0848 1178.03 24.8086C1181.23 27.4794 1182.13 30.9417 1182.13 34.312H1185.13ZM1158.29 16.972H1135.53V19.972H1158.29V16.972ZM1217.09 35.464L1218.57 35.701L1218.57 35.699L1217.09 35.464ZM1222.46 1.576V0.0759983H1221.18L1220.98 1.34098L1222.46 1.576ZM1244.35 1.576L1245.83 1.81061L1246.11 0.0759983H1244.35V1.576ZM1239.17 34.312L1240.65 34.5467L1240.65 34.5466L1239.17 34.312ZM1284.09 34.888L1285.57 35.1244L1285.57 35.1228L1284.09 34.888ZM1289.37 1.576V0.0759983H1288.09L1287.89 1.34118L1289.37 1.576ZM1311.26 1.576L1312.74 1.81121L1313.02 0.0759983H1311.26V1.576ZM1305.79 36.04L1304.31 35.8048L1304.31 35.8056L1305.79 36.04ZM1260.96 72.556H1257.69V75.556H1260.96V72.556ZM1257.69 72.556C1239.61 72.556 1229.39 66.6399 1223.91 59.2653C1218.38 51.8263 1217.46 42.6194 1218.57 35.701L1215.6 35.227C1214.41 42.7086 1215.36 52.7977 1221.5 61.0547C1227.68 69.3761 1238.92 75.556 1257.69 75.556V72.556ZM1218.57 35.699L1223.94 1.81102L1220.98 1.34098L1215.6 35.229L1218.57 35.699ZM1222.46 3.076H1244.35V0.0759983H1222.46V3.076ZM1242.87 1.34139L1237.68 34.0774L1240.65 34.5466L1245.83 1.81061L1242.87 1.34139ZM1237.68 34.0773C1236.88 39.1312 1237.29 44.8979 1240.59 49.4383C1243.94 54.0411 1250 57.028 1259.71 57.028V54.028C1250.61 54.028 1245.62 51.2549 1243.02 47.6737C1240.37 44.0301 1239.91 39.1888 1240.65 34.5467L1237.68 34.0773ZM1259.71 57.028C1269 57.028 1275.16 53.9896 1279.16 49.6038C1283.13 45.2683 1284.83 39.7819 1285.57 35.1244L1282.61 34.6516C1281.92 39.0181 1280.36 43.8517 1276.95 47.5802C1273.59 51.2584 1268.28 54.028 1259.71 54.028V57.028ZM1285.57 35.1228L1290.85 1.81082L1287.89 1.34118L1282.61 34.6532L1285.57 35.1228ZM1289.37 3.076H1311.26V0.0759983H1289.37V3.076ZM1309.78 1.34078L1304.31 35.8048L1307.27 36.2752L1312.74 1.81121L1309.78 1.34078ZM1304.31 35.8056C1303.12 43.2844 1300.62 52.4591 1294.3 59.7541C1288.04 66.9862 1277.87 72.556 1260.96 72.556V75.556C1278.61 75.556 1289.65 69.7018 1296.57 61.7179C1303.43 53.7969 1306.05 43.9636 1307.27 36.2744L1304.31 35.8056ZM1369.51 43.816V45.316H1371.66L1370.92 43.301L1369.51 43.816ZM1359.72 17.032L1361.13 16.517L1360.07 13.621L1358.44 16.2415L1359.72 17.032ZM1343.11 43.816L1341.84 43.0255L1340.42 45.316H1343.11V43.816ZM1380.26 73L1378.86 73.5176L1379.22 74.5H1380.26V73ZM1375.46 59.944L1376.87 59.4264L1376.51 58.444H1375.46V59.944ZM1333.13 59.944V58.444H1332.29L1331.85 59.1558L1333.13 59.944ZM1325.06 73V74.5H1325.9L1326.34 73.7882L1325.06 73ZM1302.5 73L1301.24 72.1989L1299.78 74.5H1302.5V73ZM1347.62 1.576V0.0759983H1346.8L1346.36 0.774881L1347.62 1.576ZM1375.75 1.576L1377.15 1.04271L1376.79 0.0759983H1375.75V1.576ZM1402.92 73V74.5H1405.1L1404.32 72.4667L1402.92 73ZM1370.92 43.301L1361.13 16.517L1358.31 17.547L1368.1 44.331L1370.92 43.301ZM1358.44 16.2415L1341.84 43.0255L1344.39 44.6065L1360.99 17.8225L1358.44 16.2415ZM1343.11 45.316H1369.51V42.316H1343.11V45.316ZM1381.67 72.4824L1376.87 59.4264L1374.06 60.4616L1378.86 73.5176L1381.67 72.4824ZM1375.46 58.444H1333.13V61.444H1375.46V58.444ZM1331.85 59.1558L1323.79 72.2118L1326.34 73.7882L1334.4 60.7322L1331.85 59.1558ZM1325.06 71.5H1302.5V74.5H1325.06V71.5ZM1303.77 73.8011L1348.89 2.37712L1346.36 0.774881L1301.24 72.1989L1303.77 73.8011ZM1347.62 3.076H1375.75V0.0759983H1347.62V3.076ZM1374.35 2.10929L1401.52 73.5333L1404.32 72.4667L1377.15 1.04271L1374.35 2.10929ZM1402.92 71.5H1380.26V74.5H1402.92V71.5ZM1421.74 1.576V0.0759983H1420.46L1420.26 1.34103L1421.74 1.576ZM1443.53 1.576L1445.01 1.81185L1445.29 0.0759983H1443.53V1.576ZM1434.99 55.24L1433.5 55.0042L1433.23 56.74H1434.99V55.24ZM1482.79 55.24L1484.28 55.4723L1484.55 53.74H1482.79V55.24ZM1480.01 73V74.5H1481.29L1481.49 73.2323L1480.01 73ZM1410.41 73L1408.93 72.765L1408.65 74.5H1410.41V73ZM1421.74 3.076H1443.53V0.0759983H1421.74V3.076ZM1442.05 1.34015L1433.5 55.0042L1436.47 55.4758L1445.01 1.81185L1442.05 1.34015ZM1434.99 56.74H1482.79V53.74H1434.99V56.74ZM1481.31 55.0077L1478.53 72.7677L1481.49 73.2323L1484.28 55.4723L1481.31 55.0077ZM1480.01 71.5H1410.41V74.5H1480.01V71.5ZM1411.89 73.235L1423.22 1.81096L1420.26 1.34103L1408.93 72.765L1411.89 73.235ZM1536.34 1.576V0.0759983H1535.06L1534.86 1.34103L1536.34 1.576ZM1558.13 1.576L1559.61 1.81185L1559.89 0.0759983H1558.13V1.576ZM1549.59 55.24L1548.1 55.0042L1547.83 56.74H1549.59V55.24ZM1597.39 55.24L1598.88 55.4723L1599.15 53.74H1597.39V55.24ZM1594.61 73V74.5H1595.89L1596.09 73.2323L1594.61 73ZM1525.01 73L1523.53 72.765L1523.25 74.5H1525.01V73ZM1536.34 3.076H1558.13V0.0759983H1536.34V3.076ZM1556.65 1.34015L1548.1 55.0042L1551.07 55.4758L1559.61 1.81185L1556.65 1.34015ZM1549.59 56.74H1597.39V53.74H1549.59V56.74ZM1595.91 55.0077L1593.13 72.7677L1596.09 73.2323L1598.88 55.4723L1595.91 55.0077ZM1594.61 71.5H1525.01V74.5H1594.61V71.5ZM1526.49 73.235L1537.82 1.81096L1534.86 1.34103L1523.53 72.765L1526.49 73.235ZM1605.06 33.256L1606.55 33.4624L1606.55 33.4566L1605.06 33.256ZM1703.37 29.512V31.012H1704.66L1704.85 29.7302L1703.37 29.512ZM1680.23 29.512L1678.74 29.7147L1678.92 31.012H1680.23V29.512ZM1628.2 34.504L1626.72 34.2701L1626.72 34.2701L1628.2 34.504ZM1678.02 44.2V42.7H1677.02L1676.64 43.6289L1678.02 44.2ZM1701.16 44.2L1702.65 44.3396L1702.81 42.7H1701.16V44.2ZM1652.49 72.748H1648.65V75.748H1652.49V72.748ZM1648.65 72.748C1631.1 72.748 1620.49 68.0242 1614.27 61.8435C1608.03 55.6539 1605.99 47.7978 1605.99 41.128H1602.99C1602.99 48.3782 1605.21 57.0821 1612.15 63.9725C1619.1 70.8718 1630.57 75.748 1648.65 75.748V72.748ZM1605.99 41.128C1605.99 38.8894 1606.08 36.8465 1606.55 33.4623L1603.58 33.0496C1603.09 36.5775 1602.99 38.7586 1602.99 41.128H1605.99ZM1606.55 33.4566C1607.33 27.6425 1609.86 19.7795 1616.91 13.3651C1623.94 6.96094 1635.66 1.828 1655.17 1.828V-1.172C1635.13 -1.172 1622.62 4.11105 1614.89 11.1469C1607.17 18.1725 1604.42 26.7735 1603.58 33.0554L1606.55 33.4566ZM1655.17 1.828H1658.92V-1.172H1655.17V1.828ZM1658.92 1.828C1679.41 1.828 1690.42 6.63413 1696.14 12.3128C1701.84 17.9649 1702.55 24.7364 1701.88 29.2938L1704.85 29.7302C1705.62 24.4956 1704.8 16.6751 1698.26 10.1832C1691.74 3.71786 1679.8 -1.172 1658.92 -1.172V1.828ZM1703.37 28.012H1680.23V31.012H1703.37V28.012ZM1681.72 29.3093C1681.54 28.046 1680.89 24.6517 1677.2 21.6108C1673.55 18.5979 1667.13 16.108 1655.85 16.108V19.108C1666.74 19.108 1672.37 21.5141 1675.29 23.9252C1678.18 26.3083 1678.63 28.866 1678.74 29.7147L1681.72 29.3093ZM1655.85 16.108C1645.4 16.108 1638.41 18.5624 1633.86 22.1409C1629.3 25.7275 1627.34 30.319 1626.72 34.2701L1629.68 34.7379C1630.21 31.393 1631.85 27.5365 1635.71 24.4991C1639.59 21.4536 1645.85 19.108 1655.85 19.108V16.108ZM1626.72 34.2701C1626.42 36.1828 1626.31 37.7981 1626.31 39.592H1629.31C1629.31 37.9299 1629.41 36.4732 1629.68 34.7379L1626.72 34.2701ZM1626.31 39.592C1626.31 44.1806 1627.77 48.9502 1631.78 52.5524C1635.77 56.1361 1642.09 58.372 1651.43 58.372V55.372C1642.53 55.372 1637.04 53.2399 1633.78 50.3196C1630.55 47.4178 1629.31 43.5474 1629.31 39.592H1626.31ZM1651.43 58.372C1663 58.372 1669.84 55.5488 1673.9 52.3226C1677.97 49.0904 1679.08 45.5773 1679.41 44.7711L1676.64 43.6289C1676.3 44.4547 1675.43 47.2776 1672.04 49.9734C1668.64 52.6752 1662.51 55.372 1651.43 55.372V58.372ZM1678.02 45.7H1701.16V42.7H1678.02V45.7ZM1699.67 44.0604C1699.21 48.9142 1697.1 56.0332 1690.38 61.9497C1683.65 67.8666 1672.12 72.748 1652.49 72.748V75.748C1672.6 75.748 1684.92 70.7414 1692.36 64.2023C1699.79 57.6628 1702.15 49.7578 1702.65 44.3396L1699.67 44.0604ZM1708.24 73L1706.75 72.765L1706.48 74.5H1708.24V73ZM1719.56 1.576V0.0759983H1718.28L1718.08 1.34103L1719.56 1.576ZM1808.94 41.128L1810.42 41.3846L1810.42 41.3829L1808.94 41.128ZM1757.2 73L1757.2 71.5H1757.2V73ZM1738.57 18.472V16.972H1737.29L1737.09 18.2359L1738.57 18.472ZM1732.62 55.816L1731.14 55.5799L1730.86 57.316H1732.62V55.816ZM1786.19 38.632L1784.72 38.3378L1784.71 38.3452L1786.19 38.632ZM1709.72 73.235L1721.04 1.81096L1718.08 1.34103L1706.75 72.765L1709.72 73.235ZM1719.56 3.076H1762.67V0.0759983H1719.56V3.076ZM1762.67 3.076C1780.98 3.076 1792.35 6.81567 1799.11 12.2273C1805.82 17.5915 1808.21 24.7681 1808.21 32.2H1811.21C1811.21 24.0799 1808.56 15.9444 1800.98 9.8847C1793.47 3.87233 1781.31 0.0759983 1762.67 0.0759983V3.076ZM1808.21 32.2C1808.21 35.2764 1807.93 38.167 1807.46 40.8731L1810.42 41.3829C1810.91 38.5209 1811.21 35.4595 1811.21 32.2H1808.21ZM1807.46 40.8714C1806.3 47.5378 1803.29 55.1565 1795.91 61.1171C1788.52 67.0867 1776.56 71.5475 1757.2 71.5L1757.19 74.5C1777 74.5485 1789.71 69.9853 1797.8 63.4509C1805.9 56.9075 1809.17 48.5422 1810.42 41.3846L1807.46 40.8714ZM1757.2 71.5H1708.24V74.5H1757.2V71.5ZM1737.09 18.2359L1731.14 55.5799L1734.1 56.0521L1740.05 18.7081L1737.09 18.2359ZM1732.62 57.316H1755.37V54.316H1732.62V57.316ZM1755.37 57.316C1767.74 57.316 1775.45 54.8364 1780.29 51.1941C1785.16 47.5216 1786.9 42.8283 1787.66 38.9188L1784.71 38.3452C1784.04 41.8277 1782.56 45.7264 1778.48 48.7979C1774.36 51.8996 1767.39 54.316 1755.37 54.316V57.316ZM1787.66 38.9262C1787.96 37.4182 1788.17 35.6845 1788.17 34.312H1785.17C1785.17 35.4355 1784.99 36.9658 1784.72 38.3378L1787.66 38.9262ZM1788.17 34.312C1788.17 30.3863 1787.1 25.9286 1782.98 22.5034C1778.93 19.1312 1772.18 16.972 1761.32 16.972V19.972C1771.87 19.972 1777.79 22.0848 1781.06 24.8086C1784.27 27.4794 1785.17 30.9417 1785.17 34.312H1788.17ZM1761.32 16.972H1738.57V19.972H1761.32V16.972ZM1848.91 47.656V46.156H1847.57L1847.42 47.4873L1848.91 47.656ZM1871.47 47.656L1872.97 47.6241L1872.93 46.156H1871.47V47.656ZM1897.29 44.2L1897.33 42.7006L1897.33 42.7004L1897.29 44.2ZM1885.39 43.912L1885.42 42.4124L1885.42 42.4124L1885.39 43.912ZM1853.9 19.336L1852.41 19.1178L1852.41 19.1239L1853.9 19.336ZM1938.28 23.848V25.348H1939.61L1939.77 24.0296L1938.28 23.848ZM1915.82 23.848L1914.33 23.9973L1914.46 25.348H1915.82V23.848ZM1890.67 27.592L1890.69 26.0922L1890.69 26.0922L1890.67 27.592ZM1902.19 27.784L1902.16 29.2838L1902.16 29.2838L1902.19 27.784ZM1936.17 53.224L1937.64 53.5234L1937.64 53.5182L1936.17 53.224ZM1886.63 72.748C1868.71 72.748 1859.5 68.6756 1854.86 63.7408C1850.25 58.8332 1849.84 52.7269 1850.4 47.8247L1847.42 47.4873C1846.82 52.7611 1847.18 59.9508 1852.67 65.7952C1858.14 71.6124 1868.37 75.748 1886.63 75.748V72.748ZM1848.91 49.156H1871.47V46.156H1848.91V49.156ZM1869.97 47.6879C1870.02 50.0734 1870.4 53.4485 1873.48 56.1409C1876.48 58.7678 1881.76 60.484 1890.86 60.484V57.484C1882.01 57.484 1877.64 55.7922 1875.45 53.8831C1873.35 52.0395 1873.01 49.7506 1872.97 47.6241L1869.97 47.6879ZM1890.86 60.484H1892.01V57.484H1890.86V60.484ZM1892.01 60.484C1902.04 60.484 1907.72 59.2691 1910.92 57.3845C1912.56 56.4136 1913.58 55.2484 1914.16 53.9779C1914.73 52.7333 1914.82 51.5104 1914.82 50.536H1911.82C1911.82 51.3376 1911.74 52.0587 1911.44 52.7311C1911.14 53.3776 1910.58 54.1023 1909.39 54.7995C1906.93 56.2509 1901.95 57.484 1892.01 57.484V60.484ZM1914.82 50.536C1914.82 49.4527 1914.68 48.3089 1914.08 47.2486C1913.48 46.1659 1912.51 45.339 1911.16 44.7122C1908.58 43.5101 1904.28 42.8922 1897.33 42.7006L1897.25 45.6994C1904.22 45.8918 1907.94 46.5219 1909.89 47.4318C1910.81 47.8609 1911.24 48.3061 1911.47 48.7114C1911.7 49.1391 1911.82 49.6993 1911.82 50.536H1914.82ZM1897.33 42.7004L1885.42 42.4124L1885.35 45.4116L1897.25 45.6996L1897.33 42.7004ZM1885.42 42.4124C1873.13 42.1276 1865.56 39.6823 1861.1 36.2008C1856.71 32.7818 1855.11 28.2063 1855.11 23.08H1852.11C1852.11 28.8977 1853.97 34.4502 1859.25 38.5672C1864.46 42.6217 1872.78 45.1204 1885.35 45.4116L1885.42 42.4124ZM1855.11 23.08C1855.11 21.8237 1855.2 20.8406 1855.38 19.5481L1852.41 19.1239C1852.21 20.5194 1852.11 21.6483 1852.11 23.08H1855.11ZM1855.38 19.5542C1856.05 15.0124 1858.01 10.7035 1863.5 7.45035C1869.1 4.12655 1878.52 1.828 1894.31 1.828V-1.172C1878.33 -1.172 1868.26 1.13744 1861.97 4.86965C1855.55 8.67247 1853.19 13.8676 1852.41 19.1178L1855.38 19.5542ZM1894.31 1.828H1900.46V-1.172H1894.31V1.828ZM1900.46 1.828C1916.86 1.828 1926.25 4.74938 1931.36 8.83155C1936.34 12.8138 1937.47 18.1031 1936.79 23.6664L1939.77 24.0296C1940.53 17.7849 1939.27 11.3142 1933.23 6.48844C1927.32 1.76261 1917.08 -1.172 1900.46 -1.172V1.828ZM1938.28 22.348H1915.82V25.348H1938.28V22.348ZM1917.31 23.6987C1917.16 22.144 1916.83 19.4213 1913.79 17.2314C1910.9 15.1491 1905.78 13.708 1896.62 13.708V16.708C1905.6 16.708 1909.93 18.1469 1912.04 19.6646C1913.99 21.0747 1914.19 22.672 1914.33 23.9973L1917.31 23.6987ZM1896.62 13.708H1895.27V16.708H1896.62V13.708ZM1895.27 13.708C1886.33 13.708 1881.29 14.5845 1878.45 16.0024C1876.98 16.7373 1876.02 17.6561 1875.47 18.7362C1874.93 19.7918 1874.86 20.8398 1874.86 21.64H1877.86C1877.86 21.0001 1877.93 20.5242 1878.14 20.1038C1878.34 19.7079 1878.77 19.1987 1879.79 18.6856C1881.95 17.6075 1886.37 16.708 1895.27 16.708V13.708ZM1874.86 21.64C1874.86 22.4312 1874.96 23.3833 1875.43 24.3381C1875.91 25.3114 1876.71 26.1606 1877.91 26.8514C1880.21 28.1822 1884.12 28.9952 1890.64 29.0918L1890.69 26.0922C1884.25 25.9968 1881.01 25.1778 1879.4 24.2526C1878.65 23.8154 1878.3 23.3806 1878.12 23.0159C1877.93 22.6327 1877.86 22.1928 1877.86 21.64H1874.86ZM1890.64 29.0918L1902.16 29.2838L1902.21 26.2842L1890.69 26.0922L1890.64 29.0918ZM1902.16 29.2838C1914.78 29.475 1923.05 31.1795 1928.14 34.2737C1930.65 35.7995 1932.38 37.6578 1933.49 39.8553C1934.61 42.0654 1935.15 44.7053 1935.15 47.848H1938.15C1938.15 44.3667 1937.55 41.2346 1936.17 38.5007C1934.78 35.7542 1932.64 33.4965 1929.7 31.7103C1923.9 28.1805 1914.94 26.477 1902.21 26.2842L1902.16 29.2838ZM1935.15 47.848C1935.15 49.499 1934.96 51.606 1934.7 52.9298L1937.64 53.5182C1937.95 51.962 1938.15 49.653 1938.15 47.848H1935.15ZM1934.7 52.9246C1933.69 57.8893 1931.77 62.7014 1926.06 66.361C1920.24 70.0901 1910.29 72.748 1892.87 72.748V75.748C1910.5 75.748 1921.14 73.0779 1927.68 68.887C1934.33 64.6266 1936.54 58.9267 1937.64 53.5234L1934.7 52.9246ZM1892.87 72.748H1886.63V75.748H1892.87V72.748ZM1947.14 33.256L1948.62 33.4624L1948.62 33.4566L1947.14 33.256ZM2045.44 29.512V31.012H2046.74L2046.93 29.7302L2045.44 29.512ZM2022.31 29.512L2020.82 29.7147L2021 31.012H2022.31V29.512ZM1970.27 34.504L1968.79 34.2701L1968.79 34.2701L1970.27 34.504ZM2020.1 44.2V42.7H2019.09L2018.71 43.6289L2020.1 44.2ZM2043.23 44.2L2044.73 44.3396L2044.88 42.7H2043.23V44.2ZM1994.56 72.748H1990.72V75.748H1994.56V72.748ZM1990.72 72.748C1973.18 72.748 1962.57 68.0242 1956.34 61.8435C1950.11 55.6539 1948.06 47.7978 1948.06 41.128H1945.06C1945.06 48.3782 1947.29 57.0821 1954.23 63.9725C1961.18 70.8718 1972.65 75.748 1990.72 75.748V72.748ZM1948.06 41.128C1948.06 38.8894 1948.15 36.8465 1948.62 33.4623L1945.65 33.0496C1945.16 36.5775 1945.06 38.7586 1945.06 41.128H1948.06ZM1948.62 33.4566C1949.41 27.6425 1951.94 19.7795 1958.98 13.3651C1966.02 6.96094 1977.74 1.828 1997.25 1.828V-1.172C1977.21 -1.172 1964.69 4.11105 1956.96 11.1469C1949.25 18.1725 1946.5 26.7735 1945.65 33.0554L1948.62 33.4566ZM1997.25 1.828H2000.99V-1.172H1997.25V1.828ZM2000.99 1.828C2021.49 1.828 2032.49 6.63413 2038.22 12.3128C2043.91 17.9649 2044.63 24.7364 2043.96 29.2938L2046.93 29.7302C2047.7 24.4956 2046.87 16.6751 2040.33 10.1832C2033.81 3.71786 2021.88 -1.172 2000.99 -1.172V1.828ZM2045.44 28.012H2022.31V31.012H2045.44V28.012ZM2023.79 29.3093C2023.62 28.046 2022.96 24.6517 2019.28 21.6108C2015.62 18.5979 2009.21 16.108 1997.92 16.108V19.108C2008.81 19.108 2014.44 21.5141 2017.37 23.9252C2020.26 26.3083 2020.7 28.866 2020.82 29.7147L2023.79 29.3093ZM1997.92 16.108C1987.47 16.108 1980.49 18.5624 1975.93 22.1409C1971.37 25.7275 1969.42 30.319 1968.79 34.2701L1971.76 34.7379C1972.28 31.393 1973.93 27.5365 1977.79 24.4991C1981.66 21.4536 1987.93 19.108 1997.92 19.108V16.108ZM1968.79 34.2701C1968.49 36.1828 1968.39 37.7981 1968.39 39.592H1971.39C1971.39 37.9299 1971.48 36.4732 1971.76 34.7379L1968.79 34.2701ZM1968.39 39.592C1968.39 44.1806 1969.84 48.9502 1973.86 52.5524C1977.85 56.1361 1984.17 58.372 1993.51 58.372V55.372C1984.61 55.372 1979.11 53.2399 1975.86 50.3196C1972.63 47.4178 1971.39 43.5474 1971.39 39.592H1968.39ZM1993.51 58.372C2005.08 58.372 2011.92 55.5488 2015.98 52.3226C2020.05 49.0904 2021.15 45.5773 2021.48 44.7711L2018.71 43.6289C2018.37 44.4547 2017.51 47.2776 2014.11 49.9734C2010.71 52.6752 2004.59 55.372 1993.51 55.372V58.372ZM2020.1 45.7H2043.23V42.7H2020.1V45.7ZM2041.74 44.0604C2041.29 48.9142 2039.18 56.0332 2032.45 61.9497C2025.72 67.8666 2014.19 72.748 1994.56 72.748V75.748C2014.68 75.748 2027 70.7414 2034.43 64.2023C2041.87 57.6628 2044.22 49.7578 2044.73 44.3396L2041.74 44.0604ZM2078.53 31.816L2077.05 31.5727L2076.77 33.316H2078.53V31.816ZM2080.84 17.8V16.3H2079.56L2079.36 17.5567L2080.84 17.8ZM2076.13 47.656V46.156H2074.85L2074.65 47.4203L2076.13 47.656ZM2072.1 73V74.5H2073.38L2073.58 73.2357L2072.1 73ZM2050.31 73L2048.83 72.765L2048.55 74.5H2050.31V73ZM2061.64 1.576V0.0759983H2060.36L2060.16 1.34103L2061.64 1.576ZM2129.41 36.712L2129 35.2705L2124.17 36.6615L2128.97 38.1452L2129.41 36.712ZM2140.17 52.456L2141.65 52.693L2141.65 52.6876L2140.17 52.456ZM2138.25 64.456L2136.76 64.219L2136.76 64.2321L2138.25 64.456ZM2138.34 72.52L2139.81 72.8142L2139.88 72.4834L2139.8 72.1562L2138.34 72.52ZM2138.25 73V74.5H2139.48L2139.72 73.2942L2138.25 73ZM2116.07 73L2114.73 73.6708L2115.14 74.5H2116.07V73ZM2115.88 68.2L2117.36 68.4388L2117.36 68.4349L2115.88 68.2ZM2117.13 60.328L2115.64 60.0923L2115.64 60.0931L2117.13 60.328ZM2078.53 33.316H2111.75V30.316H2078.53V33.316ZM2111.75 33.316C2115.62 33.316 2118.51 32.2542 2120.46 30.4734C2122.4 28.6903 2123.23 26.3255 2123.23 24.04H2120.23C2120.23 25.5945 2119.68 27.1177 2118.43 28.2626C2117.18 29.4098 2115.08 30.316 2111.75 30.316V33.316ZM2123.23 24.04C2123.23 21.924 2122.61 19.8936 2120.93 18.4238C2119.29 16.9862 2116.88 16.3 2113.77 16.3V19.3C2116.5 19.3 2118.08 19.9098 2118.96 20.6802C2119.8 21.4184 2120.23 22.508 2120.23 24.04H2123.23ZM2113.77 16.3H2080.84V19.3H2113.77V16.3ZM2079.36 17.5567L2077.05 31.5727L2080.01 32.0593L2082.32 18.0433L2079.36 17.5567ZM2074.65 47.4203L2070.62 72.7643L2073.58 73.2357L2077.62 47.8917L2074.65 47.4203ZM2072.1 71.5H2050.31V74.5H2072.1V71.5ZM2051.79 73.235L2063.12 1.81096L2060.16 1.34103L2048.83 72.765L2051.79 73.235ZM2061.64 3.076H2118.28V0.0759983H2061.64V3.076ZM2118.28 3.076C2128.6 3.076 2134.93 5.04768 2138.65 7.91306C2142.3 10.7191 2143.66 14.5457 2143.66 18.856H2146.66C2146.66 13.8543 2145.04 9.04085 2140.48 5.53493C2136 2.08832 2128.89 0.0759983 2118.28 0.0759983V3.076ZM2143.66 18.856C2143.66 28.8179 2135.2 33.4858 2129 35.2705L2129.83 38.1535C2136.3 36.2902 2146.66 30.9741 2146.66 18.856H2143.66ZM2128.97 38.1452C2132.08 39.1039 2134.82 40.6112 2136.61 42.8284C2138.37 44.9945 2139.35 47.9871 2138.68 52.2244L2141.65 52.6876C2142.43 47.7089 2141.29 43.8374 2138.94 40.9396C2136.64 38.0928 2133.28 36.3361 2129.86 35.2788L2128.97 38.1452ZM2138.68 52.219L2136.76 64.219L2139.73 64.693L2141.65 52.693L2138.68 52.219ZM2136.76 64.2321C2136.37 66.8549 2136.31 68.6953 2136.4 70.0657C2136.5 71.4532 2136.75 72.32 2136.89 72.8838L2139.8 72.1562C2139.65 71.568 2139.47 70.9468 2139.39 69.8623C2139.32 68.7607 2139.36 67.1451 2139.73 64.6799L2136.76 64.2321ZM2136.87 72.2258L2136.78 72.7058L2139.72 73.2942L2139.81 72.8142L2136.87 72.2258ZM2138.25 71.5H2116.07V74.5H2138.25V71.5ZM2117.41 72.3292C2117.23 71.9596 2116.9 71.2656 2117.36 68.4388L2114.4 67.9612C2113.89 71.0864 2114.15 72.5044 2114.73 73.6708L2117.41 72.3292ZM2117.36 68.4349L2118.61 60.5629L2115.64 60.0931L2114.4 67.9651L2117.36 68.4349ZM2118.61 60.5637C2119.3 56.1894 2118.92 52.4187 2116.43 49.7915C2113.98 47.2132 2109.88 46.156 2104.26 46.156V49.156C2109.68 49.156 2112.69 50.2108 2114.25 51.8565C2115.77 53.4533 2116.29 56.0186 2115.64 60.0923L2118.61 60.5637ZM2104.26 46.156H2076.13V49.156H2104.26V46.156ZM2161.13 1.576V0.0759983H2159.84L2159.64 1.34103L2161.13 1.576ZM2234.28 1.576L2235.76 1.81264L2236.04 0.0759983H2234.28V1.576ZM2231.69 17.8V19.3H2232.96L2233.17 18.0366L2231.69 17.8ZM2180.04 17.8V16.3H2178.75L2178.56 17.5709L2180.04 17.8ZM2178.41 28.36L2176.92 28.1309L2176.66 29.86H2178.41V28.36ZM2228.9 28.36L2230.38 28.5953L2230.66 26.86H2228.9V28.36ZM2226.31 44.68V46.18H2227.59L2227.79 44.9153L2226.31 44.68ZM2175.81 44.68V43.18H2174.54L2174.33 44.4373L2175.81 44.68ZM2173.89 56.392L2172.41 56.1493L2172.13 57.892H2173.89V56.392ZM2226.41 56.392L2227.89 56.6233L2228.16 54.892H2226.41V56.392ZM2223.81 73V74.5H2225.1L2225.3 73.2313L2223.81 73ZM2149.8 73L2148.32 72.765L2148.04 74.5H2149.8V73ZM2161.13 3.076H2234.28V0.0759983H2161.13V3.076ZM2232.8 1.33935L2230.2 17.5634L2233.17 18.0366L2235.76 1.81264L2232.8 1.33935ZM2231.69 16.3H2180.04V19.3H2231.69V16.3ZM2178.56 17.5709L2176.92 28.1309L2179.89 28.5891L2181.52 18.0291L2178.56 17.5709ZM2178.41 29.86H2228.9V26.86H2178.41V29.86ZM2227.42 28.1247L2224.83 44.4447L2227.79 44.9153L2230.38 28.5953L2227.42 28.1247ZM2226.31 43.18H2175.81V46.18H2226.31V43.18ZM2174.33 44.4373L2172.41 56.1493L2175.37 56.6347L2177.29 44.9227L2174.33 44.4373ZM2173.89 57.892H2226.41V54.892H2173.89V57.892ZM2224.92 56.1607L2222.33 72.7687L2225.3 73.2313L2227.89 56.6233L2224.92 56.1607ZM2223.81 71.5H2149.8V74.5H2223.81V71.5ZM2151.28 73.235L2162.61 1.81096L2159.64 1.34103L2148.32 72.765L2151.28 73.235ZM2248.52 1.576V0.0759983H2247.24L2247.04 1.34103L2248.52 1.576ZM2321.67 1.576L2323.15 1.81264L2323.43 0.0759983H2321.67V1.576ZM2319.08 17.8V19.3H2320.36L2320.56 18.0366L2319.08 17.8ZM2267.43 17.8V16.3H2266.15L2265.95 17.5709L2267.43 17.8ZM2265.8 28.36L2264.32 28.1309L2264.05 29.86H2265.8V28.36ZM2316.3 28.36L2317.78 28.5953L2318.05 26.86H2316.3V28.36ZM2313.7 44.68V46.18H2314.98L2315.18 44.9153L2313.7 44.68ZM2263.21 44.68V43.18H2261.93L2261.73 44.4373L2263.21 44.68ZM2261.29 56.392L2259.81 56.1493L2259.52 57.892H2261.29V56.392ZM2313.8 56.392L2315.28 56.6233L2315.55 54.892H2313.8V56.392ZM2311.21 73V74.5H2312.49L2312.69 73.2313L2311.21 73ZM2237.19 73L2235.71 72.765L2235.43 74.5H2237.19V73ZM2248.52 3.076H2321.67V0.0759983H2248.52V3.076ZM2320.19 1.33935L2317.6 17.5634L2320.56 18.0366L2323.15 1.81264L2320.19 1.33935ZM2319.08 16.3H2267.43V19.3H2319.08V16.3ZM2265.95 17.5709L2264.32 28.1309L2267.28 28.5891L2268.91 18.0291L2265.95 17.5709ZM2265.8 29.86H2316.3V26.86H2265.8V29.86ZM2314.81 28.1247L2312.22 44.4447L2315.18 44.9153L2317.78 28.5953L2314.81 28.1247ZM2313.7 43.18H2263.21V46.18H2313.7V43.18ZM2261.73 44.4373L2259.81 56.1493L2262.77 56.6347L2264.69 44.9227L2261.73 44.4373ZM2261.29 57.892H2313.8V54.892H2261.29V57.892ZM2312.32 56.1607L2309.73 72.7687L2312.69 73.2313L2315.28 56.6233L2312.32 56.1607ZM2311.21 71.5H2237.19V74.5H2311.21V71.5ZM2238.67 73.235L2250 1.81096L2247.04 1.34103L2235.71 72.765L2238.67 73.235ZM2335.91 1.576V0.0759983H2334.63L2334.43 1.34103L2335.91 1.576ZM2360.2 1.576L2361.38 0.642555L2360.92 0.0759983H2360.2V1.576ZM2396.68 47.464L2395.51 48.3974L2397.63 51.0722L2398.16 47.6965L2396.68 47.464ZM2403.88 1.576V0.0759983H2402.6L2402.4 1.34349L2403.88 1.576ZM2425.39 1.576L2426.87 1.81096L2427.14 0.0759983H2425.39V1.576ZM2414.06 73V74.5H2415.34L2415.54 73.235L2414.06 73ZM2392.65 73L2391.48 73.9433L2391.93 74.5H2392.65V73ZM2353.67 24.808L2354.84 23.8647L2352.72 21.2395L2352.19 24.5748L2353.67 24.808ZM2346.09 73V74.5H2347.37L2347.57 73.2332L2346.09 73ZM2324.59 73L2323.1 72.765L2322.83 74.5H2324.59V73ZM2335.91 3.076H2360.2V0.0759983H2335.91V3.076ZM2359.03 2.50944L2395.51 48.3974L2397.86 46.5306L2361.38 0.642555L2359.03 2.50944ZM2398.16 47.6965L2405.36 1.80851L2402.4 1.34349L2395.2 47.2315L2398.16 47.6965ZM2403.88 3.076H2425.39V0.0759983H2403.88V3.076ZM2423.9 1.34103L2412.58 72.765L2415.54 73.235L2426.87 1.81096L2423.9 1.34103ZM2414.06 71.5H2392.65V74.5H2414.06V71.5ZM2393.82 72.0567L2354.84 23.8647L2352.51 25.7513L2391.48 73.9433L2393.82 72.0567ZM2352.19 24.5748L2344.61 72.7668L2347.57 73.2332L2355.15 25.0412L2352.19 24.5748ZM2346.09 71.5H2324.59V74.5H2346.09V71.5ZM2326.07 73.235L2337.39 1.81096L2334.43 1.34103L2323.1 72.765L2326.07 73.235ZM2429.33 47.656V46.156H2427.99L2427.84 47.4873L2429.33 47.656ZM2451.89 47.656L2453.39 47.6241L2453.36 46.156H2451.89V47.656ZM2477.72 44.2L2477.76 42.7006L2477.75 42.7004L2477.72 44.2ZM2465.81 43.912L2465.85 42.4124L2465.85 42.4124L2465.81 43.912ZM2434.32 19.336L2432.84 19.1178L2432.84 19.1239L2434.32 19.336ZM2518.71 23.848V25.348H2520.04L2520.2 24.0296L2518.71 23.848ZM2496.24 23.848L2494.75 23.9973L2494.89 25.348H2496.24V23.848ZM2471.09 27.592L2471.12 26.0922L2471.11 26.0922L2471.09 27.592ZM2482.61 27.784L2482.59 29.2838L2482.59 29.2838L2482.61 27.784ZM2516.6 53.224L2518.07 53.5234L2518.07 53.5182L2516.6 53.224ZM2467.06 72.748C2449.14 72.748 2439.92 68.6756 2435.28 63.7408C2430.67 58.8332 2430.27 52.7269 2430.82 47.8247L2427.84 47.4873C2427.24 52.7611 2427.61 59.9508 2433.1 65.7952C2438.57 71.6124 2448.79 75.748 2467.06 75.748V72.748ZM2429.33 49.156H2451.89V46.156H2429.33V49.156ZM2450.39 47.6879C2450.44 50.0734 2450.83 53.4485 2453.9 56.1409C2456.91 58.7678 2462.18 60.484 2471.28 60.484V57.484C2462.43 57.484 2458.06 55.7922 2455.88 53.8831C2453.77 52.0395 2453.44 49.7506 2453.39 47.6241L2450.39 47.6879ZM2471.28 60.484H2472.44V57.484H2471.28V60.484ZM2472.44 60.484C2482.46 60.484 2488.14 59.2691 2491.34 57.3845C2492.99 56.4136 2494.01 55.2484 2494.59 53.9779C2495.16 52.7333 2495.25 51.5104 2495.25 50.536H2492.25C2492.25 51.3376 2492.17 52.0587 2491.86 52.7311C2491.57 53.3776 2491 54.1023 2489.82 54.7995C2487.35 56.2509 2482.38 57.484 2472.44 57.484V60.484ZM2495.25 50.536C2495.25 49.4527 2495.1 48.3089 2494.51 47.2486C2493.91 46.1659 2492.93 45.339 2491.58 44.7122C2489 43.5101 2484.7 42.8922 2477.76 42.7006L2477.67 45.6994C2484.65 45.8918 2488.36 46.5219 2490.32 47.4318C2491.24 47.8609 2491.66 48.3061 2491.89 48.7114C2492.13 49.1391 2492.25 49.6993 2492.25 50.536H2495.25ZM2477.75 42.7004L2465.85 42.4124L2465.78 45.4116L2477.68 45.6996L2477.75 42.7004ZM2465.85 42.4124C2453.55 42.1276 2445.99 39.6823 2441.52 36.2008C2437.13 32.7818 2435.54 28.2063 2435.54 23.08H2432.54C2432.54 28.8977 2434.39 34.4502 2439.68 38.5672C2444.88 42.6217 2453.2 45.1204 2465.78 45.4116L2465.85 42.4124ZM2435.54 23.08C2435.54 21.8237 2435.62 20.8406 2435.81 19.5481L2432.84 19.1239C2432.64 20.5194 2432.54 21.6483 2432.54 23.08H2435.54ZM2435.81 19.5542C2436.48 15.0124 2438.43 10.7035 2443.92 7.45035C2449.53 4.12655 2458.95 1.828 2474.74 1.828V-1.172C2458.75 -1.172 2448.69 1.13744 2442.39 4.86965C2435.98 8.67247 2433.61 13.8676 2432.84 19.1178L2435.81 19.5542ZM2474.74 1.828H2480.88V-1.172H2474.74V1.828ZM2480.88 1.828C2497.29 1.828 2506.68 4.74938 2511.78 8.83155C2516.76 12.8138 2517.9 18.1031 2517.22 23.6664L2520.2 24.0296C2520.96 17.7849 2519.69 11.3142 2513.66 6.48844C2507.75 1.76261 2497.51 -1.172 2480.88 -1.172V1.828ZM2518.71 22.348H2496.24V25.348H2518.71V22.348ZM2497.74 23.6987C2497.58 22.144 2497.25 19.4213 2494.22 17.2314C2491.33 15.1491 2486.21 13.708 2477.04 13.708V16.708C2486.02 16.708 2490.36 18.1469 2492.46 19.6646C2494.42 21.0747 2494.62 22.672 2494.75 23.9973L2497.74 23.6987ZM2477.04 13.708H2475.7V16.708H2477.04V13.708ZM2475.7 13.708C2466.75 13.708 2461.71 14.5845 2458.88 16.0024C2457.41 16.7373 2456.45 17.6561 2455.9 18.7362C2455.36 19.7918 2455.29 20.8398 2455.29 21.64H2458.29C2458.29 21.0001 2458.35 20.5242 2458.57 20.1038C2458.77 19.7079 2459.19 19.1987 2460.22 18.6856C2462.37 17.6075 2466.79 16.708 2475.7 16.708V13.708ZM2455.29 21.64C2455.29 22.4312 2455.38 23.3833 2455.85 24.3381C2456.33 25.3114 2457.13 26.1606 2458.33 26.8514C2460.64 28.1822 2464.55 28.9952 2471.07 29.0918L2471.11 26.0922C2464.68 25.9968 2461.43 25.1778 2459.83 24.2526C2459.07 23.8154 2458.73 23.3806 2458.55 23.0159C2458.36 22.6327 2458.29 22.1928 2458.29 21.64H2455.29ZM2471.07 29.0918L2482.59 29.2838L2482.64 26.2842L2471.12 26.0922L2471.07 29.0918ZM2482.59 29.2838C2495.2 29.475 2503.48 31.1795 2508.57 34.2737C2511.08 35.7995 2512.8 37.6578 2513.92 39.8553C2515.03 42.0654 2515.58 44.7053 2515.58 47.848H2518.58C2518.58 44.3667 2517.98 41.2346 2516.59 38.5007C2515.2 35.7542 2513.06 33.4965 2510.13 31.7103C2504.32 28.1805 2495.36 26.477 2482.63 26.2842L2482.59 29.2838ZM2515.58 47.848C2515.58 49.499 2515.39 51.606 2515.12 52.9298L2518.07 53.5182C2518.38 51.962 2518.58 49.653 2518.58 47.848H2515.58ZM2515.13 52.9246C2514.11 57.8893 2512.2 62.7014 2506.49 66.361C2500.67 70.0901 2490.72 72.748 2473.3 72.748V75.748C2490.92 75.748 2501.56 73.0779 2508.1 68.887C2514.75 64.6266 2516.96 58.9267 2518.07 53.5234L2515.13 52.9246ZM2473.3 72.748H2467.06V75.748H2473.3V72.748Z" fill="#F8F8F8"/>
</svg>
