<svg width="1575" height="75" viewBox="0 0 1575 75" fill="none" xmlns="http://www.w3.org/2000/svg">
<path d="M-844.712 1.576V0.0759983H-845.993L-846.193 1.34103L-844.712 1.576ZM-820.424 1.576L-819.25 0.642555L-819.7 0.0759983H-820.424V1.576ZM-783.944 47.464L-785.118 48.3974L-782.992 51.0722L-782.462 47.6965L-783.944 47.464ZM-776.744 1.576V0.0759983H-778.027L-778.226 1.34349L-776.744 1.576ZM-755.24 1.576L-753.759 1.81096L-753.483 0.0759983H-755.24V1.576ZM-766.568 73V74.5H-765.287L-765.087 73.235L-766.568 73ZM-787.976 73L-789.142 73.9433L-788.692 74.5H-787.976V73ZM-826.952 24.808L-825.786 23.8647L-827.909 21.2395L-828.434 24.5748L-826.952 24.808ZM-834.536 73V74.5H-833.254L-833.054 73.2332L-834.536 73ZM-856.04 73L-857.521 72.765L-857.797 74.5H-856.04V73ZM-844.712 3.076H-820.424V0.0759983H-844.712V3.076ZM-821.598 2.50944L-785.118 48.3974L-782.77 46.5306L-819.25 0.642555L-821.598 2.50944ZM-782.462 47.6965L-775.262 1.80851L-778.226 1.34349L-785.426 47.2315L-782.462 47.6965ZM-776.744 3.076H-755.24V0.0759983H-776.744V3.076ZM-756.721 1.34103L-768.049 72.765L-765.087 73.235L-753.759 1.81096L-756.721 1.34103ZM-766.568 71.5H-787.976V74.5H-766.568V71.5ZM-786.81 72.0567L-825.786 23.8647L-828.118 25.7513L-789.142 73.9433L-786.81 72.0567ZM-828.434 24.5748L-836.018 72.7668L-833.054 73.2332L-825.47 25.0412L-828.434 24.5748ZM-834.536 71.5H-856.04V74.5H-834.536V71.5ZM-854.559 73.235L-843.231 1.81096L-846.193 1.34103L-857.521 72.765L-854.559 73.235ZM-740.349 1.576V0.0759983H-741.63L-741.831 1.34103L-740.349 1.576ZM-667.197 1.576L-665.716 1.81264L-665.439 0.0759983H-667.197V1.576ZM-669.789 17.8V19.3H-668.51L-668.308 18.0366L-669.789 17.8ZM-721.437 17.8V16.3H-722.723L-722.92 17.5709L-721.437 17.8ZM-723.069 28.36L-724.552 28.1309L-724.819 29.86H-723.069V28.36ZM-672.573 28.36L-671.092 28.5953L-670.816 26.86H-672.573V28.36ZM-675.165 44.68V46.18H-673.885L-673.684 44.9153L-675.165 44.68ZM-725.661 44.68V43.18H-726.936L-727.142 44.4373L-725.661 44.68ZM-727.581 56.392L-729.062 56.1493L-729.347 57.892H-727.581V56.392ZM-675.069 56.392L-673.587 56.6233L-673.317 54.892H-675.069V56.392ZM-677.661 73V74.5H-676.377L-676.179 73.2313L-677.661 73ZM-751.677 73L-753.159 72.765L-753.434 74.5H-751.677V73ZM-740.349 3.076H-667.197V0.0759983H-740.349V3.076ZM-668.679 1.33935L-671.271 17.5634L-668.308 18.0366L-665.716 1.81264L-668.679 1.33935ZM-669.789 16.3H-721.437V19.3H-669.789V16.3ZM-722.92 17.5709L-724.552 28.1309L-721.587 28.5891L-719.955 18.0291L-722.92 17.5709ZM-723.069 29.86H-672.573V26.86H-723.069V29.86ZM-674.055 28.1247L-676.647 44.4447L-673.684 44.9153L-671.092 28.5953L-674.055 28.1247ZM-675.165 43.18H-725.661V46.18H-675.165V43.18ZM-727.142 44.4373L-729.062 56.1493L-726.101 56.6347L-724.181 44.9227L-727.142 44.4373ZM-727.581 57.892H-675.069V54.892H-727.581V57.892ZM-676.552 56.1607L-679.144 72.7687L-676.179 73.2313L-673.587 56.6233L-676.552 56.1607ZM-677.661 71.5H-751.677V74.5H-677.661V71.5ZM-750.196 73.235L-738.868 1.81096L-741.831 1.34103L-753.159 72.765L-750.196 73.235ZM-616.956 73V74.5H-615.997L-615.595 73.6301L-616.956 73ZM-641.148 73L-642.599 73.3785L-642.307 74.5H-641.148V73ZM-659.772 1.576V0.0759983H-661.713L-661.223 1.95447L-659.772 1.576ZM-636.732 1.576L-635.273 1.22562L-635.549 0.0759983H-636.732V1.576ZM-624.924 50.728L-626.382 51.0784L-625.353 55.362L-623.554 51.3404L-624.924 50.728ZM-602.94 1.576V0.0759983H-603.912L-604.309 0.963566L-602.94 1.576ZM-579.804 1.576L-578.333 1.28012L-578.575 0.0759983H-579.804V1.576ZM-570.204 49.288L-571.674 49.5839L-570.817 53.845L-568.864 49.9621L-570.204 49.288ZM-546.204 1.576V0.0759983H-547.128L-547.544 0.901945L-546.204 1.576ZM-524.22 1.576L-522.896 2.28216L-521.719 0.0759983H-524.22V1.576ZM-562.332 73V74.5H-561.432L-561.008 73.7062L-562.332 73ZM-584.412 73L-585.878 73.3173L-585.622 74.5H-584.412V73ZM-594.78 25.096L-593.314 24.7787L-594.261 20.4038L-596.141 24.4659L-594.78 25.096ZM-616.956 71.5H-641.148V74.5H-616.956V71.5ZM-639.696 72.6215L-658.32 1.19752L-661.223 1.95447L-642.599 73.3785L-639.696 72.6215ZM-659.772 3.076H-636.732V0.0759983H-659.772V3.076ZM-638.19 1.92638L-626.382 51.0784L-623.465 50.3776L-635.273 1.22562L-638.19 1.92638ZM-623.554 51.3404L-601.57 2.18843L-604.309 0.963566L-626.293 50.1156L-623.554 51.3404ZM-602.94 3.076H-579.804V0.0759983H-602.94V3.076ZM-581.274 1.87188L-571.674 49.5839L-568.733 48.9921L-578.333 1.28012L-581.274 1.87188ZM-568.864 49.9621L-544.864 2.25005L-547.544 0.901945L-571.544 48.6139L-568.864 49.9621ZM-546.204 3.076H-524.22V0.0759983H-546.204V3.076ZM-525.543 0.869839L-563.655 72.2938L-561.008 73.7062L-522.896 2.28216L-525.543 0.869839ZM-562.332 71.5H-584.412V74.5H-562.332V71.5ZM-582.946 72.6827L-593.314 24.7787L-596.246 25.4133L-585.878 73.3173L-582.946 72.6827ZM-596.141 24.4659L-618.317 72.3699L-615.595 73.6301L-593.419 25.7261L-596.141 24.4659ZM-494.371 73L-495.853 72.765L-496.128 74.5H-494.371V73ZM-483.043 1.576V0.0759983H-484.324L-484.525 1.34103L-483.043 1.576ZM-414.499 32.968L-414.896 31.5215L-420.031 32.9311L-414.916 34.4091L-414.499 32.968ZM-463.651 16.648V15.148H-464.934L-465.133 16.4153L-463.651 16.648ZM-465.475 28.264L-466.957 28.0313L-467.229 29.764H-465.475V28.264ZM-467.875 43.432V41.932H-469.157L-469.357 43.1986L-467.875 43.432ZM-470.083 57.448L-471.565 57.2146L-471.838 58.948H-470.083V57.448ZM-492.89 73.235L-481.562 1.81096L-484.525 1.34103L-495.853 72.765L-492.89 73.235ZM-483.043 3.076H-424.483V0.0759983H-483.043V3.076ZM-424.483 3.076C-415.408 3.076 -409.829 4.78612 -406.54 7.34403C-403.331 9.84 -402.079 13.3235 -402.079 17.512H-399.079C-399.079 12.6765 -400.563 8.19199 -404.698 4.97597C-408.754 1.82188 -415.127 0.0759983 -424.483 0.0759983V3.076ZM-402.079 17.512C-402.079 21.9832 -404.075 25.1183 -406.677 27.3391C-409.318 29.5934 -412.57 30.8828 -414.896 31.5215L-414.102 34.4145C-411.533 33.7092 -407.824 32.2626 -404.729 29.6209C-401.595 26.9457 -399.079 23.0248 -399.079 17.512H-402.079ZM-414.916 34.4091C-410.843 35.5857 -403.327 39.5403 -403.327 49.288H-400.327C-400.327 37.5316 -409.516 32.8463 -414.083 31.5269L-414.916 34.4091ZM-403.327 49.288C-403.327 55.6148 -405.174 61.0733 -409.653 64.9818C-414.17 68.9225 -421.602 71.5 -433.219 71.5V74.5C-421.221 74.5 -412.957 71.8455 -407.681 67.2422C-402.368 62.6067 -400.327 56.2092 -400.327 49.288H-403.327ZM-433.219 71.5H-494.371V74.5H-433.219V71.5ZM-431.491 29.764C-427.969 29.764 -425.422 28.8282 -423.746 27.2589C-422.069 25.6885 -421.447 23.6541 -421.447 21.832H-424.447C-424.447 22.9859 -424.834 24.1675 -425.796 25.0691C-426.761 25.9718 -428.486 26.764 -431.491 26.764V29.764ZM-421.447 21.832C-421.447 20.2375 -421.805 18.4479 -423.258 17.0973C-424.679 15.7766 -426.86 15.148 -429.859 15.148V18.148C-427.195 18.148 -425.919 18.7194 -425.3 19.2947C-424.714 19.8401 -424.447 20.6425 -424.447 21.832H-421.447ZM-429.859 15.148H-463.651V18.148H-429.859V15.148ZM-465.133 16.4153L-466.957 28.0313L-463.993 28.4967L-462.169 16.8807L-465.133 16.4153ZM-465.475 29.764H-431.491V26.764H-465.475V29.764ZM-434.275 58.948C-429.977 58.948 -427.086 57.6423 -425.286 55.6776C-423.515 53.7461 -422.983 51.3787 -422.983 49.576H-425.983C-425.983 50.8453 -426.363 52.4139 -427.497 53.6504C-428.6 54.8537 -430.605 55.948 -434.275 55.948V58.948ZM-422.983 49.576C-422.983 47.8682 -423.326 45.8562 -424.869 44.2969C-426.407 42.7425 -428.846 41.932 -432.355 41.932V44.932C-429.241 44.932 -427.743 45.6575 -427.001 46.4071C-426.264 47.1518 -425.983 48.2118 -425.983 49.576H-422.983ZM-432.355 41.932H-467.875V44.932H-432.355V41.932ZM-469.357 43.1986L-471.565 57.2146L-468.602 57.6814L-466.394 43.6654L-469.357 43.1986ZM-470.083 58.948H-434.275V55.948H-470.083V58.948ZM-383.087 1.576V0.0759983H-384.368L-384.568 1.34103L-383.087 1.576ZM-361.295 1.576L-359.814 1.81185L-359.537 0.0759983H-361.295V1.576ZM-369.839 55.24L-371.32 55.0042L-371.597 56.74H-369.839V55.24ZM-322.031 55.24L-320.549 55.4723L-320.278 53.74H-322.031V55.24ZM-324.815 73V74.5H-323.532L-323.333 73.2323L-324.815 73ZM-394.415 73L-395.896 72.765L-396.172 74.5H-394.415V73ZM-383.087 3.076H-361.295V0.0759983H-383.087V3.076ZM-362.776 1.34015L-371.32 55.0042L-368.358 55.4758L-359.814 1.81185L-362.776 1.34015ZM-369.839 56.74H-322.031V53.74H-369.839V56.74ZM-323.513 55.0077L-326.297 72.7677L-323.333 73.2323L-320.549 55.4723L-323.513 55.0077ZM-324.815 71.5H-394.415V74.5H-324.815V71.5ZM-392.934 73.235L-381.606 1.81096L-384.568 1.34103L-395.896 72.765L-392.934 73.235ZM-312.996 35.464L-311.515 35.701L-311.514 35.699L-312.996 35.464ZM-307.62 1.576V0.0759983H-308.901L-309.101 1.34098L-307.62 1.576ZM-285.732 1.576L-284.25 1.81061L-283.976 0.0759983H-285.732V1.576ZM-290.916 34.312L-289.434 34.5467L-289.434 34.5466L-290.916 34.312ZM-245.988 34.888L-244.506 35.1244L-244.506 35.1228L-245.988 34.888ZM-240.708 1.576V0.0759983H-241.989L-242.189 1.34118L-240.708 1.576ZM-218.82 1.576L-217.338 1.81121L-217.063 0.0759983H-218.82V1.576ZM-224.292 36.04L-225.773 35.8048L-225.773 35.8056L-224.292 36.04ZM-269.124 72.556H-272.388V75.556H-269.124V72.556ZM-272.388 72.556C-290.474 72.556 -300.696 66.6399 -306.176 59.2653C-311.704 51.8263 -312.622 42.6194 -311.515 35.701L-314.477 35.227C-315.674 42.7086 -314.72 52.7977 -308.584 61.0547C-302.4 69.3761 -291.166 75.556 -272.388 75.556V72.556ZM-311.514 35.699L-306.138 1.81102L-309.101 1.34098L-314.477 35.229L-311.514 35.699ZM-307.62 3.076H-285.732V0.0759983H-307.62V3.076ZM-287.213 1.34139L-292.397 34.0774L-289.434 34.5466L-284.25 1.81061L-287.213 1.34139ZM-292.397 34.0773C-293.198 39.1312 -292.791 44.8979 -289.489 49.4383C-286.141 54.0411 -280.085 57.028 -270.372 57.028V54.028C-279.475 54.028 -284.458 51.2549 -287.063 47.6737C-289.713 44.0301 -290.17 39.1888 -289.434 34.5467L-292.397 34.0773ZM-270.372 57.028C-261.084 57.028 -254.924 53.9896 -250.916 49.6038C-246.955 45.2683 -245.25 39.7819 -244.506 35.1244L-247.469 34.6516C-248.166 39.0181 -249.724 43.8517 -253.131 47.5802C-256.492 51.2584 -261.803 54.028 -270.372 54.028V57.028ZM-244.506 35.1228L-239.226 1.81082L-242.189 1.34118L-247.469 34.6532L-244.506 35.1228ZM-240.708 3.076H-218.82V0.0759983H-240.708V3.076ZM-220.301 1.34078L-225.773 35.8048L-222.81 36.2752L-217.338 1.81121L-220.301 1.34078ZM-225.773 35.8056C-226.957 43.2844 -229.465 52.4591 -235.782 59.7541C-242.044 66.9862 -252.213 72.556 -269.124 72.556V75.556C-251.475 75.556 -240.427 69.7018 -233.514 61.7179C-226.655 53.7969 -224.027 43.9636 -222.81 36.2744L-225.773 35.8056ZM-204.737 1.576V0.0759983H-206.018L-206.219 1.34103L-204.737 1.576ZM-131.585 1.576L-130.104 1.81264L-129.826 0.0759983H-131.585V1.576ZM-134.177 17.8V19.3H-132.898L-132.696 18.0366L-134.177 17.8ZM-185.825 17.8V16.3H-187.111L-187.307 17.5709L-185.825 17.8ZM-187.457 28.36L-188.939 28.1309L-189.207 29.86H-187.457V28.36ZM-136.961 28.36L-135.48 28.5953L-135.204 26.86H-136.961V28.36ZM-139.553 44.68V46.18H-138.272L-138.072 44.9153L-139.553 44.68ZM-190.049 44.68V43.18H-191.323L-191.529 44.4373L-190.049 44.68ZM-191.969 56.392L-193.449 56.1493L-193.735 57.892H-191.969V56.392ZM-139.457 56.392L-137.975 56.6233L-137.705 54.892H-139.457V56.392ZM-142.049 73V74.5H-140.765L-140.567 73.2313L-142.049 73ZM-216.065 73L-217.547 72.765L-217.822 74.5H-216.065V73ZM-204.737 3.076H-131.585V0.0759983H-204.737V3.076ZM-133.066 1.33935L-135.658 17.5634L-132.696 18.0366L-130.104 1.81264L-133.066 1.33935ZM-134.177 16.3H-185.825V19.3H-134.177V16.3ZM-187.307 17.5709L-188.939 28.1309L-185.975 28.5891L-184.343 18.0291L-187.307 17.5709ZM-187.457 29.86H-136.961V26.86H-187.457V29.86ZM-138.442 28.1247L-141.034 44.4447L-138.072 44.9153L-135.48 28.5953L-138.442 28.1247ZM-139.553 43.18H-190.049V46.18H-139.553V43.18ZM-191.529 44.4373L-193.449 56.1493L-190.489 56.6347L-188.569 44.9227L-191.529 44.4373ZM-191.969 57.892H-139.457V54.892H-191.969V57.892ZM-140.939 56.1607L-143.531 72.7687L-140.567 73.2313L-137.975 56.6233L-140.939 56.1607ZM-142.049 71.5H-216.065V74.5H-142.049V71.5ZM-214.584 73.235L-203.256 1.81096L-206.219 1.34103L-217.547 72.765L-214.584 73.235ZM-103.017 73L-104.498 72.7653L-104.773 74.5H-103.017V73ZM-94.3767 18.472L-92.8952 18.7067L-92.6203 16.972H-94.3767V18.472ZM-123.849 18.472L-125.331 18.2445L-125.596 19.972H-123.849V18.472ZM-121.257 1.576V0.0759983H-122.544L-122.739 1.34855L-121.257 1.576ZM-40.1367 1.576L-38.6554 1.81167L-38.3792 0.0759983H-40.1367V1.576ZM-42.8247 18.472V19.972H-41.5445L-41.3434 18.7077L-42.8247 18.472ZM-72.2967 18.472V16.972H-73.5778L-73.7782 18.2373L-72.2967 18.472ZM-80.9367 73V74.5H-79.6557L-79.4552 73.2347L-80.9367 73ZM-101.535 73.2347L-92.8952 18.7067L-95.8582 18.2373L-104.498 72.7653L-101.535 73.2347ZM-94.3767 16.972H-123.849V19.972H-94.3767V16.972ZM-122.366 18.6995L-119.774 1.80345L-122.739 1.34855L-125.331 18.2445L-122.366 18.6995ZM-121.257 3.076H-40.1367V0.0759983H-121.257V3.076ZM-41.6181 1.34033L-44.3061 18.2363L-41.3434 18.7077L-38.6554 1.81167L-41.6181 1.34033ZM-42.8247 16.972H-72.2967V19.972H-42.8247V16.972ZM-73.7782 18.2373L-82.4182 72.7653L-79.4552 73.2347L-70.8152 18.7067L-73.7782 18.2373ZM-80.9367 71.5H-103.017V74.5H-80.9367V71.5ZM-37.7435 34.504L-39.2275 34.285L-39.2292 34.2976L-37.7435 34.504ZM64.4005 39.304L65.8843 39.5242L65.8854 39.5161L64.4005 39.304ZM-14.7995 36.328L-16.2944 36.2049L-16.2951 36.213L-14.7995 36.328ZM41.5525 37.672L43.0394 37.8702L43.0394 37.8702L41.5525 37.672ZM8.52851 72.748C-10.6866 72.748 -21.9524 68.0748 -28.4082 62.0955C-34.8525 56.1269 -36.7235 48.6527 -36.7235 42.568H-39.7235C-39.7235 49.2513 -37.6585 57.6171 -30.4468 64.2965C-23.2466 70.9652 -11.1364 75.748 8.52851 75.748V72.748ZM-36.7235 42.568C-36.7235 40.3748 -36.7229 38.0597 -36.2577 34.7104L-39.2292 34.2976C-39.724 37.8603 -39.7235 40.3452 -39.7235 42.568H-36.7235ZM-36.2596 34.7229C-35.4108 28.9701 -33.555 20.8266 -26.7078 14.0935C-19.877 7.37664 -7.83098 1.828 13.9045 1.828V-1.172C-8.32799 -1.172 -21.2419 4.51136 -28.8112 11.9545C-36.364 19.3813 -38.3482 28.3259 -39.2274 34.2851L-36.2596 34.7229ZM13.9045 1.828H18.0325V-1.172H13.9045V1.828ZM18.0325 1.828C37.1113 1.828 48.4089 6.36119 54.9257 12.2195C61.4246 18.0617 63.3805 25.4128 63.3805 31.528H66.3805C66.3805 24.7791 64.2085 16.5303 56.9313 9.98848C49.6721 3.46281 37.5457 -1.172 18.0325 -1.172V1.828ZM63.3805 31.528C63.3805 33.9874 63.2856 36.5015 62.9156 39.0919L65.8854 39.5161C66.2834 36.7305 66.3805 34.0606 66.3805 31.528H63.3805ZM62.9168 39.0838C62.0179 45.1393 60.1579 53.4733 53.3079 60.3233C46.4785 67.1527 34.438 72.748 12.6565 72.748V75.748C34.939 75.748 47.8585 70.0153 55.4292 62.4447C62.9791 54.8947 64.9591 45.7567 65.8843 39.5242L62.9168 39.0838ZM12.6565 72.748H8.52851V75.748H12.6565V72.748ZM43.3405 33.832C43.3405 29.5264 41.8502 24.9887 37.4147 21.5788C33.0469 18.2209 26.0152 16.108 15.2485 16.108V19.108C25.6978 19.108 31.9622 21.1711 35.5863 23.9572C39.1428 26.6913 40.3405 30.2656 40.3405 33.832H43.3405ZM15.2485 16.108C3.19042 16.108 -4.5405 18.7912 -9.36653 22.748C-14.2194 26.7269 -15.9339 31.8273 -16.2944 36.2049L-13.3045 36.4511C-12.993 32.6687 -11.5395 28.4091 -7.46444 25.068C-3.36248 21.7048 3.5946 19.108 15.2485 19.108V16.108ZM-16.2951 36.213C-16.3959 37.5241 -16.3955 38.5353 -16.3955 39.592H-13.3955C-13.3955 38.5366 -13.395 37.6279 -13.3039 36.443L-16.2951 36.213ZM-16.3955 39.592C-16.3955 43.7869 -15.1164 48.5755 -10.824 52.2832C-6.56936 55.9582 0.419321 58.372 11.4085 58.372V55.372C0.797704 55.372 -5.36562 53.0338 -8.86297 50.0128C-12.3226 47.0245 -13.3955 43.1731 -13.3955 39.592H-16.3955ZM11.4085 58.372C23.2822 58.372 30.9187 55.6853 35.7553 51.6656C40.6093 47.6314 42.4312 42.4317 43.0394 37.8702L40.0657 37.4738C39.5219 41.5523 37.9357 45.9526 33.8378 49.3584C29.7224 52.7787 22.8628 55.372 11.4085 55.372V58.372ZM43.0394 37.8702C43.2367 36.3905 43.3405 35.2642 43.3405 33.832H40.3405C40.3405 35.0878 40.2524 36.0735 40.0657 37.4738L43.0394 37.8702ZM73.6503 34.504L72.1663 34.285L72.1645 34.2976L73.6503 34.504ZM175.794 39.304L177.278 39.5242L177.279 39.5161L175.794 39.304ZM96.5943 36.328L95.0993 36.2049L95.0987 36.213L96.5943 36.328ZM152.946 37.672L154.433 37.8702L154.433 37.8702L152.946 37.672ZM119.922 72.748C100.707 72.748 89.4413 68.0748 82.9855 62.0955C76.5413 56.1269 74.6703 48.6527 74.6703 42.568H71.6703C71.6703 49.2513 73.7352 57.6171 80.947 64.2965C88.1472 70.9652 100.257 75.748 119.922 75.748V72.748ZM74.6703 42.568C74.6703 40.3748 74.6708 38.0597 75.136 34.7104L72.1645 34.2976C71.6697 37.8603 71.6703 40.3452 71.6703 42.568H74.6703ZM75.1342 34.7229C75.983 28.9701 77.8387 20.8266 84.686 14.0935C91.5167 7.37664 103.563 1.828 125.298 1.828V-1.172C103.066 -1.172 90.1518 4.51136 82.5825 11.9545C75.0298 19.3813 73.0455 28.3259 72.1663 34.2851L75.1342 34.7229ZM125.298 1.828H129.426V-1.172H125.298V1.828ZM129.426 1.828C148.505 1.828 159.803 6.36119 166.319 12.2195C172.818 18.0617 174.774 25.4128 174.774 31.528H177.774C177.774 24.7791 175.602 16.5303 168.325 9.98848C161.066 3.46281 148.939 -1.172 129.426 -1.172V1.828ZM174.774 31.528C174.774 33.9874 174.679 36.5015 174.309 39.0919L177.279 39.5161C177.677 36.7305 177.774 34.0606 177.774 31.528H174.774ZM174.311 39.0838C173.412 45.1393 171.552 53.4733 164.702 60.3233C157.872 67.1527 145.832 72.748 124.05 72.748V75.748C146.333 75.748 159.252 70.0153 166.823 62.4447C174.373 54.8947 176.353 45.7567 177.278 39.5242L174.311 39.0838ZM124.05 72.748H119.922V75.748H124.05V72.748ZM154.734 33.832C154.734 29.5264 153.244 24.9887 148.808 21.5788C144.441 18.2209 137.409 16.108 126.642 16.108V19.108C137.092 19.108 143.356 21.1711 146.98 23.9572C150.537 26.6913 151.734 30.2656 151.734 33.832H154.734ZM126.642 16.108C114.584 16.108 106.853 18.7912 102.027 22.748C97.1743 26.7269 95.4598 31.8273 95.0993 36.2049L98.0892 36.4511C98.4007 32.6687 99.8542 28.4091 103.929 25.068C108.031 21.7048 114.988 19.108 126.642 19.108V16.108ZM95.0987 36.213C94.9978 37.5241 94.9983 38.5353 94.9983 39.592H97.9983C97.9983 38.5366 97.9987 37.6279 98.0898 36.443L95.0987 36.213ZM94.9983 39.592C94.9983 43.7869 96.2774 48.5755 100.57 52.2832C104.824 55.9582 111.813 58.372 122.802 58.372V55.372C112.191 55.372 106.028 53.0338 102.531 50.0128C99.0711 47.0245 97.9983 43.1731 97.9983 39.592H94.9983ZM122.802 58.372C134.676 58.372 142.312 55.6853 147.149 51.6656C152.003 47.6314 153.825 42.4317 154.433 37.8702L151.459 37.4738C150.916 41.5523 149.329 45.9526 145.231 49.3584C141.116 52.7787 134.257 55.372 122.802 55.372V58.372ZM154.433 37.8702C154.63 36.3905 154.734 35.2642 154.734 33.832H151.734C151.734 35.0878 151.646 36.0735 151.459 37.4738L154.433 37.8702ZM203.321 73L201.839 72.7653L201.564 74.5H203.321V73ZM211.961 18.472L213.442 18.7067L213.717 16.972H211.961V18.472ZM182.489 18.472L181.006 18.2445L180.741 19.972H182.489V18.472ZM185.081 1.576V0.0759983H183.793L183.598 1.34855L185.081 1.576ZM266.201 1.576L267.682 1.81167L267.958 0.0759983H266.201V1.576ZM263.513 18.472V19.972H264.793L264.994 18.7077L263.513 18.472ZM234.041 18.472V16.972H232.76L232.559 18.2373L234.041 18.472ZM225.401 73V74.5H226.682L226.882 73.2347L225.401 73ZM204.802 73.2347L213.442 18.7067L210.479 18.2373L201.839 72.7653L204.802 73.2347ZM211.961 16.972H182.489V19.972H211.961V16.972ZM183.971 18.6995L186.563 1.80345L183.598 1.34855L181.006 18.2445L183.971 18.6995ZM185.081 3.076H266.201V0.0759983H185.081V3.076ZM264.719 1.34033L262.031 18.2363L264.994 18.7077L267.682 1.81167L264.719 1.34033ZM263.513 16.972H234.041V19.972H263.513V16.972ZM232.559 18.2373L223.919 72.7653L226.882 73.2347L235.522 18.7067L232.559 18.2373ZM225.401 71.5H203.321V74.5H225.401V71.5ZM266.747 73L265.266 72.765L264.991 74.5H266.747V73ZM278.075 1.576V0.0759983H276.795L276.594 1.34103L278.075 1.576ZM299.867 1.576L301.349 1.81107L301.624 0.0759983H299.867V1.576ZM295.739 27.592L294.258 27.3569L293.983 29.092H295.739V27.592ZM341.723 27.592V29.092H343.004L343.205 27.8271L341.723 27.592ZM345.851 1.576V0.0759983H344.571L344.37 1.34093L345.851 1.576ZM367.643 1.576L369.125 1.81096L369.4 0.0759983H367.643V1.576ZM356.315 73V74.5H357.596L357.797 73.235L356.315 73ZM334.523 73L333.042 72.7674L332.77 74.5H334.523V73ZM338.939 44.872L340.421 45.1046L340.693 43.372H338.939V44.872ZM292.955 44.872V43.372H291.673L291.474 44.6394L292.955 44.872ZM288.539 73V74.5H289.822L290.021 73.2326L288.539 73ZM268.229 73.235L279.557 1.81096L276.594 1.34103L265.266 72.765L268.229 73.235ZM278.075 3.076H299.867V0.0759983H278.075V3.076ZM298.386 1.34093L294.258 27.3569L297.221 27.8271L301.349 1.81107L298.386 1.34093ZM295.739 29.092H341.723V26.092H295.739V29.092ZM343.205 27.8271L347.333 1.81107L344.37 1.34093L340.242 27.3569L343.205 27.8271ZM345.851 3.076H367.643V0.0759983H345.851V3.076ZM366.162 1.34103L354.834 72.765L357.797 73.235L369.125 1.81096L366.162 1.34103ZM356.315 71.5H334.523V74.5H356.315V71.5ZM336.005 73.2326L340.421 45.1046L337.458 44.6394L333.042 72.7674L336.005 73.2326ZM338.939 43.372H292.955V46.372H338.939V43.372ZM291.474 44.6394L287.058 72.7674L290.021 73.2326L294.437 45.1046L291.474 44.6394ZM288.539 71.5H266.747V74.5H288.539V71.5ZM464.03 43.816V45.316H466.176L465.439 43.301L464.03 43.816ZM454.238 17.032L455.647 16.517L454.589 13.621L452.964 16.2415L454.238 17.032ZM437.63 43.816L436.356 43.0255L434.935 45.316H437.63V43.816ZM474.782 73L473.375 73.5176L473.736 74.5H474.782V73ZM469.982 59.944L471.39 59.4264L471.029 58.444H469.982V59.944ZM427.646 59.944V58.444H426.81L426.37 59.1558L427.646 59.944ZM419.582 73V74.5H420.419L420.859 73.7882L419.582 73ZM397.022 73L395.754 72.1989L394.301 74.5H397.022V73ZM442.142 1.576V0.0759983H441.316L440.874 0.774881L442.142 1.576ZM470.27 1.576L471.672 1.04271L471.305 0.0759983H470.27V1.576ZM497.438 73V74.5H499.614L498.84 72.4667L497.438 73ZM465.439 43.301L455.647 16.517L452.83 17.547L462.622 44.331L465.439 43.301ZM452.964 16.2415L436.356 43.0255L438.905 44.6065L455.513 17.8225L452.964 16.2415ZM437.63 45.316H464.03V42.316H437.63V45.316ZM476.19 72.4824L471.39 59.4264L468.575 60.4616L473.375 73.5176L476.19 72.4824ZM469.982 58.444H427.646V61.444H469.982V58.444ZM426.37 59.1558L418.306 72.2118L420.859 73.7882L428.923 60.7322L426.37 59.1558ZM419.582 71.5H397.022V74.5H419.582V71.5ZM398.291 73.8011L443.411 2.37712L440.874 0.774881L395.754 72.1989L398.291 73.8011ZM442.142 3.076H470.27V0.0759983H442.142V3.076ZM468.868 2.10929L496.036 73.5333L498.84 72.4667L471.672 1.04271L468.868 2.10929ZM497.438 71.5H474.782V74.5H497.438V71.5ZM501.579 35.464L503.06 35.701L503.061 35.699L501.579 35.464ZM506.955 1.576V0.0759983H505.674L505.474 1.34098L506.955 1.576ZM528.843 1.576L530.325 1.81061L530.599 0.0759983H528.843V1.576ZM523.659 34.312L525.141 34.5467L525.141 34.5466L523.659 34.312ZM568.587 34.888L570.069 35.1244L570.069 35.1228L568.587 34.888ZM573.867 1.576V0.0759983H572.586L572.386 1.34118L573.867 1.576ZM595.755 1.576L597.237 1.81121L597.512 0.0759983H595.755V1.576ZM590.283 36.04L588.802 35.8048L588.802 35.8056L590.283 36.04ZM545.451 72.556H542.187V75.556H545.451V72.556ZM542.187 72.556C524.101 72.556 513.879 66.6399 508.399 59.2653C502.871 51.8263 501.953 42.6194 503.06 35.701L500.098 35.227C498.901 42.7086 499.855 52.7977 505.991 61.0547C512.175 69.3761 523.409 75.556 542.187 75.556V72.556ZM503.061 35.699L508.437 1.81102L505.474 1.34098L500.098 35.229L503.061 35.699ZM506.955 3.076H528.843V0.0759983H506.955V3.076ZM527.362 1.34139L522.178 34.0774L525.141 34.5466L530.325 1.81061L527.362 1.34139ZM522.178 34.0773C521.377 39.1312 521.784 44.8979 525.086 49.4383C528.434 54.0411 534.49 57.028 544.203 57.028V54.028C535.1 54.028 530.117 51.2549 527.512 47.6737C524.862 44.0301 524.405 39.1888 525.141 34.5467L522.178 34.0773ZM544.203 57.028C553.491 57.028 559.651 53.9896 563.659 49.6038C567.62 45.2683 569.325 39.7819 570.069 35.1244L567.106 34.6516C566.409 39.0181 564.851 43.8517 561.444 47.5802C558.083 51.2584 552.772 54.028 544.203 54.028V57.028ZM570.069 35.1228L575.349 1.81082L572.386 1.34118L567.106 34.6532L570.069 35.1228ZM573.867 3.076H595.755V0.0759983H573.867V3.076ZM594.274 1.34078L588.802 35.8048L591.765 36.2752L597.237 1.81121L594.274 1.34078ZM588.802 35.8056C587.618 43.2844 585.11 52.4591 578.793 59.7541C572.531 66.9862 562.362 72.556 545.451 72.556V75.556C563.1 75.556 574.148 69.7018 581.061 61.7179C587.92 53.7969 590.548 43.9636 591.765 36.2744L588.802 35.8056ZM598.51 73L597.029 72.765L596.753 74.5H598.51V73ZM609.838 1.576V0.0759983H608.557L608.357 1.34103L609.838 1.576ZM699.214 41.128L700.692 41.3846L700.692 41.3829L699.214 41.128ZM647.47 73L647.474 71.5H647.47V73ZM628.846 18.472V16.972H627.566L627.365 18.2359L628.846 18.472ZM622.894 55.816L621.413 55.5799L621.136 57.316H622.894V55.816ZM676.462 38.632L674.991 38.3378L674.99 38.3452L676.462 38.632ZM599.992 73.235L611.32 1.81096L608.357 1.34103L597.029 72.765L599.992 73.235ZM609.838 3.076H652.942V0.0759983H609.838V3.076ZM652.942 3.076C671.255 3.076 682.62 6.81567 689.385 12.2273C696.09 17.5915 698.482 24.7681 698.482 32.2H701.482C701.482 24.0799 698.834 15.9444 691.259 9.8847C683.744 3.87233 671.589 0.0759983 652.942 0.0759983V3.076ZM698.482 32.2C698.482 35.2764 698.202 38.167 697.736 40.8731L700.692 41.3829C701.186 38.5209 701.482 35.4595 701.482 32.2H698.482ZM697.736 40.8714C696.579 47.5378 693.567 55.1565 686.188 61.1171C678.797 67.0867 666.836 71.5475 647.474 71.5L647.466 74.5C667.272 74.5485 679.983 69.9853 688.073 63.4509C696.173 56.9075 699.449 48.5422 700.692 41.3846L697.736 40.8714ZM647.47 71.5H598.51V74.5H647.47V71.5ZM627.365 18.2359L621.413 55.5799L624.375 56.0521L630.327 18.7081L627.365 18.2359ZM622.894 57.316H645.646V54.316H622.894V57.316ZM645.646 57.316C658.013 57.316 665.726 54.8364 670.561 51.1941C675.435 47.5216 677.173 42.8283 677.934 38.9188L674.99 38.3452C674.311 41.8277 672.833 45.7264 668.755 48.7979C664.638 51.8996 657.663 54.316 645.646 54.316V57.316ZM677.933 38.9262C678.235 37.4182 678.442 35.6845 678.442 34.312H675.442C675.442 35.4355 675.266 36.9658 674.991 38.3378L677.933 38.9262ZM678.442 34.312C678.442 30.3863 677.371 25.9286 673.258 22.5034C669.209 19.1312 662.457 16.972 651.598 16.972V19.972C662.147 19.972 668.067 22.0848 671.338 24.8086C674.545 27.4794 675.442 30.9417 675.442 34.312H678.442ZM651.598 16.972H628.846V19.972H651.598V16.972ZM738.899 1.576L740.38 1.81096L740.655 0.0759983H738.899V1.576ZM727.571 73V74.5H728.852L729.052 73.235L727.571 73ZM705.779 73L704.297 72.765L704.022 74.5H705.779V73ZM717.107 1.576V0.0759983H715.826L715.625 1.34103L717.107 1.576ZM737.417 1.34103L726.089 72.765L729.052 73.235L740.38 1.81096L737.417 1.34103ZM727.571 71.5H705.779V74.5H727.571V71.5ZM707.26 73.235L718.588 1.81096L715.625 1.34103L704.297 72.765L707.26 73.235ZM717.107 3.076H738.899V0.0759983H717.107V3.076ZM745.238 34.504L743.754 34.285L743.752 34.2976L745.238 34.504ZM847.382 39.304L848.866 39.5242L848.867 39.5161L847.382 39.304ZM768.182 36.328L766.687 36.2049L766.686 36.213L768.182 36.328ZM824.534 37.672L826.021 37.8702L826.021 37.8702L824.534 37.672ZM791.51 72.748C772.295 72.748 761.029 68.0748 754.573 62.0955C748.129 56.1269 746.258 48.6527 746.258 42.568H743.258C743.258 49.2513 745.323 57.6171 752.535 64.2965C759.735 70.9652 771.845 75.748 791.51 75.748V72.748ZM746.258 42.568C746.258 40.3748 746.258 38.0597 746.724 34.7104L743.752 34.2976C743.257 37.8603 743.258 40.3452 743.258 42.568H746.258ZM746.722 34.7229C747.57 28.9701 749.426 20.8266 756.273 14.0935C763.104 7.37664 775.15 1.828 796.886 1.828V-1.172C774.653 -1.172 761.739 4.51136 754.17 11.9545C746.617 19.3813 744.633 28.3259 743.754 34.2851L746.722 34.7229ZM796.886 1.828H801.014V-1.172H796.886V1.828ZM801.014 1.828C820.093 1.828 831.39 6.36119 837.907 12.2195C844.406 18.0617 846.362 25.4128 846.362 31.528H849.362C849.362 24.7791 847.19 16.5303 839.913 9.98848C832.653 3.46281 820.527 -1.172 801.014 -1.172V1.828ZM846.362 31.528C846.362 33.9874 846.267 36.5015 845.897 39.0919L848.867 39.5161C849.265 36.7305 849.362 34.0606 849.362 31.528H846.362ZM845.898 39.0838C844.999 45.1393 843.139 53.4733 836.289 60.3233C829.46 67.1527 817.419 72.748 795.638 72.748V75.748C817.92 75.748 830.84 70.0153 838.41 62.4447C845.96 54.8947 847.94 45.7567 848.866 39.5242L845.898 39.0838ZM795.638 72.748H791.51V75.748H795.638V72.748ZM826.322 33.832C826.322 29.5264 824.832 24.9887 820.396 21.5788C816.028 18.2209 808.996 16.108 798.23 16.108V19.108C808.679 19.108 814.943 21.1711 818.568 23.9572C822.124 26.6913 823.322 30.2656 823.322 33.832H826.322ZM798.23 16.108C786.172 16.108 778.441 18.7912 773.615 22.748C768.762 26.7269 767.047 31.8273 766.687 36.2049L769.677 36.4511C769.988 32.6687 771.442 28.4091 775.517 25.068C779.619 21.7048 786.576 19.108 798.23 19.108V16.108ZM766.686 36.213C766.585 37.5241 766.586 38.5353 766.586 39.592H769.586C769.586 38.5366 769.586 37.6279 769.677 36.443L766.686 36.213ZM766.586 39.592C766.586 43.7869 767.865 48.5755 772.157 52.2832C776.412 55.9582 783.401 58.372 794.39 58.372V55.372C783.779 55.372 777.616 53.0338 774.118 50.0128C770.659 47.0245 769.586 43.1731 769.586 39.592H766.586ZM794.39 58.372C806.263 58.372 813.9 55.6853 818.737 51.6656C823.591 47.6314 825.412 42.4317 826.021 37.8702L823.047 37.4738C822.503 41.5523 820.917 45.9526 816.819 49.3584C812.704 52.7787 805.844 55.372 794.39 55.372V58.372ZM826.021 37.8702C826.218 36.3905 826.322 35.2642 826.322 33.832H823.322C823.322 35.0878 823.234 36.0735 823.047 37.4738L826.021 37.8702ZM887.25 47.656V46.156H885.91L885.76 47.4873L887.25 47.656ZM909.81 47.656L911.31 47.6241L911.279 46.156H909.81V47.656ZM935.634 44.2L935.676 42.7006L935.671 42.7004L935.634 44.2ZM923.73 43.912L923.767 42.4124L923.765 42.4124L923.73 43.912ZM892.242 19.336L890.758 19.1178L890.757 19.1239L892.242 19.336ZM976.626 23.848V25.348H977.954L978.115 24.0296L976.626 23.848ZM954.162 23.848L952.67 23.9973L952.805 25.348H954.162V23.848ZM929.01 27.592L929.035 26.0922L929.032 26.0922L929.01 27.592ZM940.53 27.784L940.505 29.2838L940.508 29.2838L940.53 27.784ZM974.514 53.224L975.984 53.5234L975.985 53.5182L974.514 53.224ZM924.978 72.748C907.055 72.748 897.841 68.6756 893.203 63.7408C888.592 58.8332 888.186 52.7269 888.741 47.8247L885.76 47.4873C885.163 52.7611 885.525 59.9508 891.017 65.7952C896.484 71.6124 906.71 75.748 924.978 75.748V72.748ZM887.25 49.156H909.81V46.156H887.25V49.156ZM908.311 47.6879C908.361 50.0734 908.746 53.4485 911.822 56.1409C914.825 58.7678 920.099 60.484 929.202 60.484V57.484C920.353 57.484 915.98 55.7922 913.798 53.8831C911.691 52.0395 911.355 49.7506 911.31 47.6241L908.311 47.6879ZM929.202 60.484H930.354V57.484H929.202V60.484ZM930.354 60.484C940.382 60.484 946.06 59.2691 949.26 57.3845C950.908 56.4136 951.928 55.2484 952.509 53.9779C953.077 52.7333 953.166 51.5104 953.166 50.536H950.166C950.166 51.3376 950.087 52.0587 949.78 52.7311C949.485 53.3776 948.921 54.1023 947.737 54.7995C945.273 56.2509 940.295 57.484 930.354 57.484V60.484ZM953.166 50.536C953.166 49.4527 953.021 48.3089 952.428 47.2486C951.824 46.1659 950.85 45.339 949.503 44.7122C946.922 43.5101 942.623 42.8922 935.676 42.7006L935.593 45.6994C942.566 45.8918 946.283 46.5219 948.237 47.4318C949.159 47.8609 949.583 48.3061 949.809 48.7114C950.048 49.1391 950.166 49.6993 950.166 50.536H953.166ZM935.671 42.7004L923.767 42.4124L923.694 45.4116L935.598 45.6996L935.671 42.7004ZM923.765 42.4124C911.473 42.1276 903.909 39.6823 899.44 36.2008C895.052 32.7818 893.454 28.2063 893.454 23.08H890.454C890.454 28.8977 892.312 34.4502 897.596 38.5672C902.8 42.6217 911.124 45.1204 923.696 45.4116L923.765 42.4124ZM893.454 23.08C893.454 21.8237 893.543 20.8406 893.727 19.5481L890.757 19.1239C890.558 20.5194 890.454 21.6483 890.454 23.08H893.454ZM893.726 19.5542C894.394 15.0124 896.351 10.7035 901.839 7.45035C907.447 4.12655 916.868 1.828 932.658 1.828V-1.172C916.673 -1.172 906.606 1.13744 900.309 4.86965C893.894 8.67247 891.53 13.8676 890.758 19.1178L893.726 19.5542ZM932.658 1.828H938.802V-1.172H932.658V1.828ZM938.802 1.828C955.204 1.828 964.596 4.74938 969.702 8.83155C974.682 12.8138 975.816 18.1031 975.137 23.6664L978.115 24.0296C978.877 17.7849 977.611 11.3142 971.575 6.48844C965.664 1.76261 955.424 -1.172 938.802 -1.172V1.828ZM976.626 22.348H954.162V25.348H976.626V22.348ZM955.655 23.6987C955.499 22.144 955.172 19.4213 952.136 17.2314C949.248 15.1491 944.125 13.708 934.962 13.708V16.708C943.944 16.708 948.276 18.1469 950.381 19.6646C952.336 21.0747 952.537 22.672 952.67 23.9973L955.655 23.6987ZM934.962 13.708H933.618V16.708H934.962V13.708ZM933.618 13.708C924.672 13.708 919.631 14.5845 916.795 16.0024C915.326 16.7373 914.368 17.6561 913.815 18.7362C913.275 19.7918 913.206 20.8398 913.206 21.64H916.206C916.206 21.0001 916.27 20.5242 916.485 20.1038C916.688 19.7079 917.111 19.1987 918.137 18.6856C920.293 17.6075 924.709 16.708 933.618 16.708V13.708ZM913.206 21.64C913.206 22.4312 913.303 23.3833 913.772 24.3381C914.25 25.3114 915.051 26.1606 916.249 26.8514C918.557 28.1822 922.464 28.9952 928.988 29.0918L929.032 26.0922C922.596 25.9968 919.352 25.1778 917.748 24.2526C916.989 23.8154 916.644 23.3806 916.465 23.0159C916.277 22.6327 916.206 22.1928 916.206 21.64H913.206ZM928.985 29.0918L940.505 29.2838L940.555 26.2842L929.035 26.0922L928.985 29.0918ZM940.508 29.2838C953.123 29.475 961.397 31.1795 966.487 34.2737C968.997 35.7995 970.723 37.6578 971.835 39.8553C972.953 42.0654 973.494 44.7053 973.494 47.848H976.494C976.494 44.3667 975.895 41.2346 974.512 38.5007C973.122 35.7542 970.984 33.4965 968.045 31.7103C962.239 28.1805 953.282 26.477 940.553 26.2842L940.508 29.2838ZM973.494 47.848C973.494 49.499 973.308 51.606 973.043 52.9298L975.985 53.5182C976.296 51.962 976.494 49.653 976.494 47.848H973.494ZM973.044 52.9246C972.033 57.8893 970.116 62.7014 964.405 66.361C958.585 70.0901 948.636 72.748 931.218 72.748V75.748C948.841 75.748 959.483 73.0779 966.024 68.887C972.672 64.6266 974.883 58.9267 975.984 53.5234L973.044 52.9246ZM931.218 72.748H924.978V75.748H931.218V72.748ZM986.567 35.464L988.048 35.701L988.048 35.699L986.567 35.464ZM991.943 1.576V0.0759983H990.662L990.461 1.34098L991.943 1.576ZM1013.83 1.576L1015.31 1.81061L1015.59 0.0759983H1013.83V1.576ZM1008.65 34.312L1010.13 34.5467L1010.13 34.5466L1008.65 34.312ZM1053.57 34.888L1055.06 35.1244L1055.06 35.1228L1053.57 34.888ZM1058.85 1.576V0.0759983H1057.57L1057.37 1.34118L1058.85 1.576ZM1080.74 1.576L1082.22 1.81121L1082.5 0.0759983H1080.74V1.576ZM1075.27 36.04L1073.79 35.8048L1073.79 35.8056L1075.27 36.04ZM1030.44 72.556H1027.17V75.556H1030.44V72.556ZM1027.17 72.556C1009.09 72.556 998.867 66.6399 993.387 59.2653C987.859 51.8263 986.941 42.6194 988.048 35.701L985.086 35.227C983.889 42.7086 984.843 52.7977 990.979 61.0547C997.163 69.3761 1008.4 75.556 1027.17 75.556V72.556ZM988.048 35.699L993.424 1.81102L990.461 1.34098L985.085 35.229L988.048 35.699ZM991.943 3.076H1013.83V0.0759983H991.943V3.076ZM1012.35 1.34139L1007.17 34.0774L1010.13 34.5466L1015.31 1.81061L1012.35 1.34139ZM1007.17 34.0773C1006.36 39.1312 1006.77 44.8979 1010.07 49.4383C1013.42 54.0411 1019.48 57.028 1029.19 57.028V54.028C1020.09 54.028 1015.1 51.2549 1012.5 47.6737C1009.85 44.0301 1009.39 39.1888 1010.13 34.5467L1007.17 34.0773ZM1029.19 57.028C1038.48 57.028 1044.64 53.9896 1048.65 49.6038C1052.61 45.2683 1054.31 39.7819 1055.06 35.1244L1052.09 34.6516C1051.4 39.0181 1049.84 43.8517 1046.43 47.5802C1043.07 51.2584 1037.76 54.028 1029.19 54.028V57.028ZM1055.06 35.1228L1060.34 1.81082L1057.37 1.34118L1052.09 34.6532L1055.06 35.1228ZM1058.85 3.076H1080.74V0.0759983H1058.85V3.076ZM1079.26 1.34078L1073.79 35.8048L1076.75 36.2752L1082.22 1.81121L1079.26 1.34078ZM1073.79 35.8056C1072.61 43.2844 1070.1 52.4591 1063.78 59.7541C1057.52 66.9862 1047.35 72.556 1030.44 72.556V75.556C1048.09 75.556 1059.14 69.7018 1066.05 61.7179C1072.91 53.7969 1075.54 43.9636 1076.75 36.2744L1073.79 35.8056ZM1105.29 73V74.5H1106.57L1106.77 73.2388L1105.29 73ZM1083.5 73L1082.02 72.765L1081.74 74.5H1083.5V73ZM1094.83 1.576V0.0759983H1093.54L1093.34 1.34103L1094.83 1.576ZM1109.13 49.192V47.692H1107.85L1107.65 48.9532L1109.13 49.192ZM1111.53 33.16L1110.05 32.9194L1109.77 34.66H1111.53V33.16ZM1114.03 17.8V16.3H1112.75L1112.54 17.5594L1114.03 17.8ZM1105.29 71.5H1083.5V74.5H1105.29V71.5ZM1084.98 73.235L1096.31 1.81096L1093.34 1.34103L1082.02 72.765L1084.98 73.235ZM1094.83 3.076H1145.23V0.0759983H1094.83V3.076ZM1145.23 3.076C1156.8 3.076 1164.15 5.26552 1168.59 8.73412C1172.95 12.1422 1174.73 16.9711 1174.73 22.888H1177.73C1177.73 16.3249 1175.72 10.4978 1170.44 6.36987C1165.23 2.30247 1157.08 0.0759983 1145.23 0.0759983V3.076ZM1174.73 22.888C1174.73 28.4285 1173.39 34.56 1168.76 39.3132C1164.14 44.0596 1155.98 47.692 1141.77 47.692V50.692C1156.46 50.692 1165.53 46.9324 1170.91 41.4068C1176.29 35.888 1177.73 28.8675 1177.73 22.888H1174.73ZM1141.77 47.692H1109.13V50.692H1141.77V47.692ZM1107.65 48.9532L1103.81 72.7612L1106.77 73.2388L1110.61 49.4308L1107.65 48.9532ZM1111.53 34.66H1141.67V31.66H1111.53V34.66ZM1141.67 34.66C1145.91 34.66 1149.14 33.7057 1151.33 31.8436C1153.56 29.9487 1154.5 27.3028 1154.5 24.424H1151.5C1151.5 26.6332 1150.81 28.3553 1149.39 29.5563C1147.94 30.7903 1145.51 31.66 1141.67 31.66V34.66ZM1154.5 24.424C1154.5 21.898 1153.64 19.7494 1151.69 18.292C1149.83 16.8954 1147.19 16.3 1143.98 16.3V19.3C1146.91 19.3 1148.78 19.8566 1149.89 20.692C1150.93 21.4666 1151.5 22.63 1151.5 24.424H1154.5ZM1143.98 16.3H1114.03V19.3H1143.98V16.3ZM1112.54 17.5594L1110.05 32.9194L1113.01 33.4006L1115.51 18.0406L1112.54 17.5594ZM1201.5 73V74.5H1202.77L1202.98 73.2388L1201.5 73ZM1179.7 73L1178.22 72.765L1177.95 74.5H1179.7V73ZM1191.03 1.576V0.0759983H1189.75L1189.55 1.34103L1191.03 1.576ZM1205.34 49.192V47.692H1204.06L1203.85 48.9532L1205.34 49.192ZM1207.74 33.16L1206.26 32.9194L1205.97 34.66H1207.74V33.16ZM1210.23 17.8V16.3H1208.96L1208.75 17.5594L1210.23 17.8ZM1201.5 71.5H1179.7V74.5H1201.5V71.5ZM1181.19 73.235L1192.51 1.81096L1189.55 1.34103L1178.22 72.765L1181.19 73.235ZM1191.03 3.076H1241.43V0.0759983H1191.03V3.076ZM1241.43 3.076C1253 3.076 1260.36 5.26552 1264.8 8.73412C1269.16 12.1422 1270.94 16.9711 1270.94 22.888H1273.94C1273.94 16.3249 1271.93 10.4978 1266.64 6.36987C1261.44 2.30247 1253.29 0.0759983 1241.43 0.0759983V3.076ZM1270.94 22.888C1270.94 28.4285 1269.6 34.56 1264.97 39.3132C1260.35 44.0596 1252.18 47.692 1237.98 47.692V50.692C1252.66 50.692 1261.73 46.9324 1267.12 41.4068C1272.5 35.888 1273.94 28.8675 1273.94 22.888H1270.94ZM1237.98 47.692H1205.34V50.692H1237.98V47.692ZM1203.85 48.9532L1200.01 72.7612L1202.98 73.2388L1206.82 49.4308L1203.85 48.9532ZM1207.74 34.66H1237.88V31.66H1207.74V34.66ZM1237.88 34.66C1242.11 34.66 1245.34 33.7057 1247.54 31.8436C1249.77 29.9487 1250.71 27.3028 1250.71 24.424H1247.71C1247.71 26.6332 1247.01 28.3553 1245.6 29.5563C1244.14 30.7903 1241.71 31.66 1237.88 31.66V34.66ZM1250.71 24.424C1250.71 21.898 1249.84 19.7494 1247.9 18.292C1246.04 16.8954 1243.4 16.3 1240.18 16.3V19.3C1243.11 19.3 1244.99 19.8566 1246.1 20.692C1247.13 21.4666 1247.71 22.63 1247.71 24.424H1250.71ZM1240.18 16.3H1210.23V19.3H1240.18V16.3ZM1208.75 17.5594L1206.26 32.9194L1209.22 33.4006L1211.71 18.0406L1208.75 17.5594ZM1278.69 34.504L1277.21 34.285L1277.21 34.2976L1278.69 34.504ZM1380.84 39.304L1382.32 39.5242L1382.32 39.5161L1380.84 39.304ZM1301.64 36.328L1300.14 36.2049L1300.14 36.213L1301.64 36.328ZM1357.99 37.672L1359.48 37.8702L1359.48 37.8702L1357.99 37.672ZM1324.97 72.748C1305.75 72.748 1294.49 68.0748 1288.03 62.0955C1281.58 56.1269 1279.71 48.6527 1279.71 42.568H1276.71C1276.71 49.2513 1278.78 57.6171 1285.99 64.2965C1293.19 70.9652 1305.3 75.748 1324.97 75.748V72.748ZM1279.71 42.568C1279.71 40.3748 1279.71 38.0597 1280.18 34.7104L1277.21 34.2976C1276.71 37.8603 1276.71 40.3452 1276.71 42.568H1279.71ZM1280.18 34.7229C1281.03 28.9701 1282.88 20.8266 1289.73 14.0935C1296.56 7.37664 1308.61 1.828 1330.34 1.828V-1.172C1308.11 -1.172 1295.2 4.51136 1287.63 11.9545C1280.07 19.3813 1278.09 28.3259 1277.21 34.2851L1280.18 34.7229ZM1330.34 1.828H1334.47V-1.172H1330.34V1.828ZM1334.47 1.828C1353.55 1.828 1364.85 6.36119 1371.36 12.2195C1377.86 18.0617 1379.82 25.4128 1379.82 31.528H1382.82C1382.82 24.7791 1380.65 16.5303 1373.37 9.98848C1366.11 3.46281 1353.98 -1.172 1334.47 -1.172V1.828ZM1379.82 31.528C1379.82 33.9874 1379.72 36.5015 1379.35 39.0919L1382.32 39.5161C1382.72 36.7305 1382.82 34.0606 1382.82 31.528H1379.82ZM1379.35 39.0838C1378.46 45.1393 1376.6 53.4733 1369.75 60.3233C1362.92 67.1527 1350.88 72.748 1329.09 72.748V75.748C1351.38 75.748 1364.3 70.0153 1371.87 62.4447C1379.42 54.8947 1381.4 45.7567 1382.32 39.5242L1379.35 39.0838ZM1329.09 72.748H1324.97V75.748H1329.09V72.748ZM1359.78 33.832C1359.78 29.5264 1358.29 24.9887 1353.85 21.5788C1349.48 18.2209 1342.45 16.108 1331.69 16.108V19.108C1342.14 19.108 1348.4 21.1711 1352.02 23.9572C1355.58 26.6913 1356.78 30.2656 1356.78 33.832H1359.78ZM1331.69 16.108C1319.63 16.108 1311.9 18.7912 1307.07 22.748C1302.22 26.7269 1300.5 31.8273 1300.14 36.2049L1303.13 36.4511C1303.44 32.6687 1304.9 28.4091 1308.97 25.068C1313.07 21.7048 1320.03 19.108 1331.69 19.108V16.108ZM1300.14 36.213C1300.04 37.5241 1300.04 38.5353 1300.04 39.592H1303.04C1303.04 38.5366 1303.04 37.6279 1303.13 36.443L1300.14 36.213ZM1300.04 39.592C1300.04 43.7869 1301.32 48.5755 1305.61 52.2832C1309.87 55.9582 1316.86 58.372 1327.85 58.372V55.372C1317.24 55.372 1311.07 53.0338 1307.57 50.0128C1304.11 47.0245 1303.04 43.1731 1303.04 39.592H1300.04ZM1327.85 58.372C1339.72 58.372 1347.36 55.6853 1352.19 51.6656C1357.05 47.6314 1358.87 42.4317 1359.48 37.8702L1356.5 37.4738C1355.96 41.5523 1354.37 45.9526 1350.28 49.3584C1346.16 52.7787 1339.3 55.372 1327.85 55.372V58.372ZM1359.48 37.8702C1359.67 36.3905 1359.78 35.2642 1359.78 33.832H1356.78C1356.78 35.0878 1356.69 36.0735 1356.5 37.4738L1359.48 37.8702ZM1415.53 31.816L1414.05 31.5727L1413.76 33.316H1415.53V31.816ZM1417.83 17.8V16.3H1416.56L1416.35 17.5567L1417.83 17.8ZM1413.13 47.656V46.156H1411.85L1411.65 47.4203L1413.13 47.656ZM1409.1 73V74.5H1410.38L1410.58 73.2357L1409.1 73ZM1387.3 73L1385.82 72.765L1385.55 74.5H1387.3V73ZM1398.63 1.576V0.0759983H1397.35L1397.15 1.34103L1398.63 1.576ZM1466.41 36.712L1465.99 35.2705L1461.16 36.6615L1465.97 38.1452L1466.41 36.712ZM1477.16 52.456L1478.64 52.693L1478.64 52.6876L1477.16 52.456ZM1475.24 64.456L1473.76 64.219L1473.76 64.2321L1475.24 64.456ZM1475.34 72.52L1476.81 72.8142L1476.87 72.4834L1476.79 72.1562L1475.34 72.52ZM1475.24 73V74.5H1476.47L1476.71 73.2942L1475.24 73ZM1453.06 73L1451.72 73.6708L1452.14 74.5H1453.06V73ZM1452.87 68.2L1454.35 68.4388L1454.35 68.4349L1452.87 68.2ZM1454.12 60.328L1452.64 60.0923L1452.64 60.0931L1454.12 60.328ZM1415.53 33.316H1448.74V30.316H1415.53V33.316ZM1448.74 33.316C1452.61 33.316 1455.51 32.2542 1457.45 30.4734C1459.39 28.6903 1460.23 26.3255 1460.23 24.04H1457.23C1457.23 25.5945 1456.67 27.1177 1455.42 28.2626C1454.17 29.4098 1452.07 30.316 1448.74 30.316V33.316ZM1460.23 24.04C1460.23 21.924 1459.61 19.8936 1457.93 18.4238C1456.29 16.9862 1453.88 16.3 1450.76 16.3V19.3C1453.5 19.3 1455.07 19.9098 1455.95 20.6802C1456.79 21.4184 1457.23 22.508 1457.23 24.04H1460.23ZM1450.76 16.3H1417.83V19.3H1450.76V16.3ZM1416.35 17.5567L1414.05 31.5727L1417.01 32.0593L1419.31 18.0433L1416.35 17.5567ZM1411.65 47.4203L1407.61 72.7643L1410.58 73.2357L1414.61 47.8917L1411.65 47.4203ZM1409.1 71.5H1387.3V74.5H1409.1V71.5ZM1388.79 73.235L1400.11 1.81096L1397.15 1.34103L1385.82 72.765L1388.79 73.235ZM1398.63 3.076H1455.27V0.0759983H1398.63V3.076ZM1455.27 3.076C1465.59 3.076 1471.92 5.04768 1475.65 7.91306C1479.29 10.7191 1480.65 14.5457 1480.65 18.856H1483.65C1483.65 13.8543 1482.03 9.04085 1477.47 5.53493C1472.99 2.08832 1465.88 0.0759983 1455.27 0.0759983V3.076ZM1480.65 18.856C1480.65 28.8179 1472.19 33.4858 1465.99 35.2705L1466.82 38.1535C1473.29 36.2902 1483.65 30.9741 1483.65 18.856H1480.65ZM1465.97 38.1452C1469.07 39.1039 1471.81 40.6112 1473.61 42.8284C1475.36 44.9945 1476.34 47.9871 1475.68 52.2244L1478.64 52.6876C1479.42 47.7089 1478.29 43.8374 1475.94 40.9396C1473.63 38.0928 1470.27 36.3361 1466.85 35.2788L1465.97 38.1452ZM1475.68 52.219L1473.76 64.219L1476.72 64.693L1478.64 52.693L1475.68 52.219ZM1473.76 64.2321C1473.36 66.8549 1473.3 68.6953 1473.4 70.0657C1473.49 71.4532 1473.74 72.32 1473.88 72.8838L1476.79 72.1562C1476.64 71.568 1476.46 70.9468 1476.39 69.8623C1476.31 68.7607 1476.35 67.1451 1476.72 64.6799L1473.76 64.2321ZM1473.86 72.2258L1473.77 72.7058L1476.71 73.2942L1476.81 72.8142L1473.86 72.2258ZM1475.24 71.5H1453.06V74.5H1475.24V71.5ZM1454.41 72.3292C1454.22 71.9596 1453.9 71.2656 1454.35 68.4388L1451.39 67.9612C1450.89 71.0864 1451.14 72.5044 1451.72 73.6708L1454.41 72.3292ZM1454.35 68.4349L1455.6 60.5629L1452.64 60.0931L1451.39 67.9651L1454.35 68.4349ZM1455.6 60.5637C1456.3 56.1894 1455.91 52.4187 1453.42 49.7915C1450.97 47.2132 1446.88 46.156 1441.26 46.156V49.156C1446.67 49.156 1449.68 50.2108 1451.24 51.8565C1452.76 53.4533 1453.29 56.0186 1452.64 60.0923L1455.6 60.5637ZM1441.26 46.156H1413.13V49.156H1441.26V46.156ZM1511.51 73L1510.03 72.7653L1509.75 74.5H1511.51V73ZM1520.15 18.472L1521.63 18.7067L1521.9 16.972H1520.15V18.472ZM1490.68 18.472L1489.19 18.2445L1488.93 19.972H1490.68V18.472ZM1493.27 1.576V0.0759983H1491.98L1491.79 1.34855L1493.27 1.576ZM1574.39 1.576L1575.87 1.81167L1576.15 0.0759983H1574.39V1.576ZM1571.7 18.472V19.972H1572.98L1573.18 18.7077L1571.7 18.472ZM1542.23 18.472V16.972H1540.95L1540.75 18.2373L1542.23 18.472ZM1533.59 73V74.5H1534.87L1535.07 73.2347L1533.59 73ZM1512.99 73.2347L1521.63 18.7067L1518.67 18.2373L1510.03 72.7653L1512.99 73.2347ZM1520.15 16.972H1490.68V19.972H1520.15V16.972ZM1492.16 18.6995L1494.75 1.80345L1491.79 1.34855L1489.19 18.2445L1492.16 18.6995ZM1493.27 3.076H1574.39V0.0759983H1493.27V3.076ZM1572.91 1.34033L1570.22 18.2363L1573.18 18.7077L1575.87 1.81167L1572.91 1.34033ZM1571.7 16.972H1542.23V19.972H1571.7V16.972ZM1540.75 18.2373L1532.11 72.7653L1535.07 73.2347L1543.71 18.7067L1540.75 18.2373ZM1533.59 71.5H1511.51V74.5H1533.59V71.5Z" fill="#F8F8F8"/>
</svg>
