<svg width="1575" height="75" viewBox="0 0 1575 75" fill="none" xmlns="http://www.w3.org/2000/svg">
<path d="M1511.51 73.0002L1520.15 18.4722H1490.68L1493.27 1.57617H1574.39L1571.7 18.4722H1542.23L1533.59 73.0002H1511.51Z" fill="#F8F8F8"/>
<path d="M1415.53 31.8162H1448.74C1455.94 31.8162 1458.73 27.8802 1458.73 24.0402C1458.73 20.3922 1456.62 17.8002 1450.76 17.8002H1417.83L1415.53 31.8162ZM1413.13 47.6562L1409.1 73.0002H1387.3L1398.63 1.57617H1455.27C1476.2 1.57617 1482.15 9.54417 1482.15 18.8562C1482.15 29.8962 1472.74 34.8882 1466.41 36.7122C1472.94 38.7282 1478.6 43.2402 1477.16 52.4562L1475.24 64.4562C1474.47 69.5442 1475.05 71.3682 1475.34 72.5202L1475.24 73.0002H1453.06C1452.68 72.2322 1452.39 71.1762 1452.87 68.2002L1454.12 60.3282C1455.46 51.8802 1452.3 47.6562 1441.26 47.6562H1413.13Z" fill="#F8F8F8"/>
<path d="M1324.97 74.2481C1286.09 74.2481 1278.21 55.3361 1278.21 42.5681C1278.21 40.3601 1278.21 37.9601 1278.69 34.5041C1280.42 22.7921 1286.38 0.328125 1330.34 0.328125H1334.47C1373.06 0.328125 1381.32 18.6641 1381.32 31.5281C1381.32 34.0241 1381.22 36.6161 1380.84 39.3041C1379.01 51.5921 1373.16 74.2481 1329.09 74.2481H1324.97ZM1358.28 33.8321C1358.28 25.9601 1352.9 17.6081 1331.69 17.6081C1307.98 17.6081 1302.31 28.1681 1301.64 36.3281C1301.54 37.5761 1301.54 38.5361 1301.54 39.5921C1301.54 47.3681 1306.25 56.8721 1327.85 56.8721C1351.17 56.8721 1356.84 46.3121 1357.99 37.6721C1358.18 36.2321 1358.28 35.1761 1358.28 33.8321Z" fill="#F8F8F8"/>
<path d="M1201.5 73.0002H1179.7L1191.03 1.57617H1241.43C1264.86 1.57617 1272.44 10.4082 1272.44 22.8882C1272.44 34.4082 1266.87 49.1922 1237.98 49.1922H1205.34L1201.5 73.0002ZM1207.74 33.1602H1237.88C1245.94 33.1602 1249.21 29.5122 1249.21 24.4242C1249.21 20.1042 1246.33 17.8002 1240.18 17.8002H1210.23L1207.74 33.1602Z" fill="#F8F8F8"/>
<path d="M1105.29 73.0002H1083.5L1094.83 1.57617H1145.23C1168.65 1.57617 1176.24 10.4082 1176.24 22.8882C1176.24 34.4082 1170.67 49.1922 1141.77 49.1922H1109.13L1105.29 73.0002ZM1111.53 33.1602H1141.68C1149.74 33.1602 1153 29.5122 1153 24.4242C1153 20.1042 1150.12 17.8002 1143.98 17.8002H1114.03L1111.53 33.1602Z" fill="#F8F8F8"/>
<path d="M1030.44 74.0562H1027.17C990.311 74.0562 984.263 49.8642 986.567 35.4642L991.943 1.57617H1013.83L1008.65 34.3122C1007.11 44.0082 1010.37 55.5282 1029.19 55.5282C1047.05 55.5282 1052.13 43.9122 1053.57 34.8882L1058.85 1.57617H1080.74L1075.27 36.0402C1072.87 51.2082 1065 74.0562 1030.44 74.0562Z" fill="#F8F8F8"/>
<path d="M924.98 74.2481C888.788 74.2481 886.1 57.8321 887.252 47.6561H909.812C909.908 52.1681 911.252 58.9841 929.204 58.9841H930.356C950.324 58.9841 951.668 54.0881 951.668 50.5361C951.668 46.6961 949.556 44.5841 935.636 44.2001L923.732 43.9121C898.868 43.3361 891.956 34.0241 891.956 23.0801C891.956 21.7361 892.052 20.6801 892.244 19.3361C893.684 9.54413 900.884 0.328125 932.66 0.328125H938.804C971.828 0.328125 978.068 12.0401 976.628 23.8481H954.164C953.876 20.9681 953.108 15.2081 934.964 15.2081H933.62C915.764 15.2081 914.708 18.7601 914.708 21.6401C914.708 24.3281 916.052 27.4001 929.012 27.5921L940.532 27.7841C965.876 28.1681 974.996 34.6001 974.996 47.8481C974.996 49.5761 974.804 51.7841 974.516 53.2241C972.404 63.5921 966.26 74.2481 931.22 74.2481H924.98Z" fill="#F8F8F8"/>
<path d="M791.51 74.2481C752.63 74.2481 744.758 55.3361 744.758 42.5681C744.758 40.3601 744.758 37.9601 745.238 34.5041C746.966 22.7921 752.918 0.328125 796.886 0.328125H801.014C839.606 0.328125 847.862 18.6641 847.862 31.5281C847.862 34.0241 847.766 36.6161 847.382 39.3041C845.558 51.5921 839.702 74.2481 795.638 74.2481H791.51ZM824.822 33.8321C824.822 25.9601 819.446 17.6081 798.23 17.6081C774.518 17.6081 768.854 28.1681 768.182 36.3281C768.086 37.5761 768.086 38.5361 768.086 39.5921C768.086 47.3681 772.79 56.8721 794.39 56.8721C817.718 56.8721 823.382 46.3121 824.534 37.6721C824.726 36.2321 824.822 35.1761 824.822 33.8321Z" fill="#F8F8F8"/>
<path d="M738.901 1.57617L727.573 73.0002H705.781L717.109 1.57617H738.901Z" fill="#F8F8F8"/>
<path d="M598.512 73.0002L609.84 1.57617H652.944C689.904 1.57617 699.984 16.6482 699.984 32.2002C699.984 35.3682 699.696 38.3442 699.216 41.1282C696.816 54.9522 686.64 73.0962 647.472 73.0002H598.512ZM628.848 18.4722L622.896 55.8162H645.648C670.032 55.8162 675.024 46.0242 676.464 38.6322C676.752 37.1922 676.944 35.5602 676.944 34.3122C676.944 27.0162 673.008 18.4722 651.6 18.4722H628.848Z" fill="#F8F8F8"/>
<path d="M545.45 74.0562H542.186C505.322 74.0562 499.274 49.8642 501.578 35.4642L506.954 1.57617H528.842L523.658 34.3122C522.122 44.0082 525.386 55.5282 544.202 55.5282C562.058 55.5282 567.146 43.9122 568.586 34.8882L573.866 1.57617H595.754L590.282 36.0402C587.882 51.2082 580.01 74.0562 545.45 74.0562Z" fill="#F8F8F8"/>
<path d="M464.031 43.8162L454.239 17.0322L437.631 43.8162H464.031ZM474.783 73.0002L469.983 59.9442H427.647L419.583 73.0002H397.023L442.143 1.57617H470.271L497.439 73.0002H474.783Z" fill="#F8F8F8"/>
<path d="M266.75 73.0002L278.078 1.57617H299.87L295.742 27.5922H341.726L345.854 1.57617H367.646L356.318 73.0002H334.526L338.942 44.8722H292.958L288.542 73.0002H266.75Z" fill="#F8F8F8"/>
<path d="M203.32 73.0002L211.96 18.4722H182.488L185.08 1.57617H266.2L263.512 18.4722H234.04L225.4 73.0002H203.32Z" fill="#F8F8F8"/>
<path d="M119.924 74.2481C81.0439 74.2481 73.1719 55.3361 73.1719 42.5681C73.1719 40.3601 73.1719 37.9601 73.6519 34.5041C75.3799 22.7921 81.3319 0.328125 125.3 0.328125H129.428C168.02 0.328125 176.276 18.6641 176.276 31.5281C176.276 34.0241 176.18 36.6161 175.796 39.3041C173.972 51.5921 168.116 74.2481 124.052 74.2481H119.924ZM153.236 33.8321C153.236 25.9601 147.86 17.6081 126.644 17.6081C102.932 17.6081 97.2679 28.1681 96.5959 36.3281C96.4999 37.5761 96.4999 38.5361 96.4999 39.5921C96.4999 47.3681 101.204 56.8721 122.804 56.8721C146.132 56.8721 151.796 46.3121 152.948 37.6721C153.14 36.2321 153.236 35.1761 153.236 33.8321Z" fill="#F8F8F8"/>
<path d="M8.52936 74.2481C-30.3506 74.2481 -38.2227 55.3361 -38.2227 42.5681C-38.2227 40.3601 -38.2226 37.9601 -37.7426 34.5041C-36.0146 22.7921 -30.0626 0.328125 13.9054 0.328125H18.0334C56.6254 0.328125 64.8813 18.6641 64.8813 31.5281C64.8813 34.0241 64.7854 36.6161 64.4014 39.3041C62.5774 51.5921 56.7213 74.2481 12.6573 74.2481H8.52936ZM41.8414 33.8321C41.8414 25.9601 36.4654 17.6081 15.2494 17.6081C-8.46261 17.6081 -14.1266 28.1681 -14.7986 36.3281C-14.8946 37.5761 -14.8947 38.5361 -14.8947 39.5921C-14.8947 47.3681 -10.1906 56.8721 11.4094 56.8721C34.7374 56.8721 40.4013 46.3121 41.5533 37.6721C41.7453 36.2321 41.8414 35.1761 41.8414 33.8321Z" fill="#F8F8F8"/>
</svg>
