<svg width="1566" height="75" viewBox="0 0 1566 75" fill="none" xmlns="http://www.w3.org/2000/svg">
<path d="M1536.34 1.57617H1558.13L1549.58 55.2402H1597.39L1594.61 73.0002H1525.01L1536.34 1.57617Z" fill="#F8F8F8"/>
<path d="M1421.74 1.57617H1443.53L1434.99 55.2402H1482.79L1480.01 73.0002H1410.41L1421.74 1.57617Z" fill="#F8F8F8"/>
<path d="M1369.51 43.8162L1359.72 17.0322L1343.11 43.8162H1369.51ZM1380.26 73.0002L1375.46 59.9442H1333.13L1325.06 73.0002H1302.5L1347.62 1.57617H1375.75L1402.92 73.0002H1380.26Z" fill="#F8F8F8"/>
<path d="M1260.96 74.0562H1257.69C1220.83 74.0562 1214.78 49.8642 1217.09 35.4642L1222.46 1.57617H1244.35L1239.17 34.3122C1237.63 44.0082 1240.89 55.5282 1259.71 55.5282C1277.57 55.5282 1282.65 43.9122 1284.09 34.8882L1289.37 1.57617H1311.26L1305.79 36.0402C1303.39 51.2082 1295.52 74.0562 1260.96 74.0562Z" fill="#F8F8F8"/>
<path d="M1105.2 73.0002L1116.52 1.57617H1159.63C1196.59 1.57617 1206.67 16.6482 1206.67 32.2002C1206.67 35.3682 1206.38 38.3442 1205.9 41.1282C1203.5 54.9522 1193.32 73.0962 1154.16 73.0002H1105.2ZM1135.53 18.4722L1129.58 55.8162H1152.33C1176.72 55.8162 1181.71 46.0242 1183.15 38.6322C1183.44 37.1922 1183.63 35.5602 1183.63 34.3122C1183.63 27.0162 1179.69 18.4722 1158.28 18.4722H1135.53Z" fill="#F8F8F8"/>
<path d="M1027.78 73.001L1065.89 4.45703H1074.53L1036.52 73.001H1027.78Z" fill="#F8F8F8"/>
<path d="M988.766 73.001L1026.88 4.45703H1035.52L997.502 73.001H988.766Z" fill="#F8F8F8"/>
<path d="M889.857 31.8162H923.073C930.273 31.8162 933.057 27.8802 933.057 24.0402C933.057 20.3922 930.945 17.8002 925.089 17.8002H892.161L889.857 31.8162ZM887.457 47.6562L883.425 73.0002H861.633L872.961 1.57617H929.601C950.529 1.57617 956.481 9.54417 956.481 18.8562C956.481 29.8962 947.073 34.8882 940.737 36.7122C947.265 38.7282 952.929 43.2402 951.489 52.4562L949.569 64.4562C948.801 69.5442 949.377 71.3682 949.665 72.5202L949.569 73.0002H927.393C927.009 72.2322 926.721 71.1762 927.201 68.2002L928.449 60.3282C929.793 51.8802 926.625 47.6562 915.585 47.6562H887.457Z" fill="#F8F8F8"/>
<path d="M799.295 74.2481C760.415 74.2481 752.543 55.3361 752.543 42.5681C752.543 40.3601 752.543 37.9601 753.023 34.5041C754.751 22.7921 760.703 0.328125 804.671 0.328125H808.799C847.391 0.328125 855.647 18.6641 855.647 31.5281C855.647 34.0241 855.551 36.6161 855.167 39.3041C853.343 51.5921 847.487 74.2481 803.423 74.2481H799.295ZM832.607 33.8321C832.607 25.9601 827.231 17.6081 806.015 17.6081C782.303 17.6081 776.639 28.1681 775.967 36.3281C775.871 37.5761 775.871 38.5361 775.871 39.5921C775.871 47.3681 780.575 56.8721 802.175 56.8721C825.503 56.8721 831.167 46.3121 832.319 37.6721C832.511 36.2321 832.607 35.1761 832.607 33.8321Z" fill="#F8F8F8"/>
<path d="M684.301 1.57617H706.093L697.549 55.2402H745.357L742.573 73.0002H672.973L684.301 1.57617Z" fill="#F8F8F8"/>
<path d="M610.635 74.2481C571.755 74.2481 563.883 55.3361 563.883 42.5681C563.883 40.3601 563.883 37.9601 564.363 34.5041C566.091 22.7921 572.043 0.328125 616.011 0.328125H620.139C658.731 0.328125 666.987 18.6641 666.987 31.5281C666.987 34.0241 666.891 36.6161 666.507 39.3041C664.683 51.5921 658.827 74.2481 614.763 74.2481H610.635ZM643.947 33.8321C643.947 25.9601 638.571 17.6081 617.355 17.6081C593.643 17.6081 587.979 28.1681 587.307 36.3281C587.211 37.5761 587.211 38.5361 587.211 39.5921C587.211 47.3681 591.915 56.8721 613.515 56.8721C636.843 56.8721 642.507 46.3121 643.659 37.6721C643.851 36.2321 643.947 35.1761 643.947 33.8321Z" fill="#F8F8F8"/>
<path d="M505.828 74.2481H501.988C466.372 74.2481 457.828 55.0481 457.828 41.1281C457.828 38.8241 457.924 36.7121 458.404 33.2561C460.036 21.1601 468.964 0.328125 508.516 0.328125H512.26C553.636 0.328125 558.148 19.7201 556.708 29.5121H533.572C533.284 27.4001 531.364 17.6081 509.188 17.6081C488.74 17.6081 482.692 27.2081 481.54 34.5041C481.252 36.3281 481.156 37.8641 481.156 39.5921C481.156 48.1361 486.532 56.8721 504.772 56.8721C527.428 56.8721 530.692 45.8321 531.364 44.2001H554.5C553.54 54.4721 545.572 74.2481 505.828 74.2481Z" fill="#F8F8F8"/>
<path d="M359.176 73.0002L367.816 18.4722H338.344L340.936 1.57617H422.056L419.368 18.4722H389.896L381.256 73.0002H359.176Z" fill="#F8F8F8"/>
<path d="M329.03 1.57617L317.702 73.0002H295.91L307.238 1.57617H329.03Z" fill="#F8F8F8"/>
<path d="M195.953 73.0002L207.281 1.57617H265.841C284.273 1.57617 289.745 8.48817 289.745 17.5122C289.745 27.4962 280.721 31.6242 275.825 32.9682C280.145 34.2162 288.497 38.5362 288.497 49.2882C288.497 62.5362 280.721 73.0002 257.105 73.0002H195.953ZM258.833 28.2642C265.361 28.2642 267.377 24.8082 267.377 21.8322C267.377 19.0482 266.129 16.6482 260.465 16.6482H226.673L224.849 28.2642H258.833ZM256.049 57.4482C264.017 57.4482 265.841 52.6482 265.841 49.5762C265.841 46.5042 264.593 43.4322 257.969 43.4322H222.449L220.241 57.4482H256.049Z" fill="#F8F8F8"/>
<path d="M158.626 36.2324H188.674L185.986 52.7444H155.938L158.626 36.2324Z" fill="#F8F8F8"/>
<path d="M148.519 31.5281C148.519 34.1201 148.423 36.8081 147.943 39.6881C145.831 52.0721 139.591 74.2481 98.1185 74.2481H93.9905C57.1265 74.2481 49.0625 55.3361 49.0625 42.5681C49.0625 40.4561 49.0625 38.1521 49.5425 34.6961C51.1745 22.6001 57.8945 0.328125 99.5585 0.328125H103.591C139.975 0.328125 148.519 18.6641 148.519 31.5281ZM125.479 33.8321C125.479 25.9601 120.007 17.6081 100.903 17.6081C78.8225 17.6081 73.9265 27.8801 72.6785 35.5601C72.3905 37.3841 72.3905 38.3441 72.3905 39.5921C72.3905 47.3681 77.0945 56.8721 96.8705 56.8721C118.375 56.8721 123.943 46.4081 125.191 37.7681C125.383 36.4241 125.479 35.1761 125.479 33.8321Z" fill="#F8F8F8"/>
<path d="M16.9271 28.7442H0.703125L2.91113 15.3042C15.1991 14.2482 20.9591 9.16017 24.9911 1.57617H42.8471L31.5191 73.0002H9.91913L16.9271 28.7442Z" fill="#F8F8F8"/>
</svg>
