<svg width="1605" height="835" viewBox="0 0 1605 835" fill="none" xmlns="http://www.w3.org/2000/svg">
<path d="M884.209 612.863C893.577 612.823 902.42 612.74 910.737 612.614C919.42 612.651 930.823 612.176 944.944 611.19C980.088 608.845 1015.53 604.531 1051.27 598.246C1071.01 594.79 1092.17 590.052 1114.75 584.034C1109.95 584.577 1104.81 585.158 1099.33 585.778C1093.84 586.399 1090.21 586.504 1088.43 586.094C1087.01 585.847 1085.94 585.561 1085.21 585.236C1084.11 584.749 1083.15 583.94 1082.33 582.81C1081.51 581.68 1080.36 580.79 1078.9 580.141C1076.71 579.166 1075.09 578.636 1074.04 578.551C1073.35 578.629 1072.83 578.586 1072.46 578.424C1071.36 577.936 1070.22 577.047 1069.03 575.754C1068.21 574.625 1067.55 573.375 1067.05 572.005C1067.23 570.557 1067.8 569.474 1068.76 568.754L1070.75 567.917C1071.07 567.677 1071.21 567.356 1071.16 566.954C1071.8 566.474 1071.76 566.071 1071.03 565.746L1074.45 563.83C1076.1 563.033 1084.35 560.775 1099.2 557.056L1129.51 548.737L1116.62 549.89C1102.91 551.44 1085.52 554.223 1064.45 558.236C1043.7 562.01 1032.52 564.497 1030.92 565.697L1030.99 566.301C1030.35 566.781 1027.93 566.851 1023.73 566.511C1019.89 566.334 1014.49 567.759 1007.55 570.787C1004.9 571.902 999.32 573.246 990.819 574.819C988.763 575.052 987.232 575.327 986.226 575.644C985.906 575.884 984.923 576.403 983.278 577.201L982.386 578.524C981.746 579.004 981.061 579.082 980.329 578.757C979.598 578.432 977.702 578.545 974.64 579.095C971.943 579.808 968.927 580.76 965.59 581.953C962.939 583.068 961.293 583.866 960.653 584.346C960.013 584.826 959.351 585.104 958.665 585.182C958.665 585.182 958.14 585.139 957.089 585.054C956.358 584.73 955.832 584.687 955.512 584.927L954.14 586.611L953.66 586.971C952.975 587.048 952.267 586.925 951.535 586.6C951.17 586.437 950.462 586.314 949.411 586.229C948.725 586.306 947.742 586.825 946.462 587.785C945.502 588.505 944.2 589.264 942.554 590.061C937.617 592.454 934.235 593.244 932.408 592.432C932.042 592.269 931.699 592.308 931.379 592.548C931.379 592.548 931.219 592.668 930.899 592.908L929.528 594.592L928.979 594.348C928.659 594.588 927.951 594.464 926.855 593.977C925.758 593.49 924.57 593.726 923.29 594.686C923.655 594.849 923.678 595.05 923.358 595.29C922.718 595.77 920.044 596.684 915.337 598.031C913.326 598.666 911.68 599.464 910.4 600.424L909.988 601.388L906.835 601.133C904.413 601.203 896.871 605.113 884.209 612.863ZM852.049 636.983C852.369 636.743 852.323 636.341 851.912 635.776C851.501 635.211 850.565 634.604 849.103 633.954C847.64 633.304 846.384 632.937 845.333 632.852C844.282 632.767 843.596 632.845 843.276 633.085L852.049 636.983ZM1084.45 583.181C1085.18 583.506 1087.42 583.355 1091.17 582.727L1096.24 581.542C1095.88 581.379 1093.8 581.411 1090.01 581.636C1086.58 582.024 1084.71 582.337 1084.39 582.577C1084.07 582.817 1084.09 583.019 1084.45 583.181ZM1176.06 518.403C1181.09 519.873 1184.97 520.452 1187.72 520.142L1182.64 516.742C1181.18 516.092 1178.67 515.357 1175.11 514.537C1171.91 513.88 1169.99 513.792 1169.35 514.272C1168.71 514.752 1169.67 515.56 1172.23 516.697L1176.06 518.403ZM916.098 738.263C914.271 737.451 914.157 736.445 915.757 735.245C917.357 734.045 918.134 733.244 918.088 732.841L918.568 732.481L916.992 732.354C914.068 731.054 911.921 728.953 910.551 726.051C908.861 723.389 907.765 721.373 907.263 720.003C906.761 718.633 907.287 717.147 908.842 715.545L915.425 709.297C922.465 704.017 935.425 695.826 954.303 684.723C973.182 673.62 993.615 662.444 1015.6 651.193C1030.78 644.178 1039.96 639.47 1043.16 637.07C1042.43 636.745 1033.52 637.753 1016.43 640.094C1001.39 642.203 981.649 644.13 957.199 645.877C916.891 648.602 886.89 648.837 867.194 646.581C857.004 645.492 849.715 643.973 845.329 642.023C842.405 640.724 840.006 639.467 838.133 638.252C836.26 637.037 831.807 629.898 824.775 616.835C823.816 614.498 822.492 611.998 820.802 609.336C817.241 602.402 820.74 594.975 831.3 587.055C844.42 577.215 867.891 566.816 901.714 555.857C967.713 534.736 1033.96 520.415 1100.46 512.893C1144.65 507.691 1172.96 507.851 1185.39 513.374C1191.97 516.298 1194.2 520.733 1192.1 526.677C1191.96 531.584 1192.87 535.048 1194.84 537.067C1197.12 538.847 1198.38 542.272 1198.6 547.341C1199.52 552.333 1197.41 556.749 1192.29 560.589C1185.25 565.869 1172.8 570.844 1154.93 575.515L1143.82 578.606C1146.01 579.581 1159.18 576.257 1183.31 568.636L1301.37 530.52C1326.46 522.179 1354.16 513.849 1384.46 505.53C1414.76 497.211 1441.93 490.367 1465.97 484.998C1520.18 473.16 1551.16 467.821 1558.93 468.98C1563.91 470.047 1568.28 470.267 1572.02 469.639C1574.81 469.731 1576.94 470.102 1578.4 470.752C1579.54 471.642 1579.81 472.528 1579.22 473.411L1578.74 473.771C1577.78 474.491 1576.29 475.168 1574.28 475.803C1572.59 476.198 1571.59 476.516 1571.27 476.756C1570.95 476.996 1570.63 477.236 1570.31 477.476C1569.99 477.716 1570.56 478.161 1572.02 478.811L1574.14 479.182C1574.51 479.344 1574.56 479.747 1574.28 480.389C1574.69 480.954 1574.58 481.476 1573.94 481.956C1573.3 482.436 1572.89 483.4 1572.7 484.848C1572.52 486.295 1572.52 487.824 1572.7 489.433C1573.57 490.966 1573.96 492.858 1573.86 495.11C1573.77 497.362 1573.47 499.332 1572.97 501.02C1572.83 502.869 1572.51 504.638 1572.01 506.325L1524.91 518.073C1424.59 542.668 1330.21 570.667 1241.77 602.071C1212.79 612.89 1196.45 618.814 1192.75 619.844L1182.8 624.026C1179.88 625.783 1176.72 627.057 1173.34 627.847C1170.33 628.8 1166.99 629.993 1163.33 631.425C1160 632.618 1157 633.772 1154.35 634.887C1153.67 634.964 1152.84 635.363 1151.88 636.083C1126.74 644.022 1077.56 666.501 1004.34 703.52C978.693 716.203 960.021 726.06 948.319 733.09C941.233 737.968 936.594 739.919 934.401 738.944C933.67 738.619 933.098 738.174 932.687 737.609C932.276 737.045 931.888 736.681 931.523 736.518C929.695 735.706 927.296 735.978 924.325 737.333C921.033 738.928 918.291 739.238 916.098 738.263Z" fill="#141414"/>
<path d="M897.212 566.468C896.481 566.143 896.275 565.861 896.595 565.621C896.915 565.381 898.103 565.144 900.16 564.912C902.217 564.679 903.793 564.807 904.89 565.294L904.958 565.898C904.638 566.138 903.633 566.455 901.942 566.85C900.616 567.408 899.039 567.28 897.212 566.468ZM620.705 520.403C622.076 520.248 623.081 519.93 623.721 519.45C625.321 518.25 625.756 517.488 625.025 517.163C624.294 516.838 623.288 517.155 622.008 518.115C620.408 519.315 619.791 519.997 620.156 520.159L620.705 520.403ZM1042.73 444.234C1044.1 444.079 1046.27 443.324 1049.24 441.969C1049.88 441.489 1049.99 440.967 1049.58 440.402C1048.85 440.077 1046.91 439.787 1043.76 439.532C1040.97 439.44 1039.25 439.634 1038.61 440.114C1037.33 441.074 1038.34 442.285 1041.63 443.747L1042.73 444.234ZM624.332 534.055C623.601 533.73 622.117 531.35 619.879 526.916L618.919 527.636C617.641 525.539 616.933 523.886 616.796 522.679C616.294 521.309 617.003 519.904 618.923 518.464C620.478 516.862 623.175 514.621 627.015 511.741C655.997 491.751 710.573 466.318 790.743 435.442C841.981 415.788 877.449 404.031 897.147 400.173C906.699 398.685 913.302 398.753 916.958 400.377C919.882 401.677 922.371 403.739 924.427 406.564C928.217 412.453 933.333 417.784 939.775 422.558L946.079 427.654L939.498 429.315C934.15 431.143 928.277 432.928 921.878 434.671C915.845 436.576 911.663 437.966 909.332 438.842C907.366 439.879 903.893 441.393 898.91 443.383C894.248 445.133 889.083 447.042 883.416 449.11C874.412 452.37 866.07 455.352 858.392 458.055C851.398 460.68 847.102 462.593 845.502 463.793L845.57 464.396C844.93 464.876 843.879 464.791 842.417 464.142C841.32 463.654 840.452 463.651 839.812 464.131L839.332 464.491L827.882 469.148C821.849 471.054 818.513 472.246 817.873 472.726C818.969 473.214 831.035 470.932 854.07 465.88C860.194 464.78 866.295 463.479 872.374 461.976C874.43 461.743 876.464 461.309 878.475 460.674C905.623 455.158 931.719 451.085 956.764 448.456C984.87 445.276 1003.68 442.741 1013.18 440.851C1032.47 436.427 1045.04 435.515 1050.89 438.114C1054.54 439.739 1053.81 442.471 1048.69 446.311L1046.36 448.715C1044.16 450.797 1045.44 452.895 1050.19 455.007L1052.32 455.378C1055.24 456.677 1056.77 459.459 1056.91 463.724C1057.36 467.748 1056.31 470.721 1053.75 472.641C1045.43 478.881 1019.86 492.168 977.026 512.501C971.404 514.971 955.612 522.668 929.649 535.591C913.559 543.729 900.532 551.317 890.566 558.354C883.846 563.394 881.4 566.321 883.227 567.133C884.324 567.62 885.923 567.949 888.025 568.119C890.128 568.289 892.07 568.578 893.852 568.988C898.147 570.133 901.803 570.229 904.82 569.276C905.14 569.036 906.351 569.001 908.453 569.171C914.85 570.485 921.567 571.56 928.605 572.394C931.758 572.649 933.883 573.02 934.979 573.507C935.756 574.234 936.258 575.604 936.486 577.617C936.713 579.629 937.238 581.2 938.06 582.33C939.202 583.219 940.322 583.908 941.418 584.395C942.88 585.045 943.817 585.653 944.228 586.218C941.531 586.93 937.761 587.357 932.917 587.497C935.475 588.634 936.115 589.683 934.835 590.643C934.195 591.123 933.006 591.359 931.27 591.352C926.38 591.09 921.856 590.99 917.697 591.053C907.278 591.009 898.367 590.488 890.964 589.491C883.561 588.494 876.021 586.29 868.345 582.879C859.207 578.817 852.56 573.761 848.404 567.709C844.568 561.418 843.771 555.903 846.012 551.166C848.254 546.429 853.694 540.82 862.334 534.34C877.694 522.82 903.109 508.125 938.58 490.254C940.545 489.216 943.654 487.54 947.905 485.225C952.521 483.072 956.955 480.839 961.206 478.523C965.823 476.371 968.611 474.935 969.571 474.215C966.281 472.752 939.363 477.224 888.814 487.629C842.014 497.407 811.027 504.275 795.853 508.233C713.357 527.755 666.648 538.337 655.725 539.981C648.55 540.996 644.231 541.179 642.769 540.529C641.672 540.042 641.078 539.396 640.987 538.591C640.576 538.026 639.822 537.5 638.726 537.012C637.264 536.362 635.299 535.871 632.831 535.539C629.998 535.044 627.873 534.673 626.457 534.426L624.332 534.055ZM910.784 566.767L909.688 566.28L918.531 566.197L917.571 566.917C917.251 567.157 916.04 567.192 913.938 567.022L910.784 566.767Z" fill="#141414"/>
<path d="M455.141 452.553C455.872 452.878 457.632 453.086 460.419 453.179C463.252 453.673 465.149 453.561 466.109 452.841C466.383 452.198 465.767 451.351 464.259 450.299C463.528 449.974 462.089 449.525 459.941 448.953C457.839 448.783 456.308 449.058 455.348 449.778L454.936 450.742C454.342 451.624 454.41 452.228 455.141 452.553ZM544.643 507.238C545.374 507.563 546.859 506.885 549.099 505.205C550.059 504.485 550.836 503.684 551.431 502.802L552.323 501.478C551.957 501.315 550.654 502.074 548.414 503.754C545.534 505.914 544.277 507.075 544.643 507.238ZM564.596 494.893L566.104 494.416C567.11 494.099 567.932 493.7 568.572 493.22C570.492 491.78 571.087 490.898 570.356 490.573C569.99 490.41 568.687 491.169 566.447 492.849L564.596 494.893ZM549.161 519.566C548.065 519.079 547.243 517.949 546.695 516.177C545.828 514.645 545.028 513.716 544.297 513.391C543.201 512.904 541.807 512.858 540.116 513.253C538.47 514.05 536.916 514.124 535.454 513.474C535.089 513.312 534.335 512.786 533.193 511.896C532.051 511.006 528.649 505.481 522.986 495.32L538.963 484.647C548.059 479.134 562.961 471.233 583.667 460.942C601.402 452.007 619.709 443.516 638.586 435.471L645.579 432.845L645.511 432.242C645.145 432.079 643.432 432.273 640.369 432.823C637.673 433.536 634.291 434.326 630.223 435.194C570.351 449.099 523.986 456.586 491.127 457.653C471.796 458.617 459.937 458.124 455.551 456.175C451.896 454.55 449.863 451.927 449.453 448.305C447.809 446.045 446.302 443.464 444.933 440.562C442.877 437.738 441.028 435.196 439.383 432.936C437.374 430.514 436.415 428.177 436.507 425.924C436.601 420.615 441.768 414.12 452.008 406.44C464.808 396.84 487.869 384.347 521.19 368.961C554.832 353.335 599.419 336.267 654.952 317.758C682.101 309.184 703.674 303.483 719.67 300.654C728.17 299.081 733.335 298.701 735.162 299.513C736.259 300.001 735.687 301.084 733.447 302.764L731.527 304.204C728.007 306.844 726.749 309.534 727.753 312.274C728.941 313.566 730.266 314.537 731.728 315.187C733.19 315.837 734.447 316.204 735.498 316.289C736.869 316.134 737.92 316.219 738.651 316.544C739.382 316.869 740.341 317.677 741.529 318.97C743.082 320.424 743.972 322.158 744.2 324.17C744.748 325.942 744.221 327.428 742.621 328.629C742.301 328.869 739.308 330.022 733.64 332.09C727.972 334.158 721.276 336.342 713.552 338.642C694.767 344.436 669.56 353.299 637.931 365.233C606.622 376.926 580.523 387.114 559.635 395.794C542.448 403.445 527.616 410.422 515.137 416.724C505.584 421.27 499.527 424.502 496.967 426.422C496.007 427.142 495.55 427.704 495.596 428.106C498.52 429.406 523.611 425.65 570.868 416.84C601.443 410.936 677.906 393.319 800.256 363.99C813.099 360.907 825.484 358.385 837.413 356.425C856.836 353.208 867.645 352.088 869.838 353.063C870.569 353.387 870.454 353.91 869.494 354.63L867.574 356.07C865.974 357.27 864.763 358.834 863.939 360.761C863.116 362.688 862.978 364.538 863.526 366.31C864.393 367.843 865.558 368.934 867.02 369.584L871.338 370.929C872.435 371.417 873.394 372.225 874.216 373.355C875.358 374.245 876.02 375.495 876.203 377.105C876.385 378.714 875.836 379.999 874.556 380.959C873.596 381.679 847.657 391.747 796.739 411.161C754.46 427.153 721.871 439.806 698.972 449.122C676.392 458.198 653.058 468.276 628.97 479.357C591.581 495.611 568.886 506.737 560.886 512.737L555.675 517.301C552.795 519.461 550.624 520.216 549.161 519.566Z" fill="#141414"/>
<path d="M457.084 343.336C457.724 342.856 458.411 341.25 459.143 338.518C461.615 329.678 462.485 325.096 461.754 324.771L461.274 325.131C459.994 326.091 458.645 327.976 457.227 330.786C456.495 333.518 456.105 336.212 456.058 338.867C456.011 341.521 456.353 343.011 457.084 343.336ZM472.236 339.177C473.332 339.664 479.251 338.281 489.992 335.028C536.977 320.746 571.28 306.37 592.902 291.9L604.011 284.223C606.891 282.063 608.148 280.902 607.782 280.74C603.031 278.628 592.977 278.746 577.621 281.094C562.265 283.443 547.228 287.08 532.511 292.006C517.793 296.931 504.515 303.834 492.675 312.714C484.675 318.714 478.914 324.563 475.393 330.26C472.557 335.879 471.504 338.852 472.236 339.177ZM633.15 270.228L634.865 266.977C636.925 260.63 633.933 255.669 625.892 252.095L622.602 250.633C617.21 249.001 614.194 248.425 613.554 248.905C612.914 249.385 614.993 250.882 619.79 253.397C624.953 256.073 627.055 257.772 626.095 258.492L625.135 259.212C624.495 259.692 624.586 260.497 625.408 261.627C626.23 262.756 627.052 263.886 627.874 265.016C629.016 265.906 629.998 266.916 630.821 268.045C631.643 269.175 632.236 269.821 632.602 269.984L633.15 270.228ZM537.905 339.697C539.367 340.346 547.732 337.566 562.998 331.355C574.562 326.175 580.984 323.105 582.264 322.145L583.224 321.425C582.859 321.262 581.168 321.658 578.151 322.61C570.472 325.313 560.874 329.456 549.355 335.039L537.905 339.697ZM617.714 299.487C618.08 299.649 618.925 299.452 620.251 298.894C621.531 297.934 623.199 295.809 625.257 292.52C628.184 287.705 629.099 285.054 628.003 284.566C626.906 284.079 625.878 284.195 624.918 284.915C623.546 288.128 621.83 291.379 619.773 294.669C618.035 297.718 617.348 299.325 617.714 299.487ZM590.561 317.232C591.292 317.557 592.937 316.76 595.497 314.84C598.377 312.68 599.452 311.437 598.721 311.112C598.355 310.95 596.733 311.949 593.853 314.109C591.293 316.029 590.195 317.07 590.561 317.232ZM517.886 346.852C518.251 347.015 520.445 346.461 524.467 345.191C528.58 344.725 531.757 343.653 533.997 341.973L534.477 341.613C534.112 341.45 532.238 341.764 528.856 342.554C525.839 343.507 523.325 344.301 521.314 344.936C519.989 345.494 519.006 346.012 518.366 346.492L517.886 346.852ZM313.265 351.656C316.189 352.956 324.483 354.158 338.147 355.261C367.896 357.399 396.893 355.953 425.137 350.924L446.046 347.03L444.819 331.578C444.685 324.256 445.854 316.176 448.326 307.337C451.163 298.66 454.341 293.001 457.861 290.361C458.501 289.881 458.639 289.56 458.273 289.398C457.588 289.475 455.874 289.669 453.132 289.979C451.075 290.212 449.087 291.048 447.167 292.488L446.275 293.812C445.635 294.292 444.767 294.288 443.67 293.801C442.574 293.314 441.705 293.31 441.065 293.79L440.174 295.114C438.894 296.074 436.883 296.709 434.141 297.019C431.398 297.329 429.547 297.844 428.587 298.564L427.627 299.284C426.987 299.764 426.119 299.76 425.023 299.273C423.926 298.786 423.058 298.782 422.418 299.262L417.069 302.618C411.447 305.088 407.722 305.917 405.895 305.105L404.25 304.374C403.93 304.614 403.793 304.935 403.838 305.338C404.204 305.5 404.227 305.701 403.907 305.941C401.987 307.381 398.833 308.655 394.445 309.763L385.944 312.865L386.492 313.108L382.995 314.421C374.22 316.636 368.713 318.584 366.473 320.264C364.553 321.704 362.221 322.579 359.479 322.889L351.046 326.595C343.093 329.94 336.511 333.13 331.3 336.165C323.483 340.718 318.295 343.954 315.735 345.874C311.895 348.754 311.072 350.682 313.265 351.656ZM297.35 376.69L298.379 376.574C299.019 376.094 297.694 375.123 294.404 373.66C291.114 372.198 289.15 371.707 288.51 372.187C288.19 372.427 291.137 373.928 297.35 376.69ZM308.601 356.464C310.063 357.113 311.503 357.562 312.919 357.809C314.336 358.057 315.387 358.142 316.072 358.064C317.444 357.909 318.289 357.712 318.609 357.472C318.929 357.232 318.724 356.949 317.993 356.624C316.896 356.137 314.063 355.642 309.493 355.14C307.025 354.808 305.632 354.762 305.312 355.002L308.601 356.464ZM285.559 378.329C283.366 377.355 281.881 376.504 281.105 375.776C280.694 375.211 280.26 374.445 279.803 373.478C267.382 352.668 262.293 338.367 264.536 330.572C266.32 324.868 272.813 317.815 284.013 309.415C305.133 293.575 335.643 279.424 375.544 266.963C460.419 240.854 530.39 228.761 585.457 230.684C591.398 231.031 595.282 231.611 597.11 232.423C599.303 233.398 600.285 234.407 600.056 235.452C600.513 236.42 600.604 237.225 600.329 237.867C600.375 238.27 598.98 239.752 596.146 242.315C595.78 242.152 596.055 241.51 596.969 240.387C599.164 238.305 598.799 236.614 595.875 235.314C594.413 234.664 591.922 234.131 588.404 233.713C586.987 233.466 586.119 233.462 585.799 233.702C584.839 234.422 586.072 236.117 589.498 238.787C591.417 240.404 593.107 241.537 594.569 242.187C597.128 243.324 600.144 243.9 603.617 243.915C612.254 243.549 619.497 244.666 625.346 247.266C627.539 248.24 630.531 250.144 634.323 252.975C638.435 255.567 639.529 260.641 637.607 268.195C636.462 273.419 636.46 278.005 637.601 281.952C638.328 291.449 634.348 300.764 625.661 309.899C624.427 311.262 622.689 312.783 620.449 314.463C612.129 320.703 598.394 328.167 579.242 336.855C560.09 345.543 532.255 355.723 495.736 367.394C490.342 368.82 487.006 370.012 485.726 370.972C484.766 371.692 484.834 372.296 485.931 372.783C487.393 373.433 488.558 374.524 489.425 376.057C492.85 381.783 493.283 385.606 490.723 387.526C490.083 388.006 489.077 388.324 487.706 388.479C486.335 388.634 484.736 388.306 482.908 387.493C481.812 387.006 478.408 384.538 472.698 380.089C470.002 377.744 467.924 376.247 466.462 375.597C464.268 374.622 462.852 374.375 462.212 374.855C461.892 375.095 462.12 375.579 462.897 376.306C463.673 377.033 464.267 377.68 464.678 378.244C467.008 380.427 469.818 382.249 473.107 383.711L472.696 384.674C470.639 384.907 467.235 383.967 462.483 381.855L460.222 380.277C456.566 378.653 449.14 378.983 437.943 381.269C398.09 388.019 359.77 389.908 322.983 386.936C307.538 385.422 295.063 382.553 285.559 378.329Z" fill="#141414"/>
<path d="M27.7467 283.812C29.9399 284.787 31.5165 284.914 32.4765 284.194L33.4365 283.474C33.7109 282.832 33.6199 282.027 33.1633 281.06C32.3868 280.332 31.2674 279.644 29.8053 278.994C28.7087 278.507 27.8177 278.302 27.1322 278.379C26.4467 278.457 25.9439 278.616 25.6239 278.856C23.3839 280.536 24.0915 282.188 27.7467 283.812ZM266.303 270.584C266.669 270.747 267.012 270.708 267.332 270.468C268.612 269.508 269.482 264.926 269.942 256.722C269.396 251.892 267.251 245.205 263.508 236.662C260.084 227.878 256.271 220.259 252.07 213.805C248.554 207.273 245.699 203.52 243.506 202.545L240.285 201.687L241.793 201.211C244.353 199.291 244.286 195.63 241.592 190.228C240.04 185.716 238.35 183.054 236.523 182.242C235.792 181.917 234.946 182.114 233.986 182.834C231.746 184.514 231.47 188.214 233.159 193.933C235.167 199.413 239.276 208.119 245.486 220.052C251.378 229.168 256.399 241.338 260.551 256.561C262.924 265.26 264.841 269.934 266.303 270.584ZM242.175 269.034C242.495 268.794 242.564 267.869 242.382 266.259L243.342 265.539L240.466 258.527C236.265 249.016 231.174 239.3 225.192 229.379C221.721 223.25 219.118 218.653 217.383 215.589C216.333 212.446 215.443 210.713 214.712 210.388L214.369 211.955C214.505 213.163 215.555 216.305 217.518 221.382C219.846 226.621 222.746 232.305 226.216 238.434C229.687 244.563 232.403 250.166 234.366 255.243C237.015 260.243 238.59 263.427 239.092 264.797C240.416 267.297 241.444 268.709 242.175 269.034ZM247.443 292.588C248.174 292.913 249.042 292.917 250.048 292.599C251.008 291.879 251.237 290.835 250.735 289.465L251.01 287.294L250.53 287.654C249.89 288.134 248.952 289.055 247.718 290.417C246.803 291.54 246.712 292.263 247.443 292.588ZM624.735 138.634C627.477 138.324 630.608 136.849 634.128 134.209C639.888 129.889 639.73 125.423 633.654 120.811L628.995 116.447C629.314 119.264 629.267 121.919 628.854 124.411C628.808 127.066 628.212 129.477 627.069 131.645C626.611 133.734 625.742 135.259 624.462 136.219C623.502 136.939 623.045 137.5 623.09 137.903L623.639 138.147L624.735 138.634ZM510.242 176.041C510.608 176.204 514.218 175.897 521.073 175.122C546.438 172.253 569.929 168.169 591.547 162.87C601.328 160.337 607.978 157.751 611.498 155.111C612.138 154.631 612.275 154.31 611.91 154.147C610.448 153.497 604.552 155.081 594.222 158.899C583.892 162.717 565.085 166.781 537.801 171.09C519.748 174.151 510.562 175.801 510.242 176.041ZM462.804 180.185L478.365 179.647C489.334 178.407 495.138 177.546 495.778 177.066L495.71 176.463C495.344 176.3 490.363 176.762 480.765 177.847C469.111 179.166 463.124 179.945 462.804 180.185ZM446.9 182.289C447.266 182.452 447.951 182.374 448.957 182.057C450.328 181.902 452.384 181.669 455.126 181.359C458.188 180.809 459.879 180.414 460.199 180.174L460.131 179.57C459.766 179.407 458.212 179.481 455.47 179.791C453.413 180.024 451.699 180.218 450.328 180.373L447.792 180.966C446.832 181.686 446.535 182.127 446.9 182.289ZM30.8959 293.239L28.1545 292.02C21.5751 289.096 18.4688 286.187 18.8356 283.292C19.568 280.56 20.2542 278.953 20.8942 278.473C21.5342 277.993 22.4486 276.871 23.6376 275.106C25.6044 271.011 26.8168 267.919 27.2747 265.829C30.3395 259.165 32.6718 255.232 34.2718 254.032C35.2318 253.312 36.8084 253.44 39.0016 254.415C40.4637 255.064 42.3141 256.078 44.5527 257.455C46.4714 259.072 47.7963 260.043 48.5273 260.368L49.6239 260.856C50.2639 260.376 50.4928 259.331 50.3107 257.721C50.1742 256.513 50.2659 255.79 50.5859 255.55C51.2259 255.07 52.4369 255.035 54.219 255.445L61.895 258.856C66.9668 260.728 76.8139 263.384 91.4362 266.825C141.701 278.463 181.022 283.899 209.402 283.135C223.249 282.791 231.613 281.539 234.493 279.379C235.773 278.419 235.911 276.57 234.906 273.83C234.588 271.013 230.182 261.219 221.689 244.449C213.379 229.289 208.082 217.762 205.801 209.868C203.519 201.974 203.636 195.337 206.152 189.957C214.524 168.834 220.814 155.384 225.021 149.61C229.593 143.997 234.919 138.911 240.999 134.351C243.559 132.431 246.645 130.554 250.256 128.719C253.867 126.884 260.677 124.177 270.687 120.599C316.485 105.025 382.935 97.1005 470.038 96.8263C518.297 96.8701 558.328 99.3731 590.133 104.335C607.452 107.064 620.68 110.458 629.818 114.52C636.763 117.606 640.784 120.922 641.879 124.467C642.974 128.011 641.602 131.223 637.762 134.103L630.562 139.503C627.682 141.663 626.195 143.87 626.103 146.122C626.878 149.906 622.626 155.279 613.346 162.239C608.226 166.079 602.352 169.393 595.724 172.18C572.368 180.529 524.038 187.524 450.734 193.167C433.55 194.703 418.263 196.126 404.873 197.437C391.482 198.748 381.405 200.194 374.641 201.774C377.477 196.155 379.535 192.865 380.815 191.905C382.415 190.705 385.248 189.671 389.316 188.803C393.384 187.935 399.851 186.796 408.717 185.386C417.949 184.138 423.067 183.355 424.073 183.037C423.707 182.875 420.417 182.941 414.202 183.237C400.491 184.788 390.414 186.233 383.97 187.574C377.525 188.914 373.755 189.341 372.658 188.853C371.927 188.528 371.654 187.642 371.837 186.195C372.706 184.67 373.575 183.145 374.444 181.62C375.633 179.855 376.707 178.613 377.667 177.893C378.627 177.173 379.085 176.611 379.039 176.209C379.679 175.729 379.816 175.408 379.451 175.245C379.771 175.005 379.748 174.804 379.382 174.642L376.778 174.631C376.047 174.306 376.321 173.663 377.601 172.703C379.201 171.503 382.332 170.028 386.994 168.278C397.186 166.31 421.522 163.557 460.003 160.019C498.803 156.242 528.783 152.749 549.944 149.54C564.98 147.431 573.298 145.777 574.898 144.577C575.218 144.337 575.012 144.055 574.281 143.73C571.722 142.593 552.826 141.265 517.593 139.748C495.292 139.01 463.782 139.721 423.062 141.882C394.774 143.451 370.872 145.441 351.358 147.853C344.182 148.868 338.355 149.527 333.877 149.83C322.588 151.311 309.174 153.949 293.635 157.745C278.095 161.541 265.686 165.39 256.408 169.293C251.426 171.283 248.135 172.878 246.535 174.078C244.615 175.518 243.586 177.163 243.448 179.013C243.949 183.44 249.062 194.886 258.788 213.351C274.906 245.359 278.416 265.648 269.318 274.217C265.569 277.902 263.099 282.156 261.909 286.978C261.084 291.962 258.706 297.021 254.773 302.153C252.35 305.28 249.538 308.044 246.338 310.444C222.338 328.444 165.58 326.916 76.0643 305.86C54.6336 300.54 39.5775 296.333 30.8959 293.239Z" fill="#141414"/>
</svg>
