<svg width="1401" height="841" viewBox="0 0 1401 841" fill="none" xmlns="http://www.w3.org/2000/svg">
<path d="M1346.58 622.823C1346.88 622.959 1347.3 622.826 1347.83 622.426C1349.97 620.826 1350.73 619.891 1350.12 619.62C1349.82 619.485 1348.84 619.849 1347.21 620.714C1345.87 621.714 1345.51 622.349 1346.12 622.62L1346.58 622.823ZM1331.84 630.605C1333.02 630.811 1334.81 630.014 1337.21 628.214C1340.67 625.614 1342.1 624.179 1341.49 623.908C1341.19 623.773 1339.42 624.737 1336.18 626.802L1332.12 629.299C1331.32 629.899 1331.07 630.266 1331.38 630.402L1331.84 630.605ZM1319.89 636.286L1321.61 636.093C1323.32 635.899 1324.85 635.302 1326.18 634.302C1326.67 633.566 1326.77 633.131 1326.46 632.996C1326.16 632.86 1325.72 632.825 1325.15 632.889C1324.88 633.089 1324.07 633.522 1322.69 634.186C1321.59 634.651 1320.77 635.083 1320.24 635.483C1319.7 635.883 1319.59 636.151 1319.89 636.286ZM1352.76 585.439C1353.98 585.981 1354.86 586.051 1355.39 585.651C1356.19 585.051 1356.65 583.981 1356.76 582.439C1357.14 580.698 1355.96 579.218 1353.22 577.999C1349.57 576.375 1342.2 575.17 1331.12 574.386L1339.11 576.029C1340.94 576.841 1342.66 577.921 1344.25 579.268C1346.42 580.552 1348.16 581.799 1349.45 583.011C1350.74 584.224 1351.85 585.033 1352.76 585.439ZM1040.21 638.117C1040.82 638.388 1044.29 638.335 1050.61 637.96C1063.1 638.415 1084.35 637.03 1114.36 633.806C1152.1 629.876 1188.8 624.366 1224.45 617.277L1297.86 602.604C1308.33 600.57 1314.5 598.853 1316.37 597.453L1316.31 596.95L1314.54 596.641C1294.82 596.155 1266.67 597.98 1230.11 602.116C1178.7 607.931 1128.73 616.301 1080.2 627.224C1055.37 632.751 1042.02 636.214 1040.16 637.614L1040.21 638.117ZM996.39 657.34L996.79 657.04C997.057 656.84 997.153 656.405 997.077 655.734C997.001 655.063 996.049 654.322 994.221 653.51L992.451 653.2C990.394 652.923 989.233 652.885 988.966 653.085C988.433 653.485 990.908 654.903 996.39 657.34ZM1129.75 716.133C1130.05 716.269 1131.88 715.807 1135.23 714.749C1138.62 714.026 1141.12 713.064 1142.72 711.864L1143.12 711.564C1142.81 711.429 1140.7 711.923 1136.78 713.046C1132.85 714.169 1130.49 715.03 1129.69 715.63C1129.43 715.83 1129.45 715.998 1129.75 716.133ZM1083.7 731.023C1084.01 731.158 1085.7 730.797 1088.79 729.938C1091.87 729.08 1095.64 727.889 1100.1 726.366C1104.29 725.043 1107.77 723.884 1110.55 722.89C1113.07 722.097 1114.59 721.5 1115.12 721.1C1114.82 720.964 1113.26 721.226 1110.44 721.884C1107.35 722.743 1103.58 723.934 1099.13 725.457C1094.67 726.98 1091.19 728.138 1088.67 728.932C1085.89 729.926 1084.23 730.623 1083.7 731.023ZM923.291 743.818C931.403 743.92 938.772 743.85 945.398 743.61C979.331 741.81 1023.42 732.577 1077.65 715.912C1093.38 711.755 1102.18 708.977 1104.05 707.577C1104.58 707.177 1104.54 706.842 1103.93 706.571C1102.11 705.758 1087.98 707.442 1061.55 711.62C1002.93 720.289 959.342 730.06 930.776 740.934L923.291 743.818ZM902.432 762.737L903.289 762.64C903.556 762.44 903.347 761.869 902.662 760.928C902.281 760.121 901.463 759.28 900.206 758.403C898.95 757.526 897.865 756.885 896.951 756.478C893.943 755.46 892.039 755.251 891.239 755.851L890.896 756.654C890.972 757.325 894.817 759.352 902.432 762.737ZM895.806 761.703L891.694 759.875C889.562 758.928 888.249 756.274 887.756 751.914C887.3 750.437 886.672 748.725 885.873 746.777C885.379 744.965 885.037 743.22 884.847 741.543C883.363 738.654 883.231 736.207 884.451 734.2C885.404 732.394 887.347 730.391 890.28 728.191C906.66 716.997 941.987 705.783 996.26 694.549C1017.21 690.481 1044.82 686.509 1079.1 682.631C1113.37 678.754 1141.17 676.458 1162.5 675.744L1191.92 674.964L1226.26 660.126C1264.12 644.464 1284.92 635.233 1288.65 632.433C1288.92 632.233 1288.9 632.065 1288.59 631.93C1288.29 631.794 1283.89 632.547 1275.4 634.187C1267.47 635.762 1257.99 637.599 1246.95 639.698C1140.69 659.36 1063.2 667.446 1014.5 663.954C1002.58 663.434 994.484 662.226 990.22 660.331C989.611 660.06 988.373 659.351 986.508 658.203C984.337 656.92 982.492 652.119 980.973 643.799L978.066 629.607L987.723 622.91C1005.59 612.058 1040.57 601.647 1092.67 591.677C1144.77 581.707 1199.54 574.833 1256.97 571.054C1293.46 568.795 1321.43 569.283 1340.89 572.516C1347.66 573.618 1352.58 574.845 1355.62 576.199C1362.02 579.042 1362.28 582.664 1356.42 587.064C1354.28 588.664 1354.13 589.87 1355.96 590.682L1364.07 593.331C1366.81 594.55 1367.42 596.094 1365.9 597.965C1364.64 599.636 1364.12 601.477 1364.35 603.489C1364.58 605.502 1365.3 606.779 1366.52 607.32L1366.98 607.523C1367.89 607.929 1368.42 610.077 1368.57 613.966C1368.72 617.855 1367.47 620.8 1364.8 622.8C1342.13 639.8 1296.39 662.468 1227.56 690.804L1232.13 692.834C1233.65 693.511 1234.79 694.656 1235.55 696.268C1236.62 698.016 1236.62 699.289 1235.55 700.089C1235.02 700.489 1234.31 700.654 1233.44 700.583C1232.83 700.313 1231.21 700.071 1228.58 699.859C1218.99 699.416 1211.92 699.62 1207.39 700.473C1203.12 701.125 1193.77 704.136 1179.34 709.505C1099.62 738.733 1032.54 757.02 978.121 764.365C962.468 766.645 949.881 767.899 940.361 768.127C931.144 768.49 922.405 767.95 914.141 766.507C905.878 765.064 899.766 763.463 895.806 761.703Z" fill="#141414"/>
<path d="M1050.19 603.372C1049.58 603.101 1049.41 602.866 1049.67 602.666C1049.94 602.466 1050.93 602.269 1052.65 602.075C1054.36 601.881 1055.67 601.988 1056.59 602.394L1056.64 602.897C1056.38 603.097 1055.54 603.361 1054.13 603.691C1053.03 604.155 1051.71 604.049 1050.19 603.372ZM819.766 564.984C820.908 564.855 821.746 564.591 822.279 564.191C823.613 563.191 823.975 562.555 823.366 562.284C822.756 562.014 821.918 562.278 820.852 563.078C819.518 564.078 819.004 564.646 819.309 564.781L819.766 564.984ZM1171.45 501.511C1172.59 501.382 1174.4 500.752 1176.88 499.623C1177.41 499.223 1177.51 498.788 1177.16 498.317C1176.55 498.046 1174.94 497.805 1172.31 497.592C1169.99 497.516 1168.56 497.677 1168.02 498.077C1166.96 498.877 1167.79 499.886 1170.54 501.105L1171.45 501.511ZM822.788 576.361C822.179 576.09 820.942 574.107 819.078 570.412L818.278 571.012C817.212 569.264 816.623 567.888 816.509 566.881C816.09 565.74 816.681 564.569 818.281 563.369C819.577 562.034 821.824 560.166 825.024 557.766C849.176 541.108 894.656 519.914 961.465 494.184C1004.16 477.805 1033.72 468.008 1050.13 464.793C1058.09 463.553 1063.6 463.609 1066.64 464.963C1069.08 466.046 1071.15 467.765 1072.87 470.118C1076.03 475.026 1080.29 479.469 1085.66 483.447L1090.91 487.693L1085.43 489.078C1080.97 490.601 1076.08 492.089 1070.74 493.541C1065.72 495.129 1062.23 496.287 1060.29 497.017C1058.65 497.881 1055.76 499.143 1051.6 500.801C1047.72 502.26 1043.41 503.851 1038.69 505.574C1031.19 508.291 1024.24 510.775 1017.84 513.028C1012.01 515.215 1008.43 516.809 1007.1 517.809L1007.15 518.312C1006.62 518.712 1005.74 518.642 1004.53 518.1C1003.61 517.694 1002.89 517.691 1002.36 518.091L1001.96 518.391L992.414 522.272C987.386 523.86 984.606 524.854 984.072 525.254C984.986 525.66 995.041 523.759 1014.24 519.549C1019.34 518.632 1024.42 517.548 1029.49 516.295C1031.2 516.101 1032.9 515.74 1034.57 515.211C1057.2 510.613 1078.94 507.219 1099.81 505.028C1123.24 502.379 1138.91 500.267 1146.83 498.691C1162.9 495.005 1173.38 494.245 1178.25 496.411C1181.3 497.765 1180.69 500.042 1176.42 503.242L1174.48 505.245C1172.65 506.98 1173.71 508.728 1177.67 510.488L1179.44 510.797C1181.88 511.88 1183.16 514.198 1183.27 517.752C1183.65 521.106 1182.77 523.583 1180.64 525.183C1173.7 530.383 1152.39 541.455 1116.7 558.4C1112.02 560.458 1098.85 566.872 1077.22 577.642C1063.81 584.423 1052.95 590.746 1044.65 596.611C1039.05 600.811 1037.01 603.249 1038.53 603.926C1039.45 604.332 1040.78 604.606 1042.53 604.748C1044.28 604.889 1045.9 605.131 1047.39 605.472C1050.97 606.426 1054.01 606.506 1056.53 605.712C1056.79 605.512 1057.8 605.483 1059.56 605.624C1064.89 606.72 1070.48 607.615 1076.35 608.31C1078.98 608.523 1080.75 608.832 1081.66 609.238C1082.31 609.844 1082.73 610.986 1082.92 612.663C1083.11 614.339 1083.54 615.649 1084.23 616.59C1085.18 617.332 1086.11 617.905 1087.03 618.312C1088.25 618.853 1089.03 619.359 1089.37 619.83C1087.12 620.424 1083.98 620.779 1079.94 620.896C1082.07 621.844 1082.61 622.718 1081.54 623.518C1081.01 623.918 1080.02 624.115 1078.57 624.109C1074.5 623.89 1070.72 623.807 1067.26 623.859C1058.58 623.823 1051.15 623.389 1044.98 622.558C1038.81 621.727 1032.53 619.891 1026.13 617.048C1018.52 613.663 1012.98 609.449 1009.52 604.406C1006.32 599.164 1005.65 594.568 1007.52 590.621C1009.39 586.673 1013.92 581.999 1021.12 576.599C1033.92 566.999 1055.1 554.753 1084.66 539.86C1086.3 538.996 1088.89 537.599 1092.43 535.67C1096.28 533.876 1099.97 532.014 1103.52 530.085C1107.36 528.291 1109.69 527.094 1110.49 526.494C1107.75 525.276 1085.31 529.002 1043.19 537.673C1004.19 545.821 978.367 551.544 965.722 554.843C896.976 571.111 858.051 579.93 848.949 581.299C842.97 582.145 839.371 582.298 838.152 581.756C837.239 581.35 836.744 580.812 836.668 580.141C836.325 579.67 835.697 579.232 834.783 578.826C833.565 578.284 831.928 577.875 829.871 577.598C827.51 577.186 825.739 576.877 824.559 576.67L822.788 576.361ZM1061.5 603.621L1060.58 603.215L1067.95 603.146L1067.15 603.746C1066.89 603.946 1065.88 603.975 1064.13 603.834L1061.5 603.621Z" fill="#141414"/>
<path d="M1103.43 412.513C1102.21 411.971 1100.21 410.923 1097.43 409.37C1094.66 407.816 1092.66 405.494 1091.44 402.405C1090.79 399.251 1091.54 396.874 1093.67 395.274C1096.87 392.874 1108.7 388.734 1129.15 382.854C1143.7 378.491 1152.5 376.986 1155.54 378.34C1156.46 378.746 1155.98 379.649 1154.11 381.049C1152.51 382.249 1151.26 382.646 1150.34 382.24L1148.86 380.625C1148.55 380.489 1148.27 380.522 1148 380.722C1146.94 381.522 1146.92 383.902 1147.94 387.862C1148.51 390.345 1149.56 391.925 1151.08 392.602C1151.69 392.872 1152.72 393.011 1154.17 393.017C1155.61 393.023 1156.95 393.297 1158.16 393.838C1158.81 394.445 1159.69 395.789 1160.79 397.872C1162.16 399.755 1161.91 401.397 1160.05 402.797C1158.45 403.997 1155.08 404.888 1149.93 405.469C1145.36 405.986 1138.74 407.5 1130.05 410.011C1126.13 411.134 1122.19 412.089 1118.23 412.877C1114.84 413.6 1112.44 414.126 1111.03 414.456C1108.71 414.379 1106.17 413.731 1103.43 412.513ZM743.023 571.486C740.739 569.197 739.597 568.053 739.597 568.053L726.752 550.399L738.752 541.399C747.589 535.135 764.369 526.188 789.09 514.561C813.773 502.597 842.55 489.747 875.421 476.008C886.505 471.697 892.714 469.042 894.047 468.042C894.314 467.842 894.295 467.674 893.99 467.539L892.219 467.229C891.001 466.688 890.792 466.117 891.592 465.517C894.792 463.117 904.105 459.771 919.53 455.479C923.758 454.491 928.804 453.071 934.67 451.218L965.692 441.595C991.706 433.727 1006.69 430.673 1010.65 432.433C1012.18 433.11 1012.4 433.849 1011.34 434.649C1010.8 435.049 1009.7 435.513 1008.02 436.042C1006.35 436.572 1005.24 437.036 1004.71 437.436L1003.57 438.839L1005.39 439.652C1005.97 439.587 1006.8 439.322 1007.91 438.858C1009.28 438.193 1010.57 438.132 1011.79 438.673L1012.65 442.398C1012.91 444.745 1013.96 446.325 1015.79 447.138C1017.92 448.085 1018.95 450.771 1018.87 455.196C1019.55 458.685 1018.96 461.13 1017.1 462.53C1016.3 463.13 1015.21 463.762 1013.84 464.427C1012.47 465.091 1011.38 465.724 1010.58 466.324C1010.05 466.724 1009.65 467.024 1009.38 467.224L1008.64 468.327C1008.1 468.727 1007.38 468.724 1006.47 468.317C1005.55 467.911 1004.81 467.741 1004.24 467.805L1002.7 469.508C1002.16 469.908 1001.04 470.205 999.326 470.399C998.184 470.528 997.346 470.793 996.812 471.193C996.546 471.393 996.565 471.561 996.869 471.696C997.174 471.831 997.193 471.999 996.926 472.199L995.669 472.596C992.317 473.654 989.537 474.648 987.328 475.578L986.128 476.478C984.756 477.142 983.462 477.204 982.243 476.662C981.329 476.256 980.606 476.253 980.072 476.653L980.129 477.156C978.796 478.156 977.025 479.121 974.816 480.05C973.673 480.179 972.549 480.476 971.445 480.941C970.607 481.205 969.655 481.738 968.588 482.538C967.521 483.338 966.531 483.535 965.617 483.128C965.008 482.858 964.57 482.822 964.303 483.022C964.037 483.222 963.77 483.422 963.503 483.622L962.76 484.725L962.36 485.025C961.789 485.09 961.047 484.919 960.133 484.513C959.523 484.242 958.819 484.407 958.019 485.007L956.876 486.41C956.038 486.675 955.048 486.872 953.905 487.001C953.029 486.93 952.458 486.995 952.191 487.195C951.658 487.595 951.41 487.962 951.448 488.298C951.486 488.633 951.372 488.901 951.105 489.101L950.705 489.401C950.134 489.465 948.953 489.259 947.164 488.782L946.421 489.885L944.364 490.882C938.498 492.735 935.032 494.061 933.965 494.861C934.27 494.996 934.289 495.164 934.022 495.364L933.165 495.461C932.594 495.526 931.851 495.355 930.938 494.949C930.328 494.678 929.624 494.842 928.824 495.442C928.024 496.042 922.749 497.998 912.998 501.309C877.347 513.494 838.915 529.22 797.701 548.488C779.265 556.857 767.647 562.842 762.847 566.442C760.18 568.442 758.561 569.474 757.99 569.539C757.152 569.803 755.819 569.529 753.992 568.717L752.564 567.605C751.346 567.063 749.67 567.593 747.537 569.193C745.403 570.793 743.899 571.557 743.023 571.486Z" fill="#141414"/>
<path d="M913.765 430.462C914.069 430.597 914.488 430.465 915.021 430.065C917.155 428.465 917.917 427.53 917.308 427.259C917.003 427.123 916.032 427.488 914.394 428.353C913.061 429.353 912.698 429.988 913.308 430.259L913.765 430.462ZM899.023 438.243C900.204 438.45 901.994 437.653 904.394 435.853C907.861 433.253 909.289 431.817 908.68 431.547C908.375 431.411 906.604 432.376 903.366 434.44L899.309 436.937C898.509 437.537 898.262 437.905 898.566 438.04L899.023 438.243ZM887.082 443.925L888.796 443.731C890.509 443.537 892.033 442.94 893.366 441.94C893.862 441.205 893.957 440.77 893.652 440.634C893.348 440.499 892.91 440.464 892.339 440.528C892.072 440.728 891.253 441.16 889.882 441.825C888.777 442.29 887.958 442.722 887.425 443.122C886.891 443.522 886.777 443.79 887.082 443.925ZM919.95 393.078C921.169 393.619 922.045 393.69 922.578 393.29C923.378 392.69 923.835 391.619 923.95 390.078C924.332 388.336 923.152 386.856 920.41 385.638C916.755 384.013 909.387 382.809 898.305 382.024L906.302 383.667C908.129 384.48 909.843 385.559 911.441 386.907C913.612 388.19 915.344 389.438 916.638 390.65C917.932 391.862 919.036 392.672 919.95 393.078ZM607.401 445.756C608.01 446.026 611.475 445.974 617.797 445.599C630.288 446.054 651.539 444.669 681.55 441.444C719.292 437.515 755.987 432.005 791.635 424.916L865.046 410.243C875.52 408.209 881.69 406.492 883.557 405.092L883.5 404.589L881.729 404.28C862.003 403.794 833.859 405.618 797.297 409.754C745.883 415.57 695.915 423.94 647.392 434.863C622.56 440.389 609.21 443.853 607.344 445.253L607.401 445.756ZM563.578 464.979L563.978 464.679C564.245 464.479 564.34 464.044 564.264 463.373C564.188 462.702 563.237 461.961 561.409 461.148L559.638 460.839C557.582 460.562 556.42 460.524 556.154 460.724C555.62 461.124 558.095 462.542 563.578 464.979ZM696.938 523.772C697.242 523.907 699.07 523.446 702.422 522.387C705.812 521.664 708.307 520.703 709.907 519.503L710.307 519.203C710.002 519.067 707.888 519.561 703.965 520.684C700.042 521.807 697.681 522.669 696.881 523.269C696.614 523.469 696.633 523.637 696.938 523.772ZM650.889 538.662C651.194 538.797 652.888 538.435 655.973 537.577C659.059 536.718 662.829 535.528 667.286 534.005C671.475 532.681 674.96 531.523 677.741 530.529C680.255 529.735 681.778 529.138 682.312 528.738C682.007 528.603 680.445 528.865 677.627 529.523C674.542 530.381 670.771 531.572 666.315 533.095C661.859 534.618 658.373 535.777 655.86 536.571C653.079 537.565 651.422 538.262 650.889 538.662ZM490.478 551.457C498.59 551.558 505.959 551.489 512.586 551.249C546.518 549.449 590.603 540.216 644.84 523.551C660.57 519.394 669.369 516.616 671.235 515.216C671.769 514.816 671.731 514.48 671.122 514.209C669.294 513.397 655.164 515.08 628.733 519.259C570.12 527.927 526.53 537.698 497.963 548.572L490.478 551.457ZM469.62 570.375L470.477 570.278C470.743 570.078 470.534 569.508 469.849 568.566C469.469 567.76 468.65 566.919 467.394 566.042C466.138 565.165 465.053 564.523 464.139 564.117C461.131 563.099 459.227 562.889 458.427 563.489L458.083 564.293C458.159 564.963 462.005 566.991 469.62 570.375ZM462.994 569.342L458.882 567.514C456.75 566.566 455.437 563.913 454.944 559.553C454.487 558.076 453.86 556.363 453.061 554.416C452.567 552.604 452.225 550.859 452.035 549.182C450.551 546.293 450.419 543.845 451.638 541.839C452.591 540.033 454.534 538.03 457.467 535.83C473.848 524.636 509.175 513.422 563.448 502.188C584.395 498.12 612.007 494.147 646.283 490.27C680.559 486.393 708.361 484.097 729.687 483.383L759.107 482.603L793.445 467.764C831.306 452.102 852.103 442.872 855.836 440.072C856.103 439.872 856.084 439.704 855.78 439.569C855.475 439.433 851.076 440.186 842.583 441.826C834.661 443.401 825.177 445.238 814.133 447.337C707.873 466.999 630.39 475.084 581.683 471.593C569.764 471.073 561.672 469.865 557.407 467.97C556.798 467.699 555.561 466.99 553.695 465.842C551.525 464.559 549.68 459.758 548.16 451.438L545.253 437.246L554.91 430.549C572.776 419.696 607.759 409.285 659.861 399.316C711.962 389.346 766.729 382.472 824.159 378.693C860.643 376.434 888.615 376.921 908.074 380.155C914.852 381.256 919.764 382.484 922.81 383.838C929.207 386.681 929.472 390.302 923.605 394.702C921.472 396.302 921.319 397.508 923.147 398.321L931.257 400.97C933.999 402.188 934.608 403.733 933.083 405.604C931.826 407.274 931.311 409.116 931.539 411.128C931.766 413.14 932.489 414.417 933.708 414.959L934.165 415.162C935.078 415.568 935.611 417.716 935.761 421.605C935.912 425.494 934.654 428.439 931.987 430.439C909.321 447.439 863.573 470.106 794.745 498.442L799.314 500.473C800.837 501.15 801.979 502.294 802.74 503.907C803.806 505.654 803.805 506.928 802.739 507.728C802.205 508.128 801.501 508.293 800.625 508.222C800.016 507.951 798.397 507.71 795.77 507.497C786.173 507.054 779.108 507.259 774.576 508.112C770.311 508.764 760.96 511.775 746.524 517.144C666.804 546.372 599.732 564.659 545.309 572.004C529.656 574.284 517.069 575.538 507.548 575.766C498.332 576.129 489.592 575.589 481.329 574.146C473.065 572.703 466.954 571.102 462.994 569.342Z" fill="#141414"/>
<path d="M672.223 338.4C674.508 338.141 678.926 336.283 685.478 332.824C692.334 329.501 697.629 326.44 701.363 323.64C704.829 321.04 705.801 319.401 704.278 318.724C702.755 318.048 699.727 319.409 695.194 322.809L692.794 324.609C690.394 326.409 687.575 328.341 684.337 330.406C681.099 332.471 678.527 334.035 676.623 335.1C674.718 336.164 673.366 336.997 672.566 337.597C672.033 337.997 671.918 338.264 672.223 338.4ZM565.255 409.348C565.827 409.283 566.379 409.051 566.912 408.651C567.446 408.251 567.96 407.683 568.455 406.948L568.799 406.145C567.961 406.409 566.875 407.042 565.542 408.042C564.742 408.642 564.494 409.009 564.799 409.145L565.255 409.348ZM557.028 413.335L559.085 412.338L560.571 410.132C560.266 409.997 559.447 410.429 558.114 411.429C556.781 412.429 556.266 412.997 556.571 413.132L557.028 413.335ZM547.143 418.02C547.752 418.291 548.724 417.926 550.057 416.926C551.924 415.526 552.552 414.691 551.943 414.42C551.639 414.285 550.686 414.817 549.086 416.017C547.486 417.217 546.839 417.885 547.143 418.02ZM438.741 372.708C439.655 373.114 444.434 373.168 453.079 372.869C462.295 372.506 473.625 371.649 487.069 370.298C520.774 366.486 559.431 360.415 603.039 352.085C604.182 351.956 605.591 351.627 607.267 351.097L620.464 348.84C642.858 344.779 655.522 341.648 658.455 339.448C659.789 338.448 659.542 337.542 657.714 336.729L656.8 336.323C655.277 335.646 655.716 334.408 658.116 332.608C659.716 331.408 662.573 329.811 666.686 327.817L670.343 325.62C672.743 323.82 673.639 322.785 673.029 322.514C672.878 321.172 673.735 319.802 675.602 318.402C676.402 317.802 676.497 317.366 675.888 317.096C674.403 316.754 667.376 317.294 654.808 318.716C594.025 326.101 531.849 340.352 468.279 361.469C450.149 367.426 440.284 371.005 438.684 372.205C438.418 372.405 438.437 372.573 438.741 372.708ZM407.258 389.771C408.172 390.177 409.676 390.687 411.77 391.299C413.598 392.111 415.54 392.656 417.596 392.933C419.653 393.209 420.814 393.248 421.081 393.048C421.348 392.848 420.244 392.039 417.769 390.62L417.312 390.417C415.18 389.47 413.085 388.857 411.029 388.58C408.668 388.168 407.221 388.162 406.688 388.562C406.421 388.762 406.611 389.165 407.258 389.771ZM697.828 307.735C698.132 307.871 698.818 307.538 699.885 306.738C703.885 303.738 703.448 301.155 698.574 298.989C694.614 297.229 688.712 296.199 680.867 295.897C676.221 295.744 673.765 295.767 673.498 295.967C673.803 296.102 674.393 296.205 675.269 296.276C676.449 296.482 678.696 297.162 682.008 298.316L687.834 299.949C693.927 302.657 696.896 304.614 696.743 305.82C697.162 306.962 697.523 307.6 697.828 307.735ZM505.433 440.571L497.612 428.973C502.183 425.908 506.469 422.876 510.469 419.876C514.202 417.076 519.878 413.547 527.496 409.288C535.381 404.83 543.152 400.639 550.808 396.716C558.731 392.593 565.017 389.334 569.664 386.94C574.578 384.346 577.434 382.749 578.234 382.149L578.634 381.849C578.025 381.579 570.332 382.619 555.555 384.97C519.83 391.388 489.724 395.049 465.237 395.95C458.306 396.055 450.918 395.957 443.073 395.655C423.613 394.969 412.36 393.95 409.313 392.596C408.704 392.325 407.258 391.045 404.974 388.756C402.69 386.467 400.653 383.81 398.865 380.785C394.412 374.665 392.719 369.932 393.787 366.584C394.169 364.842 395.693 362.972 398.359 360.972C400.493 359.372 403.483 357.675 407.33 355.881C430.07 344.647 463.207 333.256 506.741 321.708C550.275 310.16 591.713 301.821 631.054 296.692C667.006 292.285 690.008 292.316 700.06 296.783C704.02 298.543 705.162 300.962 703.485 304.038C702.379 307.051 702.435 308.828 703.654 309.369L705.024 309.978C706.547 310.655 708.165 312.171 709.878 314.524C712.162 316.814 713.17 319.332 712.902 322.08C712.901 324.627 711.834 326.701 709.701 328.301C707.834 329.701 701.873 333.263 691.816 338.986L686.902 341.58C685.836 342.38 685.264 343.718 685.187 345.595C685.681 347.407 687.147 348.855 689.584 349.938C690.802 350.48 691.982 350.686 693.125 350.556C694.839 350.363 696.153 350.469 697.066 350.875C697.676 351.146 698.837 352.458 700.549 354.812C701.5 358.101 701.575 360.045 700.775 360.645C697.575 363.045 680.625 370.482 649.925 382.956C623.643 393.572 596.523 405.726 568.564 419.418C545.786 430.317 531.33 438.066 525.197 442.666C522.53 444.666 520.588 445.395 519.369 444.854L516.514 442.629L513.773 441.411C513.163 441.14 515.659 438.905 521.259 434.705L528.059 429.605L540.173 421.611C541.239 420.811 541.62 420.343 541.316 420.208C540.706 419.937 528.745 426.725 505.433 440.571Z" fill="#141414"/>
<path d="M418.758 170.326C420.281 171.003 421.842 170.742 423.442 169.542C423.976 169.142 424.09 168.874 423.785 168.739C424.052 168.539 424.033 168.371 423.729 168.236L422.415 168.129C419.52 168.117 417.807 168.311 417.273 168.711C416.74 169.111 416.93 169.514 417.844 169.92L418.758 170.326ZM536.591 203.108C537.162 203.043 537.981 202.611 539.048 201.811C540.648 200.611 541.143 199.875 540.534 199.605C540.229 199.469 539.506 199.466 538.363 199.595C537.792 199.66 537.373 199.792 537.106 199.992C536.84 200.192 536.573 200.392 536.306 200.592L535.906 200.892C535.754 202.099 535.829 202.769 536.134 202.905L536.591 203.108ZM472.174 289.623L480.285 292.272C488.548 293.715 493.213 294.036 494.28 293.236C495.346 292.436 495.271 291.765 494.052 291.224C493.748 291.088 493.157 290.985 492.281 290.915C491.406 290.844 490.225 290.638 488.74 290.296C487.56 290.09 486.665 289.852 486.056 289.581C485.446 289.31 484.114 289.036 482.057 288.759C480.305 288.618 478.135 288.609 475.545 288.732C473.527 288.79 472.384 288.92 472.117 289.12C471.851 289.32 471.87 289.487 472.174 289.623ZM432.618 350.398C433.532 350.804 434.522 350.607 435.589 349.807C436.122 349.407 436.617 348.671 437.075 347.601C438.104 346.465 441.285 343.898 446.618 339.898C450.351 337.098 451.913 335.562 451.304 335.291C451 335.156 450.276 335.153 449.133 335.282C448.296 335.547 446.81 336.479 444.677 338.079L439.533 342.482C433.4 347.082 431.095 349.721 432.618 350.398ZM460.904 328.091C461.78 328.162 462.618 327.898 463.418 327.298C465.018 326.098 465.361 325.294 464.447 324.888C464.143 324.753 463.457 325.085 462.39 325.885C461.324 326.685 460.809 327.253 460.847 327.588L460.447 327.888L460.904 328.091ZM173.42 276.287L173.363 275.784C173.021 275.314 172.678 274.843 172.336 274.372C171.993 273.901 171.632 273.263 171.251 272.457C170.299 271.715 169.919 270.909 170.11 270.038C169.729 269.232 169.806 268.629 170.339 268.229C170.606 268.029 170.587 267.861 170.282 267.726L167.598 267.011L167.998 266.711C168.264 266.511 169.674 266.181 172.225 265.723C174.472 265.129 175.996 264.532 176.796 263.932C177.863 263.132 178.491 262.297 178.682 261.426C179.14 260.355 181.102 258.52 184.568 255.92L198.625 245.923C222.624 230.471 259.077 213.864 307.983 196.104C339.368 184.572 368.01 175.642 393.909 169.316C401.489 167.27 407.563 165.988 412.134 165.471C418.342 164.09 422.512 163.873 424.644 164.82C426.167 165.497 426.909 166.942 426.87 169.154L428.239 173.585C427.706 173.985 427.153 174.217 426.582 174.282L423.155 174.669C422.888 174.869 423.364 175.24 424.582 175.782C430.979 178.625 436.574 184.615 441.369 193.753C426.857 198.452 418.135 200.627 415.203 200.28L413.946 200.677C413.413 201.077 413.146 201.277 413.146 201.277L413.203 201.78C412.936 201.98 412.651 202.012 412.346 201.877C407.396 201.588 400.94 203.337 392.979 207.125C392.179 207.725 391.189 207.922 390.008 207.715L388.694 207.609L387.837 207.706L387.151 209.312C386.885 209.512 386.466 209.645 385.894 209.709C385.894 209.709 384.999 209.471 383.21 208.994L382.467 210.097C381.667 210.697 380.124 211.126 377.839 211.385C375.554 211.643 373.611 212.372 372.011 213.572C370.678 214.572 369.707 214.937 369.098 214.666C368.793 214.531 364.432 215.619 356.015 217.929C347.902 220.376 338.685 223.286 328.363 226.662C302.92 234.465 289.532 238.867 288.199 239.867C288.808 240.138 302.138 237.78 328.189 232.796C343.728 229.509 359.153 226.491 374.463 223.74L385.489 221.474C403.352 218.264 421.69 215.426 440.504 212.958C455.357 211.278 470.419 208.895 485.692 205.808C501.231 202.522 516.008 200.171 530.024 198.756L532.194 198.765C539.621 197.925 543.943 197.775 545.162 198.317C545.466 198.452 545.656 198.855 545.732 199.526C546.075 199.997 544.779 201.332 541.846 203.532C539.484 205.668 538.227 207.338 538.074 208.545C538.226 209.886 538.911 210.828 540.129 211.369C540.738 211.64 541.766 211.778 543.214 211.784C544.965 211.926 546.298 212.2 547.212 212.606C548.126 213.012 548.944 213.854 549.667 215.131C550.961 216.343 551.589 218.055 551.55 220.267C551.511 222.48 550.558 224.286 548.691 225.686C543.625 229.486 516.962 240.569 468.703 258.935C401.019 284.594 364.51 299.424 359.177 303.424L358.777 303.724L359.29 304.43C359.9 304.7 360.49 304.804 361.061 304.739C363.194 303.139 368.012 302.254 375.515 302.085C380.694 301.839 383.55 301.516 384.084 301.116L383.17 300.71C383.97 300.11 391.34 298.766 405.279 296.68C415.257 295.382 426.34 293.618 438.527 291.391C459.817 287.794 472.633 286.004 476.974 286.023C481.316 286.041 486.209 287.101 491.654 289.202C494.091 290.285 495.366 291.33 495.48 292.336C495.86 293.142 495.136 294.413 493.307 296.148C491.745 297.684 491.002 298.787 491.078 299.458C491.725 300.064 493.42 300.976 496.161 302.194C500.73 304.225 503.623 306.785 504.841 309.874C505.906 311.622 505.944 313.231 504.953 314.702C504.229 315.973 502.933 317.308 501.067 318.708C497.067 321.708 490.419 325.602 481.125 330.39C468.897 337.377 459.584 343.271 453.184 348.071C449.45 350.871 446.517 353.071 444.384 354.671C442.822 356.207 441.812 357.51 441.354 358.58C441.164 359.451 441.277 360.457 441.696 361.599C442.686 362.676 443.047 363.314 442.78 363.514C442.514 363.714 441.942 363.779 441.067 363.708C440.762 363.573 438.021 362.354 432.842 360.053C422.181 355.315 416.985 350.298 417.254 345.002C417.827 339.842 423.714 333.062 434.914 324.662L446.857 315.159L410.467 319.531C393.329 321.469 371.963 324.395 346.37 328.31C334.716 330.137 326.032 331.374 320.32 332.021C312.055 333.125 306.552 333.068 303.811 331.85L299.128 328.813C296.996 327.865 295.206 327.389 293.759 327.382C292.045 327.576 290.731 327.47 289.817 327.064C287.381 325.981 284.982 323.959 282.622 321C279.311 317.298 278.017 314.812 278.741 313.541C280.037 312.206 281.884 310.638 284.284 308.838C299.484 297.438 344.164 276.844 418.325 247.056L422.895 245.265C441.178 238.102 451.253 233.821 453.12 232.421L436.495 235.065C383.251 245.164 345.317 252.512 322.694 257.109C263.585 269.06 225.518 276.508 208.493 279.453C196.001 281.546 188.689 282.118 186.557 281.17C185.643 280.764 185.129 280.058 185.015 279.052C185.206 278.181 184.845 277.543 183.931 277.137L173.42 276.287Z" fill="#141414"/>
<path d="M21.473 249.844C20.2546 249.303 20.0454 248.732 20.8454 248.132C21.3787 247.732 22.35 247.367 23.7592 247.038C25.1684 246.709 26.7489 246.615 28.5006 246.757C29.6811 246.963 30.4047 246.966 30.6713 246.766C30.938 246.566 29.5483 245.789 26.5023 244.435L23.8178 243.72C22.5993 243.178 21.4763 242.201 20.4487 240.789C19.1544 239.577 17.671 235.414 15.9984 228.3L25.8813 227.437C36.4688 226.409 54.6909 227.66 80.5476 231.188C89.3822 232.567 94.5041 233.091 95.9133 232.762C97.5892 232.233 99.0938 231.468 100.427 230.468C107.094 225.468 129.015 214.667 166.191 198.063C251.247 159.74 325.35 130.723 388.499 111.012C409.715 104.196 421.122 100.188 422.722 98.9883C422.989 98.7883 422.97 98.6206 422.665 98.4852L421.351 98.3791C419.904 98.3729 418.134 98.0637 416.039 97.4515C414.25 96.9746 412.612 96.5654 411.127 96.2238C407.852 95.4054 405.815 95.2962 405.015 95.8962L404.615 96.1962C404.082 96.5962 402.025 96.3193 398.446 95.3655C393.077 93.9348 387.194 91.798 380.797 88.955C380.188 88.6843 379.864 88.3812 379.827 88.0458L380.227 87.7458L384.854 86.4581C387.444 86.335 389.005 86.0735 389.539 85.6735C389.805 85.4734 388.72 84.8319 386.283 83.7489C383.847 82.6659 383.048 80.7182 383.887 77.9059C383.583 75.2229 384.156 72.6106 385.604 70.0691C385.795 69.1983 386.423 68.363 387.49 67.563C388.557 66.763 393.641 66.9521 402.742 68.1305C407.693 68.4197 413.253 68.9796 419.422 69.8103C435.834 71.6901 460.167 77.0897 492.419 86.0093C532.782 97.5779 560.274 106.611 574.895 113.11C580.073 115.411 583.462 117.236 585.061 118.583L587.059 120.905C586.792 121.105 585.745 120.799 583.918 119.986L571.581 114.503L562.043 110.742C557.817 109.182 555.57 108.502 555.303 108.702C555.037 108.902 557.664 110.388 563.185 113.16C569.01 116.068 572.931 118.766 574.949 121.256C577.233 123.545 578.26 126.231 578.03 129.314C578.447 133.003 578.846 135.251 579.226 136.057C579.568 139.075 579.472 140.785 578.939 141.185C578.405 141.585 575.606 141.137 570.542 139.842C565.744 138.346 559.728 136.309 552.493 133.731C545.259 131.153 535.492 127.927 523.193 124.053C493.873 115.481 474.015 110 463.619 107.609C461.258 107.197 459.545 107.391 458.478 108.191C457.678 108.791 457.887 109.362 459.105 109.903C460.629 110.58 461.352 111.857 461.275 113.734C461.198 115.611 460.835 117.52 460.187 119.461C459.843 121.538 459.138 122.977 458.071 123.777C457.271 124.377 452.148 126.4 442.702 129.846C419.963 138.532 398.138 146.351 377.228 153.302L365.515 157.174C350.204 162.473 339.368 166.416 333.007 169.004C326.646 171.591 322.856 172.614 321.638 172.073L321.181 171.87L320.038 173.273C319.771 173.473 319.085 173.805 317.981 174.27C316.876 174.734 315.486 175.231 313.81 175.761C312.401 176.09 310.992 176.419 309.582 176.748C308.744 177.013 308.192 177.245 307.925 177.445C308.23 177.581 308.249 177.748 307.982 177.948C306.916 178.748 303.85 179.775 298.784 181.027C296.232 181.485 293.985 182.079 292.043 182.808L290.443 184.008C290.747 184.144 290.766 184.312 290.499 184.512L284.615 186.196C272.884 189.901 256.525 196.167 235.537 204.995L227.996 207.377C225.215 208.37 218.169 211.29 206.856 216.137L149.378 241.235L145.321 243.732C145.359 244.068 145.683 244.371 146.292 244.641C146.901 244.912 147.948 245.218 149.433 245.56C151.185 245.701 154.022 246.484 157.944 247.909C165.14 250.152 169.5 251.612 171.023 252.289C171.937 252.695 172.261 252.998 171.994 253.198C171.727 253.398 168.167 252.612 161.313 250.84C160.399 250.434 159.504 250.195 158.628 250.124C145.262 247.051 138.18 245.814 137.38 246.414L143.719 248.754C147.603 249.843 156.513 253.166 170.449 258.723C176.161 260.624 180.387 262.184 183.129 263.402C188.307 265.704 190.705 267.725 190.324 269.467C189.942 271.208 191.427 272.824 194.777 274.313C198.433 275.937 199.955 277.888 199.345 280.165L197.459 282.671C196.887 282.736 195.079 282.091 192.033 280.737C189.291 279.519 181.676 277.408 169.186 274.405C135.638 266.821 115.399 263.082 108.467 263.186C105.611 263.509 102.964 263.129 100.528 262.046C98.3954 261.099 96.3391 260.822 94.3586 261.216C92.6827 261.745 91.4069 261.974 90.531 261.903L88.2465 260.888C85.505 259.67 65.6271 256.568 28.6128 251.584C25.3759 251.101 22.996 250.521 21.473 249.844Z" fill="#141414"/>
</svg>
