<svg width="1335" height="789" viewBox="0 0 1335 789" fill="none" xmlns="http://www.w3.org/2000/svg">
<path d="M1346.83 570.249C1347.14 570.384 1347.56 570.252 1348.09 569.852C1350.23 568.252 1350.99 567.317 1350.38 567.046C1350.07 566.911 1349.1 567.275 1347.46 568.14C1346.13 569.14 1345.77 569.775 1346.38 570.046L1346.83 570.249ZM1332.09 578.031C1333.27 578.237 1335.06 577.44 1337.46 575.64C1340.93 573.04 1342.36 571.604 1341.75 571.334C1341.45 571.198 1339.67 572.163 1336.44 574.228L1332.38 576.724C1331.58 577.324 1331.33 577.692 1331.64 577.828L1332.09 578.031ZM1320.15 583.712L1321.87 583.518C1323.58 583.324 1325.1 582.728 1326.44 581.728C1326.93 580.992 1327.03 580.557 1326.72 580.421C1326.42 580.286 1325.98 580.251 1325.41 580.315C1325.14 580.515 1324.32 580.948 1322.95 581.612C1321.85 582.077 1321.03 582.509 1320.5 582.909C1319.96 583.309 1319.85 583.577 1320.15 583.712ZM1353.02 532.865C1354.24 533.406 1355.11 533.477 1355.65 533.077C1356.45 532.477 1356.91 531.406 1357.02 529.865C1357.4 528.123 1356.22 526.643 1353.48 525.425C1349.83 523.8 1342.46 522.596 1331.38 521.811L1339.37 523.454C1341.2 524.267 1342.91 525.347 1344.51 526.694C1346.68 527.977 1348.41 529.225 1349.71 530.437C1351 531.65 1352.11 532.459 1353.02 532.865ZM1040.47 585.543C1041.08 585.814 1044.55 585.761 1050.87 585.386C1063.36 585.841 1084.61 584.456 1114.62 581.231C1152.36 577.302 1189.06 571.792 1224.71 564.703L1298.12 550.03C1308.59 547.996 1314.76 546.279 1316.63 544.879L1316.57 544.376L1314.8 544.067C1295.07 543.581 1266.93 545.406 1230.37 549.541C1178.95 555.357 1128.98 563.727 1080.46 574.65C1055.63 580.177 1042.28 583.64 1040.41 585.04L1040.47 585.543ZM996.648 604.766L997.048 604.466C997.315 604.266 997.41 603.831 997.334 603.16C997.259 602.489 996.307 601.748 994.479 600.935L992.708 600.626C990.652 600.349 989.491 600.311 989.224 600.511C988.691 600.911 991.165 602.329 996.648 604.766ZM1130.01 663.559C1130.31 663.695 1132.14 663.233 1135.49 662.175C1138.88 661.451 1141.38 660.49 1142.98 659.29L1143.38 658.99C1143.07 658.855 1140.96 659.348 1137.04 660.471C1133.11 661.595 1130.75 662.456 1129.95 663.056C1129.68 663.256 1129.7 663.424 1130.01 663.559ZM1083.96 678.449C1084.26 678.584 1085.96 678.223 1089.04 677.364C1092.13 676.506 1095.9 675.315 1100.36 673.792C1104.55 672.469 1108.03 671.31 1110.81 670.316C1113.32 669.522 1114.85 668.925 1115.38 668.525C1115.08 668.39 1113.52 668.652 1110.7 669.31C1107.61 670.169 1103.84 671.359 1099.39 672.882C1094.93 674.406 1091.44 675.564 1088.93 676.358C1086.15 677.352 1084.49 678.049 1083.96 678.449ZM923.549 691.244C931.66 691.346 939.029 691.276 945.656 691.036C979.589 689.236 1023.67 680.003 1077.91 663.338C1093.64 659.181 1102.44 656.403 1104.31 655.003C1104.84 654.603 1104.8 654.267 1104.19 653.997C1102.36 653.184 1088.23 654.867 1061.8 659.046C1003.19 667.714 959.6 677.485 931.033 688.359L923.549 691.244ZM902.69 710.162L903.547 710.066C903.814 709.866 903.605 709.295 902.92 708.353C902.539 707.547 901.721 706.706 900.464 705.829C899.208 704.952 898.123 704.31 897.209 703.904C894.201 702.886 892.297 702.677 891.497 703.277L891.154 704.08C891.23 704.75 895.075 706.778 902.69 710.162ZM896.064 709.129L891.952 707.301C889.82 706.353 888.507 703.7 888.014 699.34C887.558 697.863 886.93 696.151 886.131 694.203C885.637 692.391 885.295 690.646 885.105 688.969C883.621 686.08 883.489 683.632 884.708 681.626C885.661 679.82 887.604 677.817 890.538 675.617C906.918 664.423 942.245 653.209 996.518 641.975C1017.47 637.907 1045.08 633.934 1079.35 630.057C1113.63 626.18 1141.43 623.884 1162.76 623.17L1192.18 622.39L1226.52 607.551C1264.38 591.89 1285.17 582.659 1288.91 579.859C1289.17 579.659 1289.15 579.491 1288.85 579.356C1288.55 579.22 1284.15 579.973 1275.65 581.613C1267.73 583.188 1258.25 585.025 1247.2 587.124C1140.94 606.786 1063.46 614.871 1014.75 611.38C1002.83 610.86 994.742 609.652 990.478 607.757C989.868 607.486 988.631 606.777 986.765 605.629C984.595 604.346 982.75 599.545 981.231 591.225L978.323 577.033L987.98 570.336C1005.85 559.484 1040.83 549.073 1092.93 539.103C1145.03 529.133 1199.8 522.259 1257.23 518.48C1293.71 516.221 1321.69 516.708 1341.14 519.942C1347.92 521.044 1352.83 522.271 1355.88 523.625C1362.28 526.468 1362.54 530.089 1356.68 534.489C1354.54 536.089 1354.39 537.296 1356.22 538.108L1364.33 540.757C1367.07 541.975 1367.68 543.52 1366.15 545.391C1364.9 547.061 1364.38 548.903 1364.61 550.915C1364.84 552.928 1365.56 554.204 1366.78 554.746L1367.23 554.949C1368.15 555.355 1368.68 557.503 1368.83 561.392C1368.98 565.281 1367.72 568.226 1365.06 570.226C1342.39 587.226 1296.64 609.894 1227.82 638.229L1232.38 640.26C1233.91 640.937 1235.05 642.081 1235.81 643.694C1236.88 645.441 1236.88 646.715 1235.81 647.515C1235.28 647.915 1234.57 648.08 1233.7 648.009C1233.09 647.738 1231.47 647.497 1228.84 647.285C1219.24 646.842 1212.18 647.046 1207.65 647.899C1203.38 648.551 1194.03 651.562 1179.59 656.931C1099.87 686.159 1032.8 704.446 978.379 711.791C962.726 714.071 950.139 715.325 940.618 715.553C931.402 715.916 922.662 715.376 914.399 713.933C906.136 712.49 900.024 710.889 896.064 709.129Z" fill="#141414"/>
<path d="M1050.45 550.798C1049.84 550.527 1049.67 550.292 1049.93 550.092C1050.2 549.892 1051.19 549.695 1052.9 549.501C1054.62 549.307 1055.93 549.413 1056.84 549.819L1056.9 550.323C1056.63 550.523 1055.8 550.787 1054.39 551.116C1053.28 551.581 1051.97 551.475 1050.45 550.798ZM820.023 512.41C821.166 512.281 822.004 512.016 822.537 511.616C823.871 510.616 824.233 509.981 823.623 509.71C823.014 509.439 822.176 509.704 821.11 510.504C819.776 511.504 819.262 512.072 819.567 512.207L820.023 512.41ZM1171.71 448.937C1172.85 448.807 1174.66 448.178 1177.14 447.049C1177.67 446.649 1177.76 446.214 1177.42 445.743C1176.81 445.472 1175.19 445.23 1172.57 445.018C1170.24 444.941 1168.82 445.103 1168.28 445.503C1167.22 446.303 1168.05 447.312 1170.79 448.53L1171.71 448.937ZM823.046 523.787C822.437 523.516 821.2 521.533 819.336 517.838L818.536 518.438C817.47 516.69 816.88 515.313 816.767 514.307C816.348 513.166 816.939 511.995 818.539 510.795C819.834 509.459 822.082 507.592 825.282 505.192C849.434 488.533 894.914 467.339 961.722 441.61C1004.42 425.231 1033.98 415.434 1050.39 412.218C1058.35 410.978 1063.85 411.035 1066.9 412.389C1069.34 413.472 1071.41 415.19 1073.13 417.544C1076.28 422.452 1080.55 426.895 1085.92 430.873L1091.17 435.119L1085.68 436.504C1081.23 438.027 1076.33 439.515 1071 440.967C1065.97 442.555 1062.49 443.713 1060.55 444.442C1058.91 445.307 1056.01 446.569 1051.86 448.227C1047.98 449.686 1043.67 451.276 1038.95 453C1031.45 455.716 1024.49 458.201 1018.1 460.453C1012.27 462.641 1008.69 464.235 1007.35 465.235L1007.41 465.738C1006.88 466.138 1006 466.067 1004.78 465.526C1003.87 465.12 1003.15 465.117 1002.61 465.517L1002.21 465.817L992.671 469.698C987.644 471.286 984.863 472.28 984.33 472.68C985.244 473.086 995.299 471.184 1014.49 466.975C1019.6 466.058 1024.68 464.973 1029.75 463.721C1031.46 463.527 1033.16 463.166 1034.83 462.636C1057.46 458.039 1079.2 454.645 1100.07 452.454C1123.49 449.805 1139.17 447.692 1147.09 446.117C1163.16 442.431 1173.63 441.671 1178.51 443.837C1181.55 445.19 1180.94 447.467 1176.68 450.667L1174.73 452.67C1172.91 454.406 1173.97 456.153 1177.93 457.913L1179.7 458.223C1182.14 459.306 1183.41 461.624 1183.53 465.178C1183.9 468.532 1183.03 471.009 1180.89 472.608C1173.96 477.808 1152.65 488.881 1116.96 505.826C1112.27 507.884 1099.11 514.298 1077.48 525.067C1064.07 531.849 1053.21 538.172 1044.91 544.037C1039.31 548.237 1037.27 550.675 1038.79 551.352C1039.71 551.758 1041.04 552.032 1042.79 552.173C1044.54 552.315 1046.16 552.556 1047.65 552.898C1051.23 553.852 1054.27 553.932 1056.79 553.138C1057.05 552.938 1058.06 552.909 1059.81 553.05C1065.14 554.146 1070.74 555.041 1076.61 555.736C1079.23 555.948 1081.01 556.258 1081.92 556.664C1082.57 557.27 1082.98 558.411 1083.17 560.088C1083.36 561.765 1083.8 563.074 1084.49 564.016C1085.44 564.757 1086.37 565.331 1087.28 565.737C1088.5 566.279 1089.28 566.785 1089.63 567.256C1087.38 567.85 1084.24 568.205 1080.2 568.322C1082.33 569.27 1082.87 570.144 1081.8 570.944C1081.27 571.344 1080.27 571.54 1078.83 571.534C1074.75 571.316 1070.98 571.233 1067.52 571.285C1058.83 571.248 1051.41 570.815 1045.24 569.984C1039.07 569.153 1032.79 567.316 1026.39 564.473C1018.78 561.089 1013.24 556.875 1009.77 551.832C1006.58 546.589 1005.91 541.994 1007.78 538.046C1009.65 534.099 1014.18 529.425 1021.38 524.025C1034.18 514.425 1055.36 502.179 1084.92 487.286C1086.56 486.422 1089.15 485.025 1092.69 483.095C1096.54 481.302 1100.23 479.44 1103.77 477.511C1107.62 475.717 1109.95 474.52 1110.75 473.92C1108 472.702 1085.57 476.428 1043.45 485.099C1004.45 493.247 978.625 498.97 965.98 502.269C897.234 518.537 858.309 527.356 849.207 528.725C843.227 529.571 839.629 529.724 838.41 529.182C837.496 528.776 837.002 528.238 836.926 527.567C836.583 527.096 835.955 526.658 835.041 526.251C833.823 525.71 832.185 525.301 830.129 525.024C827.768 524.611 825.997 524.302 824.817 524.096L823.046 523.787ZM1061.76 551.047L1060.84 550.641L1068.21 550.572L1067.41 551.172C1067.15 551.372 1066.14 551.401 1064.38 551.259L1061.76 551.047Z" fill="#141414"/>
<path d="M1103.69 359.939C1102.47 359.398 1100.47 358.35 1097.69 356.796C1094.91 355.243 1092.92 352.921 1091.7 349.832C1091.05 346.678 1091.8 344.301 1093.93 342.701C1097.13 340.301 1108.96 336.161 1129.41 330.281C1143.96 325.918 1152.76 324.413 1155.8 325.767C1156.72 326.173 1156.24 327.076 1154.37 328.476C1152.77 329.676 1151.52 330.073 1150.6 329.667L1149.12 328.052C1148.81 327.916 1148.53 327.949 1148.26 328.149C1147.19 328.949 1147.17 331.328 1148.2 335.288C1148.77 337.771 1149.82 339.351 1151.34 340.028C1151.95 340.299 1152.98 340.438 1154.42 340.444C1155.87 340.45 1157.2 340.724 1158.42 341.265C1159.07 341.871 1159.94 343.216 1161.05 345.299C1162.42 347.182 1162.17 348.823 1160.3 350.223C1158.7 351.423 1155.33 352.314 1150.19 352.896C1145.62 353.413 1138.99 354.927 1130.31 357.438C1126.39 358.561 1122.45 359.516 1118.48 360.304C1115.09 361.027 1112.7 361.553 1111.29 361.882C1108.96 361.805 1106.43 361.158 1103.69 359.939ZM743.281 518.913C740.997 516.624 739.855 515.479 739.855 515.479L727.009 497.826L739.009 488.826C747.847 482.561 764.627 473.615 789.347 461.987C814.03 450.024 842.808 437.173 875.679 423.435C886.763 419.124 892.972 416.468 894.305 415.468C894.572 415.268 894.553 415.101 894.248 414.965L892.477 414.656C891.259 414.115 891.05 413.544 891.85 412.944C895.05 410.544 904.362 407.198 919.788 402.905C924.015 401.918 929.062 400.498 934.928 398.645L965.95 389.022C991.964 381.154 1006.95 378.1 1010.91 379.86C1012.43 380.537 1012.66 381.275 1011.6 382.075C1011.06 382.475 1009.96 382.94 1008.28 383.469C1006.61 383.998 1005.5 384.463 1004.97 384.863L1003.82 386.266L1005.65 387.078C1006.22 387.014 1007.06 386.749 1008.17 386.285C1009.54 385.62 1010.83 385.558 1012.05 386.1L1012.91 389.824C1013.17 392.172 1014.22 393.752 1016.05 394.564C1018.18 395.512 1019.21 398.198 1019.13 402.623C1019.81 406.112 1019.22 408.556 1017.35 409.956C1016.55 410.556 1015.47 411.189 1014.1 411.853C1012.72 412.518 1011.64 413.15 1010.84 413.75C1010.31 414.15 1009.91 414.45 1009.64 414.65L1008.9 415.753C1008.36 416.153 1007.64 416.15 1006.73 415.744C1005.81 415.338 1005.07 415.167 1004.5 415.232L1002.95 416.935C1002.42 417.335 1001.3 417.632 999.584 417.826C998.441 417.955 997.603 418.22 997.07 418.62C996.803 418.82 996.822 418.987 997.127 419.123C997.432 419.258 997.451 419.426 997.184 419.626L995.927 420.023C992.575 421.081 989.795 422.075 987.586 423.004L986.386 423.904C985.014 424.569 983.719 424.63 982.501 424.089C981.587 423.683 980.864 423.68 980.33 424.08L980.387 424.583C979.054 425.583 977.283 426.547 975.073 427.477C973.931 427.606 972.807 427.903 971.703 428.367C970.865 428.632 969.912 429.164 968.846 429.964C967.779 430.764 966.789 430.961 965.875 430.555C965.266 430.284 964.828 430.249 964.561 430.449C964.295 430.649 964.028 430.849 963.761 431.049L963.018 432.152L962.618 432.452C962.047 432.517 961.304 432.346 960.391 431.94C959.781 431.669 959.077 431.834 958.277 432.434L957.134 433.837C956.296 434.101 955.305 434.298 954.163 434.428C953.287 434.357 952.716 434.421 952.449 434.621C951.916 435.021 951.668 435.389 951.706 435.724C951.744 436.06 951.63 436.328 951.363 436.528L950.963 436.828C950.392 436.892 949.211 436.686 947.421 436.209L946.678 437.312L944.621 438.309C938.756 440.161 935.29 441.488 934.223 442.288C934.528 442.423 934.547 442.591 934.28 442.791L933.423 442.888C932.852 442.952 932.109 442.782 931.195 442.375C930.586 442.105 929.882 442.269 929.082 442.869C928.282 443.469 923.006 445.425 913.256 448.735C877.605 460.92 839.173 476.647 797.959 495.914C779.523 504.284 767.905 510.268 763.105 513.868C760.438 515.868 758.819 516.901 758.248 516.965C757.41 517.23 756.077 516.956 754.25 516.144L752.822 515.032C751.604 514.49 749.928 515.019 747.794 516.619C745.661 518.219 744.156 518.984 743.281 518.913Z" fill="#141414"/>
<path d="M914.022 377.889C914.327 378.024 914.746 377.892 915.279 377.492C917.413 375.892 918.175 374.956 917.565 374.686C917.261 374.55 916.29 374.915 914.652 375.779C913.318 376.779 912.956 377.415 913.565 377.686L914.022 377.889ZM899.281 385.67C900.461 385.876 902.252 385.079 904.652 383.279C908.118 380.679 909.547 379.244 908.938 378.973C908.633 378.838 906.862 379.803 903.624 381.867L899.567 384.364C898.767 384.964 898.519 385.332 898.824 385.467L899.281 385.67ZM887.34 391.352L889.053 391.158C890.767 390.964 892.291 390.367 893.624 389.367C894.119 388.632 894.215 388.196 893.91 388.061C893.606 387.926 893.168 387.89 892.596 387.955C892.33 388.155 891.511 388.587 890.14 389.252C889.035 389.716 888.216 390.149 887.683 390.549C887.149 390.949 887.035 391.216 887.34 391.352ZM920.208 340.505C921.426 341.046 922.302 341.117 922.836 340.717C923.636 340.117 924.093 339.046 924.208 337.505C924.59 335.763 923.41 334.283 920.668 333.065C917.013 331.44 909.645 330.236 898.563 329.451L906.559 331.094C908.387 331.906 910.1 332.986 911.699 334.334C913.869 335.617 915.602 336.865 916.896 338.077C918.19 339.289 919.294 340.098 920.208 340.505ZM607.658 393.182C608.268 393.453 611.733 393.401 618.055 393.025C630.546 393.481 651.797 392.096 681.808 388.871C719.549 384.941 756.245 379.432 791.893 372.342L865.304 357.669C875.778 355.636 881.948 353.919 883.815 352.519L883.758 352.015L881.987 351.706C862.26 351.22 834.116 353.045 797.555 357.181C746.141 362.997 696.172 371.366 647.65 382.29C622.818 387.816 609.468 391.279 607.602 392.679L607.658 393.182ZM563.836 412.406L564.236 412.106C564.502 411.906 564.598 411.47 564.522 410.8C564.446 410.129 563.494 409.387 561.667 408.575L559.896 408.266C557.84 407.989 556.678 407.95 556.411 408.15C555.878 408.55 558.353 409.969 563.836 412.406ZM697.195 471.199C697.5 471.334 699.328 470.873 702.68 469.814C706.07 469.091 708.564 468.13 710.164 466.93L710.564 466.63C710.26 466.494 708.146 466.988 704.223 468.111C700.3 469.234 697.938 470.096 697.138 470.696C696.872 470.896 696.891 471.063 697.195 471.199ZM651.147 486.088C651.451 486.224 653.146 485.862 656.231 485.004C659.316 484.145 663.087 482.954 667.543 481.431C671.733 480.108 675.218 478.95 677.999 477.956C680.512 477.162 682.036 476.565 682.569 476.165C682.265 476.03 680.703 476.291 677.885 476.95C674.8 477.808 671.029 478.999 666.573 480.522C662.116 482.045 658.631 483.204 656.117 483.998C653.337 484.991 651.68 485.688 651.147 486.088ZM490.736 498.884C498.848 498.985 506.217 498.916 512.843 498.676C546.776 496.875 590.861 487.643 645.098 470.978C660.828 466.821 669.626 464.042 671.493 462.642C672.026 462.242 671.989 461.907 671.379 461.636C669.552 460.824 655.422 462.507 628.991 466.686C570.378 475.354 526.788 485.125 498.221 495.999L490.736 498.884ZM469.878 517.802L470.735 517.705C471.001 517.505 470.792 516.934 470.107 515.993C469.727 515.187 468.908 514.345 467.652 513.468C466.395 512.591 465.31 511.95 464.397 511.544C461.388 510.525 459.484 510.316 458.684 510.916L458.341 511.719C458.417 512.39 462.263 514.418 469.878 517.802ZM463.252 516.768L459.14 514.941C457.007 513.993 455.695 511.339 455.202 506.979C454.745 505.502 454.118 503.79 453.319 501.843C452.824 500.03 452.482 498.286 452.293 496.609C450.809 493.72 450.676 491.272 451.896 489.266C452.849 487.46 454.792 485.457 457.725 483.257C474.106 472.063 509.432 460.849 563.705 449.614C584.653 445.547 612.264 441.574 646.541 437.697C680.817 433.82 708.618 431.524 729.945 430.81L759.364 430.03L793.703 415.191C831.564 399.529 852.361 390.298 856.094 387.498C856.361 387.298 856.342 387.131 856.037 386.995C855.733 386.86 851.334 387.612 842.841 389.252C834.919 390.828 825.435 392.665 814.39 394.763C708.131 414.426 630.648 422.511 581.941 419.019C570.022 418.499 561.93 417.292 557.665 415.397C557.056 415.126 555.818 414.417 553.953 413.269C551.783 411.986 549.938 407.184 548.418 398.865L545.511 384.672L555.168 377.976C573.033 367.123 608.017 356.712 660.119 346.743C712.22 336.773 766.986 329.899 824.417 326.12C860.901 323.861 888.873 324.348 908.332 327.582C915.11 328.683 920.022 329.911 923.068 331.265C929.465 334.108 929.73 337.729 923.863 342.129C921.73 343.729 921.577 344.935 923.405 345.747L931.515 348.397C934.257 349.615 934.865 351.16 933.341 353.03C932.084 354.701 931.569 356.543 931.796 358.555C932.024 360.567 932.747 361.844 933.965 362.386L934.422 362.589C935.336 362.995 935.868 365.142 936.019 369.032C936.17 372.921 934.912 375.865 932.245 377.865C909.578 394.865 863.831 417.533 795.003 445.869L799.572 447.9C801.095 448.577 802.237 449.721 802.998 451.333C804.064 453.081 804.063 454.355 802.996 455.155C802.463 455.555 801.758 455.72 800.883 455.649C800.273 455.378 798.655 455.136 796.027 454.924C786.431 454.481 779.366 454.686 774.834 455.538C770.568 456.191 761.218 459.201 746.782 464.571C667.062 493.799 599.99 512.085 545.567 519.431C529.914 521.711 517.327 522.965 507.806 523.192C498.59 523.556 489.85 523.016 481.587 521.573C473.323 520.13 467.212 518.528 463.252 516.768Z" fill="#141414"/>
<path d="M672.481 285.826C674.766 285.567 679.184 283.709 685.736 280.25C692.592 276.927 697.887 273.866 701.62 271.066C705.087 268.466 706.059 266.827 704.536 266.15C703.013 265.473 699.985 266.835 695.451 270.235L693.051 272.035C690.651 273.835 687.832 275.767 684.594 277.832C681.357 279.896 678.785 281.461 676.881 282.526C674.976 283.59 673.624 284.423 672.824 285.023C672.29 285.423 672.176 285.69 672.481 285.826ZM565.513 356.773C566.084 356.709 566.637 356.477 567.17 356.077C567.703 355.677 568.218 355.109 568.713 354.373L569.056 353.57C568.218 353.835 567.133 354.467 565.799 355.467C564.999 356.067 564.752 356.435 565.056 356.57L565.513 356.773ZM557.286 360.761L559.343 359.764L560.829 357.558C560.524 357.423 559.705 357.855 558.372 358.855C557.038 359.855 556.524 360.423 556.829 360.558L557.286 360.761ZM547.401 365.446C548.01 365.717 548.982 365.352 550.315 364.352C552.182 362.952 552.81 362.117 552.201 361.846C551.896 361.71 550.944 362.243 549.344 363.443C547.744 364.643 547.096 365.31 547.401 365.446ZM438.999 320.134C439.913 320.54 444.692 320.594 453.337 320.295C462.553 319.932 473.883 319.075 487.327 317.724C521.032 313.911 559.689 307.84 603.297 299.511C604.44 299.382 605.849 299.052 607.525 298.523L620.722 296.266C643.116 292.204 655.78 289.073 658.713 286.873C660.047 285.873 659.799 284.967 657.972 284.155L657.058 283.749C655.535 283.072 655.973 281.834 658.373 280.034C659.973 278.834 662.83 277.237 666.944 275.243L670.601 273.046C673.001 271.246 673.896 270.21 673.287 269.94C673.136 268.598 673.993 267.227 675.86 265.827C676.66 265.227 676.755 264.792 676.146 264.521C674.661 264.18 667.634 264.72 655.066 266.142C594.283 273.527 532.106 287.778 468.537 308.895C450.407 314.852 440.542 318.431 438.942 319.631C438.675 319.831 438.694 319.998 438.999 320.134ZM407.516 337.197C408.43 337.603 409.934 338.112 412.028 338.725C413.856 339.537 415.798 340.081 417.854 340.358C419.911 340.635 421.072 340.674 421.339 340.474C421.605 340.274 420.501 339.464 418.027 338.046L417.57 337.843C415.437 336.895 413.343 336.283 411.287 336.006C408.926 335.594 407.479 335.588 406.945 335.988C406.679 336.188 406.869 336.591 407.516 337.197ZM698.086 255.161C698.39 255.297 699.076 254.964 700.143 254.164C704.143 251.164 703.706 248.581 698.832 246.415C694.872 244.655 688.97 243.625 681.125 243.323C676.479 243.169 674.022 243.192 673.756 243.392C674.06 243.528 674.651 243.631 675.527 243.702C676.707 243.908 678.954 244.588 682.266 245.741L688.092 247.375C694.184 250.083 697.154 252.04 697.001 253.246C697.42 254.387 697.781 255.026 698.086 255.161ZM505.691 387.997L497.87 376.399C502.441 373.334 506.726 370.302 510.726 367.302C514.46 364.502 520.136 360.972 527.754 356.714C535.639 352.255 543.41 348.065 551.066 344.141C558.989 340.018 565.274 336.76 569.922 334.366C574.835 331.772 577.692 330.175 578.492 329.575L578.892 329.275C578.283 329.004 570.59 330.045 555.813 332.395C520.088 338.814 489.982 342.474 465.494 343.376C458.563 343.481 451.175 343.383 443.33 343.081C423.87 342.395 412.617 341.375 409.571 340.022C408.962 339.751 407.516 338.471 405.232 336.182C402.948 333.892 400.911 331.236 399.123 328.211C394.67 322.091 392.977 317.357 394.045 314.01C394.426 312.268 395.951 310.397 398.617 308.397C400.751 306.797 403.741 305.101 407.588 303.307C430.328 292.073 463.465 280.682 506.999 269.134C550.533 257.586 591.97 249.247 631.312 244.117C667.264 239.711 690.266 239.742 700.318 244.209C704.278 245.969 705.419 248.387 703.743 251.464C702.637 254.477 702.693 256.253 703.912 256.795L705.282 257.404C706.805 258.081 708.423 259.596 710.136 261.95C712.42 264.239 713.428 266.758 713.16 269.505C713.159 272.053 712.092 274.127 709.959 275.727C708.092 277.127 702.13 280.688 692.074 286.412L687.16 289.005C686.094 289.805 685.522 291.144 685.445 293.021C685.939 294.833 687.405 296.281 689.841 297.364C691.06 297.905 692.24 298.111 693.383 297.982C695.097 297.788 696.41 297.894 697.324 298.301C697.933 298.571 699.094 299.884 700.807 302.237C701.758 305.527 701.833 307.471 701.033 308.071C697.833 310.471 680.883 317.908 650.183 330.382C623.901 340.998 596.781 353.152 568.822 366.844C546.044 377.743 531.588 385.492 525.455 390.092C522.788 392.092 520.845 392.821 519.627 392.28L516.772 390.055L514.03 388.837C513.421 388.566 515.917 386.331 521.517 382.131L528.317 377.031L540.43 369.037C541.497 368.237 541.878 367.769 541.573 367.634C540.964 367.363 529.003 374.151 505.691 387.997Z" fill="#141414"/>
<path d="M419.016 117.752C420.539 118.429 422.1 118.167 423.7 116.968C424.234 116.568 424.348 116.3 424.043 116.164C424.31 115.964 424.291 115.797 423.986 115.661L422.673 115.555C419.778 115.543 418.064 115.737 417.531 116.137C416.998 116.537 417.188 116.94 418.102 117.346L419.016 117.752ZM536.849 150.534C537.42 150.469 538.239 150.037 539.306 149.237C540.906 148.037 541.401 147.301 540.792 147.03C540.487 146.895 539.764 146.892 538.621 147.021C538.05 147.086 537.631 147.218 537.364 147.418C537.098 147.618 536.831 147.818 536.564 148.018L536.164 148.318C536.011 149.524 536.087 150.195 536.392 150.33L536.849 150.534ZM472.432 237.048L480.543 239.697C488.806 241.14 493.471 241.462 494.538 240.662C495.604 239.862 495.528 239.191 494.31 238.65C494.005 238.514 493.415 238.411 492.539 238.34C491.663 238.27 490.483 238.064 488.998 237.722C487.817 237.516 486.923 237.277 486.313 237.007C485.704 236.736 484.371 236.462 482.315 236.185C480.563 236.044 478.393 236.034 475.803 236.158C473.784 236.216 472.642 236.345 472.375 236.545C472.109 236.745 472.128 236.913 472.432 237.048ZM432.876 297.823C433.79 298.229 434.78 298.033 435.846 297.233C436.38 296.833 436.875 296.097 437.333 295.026C438.361 293.891 441.542 291.323 446.876 287.323C450.609 284.523 452.171 282.988 451.562 282.717C451.257 282.582 450.534 282.579 449.391 282.708C448.553 282.973 447.068 283.905 444.934 285.505L439.791 289.908C433.658 294.508 431.353 297.146 432.876 297.823ZM461.162 275.517C462.038 275.588 462.876 275.323 463.676 274.723C465.276 273.523 465.619 272.72 464.705 272.314C464.4 272.179 463.715 272.511 462.648 273.311C461.581 274.111 461.067 274.679 461.105 275.014L460.705 275.314L461.162 275.517ZM173.678 223.713L173.621 223.21C173.279 222.739 172.936 222.269 172.594 221.798C172.251 221.327 171.89 220.689 171.509 219.883C170.557 219.141 170.177 218.335 170.368 217.464C169.987 216.658 170.064 216.055 170.597 215.655C170.864 215.455 170.845 215.287 170.54 215.152L167.855 214.437L168.255 214.137C168.522 213.937 169.931 213.607 172.483 213.149C174.73 212.555 176.254 211.958 177.054 211.358C178.12 210.558 178.749 209.723 178.94 208.852C179.397 207.781 181.36 205.946 184.826 203.346L198.883 193.349C222.882 177.896 259.334 161.29 308.241 143.53C339.626 131.997 368.268 123.068 394.167 116.742C401.746 114.695 407.821 113.414 412.391 112.897C418.599 111.515 422.77 111.298 424.902 112.246C426.425 112.923 427.167 114.367 427.128 116.58L428.497 121.01C427.964 121.41 427.411 121.643 426.84 121.707L423.412 122.095C423.146 122.295 423.622 122.666 424.84 123.207C431.237 126.05 436.832 132.041 441.627 141.179C427.115 145.878 418.393 148.053 415.461 147.706L414.204 148.103C413.671 148.503 413.404 148.703 413.404 148.703L413.461 149.206C413.194 149.406 412.909 149.438 412.604 149.303C407.653 149.013 401.198 150.763 393.237 154.55C392.437 155.15 391.446 155.347 390.266 155.141L388.952 155.035L388.095 155.132L387.409 156.738C387.142 156.938 386.723 157.07 386.152 157.135C386.152 157.135 385.257 156.897 383.468 156.42L382.724 157.523C381.924 158.123 380.382 158.552 378.097 158.81C375.812 159.069 373.869 159.798 372.269 160.998C370.936 161.998 369.965 162.363 369.355 162.092C369.051 161.957 364.69 163.044 356.273 165.355C348.16 167.801 338.943 170.712 328.621 174.088C303.178 181.891 289.79 186.293 288.457 187.293C289.066 187.563 302.396 185.206 328.447 180.221C343.986 176.935 359.411 173.917 374.721 171.166L385.747 168.899C403.609 165.69 421.947 162.851 440.761 160.384C455.615 158.703 470.677 156.32 485.95 153.234C501.489 149.948 516.266 147.597 530.281 146.181L532.452 146.191C539.879 145.35 544.201 145.201 545.419 145.743C545.724 145.878 545.914 146.281 545.99 146.952C546.333 147.423 545.037 148.758 542.104 150.958C539.742 153.093 538.484 154.764 538.332 155.97C538.483 157.312 539.168 158.253 540.387 158.795C540.996 159.066 542.024 159.204 543.471 159.21C545.223 159.352 546.556 159.626 547.47 160.032C548.384 160.438 549.202 161.279 549.925 162.556C551.219 163.769 551.847 165.481 551.808 167.693C551.769 169.905 550.816 171.712 548.949 173.112C543.883 176.912 517.22 187.995 468.961 206.361C401.277 232.02 364.768 246.849 359.434 250.849L359.034 251.149L359.548 251.856C360.157 252.126 360.748 252.229 361.319 252.165C363.452 250.565 368.27 249.68 375.772 249.511C380.952 249.265 383.808 248.941 384.342 248.541L383.428 248.135C384.228 247.535 391.597 246.192 405.537 244.106C415.515 242.807 426.598 241.044 438.785 238.816C460.075 235.219 472.891 233.43 477.232 233.448C481.574 233.467 486.467 234.527 491.912 236.628C494.349 237.711 495.624 238.756 495.738 239.762C496.118 240.568 495.394 241.839 493.565 243.574C492.003 245.11 491.26 246.213 491.336 246.883C491.983 247.49 493.677 248.402 496.419 249.62C500.988 251.651 503.881 254.211 505.098 257.3C506.164 259.048 506.201 260.657 505.211 262.128C504.486 263.398 503.191 264.734 501.324 266.134C497.324 269.134 490.677 273.028 481.383 277.815C469.155 284.803 459.842 290.697 453.442 295.497C449.708 298.297 446.775 300.497 444.642 302.097C443.079 303.632 442.07 304.935 441.612 306.006C441.421 306.877 441.535 307.883 441.954 309.025C442.943 310.102 443.305 310.74 443.038 310.94C442.772 311.14 442.2 311.205 441.324 311.134C441.02 310.998 438.278 309.78 433.1 307.479C422.439 302.74 417.243 297.723 417.512 292.428C418.085 287.268 423.972 280.488 435.172 272.088L447.115 262.585L410.725 266.956C393.587 268.895 372.221 271.821 346.628 275.735C334.974 277.563 326.29 278.8 320.577 279.446C312.313 280.551 306.81 280.494 304.069 279.276L299.386 276.239C297.254 275.291 295.464 274.814 294.017 274.808C292.303 275.002 290.989 274.896 290.075 274.49C287.638 273.407 285.24 271.385 282.88 268.425C279.569 264.724 278.275 262.238 278.999 260.967C280.294 259.632 282.142 258.064 284.542 256.264C299.742 244.864 344.422 224.27 418.582 194.482L423.153 192.691C441.436 185.528 451.511 181.246 453.377 179.846L436.753 182.491C383.509 192.59 345.575 199.938 322.952 204.535C263.842 216.486 225.775 223.934 208.751 226.879C196.259 228.971 188.947 229.544 186.815 228.596C185.901 228.19 185.387 227.484 185.273 226.478C185.464 225.607 185.102 224.968 184.189 224.562L173.678 223.713Z" fill="#141414"/>
<path d="M21.7308 197.27C20.5124 196.729 20.3032 196.158 21.1032 195.558C21.6365 195.158 22.6078 194.793 24.017 194.464C25.4262 194.135 27.0067 194.041 28.7584 194.182C29.9389 194.388 30.6625 194.392 30.9292 194.192C31.1958 193.992 29.8061 193.215 26.7601 191.861L24.0756 191.145C22.8572 190.604 21.7341 189.627 20.7065 188.215C19.4122 187.002 17.9288 182.839 16.2562 175.726L26.1391 174.863C36.7266 173.835 54.9487 175.085 80.8054 178.614C89.64 179.993 94.7619 180.517 96.1711 180.188C97.847 179.659 99.3516 178.894 100.685 177.894C107.352 172.894 129.273 162.092 166.449 145.489C251.505 107.166 325.607 78.1485 388.757 58.4373C409.972 51.6218 421.38 47.6141 422.98 46.4141C423.247 46.2141 423.228 46.0464 422.923 45.911L421.609 45.8049C420.162 45.7987 418.391 45.4895 416.297 44.8773C414.507 44.4004 412.87 43.9911 411.385 43.6496C408.11 42.8312 406.073 42.722 405.273 43.322L404.873 43.622C404.339 44.022 402.283 43.7451 398.704 42.7913C393.335 41.3606 387.452 39.2238 381.055 36.3808C380.446 36.1101 380.122 35.807 380.084 35.4716L380.484 35.1716L385.112 33.8839C387.702 33.7608 389.263 33.4992 389.797 33.0992C390.063 32.8992 388.978 32.2577 386.541 31.1747C384.104 30.0916 383.306 28.144 384.145 25.3317C383.841 22.6487 384.413 20.0364 385.862 17.4949C386.053 16.6241 386.681 15.7887 387.748 14.9887C388.815 14.1887 393.899 14.3779 403 15.5563C407.95 15.8454 413.51 16.4054 419.679 17.236C436.092 19.1159 460.425 24.5155 492.677 33.4351C533.04 45.0037 560.532 54.0371 575.153 60.5354C580.331 62.8368 583.72 64.6614 585.319 66.009L587.317 68.3305C587.05 68.5305 586.003 68.2244 584.175 67.4121L571.839 61.9292L562.301 58.1678C558.074 56.6079 555.828 55.9279 555.561 56.1279C555.294 56.3279 557.921 57.814 563.442 60.5862C569.268 63.4938 573.189 66.1922 575.206 68.6814C577.49 70.9706 578.517 73.6567 578.288 76.7397C578.705 80.4289 579.104 82.6765 579.484 83.4827C579.826 86.5011 579.73 88.2103 579.196 88.6103C578.663 89.0103 575.864 88.5626 570.8 87.2673C566.002 85.772 559.986 83.7352 552.751 81.1568C545.517 78.5785 535.75 75.3525 523.451 71.4788C494.131 62.9069 474.273 57.4257 463.877 55.0351C461.516 54.6228 459.802 54.8166 458.736 55.6166C457.936 56.2166 458.145 56.7874 459.363 57.3289C460.886 58.0058 461.609 59.2827 461.532 61.1596C461.455 63.0365 461.093 64.9457 460.445 66.8872C460.101 68.9641 459.396 70.4026 458.329 71.2026C457.529 71.8026 452.406 73.8257 442.96 77.2719C420.221 85.9582 398.396 93.7767 377.485 100.728L365.773 104.6C350.462 109.899 339.625 113.842 333.264 116.429C326.903 119.017 323.114 120.04 321.895 119.499L321.438 119.296L320.295 120.699C320.029 120.899 319.343 121.231 318.238 121.696C317.134 122.16 315.744 122.657 314.068 123.186C312.659 123.516 311.249 123.845 309.84 124.174C309.002 124.439 308.45 124.671 308.183 124.871C308.488 125.006 308.507 125.174 308.24 125.374C307.173 126.174 304.107 127.2 299.042 128.453C296.49 128.911 294.243 129.505 292.3 130.234L290.7 131.434C291.005 131.57 291.024 131.737 290.757 131.937L284.873 133.622C273.142 137.327 256.782 143.593 235.795 152.421L228.253 154.802C225.473 155.796 218.426 158.716 207.114 163.562L149.636 188.661L145.579 191.158C145.617 191.493 145.94 191.796 146.55 192.067C147.159 192.338 148.206 192.644 149.691 192.986C151.443 193.127 154.28 193.91 158.201 195.335C165.398 197.578 169.758 199.038 171.281 199.715C172.195 200.121 172.518 200.424 172.252 200.624C171.985 200.824 168.425 200.038 161.571 198.265C160.657 197.859 159.762 197.621 158.886 197.55C145.52 194.476 138.437 193.24 137.637 193.84L143.977 196.18C147.861 197.269 156.771 200.592 170.707 206.148C176.419 208.05 180.645 209.61 183.387 210.828C188.565 213.13 190.963 215.151 190.582 216.893C190.2 218.634 191.685 220.249 195.035 221.739C198.69 223.363 200.213 225.314 199.603 227.591L197.716 230.097C197.145 230.162 195.336 229.517 192.29 228.163C189.549 226.945 181.933 224.834 169.443 221.831C135.896 214.247 115.656 210.507 108.725 210.612C105.869 210.935 103.222 210.555 100.785 209.472C98.6532 208.524 96.5969 208.248 94.6164 208.641C92.9406 209.171 91.6647 209.4 90.7888 209.329L88.5043 208.314C85.7628 207.095 65.8849 203.994 28.8706 199.01C25.6338 198.527 23.2538 197.947 21.7308 197.27Z" fill="#141414"/>
</svg>
