<svg width="377" height="20" viewBox="0 0 377 20" fill="none" xmlns="http://www.w3.org/2000/svg">
<path d="M363.15 19.312C354.102 19.312 353.43 15.208 353.718 12.664H359.358C359.382 13.792 359.718 15.496 364.206 15.496H364.494C369.486 15.496 369.822 14.272 369.822 13.384C369.822 12.424 369.294 11.896 365.814 11.8L362.838 11.728C356.622 11.584 354.894 9.25603 354.894 6.52003C354.894 6.18403 354.918 5.92003 354.966 5.58403C355.326 3.13603 357.126 0.832031 365.07 0.832031H366.606C374.862 0.832031 376.422 3.76003 376.062 6.71203H370.446C370.374 5.99203 370.182 4.55203 365.646 4.55203H365.31C360.846 4.55203 360.582 5.44003 360.582 6.16003C360.582 6.83203 360.918 7.60003 364.158 7.64803L367.038 7.69603C373.374 7.79203 375.654 9.40003 375.654 12.712C375.654 13.144 375.606 13.696 375.534 14.056C375.006 16.648 373.47 19.312 364.71 19.312H363.15Z" fill="#F8F8F8"/>
<path d="M329.832 19.0005L332.664 1.14453H347.304C351.912 1.14453 353.28 2.87253 353.28 5.12853C353.28 7.62453 351.024 8.65653 349.8 8.99253C350.88 9.30453 352.968 10.3845 352.968 13.0725C352.968 16.3845 351.024 19.0005 345.12 19.0005H329.832ZM345.552 7.81653C347.184 7.81653 347.688 6.95253 347.688 6.20853C347.688 5.51253 347.376 4.91253 345.96 4.91253H337.512L337.056 7.81653H345.552ZM344.856 15.1125C346.848 15.1125 347.304 13.9125 347.304 13.1445C347.304 12.3765 346.992 11.6085 345.336 11.6085H336.456L335.904 15.1125H344.856Z" fill="#F8F8F8"/>
<path d="M320.807 11.7045L318.359 5.00853L314.207 11.7045H320.807ZM323.495 19.0005L322.295 15.7365H311.711L309.695 19.0005H304.055L315.335 1.14453H322.367L329.159 19.0005H323.495Z" fill="#F8F8F8"/>
<path d="M288.888 8.70453H297.192C298.992 8.70453 299.688 7.72053 299.688 6.76053C299.688 5.84853 299.16 5.20053 297.696 5.20053H289.464L288.888 8.70453ZM288.288 12.6645L287.28 19.0005H281.832L284.664 1.14453H298.824C304.056 1.14453 305.544 3.13653 305.544 5.46453C305.544 8.22453 303.192 9.47253 301.608 9.92853C303.24 10.4325 304.656 11.5605 304.296 13.8645L303.816 16.8645C303.624 18.1365 303.768 18.5925 303.84 18.8805L303.816 19.0005H298.272C298.176 18.8085 298.104 18.5445 298.224 17.8005L298.536 15.8325C298.872 13.7205 298.08 12.6645 295.32 12.6645H288.288Z" fill="#F8F8F8"/>
<path d="M267.746 19.312H267.266C258.77 19.312 256.418 14.68 256.418 11.056C256.418 10.48 256.442 9.97603 256.538 9.32803C257.042 5.84803 259.274 0.832031 269.258 0.832031H270.002C279.746 0.832031 281.21 5.20003 281.066 7.62403H275.306C275.234 7.19203 274.874 5.08003 269.498 5.08003C264.242 5.08003 262.562 7.40803 262.25 9.68803C262.202 10.048 262.178 10.288 262.178 10.624C262.178 12.952 263.81 14.968 268.202 14.968C273.17 14.968 275.042 13 275.186 12.376H268.322L268.85 8.99203H281.066L279.482 19H276.218C276.242 18.328 276.194 16.936 276.002 16.168C275.21 17.104 272.81 19.312 267.746 19.312Z" fill="#F8F8F8"/>
<path d="M230.969 1.14453H249.257L248.609 5.20053H235.697L235.289 7.84053H247.913L247.265 11.9205H234.641L234.161 14.8485H247.289L246.641 19.0005H228.137L230.969 1.14453Z" fill="#F8F8F8"/>
<path d="M198.559 19.0005L201.391 1.14453H208.975L213.295 12.2565L220.879 1.14453H228.439L225.607 19.0005H220.255L222.223 6.64053L213.655 19.0005H210.751L205.783 6.64053L203.815 19.0005H198.559Z" fill="#F8F8F8"/>
<path d="M189.533 11.7045L187.085 5.00853L182.933 11.7045H189.533ZM192.221 19.0005L191.021 15.7365H180.437L178.421 19.0005H172.781L184.061 1.14453H191.093L197.885 19.0005H192.221Z" fill="#F8F8F8"/>
<path d="M157.615 8.70453H165.919C167.719 8.70453 168.415 7.72053 168.415 6.76053C168.415 5.84853 167.887 5.20053 166.423 5.20053H158.191L157.615 8.70453ZM157.015 12.6645L156.007 19.0005H150.559L153.391 1.14453H167.551C172.783 1.14453 174.271 3.13653 174.271 5.46453C174.271 8.22453 171.919 9.47253 170.335 9.92853C171.967 10.4325 173.383 11.5605 173.023 13.8645L172.543 16.8645C172.351 18.1365 172.495 18.5925 172.567 18.8805L172.543 19.0005H166.999C166.903 18.8085 166.831 18.5445 166.951 17.8005L167.263 15.8325C167.599 13.7205 166.807 12.6645 164.047 12.6645H157.015Z" fill="#F8F8F8"/>
<path d="M133.281 1.14453H151.233L150.585 5.20053H138.057L137.649 7.84053H149.865L149.217 11.9205H137.001L135.873 19.0005H130.449L133.281 1.14453Z" fill="#F8F8F8"/>
<path d="M105.991 19.0005H100.543L103.375 1.14453H115.975C121.831 1.14453 123.727 3.35253 123.727 6.47253C123.727 9.35253 122.335 13.0485 115.111 13.0485H106.951L105.991 19.0005ZM107.551 9.04053H115.087C117.103 9.04053 117.919 8.12853 117.919 6.85653C117.919 5.77653 117.199 5.20053 115.663 5.20053H108.175L107.551 9.04053Z" fill="#F8F8F8"/>
<path d="M70.9648 19.0005L73.7968 1.14453H81.3808L85.7008 12.2565L93.2848 1.14453H100.845L98.0128 19.0005H92.6609L94.6288 6.64053L86.0608 19.0005H83.1568L78.1888 6.64053L76.2208 19.0005H70.9648Z" fill="#F8F8F8"/>
<path d="M51.6849 1.14453H71.9889L71.3889 4.96053C70.7169 5.63253 68.3409 8.03253 66.6849 10.1445C64.2129 13.3125 63.5649 15.7125 63.2289 18.7845L63.2049 19.0005H56.7249L57.0849 16.7445C57.5409 13.8645 58.5249 12.2325 62.2449 8.75253C64.6449 6.49653 65.6289 5.58453 65.6529 5.17653H56.5329L55.9569 8.84853H50.4609L51.6849 1.14453Z" fill="#F8F8F8"/>
<path d="M51.6251 14.8008L50.9531 19.0008H45.2891L45.9611 14.8008H51.6251Z" fill="#F8F8F8"/>
<path d="M23.9772 11.9203L37.7532 1.07227H43.5852L41.9772 11.1523H45.4812L44.8332 15.3043H41.3292L40.7292 19.0003H35.3532L35.9532 15.3043H23.4492L23.9772 11.9203ZM36.5772 11.1523L37.4892 5.58427L30.3852 11.1523H36.5772Z" fill="#F8F8F8"/>
<path d="M8.36697 7.45603H2.65497L2.67897 7.21603C2.94297 4.98403 4.21497 0.832031 13.047 0.832031H13.983C21.783 0.832031 23.583 3.35203 23.583 5.84803C23.583 8.44003 22.503 10.912 16.143 11.752C14.679 11.944 12.183 12.28 10.815 12.496C6.61497 13.144 6.11097 14.296 6.08697 14.776H17.127L17.487 12.472H22.815L21.783 19H0.542969L0.854969 16.984C1.26297 14.392 2.00697 10.192 10.095 8.65603C11.511 8.39203 14.031 7.93603 15.063 7.76803C17.487 7.31203 17.751 6.85603 17.751 6.25603C17.751 5.63203 17.295 4.96003 13.479 4.96003C9.06297 4.96003 8.53497 6.59203 8.36697 7.45603Z" fill="#F8F8F8"/>
</svg>
