<svg width="807" height="102" viewBox="0 0 807 102" fill="none" xmlns="http://www.w3.org/2000/svg">
<path fill-rule="evenodd" clip-rule="evenodd" d="M719.446 0.767578H754.579L743.187 72.3196H806.923L802.27 102H703.391L719.446 0.767578ZM739.672 75.3196L751.064 3.76758H722.008L706.904 98.9996H799.704L803.416 75.3196H739.672Z" fill="#F8F8F8"/>
<path fill-rule="evenodd" clip-rule="evenodd" d="M545.321 0.767578H648.936L644.522 28.3996H575.671L574.422 36.4796H641.765L637.356 64.2396H570.015L568.439 73.8556H638.427L634.035 102H529.266L545.321 0.767578ZM564.907 76.8556L567.467 61.2396H634.795L638.251 39.4796H570.923L573.099 25.3996H641.963L645.419 3.76758H547.883L532.779 98.9996H631.467L634.923 76.8556H564.907Z" fill="#F8F8F8"/>
<path fill-rule="evenodd" clip-rule="evenodd" d="M382.876 102L345.73 0.767578H384.034L407.076 67.2394L446.887 0.767578H484.78L423.007 102H382.876ZM406.347 74.2956L381.899 3.76758H350.027L384.971 98.9996H421.323L479.435 3.76758H448.587L406.347 74.2956Z" fill="#F8F8F8"/>
<path fill-rule="evenodd" clip-rule="evenodd" d="M183.196 0.767578H286.811L282.397 28.3996H213.546L212.297 36.4796H279.64L275.231 64.2396H207.89L206.314 73.8556H276.302L271.91 102H167.141L183.196 0.767578ZM202.782 76.8556L205.342 61.2396H272.67L276.126 39.4796H208.798L210.974 25.3996H279.838L283.294 3.76758H185.758L170.654 98.9996H269.342L272.798 76.8556H202.782Z" fill="#F8F8F8"/>
<path fill-rule="evenodd" clip-rule="evenodd" d="M16.8212 0.767578H51.9544L40.5624 72.3196H104.298L99.6453 102H0.765625L16.8212 0.767578ZM37.0469 75.3196L48.4389 3.76758H19.3829L4.27893 98.9996H97.0789L100.791 75.3196H37.0469Z" fill="#F8F8F8"/>
</svg>
