<svg width="156" height="20" viewBox="0 0 156 20" fill="none" xmlns="http://www.w3.org/2000/svg">
<path fill-rule="evenodd" clip-rule="evenodd" d="M131.251 20.0005H123.791L118.613 0.144531H126.456L128.906 10.3432L133.467 0.144531H140.718L142.708 10.0345L147.683 0.144531H155.463L144.867 20.0005H137.941L135.809 10.1526L131.251 20.0005ZM130.611 19.0005H124.563L119.907 1.14453H125.667L128.619 13.4325L134.115 1.14453H139.899L142.299 13.0725L148.299 1.14453H153.795L144.267 19.0005H138.747L136.155 7.02453L130.611 19.0005Z" fill="#F8F8F8"/>
<path fill-rule="evenodd" clip-rule="evenodd" d="M64.1101 0.144531H84.4245L83.457 6.20053H70.5494L70.4505 6.84053H83.0794L82.1138 12.9205H69.4855L69.3333 13.8485H82.4522L81.4921 20.0005H60.9609L64.1101 0.144531ZM68.156 14.8485L68.636 11.9205H81.26L81.908 7.84053H69.284L69.692 5.20053H82.604L83.252 1.14453H64.964L62.132 19.0005H80.636L81.284 14.8485H68.156Z" fill="#F8F8F8"/>
<path fill-rule="evenodd" clip-rule="evenodd" d="M3.21952 0.144531H10.6279L18.6306 10.2111L20.2101 0.144531H27.6125L24.4633 20.0005H17.7801L9.15134 9.33152L7.47235 20.0005H0.0703125L3.21952 0.144531ZM8.51341 6.95253L18.2574 19.0005H23.6094L26.4414 1.14453H21.0654L19.2654 12.6165L10.1454 1.14453H4.07341L1.24141 19.0005H6.61741L8.51341 6.95253Z" fill="#F8F8F8"/>
</svg>
