<svg width="517" height="99" viewBox="0 0 517 99" fill="none" xmlns="http://www.w3.org/2000/svg">
<path d="M441.188 98.6635C389.348 98.6635 378.852 73.4475 378.852 56.4235C378.852 53.4795 378.852 50.2795 379.492 45.6715C381.796 30.0555 389.732 0.103516 448.356 0.103516H453.86C505.316 0.103516 516.324 24.5515 516.324 41.7035C516.324 45.0315 516.196 48.4875 515.684 52.0715C513.252 68.4555 505.444 98.6635 446.692 98.6635H441.188ZM485.604 44.7755C485.604 34.2795 478.436 23.1435 450.148 23.1435C418.532 23.1435 410.98 37.2235 410.084 48.1035C409.956 49.7675 409.956 51.0475 409.956 52.4555C409.956 62.8235 416.228 75.4955 445.028 75.4955C476.132 75.4955 483.684 61.4155 485.22 49.8955C485.476 47.9755 485.604 46.5675 485.604 44.7755Z" fill="#F8F8F8"/>
<path d="M223.788 42.0876H268.076C277.676 42.0876 281.388 36.8396 281.388 31.7196C281.388 26.8556 278.572 23.3996 270.764 23.3996H226.86L223.788 42.0876ZM220.588 63.2076L215.212 96.9996H186.156L201.26 1.76758H276.78C304.684 1.76758 312.62 12.3916 312.62 24.8076C312.62 39.5276 300.076 46.1836 291.628 48.6156C300.332 51.3036 307.884 57.3196 305.964 69.6076L303.404 85.6076C302.38 92.3916 303.148 94.8236 303.532 96.3596L303.404 96.9996H273.836C273.324 95.9756 272.94 94.5676 273.58 90.5996L275.244 80.1036C277.036 68.8396 272.812 63.2076 258.092 63.2076H220.588Z" fill="#F8F8F8"/>
<path d="M29.3373 96.9996H0.28125L15.3853 1.76758H82.5853C113.817 1.76758 123.929 13.5436 123.929 30.1836C123.929 45.5436 116.505 65.2556 77.9773 65.2556H34.4573L29.3373 96.9996ZM37.6573 43.8796H77.8493C88.6013 43.8796 92.9533 39.0156 92.9533 32.2316C92.9533 26.4716 89.1133 23.3996 80.9213 23.3996H40.9853L37.6573 43.8796Z" fill="#F8F8F8"/>
</svg>
