<svg width="248" height="20" viewBox="0 0 248 20" fill="none" xmlns="http://www.w3.org/2000/svg">
<path d="M234.947 19.312C225.899 19.312 225.227 15.208 225.515 12.664H231.155C231.179 13.792 231.515 15.496 236.003 15.496H236.291C241.283 15.496 241.619 14.272 241.619 13.384C241.619 12.424 241.091 11.896 237.611 11.8L234.635 11.728C228.419 11.584 226.691 9.25603 226.691 6.52003C226.691 6.18403 226.715 5.92003 226.763 5.58403C227.123 3.13603 228.923 0.832031 236.867 0.832031H238.403C246.659 0.832031 248.219 3.76003 247.859 6.71203H242.243C242.171 5.99203 241.979 4.55203 237.443 4.55203H237.107C232.643 4.55203 232.379 5.44003 232.379 6.16003C232.379 6.83203 232.715 7.60003 235.955 7.64803L238.835 7.69603C245.171 7.79203 247.451 9.40003 247.451 12.712C247.451 13.144 247.403 13.696 247.331 14.056C246.803 16.648 245.267 19.312 236.507 19.312H234.947Z" fill="#F8F8F8"/>
<path d="M211.036 19.312C201.316 19.312 199.348 14.584 199.348 11.392C199.348 10.84 199.348 10.24 199.468 9.37603C199.9 6.44803 201.388 0.832031 212.38 0.832031H213.412C223.06 0.832031 225.124 5.41603 225.124 8.63203C225.124 9.25603 225.1 9.90403 225.004 10.576C224.548 13.648 223.084 19.312 212.068 19.312H211.036ZM219.364 9.20803C219.364 7.24003 218.02 5.15203 212.716 5.15203C206.788 5.15203 205.372 7.79203 205.204 9.83203C205.18 10.144 205.18 10.384 205.18 10.648C205.18 12.592 206.356 14.968 211.756 14.968C217.588 14.968 219.004 12.328 219.292 10.168C219.34 9.80803 219.364 9.54403 219.364 9.20803Z" fill="#F8F8F8"/>
<path d="M184.349 19.0005L186.509 5.36853H179.141L179.789 1.14453H200.069L199.397 5.36853H192.029L189.869 19.0005H184.349Z" fill="#F8F8F8"/>
<path d="M164.7 19.312C154.98 19.312 153.012 14.584 153.012 11.392C153.012 10.84 153.012 10.24 153.132 9.37603C153.564 6.44803 155.052 0.832031 166.044 0.832031H167.076C176.724 0.832031 178.788 5.41603 178.788 8.63203C178.788 9.25603 178.764 9.90403 178.668 10.576C178.212 13.648 176.748 19.312 165.732 19.312H164.7ZM173.028 9.20803C173.028 7.24003 171.684 5.15203 166.38 5.15203C160.452 5.15203 159.036 7.79203 158.868 9.83203C158.844 10.144 158.844 10.384 158.844 10.648C158.844 12.592 160.02 14.968 165.42 14.968C171.252 14.968 172.668 12.328 172.956 10.168C173.004 9.80803 173.028 9.54403 173.028 9.20803Z" fill="#F8F8F8"/>
<path d="M127.52 19.0005L130.352 1.14453H135.8L134.768 7.64853H146.264L147.296 1.14453H152.744L149.912 19.0005H144.464L145.568 11.9685H134.072L132.968 19.0005H127.52Z" fill="#F8F8F8"/>
<path d="M110.116 19.0005H104.668L107.5 1.14453H120.1C125.956 1.14453 127.852 3.35253 127.852 6.47253C127.852 9.35253 126.46 13.0485 119.236 13.0485H111.076L110.116 19.0005ZM111.676 9.04053H119.212C121.228 9.04053 122.044 8.12853 122.044 6.85653C122.044 5.77653 121.324 5.20053 119.788 5.20053H112.3L111.676 9.04053Z" fill="#F8F8F8"/>
<path d="M80.2097 19.0005H74.7617L77.5937 1.14453H90.1937C96.0497 1.14453 97.9457 3.35253 97.9457 6.47253C97.9457 9.35253 96.5537 13.0485 89.3297 13.0485H81.1697L80.2097 19.0005ZM81.7697 9.04053H89.3057C91.3217 9.04053 92.1377 8.12853 92.1377 6.85653C92.1377 5.77653 91.4177 5.20053 89.8817 5.20053H82.3937L81.7697 9.04053Z" fill="#F8F8F8"/>
<path d="M45.1836 19.0005L48.0156 1.14453H55.5996L59.9196 12.2565L67.5036 1.14453H75.0636L72.2316 19.0005H66.8796L68.8476 6.64053L60.2796 19.0005H57.3756L52.4076 6.64053L50.4396 19.0005H45.1836Z" fill="#F8F8F8"/>
<path d="M25.9037 1.14453H46.2077L45.6077 4.96053C44.9357 5.63253 42.5597 8.03253 40.9037 10.1445C38.4317 13.3125 37.7837 15.7125 37.4477 18.7845L37.4237 19.0005H30.9437L31.3037 16.7445C31.7597 13.8645 32.7437 12.2325 36.4637 8.75253C38.8637 6.49653 39.8477 5.58453 39.8717 5.17653H30.7517L30.1757 8.84853H24.6797L25.9037 1.14453Z" fill="#F8F8F8"/>
<path d="M8.36697 7.45603H2.65497L2.67897 7.21603C2.94297 4.98403 4.21497 0.832031 13.047 0.832031H13.983C21.783 0.832031 23.583 3.35203 23.583 5.84803C23.583 8.44003 22.503 10.912 16.143 11.752C14.679 11.944 12.183 12.28 10.815 12.496C6.61497 13.144 6.11097 14.296 6.08697 14.776H17.127L17.487 12.472H22.815L21.783 19H0.542969L0.854969 16.984C1.26297 14.392 2.00697 10.192 10.095 8.65603C11.511 8.39203 14.031 7.93603 15.063 7.76803C17.487 7.31203 17.751 6.85603 17.751 6.25603C17.751 5.63203 17.295 4.96003 13.479 4.96003C9.06297 4.96003 8.53497 6.59203 8.36697 7.45603Z" fill="#F8F8F8"/>
</svg>
