<svg width="178" height="22" viewBox="0 0 178 22" fill="none" xmlns="http://www.w3.org/2000/svg">
<path fill-rule="evenodd" clip-rule="evenodd" d="M171.827 19.2289C171.821 18.9757 171.808 18.7018 171.787 18.43C171.752 17.9649 171.696 17.506 171.611 17.168C171.421 17.3936 171.136 17.6929 170.744 18.0175C169.508 19.0399 167.199 20.312 163.355 20.312H162.875C154.379 20.312 152.027 15.68 152.027 12.056C152.027 11.48 152.051 10.976 152.147 10.328C152.651 6.84803 154.883 1.83203 164.867 1.83203H165.611C174.123 1.83203 176.317 5.16524 176.639 7.62403C176.656 7.75315 176.668 7.87986 176.675 8.00355C176.688 8.2208 176.687 8.42873 176.675 8.62403H170.915C170.843 8.19203 170.483 6.08003 165.107 6.08003C159.851 6.08003 158.171 8.40803 157.859 10.688C157.811 11.048 157.787 11.288 157.787 11.624C157.787 13.952 159.419 15.968 163.811 15.968C167.051 15.968 168.974 15.1313 169.96 14.376C170.486 13.973 170.745 13.5932 170.795 13.376H163.931L164.459 9.99203H176.675L175.091 20H171.827C171.835 19.7966 171.835 19.5271 171.827 19.2289ZM167.815 14.376H162.763L163.603 8.99203H169.963L169.929 8.78843L169.927 8.77498C169.909 8.6624 169.857 8.33475 169.398 7.98816C168.871 7.59021 167.687 7.08003 165.107 7.08003C162.617 7.08003 161.126 7.63229 160.243 8.31873C159.376 8.99252 158.979 9.88406 158.85 10.8229C158.805 11.1598 158.787 11.3509 158.787 11.624C158.787 12.5416 159.1 13.3251 159.791 13.8998C160.507 14.4943 161.753 14.968 163.811 14.968C165.566 14.968 166.873 14.709 167.815 14.376ZM177.655 8.99203H177.846L175.946 21H170.791L170.828 19.9643C170.835 19.7628 170.835 19.4987 170.827 19.2118C169.356 20.2511 166.967 21.312 163.355 21.312H162.875C158.447 21.312 155.454 20.1016 153.567 18.2585C151.684 16.4204 151.027 14.0759 151.027 12.056C151.027 11.4446 151.053 10.8905 151.158 10.1837C151.429 8.30977 152.18 5.93285 154.282 4.0331C156.388 2.12956 159.711 0.832031 164.867 0.832031H165.611C170.611 0.832031 173.695 1.95011 175.517 3.57233C177.361 5.21526 177.759 7.2393 177.674 8.68333L177.655 8.99203Z" fill="#F8F8F8"/>
<path fill-rule="evenodd" clip-rule="evenodd" d="M128.536 1.14453H135.944L143.947 11.2111L145.526 1.14453H152.929L149.78 21.0005H143.096L134.468 10.3315L132.789 21.0005H125.387L128.536 1.14453ZM133.83 7.95253L143.574 20.0005H148.926L151.758 2.14453H146.382L144.582 13.6165L135.462 2.14453H129.39L126.558 20.0005H131.934L133.83 7.95253Z" fill="#F8F8F8"/>
<path fill-rule="evenodd" clip-rule="evenodd" d="M128.04 1.14453L124.891 21.0005H117.418L120.567 1.14453H128.04ZM126.869 2.14453H121.421L118.589 20.0005H124.037L126.869 2.14453Z" fill="#F8F8F8"/>
<path fill-rule="evenodd" clip-rule="evenodd" d="M95.6765 1.14453H103.085L111.088 11.2111L112.667 1.14453H120.07L116.92 21.0005H110.237L101.608 10.3315L99.9294 21.0005H92.5273L95.6765 1.14453ZM100.97 7.95253L110.714 20.0005H116.066L118.898 2.14453H113.522L111.722 13.6165L102.602 2.14453H96.5304L93.6984 20.0005H99.0744L100.97 7.95253Z" fill="#F8F8F8"/>
<path fill-rule="evenodd" clip-rule="evenodd" d="M70.7859 1.14453H78.1943L86.197 11.2111L87.7765 1.14453H95.1789L92.0297 21.0005H85.3465L76.7177 10.3315L75.0388 21.0005H67.6367L70.7859 1.14453ZM76.0798 7.95253L85.8238 20.0005H91.1758L94.0078 2.14453H88.6318L86.8318 13.6165L77.7118 2.14453H71.6398L68.8078 20.0005H74.1838L76.0798 7.95253Z" fill="#F8F8F8"/>
<path fill-rule="evenodd" clip-rule="evenodd" d="M67.9511 10.7605C67.3511 14.5525 65.3831 20.2645 56.7431 20.2645H55.9271C46.7111 20.2645 45.1991 14.2165 45.7751 10.6165L47.1191 2.14453H52.5911L51.2951 10.3285C50.9111 12.7525 51.7271 15.6325 56.4311 15.6325C60.8951 15.6325 62.1671 12.7285 62.5271 10.4725L63.8471 2.14453H69.3191L67.9511 10.7605ZM61.5396 10.315C61.5396 10.3149 61.5396 10.315 61.5396 10.315L62.9932 1.14453H70.4904L68.9389 10.9168C68.6278 12.8829 67.9458 15.4785 66.1181 17.5891C64.2541 19.7417 61.3093 21.2645 56.7431 21.2645H55.9271C51.0886 21.2645 48.069 19.6646 46.3765 17.387C44.7163 15.1528 44.4698 12.4475 44.7875 10.4599M44.7877 10.4585L46.2653 1.14453H53.762L52.2828 10.4849C52.1126 11.5597 52.2372 12.5772 52.7639 13.3014C53.2602 13.9838 54.2824 14.6325 56.4311 14.6325C58.4234 14.6325 59.5744 13.9961 60.2799 13.224C61.016 12.4184 61.3751 11.3459 61.5396 10.315" fill="#F8F8F8"/>
<path fill-rule="evenodd" clip-rule="evenodd" d="M28.6758 21.0005L30.8358 7.36853H23.7108C23.7375 6.98114 23.7279 6.59612 23.6709 6.22007C23.6675 6.19747 23.6639 6.17491 23.6602 6.15238L24.4284 1.14453H46.7384L45.7482 7.36853H38.3807L36.2207 21.0005H28.6758ZM37.5267 6.36853H44.8947L45.5667 2.14453H25.2867L24.6387 6.36853H32.0067L29.8467 20.0005H35.3667L37.5267 6.36853Z" fill="#F8F8F8"/>
<path fill-rule="evenodd" clip-rule="evenodd" d="M0.44207 12.664H4.82859C4.34355 12.4384 3.91426 12.1783 3.53763 11.8849C2.03001 10.7102 1.51125 9.11847 1.51125 7.52003C1.51125 7.12558 1.54039 6.81297 1.5933 6.44261L1.59388 6.43854C1.8086 4.97844 2.48426 3.49501 4.28135 2.4298C5.99902 1.41166 8.65036 0.832031 12.6873 0.832031H14.2233C18.4247 0.832031 21.1614 1.56844 22.8067 2.884C23.9778 3.82032 24.5135 4.97766 24.6727 6.15633L24.6402 6.36803H24.6972C24.7452 6.85956 24.7305 7.35271 24.6719 7.83309L24.5647 8.71203H21.0169C21.3182 8.84192 21.5988 8.98551 21.8587 9.14354C22.6825 9.64436 23.3029 10.292 23.7083 11.093C24.1094 11.8856 24.2713 12.7712 24.2713 13.712C24.2713 14.1953 24.2193 14.8147 24.1318 15.2521L24.1311 15.2556C23.8373 16.6978 23.2233 18.3077 21.3658 19.498C19.5805 20.6419 16.7754 21.312 12.3273 21.312H10.7673C6.12811 21.312 3.36095 20.265 1.82153 18.6268C0.265059 16.9706 0.183569 14.9475 0.341597 13.5515L0.44207 12.664ZM17.069 7.81953L17.0682 7.81154C17.0399 7.52801 17.0158 7.36315 16.7523 7.17312C16.3893 6.91129 15.4708 6.55203 13.2633 6.55203H12.9273C10.7076 6.55203 9.73401 6.78169 9.33646 6.98046C9.26194 7.01772 9.22242 7.04672 9.20357 7.06319C9.2016 7.07976 9.19925 7.10998 9.19925 7.16003C9.19925 7.19134 9.20078 7.21198 9.20224 7.22455C9.2143 7.23491 9.23589 7.25103 9.27182 7.27176C9.52635 7.41854 10.1993 7.62457 11.7901 7.64814L11.7919 7.64817L14.6704 7.69615C14.6707 7.69615 14.6701 7.69614 14.6704 7.69615C15.5284 7.70917 16.3283 7.74921 17.069 7.81953ZM14.6553 8.69603L11.7753 8.64803C8.53525 8.60003 8.19925 7.83203 8.19925 7.16003C8.19925 6.44003 8.46325 5.55203 12.9273 5.55203H13.2633C17.7993 5.55203 17.9913 6.99203 18.0633 7.71203H23.6793C24.0393 4.76003 22.4793 1.83203 14.2233 1.83203H12.6873C4.74325 1.83203 2.94325 4.13603 2.58325 6.58403C2.53525 6.92003 2.51125 7.18403 2.51125 7.52003C2.51125 10.256 4.23925 12.584 10.4553 12.728L13.4313 12.8C16.9113 12.896 17.4393 13.424 17.4393 14.384C17.4393 15.272 17.1033 16.496 12.1113 16.496H11.8233C7.33525 16.496 6.99925 14.792 6.97525 13.664H1.33525C1.04725 16.208 1.71925 20.312 10.7673 20.312H12.3273C21.0873 20.312 22.6233 17.648 23.1513 15.056C23.2233 14.696 23.2713 14.144 23.2713 13.712C23.2713 10.4 20.9913 8.79203 14.6553 8.69603ZM13.4054 13.7997C13.4048 13.7997 13.4042 13.7997 13.4037 13.7997L10.4321 13.7278C10.4317 13.7278 10.4314 13.7277 10.4311 13.7277C9.53802 13.707 8.71987 13.6426 7.97275 13.5358L7.97502 13.6428C7.98519 14.1205 8.05905 14.4663 8.38375 14.7505C8.75827 15.0782 9.66392 15.496 11.8233 15.496H12.1113C14.5782 15.496 15.6769 15.184 16.1398 14.9114C16.3389 14.7941 16.3848 14.7047 16.3992 14.673C16.4215 14.6242 16.4393 14.5484 16.4393 14.384C16.4393 14.3026 16.4329 14.2583 16.4287 14.2378C16.4124 14.2251 16.3792 14.203 16.3182 14.1746C15.9604 14.008 15.1526 13.848 13.4054 13.7997ZM16.4253 14.2245C16.4251 14.2239 16.425 14.2235 16.425 14.2235Z" fill="#F8F8F8"/>
</svg>
