<svg width="710" height="20" viewBox="0 0 710 20" fill="none" xmlns="http://www.w3.org/2000/svg">
<path d="M696.684 19.312H695.724C686.82 19.312 684.684 14.512 684.684 11.032C684.684 10.456 684.708 9.92803 684.828 9.06403C685.236 6.04003 687.468 0.832031 697.356 0.832031H698.292C708.636 0.832031 709.764 5.68003 709.404 8.12803H703.62C703.548 7.60003 703.068 5.15203 697.524 5.15203C692.412 5.15203 690.9 7.55203 690.612 9.37603C690.54 9.83203 690.516 10.216 690.516 10.648C690.516 12.784 691.86 14.968 696.42 14.968C702.084 14.968 702.9 12.208 703.068 11.8H708.852C708.612 14.368 706.62 19.312 696.684 19.312Z" fill="#F8F8F8"/>
<path d="M626.07 1.14453H632.142L641.262 12.6165L643.062 1.14453H648.438L645.606 19.0005H640.254L630.51 6.95253L628.614 19.0005H623.238L626.07 1.14453Z" fill="#F8F8F8"/>
<path d="M572.199 19.0005L573.303 12.0885L565.695 1.14453H572.175L576.591 7.72053L583.167 1.14453H589.527L578.751 12.0885L577.647 19.0005H572.199Z" fill="#F8F8F8"/>
<path d="M517.408 19.312C508.36 19.312 507.688 15.208 507.976 12.664H513.616C513.64 13.792 513.976 15.496 518.464 15.496H518.752C523.744 15.496 524.08 14.272 524.08 13.384C524.08 12.424 523.552 11.896 520.072 11.8L517.096 11.728C510.88 11.584 509.152 9.25603 509.152 6.52003C509.152 6.18403 509.176 5.92003 509.224 5.58403C509.584 3.13603 511.384 0.832031 519.328 0.832031H520.864C529.12 0.832031 530.68 3.76003 530.32 6.71203H524.704C524.632 5.99203 524.44 4.55203 519.904 4.55203H519.568C515.104 4.55203 514.84 5.44003 514.84 6.16003C514.84 6.83203 515.176 7.60003 518.416 7.64803L521.296 7.69603C527.632 7.79203 529.912 9.40003 529.912 12.712C529.912 13.144 529.864 13.696 529.792 14.056C529.264 16.648 527.728 19.312 518.968 19.312H517.408Z" fill="#F8F8F8"/>
<path d="M411.008 1.14453H429.296L428.648 5.20053H415.736L415.328 7.84053H427.952L427.304 11.9205H414.68L414.2 14.8485H427.328L426.68 19.0005H408.176L411.008 1.14453Z" fill="#F8F8F8"/>
<path d="M346.559 19.0005L349.391 1.14453H360.167C369.407 1.14453 371.927 4.91253 371.927 8.80053C371.927 9.59253 371.855 10.3365 371.735 11.0325C371.135 14.4885 368.591 19.0245 358.799 19.0005H346.559ZM354.143 5.36853L352.655 14.7045H358.343C364.439 14.7045 365.687 12.2565 366.047 10.4085C366.119 10.0485 366.167 9.64053 366.167 9.32853C366.167 7.50453 365.183 5.36853 359.831 5.36853H354.143Z" fill="#F8F8F8"/>
<path d="M296.176 19.312C286.456 19.312 284.488 14.584 284.488 11.392C284.488 10.84 284.488 10.24 284.608 9.37603C285.04 6.44803 286.528 0.832031 297.52 0.832031H298.552C308.2 0.832031 310.264 5.41603 310.264 8.63203C310.264 9.25603 310.24 9.90403 310.144 10.576C309.688 13.648 308.224 19.312 297.208 19.312H296.176ZM304.504 9.20803C304.504 7.24003 303.16 5.15203 297.856 5.15203C291.928 5.15203 290.512 7.79203 290.344 9.83203C290.32 10.144 290.32 10.384 290.32 10.648C290.32 12.592 291.496 14.968 296.896 14.968C302.728 14.968 304.144 12.328 304.432 10.168C304.48 9.80803 304.504 9.54403 304.504 9.20803Z" fill="#F8F8F8"/>
<path d="M235.176 19.312H234.216C225.312 19.312 223.176 14.512 223.176 11.032C223.176 10.456 223.2 9.92803 223.32 9.06403C223.728 6.04003 225.96 0.832031 235.848 0.832031H236.784C247.128 0.832031 248.256 5.68003 247.896 8.12803H242.112C242.04 7.60003 241.56 5.15203 236.016 5.15203C230.904 5.15203 229.392 7.55203 229.104 9.37603C229.032 9.83203 229.008 10.216 229.008 10.648C229.008 12.784 230.352 14.968 234.912 14.968C240.576 14.968 241.392 12.208 241.56 11.8H247.344C247.104 14.368 245.112 19.312 235.176 19.312Z" fill="#F8F8F8"/>
<path d="M168.922 1.14453H187.21L186.562 5.20053H173.65L173.242 7.84053H185.866L185.218 11.9205H172.594L172.114 14.8485H185.242L184.594 19.0005H166.09L168.922 1.14453Z" fill="#F8F8F8"/>
<path d="M100.512 19.0005L103.344 1.14453H110.928L115.248 12.2565L122.832 1.14453H130.392L127.56 19.0005H122.208L124.176 6.64053L115.608 19.0005H112.704L107.736 6.64053L105.768 19.0005H100.512Z" fill="#F8F8F8"/>
<path d="M64.823 1.14453L61.991 19.0005H56.543L59.375 1.14453H64.823Z" fill="#F8F8F8"/>
<path d="M5.88769 19.0005L8.04769 5.36853H0.679688L1.32769 1.14453H21.6077L20.9357 5.36853H13.5677L11.4077 19.0005H5.88769Z" fill="#F8F8F8"/>
</svg>
