<svg width="1030" height="828" viewBox="0 0 1030 828" fill="none" xmlns="http://www.w3.org/2000/svg">
<path d="M857.297 136C858.297 136 858.797 134.333 858.797 131L858.297 130.5L857.297 131.5C856.63 131.833 856.297 132.5 856.297 133.5C856.297 133.833 856.297 134.333 856.297 135C856.63 135.667 856.964 136 857.297 136ZM930.297 165.5L927.297 159C925.297 155 923.63 153 922.297 153C921.63 153 920.797 153.167 919.797 153.5C918.797 153.833 917.964 154 917.297 154H916.797C916.797 155 918.63 157.167 922.297 160.5C925.964 163.833 928.63 165.5 930.297 165.5ZM951.297 194L951.797 193.5L947.297 187H946.797C946.797 187.667 947.297 189 948.297 191C949.63 193 950.464 194 950.797 194H951.297ZM977.797 199C981.464 199 984.797 198.833 987.797 198.5C990.797 197.833 992.797 197.333 993.797 197L994.797 196.5C994.797 195.833 990.63 195.5 982.297 195.5C973.964 195.5 968.297 195 965.297 194L962.797 193.5C962.797 197.167 967.797 199 977.797 199ZM987.797 219C986.464 218.333 984.964 217.833 983.297 217.5C981.964 216.833 980.464 216.333 978.797 216C977.13 215.333 974.464 215 970.797 215C974.464 217 977.13 218.167 978.797 218.5C980.797 218.833 983.797 219 987.797 219ZM853.797 231.5L855.297 230.5C855.964 229.833 856.63 228.833 857.297 227.5C858.297 226.167 858.797 225.167 858.797 224.5C858.797 223.833 858.464 223.5 857.797 223.5C857.464 223.5 856.63 224 855.297 225C854.297 226 853.797 228 853.797 231V231.5ZM810.797 363.5C810.464 363.5 809.797 363 808.797 362C806.13 360.667 803.464 358.667 800.797 356C799.797 355.333 799.13 355 798.797 355C798.13 355 794.964 353.167 789.297 349.5C783.297 346.167 779.797 343.167 778.797 340.5C778.797 329.5 781.63 313.167 787.297 291.5C792.964 269.833 800.63 245.667 810.297 219C825.964 174.333 838.797 146.667 848.797 136C853.13 131 856.464 128.5 858.797 128.5C860.13 128.5 860.797 129.5 860.797 131.5C860.797 134.833 861.464 137.5 862.797 139.5C864.464 142.833 866.63 144.5 869.297 144.5C869.964 144.5 870.63 144.333 871.297 144C871.964 143.333 872.797 143 873.797 143C874.797 143 878.63 145.667 885.297 151L882.797 160.5C881.13 165.5 879.797 168 878.797 168C877.797 168 876.297 170.167 874.297 174.5C870.297 183.5 866.464 194.167 862.797 206.5L861.297 215H861.797C864.13 215 870.964 207 882.297 191C902.297 163 915.63 149 922.297 149C924.964 150 927.297 152.5 929.297 156.5C930.964 159.167 934.797 162.667 940.797 167C945.464 169.667 949.964 174 954.297 180C956.297 183.667 958.297 186.167 960.297 187.5C964.964 190.5 971.464 192 979.797 192C991.13 192 1000.3 191 1007.3 189C1007.3 189.333 1006.13 190.333 1003.8 192C1001.46 193.333 1000.3 194.333 1000.3 195C1000.3 196.333 1001.96 197 1005.3 197C1008.96 197 1011.96 198.167 1014.3 200.5C1015.63 202.833 1017.46 204 1019.8 204C1020.13 203.667 1020.63 203.5 1021.3 203.5C1021.96 203.5 1022.8 203.833 1023.8 204.5C1025.13 205.167 1026.3 206.333 1027.3 208C1028.63 209.333 1029.46 210.5 1029.8 211.5C1029.8 212.5 1028.8 213.5 1026.8 214.5C1021.8 217.5 1015.96 219.333 1009.3 220C1003.96 220 1001.3 220.5 1001.3 221.5C1001.3 222.5 998.797 223 993.797 223C987.797 223 982.797 222.833 978.797 222.5C975.13 221.833 972.464 221.167 970.797 220.5C969.13 219.5 966.297 217.5 962.297 214.5C958.297 211.167 954.13 207.5 949.797 203.5C945.464 199.167 941.797 196 938.797 194C936.13 192 934.297 191 933.297 191C930.297 191 916.797 209.167 892.797 245.5C873.464 274.833 853.297 306.667 832.297 341C828.964 346.667 824.964 351.833 820.297 356.5C815.63 361.167 812.464 363.5 810.797 363.5Z" fill="black"/>
<path d="M686.57 251C687.57 251 689.07 250.5 691.07 249.5C694.07 247.5 704.737 237.667 723.07 220C733.07 210 740.57 200.833 745.57 192.5C748.237 187.833 749.57 185 749.57 184L749.07 183.5H748.07C747.404 183.5 747.07 183 747.07 182C747.07 179.667 747.57 178.167 748.57 177.5C750.57 175.5 752.237 171.833 753.57 166.5L755.07 162C754.737 162 754.404 162.333 754.07 163C753.737 163.667 751.904 166.5 748.57 171.5C746.904 173.5 745.404 175.667 744.07 178C739.07 185.667 735.904 189.5 734.57 189.5C733.57 188.833 733.07 188 733.07 187C733.07 185 733.737 184 735.07 184C736.737 184 737.57 182.833 737.57 180.5C737.57 178.5 737.404 177.5 737.07 177.5C736.737 177.5 735.737 178.667 734.07 181C731.07 184.667 728.57 186.5 726.57 186.5C724.904 186.5 718.904 193.667 708.57 208C698.57 222.333 693.57 230.5 693.57 232.5C693.57 234.5 693.07 235.5 692.07 235.5C691.404 235.5 690.57 236.333 689.57 238C686.904 241.333 685.57 244.5 685.57 247.5C685.57 248.5 684.737 249 683.07 249V249.5C683.07 249.833 683.404 250.167 684.07 250.5C685.07 250.833 685.904 251 686.57 251ZM664.07 368C668.07 368 671.904 366.833 675.57 364.5L677.57 363.5L677.07 363L675.07 363.5C672.07 364.5 668.57 365 664.57 365C660.57 365 658.57 365.167 658.57 365.5C658.57 365.833 658.904 366.333 659.57 367C660.57 367.667 662.07 368 664.07 368ZM667.57 389C670.57 389 672.07 388.667 672.07 388L670.57 387.5C669.904 387.167 668.904 387 667.57 387C666.237 387 665.237 387.167 664.57 387.5L663.07 388C663.07 388.667 664.57 389 667.57 389ZM785.57 295V294.5C785.904 294.5 786.07 294.167 786.07 293.5V293V292.5L785.07 294L785.57 295ZM674.07 396.5C671.404 396.5 668.57 396 665.57 395C662.57 394.333 657.404 391.5 650.07 386.5C643.07 381.5 636.237 376 629.57 370C622.904 364.333 618.237 359.833 615.57 356.5C609.904 347.5 607.07 336.333 607.07 323C607.07 314.333 609.404 300.833 614.07 282.5C618.404 263.833 629.404 240.667 647.07 213C665.07 185.333 686.737 162 712.07 143C723.07 134.667 731.737 130.5 738.07 130.5C740.404 130.5 742.237 131.167 743.57 132.5C745.237 133.5 746.404 134.667 747.07 136C748.07 137 748.57 138 748.57 139C748.57 140 748.404 140.5 748.07 140.5C747.737 140.5 747.237 139.833 746.57 138.5C745.237 135.167 742.57 133.5 738.57 133.5C736.57 133.5 734.737 134 733.07 135C731.404 136 730.57 136.667 730.57 137C730.57 137.333 731.737 137.5 734.07 137.5C736.737 137.5 739.737 139 743.07 142C746.737 144.667 750.07 146 753.07 146C756.404 146 758.57 146.667 759.57 148C760.57 149 761.404 149.5 762.07 149.5C763.07 149.5 763.57 148.833 763.57 147.5L763.07 142.5C763.404 142.5 763.904 143 764.57 144C766.237 146 767.07 148.667 767.07 152C767.07 155 768.07 157.167 770.07 158.5C772.07 160.833 773.07 164.833 773.07 170.5C773.07 176.167 772.07 182 770.07 188C768.404 191.667 767.57 194.167 767.57 195.5H768.07C769.404 195.5 771.07 192.167 773.07 185.5C775.07 176.833 776.07 170.5 776.07 166.5C776.07 159.5 776.57 156 777.57 156C777.904 156 778.57 156.5 779.57 157.5C784.57 162.5 787.07 168.333 787.07 175C787.07 183.667 782.404 196 773.07 212C764.07 227.667 748.237 244.167 725.57 261.5C706.57 275.167 691.237 282 679.57 282C676.237 282 673.737 282.167 672.07 282.5C670.737 282.5 669.737 283 669.07 284C666.07 288.333 663.404 295 661.07 304L658.57 313C655.237 327 653.57 338.667 653.57 348C653.57 354.667 654.237 358.333 655.57 359C657.237 360 659.57 360.5 662.57 360.5C673.237 360.5 688.237 354.167 707.57 341.5C715.904 336.167 723.57 330 730.57 323C754.237 302 767.07 290 769.07 287C772.737 283 775.737 281 778.07 281C781.07 281 784.737 283 789.07 287C793.737 291 796.07 295 796.07 299C795.404 304.333 789.737 312.667 779.07 324C734.737 372.333 699.737 396.5 674.07 396.5Z" fill="black"/>
<path d="M497.258 200.5C497.924 200.5 498.258 199.333 498.258 197C498.258 196 497.924 195.333 497.258 195C495.924 195 495.258 195.333 495.258 196C495.258 196.667 495.258 197.167 495.258 197.5C495.258 197.833 495.424 198.5 495.758 199.5C496.091 200.167 496.591 200.5 497.258 200.5ZM536.258 339C537.258 339 538.258 338.667 539.258 338C540.258 337.333 540.758 336.667 540.758 336C540.758 335.333 540.424 335 539.758 335C538.758 335 537.924 335.167 537.258 335.5C536.591 335.833 535.758 336 534.758 336H533.258V337C533.258 337.333 533.424 337.833 533.758 338.5C534.091 338.833 534.591 339 535.258 339H536.258ZM679.258 129.5C680.258 129.5 681.258 128.5 682.258 126.5C683.591 124.167 684.258 122.667 684.258 122L683.758 121.5C683.091 121.5 682.091 122.667 680.758 125C679.758 127.333 679.258 128.833 679.258 129.5ZM685.258 119.5C685.591 119.5 686.258 119 687.258 118C688.258 116.667 688.758 115.667 688.758 115L688.258 114C687.924 114 687.091 115 685.758 117L685.258 119.5ZM375.258 360.5C375.591 360.5 376.091 360.167 376.758 359.5C377.424 358.833 377.758 358 377.758 357C377.758 356.667 377.424 356.5 376.758 356.5C375.424 356.5 374.591 357.333 374.258 359L375.258 360.5ZM375.258 366.5C373.924 366.5 372.758 365.667 371.758 364C370.424 362.333 365.924 360 358.258 357C350.258 352.333 346.258 349 346.258 347C346.258 341.333 350.758 327.5 359.758 305.5C368.758 283.5 379.758 259.167 392.758 232.5C419.424 179.167 442.591 141.167 462.258 118.5C468.591 111.167 473.091 107.5 475.758 107.5C477.091 107.5 477.924 108 478.258 109L479.258 110C479.258 110.333 479.091 110.5 478.758 110.5C478.758 110.5 478.591 110.5 478.258 110.5L476.258 110C474.258 110 472.758 110.833 471.758 112.5C470.758 113.833 470.258 114.667 470.258 115C470.258 115.333 471.091 115.5 472.758 115.5C474.758 115.5 477.091 116.833 479.758 119.5C482.424 121.833 484.591 123 486.258 123C487.258 123 488.091 122.667 488.758 122C489.424 121.333 490.091 121 490.758 121C492.091 121 494.091 122.333 496.758 125C499.758 127.333 501.258 128.833 501.258 129.5C501.258 130.167 500.424 130.833 498.758 131.5C495.424 133.167 489.758 139.833 481.758 151.5C474.091 162.833 465.758 176.5 456.758 192.5C451.091 203.833 447.424 211 445.758 214C444.091 216.667 441.424 221.5 437.758 228.5C427.424 247.833 419.924 262.667 415.258 273C412.924 278 411.758 280.833 411.758 281.5V282C412.091 282 416.258 277.667 424.258 269C432.591 260 442.591 249 454.258 236C466.258 223 476.424 212.333 484.758 204C493.424 195.333 498.258 191 499.258 191C500.924 191 501.758 193.333 501.758 198C502.424 204.333 504.424 207.5 507.758 207.5C508.758 207.5 509.758 207.333 510.758 207C511.758 206.333 512.758 206 513.758 206C514.424 206 515.091 206.167 515.758 206.5C516.424 206.5 520.091 209.5 526.758 215.5V246C526.758 260.333 527.258 273.167 528.258 284.5C529.591 295.833 531.091 302.667 532.758 305C534.424 304.333 549.424 282.833 577.758 240.5C611.424 190.833 634.424 156.5 646.758 137.5L648.758 135C664.758 111 672.758 98.6667 672.758 98C672.758 97.3333 672.924 96.8333 673.258 96.5C673.591 95.8333 673.924 95.5 674.258 95.5L675.258 96C676.258 96 677.258 95.6667 678.258 95C679.591 94 680.758 92.8333 681.758 91.5C683.091 89.8333 683.924 89 684.258 89C684.258 89.3333 683.924 90.1667 683.258 91.5C682.924 92.8333 682.758 94 682.758 95C682.758 96 683.091 97.5 683.758 99.5C684.424 101.167 685.424 102.667 686.758 104C688.424 105 689.758 105.5 690.758 105.5C691.424 105.5 692.091 105.333 692.758 105C693.424 104.333 694.258 104 695.258 104C696.258 104.333 697.591 105.333 699.258 107C701.258 108.667 702.258 110.333 702.258 112C702.258 113.667 701.758 115.667 700.758 118C696.424 128 680.258 154.167 652.258 196.5L623.758 239.5L582.758 302C570.424 320.333 562.091 331.167 557.758 334.5C554.758 336.5 551.591 338.333 548.258 340C544.924 341.333 542.591 342.333 541.258 343C540.258 343.333 539.258 343.5 538.258 343.5C536.924 343.5 533.424 341 527.758 336L519.758 330C513.758 325.667 509.091 320.333 505.758 314C502.424 307.333 499.424 299.333 496.758 290C494.424 280.667 492.091 267.333 489.758 250C485.424 254.667 481.091 259.333 476.758 264C472.424 268.333 466.424 274.833 458.758 283.5C451.091 291.833 443.424 300.5 435.758 309.5C421.424 325.167 408.258 338.5 396.258 349.5C384.591 360.833 377.591 366.5 375.258 366.5Z" fill="black"/>
<path d="M317.488 265C317.488 264.333 316.655 262.667 314.988 260C309.655 251.333 306.655 247 305.988 247V247.5C305.988 248.833 306.655 251 307.988 254C309.655 256.667 311.488 259.167 313.488 261.5C315.488 263.833 316.822 265 317.488 265ZM322.988 255.5C323.988 255.5 326.322 252 329.988 245C345.988 214.333 354.655 188.5 355.988 167.5L356.488 156.5C356.488 153.5 356.322 152 355.988 152C351.655 152 345.988 156 338.988 164C331.988 172 326.155 181 321.488 191C316.822 201 314.488 212.167 314.488 224.5C314.488 232.833 315.655 240.167 317.988 246.5C320.655 252.5 322.322 255.5 322.988 255.5ZM362.488 133L360.988 129.5C357.322 123.167 351.822 120 344.488 120H341.488C337.155 120.667 334.988 121.333 334.988 122C334.988 122.667 337.322 123.167 341.988 123.5C346.988 123.833 349.488 124.5 349.488 125.5V126.5C349.488 127.167 350.155 127.833 351.488 128.5C352.822 129.167 354.155 129.833 355.488 130.5C356.822 130.833 358.155 131.333 359.488 132C360.822 132.667 361.655 133 361.988 133H362.488ZM360.988 230.5C362.322 230.5 364.988 224.833 368.988 213.5C371.655 204.5 372.988 199.333 372.988 198V197C372.655 197 371.988 198 370.988 200C368.655 205.333 366.322 212.667 363.988 222L360.988 230.5ZM375.988 164.5C376.322 164.5 376.655 164 376.988 163C376.988 161.667 376.322 159.167 374.988 155.5C372.988 150.167 371.488 147.5 370.488 147.5C369.488 147.5 368.988 148 368.988 149C370.655 152.333 372.155 155.833 373.488 159.5C374.822 162.833 375.655 164.5 375.988 164.5ZM373.988 190.5C374.655 190.5 374.988 189.167 374.988 186.5C374.988 183.5 374.655 182 373.988 182C373.655 182 373.488 183.5 373.488 186.5C373.488 189.167 373.655 190.5 373.988 190.5ZM354.988 244.5C355.322 244.5 356.155 243.167 357.488 240.5C359.488 238.5 360.488 236.333 360.488 234V233.5C360.155 233.5 359.322 234.5 357.988 236.5C356.988 238.5 356.155 240.167 355.488 241.5C355.155 242.5 354.988 243.333 354.988 244V244.5ZM241.488 328C244.155 328 249.822 325.833 258.488 321.5C277.155 311.833 292.655 299.333 304.988 284L313.988 272.5L301.488 259.5C295.822 253.167 290.322 245.667 284.988 237C279.988 228.333 277.488 222.167 277.488 218.5C277.488 217.833 277.322 217.5 276.988 217.5C276.655 217.833 275.822 218.667 274.488 220C273.488 221 272.988 222.5 272.988 224.5L273.488 226C273.488 226.667 272.988 227 271.988 227C270.988 227 270.488 227.333 270.488 228L270.988 229.5C270.988 230.833 270.322 232.167 268.988 233.5C267.655 234.833 266.988 236 266.988 237V238C266.988 238.667 266.488 239 265.488 239C264.488 239 263.988 239.333 263.988 240L263.488 245C262.155 249.333 260.655 251.5 258.988 251.5H257.488C257.488 251.833 257.655 252.167 257.988 252.5C258.322 252.5 258.488 252.667 258.488 253C258.488 255 257.655 257.333 255.988 260L253.488 266H253.988L252.988 268.5C249.655 273.833 247.988 277.667 247.988 280C247.988 282 247.322 283.667 245.988 285L243.988 291.5C241.988 297.5 240.655 302.833 239.988 307.5C238.988 314.5 238.488 319.333 238.488 322C238.488 326 239.488 328 241.488 328ZM251.488 356L251.988 355.5C251.988 354.833 250.488 354.5 247.488 354.5C244.488 354.5 242.988 354.833 242.988 355.5C242.988 355.833 245.822 356 251.488 356ZM242.488 334C243.822 334 244.988 333.833 245.988 333.5C246.988 333.167 247.655 332.833 247.988 332.5C248.655 331.833 248.988 331.333 248.988 331C248.988 330.667 248.655 330.5 247.988 330.5C246.988 330.5 244.988 331.167 241.988 332.5C240.322 333.167 239.488 333.667 239.488 334H242.488ZM245.988 362C243.988 362 242.488 361.833 241.488 361.5C240.822 361.167 239.988 360.667 238.988 360C215.988 346.667 202.155 336.167 197.488 328.5C194.155 322.833 192.488 314.167 192.488 302.5C192.488 280.5 199.155 256.333 212.488 230C241.155 174.333 271.988 136.667 304.988 117C308.655 115 311.322 114 312.988 114C314.988 114 316.322 114.5 316.988 115.5C317.988 116.167 318.655 116.833 318.988 117.5C319.322 117.833 319.655 119.667 319.988 123C319.655 123 319.322 122.333 318.988 121C318.655 118.333 317.155 117 314.488 117C313.155 117 311.322 117.5 308.988 118.5C307.988 118.833 307.488 119.167 307.488 119.5C307.488 120.5 309.488 121.5 313.488 122.5C315.822 123.167 317.655 123.5 318.988 123.5C321.322 123.5 323.488 122.833 325.488 121.5C330.155 117.833 335.155 116 340.488 116C342.488 116 345.655 116.5 349.988 117.5C354.322 118.167 358.822 122.167 363.488 129.5C366.822 134.5 370.322 138.5 373.988 141.5C381.655 149.5 386.488 159.167 388.488 170.5C388.822 172.167 388.988 174.167 388.988 176.5C388.988 185.167 386.822 197 382.488 212C378.155 227 369.988 246.667 357.988 271C355.988 274.333 354.988 276.667 354.988 278C354.988 279 355.488 279.5 356.488 279.5C357.822 279.5 359.322 280 360.988 281C367.322 284.667 370.488 287.833 370.488 290.5C370.488 291.167 370.155 291.833 369.488 292.5C368.822 293.167 367.655 293.5 365.988 293.5C364.988 293.5 361.155 292.667 354.488 291C351.155 290 348.822 289.5 347.488 289.5C345.488 289.5 344.488 289.833 344.488 290.5C344.488 290.833 344.988 291.167 345.988 291.5C346.988 291.833 347.822 292.167 348.488 292.5C351.488 293.5 354.488 294 357.488 294L357.988 295C356.988 296 354.322 296.5 349.988 296.5L347.488 296C344.155 296 340.155 299.167 335.488 305.5C317.822 326.833 297.322 343.333 273.988 355C263.988 359.667 254.655 362 245.988 362Z" fill="black"/>
<path d="M23 375C23.6667 374.333 24 373.667 24 373C24 371.333 23.6667 370.5 23 370.5C22.3333 370.5 22 371.167 22 372.5C22 374.167 22.1667 375 22.5 375H23ZM271 43L270.5 41C264.833 28 249.5 18.1667 224.5 11.5C205.5 6.50001 184.167 4.00002 160.5 4.00002H148.5C128.833 5.33335 119 6.16668 119 6.50001C119 6.83334 123.833 7.00001 133.5 7.00001H145.5C171.5 7.00001 192.667 8.83333 209 12.5C225.667 16.1667 241.167 23 255.5 33C265.5 39.6667 270.667 43 271 43ZM270.5 101.5C271.167 101.5 272.5 99.5 274.5 95.5C275.167 94.5 275.667 93.1667 276 91.5C276.667 89.8334 277 88.6667 277 88L276.5 87.5C275.833 87.5 274.667 89.6667 273 94C271.333 98 270.5 100.333 270.5 101V101.5ZM280.5 80L281.5 71.5C281.5 67.8333 280.667 64.5 279 61.5C277.667 58.1667 276.833 56.5 276.5 56.5C276.167 56.5 276 57 276 58C276 60 276.5 63.8333 277.5 69.5L278 71.5L280.5 80ZM31 398L26 395.5C23 394.167 21.5 391.5 21.5 387.5V376.5C19.5 384.833 18.5 389.833 18.5 391.5V395.5L19 397.5C19 397.833 18.6667 398 18 398L8.5 393C2.83333 390.667 0 386 0 379C0 369 5.16667 347.833 15.5 315.5C17.8333 307.167 19.6667 301.333 21 298L21.5 296.5C21.5 295.833 21.1667 295.5 20.5 295.5H18C14.6667 295.5 10.5 293 5.5 288C2.83333 286 1.5 284.5 1.5 283.5C1.5 281.5 3.16667 280.167 6.5 279.5C9.5 278.5 11 277.667 11 277C11 276.333 11.6667 275.5 13 274.5C14.3333 273.5 21.1667 269.333 33.5 262L42 238.5C57.6667 195.167 73.6667 156.333 90 122C106.333 87.6667 119.5 64.8334 129.5 53.5C133.167 49.5 135.5 47.5 136.5 47.5C136.833 47.5 137 47.8333 137 48.5L136 54.5C136 56.1667 137.667 58.5 141 61.5L146 64C147.667 64 148.833 63.6667 149.5 63C150.167 62.3333 150.833 62 151.5 62C152.5 62 153.667 62.6667 155 64C156.667 65.3334 157.833 66.5 158.5 67.5C159.5 68.5 160 69.1667 160 69.5C160 71.1667 155.667 80.6667 147 98C125.667 142.333 115 165.167 115 166.5C115 167.5 113.5 171 110.5 177C101.5 196.667 95.5 210.5 92.5 218.5L91.5 223C91.8333 223 97.8333 219.5 109.5 212.5C211.5 142.167 262.5 90.6667 262.5 58C262.5 53.3333 261.667 50.1667 260 48.5C258.333 46.8333 255.667 45 252 43C246 40 241.167 38.5 237.5 38.5C233.833 38.5 231.5 38 230.5 37C229.167 34.6667 210.667 33 175 32H163.5C139.833 32 122.333 33.8333 111 37.5L104.5 40C107.167 41 109.5 42.1667 111.5 43.5C113.833 44.8334 115.667 46 117 47C118.333 48 119 48.8333 119 49.5C119 49.8333 119.333 50 120 50C120.667 50 121.167 50 121.5 50L125 49.5C125 51.1667 123.833 52 121.5 52C117.167 52 111.333 51 104 49C89 46 78.6667 40.1667 73 31.5C71.3333 29.5 70.5 28 70.5 27C70.5 24.6667 73 21.6667 78 18C83.3333 14 89.1667 10.8333 95.5 8.50002C110.833 3.16667 131.667 0.5 158 0.5C189.667 0.5 217.333 5.16667 241 14.5C253.333 19.8333 261.667 25.5 266 31.5C283 54.8333 291.5 71.3333 291.5 81L291 85C285.667 127.667 216.167 190.5 82.5 273.5C77.5 276.5 73.8333 279 71.5 281C69.1667 282.667 67.3333 284.5 66 286.5C61.6667 293.833 55.6667 310.667 48 337C43.3333 352 37.6667 372.333 31 398Z" fill="black"/>
<path d="M620.102 804.5C623.435 804.5 630.268 803.167 640.602 800.5C682.602 787.833 712.602 764.333 730.602 730C732.268 726.333 733.768 722 735.102 717C736.435 710.667 737.102 705.667 737.102 702C737.102 700 736.768 699 736.102 699C733.768 699 724.268 704 707.602 714C682.602 729.333 662.102 745.167 646.102 761.5C633.435 774.5 624.935 786 620.602 796L617.602 803.5C617.602 804.167 618.435 804.5 620.102 804.5ZM622.602 811C623.935 810.667 626.435 810.167 630.102 809.5C633.435 808.833 637.102 807.833 641.102 806.5C645.102 805.167 648.268 803.833 650.602 802.5C652.935 801.5 654.435 800.833 655.102 800.5L655.602 799.5H655.102C638.768 804.167 628.102 806.5 623.102 806.5C619.768 806.5 617.935 807.5 617.602 809.5C617.602 810.167 617.935 810.667 618.602 811H622.602ZM796.602 521.5C797.935 521.167 798.602 520.833 798.602 520.5C798.602 519.5 795.102 519 788.102 519C784.102 519 782.102 519.167 782.102 519.5C782.102 519.833 782.768 520.167 784.102 520.5C785.768 520.833 787.768 521.167 790.102 521.5C792.768 521.5 794.935 521.5 796.602 521.5ZM744.102 751.5C744.768 751.5 745.602 750.333 746.602 748C747.935 746 748.768 744.667 749.102 744H748.602C748.268 744 747.768 744.333 747.102 745C746.435 745.667 745.768 746.667 745.102 748C744.435 749.667 744.102 750.667 744.102 751V751.5ZM757.102 706.5V705.5C757.102 704.167 756.435 701.667 755.102 698C754.102 694.333 753.102 692.5 752.102 692.5C751.768 692.5 751.602 693 751.602 694C751.602 695.333 752.268 697.833 753.602 701.5C755.268 704.833 756.268 706.5 756.602 706.5H757.102ZM604.102 799C604.435 799 604.935 798.5 605.602 797.5C606.602 795.167 607.102 793 607.102 791V790.5L605.102 793C604.102 794.333 603.602 796 603.602 798C603.602 798.667 603.768 799 604.102 799ZM636.602 828C631.268 828 626.268 827.5 621.602 826.5C616.935 825.833 613.602 825.5 611.602 825.5H611.102C610.435 825.5 608.935 824.667 606.602 823C604.268 821.333 596.268 813.833 582.602 800.5L583.602 791C586.935 771.667 602.768 749.333 631.102 724C651.435 706 673.768 691.5 698.102 680.5L719.102 670.5L702.102 650L695.602 642.5C689.602 635.833 685.602 630 683.602 625C681.602 620 680.602 614.333 680.602 608C680.602 597.667 685.268 586 694.602 573C704.268 559.667 716.602 548 731.602 538C756.602 521.333 775.768 513 789.102 513C792.435 513 795.102 513.667 797.102 515C800.435 517.333 802.102 519.833 802.102 522.5C802.102 524.833 804.268 527.833 808.602 531.5C812.935 534.833 816.268 538.333 818.602 542C821.268 545.667 822.602 548.833 822.602 551.5C822.602 555.833 816.102 563.167 803.102 573.5C799.768 576.5 797.768 578 797.102 578C796.768 578 796.602 577.833 796.602 577.5L797.102 575C797.102 574.333 796.768 574 796.102 574L792.602 575C792.268 575 792.102 574.833 792.102 574.5C792.102 573.5 794.435 570 799.102 564C803.768 557.667 806.102 554.333 806.102 554V553.5C805.102 553.5 802.935 555.833 799.602 560.5C796.602 565.167 792.435 569.333 787.102 573C784.768 575.333 783.268 576.5 782.602 576.5C781.935 576.5 781.602 575.5 781.602 573.5C781.602 571.167 780.768 570 779.102 570C775.102 570 766.768 576 754.102 588C731.435 610 720.102 627 720.102 639C720.102 641.333 722.935 645.333 728.602 651L738.102 662L754.602 657.5C763.268 654.167 769.935 652.5 774.602 652.5H775.102C775.102 652.833 774.102 653.333 772.102 654C752.435 660.333 742.602 664 742.602 665H743.102C744.768 665 747.102 664.667 750.102 664C757.102 661.667 762.935 660.5 767.602 660.5C772.602 660.5 775.935 661.667 777.602 664C779.602 666 781.768 667 784.102 667H785.102C787.768 667 792.102 669.667 798.102 675L788.602 678.5C785.602 678.833 782.268 679.667 778.602 681C775.268 682 772.102 683.167 769.102 684.5C766.102 685.5 762.935 686.667 759.602 688L764.102 697.5C767.102 703.167 768.602 710 768.602 718V726.5C768.602 731.5 766.935 737.5 763.602 744.5C757.602 756.5 748.435 768.667 736.102 781C724.102 793.667 711.602 803.5 698.602 810.5C675.935 822.167 655.268 828 636.602 828Z" fill="black"/>
<path d="M583.809 791.5C584.475 791.167 585.142 790.833 585.809 790.5C586.809 790.5 587.309 790.333 587.309 790C587.642 789.667 587.809 789.333 587.809 789C587.809 788.333 587.475 787.833 586.809 787.5C585.809 787.5 584.475 787.833 582.809 788.5C581.475 789.5 580.642 790.167 580.309 790.5C580.309 790.833 580.309 791.167 580.309 791.5H583.809ZM531.309 570C543.975 570 555.809 568.167 566.809 564.5C569.809 563.5 571.309 562.5 571.309 561.5L570.809 561C570.475 561 569.642 561.333 568.309 562C567.309 562.333 564.642 562.833 560.309 563.5C555.975 563.833 551.142 564.333 545.809 565C540.475 565.667 536.142 566.5 532.809 567.5C529.809 568.5 528.309 569.167 528.309 569.5C528.642 569.833 529.642 570 531.309 570ZM415.809 699.5C418.142 699.5 424.309 696.333 434.309 690C462.642 672.333 483.142 646.167 495.809 611.5L500.309 598.5C497.975 597.167 495.309 595.833 492.309 594.5C489.309 592.833 484.975 589.667 479.309 585C476.309 581.667 474.142 580 472.809 580H472.309C458.309 601 451.309 612.833 451.309 615.5L450.809 616.5C450.475 617.167 449.975 617.5 449.309 617.5C448.975 617.5 447.475 620 444.809 625C442.475 629.667 441.309 632.667 441.309 634C441.309 635.333 440.642 636 439.309 636C438.309 636 437.809 636.5 437.809 637.5C437.809 638.5 437.642 639.833 437.309 641.5C435.975 645.833 434.642 648 433.309 648C432.309 648 431.809 648.5 431.809 649.5V650.5C431.809 652.167 430.809 655.333 428.809 660C427.142 664.333 425.809 666.5 424.809 666.5H423.809V670.5C422.809 673.833 421.642 676.667 420.309 679C419.642 680.333 419.309 681.333 419.309 682C419.309 682.333 418.975 684.167 418.309 687.5C416.309 693.5 415.309 697.5 415.309 699.5H415.809ZM417.809 730.5L418.309 730C418.309 729.333 417.142 729 414.809 729C412.142 729 410.809 729.333 410.809 730C410.809 730.333 413.142 730.5 417.809 730.5ZM481.809 538.5C483.475 538.5 484.309 537.833 484.309 536.5C484.309 533.167 482.475 531.5 478.809 531.5L466.809 535L473.309 536.5C477.309 537.833 480.142 538.5 481.809 538.5ZM585.809 796.5H582.309C579.975 796.167 575.142 792.833 567.809 786.5C560.475 780.5 555.309 776.667 552.309 775C550.642 773.667 548.975 771.667 547.309 769C537.975 755.667 533.309 737.167 533.309 713.5C533.309 687.833 538.975 656.167 550.309 618.5C554.642 603.833 556.809 595.833 556.809 594.5V594C550.142 594 544.642 594.5 540.309 595.5C538.642 595.833 537.475 596.667 536.809 598C536.475 599 536.142 600.667 535.809 603C528.142 642.667 510.142 676.333 481.809 704C469.142 714.667 456.475 723.333 443.809 730C433.142 735.667 424.475 738.5 417.809 738.5C416.475 738.5 414.975 738.167 413.309 737.5C411.642 737.167 407.809 734.667 401.809 730C395.809 725.333 389.809 720.5 383.809 715.5C378.142 710.5 374.475 706.667 372.809 704C371.475 701.333 370.809 696.833 370.809 690.5C370.809 681.833 372.142 672.333 374.809 662C382.809 634.333 397.475 606.5 418.809 578.5C440.142 550.5 458.975 534 475.309 529L479.309 528.5C480.309 528.5 481.142 528.667 481.809 529C482.475 529.333 483.309 531 484.309 534C485.642 537 488.309 539 492.309 540C496.309 541 500.475 543.667 504.809 548C510.809 555.667 517.309 560.167 524.309 561.5C527.309 562.167 530.975 562.5 535.309 562.5C542.309 562.5 554.642 561 572.309 558L581.309 538C595.309 508 611.642 479.333 630.309 452C649.309 424.333 665.475 405.833 678.809 396.5C683.475 393.5 686.809 392 688.809 392C689.142 392 689.975 392.167 691.309 392.5C692.642 392.5 693.309 394.833 693.309 399.5C693.975 402.833 695.142 404.5 696.809 404.5C698.475 404.5 699.642 405.5 700.309 407.5C700.975 409.167 701.975 410 703.309 410H703.809C705.142 410 706.975 411.667 709.309 415C711.975 418 713.309 420.5 713.309 422.5C713.309 423.5 710.975 427.167 706.309 433.5C693.975 450.167 678.142 476.833 658.809 513.5C625.475 576.5 601.809 632.667 587.809 682C581.809 703 578.809 725.167 578.809 748.5C578.809 756.833 579.475 761 580.809 761C581.475 761 582.475 760.5 583.809 759.5C602.809 745.833 620.475 730.833 636.809 714.5C641.475 710.167 646.309 705 651.309 699C665.975 681.667 676.309 673 682.309 673C684.642 673 687.475 674.333 690.809 677C694.142 679.667 696.475 683.667 697.809 689V690C697.809 698 691.642 708.667 679.309 722C666.975 735.333 653.142 748.333 637.809 761C622.475 774 611.475 783 604.809 788C596.475 793.667 590.142 796.5 585.809 796.5Z" fill="black"/>
<path d="M294.539 656C294.539 655.333 293.706 653.667 292.039 651C286.706 642.333 283.706 638 283.039 638V638.5C283.039 639.833 283.706 642 285.039 645C286.706 647.667 288.539 650.167 290.539 652.5C292.539 654.833 293.872 656 294.539 656ZM300.039 646.5C301.039 646.5 303.372 643 307.039 636C323.039 605.333 331.706 579.5 333.039 558.5L333.539 547.5C333.539 544.5 333.372 543 333.039 543C328.706 543 323.039 547 316.039 555C309.039 563 303.206 572 298.539 582C293.872 592 291.539 603.167 291.539 615.5C291.539 623.833 292.706 631.167 295.039 637.5C297.706 643.5 299.372 646.5 300.039 646.5ZM339.539 524L338.039 520.5C334.372 514.167 328.872 511 321.539 511H318.539C314.206 511.667 312.039 512.333 312.039 513C312.039 513.667 314.372 514.167 319.039 514.5C324.039 514.833 326.539 515.5 326.539 516.5V517.5C326.539 518.167 327.206 518.833 328.539 519.5C329.872 520.167 331.206 520.833 332.539 521.5C333.872 521.833 335.206 522.333 336.539 523C337.872 523.667 338.706 524 339.039 524H339.539ZM338.039 621.5C339.372 621.5 342.039 615.833 346.039 604.5C348.706 595.5 350.039 590.333 350.039 589V588C349.706 588 349.039 589 348.039 591C345.706 596.333 343.372 603.667 341.039 613L338.039 621.5ZM353.039 555.5C353.372 555.5 353.706 555 354.039 554C354.039 552.667 353.372 550.167 352.039 546.5C350.039 541.167 348.539 538.5 347.539 538.5C346.539 538.5 346.039 539 346.039 540C347.706 543.333 349.206 546.833 350.539 550.5C351.872 553.833 352.706 555.5 353.039 555.5ZM351.039 581.5C351.706 581.5 352.039 580.167 352.039 577.5C352.039 574.5 351.706 573 351.039 573C350.706 573 350.539 574.5 350.539 577.5C350.539 580.167 350.706 581.5 351.039 581.5ZM332.039 635.5C332.372 635.5 333.206 634.167 334.539 631.5C336.539 629.5 337.539 627.333 337.539 625V624.5C337.206 624.5 336.372 625.5 335.039 627.5C334.039 629.5 333.206 631.167 332.539 632.5C332.206 633.5 332.039 634.333 332.039 635V635.5ZM218.539 719C221.206 719 226.872 716.833 235.539 712.5C254.206 702.833 269.706 690.333 282.039 675L291.039 663.5L278.539 650.5C272.872 644.167 267.372 636.667 262.039 628C257.039 619.333 254.539 613.167 254.539 609.5C254.539 608.833 254.372 608.5 254.039 608.5C253.706 608.833 252.872 609.667 251.539 611C250.539 612 250.039 613.5 250.039 615.5L250.539 617C250.539 617.667 250.039 618 249.039 618C248.039 618 247.539 618.333 247.539 619L248.039 620.5C248.039 621.833 247.372 623.167 246.039 624.5C244.706 625.833 244.039 627 244.039 628V629C244.039 629.667 243.539 630 242.539 630C241.539 630 241.039 630.333 241.039 631L240.539 636C239.206 640.333 237.706 642.5 236.039 642.5H234.539C234.539 642.833 234.706 643.167 235.039 643.5C235.372 643.5 235.539 643.667 235.539 644C235.539 646 234.706 648.333 233.039 651L230.539 657H231.039L230.039 659.5C226.706 664.833 225.039 668.667 225.039 671C225.039 673 224.372 674.667 223.039 676L221.039 682.5C219.039 688.5 217.706 693.833 217.039 698.5C216.039 705.5 215.539 710.333 215.539 713C215.539 717 216.539 719 218.539 719ZM228.539 747L229.039 746.5C229.039 745.833 227.539 745.5 224.539 745.5C221.539 745.5 220.039 745.833 220.039 746.5C220.039 746.833 222.872 747 228.539 747ZM219.539 725C220.872 725 222.039 724.833 223.039 724.5C224.039 724.167 224.706 723.833 225.039 723.5C225.706 722.833 226.039 722.333 226.039 722C226.039 721.667 225.706 721.5 225.039 721.5C224.039 721.5 222.039 722.167 219.039 723.5C217.372 724.167 216.539 724.667 216.539 725H219.539ZM223.039 753C221.039 753 219.539 752.833 218.539 752.5C217.872 752.167 217.039 751.667 216.039 751C193.039 737.667 179.206 727.167 174.539 719.5C171.206 713.833 169.539 705.167 169.539 693.5C169.539 671.5 176.206 647.333 189.539 621C218.206 565.333 249.039 527.667 282.039 508C285.706 506 288.372 505 290.039 505C292.039 505 293.372 505.5 294.039 506.5C295.039 507.167 295.706 507.833 296.039 508.5C296.372 508.833 296.706 510.667 297.039 514C296.706 514 296.372 513.333 296.039 512C295.706 509.333 294.206 508 291.539 508C290.206 508 288.372 508.5 286.039 509.5C285.039 509.833 284.539 510.167 284.539 510.5C284.539 511.5 286.539 512.5 290.539 513.5C292.872 514.167 294.706 514.5 296.039 514.5C298.372 514.5 300.539 513.833 302.539 512.5C307.206 508.833 312.206 507 317.539 507C319.539 507 322.706 507.5 327.039 508.5C331.372 509.167 335.872 513.167 340.539 520.5C343.872 525.5 347.372 529.5 351.039 532.5C358.706 540.5 363.539 550.167 365.539 561.5C365.872 563.167 366.039 565.167 366.039 567.5C366.039 576.167 363.872 588 359.539 603C355.206 618 347.039 637.667 335.039 662C333.039 665.333 332.039 667.667 332.039 669C332.039 670 332.539 670.5 333.539 670.5C334.872 670.5 336.372 671 338.039 672C344.372 675.667 347.539 678.833 347.539 681.5C347.539 682.167 347.206 682.833 346.539 683.5C345.872 684.167 344.706 684.5 343.039 684.5C342.039 684.5 338.206 683.667 331.539 682C328.206 681 325.872 680.5 324.539 680.5C322.539 680.5 321.539 680.833 321.539 681.5C321.539 681.833 322.039 682.167 323.039 682.5C324.039 682.833 324.872 683.167 325.539 683.5C328.539 684.5 331.539 685 334.539 685L335.039 686C334.039 687 331.372 687.5 327.039 687.5L324.539 687C321.206 687 317.206 690.167 312.539 696.5C294.872 717.833 274.372 734.333 251.039 746C241.039 750.667 231.706 753 223.039 753Z" fill="black"/>
<path d="M267.5 400L270 399.5C269.333 398.833 268 398.5 266 398.5L265.5 399.5C265.5 399.833 266.167 400 267.5 400ZM80.5 785H79.5C79.1667 785 78.5 784.5 77.5 783.5C76.8333 782.5 73.5 781 67.5 779C56.8333 776.667 51.3333 772.5 51 766.5C51 747.167 59.3333 710 76 655C93 599.667 113.333 542.167 137 482.5C141 472.167 144.333 463.667 147 457C149.667 450.333 151 446.667 151 446H150C148.667 446 144.667 446.667 138 448C124.333 450.667 107.167 455.333 86.5 462C74.1667 465.667 67.1667 467.5 65.5 467.5C63.1667 467.5 61.3333 467 60 466C59 465 58.5 464.167 58.5 463.5C58.5 463.167 59.3333 462.667 61 462C62.6667 461 63.5 460.167 63.5 459.5V459C63.5 458.333 62.8333 458 61.5 458H58.5C54.5 458 49.8333 455 44.5 449C41.8333 446.667 40.3333 444.667 40 443C40 440.333 43.5 436.833 50.5 432.5C57.5 428.167 66.1667 424.167 76.5 420.5C87.1667 416.5 102.333 412.5 122 408.5C157 401.5 194.667 397.333 235 396C249.333 395.667 272.833 395.5 305.5 395.5C328.167 396.167 343.667 398.667 352 403C355 405 356.5 406.833 356.5 408.5L356 410C355.667 410 355.167 409.5 354.5 408.5C354.5 402.833 338 399.833 305 399.5L271.5 398.5L319.5 401.5C327.167 402.833 334.167 404.5 340.5 406.5C350.167 411.167 355 414.5 355 416.5L354 417L355.5 417.5C356.5 417.833 357.833 418.5 359.5 419.5C361.167 420.167 363 421.667 365 424C367.333 426.333 369 428.5 370 430.5C371 432.167 371.5 433.5 371.5 434.5C371.5 435.167 371.333 435.667 371 436C361.667 436 355.167 434.167 351.5 430.5C350.5 429.833 349 429.333 347 429C345 428.333 342 427.833 338 427.5C313.667 427.5 293.667 427.833 278 428.5C240.333 430.833 219.5 433 215.5 435L214 437V439.5C214 441.833 213.5 443 212.5 443C211.833 443 211.5 443.167 211.5 443.5C211.5 443.5 211.5 443.667 211.5 444V445.5C211.5 446.167 211.167 446.5 210.5 446.5C209.833 446.5 209.5 446.667 209.5 447C209.5 447.333 209.5 447.667 209.5 448V449.5C209.833 450.5 209.667 451 209 451C208.333 451 208 451.167 208 451.5C208 451.5 208 451.667 208 452L208.5 453.5L206 459.5C204.333 461.833 203 464.833 202 468.5C201 471.833 199.833 473.5 198.5 473.5H198V475C198 476.667 197.5 478.5 196.5 480.5C195.5 482.167 194.167 485.167 192.5 489.5C190.833 493.5 189.5 495.5 188.5 495.5C187.833 495.5 187.5 495.833 187.5 496.5L188 498.5C188 499.167 187.833 500.167 187.5 501.5C187.167 502.833 186.5 504.167 185.5 505.5C184.833 506.833 184.167 507.5 183.5 507.5C183.167 507.5 183 507.667 183 508C183 508.333 183 508.667 183 509L183.5 511C183.5 511.333 183 511.5 182 511.5C181.333 511.5 180.167 513.333 178.5 517C177.167 520.667 176.5 522.833 176.5 523.5C176.5 524.167 176 526.167 175 529.5C174.333 532.833 173.333 534.5 172 534.5H171.5L172 537.5C171.667 537.833 171.167 538 170.5 538C170.167 538 169.833 538.167 169.5 538.5L170 541.5C170 541.833 169.667 542 169 542C168.333 542 168 542.167 168 542.5C168 542.5 168 542.667 168 543L168.5 545.5C168.5 545.833 168 546 167 546C166.333 546 166 546.5 166 547.5L167 549.5C167 550.167 166.5 550.5 165.5 550.5H165L165.5 553.5C165.167 553.833 164.667 554 164 554C163.333 554 163 554.833 163 556.5L163.5 557.5C163.5 557.833 163 558 162 558C161.333 558 161 558.5 161 559.5L162 562C161.667 562.333 161.167 562.5 160.5 562.5C160.167 562.5 160 562.667 160 563C160 563 160 563.167 160 563.5L160.5 565L160 565.5C159.333 566.167 158.5 566.833 157.5 567.5C156.5 567.833 156 568.5 156 569.5L157 573.5C156.667 574.5 156.167 575 155.5 575H155L155.5 577.5C155.5 578.167 155.167 578.5 154.5 578.5C153.833 578.5 153.5 578.667 153.5 579C153.5 579.333 153.5 579.667 153.5 580L154 582C154 582.333 153.667 582.5 153 582.5C152.333 582.5 151.5 583.5 150.5 585.5C149.833 587.167 149.5 589 149.5 591V593.5C149.167 593.833 148.667 594.333 148 595C147.333 595.333 146.5 596.667 145.5 599C142.167 606 140.167 611.333 139.5 615L139 619L139.5 620.5C139.167 621.167 138.667 621.5 138 621.5C137.333 621.5 137 621.833 137 622.5L137.5 624.5C137.5 624.833 137.333 625 137 625C133.333 628 125.667 648.667 114 687C102 724 94.8333 750.667 92.5 767C91.8333 770.667 89.8333 775 86.5 780C83.8333 783.333 81.8333 785 80.5 785Z" fill="black"/>
</svg>
