<svg width="631" height="17" viewBox="0 0 631 17" fill="none" xmlns="http://www.w3.org/2000/svg">
<path d="M624.602 13.2563H623.514C619.018 13.2563 617.738 11.1283 617.738 9.24034C617.738 9.01634 617.754 8.71234 617.786 8.45634C618.042 6.42434 619.258 4.15234 624.122 4.15234H625.21C629.802 4.15234 630.97 6.10434 630.97 8.05634C630.97 8.32834 630.954 8.56834 630.922 8.85634C630.65 10.8243 629.738 13.2563 624.602 13.2563ZM624.122 10.9203C626.682 10.9203 627.418 9.67234 627.418 8.34434C627.418 7.38434 626.746 6.44034 624.586 6.44034H624.57C621.93 6.44034 621.306 7.72034 621.306 8.95234C621.306 9.89634 621.978 10.9203 624.122 10.9203Z" fill="#636366"/>
<path d="M615.974 13.0009H613.062C611.526 13.0009 611.03 11.9929 611.286 10.4409L611.878 6.76086H610.246L610.63 4.39286H612.246L612.646 1.88086H616.07L615.67 4.39286H617.35L616.966 6.76086H615.302L614.806 9.89686C614.742 10.3449 614.806 10.6329 615.382 10.6329H616.358L615.974 13.0009Z" fill="#636366"/>
<path d="M602.954 13.2563H601.866C597.37 13.2563 596.09 11.1283 596.09 9.24034C596.09 9.01634 596.106 8.71234 596.138 8.45634C596.394 6.42434 597.61 4.15234 602.474 4.15234H603.562C608.154 4.15234 609.322 6.10434 609.322 8.05634C609.322 8.32834 609.306 8.56834 609.274 8.85634C609.002 10.8243 608.09 13.2563 602.954 13.2563ZM602.474 10.9203C605.034 10.9203 605.77 9.67234 605.77 8.34434C605.77 7.38434 605.098 6.44034 602.938 6.44034H602.922C600.282 6.44034 599.658 7.72034 599.658 8.95234C599.658 9.89634 600.33 10.9203 602.474 10.9203Z" fill="#636366"/>
<path d="M582.336 13.0017L584.224 1.09766H587.712L586.96 5.81766C587.232 5.54566 588.56 4.20166 590.944 4.20166H591.056C594.08 4.20166 595.088 6.13766 594.8 7.96166L594 13.0017H590.496L591.168 8.74566C591.36 7.49766 590.864 6.60166 589.264 6.60166C587.68 6.60166 586.688 7.54566 586.48 8.85766L585.824 13.0017H582.336Z" fill="#636366"/>
<path d="M570.413 13.0017H566.781L568.669 1.09766H577.069C580.973 1.09766 582.237 2.56966 582.237 4.64966C582.237 6.56966 581.309 9.03366 576.493 9.03366H571.053L570.413 13.0017ZM571.453 6.36166H576.477C577.821 6.36166 578.365 5.75366 578.365 4.90566C578.365 4.18566 577.885 3.80166 576.861 3.80166H571.869L571.453 6.36166Z" fill="#636366"/>
<path d="M561.493 1.09766L559.605 13.0017H556.117L558.005 1.09766H561.493Z" fill="#636366"/>
<path d="M548.015 11.2243C549.807 11.2243 551.039 10.3443 551.263 9.17634L551.311 8.90434L547.903 9.43234C546.847 9.59234 546.559 9.84834 546.559 10.3443C546.559 10.7763 546.879 11.2243 548.015 11.2243ZM547.119 13.1603H546.927C544.191 13.1603 543.215 11.9923 543.215 10.6323C543.215 9.84834 543.439 8.93634 544.335 8.37634C544.959 7.97634 545.823 7.76834 547.183 7.65634L551.055 7.32034C551.471 7.28834 551.631 7.11234 551.631 6.84034C551.631 6.50434 551.503 6.13634 549.519 6.13634H549.471C547.343 6.13634 547.215 6.80834 547.135 7.09634H543.935C544.079 6.02434 544.463 4.15234 549.231 4.15234H549.983C554.799 4.15234 555.151 5.83234 554.927 7.24034L554.447 10.2323C554.415 10.4563 554.479 10.6643 554.863 10.6643H555.295L554.911 13.0003H552.111C551.471 13.0003 550.975 12.5843 550.943 11.8163C550.559 12.2643 549.407 13.1603 547.119 13.1603Z" fill="#636366"/>
<path d="M534.392 13.0006L531.352 4.39258H534.984L536.856 10.2166L540.2 4.39258H543.784L538.584 13.0006H534.392Z" fill="#636366"/>
<path d="M523.868 8.45717L523.148 13.0012H519.66L521.02 4.39317H524.476L524.236 5.91317C524.524 5.44917 525.628 4.20117 527.628 4.20117H527.756C530.22 4.20117 531.068 6.02517 530.684 8.32917L530.652 8.53717H527.308C527.484 7.38517 527.132 6.47317 525.884 6.47317H525.868C524.732 6.47317 524.044 7.33717 523.868 8.45717Z" fill="#636366"/>
<path d="M512.89 6.15234C511.114 6.15234 510.298 6.69634 509.93 7.60834H515.578C515.466 6.68034 514.682 6.15234 512.906 6.15234H512.89ZM518.73 9.96034C518.538 11.1283 517.818 13.2403 512.73 13.2403H511.866C507.642 13.2403 506.25 11.4323 506.25 9.22434C506.25 8.95234 506.266 8.60034 506.314 8.29634C506.65 6.15234 508.106 4.15234 512.57 4.15234H513.514C517.866 4.15234 518.938 6.16834 518.938 8.08834C518.938 8.64834 518.874 9.11234 518.826 9.38434H509.626C509.69 10.3923 510.474 11.0643 512.378 11.0643H512.394C514.65 11.0643 515.13 10.2323 515.258 9.96034H518.73Z" fill="#636366"/>
<path d="M504.486 13.0009H501.574C500.038 13.0009 499.542 11.9929 499.798 10.4409L500.39 6.76086H498.758L499.142 4.39286H500.758L501.158 1.88086H504.582L504.182 4.39286H505.862L505.478 6.76086H503.814L503.318 9.89686C503.254 10.3449 503.318 10.6329 503.894 10.6329H504.87L504.486 13.0009Z" fill="#636366"/>
<path d="M485.156 13.0012L486.516 4.39317H489.972L489.732 5.86517C490.02 5.56117 491.38 4.20117 493.764 4.20117H493.876C496.916 4.20117 497.908 6.16917 497.62 7.96117L496.82 13.0012H493.316L493.988 8.74517C494.18 7.49717 493.684 6.60117 492.084 6.60117C490.5 6.60117 489.508 7.54517 489.3 8.85717L488.644 13.0012H485.156Z" fill="#636366"/>
<path d="M485.047 1.09766L483.159 13.0017H479.527L481.415 1.09766H485.047Z" fill="#636366"/>
<path d="M467.262 13.0002L473.614 1.57617H475.054L468.718 13.0002H467.262Z" fill="#636366"/>
<path d="M461.082 13.0002L467.434 1.57617H468.874L462.538 13.0002H461.082Z" fill="#636366"/>
<path d="M449.863 6.15234C448.087 6.15234 447.271 6.69634 446.903 7.60834H452.551C452.439 6.68034 451.655 6.15234 449.879 6.15234H449.863ZM455.703 9.96034C455.511 11.1283 454.791 13.2403 449.703 13.2403H448.839C444.615 13.2403 443.223 11.4323 443.223 9.22434C443.223 8.95234 443.239 8.60034 443.287 8.29634C443.623 6.15234 445.079 4.15234 449.543 4.15234H450.487C454.839 4.15234 455.911 6.16834 455.911 8.08834C455.911 8.64834 455.847 9.11234 455.799 9.38434H446.599C446.663 10.3923 447.447 11.0643 449.351 11.0643H449.367C451.623 11.0643 452.103 10.2323 452.231 9.96034H455.703Z" fill="#636366"/>
<path d="M435.489 8.45717L434.769 13.0012H431.281L432.641 4.39317H436.097L435.857 5.91317C436.145 5.44917 437.249 4.20117 439.249 4.20117H439.377C441.841 4.20117 442.689 6.02517 442.305 8.32917L442.273 8.53717H438.929C439.105 7.38517 438.753 6.47317 437.505 6.47317H437.489C436.353 6.47317 435.665 7.33717 435.489 8.45717Z" fill="#636366"/>
<path d="M430.805 4.39258L429.445 13.0006H425.989L426.229 11.5286C425.925 11.8326 424.581 13.1926 422.261 13.1926H422.165C419.205 13.1926 418.213 11.2566 418.517 9.33658L419.301 4.39258H422.789L422.117 8.64858C421.925 9.88058 422.437 10.7926 423.941 10.7926C425.445 10.7926 426.453 9.84858 426.661 8.53658L427.317 4.39258H430.805Z" fill="#636366"/>
<path d="M416.423 13.0009H413.511C411.975 13.0009 411.479 11.9929 411.735 10.4409L412.327 6.76086H410.695L411.079 4.39286H412.695L413.095 1.88086H416.519L416.119 4.39286H417.799L417.415 6.76086H415.751L415.255 9.89686C415.191 10.3449 415.255 10.6329 415.831 10.6329H416.807L416.423 13.0009Z" fill="#636366"/>
<path d="M403.393 6.40955C401.361 6.40955 400.401 7.46555 400.193 8.28155C400.145 8.47355 400.113 8.66555 400.113 8.92155C400.113 9.89755 401.073 10.9375 403.073 10.9375H403.169C405.553 10.9375 406.193 9.57755 406.193 8.40955C406.193 7.28955 405.505 6.40955 403.473 6.40955H403.393ZM397.297 4.39355H400.785L400.609 5.52955C400.945 5.20955 402.257 4.18555 404.769 4.18555H404.977C408.449 4.18555 409.745 6.05755 409.745 8.10555C409.745 8.34555 409.745 8.61755 409.697 9.04955C409.441 11.3855 407.633 13.2095 403.825 13.2095H403.633C401.185 13.2095 400.001 12.1695 399.617 11.7535L398.945 16.0095H395.457L397.297 4.39355Z" fill="#636366"/>
<path d="M387.835 11.2243C389.627 11.2243 390.859 10.3443 391.083 9.17634L391.131 8.90434L387.723 9.43234C386.667 9.59234 386.379 9.84834 386.379 10.3443C386.379 10.7763 386.699 11.2243 387.835 11.2243ZM386.939 13.1603H386.747C384.011 13.1603 383.035 11.9923 383.035 10.6323C383.035 9.84834 383.259 8.93634 384.155 8.37634C384.779 7.97634 385.643 7.76834 387.003 7.65634L390.875 7.32034C391.291 7.28834 391.451 7.11234 391.451 6.84034C391.451 6.50434 391.323 6.13634 389.339 6.13634H389.291C387.163 6.13634 387.035 6.80834 386.955 7.09634H383.755C383.899 6.02434 384.283 4.15234 389.051 4.15234H389.803C394.619 4.15234 394.971 5.83234 394.747 7.24034L394.267 10.2323C394.235 10.4563 394.299 10.6643 394.683 10.6643H395.115L394.731 13.0003H391.931C391.291 13.0003 390.795 12.5843 390.763 11.8163C390.379 12.2643 389.227 13.1603 386.939 13.1603Z" fill="#636366"/>
<path d="M374.223 13.2087H373.583C367.647 13.2087 366.223 10.0087 366.223 7.68867C366.223 7.30467 366.239 6.95267 366.319 6.37667C366.591 4.36067 368.079 0.888672 374.671 0.888672H375.295C382.191 0.888672 382.943 4.12067 382.703 5.75267H378.847C378.799 5.40067 378.479 3.76867 374.783 3.76867C371.375 3.76867 370.367 5.36867 370.175 6.58467C370.127 6.88867 370.111 7.14467 370.111 7.43267C370.111 8.85667 371.007 10.3127 374.047 10.3127C377.823 10.3127 378.367 8.47267 378.479 8.20067H382.335C382.175 9.91267 380.847 13.2087 374.223 13.2087Z" fill="#636366"/>
<path d="M347.016 13.0012L348.376 4.39317H351.832L351.592 5.86517C351.88 5.56117 353.24 4.20117 355.624 4.20117H355.736C358.776 4.20117 359.768 6.16917 359.48 7.96117L358.68 13.0012H355.176L355.848 8.74517C356.04 7.49717 355.544 6.60117 353.944 6.60117C352.36 6.60117 351.368 7.54517 351.16 8.85717L350.504 13.0012H347.016Z" fill="#636366"/>
<path d="M339.923 13.2563H338.835C334.339 13.2563 333.059 11.1283 333.059 9.24034C333.059 9.01634 333.075 8.71234 333.107 8.45634C333.363 6.42434 334.579 4.15234 339.443 4.15234H340.531C345.123 4.15234 346.291 6.10434 346.291 8.05634C346.291 8.32834 346.275 8.56834 346.243 8.85634C345.971 10.8243 345.059 13.2563 339.923 13.2563ZM339.443 10.9203C342.003 10.9203 342.739 9.67234 342.739 8.34434C342.739 7.38434 342.067 6.44034 339.907 6.44034H339.891C337.251 6.44034 336.627 7.72034 336.627 8.95234C336.627 9.89634 337.299 10.9203 339.443 10.9203Z" fill="#636366"/>
<path d="M332.853 1.09766L332.453 3.56166H328.965L329.365 1.09766H332.853ZM332.325 4.39366L330.965 13.0017H327.477L328.837 4.39366H332.325Z" fill="#636366"/>
<path d="M325.943 13.0009H323.031C321.495 13.0009 320.999 11.9929 321.255 10.4409L321.847 6.76086H320.215L320.599 4.39286H322.215L322.615 1.88086H326.039L325.639 4.39286H327.319L326.935 6.76086H325.271L324.775 9.89686C324.711 10.3449 324.775 10.6329 325.351 10.6329H326.327L325.943 13.0009Z" fill="#636366"/>
<path d="M312.007 11.2243C313.799 11.2243 315.031 10.3443 315.255 9.17634L315.303 8.90434L311.895 9.43234C310.839 9.59234 310.551 9.84834 310.551 10.3443C310.551 10.7763 310.871 11.2243 312.007 11.2243ZM311.111 13.1603H310.919C308.183 13.1603 307.207 11.9923 307.207 10.6323C307.207 9.84834 307.431 8.93634 308.327 8.37634C308.951 7.97634 309.815 7.76834 311.175 7.65634L315.047 7.32034C315.463 7.28834 315.623 7.11234 315.623 6.84034C315.623 6.50434 315.495 6.13634 313.511 6.13634H313.463C311.335 6.13634 311.207 6.80834 311.127 7.09634H307.927C308.071 6.02434 308.455 4.15234 313.223 4.15234H313.975C318.791 4.15234 319.143 5.83234 318.919 7.24034L318.439 10.2323C318.407 10.4563 318.471 10.6643 318.855 10.6643H319.287L318.903 13.0003H316.103C315.463 13.0003 314.967 12.5843 314.935 11.8163C314.551 12.2643 313.399 13.1603 311.111 13.1603Z" fill="#636366"/>
<path d="M299.856 8.45717L299.136 13.0012H295.648L297.008 4.39317H300.464L300.224 5.91317C300.512 5.44917 301.616 4.20117 303.616 4.20117H303.744C306.208 4.20117 307.056 6.02517 306.672 8.32917L306.64 8.53717H303.296C303.472 7.38517 303.12 6.47317 301.872 6.47317H301.856C300.72 6.47317 300.032 7.33717 299.856 8.45717Z" fill="#636366"/>
<path d="M295.172 4.39258L293.812 13.0006H290.356L290.596 11.5286C290.292 11.8326 288.948 13.1926 286.628 13.1926H286.532C283.572 13.1926 282.58 11.2566 282.884 9.33658L283.668 4.39258H287.156L286.484 8.64858C286.292 9.88058 286.804 10.7926 288.308 10.7926C289.812 10.7926 290.82 9.84858 291.028 8.53658L291.684 4.39258H295.172Z" fill="#636366"/>
<path d="M264.926 13.0017L266.814 1.09766H273.998C280.158 1.09766 281.838 3.60966 281.838 6.20166C281.838 6.72966 281.79 7.22566 281.71 7.68966C281.31 9.99366 279.614 13.0177 273.086 13.0017H264.926ZM269.982 3.91366L268.99 10.1377H272.782C276.846 10.1377 277.678 8.50566 277.918 7.27366C277.966 7.03366 277.998 6.76166 277.998 6.55366C277.998 5.33766 277.342 3.91366 273.774 3.91366H269.982Z" fill="#636366"/>
<path d="M255.402 6.79247H258.586V7.92847H255.402V11.2245H254.25V7.92847H251.066V6.79247H254.25V3.48047H255.402V6.79247Z" fill="#636366"/>
<path d="M240.046 9.00166C240.094 8.82566 240.11 8.64966 240.11 8.48966C240.11 7.40166 239.15 6.44166 237.198 6.44166H237.118C234.734 6.44166 234.014 7.72166 234.014 8.90566C234.014 9.96166 234.718 10.9377 236.542 10.9377H236.622C238.702 10.9377 239.822 9.86566 240.046 9.00166ZM241.31 1.09766H244.798L242.91 13.0017H239.454L239.662 11.6737C239.406 12.0097 238.174 13.2097 235.566 13.2097H235.358C232.046 13.2097 230.43 11.5617 230.43 9.25766C230.43 8.92166 230.446 8.64966 230.494 8.26566C230.798 6.10566 232.302 4.18566 236.078 4.18566H236.318C239.102 4.18566 240.302 5.30566 240.606 5.59366L241.31 1.09766Z" fill="#636366"/>
<path d="M223.37 6.15234C221.594 6.15234 220.778 6.69634 220.41 7.60834H226.058C225.946 6.68034 225.162 6.15234 223.386 6.15234H223.37ZM229.21 9.96034C229.018 11.1283 228.298 13.2403 223.21 13.2403H222.346C218.122 13.2403 216.73 11.4323 216.73 9.22434C216.73 8.95234 216.746 8.60034 216.794 8.29634C217.13 6.15234 218.586 4.15234 223.05 4.15234H223.994C228.346 4.15234 229.418 6.16834 229.418 8.08834C229.418 8.64834 229.354 9.11234 229.306 9.38434H220.106C220.17 10.3923 220.954 11.0643 222.858 11.0643H222.874C225.13 11.0643 225.61 10.2323 225.738 9.96034H229.21Z" fill="#636366"/>
<path d="M216.528 1.09766L214.64 13.0017H211.152L213.04 1.09766H216.528Z" fill="#636366"/>
<path d="M210.676 4.39258L209.316 13.0006H205.86L206.1 11.5286C205.796 11.8326 204.452 13.1926 202.132 13.1926H202.036C199.076 13.1926 198.084 11.2566 198.388 9.33658L199.172 4.39258H202.66L201.988 8.64858C201.796 9.88058 202.308 10.7926 203.812 10.7926C205.316 10.7926 206.324 9.84858 206.532 8.53658L207.188 4.39258H210.676Z" fill="#636366"/>
<path d="M193.112 9.00166C193.16 8.82566 193.176 8.64966 193.176 8.48966C193.176 7.40166 192.216 6.44166 190.264 6.44166H190.184C187.8 6.44166 187.08 7.72166 187.08 8.90566C187.08 9.96166 187.784 10.9377 189.608 10.9377H189.688C191.768 10.9377 192.888 9.86566 193.112 9.00166ZM194.376 1.09766H197.864L195.976 13.0017H192.52L192.728 11.6737C192.472 12.0097 191.24 13.2097 188.632 13.2097H188.424C185.112 13.2097 183.496 11.5617 183.496 9.25766C183.496 8.92166 183.512 8.64966 183.56 8.26566C183.864 6.10566 185.368 4.18566 189.144 4.18566H189.384C192.168 4.18566 193.368 5.30566 193.672 5.59366L194.376 1.09766Z" fill="#636366"/>
<path d="M176.437 6.15234C174.661 6.15234 173.845 6.69634 173.477 7.60834H179.125C179.013 6.68034 178.229 6.15234 176.453 6.15234H176.437ZM182.277 9.96034C182.085 11.1283 181.365 13.2403 176.277 13.2403H175.413C171.189 13.2403 169.797 11.4323 169.797 9.22434C169.797 8.95234 169.813 8.60034 169.861 8.29634C170.197 6.15234 171.653 4.15234 176.117 4.15234H177.061C181.413 4.15234 182.485 6.16834 182.485 8.08834C182.485 8.64834 182.421 9.11234 182.373 9.38434H173.173C173.237 10.3923 174.021 11.0643 175.925 11.0643H175.941C178.197 11.0643 178.677 10.2323 178.805 9.96034H182.277Z" fill="#636366"/>
<path d="M156.043 13.0017L157.931 1.09766H161.419L160.667 5.81766C160.939 5.54566 162.267 4.20166 164.651 4.20166H164.763C167.787 4.20166 168.795 6.13766 168.507 7.96166L167.707 13.0017H164.203L164.875 8.74566C165.067 7.49766 164.571 6.60166 162.971 6.60166C161.387 6.60166 160.395 7.54566 160.187 8.85766L159.531 13.0017H156.043Z" fill="#636366"/>
<path d="M149.017 13.2403H148.153C143.945 13.2403 142.633 11.3203 142.633 9.24034C142.633 8.93634 142.649 8.66434 142.697 8.28034C142.937 6.44034 144.281 4.15234 148.905 4.15234H149.801C155.033 4.15234 155.577 6.60034 155.433 7.96034H151.865C151.833 7.62434 151.657 6.40834 149.241 6.40834H149.193C146.809 6.40834 146.201 7.86434 146.201 8.96834C146.201 10.0403 146.841 10.9523 148.649 10.9523H148.713C151.001 10.9523 151.497 9.75234 151.641 9.36834H155.209C155.017 10.6163 154.393 13.2403 149.017 13.2403Z" fill="#636366"/>
<path d="M133.204 13.2087C127.172 13.2087 126.724 10.4727 126.916 8.77667H130.676C130.692 9.52867 130.916 10.6647 133.908 10.6647H134.1C137.428 10.6647 137.652 9.84867 137.652 9.25667C137.652 8.61667 137.3 8.26467 134.98 8.20067L132.996 8.15267C128.852 8.05667 127.7 6.50467 127.7 4.68067C127.7 4.45667 127.716 4.28067 127.748 4.05667C127.988 2.42467 129.188 0.888672 134.484 0.888672H135.508C141.012 0.888672 142.052 2.84067 141.812 4.80867H138.068C138.02 4.32867 137.892 3.36867 134.868 3.36867H134.644C131.668 3.36867 131.492 3.96067 131.492 4.44067C131.492 4.88867 131.716 5.40067 133.876 5.43267L135.796 5.46467C140.02 5.52867 141.54 6.60067 141.54 8.80867C141.54 9.09667 141.508 9.46467 141.46 9.70467C141.108 11.4327 140.084 13.2087 134.244 13.2087H133.204Z" fill="#636366"/>
<path d="M114.59 13.0002L120.942 1.57617H122.382L116.046 13.0002H114.59Z" fill="#636366"/>
<path d="M108.406 13.0002L114.758 1.57617H116.198L109.862 13.0002H108.406Z" fill="#636366"/>
<path d="M102.423 13.0009H99.5113C97.9753 13.0009 97.4793 11.9929 97.7353 10.4409L98.3273 6.76086H96.6953L97.0793 4.39286H98.6953L99.0953 1.88086H102.519L102.119 4.39286H103.799L103.415 6.76086H101.751L101.255 9.89686C101.191 10.3449 101.255 10.6329 101.831 10.6329H102.807L102.423 13.0009Z" fill="#636366"/>
<path d="M83.0938 13.0017L84.9818 1.09766H88.4697L87.7178 5.81766C87.9898 5.54566 89.3178 4.20166 91.7018 4.20166H91.8138C94.8378 4.20166 95.8458 6.13766 95.5578 7.96166L94.7578 13.0017H91.2538L91.9258 8.74566C92.1178 7.49766 91.6218 6.60166 90.0218 6.60166C88.4378 6.60166 87.4457 7.54566 87.2377 8.85766L86.5817 13.0017H83.0938Z" fill="#636366"/>
<path d="M75.0682 10.4255C77.2762 10.4255 78.3162 9.48155 78.4762 8.52155C78.4922 8.42555 78.5082 8.29755 78.5082 8.18555C78.5082 7.22555 77.5962 6.42555 75.5802 6.42555H75.4682C72.8122 6.42555 72.3322 7.64155 72.3322 8.61755C72.3322 9.59355 73.0042 10.4255 74.9562 10.4255H75.0682ZM75.1482 16.1215H74.1562C68.7642 16.1215 68.5562 13.8175 68.6362 13.0015H72.1082C72.1402 13.2255 72.2842 13.8015 74.7002 13.8015H74.7322C77.2602 13.8015 77.8842 12.4255 78.0442 11.3695C77.7402 11.7055 76.6202 12.6175 74.0122 12.6175H73.8842C70.1562 12.6175 68.7642 10.8255 68.7642 8.79355C68.7642 8.50555 68.7802 8.21755 68.8282 7.91355C69.1482 5.91355 70.6202 4.18555 74.2362 4.18555H74.4282C77.3242 4.18555 78.5082 5.14555 78.9402 5.56155L79.1322 4.39355H82.6202L81.5322 11.3055C81.2122 13.3055 80.3482 16.1215 75.1482 16.1215Z" fill="#636366"/>
<path d="M68.4932 1.09766L68.0932 3.56166H64.6052L65.0052 1.09766H68.4932ZM67.9652 4.39366L66.6052 13.0017H63.1172L64.4772 4.39366H67.9652Z" fill="#636366"/>
<path d="M55.7302 13.2403C50.6902 13.2403 50.4662 11.2723 50.5462 10.0883H54.1302C54.1302 10.4563 54.1622 11.2403 56.1142 11.2403H56.1462C58.3382 11.2403 58.4662 10.7763 58.4662 10.3763C58.4662 9.96034 58.2422 9.68834 56.8502 9.65634L55.3462 9.62434C51.9542 9.52834 51.1222 8.24834 51.1222 7.00034C51.1222 6.82434 51.1382 6.66434 51.1702 6.48834C51.3942 5.25634 52.3702 4.15234 56.6582 4.15234H57.2342C61.7782 4.15234 62.4982 5.46434 62.3222 6.96834H58.8182C58.8022 6.63234 58.6742 6.10434 56.6742 6.10434C54.8662 6.10434 54.6902 6.40834 54.6902 6.79234C54.6902 7.17634 54.9782 7.41634 56.2422 7.44834L57.7142 7.48034C61.3622 7.56034 62.1462 8.52034 62.1462 10.0723C62.1462 10.3123 62.1142 10.5843 62.0662 10.7923C61.7622 12.0883 60.8182 13.2403 56.3222 13.2403H55.7302Z" fill="#636366"/>
<path d="M45.8113 9.00166C45.8593 8.82566 45.8753 8.64966 45.8753 8.48966C45.8753 7.40166 44.9153 6.44166 42.9633 6.44166H42.8833C40.4993 6.44166 39.7793 7.72166 39.7793 8.90566C39.7793 9.96166 40.4833 10.9377 42.3073 10.9377H42.3873C44.4673 10.9377 45.5873 9.86566 45.8113 9.00166ZM47.0753 1.09766H50.5633L48.6753 13.0017H45.2193L45.4273 11.6737C45.1713 12.0097 43.9393 13.2097 41.3313 13.2097H41.1233C37.8113 13.2097 36.1953 11.5617 36.1953 9.25766C36.1953 8.92166 36.2113 8.64966 36.2593 8.26566C36.5633 6.10566 38.0673 4.18566 41.8433 4.18566H42.0833C44.8673 4.18566 46.0673 5.30566 46.3713 5.59366L47.0753 1.09766Z" fill="#636366"/>
<path d="M22.4141 13.0012L23.7741 4.39317H27.2301L26.9901 5.86517C27.2781 5.56117 28.6381 4.20117 31.0221 4.20117H31.1341C34.1741 4.20117 35.1661 6.16917 34.8781 7.96117L34.0781 13.0012H30.5741L31.2461 8.74517C31.4381 7.49717 30.9421 6.60117 29.3421 6.60117C27.7581 6.60117 26.7661 7.54517 26.5581 8.85717L25.9021 13.0012H22.4141Z" fill="#636366"/>
<path d="M22.4658 1.09766L22.0658 3.56166H18.5778L18.9778 1.09766H22.4658ZM21.9378 4.39366L20.5778 13.0017H17.0898L18.4498 4.39366H21.9378Z" fill="#636366"/>
<path d="M0.160156 13.0017L2.04816 1.09766H5.68016L4.99216 5.43366H12.6562L13.3442 1.09766H16.9762L15.0882 13.0017H11.4562L12.1922 8.31366H4.52816L3.79216 13.0017H0.160156Z" fill="#636366"/>
</svg>
