<svg width="583" height="63" viewBox="0 0 583 63" fill="none" xmlns="http://www.w3.org/2000/svg">
<path d="M288.046 34.4234C288.238 34.4234 288.334 34.3514 288.334 34.2074C288.334 33.9674 288.238 33.7754 288.046 33.6314C287.854 33.6314 287.758 33.7514 287.758 33.9914C287.758 34.2794 287.854 34.4234 288.046 34.4234ZM287.902 33.0554C287.95 32.9114 287.974 32.7434 287.974 32.5514C287.974 32.4074 287.95 32.2634 287.902 32.1194L287.83 31.9034C287.782 31.9034 287.758 32.0954 287.758 32.4794C287.758 32.8634 287.782 33.0554 287.83 33.0554H287.902ZM288.118 31.3274C288.214 31.2314 288.262 31.1354 288.262 31.0394L288.046 30.6074C287.998 30.6074 287.974 30.6794 287.974 30.8234C287.974 31.1594 287.998 31.3274 288.046 31.3274H288.118ZM292.078 20.7434C292.126 20.6954 292.198 20.5274 292.294 20.2394L292.366 20.0234L292.294 19.9514C292.246 19.9514 292.198 19.9754 292.15 20.0234C292.102 20.0234 292.03 20.0714 291.934 20.1674C291.886 20.2634 291.862 20.3834 291.862 20.5274C291.91 20.6714 291.958 20.7434 292.006 20.7434H292.078ZM293.158 18.2234C293.302 18.2234 293.446 18.0794 293.59 17.7914C293.782 17.4554 293.878 17.1914 293.878 16.9994L293.806 16.9274C293.374 17.3594 293.158 17.7674 293.158 18.1514V18.2234ZM293.95 16.6394C294.046 16.6394 294.694 15.6314 295.894 13.6154L296.686 12.3194C297.31 11.3594 297.694 10.7114 297.838 10.3754L297.91 10.0874H297.838C297.79 10.0874 297.574 10.3754 297.19 10.9514C296.23 12.3914 295.366 13.8314 294.598 15.2714C294.166 16.0874 293.95 16.5434 293.95 16.6394ZM299.134 8.71936L299.782 7.85536C299.686 7.85536 299.566 7.95136 299.422 8.14336C299.278 8.28736 299.158 8.40736 299.062 8.50336L298.846 8.64736C298.846 8.69536 298.942 8.71936 299.134 8.71936ZM300.214 27.5114C300.31 27.5114 300.55 27.2954 300.934 26.8634C301.366 26.3834 301.582 26.0714 301.582 25.9274L300.718 26.7914C300.382 27.1274 300.214 27.3674 300.214 27.5114ZM301.726 25.6394C301.822 25.6394 302.062 25.3754 302.446 24.8474C302.83 24.3194 303.31 23.6954 303.886 22.9754C304.462 22.2554 304.99 21.5834 305.47 20.9594C305.998 20.2874 306.334 19.7834 306.478 19.4474C306.67 19.1114 306.766 18.9194 306.766 18.8714H306.694L306.118 19.6634C304.918 21.2474 303.982 22.4714 303.31 23.3354C302.686 24.1994 302.278 24.7994 302.086 25.1354L301.726 25.6394ZM314.83 11.5994C314.878 11.5994 314.926 11.5514 314.974 11.4554C315.07 11.3114 315.166 11.1434 315.262 10.9514C315.406 10.7114 315.478 10.5434 315.478 10.4474C315.478 10.3994 315.454 10.3754 315.406 10.3754C315.358 10.3754 315.286 10.4474 315.19 10.5914C315.142 10.6874 315.07 10.8314 314.974 11.0234C314.878 11.1674 314.83 11.2874 314.83 11.3834V11.5274V11.5994ZM292.438 57.3914C292.486 57.3434 292.51 57.2714 292.51 57.1754C292.51 56.9834 292.486 56.8394 292.438 56.7434L292.366 56.5994C292.318 56.6954 292.294 56.8634 292.294 57.1034C292.294 57.2954 292.318 57.3914 292.366 57.3914H292.438ZM291.862 59.6234L291.574 59.4794C291.382 59.3834 291.118 59.2634 290.782 59.1194C290.446 59.0234 290.206 58.8794 290.062 58.6874C289.918 58.4954 289.822 58.2314 289.774 57.8954C289.774 57.5594 289.654 57.3914 289.414 57.3914H289.27L289.702 57.0314C289.942 56.8394 290.062 56.5994 290.062 56.3114L289.702 56.3834C289.654 56.3834 289.63 56.3354 289.63 56.2394C289.63 56.0954 289.678 55.8794 289.774 55.5914C290.254 53.8634 290.638 52.9994 290.926 52.9994H291.07L290.998 52.7114C290.998 52.2314 291.574 50.6234 292.726 47.8874C293.926 45.1034 295.318 41.9834 296.902 38.5274C298.534 35.0234 299.974 32.0714 301.222 29.6714L301.51 29.1674C301.51 29.1194 301.486 29.0954 301.438 29.0954L301.294 29.1674C301.15 29.2634 300.646 29.7674 299.782 30.6794C298.678 31.7834 297.526 32.7914 296.326 33.7034C295.174 34.5674 294.214 35.1674 293.446 35.5034C293.206 35.5994 292.822 35.6954 292.294 35.7914C290.998 36.0314 290.11 36.1514 289.63 36.1514C288.718 36.1514 287.902 35.9354 287.182 35.5034C285.886 34.9754 285.094 34.3034 284.806 33.4874C284.662 33.1034 284.59 32.6474 284.59 32.1194C284.59 30.1514 285.598 26.9354 287.614 22.4714C288.958 19.4954 290.326 16.7594 291.718 14.2634C293.11 11.7674 294.094 10.3754 294.67 10.0874C294.958 9.99136 295.102 9.87136 295.102 9.72736C295.102 9.63136 295.078 9.55936 295.03 9.51136C294.982 9.41536 294.958 9.34336 294.958 9.29536C294.958 9.00736 295.222 8.71936 295.75 8.43136C296.518 7.95136 296.902 7.59136 296.902 7.35136C296.854 7.35136 296.782 7.37536 296.686 7.42336C296.59 7.47136 296.518 7.49536 296.47 7.49536C296.47 7.49536 296.446 7.49536 296.398 7.49536V7.42336C296.398 7.13536 296.734 6.87136 297.406 6.63136C297.838 6.39136 298.15 6.27136 298.342 6.27136C298.534 6.27136 298.798 6.46336 299.134 6.84736C299.518 7.18336 299.926 7.35136 300.358 7.35136L300.79 7.27936C300.934 7.27936 301.006 7.32736 301.006 7.42336C301.006 7.56736 300.862 7.80736 300.574 8.14336C300.286 8.47936 300.142 8.67136 300.142 8.71936C300.19 8.71936 300.358 8.57536 300.646 8.28736C300.982 7.99936 301.222 7.85536 301.366 7.85536C301.414 7.85536 301.438 7.87936 301.438 7.92736C301.438 8.16736 300.862 8.98336 299.71 10.3754C299.566 10.4714 299.446 10.5914 299.35 10.7354C299.302 10.8794 299.278 11.0234 299.278 11.1674C299.278 11.2634 299.038 11.6714 298.558 12.3914L298.198 12.8234L296.326 16.2794C294.838 19.1114 293.47 22.0634 292.222 25.1354C290.734 28.7834 289.99 31.2794 289.99 32.6234C289.99 32.8634 290.038 33.0074 290.134 33.0554H290.206C290.35 33.0554 290.614 32.8874 290.998 32.5514C291.382 32.2154 291.574 32.0234 291.574 31.9754L290.206 32.5514C290.206 32.4554 290.374 32.2874 290.71 32.0474C291.238 31.6154 291.622 31.3994 291.862 31.3994C292.102 31.3994 292.582 31.0394 293.302 30.3194C296.95 26.6714 299.566 23.7914 301.15 21.6794C301.486 21.1034 301.918 20.5274 302.446 19.9514C302.974 19.3754 303.238 19.0394 303.238 18.9434C303.238 18.7994 303.262 18.6794 303.31 18.5834C303.406 18.4874 303.478 18.4154 303.526 18.3674C303.622 18.3194 303.814 18.1994 304.102 18.0074C304.39 17.7674 304.606 17.5754 304.75 17.4314L304.822 16.9994C304.822 16.7114 304.87 16.4954 304.966 16.3514C305.062 16.1594 305.182 16.0634 305.326 16.0634C305.47 16.0634 305.782 15.8714 306.262 15.4874C306.502 15.1994 306.622 14.9594 306.622 14.7674L306.406 14.8394C306.358 14.8394 306.334 14.7434 306.334 14.5514C306.478 14.3114 306.67 14.1914 306.91 14.1914C307.198 14.1914 308.038 13.1354 309.43 11.0234L311.806 7.85536C312.286 7.13536 312.622 6.63136 312.814 6.34336C313.006 6.00736 313.318 5.59936 313.75 5.11936C314.71 3.91936 315.478 3.03136 316.054 2.45536L316.414 2.16736L316.342 2.52736H316.702L317.35 2.02336C317.398 2.02336 317.422 2.04736 317.422 2.09536C317.422 2.14336 317.446 2.16736 317.494 2.16736C317.638 2.16736 317.878 1.97536 318.214 1.59136C318.598 1.15936 318.934 0.943359 319.222 0.943359C319.654 0.943359 319.87 1.06336 319.87 1.30336C319.87 1.44736 319.774 1.61536 319.582 1.80736L319.294 2.09536C319.294 2.14336 319.318 2.16736 319.366 2.16736C319.414 2.16736 319.51 2.14336 319.654 2.09536C319.798 1.99936 319.918 1.95136 320.014 1.95136C320.158 1.95136 320.23 1.99936 320.23 2.09536C320.23 2.47936 319.726 3.41536 318.718 4.90336C316.702 8.11936 315.694 9.82336 315.694 10.0154C315.742 10.0154 316.342 9.15136 317.494 7.42336C319.75 4.01536 321.07 2.31136 321.454 2.31136H321.526C321.574 2.35936 321.598 2.43136 321.598 2.52736C321.598 2.76736 321.502 3.00736 321.31 3.24736L320.95 3.67936L321.31 3.39136C321.502 3.24736 321.646 3.17536 321.742 3.17536C321.79 3.17536 321.814 3.22336 321.814 3.31936C321.814 3.51136 320.83 5.31136 318.862 8.71936C315.262 14.8634 313.15 18.4154 312.526 19.3754L311.878 20.5274C311.35 21.3914 310.606 22.7114 309.646 24.4874C306.958 29.3354 305.23 32.5754 304.462 34.2074C302.254 38.6714 300.118 43.0634 298.054 47.3834L297.55 48.4634C295.678 52.7354 294.55 55.6154 294.166 57.1034C293.782 58.2074 293.566 58.7834 293.518 58.8314H293.446L293.014 58.3274C292.966 58.3754 292.942 58.4954 292.942 58.6874C292.942 58.9274 292.918 59.0714 292.87 59.1194H292.654C292.414 58.8794 292.27 58.5914 292.222 58.2554C292.222 57.9674 292.198 57.8234 292.15 57.8234L292.078 57.8954C292.03 57.9434 291.982 58.2314 291.934 58.7594L291.862 59.6234Z" fill="#F8F8F8"/>
<path d="M267.312 36.7985C267.456 36.7985 267.528 36.2706 267.528 35.2146L267.384 32.2626L267.168 36.2945C267.168 36.6305 267.216 36.7985 267.312 36.7985ZM267.744 30.8225L267.816 30.5345C267.864 30.3425 267.888 30.0546 267.888 29.6706C267.888 29.3345 267.84 29.0225 267.744 28.7346H267.816L267.744 28.4465C267.696 28.4465 267.672 28.8305 267.672 29.5985C267.672 30.4145 267.696 30.8225 267.744 30.8225ZM268.032 26.3586C268.128 26.3586 268.176 26.0466 268.176 25.4226C268.176 24.7985 268.128 24.4865 268.032 24.4865C267.984 24.4865 267.96 24.8225 267.96 25.4945C267.96 26.0705 267.984 26.3586 268.032 26.3586ZM268.392 23.0466C268.488 23.0466 268.536 22.8065 268.536 22.3265C268.536 22.0865 268.512 21.8705 268.464 21.6785L268.392 21.3905C268.344 21.3905 268.32 21.6545 268.32 22.1825C268.32 22.7585 268.344 23.0466 268.392 23.0466ZM268.68 19.8785C268.824 19.8785 268.896 19.6866 268.896 19.3025L268.68 18.6545C268.632 18.6545 268.608 18.8225 268.608 19.1585C268.608 19.6385 268.632 19.8785 268.68 19.8785ZM271.128 60.9185C270.648 60.9185 270.024 60.8466 269.256 60.7026L267.816 60.1265C267.48 59.8865 267.288 54.8226 267.24 44.9346C267.24 39.9426 267.192 37.4465 267.096 37.4465C266.904 37.7825 266.808 41.1425 266.808 47.5266C266.808 50.6466 266.832 52.9746 266.88 54.5106L267.168 58.5425C267.168 58.7345 267.144 58.8306 267.096 58.8306C267.048 58.8306 267 58.8306 266.952 58.8306C266.808 58.8306 266.568 58.6866 266.232 58.3986C265.368 57.6306 264.72 56.7186 264.288 55.6626C263.856 54.3666 263.64 50.4546 263.64 43.9266C263.64 35.2866 264 27.8705 264.72 21.6785L264.864 20.1665L264.072 21.8946C262.296 25.6386 260.256 30.6305 257.952 36.8705C255.696 43.1105 254.016 48.2706 252.912 52.3506L252.84 52.7106C251.976 56.2626 251.424 58.1106 251.184 58.2546C250.992 58.3986 250.776 58.4945 250.536 58.5425H250.464C249.984 58.6385 249.528 58.6866 249.096 58.6866C248.568 58.5426 247.992 58.1826 247.368 57.6066C246.744 57.0306 246.312 56.4305 246.072 55.8065C246.024 55.5185 246 55.1586 246 54.7266C246 51.1746 248.16 43.2306 252.48 30.8946C255.6 22.3025 258.768 14.6705 261.984 7.99855C263.376 5.16655 264.312 3.60655 264.792 3.31855C265.08 3.22255 265.344 3.03055 265.584 2.74255C265.824 2.45455 266.016 2.31055 266.16 2.31055C266.256 2.31055 266.328 2.40655 266.376 2.59855C266.376 2.69455 266.328 2.86255 266.232 3.10255C266.136 3.29455 266.088 3.48655 266.088 3.67855C266.088 3.91855 266.208 4.15855 266.448 4.39855C266.736 4.63855 266.928 4.75855 267.024 4.75855C267.12 4.75855 267.168 4.68655 267.168 4.54255C267.216 4.39855 267.264 4.32655 267.312 4.32655C267.36 4.32655 267.456 4.44655 267.6 4.68655C267.792 4.87855 268.008 4.97455 268.248 4.97455L268.464 4.90255C268.56 4.90255 268.704 5.02255 268.896 5.26255C269.136 5.50255 269.352 5.83855 269.544 6.27055C269.736 6.65455 269.832 6.99055 269.832 7.27855C269.832 7.66255 269.688 8.21455 269.4 8.93455C269.064 9.46255 268.896 9.79855 268.896 9.94255C268.896 10.0865 268.944 10.1585 269.04 10.1585C269.184 10.1585 269.352 10.0865 269.544 9.94255C269.784 9.79855 270 9.72655 270.192 9.72655C270.528 9.72655 270.888 9.87055 271.272 10.1585C271.704 10.4465 271.92 10.9265 271.92 11.5985L271.776 13.3265C271.488 16.0625 271.248 17.9585 271.056 19.0145C270.816 20.7905 270.648 22.3265 270.552 23.6225L270.264 27.1505C270.168 27.7745 270.096 28.4226 270.048 29.0946C269.952 30.7266 269.832 32.0946 269.688 33.1986C269.448 36.2706 269.184 41.7905 268.896 49.7585C270.672 43.7105 271.992 39.3666 272.856 36.7266C275.4 29.0946 278.064 22.1345 280.848 15.8465C284.064 8.55055 286.224 4.90255 287.328 4.90255C287.472 4.90255 287.544 5.02255 287.544 5.26255L287.472 5.98255C287.472 6.41455 287.592 6.72655 287.832 6.91855C288.072 7.06255 288.288 7.13455 288.48 7.13455C288.672 7.13455 288.84 7.06255 288.984 6.91855C289.128 6.72655 289.224 6.63055 289.272 6.63055H289.344L289.128 7.49455V7.56655L289.416 7.42255C289.656 7.13455 289.944 6.99055 290.28 6.99055C290.328 6.99055 290.448 7.01455 290.64 7.06255C290.88 7.06255 291.144 7.23055 291.432 7.56655C291.72 7.85455 291.888 8.14255 291.936 8.43055C291.936 8.71855 291.792 9.19855 291.504 9.87055C291.264 10.5425 290.808 11.5745 290.136 12.9665C289.32 14.6945 288.408 16.7345 287.4 19.0865C286.392 21.4385 285.504 23.5985 284.736 25.5665C283.968 27.4865 283.56 28.5665 283.512 28.8065C283.512 29.0465 283.44 29.2385 283.296 29.3825C283.2 29.5265 283.08 29.5985 282.936 29.5985C282.6 29.7905 281.976 30.9906 281.064 33.1986C280.2 35.4066 279.216 38.1665 278.112 41.4785C277.008 44.7426 276 48.0306 275.088 51.3426C274.752 52.5906 274.512 53.4785 274.368 54.0065C274.224 54.5825 274.152 55.0146 274.152 55.3026C274.152 55.7346 274.224 56.0225 274.368 56.1665C274.896 56.7425 275.16 57.3666 275.16 58.0386C275.16 58.2306 275.088 58.6146 274.944 59.1906C274.848 59.7666 274.344 60.1025 273.432 60.1985C272.76 60.2945 272.328 60.4386 272.136 60.6306C271.944 60.8226 271.608 60.9185 271.128 60.9185Z" fill="#F8F8F8"/>
<path d="M229.616 45.7278C229.808 45.7278 230.192 45.6798 230.768 45.5838C231.344 45.4398 232.136 45.2718 233.144 45.0798L239.768 43.7838C240.392 40.8078 241.16 37.5438 242.072 33.9918C244.184 25.5438 245.552 20.2878 246.176 18.2238C246.656 16.1598 246.896 15.0078 246.896 14.7678C246.896 14.6718 246.872 14.6238 246.824 14.6238C246.824 14.6238 246.824 14.5518 246.824 14.4078C246.824 14.2158 246.896 13.8798 247.04 13.3998C247.232 12.8718 247.52 12.2238 247.904 11.4558L248.264 10.5198L248.192 10.4478C248.144 10.4478 248 10.6878 247.76 11.1678C247.52 11.5998 247.232 12.1758 246.896 12.8958C246.56 13.5678 246.224 14.1678 245.888 14.6958C245.6 15.1758 245.384 15.4638 245.24 15.5598C245.096 15.6558 245 15.7038 244.952 15.7038C244.952 15.5598 245.12 15.3198 245.456 14.9838L245.6 14.6238C245.168 14.6238 243.248 17.7678 239.84 24.0558C238.832 26.0718 238.256 27.1518 238.112 27.2958C237.68 27.8718 235.304 32.6238 230.984 41.5518C229.832 43.9998 229.256 45.3198 229.256 45.5118C229.256 45.6558 229.376 45.7278 229.616 45.7278ZM241.784 49.8318C241.88 49.8318 241.928 49.7118 241.928 49.4718C241.928 49.4238 241.904 49.3518 241.856 49.2558C241.808 49.1598 241.76 49.1118 241.712 49.1118C241.664 49.1118 241.64 49.2318 241.64 49.4718C241.64 49.7118 241.664 49.8318 241.712 49.8318H241.784ZM241.496 51.3438L241.64 51.0558C241.64 50.9598 241.616 50.8638 241.568 50.7678C241.52 50.6238 241.472 50.5518 241.424 50.5518C241.376 50.5518 241.352 50.6718 241.352 50.9118L241.424 51.3438H241.496ZM241.136 52.9998L241.208 52.8558C241.304 52.8078 241.352 52.7118 241.352 52.5678C241.352 52.4718 241.304 52.3758 241.208 52.2798L241.136 52.1358C241.088 52.1358 241.064 52.2798 241.064 52.5678C241.064 52.8558 241.088 52.9998 241.136 52.9998ZM240.848 54.7278C240.944 54.7278 240.992 54.5838 240.992 54.2958L240.92 53.7198H240.992L240.92 53.6478C240.872 53.6478 240.848 53.8398 240.848 54.2238V54.7278ZM236.888 44.9358C237.032 44.9358 237.272 44.8878 237.608 44.7918C237.992 44.6958 238.472 44.6478 239.048 44.6478C239.384 44.6478 239.552 44.5758 239.552 44.4318C239.552 44.3358 239.408 44.2878 239.12 44.2878C238.448 44.2878 237.824 44.3838 237.248 44.5758C236.864 44.7198 236.672 44.8158 236.672 44.8638C236.672 44.9118 236.744 44.9358 236.888 44.9358ZM235.16 45.2958C235.4 45.2958 235.64 45.2718 235.88 45.2238C236.12 45.1278 236.24 45.0318 236.24 44.9358C236.24 44.8878 236.192 44.8638 236.096 44.8638C235.328 44.8638 234.944 44.9838 234.944 45.2238C234.944 45.2718 235.016 45.2958 235.16 45.2958ZM234.224 45.5118L234.296 45.4398C234.248 45.3438 234.152 45.2958 234.008 45.2958C233.72 45.2958 233.576 45.3198 233.576 45.3678C233.576 45.4638 233.792 45.5118 234.224 45.5118ZM250.928 3.2478C251.168 3.2478 251.288 3.1758 251.288 3.0318C251.288 2.7918 251.168 2.6718 250.928 2.6718C250.64 2.6718 250.496 2.7678 250.496 2.9598C250.496 3.0558 250.544 3.1278 250.64 3.1758C250.784 3.2238 250.88 3.2478 250.928 3.2478ZM239.912 62.2158C239.72 62.2158 239.48 62.1438 239.192 61.9998C238.952 61.8558 238.712 61.6398 238.472 61.3518C238.232 61.1118 238.064 60.9918 237.968 60.9918H237.896L238.04 61.4958C237.992 61.4958 237.848 61.3998 237.608 61.2078C237.416 61.0638 237.32 60.6558 237.32 59.9838C237.32 59.5998 237.344 59.0478 237.392 58.3278C237.44 57.6558 237.536 56.7438 237.68 55.5918C237.824 54.4398 237.968 53.3598 238.112 52.3518C238.304 51.2958 238.448 50.4318 238.544 49.7598C238.64 49.0398 238.688 48.6558 238.688 48.6078C238.256 48.6078 236.312 49.0158 232.856 49.8318C228.968 50.7438 226.928 51.3438 226.736 51.6318C226.256 52.2558 225.776 53.3598 225.296 54.9438C223.904 58.6398 222.92 60.4878 222.344 60.4878C222.248 60.4878 222.2 60.5358 222.2 60.6318V60.7758C222.2 60.8718 222.152 60.9918 222.056 61.1358C221.96 61.3278 221.792 61.4238 221.552 61.4238C221.504 61.4238 221.456 61.3998 221.408 61.3518L221.336 61.2798C221.288 61.2798 221.264 61.2798 221.264 61.2798C221.264 61.3278 221.264 61.3758 221.264 61.4238L221.336 61.7118C221.336 61.7598 221.312 61.8318 221.264 61.9278C221.168 62.0238 221.048 62.0718 220.904 62.0718C220.664 62.0718 220.4 61.7358 220.112 61.0638C219.824 60.4398 219.68 59.6718 219.68 58.7598C219.68 57.6558 219.92 56.3838 220.4 54.9438C220.688 53.9358 220.832 53.3118 220.832 53.0718V52.9998L218.24 53.7198C217.232 54.0078 216.584 54.1518 216.296 54.1518C216.104 54.1518 215.912 54.0318 215.72 53.7918C215.48 53.5518 215.144 53.4318 214.712 53.4318C214.28 53.4318 213.728 53.0958 213.056 52.4238C212.576 51.9438 212.336 51.6078 212.336 51.4158C212.336 51.3678 212.36 51.3438 212.408 51.3438C212.696 51.3438 212.984 51.1518 213.272 50.7678C213.608 50.5278 214.616 50.1198 216.296 49.5438C218.552 48.7758 220.88 48.0798 223.28 47.4558C226.544 39.5838 230.192 31.7838 234.224 24.0558C239.024 14.8878 242.96 8.4078 246.032 4.6158C247.664 2.5998 248.672 1.5918 249.056 1.5918C249.104 1.5918 249.128 1.6158 249.128 1.6638C249.128 1.8078 248.984 2.0238 248.696 2.3118C248.408 2.5518 248.264 2.7198 248.264 2.8158C248.264 2.8638 248.288 2.8878 248.336 2.8878C248.432 2.8398 248.552 2.8158 248.696 2.8158C248.888 2.9118 249.056 2.9838 249.2 3.0318C249.392 3.0798 249.536 3.1038 249.632 3.1038C249.872 3.1038 250.136 2.9598 250.424 2.6718C250.76 2.3838 251.024 2.2398 251.216 2.2398C251.456 2.2398 251.576 2.4558 251.576 2.8878C251.576 3.0798 251.672 3.2958 251.864 3.5358C252.056 3.7758 252.248 3.9438 252.44 4.0398C252.68 4.1358 252.872 4.1838 253.016 4.1838H253.376L253.736 4.2558C254.648 4.6878 255.104 5.4558 255.104 6.5598C255.104 7.4238 254.888 8.5038 254.456 9.7998C254.024 11.3358 253.784 12.2478 253.736 12.5358C253.688 12.8238 253.472 13.5918 253.088 14.8398L248.192 31.1838C245.84 39.5838 244.664 44.3118 244.664 45.3678V45.5118C244.904 45.7518 245.168 45.8718 245.456 45.8718C245.744 45.8718 246.008 45.9678 246.248 46.1598C246.632 46.5918 246.824 46.9518 246.824 47.2398C246.824 47.3358 246.8 47.4078 246.752 47.4558L246.68 47.5278C246.632 47.5278 246.608 47.4798 246.608 47.3838C246.608 47.2398 246.344 47.1678 245.816 47.1678L244.016 47.3838L243.008 52.7838C242.528 55.4718 242.264 57.0558 242.216 57.5358C242.072 58.2078 241.976 59.3838 241.928 61.0638C241.88 61.5438 241.832 61.7838 241.784 61.7838L241.64 61.7118C241.496 61.6638 241.304 61.6158 241.064 61.5678C240.872 61.5198 240.728 61.4238 240.632 61.2798C240.536 61.1358 240.488 60.8238 240.488 60.3438L240.56 57.5358L240.704 55.3038L240.632 55.1598C240.584 55.2558 240.512 55.5678 240.416 56.0958C240.32 56.6718 240.224 57.4158 240.128 58.3278C240.032 59.2878 239.984 60.0078 239.984 60.4878C239.984 60.9678 240.032 61.2558 240.128 61.3518C240.368 61.5918 240.488 61.7838 240.488 61.9278C240.488 62.1198 240.296 62.2158 239.912 62.2158Z" fill="#F8F8F8"/>
<path d="M159.755 7.16992H174.283L168.587 42.9459H200.459L198.603 54.7859H152.203L159.755 7.16992Z" fill="#215FF6"/>
<path d="M153.033 7.16992L145.481 54.7859H130.953L138.505 7.16992H153.033Z" fill="#215FF6"/>
<path d="M106.887 35.3299L100.359 17.4739L89.2868 35.3299H106.887ZM114.055 54.7859L110.855 46.0819H82.6308L77.2548 54.7859H62.2148L92.2948 7.16992H111.047L129.159 54.7859H114.055Z" fill="#215FF6"/>
<path d="M8.19263 7.16992H24.3846L48.7046 37.7619L53.5046 7.16992H67.8406L60.2886 54.7859H46.0166L20.0326 22.6579L14.9766 54.7859H0.640625L8.19263 7.16992Z" fill="#215FF6"/>
<path d="M540.993 55.0008L546.753 18.6488H527.105L528.833 7.38477H582.913L581.121 18.6488H561.473L555.713 55.0008H540.993Z" fill="#215FF6"/>
<path d="M488.594 55.8327C462.674 55.8327 457.426 43.2247 457.426 34.7127C457.426 33.2407 457.426 31.6407 457.746 29.3367C458.898 21.5287 462.866 6.55273 492.178 6.55273H494.93C520.658 6.55273 526.162 18.7767 526.162 27.3527C526.162 29.0167 526.098 30.7447 525.842 32.5367C524.626 40.7287 520.722 55.8327 491.346 55.8327H488.594ZM510.802 28.8887C510.802 23.6407 507.218 18.0727 493.074 18.0727C477.266 18.0727 473.49 25.1127 473.042 30.5527C472.978 31.3847 472.978 32.0247 472.978 32.7287C472.978 37.9127 476.114 44.2487 490.514 44.2487C506.066 44.2487 509.842 37.2087 510.61 31.4487C510.738 30.4887 510.802 29.7847 510.802 28.8887Z" fill="#215FF6"/>
<path d="M389.453 55.0008L397.005 7.38477H411.533L408.781 24.7288H439.437L442.189 7.38477H456.717L449.165 55.0008H434.637L437.581 36.2488H406.925L403.981 55.0008H389.453Z" fill="#215FF6"/>
<path d="M354.048 55.8327C329.92 55.8327 328.128 44.8887 328.896 38.1047H343.936C344 41.1127 344.896 45.6567 356.864 45.6567H357.632C370.944 45.6567 371.84 42.3927 371.84 40.0247C371.84 37.4647 370.432 36.0567 361.152 35.8007L353.216 35.6087C336.64 35.2247 332.032 29.0167 332.032 21.7207C332.032 20.8247 332.096 20.1207 332.224 19.2247C333.184 12.6967 337.984 6.55273 359.168 6.55273H363.264C385.28 6.55273 389.44 14.3607 388.48 22.2327H373.504C373.312 20.3127 372.8 16.4727 360.704 16.4727H359.808C347.904 16.4727 347.2 18.8407 347.2 20.7607C347.2 22.5527 348.096 24.6007 356.736 24.7287L364.416 24.8567C381.312 25.1127 387.392 29.4007 387.392 38.2327C387.392 39.3847 387.264 40.8567 387.072 41.8167C385.664 48.7287 381.568 55.8327 358.208 55.8327H354.048Z" fill="#215FF6"/>
</svg>
