<svg width="637" height="66" viewBox="0 0 637 66" fill="none" xmlns="http://www.w3.org/2000/svg">
<path d="M99.0769 30.4713C99.3169 30.4713 99.4369 30.4233 99.4369 30.3273V30.2553C99.3889 30.2073 99.3169 30.1833 99.2209 30.1833C98.9329 30.1833 98.7889 30.2313 98.7889 30.3273V30.3993C98.7889 30.4473 98.8849 30.4713 99.0769 30.4713ZM100.805 30.1833C100.997 30.1833 101.141 30.1353 101.237 30.0393L100.949 29.9673C100.661 29.9673 100.517 29.9913 100.517 30.0393C100.517 30.1353 100.613 30.1833 100.805 30.1833ZM102.029 29.8953C102.317 29.8953 102.653 29.8713 103.037 29.8233C103.421 29.7753 103.781 29.7273 104.117 29.6793C104.501 29.5833 104.765 29.4873 104.909 29.3913L102.461 29.6793C101.981 29.7273 101.741 29.7753 101.741 29.8233C101.741 29.8713 101.837 29.8953 102.029 29.8953ZM100.013 56.9674C100.061 56.9193 100.085 56.8473 100.085 56.7513C100.085 56.6553 100.061 56.5593 100.013 56.4633C100.013 56.3673 99.9889 56.3193 99.9409 56.3193C99.8929 56.3193 99.8449 56.3913 99.7969 56.5353C99.7969 56.8233 99.8449 56.9674 99.9409 56.9674H100.013ZM99.7249 58.3353L99.7969 57.9033C99.7969 57.6153 99.7489 57.4713 99.6529 57.4713C99.6049 57.4713 99.5809 57.6393 99.5809 57.9753C99.5809 58.2153 99.6049 58.3353 99.6529 58.3353H99.7249ZM100.805 60.2073C100.565 60.2073 100.301 60.0873 100.013 59.8473C99.7729 59.6553 99.6049 59.4393 99.5089 59.1993C99.4129 59.0073 99.3409 58.9114 99.2929 58.9114V59.4873C99.2449 59.9193 99.1009 60.1353 98.8609 60.1353C98.5249 60.1353 98.0209 59.9433 97.3489 59.5593C96.6769 59.2233 96.3409 58.9593 96.3409 58.7673C96.3409 57.0393 98.7409 48.6873 103.541 33.7113L95.8369 35.5833L90.0049 37.0953L87.8449 43.7193C86.3569 48.1833 85.6129 50.5113 85.6129 50.7033C85.6129 50.8473 85.5409 51.1833 85.3969 51.7113C84.8209 54.0633 84.4849 55.7433 84.3889 56.7513C84.2929 57.8073 84.1729 58.3834 84.0289 58.4794C83.8849 58.6234 83.7169 58.7193 83.5249 58.7673C83.2849 58.7673 83.0929 58.6953 82.9489 58.5513C82.8529 58.4553 82.7809 58.2153 82.7329 57.8313C82.5409 56.6793 82.4209 56.1033 82.3729 56.1033L82.4449 58.0474C82.4449 58.2394 82.4209 58.4553 82.3729 58.6953C82.3729 58.9353 82.3489 59.0553 82.3009 59.0553L79.4929 57.7593L79.5649 55.0953C79.5649 52.5033 80.5729 48.0873 82.5889 41.8473L83.3809 39.0393C83.1889 39.0393 81.6529 39.5913 78.7729 40.6953L74.3089 42.3513C73.6849 42.5433 73.2529 42.6393 73.0129 42.6393C72.8209 42.6393 72.6769 42.5913 72.5809 42.4953C72.4369 42.3513 72.3649 42.2313 72.3649 42.1353C72.3649 42.0393 72.4129 41.9913 72.5089 41.9913C72.5569 41.9433 72.7009 41.7993 72.9409 41.5593C72.8929 41.4633 72.8209 41.4153 72.7249 41.4153L72.3649 41.4873C71.8849 41.4873 71.3329 41.1993 70.7089 40.6233L69.6289 39.4713L70.5649 38.6073C72.5329 36.9753 76.6369 35.2233 82.8769 33.3513C84.7489 32.8233 85.7329 32.4393 85.8289 32.1993C85.9249 31.9113 86.1649 31.2633 86.5489 30.2553C86.9329 29.1993 87.4129 27.9513 87.9889 26.5113C89.1409 23.5353 90.1009 21.2073 90.8689 19.5273C91.6369 17.7993 92.6689 15.6633 93.9649 13.1193C95.2609 10.5753 96.5809 8.27134 97.9249 6.20734C99.2689 4.14334 100.301 2.79934 101.021 2.17534L101.885 1.52734L101.669 2.24734C101.669 2.72734 101.837 3.15934 102.173 3.54334C102.557 3.92734 102.749 4.23934 102.749 4.47934C102.749 4.67134 102.773 4.76734 102.821 4.76734C102.869 4.76734 102.941 4.67134 103.037 4.47934C103.277 4.14334 103.493 3.97534 103.685 3.97534C103.973 3.97534 104.237 4.21534 104.477 4.69535C104.621 4.83934 104.693 5.00734 104.693 5.19934C104.693 5.63134 104.141 6.95134 103.037 9.15934L102.101 11.0313C101.045 12.8073 99.7009 15.3753 98.0689 18.7353C95.9569 23.2473 94.3969 26.6793 93.3889 29.0313C93.1009 29.6553 92.8849 30.0873 92.7409 30.3273C92.5969 30.5673 92.5249 30.7593 92.5249 30.9033C92.5249 30.9513 92.5729 30.9753 92.6689 30.9753L92.9569 30.9033C94.3969 30.5673 96.5089 30.1833 99.2929 29.7513C99.9649 29.6553 100.613 29.5353 101.237 29.3913C103.829 28.9593 105.173 28.6953 105.269 28.5993L106.781 24.7833C108.941 19.0233 111.437 13.2873 114.269 7.57534C115.325 5.41534 115.949 4.33534 116.141 4.33534H116.357C116.549 4.33534 116.789 4.19134 117.077 3.90334L117.581 3.39935V3.47134C117.581 3.66334 117.485 4.09535 117.293 4.76734V5.05535C117.341 5.10335 117.413 5.12734 117.509 5.12734C117.605 5.12734 117.677 5.15134 117.725 5.19934C117.773 5.19934 117.797 5.24734 117.797 5.34335L117.653 5.91934H118.013C118.157 5.82334 118.277 5.77535 118.373 5.77535C118.421 5.77535 118.445 5.79934 118.445 5.84734L118.301 7.07134C118.349 7.07134 118.445 6.90334 118.589 6.56734C118.733 6.18334 118.901 5.99134 119.093 5.99134C119.285 6.03934 119.525 6.30335 119.813 6.78334C120.053 7.07134 120.173 7.43134 120.173 7.86334C120.173 8.24734 119.717 9.63934 118.805 12.0393C117.509 15.5433 115.949 19.3833 114.125 23.5593C113.885 24.0393 113.645 24.6153 113.405 25.2873C112.733 26.8713 112.397 27.7593 112.397 27.9513C112.397 28.0953 112.757 28.1673 113.477 28.1673L114.557 28.3113L113.333 28.3833C112.517 28.3833 112.109 28.5033 112.109 28.7433L112.253 29.0313C112.301 29.2233 112.781 29.3193 113.693 29.3193C113.885 29.3193 114.101 29.3673 114.341 29.4633C114.581 29.5593 114.797 29.7033 114.989 29.8953C115.229 30.0393 115.493 30.1833 115.781 30.3273C116.069 30.4233 116.309 30.5193 116.501 30.6153C117.077 30.8073 117.509 31.1193 117.797 31.5513C117.941 31.7913 118.013 32.0073 118.013 32.1993C118.013 32.3913 117.965 32.5593 117.869 32.7033C117.773 32.7993 117.653 32.8953 117.509 32.9913C117.365 33.0873 117.221 33.1353 117.077 33.1353C116.933 33.1353 116.861 33.1113 116.861 33.0633C116.861 32.9673 116.957 32.8473 117.149 32.7033C117.389 32.5593 117.509 32.4633 117.509 32.4153C117.509 32.3673 117.485 32.3433 117.437 32.3433C117.389 32.2953 117.269 32.2713 117.077 32.2713L115.781 32.3433C115.157 32.3433 114.749 32.2953 114.557 32.1993C114.365 32.0553 114.077 31.9833 113.693 31.9833L110.453 32.3433C108.197 38.2473 106.445 43.0953 105.197 46.8873C103.373 52.1673 102.101 56.2954 101.381 59.2714C101.237 59.8474 101.141 60.1353 101.093 60.1353C101.045 60.1833 100.949 60.2073 100.805 60.2073Z" fill="#F8F8F8"/>
<path d="M92.0139 3.47027L92.3739 3.39827C92.2779 3.30227 92.0859 3.25426 91.7979 3.25426L91.7259 3.39827C91.7259 3.44627 91.8219 3.47027 92.0139 3.47027ZM65.0859 58.9103H64.9419C64.8939 58.9103 64.7979 58.8383 64.6539 58.6943C64.5579 58.5503 64.0779 58.3343 63.2139 58.0463C61.6779 57.7103 60.8859 57.1103 60.8379 56.2463C60.8379 53.4623 62.0379 48.1103 64.4379 40.1903C66.8859 32.2223 69.8139 23.9423 73.2219 15.3503C73.7979 13.8623 74.2779 12.6383 74.6619 11.6783C75.0459 10.7183 75.2379 10.1903 75.2379 10.0943H75.0939C74.9019 10.0943 74.3259 10.1903 73.3659 10.3823C71.3979 10.7663 68.9259 11.4383 65.9499 12.3983C64.1739 12.9263 63.1659 13.1903 62.9259 13.1903C62.5899 13.1903 62.3259 13.1183 62.1339 12.9743C61.9899 12.8303 61.9179 12.7103 61.9179 12.6143C61.9179 12.5663 62.0379 12.4943 62.2779 12.3983C62.5179 12.2543 62.6379 12.1343 62.6379 12.0383V11.9663C62.6379 11.8703 62.5419 11.8223 62.3499 11.8223H61.9179C61.3419 11.8223 60.6699 11.3903 59.9019 10.5263C59.5179 10.1903 59.3019 9.90227 59.2539 9.66227C59.2539 9.27827 59.7579 8.77427 60.7659 8.15027C61.7739 7.52627 63.0219 6.95027 64.5099 6.42227C66.0459 5.84627 68.2299 5.27027 71.0619 4.69427C76.1019 3.68627 81.5259 3.08627 87.3339 2.89427C89.3979 2.84627 92.7819 2.82227 97.4859 2.82227C100.75 2.91826 102.982 3.27826 104.182 3.90227C104.614 4.19026 104.83 4.45426 104.83 4.69427L104.758 4.91026C104.71 4.91026 104.638 4.83827 104.542 4.69427C104.542 3.87827 102.166 3.44627 97.4139 3.39827L92.5899 3.25426L99.5019 3.68627C100.606 3.87827 101.614 4.11827 102.526 4.40627C103.918 5.07827 104.614 5.55827 104.614 5.84627L104.47 5.91826L104.686 5.99026C104.83 6.03827 105.022 6.13427 105.262 6.27826C105.502 6.37427 105.766 6.59027 106.054 6.92626C106.39 7.26227 106.63 7.57427 106.774 7.86227C106.918 8.10227 106.99 8.29427 106.99 8.43827C106.99 8.53427 106.966 8.60627 106.918 8.65426C105.574 8.65426 104.638 8.39026 104.11 7.86227C103.966 7.76627 103.75 7.69427 103.462 7.64626C103.174 7.55027 102.742 7.47827 102.166 7.43027C98.6619 7.43027 95.7819 7.47827 93.5259 7.57426C88.1019 7.91027 85.1019 8.22227 84.5259 8.51027L84.3099 8.79827V9.15827C84.3099 9.49427 84.2379 9.66227 84.0939 9.66227C83.9979 9.66227 83.9499 9.68627 83.9499 9.73427C83.9499 9.73427 83.9499 9.75827 83.9499 9.80627V10.0223C83.9499 10.1183 83.9019 10.1663 83.8059 10.1663C83.7099 10.1663 83.6619 10.1903 83.6619 10.2383C83.6619 10.2863 83.6619 10.3343 83.6619 10.3823V10.5983C83.7099 10.7423 83.6859 10.8143 83.5899 10.8143C83.4939 10.8143 83.4459 10.8383 83.4459 10.8863C83.4459 10.8863 83.4459 10.9103 83.4459 10.9583L83.5179 11.1743L83.1579 12.0383C82.9179 12.3743 82.7259 12.8063 82.5819 13.3343C82.4379 13.8143 82.2699 14.0543 82.0779 14.0543H82.0059V14.2703C82.0059 14.5103 81.9339 14.7743 81.7899 15.0623C81.6459 15.3023 81.4539 15.7343 81.2139 16.3583C80.9739 16.9343 80.7819 17.2223 80.6379 17.2223C80.5419 17.2223 80.4939 17.2703 80.4939 17.3663L80.5659 17.6543C80.5659 17.7503 80.5419 17.8943 80.4939 18.0863C80.4459 18.2783 80.3499 18.4703 80.2059 18.6623C80.1099 18.8543 80.0139 18.9503 79.9179 18.9503C79.8699 18.9503 79.8459 18.9743 79.8459 19.0223C79.8459 19.0703 79.8459 19.1183 79.8459 19.1663L79.9179 19.4543C79.9179 19.5023 79.8459 19.5263 79.7019 19.5263C79.6059 19.5263 79.4379 19.7903 79.1979 20.3183C79.0059 20.8463 78.9099 21.1583 78.9099 21.2543C78.9099 21.3503 78.8379 21.6383 78.6939 22.1183C78.5979 22.5983 78.4539 22.8383 78.2619 22.8383H78.1899L78.2619 23.2703C78.2139 23.3183 78.1419 23.3423 78.0459 23.3423C77.9979 23.3423 77.9499 23.3663 77.9019 23.4143L77.9739 23.8463C77.9739 23.8943 77.9259 23.9183 77.8299 23.9183C77.7339 23.9183 77.6859 23.9423 77.6859 23.9903C77.6859 23.9903 77.6859 24.0143 77.6859 24.0623L77.7579 24.4223C77.7579 24.4703 77.6859 24.4943 77.5419 24.4943C77.4459 24.4943 77.3979 24.5663 77.3979 24.7103L77.5419 24.9983C77.5419 25.0943 77.4699 25.1423 77.3259 25.1423H77.2539L77.3259 25.5743C77.2779 25.6223 77.2059 25.6463 77.1099 25.6463C77.0139 25.6463 76.9659 25.7663 76.9659 26.0063L77.0379 26.1503C77.0379 26.1983 76.9659 26.2223 76.8219 26.2223C76.7259 26.2223 76.6779 26.2943 76.6779 26.4383L76.8219 26.7983C76.7739 26.8463 76.7019 26.8703 76.6059 26.8703C76.5579 26.8703 76.5339 26.8943 76.5339 26.9423C76.5339 26.9423 76.5339 26.9663 76.5339 27.0143L76.6059 27.2303L76.5339 27.3023C76.4379 27.3983 76.3179 27.4943 76.1739 27.5903C76.0299 27.6383 75.9579 27.7343 75.9579 27.8783L76.1019 28.4543C76.0539 28.5983 75.9819 28.6703 75.8859 28.6703H75.8139L75.8859 29.0303C75.8859 29.1263 75.8379 29.1743 75.7419 29.1743C75.6459 29.1743 75.5979 29.1983 75.5979 29.2463C75.5979 29.2943 75.5979 29.3423 75.5979 29.3903L75.6699 29.6783C75.6699 29.7263 75.6219 29.7503 75.5259 29.7503C75.4299 29.7503 75.3099 29.8943 75.1659 30.1823C75.0699 30.4223 75.0219 30.6863 75.0219 30.9743V31.3343C74.9739 31.3823 74.9019 31.4543 74.8059 31.5503C74.7099 31.5983 74.5899 31.7903 74.4459 32.1263C73.9659 33.1343 73.6779 33.9023 73.5819 34.4303L73.5099 35.0063L73.5819 35.2223C73.5339 35.3183 73.4619 35.3663 73.3659 35.3663C73.2699 35.3663 73.2219 35.4143 73.2219 35.5103L73.2939 35.7983C73.2939 35.8463 73.2699 35.8703 73.2219 35.8703C72.6939 36.3023 71.5899 39.2783 69.9099 44.7983C68.1819 50.1263 67.1499 53.9663 66.8139 56.3183C66.7179 56.8463 66.4299 57.4703 65.9499 58.1903C65.5659 58.6703 65.2779 58.9103 65.0859 58.9103Z" fill="#F8F8F8"/>
<path d="M37.0598 59.4142C36.8678 59.4142 36.7718 59.3422 36.7718 59.1982C36.7718 59.1022 36.8198 58.9822 36.9158 58.8382C37.0118 58.6942 37.1558 58.5742 37.3478 58.4782C37.4918 58.4302 37.5638 58.3822 37.5638 58.3342C37.5638 58.2862 37.3238 58.2622 36.8438 58.2622L36.4838 58.3342C36.2918 58.3342 36.0518 58.2622 35.7638 58.1182C35.4758 58.0222 34.7798 57.4942 33.6758 56.5342L34.5398 55.7422C35.4518 54.8782 37.4198 53.8462 40.4438 52.6462C41.4998 52.2622 42.0758 51.9982 42.1718 51.8542C42.2678 51.6622 42.3158 51.4462 42.3158 51.2062C42.3158 50.0062 43.0598 46.9102 44.5478 41.9182C47.9078 30.4462 51.4118 21.1102 55.0598 13.9102C56.2598 11.4622 56.8598 10.0942 56.8598 9.80619C56.8598 9.75819 56.8358 9.73419 56.7878 9.73419L56.6438 9.80619C56.4998 9.90219 56.2838 9.97419 55.9958 10.0222C55.7558 10.0702 55.5398 10.1182 55.3478 10.1662C54.9158 10.2622 54.6998 10.3822 54.6998 10.5262V10.5982C54.6998 10.6942 54.4598 10.7902 53.9798 10.8862C53.2598 11.0302 52.3958 11.1022 51.3878 11.1022C51.2918 11.1022 51.2198 11.0782 51.1718 11.0302V10.9582L51.4598 10.4542C51.6998 10.2622 51.8198 10.1182 51.8198 10.0222C51.8198 9.97419 51.6278 9.95018 51.2438 9.95018C50.8598 9.95018 50.5238 9.71018 50.2358 9.23019C49.8518 8.84618 49.5638 8.41419 49.3718 7.93419C49.2758 7.79019 49.2278 7.62219 49.2278 7.43019C49.2278 7.23819 49.7558 6.92619 50.8118 6.49419C51.3398 6.20619 51.9638 5.91819 52.6838 5.63018C54.5558 4.81419 57.6758 3.99819 62.0438 3.18219C67.5638 2.22219 71.4758 1.74219 73.7798 1.74219C74.5958 1.74219 75.1718 1.79019 75.5078 1.88619L76.0118 2.10219C76.0118 2.15019 75.8678 2.17419 75.5798 2.17419H73.6358L72.1958 2.24619C71.5718 2.29419 71.2598 2.34219 71.2598 2.39019C71.2598 2.43819 71.7158 2.48619 72.6278 2.53419C73.5878 2.58219 74.3318 2.72619 74.8598 2.96619C75.3878 3.15819 75.8438 3.49418 76.2278 3.97418C76.7558 4.50219 77.0918 4.81419 77.2358 4.91019C77.6678 5.34219 77.8838 5.60619 77.8838 5.70219C77.8838 5.79819 77.5478 5.91819 76.8758 6.06219C76.2038 6.15819 75.3398 6.25419 74.2838 6.35019C73.2278 6.44619 71.8358 6.61419 70.1078 6.85419C66.0758 7.52619 63.3878 8.03019 62.0438 8.36619C61.7558 8.46219 61.6118 8.60619 61.6118 8.79819C61.6118 8.94219 61.7078 9.01419 61.8998 9.01419C62.1398 9.01419 62.3798 9.15819 62.6198 9.44619C62.8598 9.73419 63.0758 10.0462 63.2678 10.3822C63.5078 10.7182 63.6278 10.9822 63.6278 11.1742C63.6278 11.3182 63.3878 11.9662 62.9078 13.1182C61.8038 15.9502 60.6758 18.5902 59.5238 21.0382L58.8758 22.4062C58.0598 24.2302 57.5078 25.5502 57.2198 26.3662C56.9318 27.1822 56.6918 27.5902 56.4998 27.5902H56.4278L56.4998 27.8782C56.4998 27.9262 56.4758 28.0222 56.4278 28.1662C56.3798 28.3102 56.3078 28.4782 56.2118 28.6702C56.1158 28.8142 56.0198 28.9582 55.9238 29.1022C55.8758 29.1982 55.8518 29.2702 55.8518 29.3182C55.8998 29.3182 55.9238 29.3422 55.9238 29.3902C55.9238 29.5822 55.7558 29.9422 55.4198 30.4702C55.2278 30.7102 55.0838 30.9502 54.9878 31.1902V31.4782C55.0358 31.4782 55.0598 31.5022 55.0598 31.5502L54.6998 32.1982C54.0278 33.5422 53.2358 35.5822 52.3238 38.3182L51.8918 39.1822C51.7478 39.5182 51.4358 40.4302 50.9558 41.9182L48.5798 49.5502L48.5078 50.1982C48.5558 50.2462 48.6278 50.2702 48.7238 50.2702C48.8198 50.2702 48.9638 50.2462 49.1558 50.1982C49.3478 50.1022 49.7318 50.0302 50.3078 49.9822C51.3158 49.8382 51.9398 49.7662 52.1798 49.7662C52.3238 49.7662 52.3958 49.7902 52.3958 49.8382C52.3958 49.8862 51.9398 50.0062 51.0278 50.1982C50.8838 50.1982 50.7638 50.2222 50.6678 50.2702C48.9398 50.7022 48.0758 50.9902 48.0758 51.1342L49.0118 51.0622C49.5398 50.9662 50.8598 50.8702 52.9718 50.7742C53.7878 50.6782 54.4118 50.6302 54.8438 50.6302C55.6598 50.6302 56.1638 50.7742 56.3558 51.0622C56.5478 51.3502 56.9078 51.4942 57.4358 51.4942C58.0118 51.4942 58.4198 51.6862 58.6598 52.0702L58.8038 52.5742C58.7558 52.6222 58.4918 52.6462 58.0118 52.6462C57.5798 52.6462 56.5478 52.8382 54.9158 53.2222C50.5958 54.3262 48.0998 55.1182 47.4278 55.5982C47.1878 55.8382 46.8758 55.9582 46.4918 55.9582C46.1558 55.9582 45.9158 56.0542 45.7718 56.2462C45.6758 56.4382 45.5798 56.5582 45.4838 56.6062H45.1238C44.6918 56.6062 42.3158 57.4702 37.9958 59.1982C37.6118 59.3422 37.2998 59.4142 37.0598 59.4142Z" fill="#F8F8F8"/>
<path d="M28.4063 46.743C28.4543 46.743 28.4783 46.671 28.4783 46.527C28.5263 46.383 28.5503 46.191 28.5503 45.951C28.4543 45.471 28.3823 45.231 28.3343 45.231V45.519C28.3343 46.335 28.3583 46.743 28.4063 46.743ZM28.4063 21.111C28.5023 21.111 28.5983 20.943 28.6943 20.607C28.6943 20.415 28.6703 20.247 28.6223 20.103C28.6223 19.911 28.5983 19.815 28.5503 19.815C28.5023 19.815 28.4303 20.007 28.3343 20.391V20.751C28.3343 20.991 28.3583 21.111 28.4063 21.111ZM31.0703 50.055C31.1183 50.055 31.1903 49.887 31.2863 49.551L31.3583 49.263C31.3583 49.167 31.2863 49.119 31.1423 49.119C30.9983 49.311 30.9263 49.551 30.9263 49.839C30.9263 49.983 30.9503 50.055 30.9983 50.055H31.0703ZM47.9903 6.279C48.0863 6.231 48.2063 6.039 48.3503 5.703C48.5423 5.319 48.6383 5.031 48.6383 4.839L48.5663 4.767C48.5183 4.767 48.4703 4.815 48.4223 4.911C48.3743 4.959 48.3023 5.055 48.2063 5.199C48.1583 5.295 48.0863 5.439 47.9903 5.631C47.9423 5.823 47.9183 5.967 47.9183 6.063C47.9183 6.207 47.9423 6.279 47.9903 6.279ZM27.4703 65.391L27.0383 65.175C25.4543 64.647 24.6623 63.735 24.6623 62.439C24.6623 61.671 24.9263 60.111 25.4543 57.759C25.7903 56.415 26.0063 55.407 26.1023 54.735C26.2463 54.063 26.3183 53.439 26.3183 52.863L26.0303 50.487C25.5983 47.655 25.2863 43.215 25.0943 37.167L25.0223 35.871C24.6863 30.015 24.4943 27.087 24.4463 27.087C24.3503 27.087 23.9663 27.711 23.2943 28.959L19.0463 36.663C18.2783 38.199 17.5343 39.615 16.8143 40.911C16.7183 41.103 16.5743 41.391 16.3823 41.775C16.2383 42.111 16.0463 42.447 15.8063 42.783L15.0143 44.295C15.0143 44.439 14.7503 45.063 14.2223 46.167C12.5423 49.383 11.1983 51.807 10.1903 53.439C8.70234 56.031 7.52634 57.327 6.66234 57.327L6.23034 57.255C5.65434 57.255 5.27034 57.303 5.07834 57.399C4.93434 57.495 4.76634 57.543 4.57434 57.543C4.43034 57.543 4.16634 57.495 3.78234 57.399C3.39834 57.303 2.94234 57.111 2.41434 56.823C1.88634 56.583 1.50234 56.295 1.26234 55.959C1.02234 55.623 0.902344 55.023 0.902344 54.159C0.902344 51.231 2.17434 45.567 4.71834 37.167C5.96634 33.279 7.71834 28.335 9.97434 22.335C14.7263 9.471 17.6543 3.039 18.7583 3.039H18.8303L18.9023 3.327C18.8543 3.471 18.7823 3.591 18.6863 3.687C18.6383 3.783 18.6143 3.879 18.6143 3.975C18.6143 4.167 18.7103 4.431 18.9023 4.767C19.1423 5.055 19.4543 5.319 19.8383 5.559C20.0303 5.703 20.2223 5.775 20.4143 5.775C20.5103 5.775 20.6063 5.727 20.7023 5.631C20.7983 5.487 20.9183 5.415 21.0623 5.415L21.3503 5.559C21.4943 5.655 21.8543 6.039 22.4303 6.711L20.9903 10.095C18.5423 15.615 15.9743 22.143 13.2863 29.679C11.5583 34.623 10.6943 37.191 10.6943 37.383C10.6943 37.527 10.4303 38.295 9.90234 39.687L8.75034 43.431L7.38234 48.255C7.43034 48.255 7.62234 47.967 7.95834 47.391C9.30234 45.087 10.4303 43.023 11.3423 41.199C11.7743 40.191 12.1583 39.447 12.4943 38.967C12.8303 38.487 13.0463 38.247 13.1423 38.247C13.1903 38.247 13.2143 38.271 13.2143 38.319H13.4303L13.2863 37.743C13.2863 37.599 13.3343 37.407 13.4303 37.167C13.5263 36.879 13.6463 36.639 13.7903 36.447C13.9823 36.207 14.1263 36.087 14.2223 36.087L14.4383 36.159C14.4863 36.159 14.5103 36.135 14.5103 36.087V36.015L14.4383 35.871C14.4383 35.391 14.5583 34.935 14.7983 34.503C15.0383 34.071 15.2303 33.855 15.3743 33.855L15.5903 33.999C15.6383 33.999 15.6623 33.975 15.6623 33.927L15.5903 33.711C15.5903 33.087 16.8143 30.543 19.2623 26.079C20.8463 23.103 22.0943 20.823 23.0063 19.239C24.4463 16.647 25.4303 15.351 25.9583 15.351L26.2463 15.423C26.4863 15.423 26.6303 15.207 26.6783 14.775L26.7503 14.199C26.7983 14.199 26.8223 14.439 26.8223 14.919C26.9663 16.119 27.3023 16.719 27.8303 16.719C28.0223 16.719 28.1663 16.647 28.2623 16.503C28.4063 16.359 28.5503 16.287 28.6943 16.287C28.8863 16.287 29.1983 16.479 29.6303 16.863L30.4943 17.943V27.447C30.3503 29.079 30.2783 32.007 30.2783 36.231L30.3503 41.127C39.9983 15.351 45.3503 2.199 46.4063 1.671C46.6463 1.671 46.9343 1.407 47.2703 0.878998C47.5103 0.542999 47.6543 0.375 47.7023 0.375C47.7503 0.375 47.7743 0.399 47.7743 0.446999C47.8223 0.494998 47.8463 0.542998 47.8463 0.590997C47.8463 0.782998 47.7503 1.047 47.5583 1.383C47.5103 1.431 47.4863 1.503 47.4863 1.599C47.4863 1.887 47.7023 2.319 48.1343 2.895C48.2783 3.087 48.3983 3.279 48.4943 3.471C48.6383 3.615 48.7343 3.735 48.7823 3.831C48.8303 3.927 48.8543 3.999 48.8543 4.047L49.2143 3.687C49.3583 3.351 49.4783 3.159 49.5743 3.111C49.6703 3.111 49.8383 3.231 50.0783 3.471C50.3183 3.663 50.4863 3.855 50.5823 4.047C50.7263 4.239 50.7983 4.383 50.7983 4.479C50.7983 4.623 50.6543 5.103 50.3663 5.919C49.6463 8.127 49.0703 9.591 48.6383 10.311L47.6303 12.615L46.1903 16.143C40.2863 30.159 35.7983 41.847 32.7263 51.207C32.0063 53.271 31.6463 54.639 31.6463 55.311C31.6463 55.935 31.7423 56.607 31.9343 57.327C32.2223 58.767 32.3663 59.655 32.3663 59.991C32.3663 60.423 32.1983 60.639 31.8623 60.639C31.4303 60.639 31.1183 60.207 30.9263 59.343C30.7823 58.719 30.6863 58.407 30.6383 58.407C30.5423 58.407 30.4943 58.623 30.4943 59.055C30.4943 59.535 30.5423 59.895 30.6383 60.135L30.7823 60.639L30.4943 60.567C30.2543 60.567 30.0863 60.615 29.9903 60.711C29.8943 60.855 29.7983 61.167 29.7023 61.647L29.4863 63.663C29.4863 64.719 29.2703 65.247 28.8383 65.247C28.5983 65.247 28.4063 65.151 28.2623 64.959C28.1183 64.767 28.0463 64.335 28.0463 63.663C28.0463 62.559 28.0703 61.719 28.1183 61.143C28.1663 60.567 28.1903 60.135 28.1903 59.847C27.8063 61.239 27.5903 62.247 27.5423 62.871C27.4943 63.303 27.4703 63.783 27.4703 64.311L27.5423 64.815C27.5423 65.199 27.5183 65.391 27.4703 65.391Z" fill="#F8F8F8"/>
<path d="M614.699 34.5448L608.171 16.6888L597.099 34.5448H614.699ZM621.867 54.0008L618.667 45.2968H590.443L585.067 54.0008H570.027L600.107 6.38477H618.859L636.971 54.0008H621.867Z" fill="#215FF6"/>
<path d="M529.582 26.5448H551.726C556.526 26.5448 558.382 23.9208 558.382 21.3608C558.382 18.9288 556.974 17.2008 553.07 17.2008H531.118L529.582 26.5448ZM527.982 37.1048L525.294 54.0008H510.766L518.318 6.38477H556.078C570.03 6.38477 573.998 11.6968 573.998 17.9048C573.998 25.2648 567.726 28.5928 563.502 29.8088C567.854 31.1528 571.63 34.1608 570.67 40.3048L569.39 48.3048C568.878 51.6968 569.262 52.9128 569.454 53.6808L569.39 54.0008H554.606C554.35 53.4888 554.158 52.7848 554.478 50.8008L555.31 45.5528C556.206 39.9208 554.094 37.1048 546.734 37.1048H527.982Z" fill="#215FF6"/>
<path d="M463.255 6.38477H512.023L510.295 17.2008H475.863L474.775 24.2408H508.439L506.711 35.1208H473.047L471.767 42.9288H506.775L505.047 54.0008H455.703L463.255 6.38477Z" fill="#215FF6"/>
<path d="M376.828 54.0008L384.38 6.38477H404.604L416.124 36.0168L436.348 6.38477H456.508L448.956 54.0008H434.684L439.932 21.0408L417.084 54.0008H409.34L396.092 21.0408L390.844 54.0008H376.828Z" fill="#215FF6"/>
<path d="M352.762 34.5448L346.234 16.6888L335.162 34.5448H352.762ZM359.93 54.0008L356.73 45.2968H328.506L323.13 54.0008H308.09L338.17 6.38477H356.922L375.034 54.0008H359.93Z" fill="#215FF6"/>
<path d="M280.176 54.8327H277.616C253.872 54.8327 248.176 42.0327 248.176 32.7527C248.176 31.2167 248.24 29.8087 248.56 27.5047C249.648 19.4407 255.6 5.55273 281.968 5.55273H284.464C312.048 5.55273 315.056 18.4807 314.096 25.0087H298.672C298.48 23.6007 297.2 17.0727 282.416 17.0727C268.784 17.0727 264.752 23.4727 263.984 28.3367C263.792 29.5527 263.728 30.5767 263.728 31.7287C263.728 37.4247 267.312 43.2487 279.472 43.2487C294.576 43.2487 296.752 35.8887 297.2 34.8007H312.624C311.984 41.6487 306.672 54.8327 280.176 54.8327Z" fill="#215FF6"/>
<path d="M225.019 29.4883H245.051L243.259 40.4963H223.227L225.019 29.4883Z" fill="#215FF6"/>
<path d="M163.443 6.38477H179.635L203.955 36.9768L208.755 6.38477H223.091L215.539 54.0008H201.267L175.283 21.8728L170.227 54.0008H155.891L163.443 6.38477Z" fill="#215FF6"/>
<path d="M156.721 6.38477L149.169 54.0008H134.641L142.193 6.38477H156.721Z" fill="#215FF6"/>
</svg>
