<svg width="833" height="125" viewBox="0 0 833 125" fill="none" xmlns="http://www.w3.org/2000/svg">
<path d="M1.24 57.52L3.71302 57.8864L3.71419 57.8783L1.24 57.52ZM164.76 46.16V48.66H167.116L167.256 46.3082L164.76 46.16ZM126.36 46.16L123.894 46.571L124.242 48.66H126.36V46.16ZM39.32 59.92L36.8431 59.581L36.8419 59.5896L39.32 59.92ZM125.56 77.84L127.996 78.4021L128.703 75.34H125.56V77.84ZM79.8 77.84L77.3299 77.4546L76.8797 80.34H79.8V77.84ZM83.32 55.28V52.78H81.1798L80.8499 54.8946L83.32 55.28ZM164.76 55.28L167.229 55.6708L167.687 52.78H164.76V55.28ZM154.2 122V124.5H156.335L156.669 122.391L154.2 122ZM132.44 122L129.942 121.911L129.849 124.5H132.44V122ZM131 103.12L133.425 102.514L132.242 97.7815L129.092 101.505L131 103.12ZM75.96 121.58H72.76V126.58H75.96V121.58ZM72.76 121.58C44.8902 121.58 27.5123 113.991 17.1065 103.831C6.68822 93.6592 2.94 80.6003 2.94 69.04H-2.06C-2.06 81.6397 2.03178 96.1008 13.6135 107.409C25.2077 118.729 43.9898 126.58 72.76 126.58V121.58ZM2.94 69.04C2.94 65.2903 3.09517 62.0568 3.71301 57.8864L-1.23301 57.1536C-1.89517 61.6232 -2.06 65.1097 -2.06 69.04H2.94ZM3.71419 57.8783C5.34564 46.6135 9.74017 33.0871 21.6162 22.3548C33.4827 11.6312 53.1712 3.38 86.04 3.38V-1.62C52.3488 -1.62 31.3173 6.8488 18.2638 18.6452C5.21983 30.4329 0.494358 45.2265 -1.23419 57.1617L3.71419 57.8783ZM86.04 3.38H91V-1.62H86.04V3.38ZM91 3.38C123.16 3.38 141.135 10.5948 150.937 19.3267C160.681 28.0069 162.71 38.5118 162.264 46.0117L167.256 46.3082C167.77 37.6482 165.399 25.5131 154.263 15.5932C143.185 5.72518 123.8 -1.62 91 -1.62V3.38ZM164.76 43.66H126.36V48.66H164.76V43.66ZM128.826 45.749C128.537 44.0129 127.636 39.0355 121.766 34.6047C116.017 30.2645 105.832 26.7 87.64 26.7V31.7C105.288 31.7 114.223 35.1754 118.754 38.5953C123.164 41.9245 123.703 45.4271 123.894 46.571L128.826 45.749ZM87.64 26.7C69.7768 26.7 57.6073 30.6543 49.5863 36.8858C41.5251 43.1483 37.9518 51.4788 36.8431 59.5811L41.7969 60.2589C42.7682 53.1612 45.8349 46.1317 52.6538 40.8342C59.5127 35.5056 70.4632 31.7 87.64 31.7V26.7ZM36.8419 59.5896C36.5148 62.0431 36.34 63.7646 36.34 66.16H41.34C41.34 64.0754 41.4852 62.5969 41.7981 60.2504L36.8419 59.5896ZM36.34 66.16C36.34 74.536 39.2996 82.5323 46.3425 88.383C53.3259 94.1843 64.0152 97.62 79 97.62V92.62C64.7048 92.62 55.3141 89.3357 49.5375 84.537C43.8204 79.7877 41.34 73.304 41.34 66.16H36.34ZM79 97.62C95.8881 97.62 107.693 94.2745 115.484 90.2627C119.375 88.2594 122.276 86.0837 124.302 84.0664C126.25 82.1258 127.6 80.1198 127.996 78.4021L123.124 77.2778C123.04 77.6402 122.47 78.8342 120.773 80.5236C119.154 82.1363 116.685 84.0206 113.196 85.8173C106.227 89.4055 95.2319 92.62 79 92.62V97.62ZM125.56 75.34H79.8V80.34H125.56V75.34ZM82.2701 78.2254L85.7901 55.6654L80.8499 54.8946L77.3299 77.4546L82.2701 78.2254ZM83.32 57.78H164.76V52.78H83.32V57.78ZM162.291 54.8892L151.731 121.609L156.669 122.391L167.229 55.6708L162.291 54.8892ZM154.2 119.5H132.44V124.5H154.2V119.5ZM134.938 122.089C135.101 117.538 134.791 107.978 133.425 102.514L128.575 103.726C129.769 108.502 130.099 117.502 129.942 121.911L134.938 122.089ZM129.092 101.505C124.21 107.274 108.874 121.58 75.96 121.58V126.58C110.566 126.58 127.23 111.446 132.908 104.735L129.092 101.505ZM174.521 57.84L172.048 57.4751L172.046 57.4856L172.045 57.4961L174.521 57.84ZM344.761 65.84L347.234 66.2071L347.236 66.1935L344.761 65.84ZM212.761 60.88L210.27 60.6748L210.269 60.6883L212.761 60.88ZM306.681 63.12L309.159 63.4504L309.159 63.4504L306.681 63.12ZM251.641 121.58C219.616 121.58 200.84 113.791 190.08 103.826C179.34 93.8782 176.221 81.4211 176.221 71.28H171.221C171.221 82.4189 174.663 96.3618 186.682 107.494C198.683 118.609 218.866 126.58 251.641 126.58V121.58ZM176.221 71.28C176.221 67.6247 176.222 63.7662 176.997 58.1839L172.045 57.4961C171.22 63.4338 171.221 67.5753 171.221 71.28H176.221ZM176.994 58.2049C178.409 48.6169 181.502 35.0444 192.914 23.8226C204.299 12.6277 224.375 3.38 260.601 3.38V-1.62C223.547 -1.62 202.024 7.85226 189.408 20.2574C176.82 32.6356 173.513 47.5431 172.048 57.4751L176.994 58.2049ZM260.601 3.38H267.481V-1.62H260.601V3.38ZM267.481 3.38C299.279 3.38 318.109 10.9353 328.97 20.6992C339.801 30.4361 343.061 42.6881 343.061 52.88H348.061C348.061 41.6319 344.441 27.8839 332.313 16.9808C320.214 6.10468 300.003 -1.62 267.481 -1.62V3.38ZM343.061 52.88C343.061 56.9789 342.903 61.1691 342.286 65.4864L347.236 66.1935C347.899 61.5509 348.061 57.1011 348.061 52.88H343.061ZM342.288 65.4729C340.79 75.5655 337.69 89.4554 326.273 100.872C314.891 112.254 294.824 121.58 258.521 121.58V126.58C295.659 126.58 317.191 117.026 329.809 104.408C342.392 91.8246 345.692 76.5945 347.234 66.2071L342.288 65.4729ZM258.521 121.58H251.641V126.58H258.521V121.58ZM309.661 56.72C309.661 49.5441 307.177 41.9811 299.785 36.298C292.505 30.7015 280.786 27.18 262.841 27.18V32.18C280.257 32.18 290.697 35.6185 296.738 40.262C302.665 44.8189 304.661 50.7759 304.661 56.72H309.661ZM262.841 27.18C242.744 27.18 229.86 31.652 221.816 38.2467C213.728 44.8782 210.871 53.3789 210.27 60.6748L215.253 61.0852C215.772 54.7811 218.194 47.6818 224.986 42.1133C231.823 36.508 243.418 32.18 262.841 32.18V27.18ZM210.269 60.6883C210.101 62.8735 210.101 64.5589 210.101 66.32H215.101C215.101 64.5611 215.102 63.0465 215.254 61.0717L210.269 60.6883ZM210.101 66.32C210.101 73.3115 212.233 81.2925 219.387 87.4719C226.478 93.597 238.126 97.62 256.441 97.62V92.62C238.757 92.62 228.484 88.723 222.655 83.6881C216.889 78.7075 215.101 72.2885 215.101 66.32H210.101ZM256.441 97.62C276.231 97.62 288.958 93.1421 297.019 86.4427C305.109 79.719 308.146 71.0529 309.159 63.4504L304.203 62.7896C303.297 69.5871 300.653 76.921 293.823 82.5973C286.964 88.2979 275.532 92.62 256.441 92.62V97.62ZM309.159 63.4504C309.488 60.9842 309.661 59.1069 309.661 56.72H304.661C304.661 58.813 304.514 60.4558 304.203 62.7896L309.159 63.4504ZM383.858 122V124.5H385.987L386.326 122.398L383.858 122ZM347.538 122L345.068 121.608L344.61 124.5H347.538V122ZM366.418 2.96V0.459997H364.283L363.948 2.56839L366.418 2.96ZM390.258 82.32V79.82H388.128L387.789 81.9219L390.258 82.32ZM394.258 55.6L391.79 55.199L391.318 58.1H394.258V55.6ZM398.418 30V27.5H396.291L395.95 29.599L398.418 30ZM383.858 119.5H347.538V124.5H383.858V119.5ZM350.007 122.392L368.887 3.35161L363.948 2.56839L345.068 121.608L350.007 122.392ZM366.418 5.46H450.418V0.459997H366.418V5.46ZM450.418 5.46C469.701 5.46 481.957 9.10921 489.359 14.8902C496.631 20.5703 499.598 28.6185 499.598 38.48H504.598C504.598 27.5414 501.244 17.8297 492.436 10.9498C483.758 4.17079 470.174 0.459997 450.418 0.459997V5.46ZM499.598 38.48C499.598 47.7142 497.365 57.9333 489.647 65.8554C481.94 73.766 468.338 79.82 444.658 79.82V84.82C469.137 84.82 484.255 78.554 493.228 69.3446C502.19 60.1467 504.598 48.4458 504.598 38.48H499.598ZM444.658 79.82H390.258V84.82H444.658V79.82ZM387.789 81.9219L381.389 121.602L386.326 122.398L392.726 82.7181L387.789 81.9219ZM394.258 58.1H444.498V53.1H394.258V58.1ZM444.498 58.1C451.55 58.1 456.938 56.5095 460.595 53.4061C464.317 50.2478 465.878 45.8379 465.878 41.04H460.878C460.878 44.722 459.718 47.5922 457.36 49.5939C454.937 51.6505 450.885 53.1 444.498 53.1V58.1ZM465.878 41.04C465.878 36.83 464.436 33.2491 461.198 30.82C458.094 28.4924 453.698 27.5 448.338 27.5V32.5C453.217 32.5 456.341 33.4276 458.198 34.82C459.919 36.1109 460.878 38.05 460.878 41.04H465.878ZM448.338 27.5H398.418V32.5H448.338V27.5ZM395.95 29.599L391.79 55.199L396.725 56.001L400.885 30.401L395.95 29.599ZM546.921 53.36L544.454 52.9545L543.977 55.86H546.921V53.36ZM550.761 30V27.5H548.639L548.294 29.5945L550.761 30ZM542.921 79.76V77.26H540.788L540.452 79.3672L542.921 79.76ZM536.201 122V124.5H538.335L538.67 122.393L536.201 122ZM499.881 122L497.412 121.608L496.953 124.5H499.881V122ZM518.761 2.96V0.459997H516.627L516.292 2.56839L518.761 2.96ZM631.721 61.52L631.03 59.1176L622.976 61.4359L630.984 63.9087L631.721 61.52ZM649.641 87.76L652.11 88.155L652.111 88.1459L649.641 87.76ZM646.441 107.76L643.973 107.365L643.971 107.376L643.969 107.387L646.441 107.76ZM646.601 121.2L649.053 121.69L649.163 121.139L649.027 120.594L646.601 121.2ZM646.441 122V124.5H648.491L648.893 122.49L646.441 122ZM609.481 122L607.245 123.118L607.936 124.5H609.481V122ZM609.161 114L611.629 114.398L611.63 114.391L609.161 114ZM611.241 100.88L608.772 100.487L608.772 100.489L611.241 100.88ZM546.921 55.86H602.281V50.86H546.921V55.86ZM602.281 55.86C608.732 55.86 613.556 54.0904 616.791 51.1223C620.031 48.1504 621.421 44.2092 621.421 40.4H616.421C616.421 42.9908 615.491 45.5296 613.411 47.4377C611.327 49.3496 607.831 50.86 602.281 50.86V55.86ZM621.421 40.4C621.421 36.8734 620.385 33.4893 617.589 31.0397C614.854 28.6436 610.838 27.5 605.641 27.5V32.5C610.205 32.5 612.828 33.5164 614.294 34.8003C615.698 36.0307 616.421 37.8466 616.421 40.4H621.421ZM605.641 27.5H550.761V32.5H605.641V27.5ZM548.294 29.5945L544.454 52.9545L549.388 53.7655L553.228 30.4055L548.294 29.5945ZM540.452 79.3672L533.732 121.607L538.67 122.393L545.39 80.1528L540.452 79.3672ZM536.201 119.5H499.881V124.5H536.201V119.5ZM502.35 122.392L521.23 3.35161L516.292 2.56839L497.412 121.608L502.35 122.392ZM518.761 5.46H613.161V0.459997H518.761V5.46ZM613.161 5.46C630.357 5.46 640.907 8.74613 647.117 13.5218C653.199 18.1986 655.461 24.5761 655.461 31.76H660.461C660.461 23.4239 657.764 15.4014 650.165 9.55822C642.695 3.81386 630.846 0.459997 613.161 0.459997V5.46ZM655.461 31.76C655.461 48.3632 641.363 56.143 631.03 59.1176L632.413 63.9224C643.2 60.817 660.461 51.9568 660.461 31.76H655.461ZM630.984 63.9087C636.158 65.5066 640.724 68.0187 643.719 71.7141C646.645 75.3242 648.275 80.3118 647.171 87.3741L652.111 88.1459C653.408 79.8482 651.518 73.3957 647.604 68.5659C643.758 63.8213 638.165 60.8934 632.459 59.1313L630.984 63.9087ZM647.173 87.365L643.973 107.365L648.91 108.155L652.11 88.155L647.173 87.365ZM643.969 107.387C643.309 111.758 643.212 114.825 643.367 117.11C643.524 119.422 643.941 120.867 644.176 121.806L649.027 120.594C648.782 119.613 648.478 118.578 648.356 116.77C648.231 114.935 648.293 112.242 648.913 108.133L643.969 107.387ZM644.15 120.71L643.99 121.51L648.893 122.49L649.053 121.69L644.15 120.71ZM646.441 119.5H609.481V124.5H646.441V119.5ZM611.717 120.882C611.409 120.266 610.869 119.109 611.629 114.398L606.693 113.602C605.853 118.811 606.273 121.174 607.245 123.118L611.717 120.882ZM611.63 114.391L613.71 101.271L608.772 100.489L606.692 113.609L611.63 114.391ZM613.71 101.273C614.87 93.9824 614.23 87.6978 610.075 83.3192C605.997 79.022 599.17 77.26 589.801 77.26V82.26C598.832 82.26 603.845 84.018 606.448 86.7608C608.973 89.4222 609.852 93.6976 608.772 100.487L613.71 101.273ZM589.801 77.26H542.921V82.26H589.801V77.26ZM661.553 57.84L659.079 57.4751L659.078 57.4856L659.076 57.4961L661.553 57.84ZM831.793 65.84L834.265 66.2071L834.267 66.1935L831.793 65.84ZM699.793 60.88L697.301 60.6748L697.3 60.6883L699.793 60.88ZM793.713 63.12L796.191 63.4504L796.191 63.4504L793.713 63.12ZM738.673 121.58C706.647 121.58 687.871 113.791 677.111 103.826C666.371 93.8782 663.253 81.4211 663.253 71.28H658.253C658.253 82.4189 661.694 96.3618 673.714 107.494C685.714 118.609 705.898 126.58 738.673 126.58V121.58ZM663.253 71.28C663.253 67.6247 663.253 63.7662 664.029 58.1839L659.076 57.4961C658.252 63.4338 658.253 67.5753 658.253 71.28H663.253ZM664.026 58.2049C665.44 48.6169 668.533 35.0444 679.945 23.8226C691.33 12.6277 711.407 3.38 747.633 3.38V-1.62C710.578 -1.62 689.055 7.85226 676.44 20.2574C663.852 32.6356 660.545 47.5431 659.079 57.4751L664.026 58.2049ZM747.633 3.38H754.513V-1.62H747.633V3.38ZM754.513 3.38C786.311 3.38 805.14 10.9353 816.001 20.6992C826.833 30.4361 830.093 42.6881 830.093 52.88H835.093C835.093 41.6319 831.472 27.8839 819.344 16.9808C807.245 6.10468 787.035 -1.62 754.513 -1.62V3.38ZM830.093 52.88C830.093 56.9789 829.934 61.1691 829.318 65.4864L834.267 66.1935C834.931 61.5509 835.093 57.1011 835.093 52.88H830.093ZM829.32 65.4729C827.821 75.5655 824.722 89.4554 813.305 100.872C801.923 112.254 781.855 121.58 745.553 121.58V126.58C782.69 126.58 804.222 117.026 816.84 104.408C829.423 91.8246 832.724 76.5945 834.265 66.2071L829.32 65.4729ZM745.553 121.58H738.673V126.58H745.553V121.58ZM796.693 56.72C796.693 49.5441 794.209 41.9811 786.816 36.298C779.536 30.7015 767.817 27.18 749.873 27.18V32.18C767.288 32.18 777.729 35.6185 783.769 40.262C789.696 44.8189 791.693 50.7759 791.693 56.72H796.693ZM749.873 27.18C729.776 27.18 716.891 31.652 708.847 38.2467C700.759 44.8782 697.902 53.3789 697.301 60.6748L702.284 61.0852C702.803 54.7811 705.226 47.6818 712.018 42.1133C718.854 36.508 730.449 32.18 749.873 32.18V27.18ZM697.3 60.6883C697.132 62.8735 697.133 64.5589 697.133 66.32H702.133C702.133 64.5611 702.133 63.0465 702.285 61.0717L697.3 60.6883ZM697.133 66.32C697.133 73.3115 699.264 81.2925 706.418 87.4719C713.509 93.597 725.157 97.62 743.472 97.62V92.62C725.788 92.62 715.516 88.723 709.687 83.6881C703.921 78.7075 702.133 72.2885 702.133 66.32H697.133ZM743.472 97.62C763.262 97.62 775.989 93.1421 784.05 86.4427C792.141 79.719 795.177 71.0529 796.191 63.4504L791.234 62.7896C790.328 69.5871 787.684 76.921 780.855 82.5973C773.996 88.2979 762.563 92.62 743.472 92.62V97.62ZM796.191 63.4504C796.519 60.9842 796.693 59.1069 796.693 56.72H791.693C791.693 58.813 791.546 60.4558 791.234 62.7896L796.191 63.4504Z" fill="#F8F8F8"/>
</svg>
